<?xml version="1.0" encoding="UTF-8" standalone="no"?><svg xmlns="http://www.w3.org/2000/svg" xmlns:xlink="http://www.w3.org/1999/xlink" style="isolation:isolate" viewBox="0 0 735 250" width="735pt" height="250pt"><defs><clipPath id="_clipPath_LXQftyOywL4h35ou7QnikGV2Ir88jeXw"><rect width="735" height="250"/></clipPath></defs><mask id="_mask_HrdQX9qQKgW4ynukoJm6YntbgbCDnCvQ" x="-200%" y="-200%" width="400%" height="400%"><rect x="-200%" y="-200%" width="400%" height="400%" style="fill:white;"/><path d=" M 586.455 141.553 L 604.912 141.553 L 604.912 141.553 Q 603.301 158.618 592.314 168.176 L 592.314 168.176 L 592.314 168.176 Q 581.328 177.734 563.091 177.734 L 563.091 177.734 L 563.091 177.734 Q 550.347 177.734 540.642 171.692 L 540.642 171.692 L 540.642 171.692 Q 530.937 165.649 525.664 154.517 L 525.664 154.517 L 525.664 154.517 Q 520.391 143.384 520.171 128.662 L 520.171 128.662 L 520.171 118.701 L 520.171 118.701 Q 520.171 103.613 525.518 92.114 L 525.518 92.114 L 525.518 92.114 Q 530.864 80.615 540.862 74.39 L 540.862 74.39 L 540.862 74.39 Q 550.859 68.164 563.97 68.164 L 563.97 68.164 L 563.97 68.164 Q 581.621 68.164 592.388 77.759 L 592.388 77.759 L 592.388 77.759 Q 603.154 87.354 604.912 104.858 L 604.912 104.858 L 586.455 104.858 L 586.455 104.858 Q 585.137 93.359 579.753 88.269 L 579.753 88.269 L 579.753 88.269 Q 574.37 83.179 563.97 83.179 L 563.97 83.179 L 563.97 83.179 Q 551.885 83.179 545.403 92.004 L 545.403 92.004 L 545.403 92.004 Q 538.921 100.83 538.774 117.896 L 538.774 117.896 L 538.774 127.344 L 538.774 127.344 Q 538.774 144.629 544.963 153.711 L 544.963 153.711 L 544.963 153.711 Q 551.152 162.793 563.091 162.793 L 563.091 162.793 L 563.091 162.793 Q 574.004 162.793 579.497 157.886 L 579.497 157.886 L 579.497 157.886 Q 584.99 152.979 586.455 141.553 L 586.455 141.553 L 586.455 141.553 Z " fill="black" stroke="none"/></mask><mask id="_mask_gwpyWme1QTHUO3KJXTuCS29y9QGYN544" x="-200%" y="-200%" width="400%" height="400%"><rect x="-200%" y="-200%" width="400%" height="400%" style="fill:white;"/><path d=" M 646.231 69.629 L 673.038 153.052 L 700.138 69.629 L 720.499 69.629 L 682.12 176.27 L 664.176 176.27 L 625.943 69.629 L 646.231 69.629 L 646.231 69.629 Z " fill="black" stroke="none"/></mask><g clip-path="url(#_clipPath_LXQftyOywL4h35ou7QnikGV2Ir88jeXw)" mask="url(#_mask_gwpyWme1QTHUO3KJXTuCS29y9QGYN544)"><g mask="url(#_mask_HrdQX9qQKgW4ynukoJm6YntbgbCDnCvQ)"><path d=" M 618.625 0 L 618.625 27.75 L 618.625 27.625 L 618.625 154.25 L 618.625 154.25 L 618.625 250 L 618.625 250 L 717.25 195.375 L 735 41.5 L 618.625 0 L 618.625 0 Z " fill="rgb(255,255,255)" fill-opacity="0.8"/><path d=" M 618.625 0 L 618.625 27.75 L 618.625 27.625 L 618.625 154.25 L 618.625 154.25 L 618.625 250 L 618.625 250 L 520 195.375 L 502.25 41.5 L 618.625 0 L 618.625 0 Z " fill="rgb(255,255,255)"/></g><path d=" M 82.764 176.27 L 70.825 144.409 L 18.604 144.409 L 6.738 176.27 L 2.417 176.27 L 42.334 69.629 L 47.168 69.629 L 87.085 176.27 L 82.764 176.27 L 82.764 176.27 Z  M 44.751 74.39 L 20.068 140.454 L 69.36 140.454 L 44.751 74.39 L 44.751 74.39 Z  M 106.128 97.021 L 106.128 115.479 L 106.128 115.479 Q 110.01 106.25 117.554 100.903 L 117.554 100.903 L 117.554 100.903 Q 125.098 95.557 134.253 95.557 L 134.253 95.557 L 134.253 95.557 Q 146.997 95.557 153.186 102.771 L 153.186 102.771 L 153.186 102.771 Q 159.375 109.985 159.448 124.561 L 159.448 124.561 L 159.448 176.27 L 155.493 176.27 L 155.493 124.414 L 155.493 124.414 Q 155.42 111.67 150.293 105.554 L 150.293 105.554 L 150.293 105.554 Q 145.166 99.438 134.033 99.438 L 134.033 99.438 L 134.033 99.438 Q 123.779 99.438 116.272 106.726 L 116.272 106.726 L 116.272 106.726 Q 108.765 114.014 106.128 125.513 L 106.128 125.513 L 106.128 176.27 L 102.173 176.27 L 102.173 97.021 L 106.128 97.021 L 106.128 97.021 Z  M 180.542 136.865 L 180.542 135.84 L 180.542 135.84 Q 180.542 116.87 188.525 106.213 L 188.525 106.213 L 188.525 106.213 Q 196.509 95.557 210.425 95.557 L 210.425 95.557 L 210.425 95.557 Q 219.287 95.557 226.172 99.622 L 226.172 99.622 L 226.172 99.622 Q 233.057 103.687 237.231 111.523 L 237.231 111.523 L 237.231 97.021 L 241.26 97.021 L 241.26 174.878 L 241.26 174.878 Q 241.26 190.552 233.203 199.377 L 233.203 199.377 L 233.203 199.377 Q 225.146 208.203 211.304 208.203 L 211.304 208.203 L 211.304 208.203 Q 203.32 208.203 196.692 204.761 L 196.692 204.761 L 196.692 204.761 Q 190.063 201.318 185.376 194.873 L 185.376 194.873 L 188.159 192.236 L 188.159 192.236 Q 192.773 198.096 198.267 201.208 L 198.267 201.208 L 198.267 201.208 Q 203.76 204.321 211.157 204.321 L 211.157 204.321 L 211.157 204.321 Q 223.389 204.321 230.2 196.887 L 230.2 196.887 L 230.2 196.887 Q 237.012 189.453 237.231 175.903 L 237.231 175.903 L 237.231 163.745 L 237.231 163.745 Q 233.13 170.483 226.135 174.109 L 226.135 174.109 L 226.135 174.109 Q 219.141 177.734 210.278 177.734 L 210.278 177.734 L 210.278 177.734 Q 196.509 177.734 188.525 166.821 L 188.525 166.821 L 188.525 166.821 Q 180.542 155.908 180.542 136.865 L 180.542 136.865 L 180.542 136.865 Z  M 184.57 137.378 L 184.57 137.378 L 184.57 137.378 Q 184.57 154.37 191.309 164.075 L 191.309 164.075 L 191.309 164.075 Q 198.047 173.779 210.205 173.779 L 210.205 173.779 L 210.205 173.779 Q 220.239 173.779 227.271 169.128 L 227.271 169.128 L 227.271 169.128 Q 234.302 164.478 237.231 156.055 L 237.231 156.055 L 237.231 120.093 L 237.231 120.093 Q 230.786 99.512 210.352 99.512 L 210.352 99.512 L 210.352 99.512 Q 198.12 99.512 191.345 109.106 L 191.345 109.106 L 191.345 109.106 Q 184.57 118.701 184.57 137.378 Z  M 323.657 176.27 L 319.629 176.27 L 319.629 163.452 L 319.629 163.452 Q 316.113 170.044 309.375 173.889 L 309.375 173.889 L 309.375 173.889 Q 302.637 177.734 292.31 177.734 L 292.31 177.734 L 292.31 177.734 Q 279.346 177.734 272.864 170.154 L 272.864 170.154 L 272.864 170.154 Q 266.382 162.573 266.235 148.071 L 266.235 148.071 L 266.235 97.021 L 270.19 97.021 L 270.19 148.218 L 270.19 148.218 Q 270.337 160.815 275.903 167.297 L 275.903 167.297 L 275.903 167.297 Q 281.47 173.779 292.163 173.779 L 292.163 173.779 L 292.163 173.779 Q 303.516 173.779 310.62 168.433 L 310.62 168.433 L 310.62 168.433 Q 317.725 163.086 319.629 152.759 L 319.629 152.759 L 319.629 97.021 L 323.657 97.021 L 323.657 176.27 L 323.657 176.27 Z  M 353.54 63.77 L 353.54 176.27 L 349.585 176.27 L 349.585 63.77 L 353.54 63.77 L 353.54 63.77 Z  M 435.278 176.27 L 430.737 176.27 L 430.737 176.27 Q 429.272 171.216 429.272 161.768 L 429.272 161.768 L 429.272 161.768 Q 424.585 169.385 416.455 173.56 L 416.455 173.56 L 416.455 173.56 Q 408.325 177.734 398.071 177.734 L 398.071 177.734 L 398.071 177.734 Q 387.085 177.734 380.383 171.765 L 380.383 171.765 L 380.383 171.765 Q 373.682 165.796 373.682 156.201 L 373.682 156.201 L 373.682 156.201 Q 373.682 145.288 383.533 138.733 L 383.533 138.733 L 383.533 138.733 Q 393.384 132.178 409.717 132.031 L 409.717 132.031 L 429.272 132.031 L 429.272 120.459 L 429.272 120.459 Q 429.272 110.498 423.01 105.005 L 423.01 105.005 L 423.01 105.005 Q 416.748 99.512 405.103 99.512 L 405.103 99.512 L 405.103 99.512 Q 394.263 99.512 387.012 105.078 L 387.012 105.078 L 387.012 105.078 Q 379.761 110.645 379.761 118.848 L 379.761 118.848 L 375.806 118.701 L 375.806 118.701 Q 375.806 109.033 384.302 102.295 L 384.302 102.295 L 384.302 102.295 Q 392.798 95.557 405.103 95.557 L 405.103 95.557 L 405.103 95.557 Q 417.92 95.557 425.464 101.965 L 425.464 101.965 L 425.464 101.965 Q 433.008 108.374 433.228 120.02 L 433.228 120.02 L 433.228 157.886 L 433.228 157.886 Q 433.228 170.923 435.278 175.61 L 435.278 175.61 L 435.278 176.27 L 435.278 176.27 Z  M 398.071 173.853 L 398.071 173.853 L 398.071 173.853 Q 409.204 173.853 417.224 168.872 L 417.224 168.872 L 417.224 168.872 Q 425.244 163.892 429.272 154.883 L 429.272 154.883 L 429.272 136.06 L 410.962 136.06 L 410.962 136.06 Q 393.97 136.06 384.961 142.798 L 384.961 142.798 L 384.961 142.798 Q 377.637 148.291 377.637 156.494 L 377.637 156.494 L 377.637 156.494 Q 377.637 163.745 383.423 168.799 L 383.423 168.799 L 383.423 168.799 Q 389.209 173.853 398.071 173.853 Z  M 494.092 96.362 L 493.652 99.878 L 488.525 99.438 L 488.525 99.438 Q 478.418 99.438 471.606 105.994 L 471.606 105.994 L 471.606 105.994 Q 464.795 112.549 462.671 124.341 L 462.671 124.341 L 462.671 176.27 L 458.716 176.27 L 458.716 97.021 L 462.671 97.021 L 462.671 113.501 L 462.671 113.501 Q 465.894 105.225 472.339 100.391 L 472.339 100.391 L 472.339 100.391 Q 478.784 95.557 488.525 95.557 L 488.525 95.557 L 488.525 95.557 Q 491.968 95.557 494.092 96.362 L 494.092 96.362 L 494.092 96.362 Z " fill="rgb(255,255,255)"/></g></svg>