<?xml version="1.0" encoding="UTF-8" standalone="no"?><!-- Generator: Gravit.io --><svg xmlns="http://www.w3.org/2000/svg" xmlns:xlink="http://www.w3.org/1999/xlink" style="isolation:isolate" viewBox="0 0 241 180" width="241pt" height="180pt"><defs><clipPath id="_clipPath_jSQs8c5GQHMAG5LyXIpjEghPOP0F5N6j"><rect width="241" height="180"/></clipPath></defs><g clip-path="url(#_clipPath_jSQs8c5GQHMAG5LyXIpjEghPOP0F5N6j)"><rect width="241" height="180" style="fill:rgb(0,0,0)" fill-opacity="0"/><g><path d=" M 241 65.081 L 131.889 65.081 L 131.889 43.471 L -0.236 43.471 L -0.236 65.081 L 131.827 65.081 L 131.827 180 L 152.812 180 L 152.812 85.473 L 176.139 85.473 L 176.139 180 L 197.062 180 L 197.062 85.473 L 220.077 85.473 L 220.077 180 L 241 180 L 241 137.28 L 241 65.081 Z  M 120.647 0.376 C 112.17 0.376 105.283 7.255 105.283 15.741 C 105.283 24.21 112.17 31.105 120.647 31.105 C 129.125 31.105 135.98 24.21 135.98 15.741 C 135.98 7.255 129.125 0.376 120.647 0.376 Z  M -0.236 85.067 L -0.236 180 L 20.655 180 L 20.655 85.067 L -0.236 85.067 Z  M 43.858 85.067 L 43.858 180 L 64.78 180 L 64.78 85.067 L 43.858 85.067 Z  M 87.951 85.067 L 87.951 180 L 108.874 180 L 108.874 85.067 L 87.951 85.067 Z " fill="rgb(237,25,46)"/></g></g></svg>