<?xml version="1.0" encoding="UTF-8" standalone="no"?><!-- Generator: Gravit.io --><svg xmlns="http://www.w3.org/2000/svg" xmlns:xlink="http://www.w3.org/1999/xlink" style="isolation:isolate" viewBox="0 0 250 250" width="250pt" height="250pt"><defs><clipPath id="_clipPath_pVrnhmmc2SzaOvAzp5s6cauQnFwRo0Vn"><rect width="250" height="250"/></clipPath></defs><g clip-path="url(#_clipPath_pVrnhmmc2SzaOvAzp5s6cauQnFwRo0Vn)"><rect width="250" height="250" style="fill:rgb(0,0,0)" fill-opacity="0"/><g><path d=" M 179.057 233.645 C 165.771 222.987 153.507 211.307 143.14 197.582 C 142.848 197.874 142.556 198.166 142.264 198.458 C 138.76 201.962 136.132 206.05 133.65 210.285 C 130.584 215.541 128.102 220.943 126.204 226.637 C 124.89 230.725 123.576 234.813 122.262 238.901 C 121.532 241.092 121.094 243.282 120.656 245.618 C 120.072 248.1 117.882 249.852 115.253 249.852 C 104.157 249.852 92.915 249.852 81.818 249.852 C 81.088 249.852 80.504 249.852 79.774 249.852 C 79.774 249.414 79.628 248.976 79.774 248.684 C 80.066 246.056 80.796 243.72 82.11 241.384 C 83.132 239.777 84.447 238.463 86.053 237.441 C 88.243 236.127 90.579 235.251 93.061 234.521 C 95.981 233.791 99.047 233.645 101.967 233.353 C 102.259 233.353 102.405 233.353 102.697 233.207 C 102.697 232.915 102.697 232.623 102.551 232.477 C 101.383 229.849 100.507 227.075 99.923 224.301 C 99.193 220.943 98.755 217.585 98.609 214.227 C 98.463 211.161 98.317 208.094 98.463 205.174 C 98.463 202.4 98.901 199.626 99.339 196.998 C 101.091 187.946 104.449 179.624 109.851 172.177 C 113.209 167.505 117.006 163.271 121.532 159.913 C 121.824 159.621 122.116 159.329 122.554 159.183 C 122.992 158.891 123.138 158.599 122.846 158.015 C 121.824 155.971 121.24 153.927 120.802 151.737 C 120.364 149.401 119.78 147.065 119.342 144.729 C 118.904 142.684 118.758 140.64 118.466 138.596 C 118.32 137.428 118.174 136.26 118.028 135.238 C 117.736 132.756 117.59 130.42 117.298 127.938 C 117.298 127.646 117.152 127.354 117.152 127.062 C 115.692 127.354 114.377 127.646 112.917 127.938 C 111.165 128.376 109.413 128.668 107.661 129.106 C 105.325 129.544 103.135 130.128 100.799 130.566 C 99.193 130.858 97.441 131.296 95.835 131.588 C 94.229 131.88 92.477 132.318 90.871 132.61 C 89.265 132.902 87.513 133.34 85.907 133.632 C 84.155 133.924 82.548 134.362 80.796 134.654 C 78.898 135.092 77 135.384 75.102 135.676 C 73.204 135.968 71.452 135.384 69.846 134.508 C 64.736 131.442 59.626 128.376 54.662 125.31 C 53.494 124.58 52.18 123.85 51.011 123.12 C 50.865 122.974 50.573 122.828 50.427 122.682 C 49.259 121.806 49.113 120.638 50.135 119.47 C 51.157 118.302 52.472 117.28 53.932 116.404 C 57.582 114.36 61.524 114.36 65.32 115.528 C 67.218 116.112 69.116 116.696 71.014 117.426 C 72.766 118.01 74.372 117.864 75.978 116.988 C 81.818 113.776 87.659 110.563 93.499 107.497 C 101.383 103.263 109.267 99.029 117.298 94.795 C 117.444 94.795 117.444 94.795 117.59 94.649 C 118.028 94.357 118.028 94.065 117.59 93.773 C 116.568 93.043 115.545 92.313 114.669 91.583 C 108.975 87.349 103.281 83.115 97.587 78.88 C 91.893 74.646 86.199 70.412 80.504 66.178 C 78.314 64.572 76.124 62.966 74.08 61.36 C 72.766 60.338 71.89 59.17 71.306 57.71 C 68.97 52.162 66.488 46.759 63.422 41.503 C 62.546 39.897 61.962 38.291 62.108 36.393 C 62.254 35.371 62.692 34.641 63.714 34.641 C 66.926 34.349 70.138 34.349 73.35 35.225 C 74.518 35.517 75.54 36.101 76.416 36.831 C 77.584 37.853 78.752 39.021 79.482 40.335 C 80.942 42.817 82.548 45.299 84.009 47.927 C 84.885 49.388 86.053 50.41 87.513 50.994 C 92.039 52.746 96.711 54.498 101.237 56.396 C 105.909 58.148 110.435 60.046 115.107 61.798 C 119.05 63.404 122.992 64.864 127.08 66.47 C 127.956 66.762 128.686 67.2 129.562 67.492 C 130 67.638 130.292 67.638 130.584 67.2 C 131.46 65.448 132.774 63.988 133.942 62.382 C 135.84 60.192 137.592 57.71 138.76 55.082 C 139.344 53.914 139.782 52.6 140.074 51.286 C 140.658 48.365 139.782 45.591 137.008 43.547 C 135.694 42.671 134.234 42.233 132.774 41.649 C 131.898 41.357 131.168 40.919 130.584 40.189 C 130 39.605 129.708 39.021 129.708 38.291 C 129.562 37.415 129.416 36.685 129.416 35.955 C 129.416 35.517 129.562 35.225 130 35.079 C 131.022 34.933 132.044 34.641 132.92 34.495 C 135.694 34.057 137.592 32.451 138.76 29.823 C 139.198 28.801 139.49 27.633 139.198 26.465 C 139.052 26.027 138.906 25.735 138.614 25.297 C 138.468 25.005 138.03 24.859 137.738 25.151 C 135.986 26.173 134.088 26.027 132.19 25.735 C 130.73 25.443 130.438 25.735 129.854 27.049 C 129.416 28.071 128.978 28.217 128.102 27.487 C 127.226 26.611 126.35 25.589 125.912 24.421 C 125.766 23.983 125.474 23.691 125.182 23.399 C 124.598 22.815 124.014 22.085 123.43 21.501 C 122.262 20.187 122.116 18.435 121.97 16.829 C 121.824 14.93 121.532 13.032 121.386 11.134 C 121.094 9.236 122.262 7.776 124.16 7.922 C 127.372 8.214 130.438 7.922 133.65 7.776 C 135.402 7.776 137.154 7.484 138.906 6.9 C 139.198 6.9 139.344 6.608 139.636 6.462 C 142.702 4.272 146.06 2.52 149.711 1.498 C 152.777 0.622 155.843 0.184 158.909 0.038 C 161.245 -0.108 163.435 0.184 165.771 0.622 C 168.253 1.06 170.735 1.644 172.925 2.812 C 174.239 3.396 175.553 4.272 176.867 5.148 C 177.305 5.44 177.597 5.586 177.889 5.148 C 180.956 2.228 186.212 2.812 189.278 5.586 C 191.614 7.63 192.782 10.258 192.928 13.178 C 193.074 15.368 192.49 17.267 191.03 19.019 C 190.446 19.603 190.446 20.187 190.738 20.917 C 191.76 23.253 192.636 25.881 193.074 28.363 C 193.366 29.823 193.658 31.137 193.95 32.597 C 194.388 34.787 194.68 36.977 194.972 39.167 C 195.264 41.065 195.264 42.963 195.41 44.861 C 195.848 49.388 195.556 53.768 195.264 58.294 C 195.118 61.068 194.68 63.842 194.242 66.47 C 193.95 68.952 193.512 71.288 192.928 73.77 C 192.052 77.274 190.884 80.633 189.57 83.991 C 188.548 86.473 187.672 89.101 186.942 91.729 C 186.212 94.211 185.628 96.547 185.044 99.029 C 184.606 100.781 184.46 102.533 184.168 104.139 C 183.584 107.497 183.292 110.855 183.146 114.36 C 183 118.156 183 121.952 183.146 125.748 C 183.292 128.668 183.584 131.734 183.876 134.654 C 184.168 136.99 184.46 139.326 184.898 141.516 C 185.19 143.122 185.482 144.875 185.774 146.481 C 186.358 149.693 187.38 152.905 188.548 155.971 C 190.008 160.205 191.906 164.147 194.096 168.089 C 194.972 169.549 194.972 171.155 193.95 172.615 C 193.366 173.491 192.49 173.929 191.468 174.221 C 191.03 174.367 190.592 174.367 190.154 174.513 C 189.716 174.659 189.57 174.805 189.716 175.243 C 190.154 177.58 190.446 179.77 190.884 182.106 C 191.322 184.296 191.614 186.486 191.906 188.822 C 192.198 190.866 192.636 192.91 192.928 194.954 C 193.22 197.144 193.658 199.334 193.95 201.524 C 194.242 203.714 194.68 205.904 194.972 207.948 C 195.264 210.139 195.702 212.475 195.994 214.665 C 196.286 216.855 196.724 219.045 197.016 221.089 C 197.308 223.279 197.746 225.615 198.038 227.805 C 198.33 229.995 198.768 232.331 199.06 234.521 C 199.352 236.857 199.79 239.193 200.082 241.53 C 200.228 242.552 200.374 243.72 200.52 244.742 C 200.812 246.932 198.768 249.706 196.286 250.144 C 195.702 250.29 195.118 250.29 194.534 250.29 C 183.584 250.29 172.633 250.29 161.683 250.29 C 160.077 250.29 160.077 250.29 160.369 248.684 C 160.661 246.348 161.391 244.304 162.559 242.26 C 164.165 239.485 166.647 237.733 169.713 236.565 C 171.027 235.981 172.487 235.543 173.801 235.251 C 175.407 234.959 177.159 234.813 178.765 234.521 C 179.057 234.521 179.203 234.521 179.495 234.375 C 178.911 233.791 179.057 233.791 179.057 233.645 Z " fill="rgb(0,0,0)"/></g></g></svg>