<?xml version="1.0" encoding="utf-8"?>
<!-- Generator: Adobe Illustrator 24.1.2, SVG Export Plug-In . SVG Version: 6.00 Build 0)  -->
<svg version="1.1" id="BerlinLogoM" xmlns="http://www.w3.org/2000/svg" xmlns:xlink="http://www.w3.org/1999/xlink" x="0px"
	 y="0px" viewBox="0 0 850.393677 283.464569" style="enable-background:new 0 0 850.393677 283.464569;" xml:space="preserve">
<style type="text/css">
	.st0{fill:#FFFFFF;}
	.st1{fill:#E4001F}
	.st2{fill-rule:evenodd;clip-rule:evenodd;}
</style>
<rect x="0" y="0.000015" class="st0" width="850.393677" height="283.464569"/>
<path d="M0,0.000015v283.464539l850.393677,0.000061V0.000015H0z M6,277.464569V6.000015h560.929138v271.464539H6z
	 M844.393677,277.46463H572.929138V6.000015h271.464539V277.46463z"/>
<path class="st1" d="M485.595154,96.108856v62.496292c0,0.810379-0.541107,1.079544-0.946198,0.269257l-35.633118-63.306656
	c-0.40509-0.674362-1.215454-1.079544-2.025665-1.079544h-15.25238c-0.946198,0-1.620575,0.674355-1.620575,1.620651v91.246887
	c0,0.943604,0.674377,1.620651,1.620575,1.620651h13.226532c0.946228,0,1.620575-0.677048,1.620575-1.620651v-62.360374
	c0-0.810364,0.541107-1.079536,0.946381-0.271935l35.632935,63.170731c0.40509,0.677048,1.215485,1.08223,2.025848,1.08223
	h15.252197c0.946198,0,1.620728-0.677048,1.620728-1.620651V96.108856c0-0.946297-0.67453-1.620651-1.620728-1.620651h-13.229126
	C486.269501,94.488205,485.595154,95.16256,485.595154,96.108856 M390.22583,188.976395h13.36499
	c0.943604,0,1.61795-0.677048,1.61795-1.620651V96.108856c0-0.946297-0.674347-1.620651-1.61795-1.620651h-13.36499
	c-0.943604,0-1.617981,0.674355-1.617981,1.620651v91.246887C388.607849,188.299347,389.282227,188.976395,390.22583,188.976395
	 M336.936981,172.508636v-76.39978c0-0.946297-0.67453-1.620651-1.618134-1.620651h-13.36499
	c-0.943604,0-1.617981,0.674355-1.617981,1.620651v91.246887c0,0.943604,0.674377,1.620651,1.617981,1.620651h46.028625
	c0.946228,0,1.620728-0.677048,1.620728-1.620651v-12.418762c0-0.943619-0.6745-1.620651-1.620728-1.620651h-30.235321
	C337.208832,173.31633,336.936981,172.913818,336.936981,172.508636 M249.632965,110.145592h12.285522
	c10.931427,0,19.70639,5.805573,19.70639,17.819153c0,12.013649-8.774963,17.816551-19.842407,17.816551h-12.149506
	c-0.538345,0-0.807602-0.405182-0.807602-0.810364v-34.014977C248.825363,110.417526,249.09462,110.145592,249.632965,110.145592
	 M280.9505,188.976395h17.006195c1.351318,0,1.753815-0.946304,0.946198-2.025833l-20.247467-27.401794
	c-0.271881-0.405106-0.271881-0.943619,0.269257-1.212784c12.013641-4.859283,19.97821-15.524139,19.97821-30.371239
	c0-21.057777-15.929321-33.47654-36.176788-33.47654h-28.88385c-0.946213,0-1.62056,0.674355-1.62056,1.620651v91.246887
	c0,0.943604,0.674347,1.620651,1.62056,1.620651h13.362381c0.943604,0,1.620728-0.677048,1.620728-1.620651v-25.106781
	c0-0.538422,0.402512-0.810287,0.807602-0.810287h10.259674c0.405273,0,0.810364,0.271866,1.07962,0.541122l18.088409,25.914368
	C279.46579,188.571213,280.140137,188.976395,280.9505,188.976395 M207.683411,108.527618V96.108856
	c0-0.946297-0.67453-1.620651-1.620743-1.620651h-49.131241c-0.946289,0-1.620651,0.674355-1.620651,1.620651v91.246887
	c0,0.943604,0.674362,1.620651,1.620651,1.620651h49.131241c0.946213,0,1.620743-0.677048,1.620743-1.620651v-12.418762
	c0-0.943619-0.67453-1.620651-1.620743-1.620651h-33.473846c-0.541122,0-0.810287-0.402512-0.810287-0.807693V149.8302
	c0-0.538422,0.40509-0.810287,0.810287-0.810287h33.473846c0.946213,0,1.620743-0.674438,1.620743-1.617966v-12.282822
	c0-0.946304-0.67453-1.620667-1.620743-1.620667h-33.473846c-0.541122,0-0.810287-0.269257-0.810287-0.810364v-21.73214
	c0-0.538429,0.40509-0.810364,0.810287-0.810364h33.473846C207.008881,110.145592,207.683411,109.47123,207.683411,108.527618
	 M102.450165,173.31633H88.141579c-0.538429,0-0.807686-0.402512-0.807686-0.807693V149.8302
	c0-0.538422,0.269257-0.810287,0.807686-0.810287h14.308586c8.775032,0,13.634315,4.995209,13.634315,12.149506
	C116.08448,168.457047,111.225197,173.31633,102.450165,173.31633 M101.101448,110.145592
	c8.503098,0,13.226364,4.590103,13.226364,11.608467c0,7.021057-4.723267,11.7444-13.226364,11.7444H88.141579
	c-0.538429,0-0.807686-0.269257-0.807686-0.810364v-21.73214c0-0.538429,0.269257-0.810364,0.807686-0.810364H101.101448z
	 M120.807831,139.842392c6.749107-4.318176,10.798111-11.067276,10.798111-19.842232
	c0-14.441994-9.987823-25.511955-28.345406-25.511955H72.484116c-0.943535,0-1.617973,0.674355-1.617973,1.620651v91.246887
	c0,0.943604,0.674438,1.620651,1.617973,1.620651h31.99189c18.896011,0,28.883827-11.475143,28.883827-26.591507
	c0-9.854492-4.723358-17.27803-12.552002-21.462875C120.266716,140.51683,120.266716,140.111649,120.807831,139.842392"/>
<path class="st2" d="M747.953003,223.722549c-0.010803,0.113953-0.027954,0.227997-0.0495,0.339844
	c-0.032227,0.157013-0.07312,0.311798-0.12262,0.460297c-0.490356,1.443192-1.85614,2.501373-3.488586,2.501373H720.54303
	c-0.088196-2.017426,0.957092-6.364212,4.75116-8.478485c2.395996-1.335648,6.430908-2.370193,9.551758-2.568161
	c-16.28595-9.81192-25.919434-24.11702-25.932373-24.136353c-0.002136,0-5.835144,6.000748-9.130188,12.666168
	c-4.075806,8.250488-4.656494,13.02742-5.387756,17.628036c-0.10968,0.707626-0.326965,1.352875-0.468872,1.965881
	c-0.002197,0.006409-0.002197,0.012802-0.004333,0.019318c-0.04303,0.187149-0.098938,0.367783-0.165588,0.542007
	c-0.004333,0.010712-0.008606,0.019333-0.012939,0.030151c-0.017212,0.045151-0.03656,0.088104-0.058044,0.13327
	c-0.027954,0.062378-0.058105,0.126968-0.090332,0.187134c-0.030151,0.055984-0.062378,0.109756-0.094666,0.163528
	c0,0.00209-0.002136,0.006393-0.006409,0.008499c-0.230164,0.39151-0.526978,0.733459-0.877563,1.010925
	c-0.012878,0.008606-0.023621,0.019318-0.03656,0.027939c-0.473145,0.372086-1.036682,0.625916-1.645386,0.733459h-0.015015
	c-0.103271,0.010712-0.210815,0.012909-0.316162,0.012909h-0.329102l-1.279724-0.002197l-22.925537-0.051575
	c0.019348-1.940033,0.660339-5.824402,3.787598-8.005356c3.286438-2.290604,7.243958-2.899292,11.343384-3.125092
	c-2.16156-8.469925-2.62616-15.67514-1.202271-23.624542c2.395996-13.371582,9.689392-23.123367,14.98468-28.225098
	c0,0-2.832642-9.371094-3.542358-20.643478l-29.358582,5.9384c-1.307739,0.26886-2.667053,0.047272-3.819885-0.623764
	l-7.43103-4.413467c-1.051758-0.72049-5.824402-3.546692-5.824402-3.546692c-0.907654-0.415085-1.238892-1.567947-0.4151-2.391724
	c0,0,0.834473-0.795792,0.853882-0.812958c2.183044-1.834656,5.908264-3.372513,10.855103-1.161469
	c0.012939,0.002151,1.598083,0.486084,2.710022,0.823776c0.948547,0.288223,1.97229,0.180679,2.843384-0.292542
	c0,0,0.004333-0.004303,0.00647-0.004303l30.233948-15.126617c0,0-28.633728-21.699577-28.696106-21.75119
	c-0.679688-0.567795-1.200195-1.305504-1.501282-2.142204c0,0-3.024048-6.783669-3.234802-7.097679l-2.40033-4.417778
	c-0.815186-1.658264-0.797974-2.985298-0.60437-3.512291c0.176331-0.486031,0.621582-0.741966,1.488342-0.724792
	c0,0,1.74646-0.163467,3.888672,0.012917c2.970276,0.243019,4.460815,1.144249,6.172852,3.516548l2.750854,4.744698
	c0.516235,0.742073,1.60022,1.664726,2.443359,1.991653l27.949768,10.491669l0.193604-0.395714
	c0.148376-0.309753,0.318298-0.608696,0.514038-0.890465c0.679626-0.982933,1.421692-1.813118,1.501282-1.901337l0.006409-0.006462
	c9.297974-11.003532,2.02179-13.885597-0.483887-14.545914l-0.015076-0.015068
	c-0.230164-0.053772-0.445251-0.148399-0.64093-0.273163c-0.012939-0.00425-0.027954-0.015068-0.040894-0.023628
	c-1.63678-0.970016-1.445312-2.35733-1.617371-3.972542c-0.019409-0.197906,0.802246-0.344147,2.232544-0.552773
	c1.810974-0.26239,3.346619-1.481888,4.013367-3.181061l0.29895-0.76355c0.34845-0.881798-0.092468-2.901443-0.924805-2.449753
	c-3.226257,1.755043-4.923218-1.320572-5.645874,1.529251c-0.075317,0.296791-0.479675,0.376396-0.739929,0.21508
	c-0.574219-0.346298-1.421631-1.484085-1.838928-2.624031c-0.075256-0.200012-0.412964-0.458099-0.76355-0.692551l0.034424-0.019379
	c-0.97644-0.78933-1.643188-1.946442-1.785156-3.25631c-0.002136-0.01722-0.00647-0.032288-0.00647-0.04731l-0.565674-5.050102
	h0.004333c-0.012939-0.075298-0.019348-0.152699-0.019348-0.232304c0-0.894718,0.722656-1.621719,1.613098-1.621719
	c0,0,2.03894,0.088215,3.824158,0.012917l3.796143-0.182838c0,0,1.492676-0.101082,2.875671-0.546314
	c2.654053-1.972279,5.736206-3.389629,9.085022-4.088646c1.548584-0.32262,3.146606-0.492542,4.78772-0.492542
	c3.355225,0,6.542725,0.707623,9.422668,1.987347c0.004333,0.004307,0.010803,0.006458,0.017212,0.010765
	c0.004333,0.004307,0.010742,0.006405,0.017212,0.010712s0.010742,0.004307,0.012939,0.006458
	c0.679626,0.357071,1.600159,0.944237,1.615234,0.955002c0,0,0.29895,0.189247,0.810852,0.565639
	c0.307556-0.225849,1.002258-0.714085,1.296936-0.883957c2.80249-1.623875,6.5578-0.369984,8.388184,2.796055
	c1.552856,2.69923,1.159302,5.949131-0.858215,7.985943c0.152771,0.26239,0.30542,0.529091,0.453857,0.802246
	c0.877502,1.871193,2.254028,5.903969,2.791748,8.355927c1.13562,5.065117,1.955078,10.470139,1.30127,16.95266
	c-0.804443,8.007469-3.563904,15.244987-5.073792,18.540047c0.008606,0.010712,0.012878,0.019318,0.015076,0.02578v0.002151
	c0.004272,0.006462,0.004272,0.012917,0.004272,0.017227c-0.088196,0.225792-0.174194,0.453789-0.253784,0.683937
	c-0.137634,0.374245-0.27533,0.750633-0.404358,1.129181c-2.27124,6.605133-3.49939,13.698509-3.49939,21.07795
	c0,11.973557,2.002441,24.020264,7.601013,33.688202c0.967834,1.673279,0.152649,4.155334-2.01532,4.531723
	c0,0-0.361328,0.086014-1.021667,0.221542c2.337952,13.874893,7.170837,46.031738,7.282654,46.771591
	c0.002197,0.008514,0.002197,0.012924,0.002197,0.012924C747.978821,223.225693,747.976624,223.477325,747.953003,223.722549z"/>
</svg>
