<?xml version="1.0" encoding="UTF-8" standalone="no"?>
<svg xmlns="http://www.w3.org/2000/svg" height="222.15625" width="664.125">
  <g transform="translate(-197.56027,-384.1412)">
    <path d="m374.06027 384.1412v85.53125h64.90625v21.625h-109.1875v-21.625h-132.21875v21.625h132.15625v115h21v-94.59375h23.34375v94.59375h20.9375v-94.59375h23.03125v94.59375h20.9375v-42.75h422.71875v-179.40625zm-55.53125 42.40625c-8.48361 0-15.375 6.88318-15.375 15.375 0 8.47539 6.89139 15.375 15.375 15.375s15.34375-6.89961 15.34375-15.375c0-8.49182-6.86014-15.375-15.34375-15.375zm-120.96875 84.75v95h20.90625v-95zm44.125 0v95h20.9375v-95zm44.125 0v95h20.9375v-95z" fill="#ed192e"/>
    <path d="m495.49028 442.00881v28.78513s4.91934 0 8.49182-0.0821c10.3725-0.25459 19.75128-3.6546 20.12085-15.43967 0.2628-8.37684-6.24978-12.57348-12.70488-13.00874-6.17587-0.41063-15.90779-0.25459-15.90779-0.25459m0 38.30352v31.49529s6.6522 0.22995 10.90632 0.0493c12.46672-0.52561 19.89911-6.52901 19.34887-16.40876-0.5174-9.68264-7.35848-14.10102-17.78026-15.01262-4.82079-0.41884-12.47493-0.12319-12.47493-0.12319m-19.18461-40.01176c-3.05508-0.43527-4.97683-1.00193-4.97683-1.00193v-7.28457s5.84736 0.1314 12.55705 0.22174c6.7179 0.0903 12.55705-0.43527 20.76143-0.43527 15.19329 0 31.81558 2.086 32.62041 21.27882 0.70629 16.58122-15.87494 21.37738-15.87494 21.37738s18.49476 2.53769 17.88703 22.07544c-0.85411 27.41363-34.79675 25.5658-34.79675 25.5658h-33.15423v-7.05462l10.90632-2.09421v-71.90123s-2.00387-0.18068-5.92949-0.74735m157.42716 30.14842v-12.56526s-7.45703 0-12.20391 0.17246c-4.18842 0.15604-10.73386 0.61595-10.73386 0.61595v6.89036l10.73386 1.39614v55.13934h12.54884v-29.13827s-0.5174-13.83001 5.9377-20.72037c4.53335-4.84543 14.03532-2.91547 14.03532-2.91547v-12.13821s-7.6295-1.00194-13.34546 2.48841c-5.40389 3.30147-6.97249 10.77492-6.97249 10.77492m-55.3775-5.36282c14.26527 0.45991 12.81164 15.17687 12.81164 15.17687h-27.90639s1.39614-15.61214 15.09475-15.17687m-15.96528 24.73633h41.43252s4.09808-34.01656-25.21265-33.33491c-25.99285 0.61594-28.68658 23.90685-28.87547 33.68805-0.13141 7.96621 1.66715 21.69766 12.06429 28.66194 4.26234 2.86619 12.91841 4.87007 21.43487 4.48407 7.67056-0.35314 17.78847-4.09808 17.78847-4.09808v-9.86332s-8.24544 3.75315-19.27495 3.92562c-21.62376 0.35314-19.35708-23.46337-19.35708-23.46337m104.31633-53.31615s-3.08793-0.48454-5.06717-0.74734c-2.20097-0.2628-5.66669-0.56667-5.66669-0.56667v-6.62756s7.83482-0.51739 12.82807-0.60773c4.22949-0.0903 10.80777 0 10.80777 0v85.32882l10.81598 1.75749v7.05462h-34.45182v-7.05462l10.73386-1.75749v-76.77952zm41.25185 3.18649c0-4.73867 3.84349-8.59858 8.59037-8.59858 4.74687 0 8.59037 3.85991 8.59037 8.59858 0 4.74688-3.8435 8.59858-8.59037 8.59858-4.74688 0-8.59037-3.8517-8.59037-8.59858m2.79228 27.43827-10.98845-1.47827v-6.80824c4.27055-0.38599 6.40582-0.55845 10.98845-0.73913 5.53528-0.22174 9.72371-0.39421 12.46671-0.22174v55.40214l11.51405 1.75749v7.05462h-34.96921v-7.05462l10.98845-1.75749v-46.15476zm42.47552 54.96687h12.73773v-30.79722s-0.55025-5.8063 1.5686-11.95753c2.03672-5.9377 6.70969-12.68845 16.13774-13.25512 11.02951-0.68165 10.36429 11.51405 10.36429 11.51405v44.49582h12.82807v-45.89196s1.05121-18.32229-16.03919-19.02036c-20.81892-0.8459-24.85951 12.2614-24.85951 12.2614v-11.56333s-4.47586-0.16425-11.67009 0.23816c-6.84931 0.39421-11.8015 0.85411-11.8015 0.85411v6.80824l10.73386 1.26474v55.049" fill="#fff"/>
  </g>
</svg>
