<?xml version="1.0" encoding="UTF-8" standalone="no"?>
<!-- Created with Inkscape (http://www.inkscape.org/) -->

<svg
   xmlns:dc="http://purl.org/dc/elements/1.1/"
   xmlns:cc="http://creativecommons.org/ns#"
   xmlns:rdf="http://www.w3.org/1999/02/22-rdf-syntax-ns#"
   xmlns:svg="http://www.w3.org/2000/svg"
   xmlns="http://www.w3.org/2000/svg"
   xmlns:sodipodi="http://sodipodi.sourceforge.net/DTD/sodipodi-0.dtd"
   xmlns:inkscape="http://www.inkscape.org/namespaces/inkscape"
   width="499.98196"
   height="500"
   id="svg63311"
   version="1.1"
   inkscape:version="0.48.1 "
   sodipodi:docname="Neues Dokument 26">
  <defs
     id="defs63313" />
  <sodipodi:namedview
     id="base"
     pagecolor="#ffffff"
     bordercolor="#666666"
     borderopacity="1.0"
     inkscape:pageopacity="0.0"
     inkscape:pageshadow="2"
     inkscape:zoom="1.546"
     inkscape:cx="249.99098"
     inkscape:cy="250.00001"
     inkscape:document-units="px"
     inkscape:current-layer="layer1"
     showgrid="false"
     fit-margin-top="0"
     fit-margin-left="0"
     fit-margin-right="0"
     fit-margin-bottom="0"
     inkscape:window-width="1680"
     inkscape:window-height="990"
     inkscape:window-x="-4"
     inkscape:window-y="-4"
     inkscape:window-maximized="1" />
  <metadata
     id="metadata63316">
    <rdf:RDF>
      <cc:Work
         rdf:about="">
        <dc:format>image/svg+xml</dc:format>
        <dc:type
           rdf:resource="http://purl.org/dc/dcmitype/StillImage" />
        <dc:title></dc:title>
      </cc:Work>
    </rdf:RDF>
  </metadata>
  <g
     inkscape:label="Ebene 1"
     inkscape:groupmode="layer"
     id="layer1"
     transform="translate(-31.248934,98.88612)">
    <g
       id="g1360"
       transform="matrix(18.03947,0,0,-18.03947,281.22187,-98.88612)">
      <path
         inkscape:connector-curvature="0"
         d="m 0,0 c -7.652,0 -13.857,-6.205 -13.857,-13.859 0,-7.653 6.205,-13.858 13.857,-13.858 7.654,0 13.859,6.205 13.859,13.858 C 13.859,-6.205 7.654,0 0,0"
         style="fill:#ed1c24;fill-opacity:1;fill-rule:nonzero;stroke:none"
         id="path1362" />
    </g>
    <g
       id="g1364"
       transform="matrix(18.03947,0,0,-18.03947,281.22187,-36.523671)">
      <path
         inkscape:connector-curvature="0"
         d="m 0,0 c -5.743,0 -10.4,-4.657 -10.4,-10.402 0,-5.745 4.657,-10.401 10.4,-10.401 5.745,0 10.402,4.656 10.402,10.401 C 10.402,-4.657 5.745,0 0,0"
         style="fill:#ffffff;fill-opacity:1;fill-rule:nonzero;stroke:none"
         id="path1366" />
    </g>
    <g
       id="g1368"
       transform="matrix(18.03947,0,0,-18.03947,317.7518,231.21815)">
      <path
         inkscape:connector-curvature="0"
         d="m 0,0 c -0.377,-0.775 -0.765,-1.535 -1.235,-2.215 -0.849,0.644 -1.616,1.205 -2.391,1.979 -0.54,0.541 -0.981,1.241 -1.45,1.842 -0.137,0.175 -0.358,0.523 -0.529,0.569 -0.24,0.063 -0.639,0 -0.961,0 -0.721,0 -1.187,0 -1.94,0 -0.305,0 -0.816,0.052 -0.861,-0.119 -0.034,-0.121 0.189,-0.466 0.254,-0.606 0.3,-0.646 0.597,-1.026 1,-1.55 0.246,-0.319 0.495,-0.64 0.764,-0.939 1.34,-1.492 3.107,-2.549 5.291,-3.195 0.451,-0.132 0.976,-0.282 1.431,-0.274 0.554,0.01 0.82,0.447 1.136,0.764 0.254,0.255 0.47,0.515 0.667,0.745 1.132,1.32 1.818,2.739 2.469,4.586 C 3.724,1.813 4.029,2.404 3.958,2.683 3.913,2.865 3.626,2.923 3.41,2.998 2.709,3.242 2.128,3.448 1.45,3.664 1.198,3.773 1.198,3.633 1.143,3.481 1.089,3.33 0.909,2.133 0.637,1.309 0.442,0.714 0,0 0,0"
         style="fill:#e12825;fill-opacity:1;fill-rule:evenodd;stroke:none"
         id="path1370" />
    </g>
    <g
       id="g1372"
       transform="matrix(18.03947,0,0,-18.03947,323.0554,57.317654)">
      <path
         inkscape:connector-curvature="0"
         d="M 0,0 C -0.284,0.647 -0.608,1.279 -0.96,1.92 -1.106,2.188 -1.546,2.661 -1,2.725 c 0.006,0 0.014,0 0.02,0 C -0.145,2.61 0.667,2.552 1.469,2.352 2.934,1.989 4.264,1.403 5.272,0.53 5.944,-0.052 6.653,-0.976 6.193,-2.194 5.337,-1.84 4.743,-1.226 3.783,-0.979 3.788,-1.307 3.89,-1.708 3.939,-2.056 4.138,-2.291 4.543,-2.363 4.86,-2.567 5.136,-2.744 5.496,-2.989 5.625,-3.232 5.846,-3.656 5.667,-4.456 5.291,-4.527 5,-4.582 4.771,-4.361 4.586,-4.252 4.352,-4.115 4.174,-4.007 3.978,-3.879 4.001,-4.41 3.963,-5.011 3.939,-5.546 3.92,-5.957 4.026,-6.459 3.625,-6.486 3.431,-6.499 3.149,-6.336 2.959,-6.271 2.339,-6.052 1.624,-5.835 1.039,-5.626 1.01,-5.595 0.985,-5.563 0.962,-5.532 1.036,-4.727 0.913,-3.837 0.764,-3.134 0.611,-2.258 0.483,-1.228 0,0"
         style="fill:#e12825;fill-opacity:1;fill-rule:evenodd;stroke:none"
         id="path1374" />
    </g>
    <g
       id="g1376"
       transform="matrix(18.03947,0,0,-18.03947,219.83341,142.15728)">
      <path
         inkscape:connector-curvature="0"
         d="M 0,0 C -0.232,-0.218 -0.748,-0.369 -1.157,-0.256 -1.363,0.042 -1.408,0.5 -1.51,0.903 -1.06,1.238 0.194,1.013 0.234,0.471 0.246,0.325 0.111,0.106 0,0 z m -1.999,2.998 c 0.08,0.454 -0.125,1.004 0.038,1.353 0.115,0.246 0.698,0.39 0.98,0.411 C -0.572,4.794 -0.343,4.54 -0.353,4.155 -0.363,3.816 -0.697,3.536 -0.961,3.352 -1.259,3.143 -1.54,2.987 -1.999,2.998 z M 2.586,0.882 C 2.432,1.35 2.264,1.717 1.9,2.117 1.687,2.352 1.058,2.81 1.018,3.155 0.993,3.373 1.116,3.545 1.214,3.704 L 1.606,4.43 C 2.034,4.936 1.705,5.873 1.351,6.291 0.433,7.377 -1.604,6.712 -2.666,6.213 -3.295,5.916 -4.019,5.561 -4.488,5.155 -5.102,4.625 -5.104,3.879 -5.174,2.901 c -0.128,-1.768 0.225,-3.44 0.822,-4.879 0.927,-0.166 1.844,-0.473 2.902,-0.412 1.937,0.111 3.549,0.765 4.192,2.155 0.066,0.142 0.039,0.417 -0.025,0.63 L 2.586,0.882"
         style="fill:#e12825;fill-opacity:1;fill-rule:evenodd;stroke:none"
         id="path1378" />
    </g>
    <g
       id="g1380"
       transform="matrix(18.03947,0,0,-18.03947,192.59395,125.86764)">
      <path
         inkscape:connector-curvature="0"
         d="M 0,0 C 0.45,0.335 1.704,0.11 1.744,-0.432 1.756,-0.578 1.621,-0.797 1.51,-0.903 1.278,-1.121 0.762,-1.272 0.353,-1.159 0.147,-0.861 0.102,-0.403 0,0"
         style="fill:#ffffff;fill-opacity:1;fill-rule:evenodd;stroke:none"
         id="path1382" />
    </g>
    <g
       id="g1384"
       transform="matrix(18.03947,0,0,-18.03947,268.55816,352.13672)">
      <path
         inkscape:connector-curvature="0"
         d="m 0,0 -0.029,-0.227 -1.128,0.143 -0.082,-0.644 1.052,-0.132 -0.028,-0.228 -1.052,0.134 -0.088,-0.701 1.137,-0.143 -0.029,-0.228 -1.407,0.178 0.256,2.024 L 0,0"
         style="fill:#ffffff;fill-opacity:1;fill-rule:nonzero;stroke:none"
         id="path1386" />
    </g>
    <g
       id="g1388"
       transform="matrix(18.03947,0,0,-18.03947,282.35821,383.00225)">
      <path
         inkscape:connector-curvature="0"
         d="M 0,0 0.001,-0.317 -0.317,-0.319 -0.318,-0.001 0,0"
         style="fill:#ffffff;fill-opacity:1;fill-rule:nonzero;stroke:none"
         id="path1390" />
    </g>
    <g
       id="g1392"
       transform="matrix(18.03947,0,0,-18.03947,329.38711,377.71669)">
      <path
         inkscape:connector-curvature="0"
         d="M 0,0 0.06,-0.313 -0.25,-0.373 -0.312,-0.061 0,0"
         style="fill:#ffffff;fill-opacity:1;fill-rule:nonzero;stroke:none"
         id="path1394" />
    </g>
    <g
       id="g1396"
       transform="matrix(18.03947,0,0,-18.03947,305.9179,387.16937)">
      <path
         inkscape:connector-curvature="0"
         d="M 0,0 -0.977,1.93 -0.687,1.969 0.121,0.289 0.126,0.29 0.48,2.121 0.761,2.158 0.305,0.04 0,0"
         style="fill:#ffffff;fill-opacity:1;fill-rule:nonzero;stroke:none"
         id="path1398" />
    </g>
    <g
       id="g1400"
       transform="matrix(18.03947,0,0,-18.03947,82.607301,196.27569)">
      <path
         inkscape:connector-curvature="0"
         d="M 0,0 C -0.028,0.118 -0.082,0.201 -0.161,0.251 -0.24,0.301 -0.335,0.313 -0.446,0.285 -0.511,0.27 -0.562,0.244 -0.598,0.209 -0.635,0.175 -0.661,0.134 -0.676,0.088 -0.691,0.043 -0.697,-0.007 -0.695,-0.062 -0.692,-0.116 -0.684,-0.17 -0.67,-0.226 L -0.521,-0.828 0.164,-0.659 0,0 z m -0.873,-0.355 c -0.038,0.148 -0.09,0.25 -0.16,0.303 -0.068,0.052 -0.156,0.066 -0.261,0.041 -0.071,-0.019 -0.123,-0.043 -0.159,-0.077 -0.035,-0.031 -0.058,-0.07 -0.072,-0.114 -0.012,-0.044 -0.015,-0.093 -0.009,-0.145 0.006,-0.052 0.016,-0.108 0.03,-0.164 l 0.131,-0.528 0.63,0.156 -0.13,0.528 z m -0.834,-0.283 c -0.011,0.042 -0.023,0.088 -0.033,0.137 -0.011,0.049 -0.02,0.099 -0.028,0.148 -0.007,0.049 -0.011,0.096 -0.012,0.139 -10e-4,0.044 0.004,0.083 0.015,0.117 0.023,0.075 0.063,0.143 0.12,0.206 0.057,0.061 0.136,0.105 0.235,0.13 0.106,0.027 0.204,0.023 0.293,-0.008 0.089,-0.033 0.164,-0.091 0.225,-0.177 l 0.004,0.002 c -0.003,0.128 0.03,0.235 0.098,0.321 0.069,0.086 0.165,0.144 0.287,0.174 0.072,0.019 0.145,0.022 0.22,0.013 0.075,-0.009 0.145,-0.032 0.211,-0.07 C -0.007,0.456 0.051,0.405 0.102,0.336 0.153,0.27 0.19,0.188 0.214,0.089 l 0.237,-0.956 -1.981,-0.49 -0.177,0.719"
         style="fill:#ffffff;fill-opacity:1;fill-rule:nonzero;stroke:none"
         id="path1402" />
    </g>
    <g
       id="g1404"
       transform="matrix(18.03947,0,0,-18.03947,44.4899,155.43433)">
      <path
         inkscape:connector-curvature="0"
         d="M 0,0 0.228,0.017 0.316,-1.117 0.962,-1.067 0.881,-0.01 1.109,0.008 1.19,-1.05 1.894,-0.996 1.806,0.146 2.034,0.164 2.143,-1.248 0.109,-1.405 0,0"
         style="fill:#ffffff;fill-opacity:1;fill-rule:nonzero;stroke:none"
         id="path1406" />
    </g>
    <g
       id="g1408"
       transform="matrix(18.03947,0,0,-18.03947,62.836042,126.91393)">
      <path
         inkscape:connector-curvature="0"
         d="M 0,0 C -0.004,0.058 -0.018,0.11 -0.042,0.154 -0.066,0.2 -0.099,0.237 -0.144,0.267 -0.188,0.296 -0.247,0.315 -0.321,0.321 -0.424,0.33 -0.509,0.31 -0.58,0.258 -0.649,0.207 -0.69,0.118 -0.701,-0.009 l -0.059,-0.672 0.708,-0.063 0.05,0.563 C 0.003,-0.118 0.004,-0.058 0,0 z m -0.927,0.025 c 0.018,0.195 0.078,0.341 0.183,0.441 0.104,0.101 0.239,0.144 0.405,0.13 C -0.216,0.585 -0.11,0.547 -0.023,0.482 0.066,0.419 0.12,0.323 0.144,0.196 l 0.006,0 C 0.166,0.253 0.189,0.3 0.22,0.335 0.249,0.368 0.284,0.396 0.323,0.415 0.362,0.433 0.404,0.445 0.451,0.452 0.498,0.458 0.545,0.462 0.596,0.464 0.645,0.462 0.696,0.461 0.747,0.458 0.798,0.456 0.849,0.456 0.899,0.458 0.95,0.462 0.997,0.47 1.043,0.48 1.089,0.489 1.13,0.507 1.167,0.532 L 1.14,0.231 C 1.117,0.214 1.087,0.204 1.051,0.2 1.015,0.196 0.974,0.196 0.929,0.198 0.884,0.2 0.836,0.202 0.785,0.206 0.733,0.208 0.682,0.207 0.633,0.202 0.582,0.198 0.534,0.193 0.489,0.187 0.443,0.178 0.403,0.164 0.367,0.142 0.332,0.12 0.303,0.091 0.279,0.052 0.255,0.014 0.241,-0.038 0.235,-0.104 l -0.059,-0.661 0.867,-0.078 -0.024,-0.269 -2.032,0.181 0.086,0.956"
         style="fill:#ffffff;fill-opacity:1;fill-rule:nonzero;stroke:none"
         id="path1410" />
    </g>
    <g
       id="g1412"
       transform="matrix(18.03947,0,0,-18.03947,50.695478,98.64608)">
      <path
         inkscape:connector-curvature="0"
         d="M 0,0 1.757,-0.443 2.021,0.605 2.243,0.549 1.912,-0.761 -0.066,-0.262 0,0"
         style="fill:#ffffff;fill-opacity:1;fill-rule:nonzero;stroke:none"
         id="path1414" />
    </g>
    <g
       id="g1416"
       transform="matrix(18.03947,0,0,-18.03947,60.0037,67.906823)">
      <path
         inkscape:connector-curvature="0"
         d="M 0,0 1.917,-0.7 1.823,-0.955 -0.094,-0.256 0,0"
         style="fill:#ffffff;fill-opacity:1;fill-rule:nonzero;stroke:none"
         id="path1418" />
    </g>
    <g
       id="g1420"
       transform="matrix(18.03947,0,0,-18.03947,66.552028,51.779536)">
      <path
         inkscape:connector-curvature="0"
         d="M 0,0 1.963,0.203 1.965,0.208 0.493,0.962 0.609,1.191 2.426,0.262 2.29,-0.003 0.347,-0.206 0.344,-0.211 1.803,-0.957 1.686,-1.186 -0.131,-0.257 0,0"
         style="fill:#ffffff;fill-opacity:1;fill-rule:nonzero;stroke:none"
         id="path1422" />
    </g>
    <g
       id="g1424"
       transform="matrix(18.03947,0,0,-18.03947,100.21382,-1.5451379)">
      <path
         inkscape:connector-curvature="0"
         d="M 0,0 0.183,-0.137 -0.497,-1.048 0.022,-1.436 0.657,-0.587 0.84,-0.723 0.205,-1.573 0.771,-1.996 1.457,-1.077 1.639,-1.214 0.791,-2.35 -0.844,-1.128 0,0"
         style="fill:#ffffff;fill-opacity:1;fill-rule:nonzero;stroke:none"
         id="path1426" />
    </g>
    <g
       id="g1428"
       transform="matrix(18.03947,0,0,-18.03947,132.77492,-10.943702)">
      <path
         inkscape:connector-curvature="0"
         d="M 0,0 C 0.035,0.047 0.057,0.094 0.07,0.143 0.081,0.193 0.08,0.244 0.067,0.297 0.053,0.347 0.02,0.399 -0.031,0.453 -0.102,0.527 -0.181,0.568 -0.266,0.575 -0.353,0.583 -0.442,0.543 -0.534,0.454 l -0.487,-0.467 0.492,-0.514 0.409,0.392 C -0.075,-0.092 -0.035,-0.046 0,0 z m -0.682,0.63 c 0.14,0.133 0.283,0.204 0.428,0.211 C -0.109,0.847 0.02,0.792 0.136,0.672 0.222,0.583 0.276,0.484 0.3,0.379 0.324,0.273 0.303,0.164 0.238,0.053 L 0.242,0.049 C 0.292,0.082 0.34,0.101 0.386,0.108 0.431,0.115 0.473,0.112 0.515,0.099 0.557,0.088 0.597,0.07 0.637,0.044 0.676,0.017 0.715,-0.011 0.753,-0.042 0.79,-0.076 0.827,-0.11 0.864,-0.147 c 0.037,-0.035 0.075,-0.068 0.115,-0.098 0.04,-0.031 0.08,-0.058 0.122,-0.08 0.041,-0.023 0.084,-0.037 0.128,-0.042 L 1.011,-0.577 C 0.982,-0.575 0.953,-0.562 0.924,-0.541 0.893,-0.519 0.862,-0.493 0.83,-0.461 0.797,-0.431 0.763,-0.397 0.725,-0.362 0.689,-0.325 0.65,-0.292 0.608,-0.264 0.568,-0.233 0.529,-0.205 0.49,-0.181 0.451,-0.157 0.411,-0.141 0.37,-0.134 0.329,-0.127 0.287,-0.131 0.244,-0.144 0.202,-0.157 0.156,-0.187 0.108,-0.233 l -0.479,-0.459 0.603,-0.63 -0.196,-0.186 -1.412,1.472 0.694,0.666"
         style="fill:#ffffff;fill-opacity:1;fill-rule:nonzero;stroke:none"
         id="path1430" />
    </g>
    <g
       id="g1432"
       transform="matrix(18.03947,0,0,-18.03947,172.49798,-59.235364)">
      <path
         inkscape:connector-curvature="0"
         d="M 0,0 0.116,-0.197 -0.805,-0.74 -0.475,-1.298 0.333,-0.822 0.449,-1.019 -0.358,-1.496 0.116,-2.3 -0.117,-2.438 -1.154,-0.68 0,0"
         style="fill:#ffffff;fill-opacity:1;fill-rule:nonzero;stroke:none"
         id="path1434" />
    </g>
    <g
       id="g1436"
       transform="matrix(18.03947,0,0,-18.03947,218.55275,-41.538644)">
      <path
         inkscape:connector-curvature="0"
         d="m 0,0 c -0.084,-0.173 -0.244,-0.305 -0.484,-0.397 -0.246,-0.094 -0.46,-0.111 -0.643,-0.047 -0.182,0.063 -0.323,0.221 -0.421,0.475 l -0.468,1.216 0.253,0.098 0.469,-1.215 c 0.066,-0.171 0.161,-0.283 0.285,-0.336 0.125,-0.053 0.273,-0.047 0.444,0.019 0.161,0.063 0.267,0.155 0.318,0.276 0.05,0.119 0.043,0.265 -0.023,0.435 l -0.47,1.216 0.253,0.099 0.47,-1.217 C 0.077,0.38 0.082,0.171 0,0"
         style="fill:#ffffff;fill-opacity:1;fill-rule:nonzero;stroke:none"
         id="path1438" />
    </g>
    <g
       id="g1440"
       transform="matrix(18.03947,0,0,-18.03947,242.05818,-77.022282)">
      <path
         inkscape:connector-curvature="0"
         d="M 0,0 C -0.101,0.047 -0.221,0.055 -0.359,0.029 -0.416,0.018 -0.47,0.001 -0.522,-0.021 -0.573,-0.042 -0.618,-0.071 -0.654,-0.105 -0.691,-0.14 -0.718,-0.181 -0.735,-0.231 -0.751,-0.28 -0.753,-0.337 -0.74,-0.402 c 0.012,-0.062 0.04,-0.109 0.084,-0.139 0.045,-0.032 0.1,-0.053 0.165,-0.066 0.065,-0.011 0.138,-0.018 0.219,-0.019 0.079,0 0.16,-0.002 0.243,-0.005 C 0.054,-0.634 0.136,-0.641 0.218,-0.65 0.3,-0.66 0.375,-0.681 0.445,-0.712 0.514,-0.742 0.573,-0.786 0.623,-0.845 0.672,-0.904 0.707,-0.982 0.726,-1.081 0.748,-1.187 0.742,-1.282 0.709,-1.368 0.677,-1.454 0.627,-1.529 0.562,-1.591 0.497,-1.653 0.42,-1.704 0.332,-1.743 0.244,-1.782 0.154,-1.813 0.062,-1.831 c -0.112,-0.022 -0.221,-0.03 -0.326,-0.021 -0.106,0.009 -0.202,0.032 -0.289,0.075 -0.087,0.042 -0.161,0.104 -0.223,0.183 -0.061,0.08 -0.104,0.182 -0.128,0.303 l 0.252,0.05 c 0.017,-0.084 0.047,-0.154 0.092,-0.208 0.045,-0.054 0.097,-0.095 0.159,-0.125 0.061,-0.028 0.129,-0.044 0.203,-0.048 0.075,-0.005 0.15,0 0.225,0.014 0.059,0.012 0.119,0.031 0.178,0.053 0.058,0.023 0.109,0.054 0.152,0.091 0.043,0.036 0.075,0.08 0.095,0.133 0.021,0.053 0.024,0.116 0.009,0.188 -0.013,0.069 -0.043,0.122 -0.087,0.157 -0.044,0.037 -0.1,0.062 -0.167,0.077 -0.066,0.015 -0.139,0.023 -0.219,0.025 -0.08,0.002 -0.161,0.004 -0.245,0.006 -0.082,0.002 -0.164,0.007 -0.246,0.015 -0.081,0.008 -0.156,0.025 -0.225,0.051 -0.067,0.026 -0.126,0.067 -0.174,0.119 -0.049,0.055 -0.082,0.127 -0.1,0.218 -0.02,0.102 -0.017,0.193 0.009,0.275 0.026,0.082 0.069,0.154 0.128,0.215 0.058,0.061 0.13,0.111 0.212,0.152 0.082,0.041 0.169,0.07 0.26,0.088 C -0.29,0.276 -0.192,0.283 -0.1,0.276 -0.007,0.269 0.078,0.246 0.154,0.207 0.231,0.167 0.297,0.112 0.351,0.041 0.405,-0.032 0.445,-0.122 0.47,-0.232 L 0.218,-0.282 C 0.174,-0.141 0.102,-0.047 0,0"
         style="fill:#ffffff;fill-opacity:1;fill-rule:nonzero;stroke:none"
         id="path1442" />
    </g>
    <g
       id="g1444"
       transform="matrix(18.03947,0,0,-18.03947,280.03112,-80.377623)">
      <path
         inkscape:connector-curvature="0"
         d="M 0,0 C -0.093,0.064 -0.209,0.093 -0.351,0.088 -0.407,0.087 -0.463,0.079 -0.519,0.067 -0.573,0.053 -0.622,0.032 -0.664,0.004 -0.706,-0.023 -0.739,-0.06 -0.763,-0.105 c -0.024,-0.046 -0.036,-0.102 -0.034,-0.169 0.002,-0.063 0.023,-0.113 0.061,-0.152 0.038,-0.037 0.089,-0.068 0.151,-0.09 0.062,-0.023 0.133,-0.041 0.212,-0.056 0.078,-0.013 0.159,-0.028 0.24,-0.045 0.082,-0.016 0.162,-0.037 0.24,-0.06 0.079,-0.024 0.151,-0.056 0.214,-0.098 0.063,-0.042 0.114,-0.096 0.154,-0.16 0.039,-0.067 0.06,-0.15 0.063,-0.251 C 0.541,-1.295 0.519,-1.387 0.474,-1.467 0.428,-1.545 0.367,-1.61 0.292,-1.661 0.217,-1.713 0.133,-1.75 0.039,-1.773 c -0.093,-0.026 -0.187,-0.039 -0.28,-0.042 -0.115,-0.004 -0.222,0.007 -0.325,0.033 -0.103,0.024 -0.194,0.065 -0.273,0.121 -0.079,0.056 -0.142,0.129 -0.189,0.218 -0.048,0.089 -0.074,0.195 -0.077,0.319 l 0.257,0.007 c 0.003,-0.084 0.021,-0.158 0.056,-0.219 0.036,-0.06 0.081,-0.111 0.136,-0.148 0.056,-0.039 0.12,-0.067 0.193,-0.084 0.073,-0.017 0.147,-0.024 0.224,-0.022 0.06,0.002 0.122,0.009 0.184,0.024 0.061,0.013 0.116,0.034 0.165,0.062 0.049,0.03 0.088,0.069 0.116,0.118 0.029,0.048 0.043,0.109 0.041,0.183 -0.002,0.07 -0.022,0.127 -0.061,0.17 -0.039,0.043 -0.089,0.077 -0.152,0.103 -0.063,0.026 -0.133,0.045 -0.212,0.06 -0.079,0.016 -0.159,0.03 -0.24,0.046 -0.082,0.016 -0.162,0.035 -0.24,0.056 -0.08,0.021 -0.151,0.051 -0.213,0.089 -0.064,0.036 -0.114,0.085 -0.153,0.146 -0.04,0.061 -0.061,0.137 -0.063,0.231 -0.003,0.103 0.015,0.193 0.054,0.269 0.04,0.076 0.094,0.14 0.162,0.19 0.067,0.051 0.145,0.089 0.234,0.117 0.087,0.025 0.178,0.04 0.271,0.043 0.105,0.004 0.202,-0.006 0.293,-0.028 C 0.037,0.267 0.117,0.231 0.186,0.179 0.255,0.127 0.31,0.063 0.352,-0.017 0.394,-0.097 0.418,-0.193 0.426,-0.305 L 0.168,-0.314 C 0.148,-0.168 0.093,-0.062 0,0"
         style="fill:#ffffff;fill-opacity:1;fill-rule:nonzero;stroke:none"
         id="path1446" />
    </g>
    <g
       id="g1448"
       transform="matrix(18.03947,0,0,-18.03947,312.98938,-67.22685)">
      <path
         inkscape:connector-curvature="0"
         d="M 0,0 C 0.153,-0.023 0.266,-0.011 0.341,0.032 0.416,0.077 0.461,0.153 0.475,0.261 0.486,0.332 0.483,0.39 0.466,0.435 0.449,0.479 0.422,0.516 0.386,0.545 0.35,0.573 0.305,0.594 0.255,0.608 0.204,0.622 0.15,0.634 0.091,0.641 L -0.447,0.718 -0.538,0.075 0,0 z m 0.005,-0.946 c 0.119,-0.016 0.216,0.002 0.292,0.057 0.077,0.056 0.123,0.139 0.138,0.251 0.01,0.066 0.005,0.123 -0.014,0.171 -0.018,0.046 -0.045,0.086 -0.083,0.116 -0.037,0.031 -0.081,0.056 -0.132,0.074 -0.051,0.018 -0.105,0.031 -0.161,0.039 l -0.614,0.086 -0.1,-0.699 0.674,-0.095 z M 0.049,0.878 C 0.092,0.872 0.139,0.865 0.19,0.856 0.239,0.848 0.288,0.84 0.337,0.828 0.384,0.816 0.429,0.803 0.471,0.786 0.512,0.772 0.546,0.753 0.573,0.729 0.634,0.679 0.682,0.618 0.719,0.542 0.755,0.465 0.766,0.376 0.752,0.273 0.736,0.166 0.697,0.077 0.634,0.007 0.571,-0.066 0.489,-0.113 0.388,-0.136 L 0.387,-0.142 C 0.508,-0.187 0.595,-0.257 0.648,-0.353 0.703,-0.448 0.72,-0.559 0.703,-0.684 0.692,-0.757 0.67,-0.826 0.633,-0.894 0.597,-0.959 0.549,-1.015 0.49,-1.062 0.43,-1.109 0.36,-1.142 0.279,-1.165 0.198,-1.187 0.107,-1.191 0.007,-1.177 l -0.976,0.138 0.286,2.02 0.732,-0.103"
         style="fill:#ffffff;fill-opacity:1;fill-rule:nonzero;stroke:none"
         id="path1450" />
    </g>
    <g
       id="g1452"
       transform="matrix(18.03947,0,0,-18.03947,352.4417,-51.640747)">
      <path
         inkscape:connector-curvature="0"
         d="M 0,0 -0.034,1.01 -0.039,1.011 -0.66,0.21 0,0 z M 0.186,1.198 0.322,-0.989 0.036,-0.897 0.012,-0.244 -0.81,0.019 -1.215,-0.497 -1.479,-0.413 -0.1,1.29 0.186,1.198"
         style="fill:#ffffff;fill-opacity:1;fill-rule:nonzero;stroke:none"
         id="path1454" />
    </g>
    <g
       id="g1456"
       transform="matrix(18.03947,0,0,-18.03947,381.79192,-62.915416)">
      <path
         inkscape:connector-curvature="0"
         d="M 0,0 -0.808,-1.622 0.158,-2.104 0.057,-2.308 -1.154,-1.707 -0.243,0.121 0,0"
         style="fill:#ffffff;fill-opacity:1;fill-rule:nonzero;stroke:none"
         id="path1458" />
    </g>
    <g
       id="g1460"
       transform="matrix(18.03947,0,0,-18.03947,410.83546,-46.661853)">
      <path
         inkscape:connector-curvature="0"
         d="m 0,0 -1.026,-1.493 0.89,-0.612 -0.13,-0.188 -1.113,0.766 1.156,1.681 L 0,0"
         style="fill:#ffffff;fill-opacity:1;fill-rule:nonzero;stroke:none"
         id="path1462" />
    </g>
    <g
       id="g1464"
       transform="matrix(18.03947,0,0,-18.03947,425.98862,-9.3923075)">
      <path
         inkscape:connector-curvature="0"
         d="M 0,0 -0.147,-0.174 -0.78,0.356 -0.633,0.531 0,0"
         style="fill:#ffffff;fill-opacity:1;fill-rule:nonzero;stroke:none"
         id="path1466" />
    </g>
    <g
       id="g1468"
       transform="matrix(18.03947,0,0,-18.03947,423.58937,11.13661)">
      <path
         inkscape:connector-curvature="0"
         d="M 0,0 0.978,1.929 1.18,1.719 0.304,0.074 0.309,0.07 1.994,0.867 2.189,0.663 0.213,-0.224 0,0"
         style="fill:#ffffff;fill-opacity:1;fill-rule:nonzero;stroke:none"
         id="path1470" />
    </g>
    <g
       id="g1472"
       transform="matrix(18.03947,0,0,-18.03947,480.88258,23.72816)">
      <path
         inkscape:connector-curvature="0"
         d="m 0,0 -0.185,-0.133 -0.666,0.922 -0.527,-0.379 0.621,-0.861 -0.185,-0.133 -0.621,0.859 -0.572,-0.413 0.67,-0.93 -0.184,-0.133 -0.83,1.15 1.655,1.193 L 0,0"
         style="fill:#ffffff;fill-opacity:1;fill-rule:nonzero;stroke:none"
         id="path1474" />
    </g>
    <g
       id="g1476"
       transform="matrix(18.03947,0,0,-18.03947,479.85448,57.11922)">
      <path
         inkscape:connector-curvature="0"
         d="m 0,0 c 0.034,-0.047 0.073,-0.083 0.117,-0.109 0.044,-0.027 0.093,-0.04 0.146,-0.043 0.053,-0.002 0.113,0.014 0.179,0.047 0.092,0.046 0.155,0.109 0.187,0.188 0.033,0.08 0.021,0.178 -0.037,0.291 L 0.292,0.98 -0.345,0.661 -0.093,0.155 C -0.065,0.099 -0.034,0.047 0,0 z M 0.803,0.464 C 0.89,0.29 0.915,0.134 0.878,-0.008 0.842,-0.148 0.75,-0.255 0.602,-0.329 0.49,-0.385 0.381,-0.407 0.273,-0.399 0.164,-0.39 0.066,-0.338 -0.019,-0.243 l -0.006,-0.002 c 0.016,-0.059 0.021,-0.109 0.013,-0.154 -0.007,-0.046 -0.022,-0.087 -0.046,-0.123 -0.023,-0.036 -0.053,-0.069 -0.089,-0.098 -0.036,-0.03 -0.076,-0.059 -0.117,-0.086 -0.044,-0.025 -0.087,-0.051 -0.132,-0.075 -0.045,-0.025 -0.088,-0.052 -0.129,-0.081 -0.041,-0.028 -0.078,-0.06 -0.112,-0.092 -0.034,-0.033 -0.06,-0.07 -0.078,-0.11 l -0.135,0.27 c 0.01,0.028 0.03,0.051 0.06,0.073 0.029,0.023 0.064,0.044 0.103,0.066 0.039,0.021 0.081,0.045 0.126,0.07 0.045,0.024 0.088,0.051 0.128,0.082 0.041,0.03 0.079,0.059 0.114,0.089 0.035,0.03 0.062,0.064 0.081,0.101 0.018,0.037 0.028,0.078 0.028,0.123 0,0.045 -0.015,0.095 -0.044,0.156 L -0.55,0.56 -1.33,0.171 -1.452,0.413 0.376,1.324 0.803,0.464"
         style="fill:#ffffff;fill-opacity:1;fill-rule:nonzero;stroke:none"
         id="path1478" />
    </g>
    <g
       id="g1480"
       transform="matrix(18.03947,0,0,-18.03947,492.7527,88.688293)">
      <path
         inkscape:connector-curvature="0"
         d="m 0,0 c 0.045,-0.147 0.102,-0.247 0.174,-0.295 0.072,-0.05 0.159,-0.057 0.263,-0.026 0.07,0.021 0.121,0.049 0.155,0.082 0.033,0.033 0.055,0.074 0.066,0.118 0.009,0.045 0.01,0.094 0.002,0.146 C 0.651,0.076 0.639,0.13 0.622,0.188 L 0.465,0.708 -0.156,0.521 0,0 z m -0.856,-0.399 c 0.035,-0.115 0.094,-0.196 0.174,-0.242 0.082,-0.047 0.178,-0.053 0.287,-0.02 0.064,0.02 0.114,0.047 0.149,0.083 0.035,0.036 0.058,0.077 0.071,0.124 0.013,0.047 0.017,0.098 0.011,0.151 -0.005,0.054 -0.017,0.109 -0.033,0.164 l -0.178,0.593 -0.676,-0.203 0.195,-0.65 z M 0.819,0.325 C 0.831,0.282 0.845,0.237 0.858,0.189 0.872,0.14 0.884,0.091 0.893,0.042 c 0.01,-0.049 0.017,-0.095 0.02,-0.138 0.003,-0.043 0,-0.083 -0.01,-0.118 C 0.884,-0.29 0.848,-0.359 0.794,-0.425 0.74,-0.49 0.664,-0.537 0.565,-0.566 0.46,-0.597 0.363,-0.6 0.272,-0.572 0.182,-0.546 0.104,-0.491 0.04,-0.408 L 0.034,-0.41 c 0.011,-0.128 -0.016,-0.237 -0.081,-0.325 -0.064,-0.09 -0.157,-0.153 -0.278,-0.189 -0.071,-0.022 -0.144,-0.029 -0.219,-0.024 -0.075,0.006 -0.146,0.025 -0.214,0.06 -0.067,0.034 -0.127,0.084 -0.182,0.148 -0.053,0.064 -0.095,0.145 -0.125,0.241 L -1.348,0.446 0.606,1.033 0.819,0.325"
         style="fill:#ffffff;fill-opacity:1;fill-rule:nonzero;stroke:none"
         id="path1482" />
    </g>
    <g
       id="g1484"
       transform="matrix(18.03947,0,0,-18.03947,495.13391,130.43163)">
      <path
         inkscape:connector-curvature="0"
         d="m 0,0 0.901,0.456 0,0.006 L -0.087,0.686 0,0 z M 1.164,0.337 -0.76,-0.71 -0.799,-0.413 -0.216,-0.115 -0.325,0.742 -0.964,0.891 -0.997,1.167 1.127,0.635 1.164,0.337"
         style="fill:#ffffff;fill-opacity:1;fill-rule:nonzero;stroke:none"
         id="path1486" />
    </g>
    <g
       id="g1488"
       transform="matrix(18.03947,0,0,-18.03947,517.82756,152.81861)">
      <path
         inkscape:connector-curvature="0"
         d="M 0,0 -1.704,-0.995 -1.705,-1 l 1.653,-0.079 -0.012,-0.257 -2.038,0.097 0.014,0.297 1.687,0.986 0,0.006 -1.636,0.078 0.013,0.257 L 0.013,0.289 0,0"
         style="fill:#ffffff;fill-opacity:1;fill-rule:nonzero;stroke:none"
         id="path1490" />
    </g>
    <g
       id="g1492"
       transform="matrix(18.03947,0,0,-18.03947,479.98061,195.68039)">
      <path
         inkscape:connector-curvature="0"
         d="m 0,0 c -0.007,-0.031 -0.013,-0.068 -0.019,-0.114 -0.005,-0.046 -0.005,-0.094 0.001,-0.149 0.006,-0.055 0.02,-0.11 0.042,-0.167 0.022,-0.058 0.057,-0.112 0.106,-0.163 0.048,-0.053 0.113,-0.102 0.193,-0.147 0.08,-0.045 0.183,-0.082 0.305,-0.109 0.119,-0.027 0.228,-0.041 0.327,-0.039 0.099,0.002 0.188,0.02 0.266,0.058 0.078,0.038 0.144,0.094 0.197,0.17 0.054,0.076 0.095,0.174 0.123,0.297 L 1.644,0.084 0.101,0.439 0,0 z M 1.771,-0.386 C 1.699,-0.693 1.567,-0.91 1.373,-1.04 1.179,-1.169 0.922,-1.196 0.603,-1.123 c -0.167,0.039 -0.311,0.092 -0.431,0.159 -0.121,0.066 -0.216,0.15 -0.286,0.248 -0.071,0.097 -0.115,0.213 -0.133,0.343 -0.019,0.132 -0.008,0.282 0.03,0.446 L -0.06,0.755 1.928,0.295 1.771,-0.386"
         style="fill:#ffffff;fill-opacity:1;fill-rule:nonzero;stroke:none"
         id="path1494" />
    </g>
    <g
       id="g1496"
       transform="matrix(18.03947,0,0,-18.03947,308.11872,62.440863)">
      <path
         inkscape:connector-curvature="0"
         d="M 0,0 C 0.094,-0.061 0.396,-0.157 0.477,-0.047 0.414,0.084 0.097,0.136 0,0 z M 1.232,-0.047 C 1.296,-0.15 1.504,-0.087 1.5,0.047 1.416,0.134 1.25,0.065 1.232,-0.047 z M 1.616,-0.372 C 1.635,-0.473 1.712,-0.517 1.755,-0.593 1.775,-1.09 1.534,-1.38 1.546,-1.872 1.422,-1.968 1.541,-2.172 1.559,-2.314 1.567,-2.385 1.55,-2.462 1.546,-2.547 1.539,-2.717 1.552,-2.919 1.524,-3.058 1.463,-3.348 1.309,-3.578 1.28,-3.849 1.244,-4.161 1.324,-4.361 1.419,-4.604 1.544,-4.928 1.651,-5.206 1.802,-5.501 1.892,-5.675 2.099,-5.897 2.023,-6.116 1.981,-6.24 1.865,-6.28 1.861,-6.466 1.855,-6.673 1.951,-6.882 1.977,-7.094 2,-7.279 2.015,-7.442 2.07,-7.604 2.126,-7.769 2.192,-7.936 2.209,-8.082 2.225,-8.213 2.19,-8.342 2.139,-8.384 2.053,-8.457 1.88,-8.446 1.872,-8.606 1.717,-8.645 1.666,-8.817 1.535,-8.919 1.497,-8.95 1.447,-8.944 1.396,-8.977 1.237,-9.081 1.03,-9.34 0.803,-9.362 0.747,-9.367 0.684,-9.339 0.64,-9.338 0.465,-9.336 0.402,-9.458 0.221,-9.489 0.212,-9.384 0.28,-9.354 0.279,-9.257 0.175,-9.206 0.112,-9.349 0.011,-9.303 0,-9.191 0.089,-9.178 0.104,-9.093 c -0.047,0.032 -0.12,-0.062 -0.185,-0.012 -0.077,0.107 0.101,0.143 0.105,0.186 0.003,0.043 -0.079,0.073 -0.116,0.104 0.054,0.066 0.131,0.109 0.208,0.152 0.039,-0.012 0.08,-0.021 0.116,-0.035 0.225,0.074 0.478,0.119 0.698,0.197 0.016,0.051 0.041,0.092 0.058,0.141 -0.196,0.43 -0.585,0.67 -0.929,0.952 -0.179,0.18 -0.282,0.42 -0.338,0.745 -0.018,0.104 -0.049,0.226 -0.035,0.326 0.02,0.148 0.177,0.385 0.105,0.604 -0.227,-0.107 -0.277,-0.567 -0.268,-0.953 0.003,-0.106 0.048,-0.218 0.035,-0.268 -0.024,-0.094 -0.412,-0.264 -0.5,-0.325 -0.098,-0.069 -0.203,-0.161 -0.243,-0.233 -0.03,-0.051 -0.029,-0.127 -0.06,-0.198 -0.051,-0.119 -0.156,-0.236 -0.197,-0.348 -0.015,-0.04 -0.008,-0.095 -0.023,-0.14 -0.015,-0.044 -0.059,-0.076 -0.071,-0.117 -0.013,-0.048 0.004,-0.104 -0.011,-0.151 -0.076,-0.238 -0.37,-0.363 -0.64,-0.349 -0.255,0.014 -0.505,0.135 -0.721,0.222 -0.222,0.089 -0.429,0.196 -0.604,0.325 -0.069,-0.006 -0.134,-0.072 -0.187,-0.059 -0.005,0.081 -0.039,0.131 -0.045,0.21 -0.023,0.021 -0.078,0.009 -0.118,0.012 0,0.05 0,0.1 0,0.151 0.046,0.017 0.102,0.024 0.152,0.035 -0.013,0.078 -0.121,0.065 -0.152,0.128 0.135,0.267 0.714,0.19 0.944,0.069 0.097,-0.052 0.217,-0.203 0.36,-0.162 0.318,0.088 0.163,0.669 0.279,1.023 0.026,0.079 0.096,0.179 0.139,0.29 0.081,0.211 0.21,0.352 0.35,0.513 0.068,0.08 0.136,0.179 0.196,0.22 0.036,0.024 0.13,0.046 0.163,0.07 0.034,0.025 0.053,0.084 0.094,0.117 0.064,0.051 0.361,0.201 0.489,0.185 0.188,-0.021 0.208,-0.252 0.383,-0.313 0.069,0.266 -0.204,0.423 -0.407,0.593 -0.156,0.131 -0.368,0.31 -0.349,0.5 0.02,0.205 0.32,0.108 0.326,0.348 -0.118,0.038 -0.188,-0.086 -0.29,-0.128 -0.106,-0.043 -0.235,-0.059 -0.362,-0.081 -0.421,-0.071 -0.779,-0.182 -1.278,-0.092 -0.31,0.054 -0.6,0.237 -0.85,0.418 -0.178,0.128 -0.317,0.275 -0.465,0.476 -0.056,0.077 -0.122,0.139 -0.128,0.187 -0.005,0.046 0.037,0.078 0.036,0.116 -0.003,0.076 -0.107,0.108 -0.071,0.197 0.099,0.016 0.202,-0.056 0.268,0 0.021,0.069 -0.053,0.117 -0.035,0.175 0.048,0.01 0.087,0.03 0.151,0.023 -0.002,0.095 -0.012,0.199 0.046,0.232 0.189,-0.06 0.325,-0.171 0.361,-0.383 0.048,-0.059 0.15,-0.053 0.21,-0.104 0.085,-0.076 0.09,-0.186 0.163,-0.246 0.149,-0.121 0.387,-0.122 0.604,-0.091 0.066,0.07 0.169,0.086 0.256,0.128 0.245,0.116 0.514,0.246 0.743,0.394 -0.014,0.068 -0.088,0.074 -0.115,0.129 0.077,0.185 0.133,0.379 0.256,0.534 0.05,0.065 0.13,0.1 0.174,0.163 0.028,0.041 0.027,0.097 0.058,0.14 0.067,0.095 0.213,0.201 0.337,0.29 0.18,0.13 0.35,0.263 0.617,0.268 0.159,0.002 0.348,-0.083 0.511,0.035 -0.145,0.042 -0.303,0.011 -0.453,0.048 -0.049,0.009 -0.091,0.048 -0.14,0.056 -0.061,0.01 -0.128,-0.012 -0.186,0 -0.113,0.026 -0.304,0.174 -0.349,0.279 0.091,0.071 0.197,0.149 0.361,0.164 0.094,0.006 0.192,-0.035 0.279,-0.024 0.086,0.011 0.193,0.089 0.197,0.163 0.017,0.293 -0.686,0.148 -0.837,0.315 -0.05,0.054 -0.05,0.135 -0.081,0.185 -0.057,0.091 -0.131,0.114 -0.198,0.209 0.002,0.096 -0.013,0.206 0.035,0.256 0.238,0.058 0.443,-0.037 0.651,0 0.163,0.029 0.297,0.174 0.5,0.198 C 0.24,0.31 0.385,0.306 0.569,0.315 0.59,0.324 0.604,0.342 0.628,0.349 0.753,0.29 0.844,0.238 1.011,0.244 1.146,0.249 1.312,0.375 1.511,0.338 1.713,0.3 1.883,0.058 1.814,-0.151 1.781,-0.253 1.669,-0.264 1.616,-0.372"
         style="fill:#231f20;fill-opacity:1;fill-rule:evenodd;stroke:none"
         id="path1498" />
    </g>
    <g
       id="g1500"
       transform="matrix(18.03947,0,0,-18.03947,288.81649,95.57937)">
      <path
         inkscape:connector-curvature="0"
         d="m 0,0 c -0.281,-0.281 -0.47,-0.654 -0.686,-1.001 -0.246,0.019 -0.476,0.163 -0.686,0.291 -0.364,0.222 -0.601,0.414 -0.86,0.746 -0.097,0.123 -0.217,0.244 -0.269,0.371 -0.05,0.127 -0.054,0.254 -0.162,0.337 0.098,0.451 -0.341,0.561 -0.058,0.86 0.072,0.015 0.09,-0.026 0.151,-0.023 0.046,0.087 -0.068,0.109 -0.046,0.209 0.117,0.028 0.257,-0.096 0.325,0.036 0.008,0 0.016,0 0.024,0 0.127,-0.07 0.134,-0.21 0.198,-0.349 C -2.015,1.354 -1.886,1.286 -1.848,1.174 -1.824,1.1 -1.832,1.016 -1.814,0.953 -1.669,0.461 -1.129,0.364 -0.616,0.221 -0.406,0.162 -0.163,0.145 0,0"
         style="fill:#231f20;fill-opacity:1;fill-rule:evenodd;stroke:none"
         id="path1502" />
    </g>
    <g
       id="g1504"
       transform="matrix(18.03947,0,0,-18.03947,301.2096,78.586189)">
      <path
         inkscape:connector-curvature="0"
         d="m 0,0 c -0.072,-0.108 -0.252,-0.047 -0.385,-0.035 -0.146,0.013 -0.298,0.031 -0.406,0.058 -0.043,0.059 -0.099,0.163 -0.059,0.268 -0.001,0.01 0.005,0.011 0.012,0.011 0.009,0.002 0.012,0.012 0.023,0.012 0.083,0 0.163,-0.098 0.256,-0.129 C -0.364,0.123 -0.086,0.179 0,0"
         style="fill:#231f20;fill-opacity:1;fill-rule:evenodd;stroke:none"
         id="path1506" />
    </g>
  </g>
</svg>
