<svg width="240" height="224" xmlns="http://www.w3.org/2000/svg" xmlns:xlink="http://www.w3.org/1999/xlink">
<g id="right">
<path d="M118 65h27.65c16.26 0 32.34-10.5 32.34-23.98 0-7.16-3.21-12.19-7.2-17.75-2.34.38-4.47.6-6.14.6-7.37 0-11.36-3.94-11.64-7.81 0-3.49 2.82-6.13 7.23-6.13 6.85 0 19.27 6.39 31.83 6.39-1.25.94-3.3 1.92-5.78 2.87 7.36 6.59 12.28 15.47 14.14 24.99l19.23 30.75C222.88 80.1 229.72 90.2 240 98.09c-12.43 0-20.68.3-31.19-16.36l-9.85-15.78c-.73 2.05-1.64 4.05-2.69 6l19.59 31.36c3.27 5.22 10.01 15.23 20.35 23.16-12.44 0-20.69.3-31.19-16.35L188.14 83.1c-1.25 1.35-2.59 2.65-3.99 3.92l23.8 38.12c2.96 4.69 8.7 13.28 17.39 20.73l2.96 2.42c-6.65 0-12.11.06-17.35-2.41-4.56-2.14-8.96-6.21-13.84-13.95L173.9 94.77c-1.53.96-3.09 1.89-4.7 2.78l28.32 45.34 1.88 2.99c3.69 5.45 9.79 13.51 18.45 20.15-12.43 0-20.67.29-31.2-16.35l-2.36-3.8-26.79-42.9c-1.73.66-3.48 1.28-5.26 1.86l25.62 41.04 7.33 11.74c3.22 5.13 10.1 15.27 20.34 23.14-12.43 0-20.67.28-31.19-16.36l-11.57-18.52-23.55-37.74c-2.03 3.24-2.69 6.07-2.69 8.9 0 10.43 4.02 20.16 10.2 28.84 4.28 6.02 9.6 11.55 15.3 16.5-.88.39-2.43.54-3.87.54-2.87 0-4.73-.17-6.03-.39 3.22 7.32 10.15 16.79 13.64 21.69 4.56-.82 11.19-1.46 15.53-1.46 4.53 0 5.04 2.66 5.04 5.03 0 4.13-1.92 7.43-4.17 9.26-.83-2.15-2.54-4.94-10.92-4.94 1.61 2.76 9.29 8.98 9.29 13.99 0 3.3-3.62 8.26-8.42 8.26.28-1.07.24-2.06.24-2.79 0-4.03-3.57-8.77-6.6-12.08.09.98.04.88.04 2.02 0 9.58-.87 13.98-6.94 13.98-2.98 0-5.03-1.64-5.74-2.12 3.94-3.65 4.14-6.49 4.14-11.87l-.03-4.65c-.01-1.22.02-2.84.2-4.02-2.17-.3-3.04-.3-4.72-.3 0 0-8.63-.68-10.71 3.81-2.34-2.15-5.74-5.18-5.74-8.54 0-2.2 1.05-4.71 5.49-4.71 1.68 0 6.98 1.03 11.42 1.03-1.2-2.66-6.5-10.41-11.09-16.04-.7 2.19-1.78 4.56-4.18 6.48-.33-3.61-2.46-15.05-8.11-21.74-.66 4.51-1.55 9.15-1.55 18.93 0 23.79 5.72 41.36 17.86 44.73-1.58 2.76-4.93 5.21-8.39 5.21-4.44 0-6.85-5.03-9.33-9.76C127.1 215.44 123.55 224 120 224c-.7 0-1.48-.38-2-.85Z"/>
<path d="M188.49 45.61c0-11.72-8.52-21-11.52-23.61l-2.16.5c3.18 3.9 8.82 10.42 8.82 19.05 0 17-17.96 31.75-38.44 32.03.24 2.9.16 8.4-.29 11.72 23.25-.41 43.59-19.33 43.59-39.69ZM156.43 186.29c-9.91 0-12.07-1.04-14.68-1.04-1.68 0-3.29.17-3.29 2.55 0 1.66 1.87 4.06 3.54 5.33 2.34-2.32 5.54-2.83 10.71-2.83 2.41 0 5.71.47 7.17.68-.2 1.43-.49 3.27-.49 5.86 0 1.38.05 2.97.05 4.66 0 5.87-.86 8.97-2.91 11.31.45.27 1.64.53 2.33.53 3.79 0 4.76-1.96 4.76-11.83 0-2.98.26-5.72.26-6.44 5.3 4.04 10.71 11.28 10.71 16.5 1.73-.87 3.79-3.5 3.79-5.47 0-3.55-5.97-8.86-12.27-15.26.88-.21 3.22-.89 5.14-.89 4.97 0 8.97.82 11.3 3.58.93-1 1.69-4.01 1.69-5.74 0-2.98-1.71-2.86-2.94-2.86-5.28 0-11.81.82-16.48 1.58-1.7-2.25-12.51-16.9-15.31-24.7-.81-.3-1.44-.54-2.76-.54-2.61 0-3.27 1.83-3.96 4.32 5.97 7.25 11.7 15.11 13.64 20.7Z" fill="#FFF"/>
</g>
<use xlink:href="#right" x="-240" transform="scale(-1,1)"/>
<path d="M96.67 66c3.37-12.02 10.46-19.17 15.93-26.17-6.56-2.39-13.88-8.62-13.88-11.45.83-.48 13.41 3.47 14.71 3.82 2.37-.46 3.64-2.69 3.64-2.92-1.34-.23-9.23-1.24-14.62-3.21-4.09-1.5-6.17-4.22-6.17-5.25 1.32-.22 6.3 2.41 13.63 2.41 2.71 0 3.23-.11 5.93-.44-1.89-4.5-5.45-8.31-9.44-8.31-1.61 0-5.12 1-8.06 2.48-2.05-3.19-3.85-7.37-3.85-9.66 0-2.7 2.67-5.86 10.2-5.86 2.81 0 6.34.34 9.92 1.65-.16-1.99.79-3.09 4.31-3.09 6.19 0 12.55 2.05 20.33 2.05 2.01 0 3.38-.09 4.54-.58-.5 1.56-2.69 3.84-4.68 5.69 1.23 1.69 4.44 5.77 4.44 12.37 0 10.6-6.97 19.34-6.97 30.04 0 6.37 4.89 11.99 6.68 16.43Z"/>
<path d="M119.41 25.73c1.08-2.44 2.52-5.36 2.52-8.57 0-8.9-7.37-13.14-17.24-13.14-5.07 0-7.63 1.64-7.63 3.28 0 1.64 1.67 5.26 2.33 6.38 1.82-.8 5.1-1.77 7.01-1.77 6.77 0 11.83 7.59 13.01 13.82Zm4.86-11.36c5.76 1.12 9.69-6.25 4.22-7.56.76 2.43-2.94 4.15-2.94 4.15s-1.4-3.28.41-5.12c-3.34-1.64-4.19.35-4.26 2.43 1.32 1.75 2.19 3.81 2.57 6.1Z" fill="#FFF"/>
</svg>