<?xml version="1.0" encoding="utf-8"?>
<!-- Generator: Adobe Illustrator 21.0.0, SVG Export Plug-In . SVG Version: 6.00 Build 0)  -->
<svg version="1.1" id="Layer_1" xmlns="http://www.w3.org/2000/svg" xmlns:xlink="http://www.w3.org/1999/xlink" x="0px" y="0px"
	 viewBox="0 0 200 100" style="enable-background:new 0 0 200 100;" xml:space="preserve">
<style type="text/css">
	.st0{fill-rule:evenodd;clip-rule:evenodd;fill:#BEC531;}
	.st1{fill-rule:evenodd;clip-rule:evenodd;fill:#00678E;}
</style>
<g>
	<rect x="167.4" y="37.6" class="st0" width="22" height="24.9"/>
	<path class="st1" d="M181.7,49.1c-1.7,1.3-2.6,2-4.1,3l-1,0.7c1.5,0.5,3.6,1.1,7.3-0.8l-1,3.1c-7,3.1-7.2-1.3-13.2,0.1
		c2-1.5,3.7-3.3,4.9-4.2c1.3-1,2.5-1.8,3.9-3c0.9-0.6,1.2-1,1.4-1.8c0.1-0.7-0.7-1.4-1.8-1.4c-1.3,0-2.3,0.4-2.6,1.7
		c0,0.1,0,0.2,0,0.3c-1.2-0.1-3.9,0-3.9,0v-0.1c0-0.1,0-0.2,0-0.2c0.3-2.5,3.5-4.1,6.7-4.1c3.2,0,5.8,1.5,5.5,3.7
		C183.8,47.4,182.9,48.2,181.7,49.1z"/>
	<path class="st1" d="M50.4,41.3c0,0-5.8,0-11.2,0v0.3c4.6,0,8.4,3.8,8.4,8.4s-3.8,8.4-8.4,8.4l0,0v0.3h11.2V41.3z M39.2,41.3h-9.6
		l0,0C24.9,41.4,21,45.3,21,50s3.8,8.6,8.6,8.7l0,0h9.6v-0.3c-4.7,0-8.4-3.8-8.4-8.4s3.8-8.4,8.4-8.4V41.3z"/>
	<path class="st1" d="M61.8,58.4c-4.6,0-8.4-3.8-8.4-8.4s3.8-8.4,8.4-8.4c0.3,0,0.8,0,0.8,0v-0.3H51.2v17.4h11.4v-0.3
		C62.6,58.4,62.1,58.4,61.8,58.4z"/>
	<path class="st0" d="M146.9,55.5L146.9,55.5c3.4-0.3,7.5-3.3,7.5-7.5c0-2.6-2.5-4.6-5.6-4.2c-0.6,0.1-1.3,0.2-1.9,0.5v0.9
		c0.5-0.3,1.1-0.5,1.7-0.5c3.4-0.2,1.5,7.3-1.7,9.2V55.5z M141,43.8l-3.3,13.4h4.5l0.8-2.9c0.6,0.9,1.8,1.4,3.9,1.2V54
		c-0.5,0.3-1.1,0.5-1.7,0.5c-1.5-0.1-1.7-1.3-1.7-2.5c0-1.5,0.4-2.9,1.1-4.2c0.5-0.9,1.2-1.9,2.3-2.5v-0.9c-0.7,0.3-1.4,0.9-2.1,1.7
		l0.5-2.2H141z"/>
	<path class="st0" d="M117.8,46.7c0,0.9,0.9,1.5,2,1.5c1.3,0,2.1-0.7,2.1-1.8c0-1.9-2.9-2.6-4.7-2.6c-4.3,0-9.2,3.4-9.2,7.1
		c0,2.8,2.7,4.8,5.9,4.8c4.9,0,7.3-3.4,7.5-3.6H118c0,0-1,2.8-3.5,2.8c-1,0-1.9-0.4-1.9-1.4c0-2.4,1.8-7.3,2.6-8.2
		c0.6-0.6,1-0.7,1.9-0.7c0.6,0,1,0.4,1,0.7c0,0.1-0.1,0.3-0.2,0.6C117.9,46.1,117.8,46.4,117.8,46.7z"/>
	<path class="st0" d="M69.6,46.7c0,0.9,0.9,1.5,2,1.5c1.3,0,2.1-0.7,2.1-1.8c0-1.9-2.9-2.6-4.7-2.6c-4.3,0-9.2,3.4-9.2,7.1
		c0,2.8,2.7,4.8,5.9,4.8c4.9,0,7.3-3.4,7.5-3.6h-3.4c0,0-0.5,2.8-3.5,2.8c-1,0-1.9-0.4-1.9-1.4c0-2.4,1.8-7.3,2.6-8.2
		c0.6-0.6,1-0.7,1.9-0.7c0.6,0,1,0.4,1,0.7c0,0.1-0.1,0.3-0.2,0.6C69.6,46.1,69.6,46.4,69.6,46.7z"/>
	<path class="st0" d="M133.7,52.1c0,0-0.7,1.7-2.3,2.4v1c2.3-0.4,4.3-1.5,5.8-3.4H133.7L133.7,52.1z M131.3,50.6
		c4.4-0.1,6.4-1.8,6.4-3.7c0-2.2-3.1-3.1-5.3-3.1c-0.4,0-0.7,0.1-1.1,0.1v0.9c0.2-0.1,0.6-0.2,0.9-0.2c1.4,0,1.8,0.6,1.8,1.7
		c0,2.3-1.2,3.3-2.7,3.5V50.6z M131.3,54.5c-0.5,0.2-1.1,0.4-1.8,0.4c-1.1,0-1.8-0.3-1.8-1.4c0-1,0.3-1.9,0.6-2.9h2.7h0.2v-0.8
		c-0.3,0.1-0.5,0.1-0.7,0.1h-2l1.1-3.2c0.4-1.1,0.9-1.7,1.6-1.9v-0.9c-4.1,0.5-8.3,3.8-8.3,7.3c0,2.9,2.7,4.5,5.9,4.5
		c0.8,0,1.6-0.1,2.3-0.2V54.5z"/>
	<path class="st0" d="M163.2,52.1c-0.3,1-1.1,2.6-2.7,2.6c-0.4,0-0.7-0.2-0.4-1.1l2.1-7.4c0,0,2,0,2.3,0c1.1,0,1.4-1.7,1.4-1.7h-3.1
		l0.4-1.4h-4.3l-0.4,1.4c0,0-0.9,0-1.1,0c-1.1,0-1.3,1.7-1.3,1.7h1.9l-1.5,5.5c-0.2,0.9-0.5,1.7-0.5,2.1c0,1.4,1.7,1.9,3.1,1.9
		c3.4,0,5.5-1.5,6.7-3.6H163.2z"/>
	<path class="st0" d="M84.8,43.8c-0.6,0-1.3,0.1-1.9,0.2v0.9c0.5-0.2,1-0.3,1.7-0.3c1.2,0,1.9,0.4,1.9,1.4c-0.1,1.6-1.7,6.2-2.4,7.7
		c-0.3,0.6-0.7,0.9-1.2,1v0.9c0.3-0.1,0.6-0.1,1-0.2c3.5-0.7,7.2-3.6,7.2-6.7C91.1,45.8,88.1,43.8,84.8,43.8z M82.9,44
		c-4,0.7-8.1,3.5-8.1,6.9c0,2.5,2,4.8,6.1,4.8c0.8,0,1.4-0.1,2.1-0.1v-0.9c-0.5,0.1-0.9,0.2-1.5,0.2c-0.9,0-2.1-0.1-2.1-1
		c0-0.9,1.6-6.5,2.1-7.6c0.3-0.7,0.8-1.1,1.5-1.4V44z"/>
	<path class="st0" d="M105.9,54.6c-0.6,0.2-1.4,0.1-1.3-0.3l2-7.3c0.6-2.2-1.7-3-3.2-3c-2.7,0-4.7,1.7-5.7,3.3l0.9-3.2h-4.1
		c0,0-2.6,8.6-3,10.2c-0.6,2.2,3.8,1.5,3.8,1.5l1.5-5.6c0.2-0.5,0.3-1,0.7-1.5c1.1-1.7,3.2-3.4,4.2-3.2c0.4,0.1,0.7,0.4,0.4,1.6
		l-1.6,5.4c-0.6,2.4,1,3.3,2.8,3.3c0.7,0,1.8-0.1,2.5-0.5L105.9,54.6z"/>
	<path class="st1" d="M100,37.1h89.4h0.5v0.5v24.9v0.5h-0.5H100V62h88.9V38H100V37.1z M10.6,37.1H100V38H11.1v24H100v0.9H10.6h-0.5
		v-0.5V37.6v-0.5H10.6z"/>
</g>
</svg>
