<?xml version="1.0" encoding="UTF-8"?><svg id="Layer_1" xmlns="http://www.w3.org/2000/svg" viewBox="0 0 219 24"><defs><style>.cls-1{fill-rule:evenodd;}</style></defs><path class="cls-1" d="M215.75,10.81c-2.24,1.82-3.64,2.8-5.46,4.2l-1.4,.98c1.96,.7,4.76,1.54,9.8-.98l-1.26,4.2c-9.38,4.06-9.66-1.82-17.64,.14,2.66-1.96,4.9-4.34,6.58-5.6,1.82-1.26,3.5-2.66,5.18-4.06,1.12-.84,1.54-1.4,1.82-2.52,.14-.98-.84-1.82-2.38-1.82-1.68,0-3.22,.42-3.36,2.24v.28h-5.18v-.42c.42-3.22,4.76-5.32,9.1-5.46,4.34,0,7.7,2.1,7.42,4.9-.56,1.68-1.68,2.8-3.22,3.92h0ZM39.35,.45H11.49C5.19,.59,.01,5.77,.01,12.07s5.18,11.62,11.48,11.62h27.86V.45Zm-14.98,22.96c-6.3,0-11.34-5.04-11.34-11.34S18.07,.73,24.37,.73s11.34,5.04,11.34,11.34-5.18,11.34-11.34,11.34Zm30.38,0c-6.3-.14-11.2-5.18-11.2-11.48,.14-6.16,5.04-11.06,11.2-11.2h.98V.31h-15.26V23.69h15.26v-.28h-.98ZM161.01,3.81l-4.48,18.06h6.02l.98-3.92c.7,1.26,2.52,1.96,5.46,1.68,4.48-.56,9.94-4.34,9.94-10.22,0-3.5-3.36-6.16-7.42-5.6-1.96,.28-3.78,.98-5.32,2.94l.7-2.94h-5.88Zm5.74,14.28c-2.1-.14-2.38-1.68-2.38-3.36,0-1.96,.56-3.92,1.4-5.6s2.66-3.92,5.32-4.06c5.32-.28,.98,13.3-4.34,13.02Zm-36.82-10.5c0,1.26,1.26,2.1,2.66,2.1,1.68,0,2.8-.98,2.8-2.52,0-2.66-3.92-3.5-6.3-3.5-5.74,0-12.32,4.48-12.32,9.52,0,3.78,3.64,6.44,7.98,6.44,6.58,0,9.8-4.48,10.08-4.9h-4.62s-1.26,3.78-4.76,3.78c-1.4,0-2.52-.56-2.52-1.82,0-3.22,2.38-9.8,3.5-11.06,.84-.84,1.26-.98,2.52-.98,.7,0,1.26,.56,1.26,.98,0,.14-.14,.42-.28,.7,.14,.42,0,.84,0,1.26Z"/><path class="cls-1" d="M65.11,7.59c0,1.26,1.26,2.1,2.66,2.1,1.68,0,2.8-.98,2.8-2.52,0-2.66-3.92-3.5-6.3-3.5-5.74,0-12.32,4.48-12.32,9.52,0,3.78,3.64,6.44,7.98,6.44,6.58,0,9.8-4.48,10.08-4.9h-4.62s-.7,3.78-4.76,3.78c-1.4,0-2.52-.56-2.52-1.82,0-3.22,2.38-9.8,3.5-11.06,.84-.84,1.26-.98,2.52-.98,.7,0,1.26,.56,1.26,.98,0,.14-.14,.42-.28,.7,.14,.56,0,.84,0,1.26Zm86.1,7.28s-1.68,3.78-5.46,3.78c-1.54,0-2.38-.42-2.38-1.82,0-1.26,.56-2.66,.84-3.92h3.78c6.16,0,8.96-2.52,8.96-5.04,0-2.94-4.2-4.06-7-4.06-5.88,0-12.74,4.76-12.74,9.94,0,3.78,3.64,6.02,7.98,6.02,4.62,0,8.26-1.68,10.92-4.9h-4.9Zm-5.32-7.42c.84-2.24,1.96-2.66,3.36-2.66,1.82,0,2.52,.7,2.52,2.24,0,3.64-2.24,4.76-4.62,4.76h-2.8l1.54-4.34Zm44.94,7.42c-.56,1.4-1.54,3.64-3.64,3.64-.56,0-.98-.28-.56-1.54l2.94-10.08h3.08c1.54,0,1.82-2.1,1.82-2.1h-4.2l.42-1.96h-5.74l-.56,1.96h-1.54c-1.54,0-1.82,2.1-1.82,2.1h2.52l-2.1,7.56c-.28,1.12-.7,2.24-.7,2.8,0,1.82,2.24,2.66,4.2,2.66,4.48,0,7.42-2.1,9.1-4.9l-3.22-.14ZM85.55,3.81c-5.88,0-13.44,4.2-13.44,9.52,0,3.36,2.66,6.44,8.12,6.44,1.54,0,2.52-.14,4.06-.42,4.62-.98,9.66-4.76,9.66-9.1,0-3.78-4.06-6.44-8.4-6.44Zm-.28,.98c1.68,0,2.66,.56,2.66,1.82-.14,2.1-2.24,8.4-3.22,10.36-.7,1.4-1.82,1.54-3.64,1.54-1.12,0-2.8-.14-2.8-1.26s2.1-8.82,2.8-10.36c.7-1.4,2.1-2.1,4.2-2.1Zm28.7,13.58c-.84,.28-1.82,0-1.68-.42l2.66-9.8c.84-3.08-2.24-3.92-4.34-3.92-3.5,0-6.3,2.24-7.7,4.34l1.26-4.2h-5.46s-3.5,11.62-4.06,13.86c-.84,2.94,5.04,2.1,5.04,2.1l2.1-7.56c.14-.7,.42-1.4,.98-2.1,1.54-2.24,4.34-4.48,5.6-4.2,.56,.14,1.12,.56,.56,2.1l-2.1,7.28c-.98,3.22,1.4,4.34,3.78,4.34,.98,0,2.52,0,3.36-.56v-1.26Z"/></svg>