<svg width="136" height="16" viewBox="0 0 136 16" fill="none" xmlns="http://www.w3.org/2000/svg">
<g clip-path="url(#clip0_11170_43207)">
<path d="M25.3411 6.68655C25.3411 3.0354 28.351 0 32.067 0H23.6376V13.3644H32.067C28.351 13.3644 25.3411 10.3377 25.3411 6.67788" fill="#023A78"/>
<path d="M14.1755 13.2951C10.4595 13.2951 7.44964 10.3377 7.44964 6.67788C7.44964 3.01806 10.4507 0.0693806 14.1755 0.0693806C17.9003 0.0693806 20.9014 3.02673 20.9014 6.67788C20.9014 10.329 17.8915 13.2951 14.1755 13.2951ZM6.69055 0C2.98339 0.0693806 0 3.02673 0 6.68655C0 10.3464 2.98339 13.3037 6.69055 13.3644H22.9403V0H6.69055Z" fill="#023A78"/>
<path d="M69.0415 10.4071H69.0239C68.7767 10.4071 68.4943 10.2076 68.5561 9.98216L70.1537 4.39702C70.648 2.61047 68.7767 2.04675 67.5675 2.04675C65.4491 2.04675 64.2928 3.35631 63.0218 4.52711L62.9688 4.48375L63.7897 2.09012C62.8541 2.09012 61.3712 2.09012 60.4356 2.09012L57.4875 11.1009H61.0888L62.1391 7.47578C62.5805 5.99277 62.8806 5.24693 64.231 4.07613C64.7253 3.65118 65.5815 2.80994 66.3229 2.80994C66.6584 2.80994 66.9585 3.12215 66.6848 4.07613L65.2549 8.85472C64.7077 10.728 66.0846 11.1963 67.4881 11.1963C68.0441 11.1963 68.5208 11.1356 68.9444 11.0315L69.0504 10.3984L69.0415 10.4071Z" fill="#023A78"/>
<path d="M52.7918 2.04675C49.2435 2.04675 44.7861 4.48375 44.7861 7.65791C44.7861 9.61791 46.3837 11.4478 49.6584 11.4478C50.541 11.4478 51.1765 11.3958 52.0504 11.2223C54.8572 10.6586 57.8318 8.3864 57.8318 5.85401C57.8318 3.59914 55.4045 2.04675 52.7918 2.04675ZM52.4917 2.67985C53.4803 2.67985 54.0893 2.97472 54.0893 3.76392C54.0893 5.0041 52.9595 8.69862 52.3769 9.89543C51.9974 10.728 51.3089 10.8147 50.2321 10.8147C49.5436 10.8147 48.5286 10.7714 48.5286 10.0689C48.5286 9.36641 49.6319 4.88268 50.0114 4.00675C50.4174 3.07879 51.2207 2.67985 52.4917 2.67985Z" fill="#023A78"/>
<path d="M102.433 9.60056C102.097 10.1643 101.744 10.8147 100.888 10.8147C99.4844 10.8147 98.9637 9.68729 98.9637 8.72463C98.9637 7.57118 99.2991 6.4264 99.8198 5.38569C100.341 4.371 101.47 2.67985 103.042 2.67985C103.615 2.67985 104.392 2.86197 104.392 3.39967C104.392 4.68322 103.368 8.01348 102.433 9.60056ZM96.9865 2.07277L94.2591 12.9308H97.8692L98.5841 9.93879C99.4138 11.0402 100.244 11.4478 101.779 11.4478C103.977 11.4478 107.861 9.0195 107.861 5.61118C107.861 3.52109 106.122 2.04675 103.562 2.04675C101.929 2.04675 100.614 3.11348 99.9611 4.24091L99.9081 4.18888C100.155 3.51242 100.429 2.81861 100.729 2.09012L96.9865 2.0641V2.07277Z" fill="#023A78"/>
<path d="M78.9626 4.31897C78.9626 5.06481 79.6776 5.56782 80.5602 5.56782C81.6018 5.56782 82.2638 4.96074 82.2638 4.1195C82.2638 2.56711 79.9512 2.04675 78.4683 2.04675C74.9995 2.04675 71.0628 4.70923 71.0628 7.68393C71.0628 9.86941 73.2695 11.4478 75.8292 11.4478C78.0358 11.4478 79.9512 10.5459 81.3193 9.16694C81.5223 9.00216 81.7165 8.80269 81.893 8.59455H79.148C79.148 8.59455 79.0685 10.1296 77.5768 10.6846C77.1796 10.7714 76.7648 10.8147 76.3323 10.8147C75.5379 10.8147 74.8229 10.5199 74.8229 9.75667C74.8229 7.84003 76.2793 3.96339 76.9413 3.26091C77.418 2.76658 77.7181 2.67985 78.486 2.67985C78.9185 2.67985 79.2539 2.97472 79.2539 3.21755C79.2539 3.27826 79.2009 3.44304 79.1215 3.66852C79.0332 3.86799 78.9803 4.09348 78.9803 4.31897" fill="#023A78"/>
<path d="M39.2959 10.6586C38.8634 10.754 38.4133 10.8147 37.9455 10.8147C37.1511 10.8147 36.4361 10.5199 36.4361 9.75668C36.4361 7.84004 37.8925 3.9634 38.5545 3.26092C39.0223 2.76658 39.3313 2.67986 40.0903 2.67986C40.5317 2.67986 40.8671 2.97472 40.8671 3.21756C40.8671 3.27826 40.8141 3.44304 40.7347 3.66853C40.6552 3.868 40.6023 4.09349 40.6023 4.31897C40.6023 5.06481 41.3172 5.55915 42.1999 5.55915C43.2414 5.55915 43.9034 4.95207 43.9034 4.11083C43.9034 2.55844 41.5909 2.03809 40.0992 2.03809C36.6303 2.03809 32.6937 4.70057 32.6937 7.67526C32.6937 9.86075 34.9003 11.4392 37.46 11.4392C39.5431 11.4392 41.3702 10.6326 42.7118 9.39243C43.0208 9.15827 43.312 8.89809 43.5592 8.58588H40.8141C40.8141 8.58588 40.7347 10.0776 39.3048 10.65" fill="#023A78"/>
<path d="M88.31 4.27561C88.769 2.99207 89.4662 2.67986 90.2871 2.67986C91.3904 2.67986 91.77 3.10481 91.77 3.9634C91.77 6.07951 89.7664 6.79933 88.9896 6.79933H87.392L88.3011 4.27561H88.31ZM91.4787 8.59455C91.4787 8.59455 91.4081 9.92145 90.2077 10.5459C89.581 10.7107 88.9102 10.8061 88.204 10.8061C87.3214 10.8061 86.7388 10.5546 86.7388 9.748C86.7388 8.94145 87.0389 8.19561 87.2066 7.42375H89.4398C90.243 7.42375 91.0903 7.24163 91.8318 7.04216C93.3764 6.6172 94.5857 5.87136 94.5857 4.43172C94.5857 2.67118 92.2731 2.03809 90.5431 2.03809C86.986 2.03809 82.9434 4.83933 82.9434 7.8834C82.9434 10.1383 85.1412 11.4392 87.7362 11.4392C90.4813 11.4392 92.7056 10.4765 94.2503 8.59455H91.4875H91.4787Z" fill="#023A78"/>
<path d="M114.957 8.60323C114.657 9.45314 113.801 10.5372 112.821 10.5372C112.46 10.5372 112.248 10.3811 112.46 9.63526L114.419 3.05278H116.405L116.537 2.41968H114.604L114.993 1.2749L111.533 1.29225L111.083 2.41968H109.379L109.211 3.05278H110.862L109.406 8.12623C109.211 8.8027 109.017 9.47916 109.017 9.74801C109.017 10.8321 110.368 11.3091 111.497 11.3091C113.739 11.3091 115.664 10.2597 116.281 8.6119H114.957V8.60323Z" fill="#023A78"/>
<path d="M131.728 5.79324C130.316 6.85996 129.521 7.46704 128.383 8.29961L127.544 8.88935C128.736 9.30563 130.501 9.79997 133.555 8.26492L132.752 10.7886C126.997 13.2863 126.812 9.72191 121.877 10.8667C123.493 9.64386 124.905 8.22156 125.929 7.46704C126.944 6.71253 127.977 5.932 129.142 5.0474C129.821 4.52704 130.13 4.20616 130.236 3.54704C130.316 2.96598 129.813 2.515 128.842 2.49766C127.782 2.49766 126.794 2.71447 126.644 3.75518C126.635 3.82456 126.626 3.88527 126.617 3.95465C125.62 3.92863 123.625 3.95465 123.625 3.95465V3.90262C123.625 3.84191 123.634 3.77253 123.643 3.70315C123.925 1.73447 126.414 0.841198 129.08 0.823853C131.719 0.832525 133.732 1.67376 133.555 3.4343C133.423 4.37961 132.699 5.0474 131.728 5.79324Z" fill="#023A78"/>
<path d="M134.235 13.4772H134.429C134.65 13.4772 134.835 13.3992 134.835 13.1997C134.835 13.0523 134.729 12.9048 134.429 12.9048C134.341 12.9048 134.279 12.9135 134.235 12.9222V13.4859V13.4772ZM134.235 14.3965H133.97V12.7487C134.111 12.7227 134.244 12.7054 134.447 12.7054C134.703 12.7054 134.87 12.7574 134.967 12.8268C135.064 12.9048 135.117 13.0089 135.117 13.1737C135.117 13.3905 134.967 13.5206 134.791 13.5726C134.941 13.616 135.038 13.7461 135.073 13.9889C135.109 14.2491 135.153 14.3445 135.179 14.3965H134.897C134.853 14.3445 134.817 14.1884 134.782 13.9716C134.747 13.7634 134.641 13.6767 134.42 13.6767H134.235V14.3879V14.3965ZM134.517 12.2891C133.846 12.2891 133.308 12.8441 133.308 13.5379C133.308 14.2317 133.846 14.7955 134.517 14.7955C135.188 14.7955 135.726 14.2404 135.726 13.5466C135.726 12.8528 135.188 12.2891 134.517 12.2891ZM134.517 12.0549C135.338 12.0549 136 12.714 136 13.5379C136 14.3618 135.347 15.021 134.517 15.021C133.687 15.021 133.025 14.3705 133.025 13.5379C133.025 12.7054 133.696 12.0549 134.517 12.0549Z" fill="#023A78"/>
</g>
<defs>
<clipPath id="clip0_11170_43207">
<rect width="136" height="16" fill="#023A78"/>
</clipPath>
</defs>
</svg>
