<?xml version="1.0" encoding="UTF-8" standalone="no"?><!-- Generator: Gravit.io --><svg xmlns="http://www.w3.org/2000/svg" xmlns:xlink="http://www.w3.org/1999/xlink" style="isolation:isolate" viewBox="0 0 667 667" width="667pt" height="667pt"><defs><clipPath id="_clipPath_fbLrDwlZLgfR2WXdNmtesJVRVCBIlioz"><rect width="667" height="667"/></clipPath></defs><g clip-path="url(#_clipPath_fbLrDwlZLgfR2WXdNmtesJVRVCBIlioz)"><rect width="667" height="667" style="fill:rgb(0,0,0)" fill-opacity="0"/><g><g><path d=" M 0 333.496 C 0 149.609 149.609 0 333.495 0 C 517.391 0 667.01 149.609 667.01 333.496 C 667.01 517.401 517.392 667 333.495 667 C 149.61 667 0 517.401 0 333.496 Z " fill="rgb(255,255,255)"/></g><g><path d=" M 588.109 333.606 C 588.109 474.283 474.203 588.209 333.675 588.209 C 193.169 588.209 79.272 474.283 79.272 333.606 C 79.272 193.109 193.169 79.183 333.675 79.183 C 474.202 79.182 588.109 193.109 588.109 333.606 Z " fill="rgb(255,255,255)"/><g><path d=" M 185.912 180.903 C 192.301 186.742 193.967 193.718 187.37 200.915 L 183.936 204.637 L 162.426 184.923 L 165.85 181.19 C 172.448 174.005 179.524 175.063 185.912 180.903 Z  M 190.174 176.251 C 179.444 166.43 168.884 168.984 161.407 177.139 L 153.812 185.413 L 184.184 213.261 L 191.801 204.975 C 199.058 197.032 200.884 186.072 190.174 176.251 Z " fill="rgb(35,31,32)"/><path d=" M 212.613 184.255 L 188.498 150.847 L 210.018 135.306 L 213.552 140.167 L 197.033 152.076 L 202.992 160.349 L 212.584 153.422 L 216.077 158.293 L 206.495 165.21 L 214.111 175.77 L 231.329 163.343 L 234.862 168.214 L 212.613 184.255 Z " fill="rgb(35,31,32)"/><path d=" M 257.178 157.895 C 247.856 162.006 240.35 158.115 235.778 147.713 L 226.126 125.864 L 231.775 123.369 L 241.347 145.057 C 244.482 152.174 249.132 154.679 254.793 152.204 C 260.721 149.589 261.89 144.678 258.855 137.781 L 249.124 115.712 L 254.753 113.218 L 264.465 135.176 C 269.116 145.737 266.561 153.753 257.178 157.895 Z " fill="rgb(35,31,32)"/><path d=" M 290.037 110.245 L 297.253 144.64 L 291.214 145.907 L 283.988 111.522 L 272.24 113.988 L 270.992 108.049 L 300.557 101.851 L 301.795 107.78 L 290.037 110.245 Z " fill="rgb(35,31,32)"/><path d=" M 328.925 141.954 C 322.935 142.054 317.696 139.559 314.162 135.566 L 318.485 131.185 C 321.31 134.149 325.402 135.946 329.294 135.876 C 335.052 135.776 337.788 133.72 337.718 129.717 C 337.659 126.543 335.212 124.976 328.286 123.059 C 319.523 120.634 315.291 118.538 315.171 111.161 C 315.041 104.054 320.96 99.593 328.546 99.444 C 334.155 99.345 338.418 101.331 342.141 104.784 L 337.877 109.296 C 335.212 106.69 332.248 105.444 328.197 105.513 C 323.386 105.602 321.358 107.998 321.409 110.763 C 321.459 113.647 323.386 115.015 330.52 117.012 C 338.687 119.337 343.797 121.833 343.945 129.179 C 344.076 136.605 339.464 141.745 328.925 141.954 Z " fill="rgb(35,31,32)"/><path d=" M 369.019 145.308 C 358.54 143.372 353.469 133.52 355.744 121.244 C 358.009 108.977 366.235 101.581 376.714 103.517 C 383.312 104.734 387.224 108.208 389.101 113.627 L 383.103 115.994 C 381.615 112.31 379.769 110.364 375.595 109.585 C 368.539 108.289 363.668 113.308 361.982 122.392 C 360.304 131.494 363.069 137.933 370.126 139.229 C 374.367 140.008 377.282 138.741 379.976 135.836 L 384.388 140.117 C 380.568 144.57 375.157 146.437 369.019 145.308 Z " fill="rgb(35,31,32)"/><path d=" M 415.353 159.772 L 422.5 142.854 L 405.041 135.468 L 397.885 152.386 L 392.196 149.97 L 408.245 112.042 L 413.954 114.436 L 407.447 129.788 L 424.903 137.173 L 431.401 121.833 L 437.09 124.237 L 421.03 162.186 L 415.353 159.772 Z " fill="rgb(35,31,32)"/><path d=" M 430.794 167.946 L 454.439 134.2 L 476.179 149.422 L 472.735 154.352 L 456.056 142.665 L 450.218 150.999 L 459.899 157.796 L 456.455 162.717 L 446.764 155.919 L 439.297 166.569 L 456.715 178.766 L 453.252 183.677 L 430.794 167.946 Z " fill="rgb(35,31,32)"/><path d=" M 498.577 188.518 C 495.313 191.572 491.799 190.923 488.976 187.929 L 480.76 179.146 L 490.424 170.092 L 498.638 178.857 C 501.492 181.91 501.71 185.584 498.577 188.518 Z  M 502.967 192.939 C 509.155 187.15 507.8 180.113 502.899 174.873 L 490.531 161.688 L 460.478 189.885 L 464.611 194.297 L 476.518 183.137 L 482.877 189.935 L 476.576 207.062 L 481.458 212.253 L 487.974 194.596 C 492.817 197.7 498.158 197.45 502.967 192.939 Z " fill="rgb(35,31,32)"/><path d=" M 153.024 420.263 L 143.432 425.154 L 148.822 435.705 L 143.423 438.46 L 138.033 427.909 L 121.734 436.254 L 118.919 430.754 L 155.609 411.999 L 167.688 435.624 L 162.297 438.389 L 153.024 420.263 Z " fill="rgb(35,31,32)"/><path d=" M 147.724 479.162 C 141.436 471.147 143.362 462.904 152.306 455.906 L 171.141 441.184 L 174.953 446.054 L 156.257 460.677 C 150.139 465.448 148.841 470.579 152.654 475.438 C 156.627 480.54 161.677 480.489 167.617 475.838 L 186.62 460.976 L 190.423 465.866 L 171.509 480.639 C 162.426 487.757 154.012 487.228 147.724 479.162 Z " fill="rgb(35,31,32)"/><path d=" M 179.146 512.271 C 174.594 508.337 172.358 503.008 172.379 497.668 L 178.536 497.279 C 178.666 501.35 180.513 505.443 183.457 507.997 C 187.818 511.74 191.212 512.051 193.847 509.016 C 195.893 506.601 195.125 503.826 191.252 497.777 C 186.351 490.111 184.604 485.749 189.425 480.17 C 194.066 474.759 201.453 475.399 207.212 480.358 C 211.435 484.002 213.301 488.334 213.77 493.384 L 207.572 493.894 C 207.352 490.191 205.965 487.286 202.891 484.64 C 199.247 481.476 196.134 481.925 194.327 484.011 C 192.45 486.208 192.959 488.504 196.952 494.751 C 201.503 501.938 203.629 507.198 198.829 512.777 C 193.987 518.4 187.11 519.148 179.146 512.271 Z " fill="rgb(35,31,32)"/><path d=" M 213.76 537.204 C 208.57 534.16 205.406 529.318 204.478 524.049 L 210.457 522.571 C 211.314 526.575 213.869 530.248 217.224 532.223 C 222.193 535.128 225.587 534.798 227.623 531.355 C 229.22 528.621 227.942 526.025 223.063 520.755 C 216.853 514.108 214.349 510.124 218.072 503.777 C 221.685 497.628 229.061 496.909 235.608 500.752 C 240.429 503.577 243.044 507.5 244.411 512.391 L 238.403 514.008 C 237.524 510.404 235.637 507.81 232.125 505.753 C 227.963 503.296 225.009 504.295 223.591 506.671 C 222.144 509.156 223.063 511.343 228.133 516.752 C 233.882 523.02 236.936 527.802 233.213 534.15 C 229.451 540.548 222.833 542.534 213.76 537.204 Z " fill="rgb(35,31,32)"/><path d=" M 273.288 530.227 C 272.39 532.783 270.004 534.62 266.162 533.282 L 255.721 529.629 L 259.245 519.577 L 269.675 523.239 C 273.578 524.587 274.306 527.332 273.288 530.227 Z  M 274.945 549.322 C 276.842 543.942 274.327 539.89 271.562 537.973 C 274.885 537.583 277.87 535.868 279.228 531.924 C 281.542 525.387 278.38 520.286 271.612 517.921 L 255.602 512.312 L 242.007 551.199 L 257.448 556.61 C 265.943 559.582 272.201 557.227 274.945 549.322 Z  M 269.066 547.445 C 267.73 551.297 264.925 553.234 259.744 551.437 L 249.354 547.784 L 253.886 534.907 L 264.436 538.599 C 268.827 540.14 270.474 543.452 269.066 547.445 Z " fill="rgb(35,31,32)"/><path d=" M 309.201 552.585 L 296.615 550.85 L 301.167 541.976 C 302.633 539.102 304.719 534.62 305.43 532.931 C 305.659 534.739 306.637 539.719 307.236 542.743 L 309.201 552.585 Z  M 318.963 569.384 L 309.709 526.524 L 303.242 525.616 L 282.93 564.423 L 289.288 565.301 L 293.999 556.079 L 310.319 558.325 L 312.425 568.487 L 318.963 569.384 Z " fill="rgb(35,31,32)"/><path d=" M 333.895 569.414 L 331.679 528.261 L 337.846 527.952 L 339.754 563.026 L 360.254 561.909 L 360.584 567.958 L 333.895 569.414 Z " fill="rgb(35,31,32)"/><path d=" M 375.256 565.651 L 365.815 525.537 L 371.832 524.13 L 379.876 558.346 L 399.872 553.645 L 401.268 559.534 L 375.256 565.651 Z " fill="rgb(35,31,32)"/><path d=" M 395.36 541.596 L 393.432 535.926 L 407.377 531.215 L 409.303 536.895 L 395.36 541.596 Z " fill="rgb(35,31,32)"/><path d=" M 434.937 512.062 C 436.174 514.448 435.905 517.472 432.311 519.339 L 422.491 524.478 L 417.56 515.036 L 427.37 509.915 C 431.003 508.009 433.508 509.356 434.937 512.062 Z  M 450.016 523.9 C 447.373 518.819 442.702 517.9 439.408 518.609 C 441.385 515.924 442.173 512.571 440.247 508.888 C 437.022 502.731 431.153 501.551 424.784 504.875 L 409.763 512.74 L 428.858 549.242 L 443.37 541.646 C 451.345 537.474 453.889 531.295 450.016 523.9 Z  M 444.628 526.914 C 446.515 530.506 446.015 533.88 441.164 536.436 L 431.411 541.526 L 425.083 529.429 L 434.995 524.238 C 439.127 522.093 442.651 523.171 444.628 526.914 Z " fill="rgb(35,31,32)"/><path d=" M 481.839 516.822 C 473.943 523.26 465.668 521.504 458.472 512.72 L 443.34 494.224 L 448.132 490.302 L 463.143 508.667 C 468.074 514.685 473.215 515.863 478.005 511.95 C 483.006 507.849 482.836 502.818 478.075 496.988 L 462.794 478.303 L 467.574 474.391 L 482.775 492.985 C 490.101 501.911 489.752 510.324 481.839 516.822 Z " fill="rgb(35,31,32)"/><path d=" M 522.172 473.803 L 491.728 470.41 C 489.902 470.221 487.096 469.78 485.87 469.611 C 487.048 470.58 491.538 474.103 493.335 475.539 L 509.973 488.935 L 506.231 493.607 L 474.12 467.794 L 478.063 462.884 L 507.448 466.448 C 509.444 466.668 512.938 467.226 514.136 467.426 C 512.938 466.466 508.326 462.825 506.531 461.385 L 489.982 448.071 L 493.746 443.399 L 525.836 469.211 L 522.172 473.803 Z " fill="rgb(35,31,32)"/><path d=" M 528.571 422.349 C 536.295 426.282 539.758 432.539 535.337 441.253 L 533.021 445.756 L 507.028 432.499 L 509.315 427.979 C 513.758 419.285 520.884 418.426 528.571 422.349 Z  M 531.455 416.73 C 518.48 410.133 508.996 415.402 503.966 425.253 L 498.856 435.274 L 535.578 453.989 L 540.677 443.967 C 545.578 434.377 544.39 423.338 531.455 416.73 Z " fill="rgb(35,31,32)"/></g><g><g><path d=" M 153.453 333.625 C 153.453 433.099 234.303 514.007 333.676 514.007 C 433.06 514.007 513.938 433.099 513.938 333.625 C 513.938 234.252 433.062 153.383 333.676 153.383 C 234.302 153.383 153.453 234.252 153.453 333.625 Z  M 163.774 333.625 C 163.774 239.961 239.991 163.704 333.675 163.704 C 427.359 163.704 503.607 239.962 503.607 333.625 C 503.607 427.41 427.361 503.667 333.675 503.667 C 239.99 503.667 163.774 427.41 163.774 333.625 Z " fill="rgb(153,153,153)"/></g></g></g><path d=" M 333.566 12.128 C 156.099 12.128 12.267 155.979 12.267 333.396 C 12.267 406.7 36.831 474.253 78.164 528.311 L 105.153 514.438 C 65.677 464.721 42.052 401.828 42.052 333.407 C 42.052 172.429 172.547 41.923 333.566 41.923 C 494.543 41.923 625.069 172.429 625.069 333.407 C 625.069 401.818 601.473 464.691 562.008 514.378 L 589.076 528.151 C 630.348 474.133 654.843 406.629 654.843 333.396 C 654.843 155.979 510.993 12.128 333.566 12.128 Z " fill="rgb(102,102,102)"/><path d=" M 122.91 534.799 L 96.35 550.1 C 130.098 586.992 172.348 615.975 219.999 633.974 L 233.444 607.273 C 191.113 591.792 153.453 566.739 122.91 534.799 Z " fill="rgb(0,0,0)"/><path d=" M 570.662 550.199 L 544.163 534.847 C 513.49 566.909 475.619 592.011 433.109 607.461 L 446.934 634.051 C 494.604 616.066 536.894 587.111 570.662 550.199 Z " fill="rgb(255,203,5)"/><path d=" M 333.566 624.919 C 306.606 624.919 280.535 621.197 255.772 614.329 L 245.202 642.297 C 273.289 650.311 302.904 654.704 333.568 654.704 C 364.07 654.704 393.545 650.342 421.492 642.418 L 410.853 614.48 C 386.228 621.237 360.345 624.919 333.566 624.919 Z " fill="rgb(215,25,32)"/><path d=" M 84.921 333.496 C 84.921 196.432 196.432 84.921 333.495 84.921 C 470.569 84.921 582.089 196.432 582.089 333.496 C 582.089 470.579 470.569 582.079 333.495 582.079 C 196.432 582.08 84.921 470.58 84.921 333.496 Z  M 72.924 333.496 C 72.924 477.186 189.814 594.077 333.495 594.077 C 477.195 594.077 594.076 477.186 594.076 333.496 C 594.076 189.824 477.195 72.934 333.495 72.934 C 189.814 72.935 72.924 189.825 72.924 333.496 Z " fill="rgb(153,153,153)"/><path d=" M 477.534 349.855 C 477.534 349.855 450.127 258.966 445.685 244.393 C 441.882 231.916 432.121 232.714 432.121 232.714 C 432.121 232.714 428.905 232.874 403.085 232.575 C 378.181 232.315 375.786 238.524 393.493 261.92 C 399.112 269.347 396.928 270.404 382.523 272.919 C 368.112 275.415 361.232 261.342 360.396 255.154 C 359.557 248.944 356.373 226.928 355.992 225.849 C 355.065 223.213 361.802 221.238 365.087 223.354 C 371.126 227.206 370.279 228.444 370.279 217.006 C 370.279 205.547 355.146 206.486 355.146 206.486 C 354.157 194.368 336.072 196.445 330.272 196.824 C 324.473 197.223 318.655 201.435 303.204 201.435 C 287.762 201.435 290.457 221.257 290.457 221.257 C 290.457 221.257 297.634 219.122 303.092 219.262 C 308.492 219.401 322.498 219.122 318.264 227.706 C 318.264 227.706 307.055 223.733 301.774 223.733 C 296.494 223.733 283.828 223.613 280.664 219.002 C 277.5 214.391 276.312 212.934 276.312 212.934 C 276.312 212.934 272.749 227.426 280.934 228.883 C 289.117 230.341 297.563 228.883 301.515 228.624 C 305.467 228.345 313.264 228.345 315.369 228.624 C 317.476 228.883 315.229 231.119 311.137 231.399 C 307.056 231.659 297.681 230.999 300.198 235.211 C 302.694 239.443 307.055 241.819 309.681 242.337 C 312.325 242.876 319.582 241.679 316.407 249.464 L 314.631 254.655 C 312.595 260.583 306.256 274.558 291.844 272.021 C 277.431 269.545 275.264 268.488 280.854 261.082 C 298.571 237.666 296.195 231.458 271.272 231.717 C 245.46 232.016 242.245 231.837 242.245 231.837 C 242.245 231.837 232.484 231.038 228.682 243.515 C 224.229 258.088 189.864 350.375 189.864 350.375 C 189.864 350.375 188.327 359.3 195.823 361.795 C 205.665 365.05 208.869 355.527 208.869 355.527 L 233.802 289.451 C 235.659 290.608 237.485 291.747 239.333 292.826 L 208.191 379.182 C 208.191 379.182 205.007 388.704 215.059 392.219 C 224.043 395.333 228.084 384.133 228.084 384.133 L 258.068 302.426 C 259.664 303.105 261.262 303.783 262.819 304.421 L 231.239 394.674 C 231.239 394.674 228.334 404.355 237.667 407.511 C 246.98 410.684 250.752 399.605 250.752 399.605 L 282.093 310.891 C 283.96 311.39 285.806 311.85 287.613 312.268 C 287.592 312.368 287.583 312.448 287.583 312.448 L 271.653 365.668 C 271.653 365.668 269.017 374.81 277.98 378.325 C 286.964 381.838 291.875 369.881 291.875 369.881 L 306.466 322.909 C 306.466 322.909 312.456 347.363 301.895 364.432 C 291.345 381.498 281.005 392.897 267.46 399.224 C 267.46 399.224 267.82 401.18 272.741 401.501 C 277.661 401.88 278.01 403.118 278.719 403.976 L 271.712 414.715 C 271.712 414.715 270.644 418.588 265.893 416.492 C 261.141 414.375 255.173 411.202 255.173 411.202 C 255.173 411.202 249.003 409.643 247.596 412.619 C 246.189 415.613 246.189 415.613 246.189 415.613 C 246.189 415.613 239.163 416.311 238.264 420.343 C 237.395 424.397 238.632 424.915 238.632 424.915 C 238.632 424.915 241.816 422.68 243.194 423.538 C 245.07 424.656 243.552 428.049 245.739 428.848 C 249.672 430.265 252.546 428.069 254.643 426.171 C 256.02 424.894 259.394 426.332 259.553 427.391 C 259.732 428.449 258.146 431.242 254.104 431.782 C 250.061 432.321 241.268 433.877 241.777 438.469 C 242.236 442.342 242.296 442.681 242.315 442.7 C 242.266 442.78 239.022 449.748 245.66 452.363 C 245.66 452.363 246.728 448.15 248.125 448.15 C 249.533 448.15 250.75 450.606 253.226 450.606 C 255.691 450.606 257.978 448.49 259.395 444.278 C 260.782 440.048 263.248 434.417 263.248 434.417 C 263.248 434.417 265.005 432.321 266.063 432.66 C 267.12 433.02 267.659 434.956 267.3 436.176 C 266.951 437.432 266.242 440.227 266.063 440.945 C 265.893 441.625 259.924 449.031 264.665 452.563 C 269.405 456.057 268.888 457.473 270.104 458.332 C 271.342 459.23 276.262 460.968 278.03 459.93 C 278.03 459.93 275.923 456.057 275.385 455.358 C 274.855 454.659 275.035 453.262 278.37 453.262 C 281.723 453.262 281.723 449.03 279.617 445.855 C 277.501 442.703 276.772 439.647 276.084 437.592 C 274.717 433.44 278.45 431.943 280.146 436.176 C 281.773 440.267 281.105 444.239 284.718 443.661 C 287.403 443.242 288.042 441.465 289.279 441.626 C 290.516 441.805 294 444.239 292.133 448.751 C 292.133 448.751 300.358 447.415 297.564 439.888 C 295.708 434.898 293.43 437.393 294.918 432.501 C 296.066 428.649 292.633 425.815 288.58 425.974 C 284.787 426.133 279.856 425.116 282.263 420.525 C 284.787 415.654 288.24 409.805 288.24 409.805 L 294.029 416.492 C 294.029 416.492 299.5 402.778 304.418 396.61 C 309.34 390.461 315.328 382.875 318.133 384.473 C 320.947 386.05 321.816 405.932 319.541 415.954 C 317.255 425.974 308.981 447.973 307.054 450.968 C 305.118 453.942 317.952 449.032 319.541 448.492 C 321.118 447.972 324.293 444.1 324.979 450.09 C 325.699 456.059 328.035 467.437 333.474 473.267 L 333.605 473.126 C 339.064 467.317 341.71 455.539 342.409 449.55 C 343.107 443.581 346.27 447.454 347.868 447.972 C 349.436 448.492 362.283 453.423 360.335 450.429 C 358.407 447.454 350.145 425.455 347.868 415.434 C 345.573 405.413 346.451 385.51 349.276 383.932 C 352.081 382.355 358.05 389.942 362.979 396.07 C 367.9 402.238 373.361 415.952 373.361 415.952 L 379.16 409.264 C 379.16 409.264 382.614 415.114 385.15 420.003 C 387.534 424.576 382.614 425.613 378.821 425.453 C 374.759 425.293 371.324 428.128 372.493 431.96 C 373.961 436.852 371.695 434.376 369.848 439.367 C 367.054 446.893 375.258 448.23 375.258 448.23 C 373.393 443.699 376.876 441.284 378.114 441.104 C 379.351 440.944 379.991 442.722 382.686 443.14 C 386.299 443.7 385.639 439.727 387.267 435.654 C 388.953 431.422 392.687 432.899 391.31 437.071 C 390.621 439.127 389.903 442.161 387.786 445.335 C 385.681 448.488 385.681 452.721 389.025 452.721 C 392.367 452.721 392.548 454.119 392.018 454.818 C 391.479 455.537 389.373 459.41 389.373 459.41 C 391.131 460.468 396.052 458.691 397.3 457.812 C 398.528 456.934 397.999 455.537 402.75 452.023 C 407.491 448.49 401.503 441.104 401.341 440.405 C 401.152 439.687 400.444 436.892 400.104 435.654 C 399.755 434.416 400.274 432.5 401.341 432.14 C 402.391 431.781 404.147 433.875 404.147 433.875 C 404.147 433.875 406.613 439.525 408.02 443.737 C 409.419 447.968 411.723 450.085 414.168 450.085 C 416.644 450.085 417.863 447.609 419.279 447.609 C 420.686 447.609 421.744 451.841 421.744 451.841 C 428.382 449.205 425.129 442.259 425.088 442.178 C 425.1 442.158 425.158 441.799 425.617 437.947 C 426.126 433.356 417.344 431.778 413.301 431.239 C 409.249 430.718 407.682 427.906 407.84 426.867 C 408.02 425.789 411.374 424.372 412.771 425.63 C 414.869 427.526 417.713 429.723 421.655 428.305 C 423.861 427.527 422.334 424.132 424.211 422.996 C 425.599 422.158 428.782 424.393 428.782 424.393 C 428.782 424.393 430.002 423.854 429.143 419.822 C 428.263 415.769 421.217 415.07 421.217 415.07 C 421.217 415.07 421.217 415.07 419.809 412.076 C 418.392 409.101 412.254 410.678 412.254 410.678 C 412.254 410.678 406.254 413.853 401.503 415.948 C 396.772 418.064 395.714 414.191 395.714 414.191 L 390.083 402.054 C 390.773 401.175 391.131 399.937 396.054 399.598 C 400.972 399.239 401.343 397.302 401.343 397.302 C 387.789 390.975 380.93 381.652 370.381 364.583 C 359.82 347.536 365.8 323.081 365.8 323.081 L 380.402 370.053 C 380.402 370.053 385.333 382.01 394.307 378.477 C 403.269 374.964 400.635 365.82 400.635 365.82 L 384.355 311.283 C 384.355 311.283 384.345 311.263 384.324 311.163 C 386.111 310.705 387.927 310.185 389.763 309.626 L 416.643 399.077 C 416.643 399.077 420.416 410.158 429.748 406.983 C 439.061 403.83 436.166 394.128 436.166 394.128 L 408.837 302.599 C 410.395 301.941 411.951 301.222 413.518 300.485 C 413.539 300.525 413.549 300.563 413.549 300.563 L 439.321 383.588 C 439.321 383.588 443.354 394.807 452.337 391.672 C 462.389 388.179 459.204 378.658 459.204 378.658 L 432.026 290.362 C 432.026 290.362 432.016 290.362 432.016 290.343 C 433.75 289.245 435.498 288.146 437.235 286.97 C 437.755 287.508 437.905 288.108 437.905 288.108 L 458.535 355.001 C 458.535 355.001 461.729 364.505 471.591 361.23 C 479.072 358.779 477.534 349.855 477.534 349.855 Z  M 202.771 351.392 C 202.771 351.392 201.135 356.742 198.05 355.265 C 194.996 353.788 197.281 349.376 197.281 349.376 C 197.281 349.376 221.026 288.291 223.402 282.343 C 225.088 283.58 226.796 284.778 228.473 285.935 L 202.771 351.392 Z  M 221.786 380.299 C 221.786 380.299 220.268 385.689 217.175 384.291 C 214.071 382.913 216.247 378.442 216.247 378.442 C 216.247 378.442 241.778 307.754 245.881 296.515 C 247.707 297.473 249.524 298.411 251.31 299.29 L 221.786 380.299 Z  M 244.303 396.707 C 244.303 396.707 242.856 402.117 239.752 400.739 C 236.637 399.401 238.753 394.909 238.753 394.909 C 238.753 394.909 264.745 320.409 269.476 306.954 C 271.403 307.632 273.328 308.29 275.215 308.89 L 244.303 396.707 Z  M 284.737 367.621 C 284.737 367.621 283.54 373.071 280.356 371.853 C 277.192 370.616 279.128 366.064 279.128 366.064 C 279.128 366.064 291.504 324.582 294.78 313.763 C 296.855 314.161 298.861 314.481 300.808 314.761 L 284.737 367.621 Z  M 329.603 212.792 C 327.107 212.672 324.851 210.157 324.851 210.157 C 324.851 210.157 326.179 207.661 329.483 207.781 C 332.778 207.92 334.235 210.157 334.235 210.157 C 334.235 210.157 332.118 212.932 329.603 212.792 Z  M 393.064 366.185 C 393.064 366.185 394.99 370.757 391.836 371.995 C 388.661 373.191 387.445 367.762 387.445 367.762 L 371.155 315.7 C 371.155 315.7 370.786 315.041 371.353 314.042 C 373.071 313.743 374.838 313.385 376.664 313.005 C 377.704 316.178 393.064 366.185 393.064 366.185 Z  M 429.138 394.671 C 429.138 394.671 431.064 399.243 427.889 400.48 C 424.715 401.718 423.507 396.248 423.507 396.248 L 396.097 307.595 C 397.985 306.956 399.883 306.257 401.789 305.518 C 404.772 315.04 429.138 394.671 429.138 394.671 Z  M 451.803 378.842 C 451.803 378.842 453.74 383.413 450.585 384.65 C 447.421 385.888 446.184 380.419 446.184 380.419 L 420.371 297.054 C 422.168 296.117 423.965 295.118 425.781 294.1 C 427.57 299.709 451.803 378.842 451.803 378.842 Z  M 469.041 354.747 C 465.898 355.983 464.651 350.515 464.651 350.515 L 443.769 282.383 C 445.466 281.146 447.173 279.848 448.88 278.511 C 448.89 278.551 448.909 278.569 448.909 278.59 C 449.479 280.227 470.28 348.939 470.28 348.939 C 470.28 348.939 472.216 353.509 469.041 354.747 Z " fill="rgb(0,0,0)"/></g></g></svg>