<?xml version="1.0" encoding="UTF-8" standalone="no"?>
<!-- Generator: Adobe Illustrator 15.0.0, SVG Export Plug-In . SVG Version: 6.00 Build 0)  -->

<svg
   version="1.1"
   id="Ebene_1"
   x="0px"
   y="0px"
   width="1133.864"
   height="879.90802"
   viewBox="0 0 1133.864 879.90804"
   enable-background="new 0 0 470.551 402.52"
   xml:space="preserve"
   xmlns="http://www.w3.org/2000/svg"
   xmlns:svg="http://www.w3.org/2000/svg"><defs
   id="defs92" />
<g
   id="g87"
   transform="matrix(4,0,0,4,-374.172,-374.176)">
	<g
   id="Ringe_x5F_Schwarz_1_">
		<g
   id="Blau1_2_">
			<path
   fill="#0079c0"
   d="m 188.806,275.601 c -2.613,2.613 -5.832,4.622 -9.427,5.798 l -1.255,2.567 1.033,2.457 c 5.002,-1.296 9.472,-3.912 13.015,-7.456 l -0.602,-2.765 z"
   id="path2" />
			<path
   id="Blue_Ring_2_"
   fill="#0079c0"
   d="m 171.973,230.193 c -15.778,0 -28.571,12.791 -28.571,28.574 0,15.777 12.793,28.568 28.571,28.568 0.83,0 1.655,-0.036 2.469,-0.106 l 0.817,-2.272 -0.797,-2.512 c -0.818,0.085 -1.649,0.129 -2.489,0.129 -13.147,0 -23.808,-10.659 -23.808,-23.807 0,-13.153 10.66,-23.813 23.808,-23.813 l 1.569,-2.38 z" />
		</g>
		<g
   id="Grün1_2_">
			<path
   fill="#009036"
   d="m 281.655,268.121 c 3.517,3.516 5.938,8.127 6.709,13.278 l 2.225,1.95 2.691,-0.904 c -0.599,-6.887 -3.643,-13.075 -8.259,-17.691 l -2.829,0.536 z"
   id="path6" />
			<path
   fill="#009036"
   d="m 264.821,313.521 c 15.013,0 27.321,-11.576 28.481,-26.292 l -2.394,-1.588 -2.325,0.782 c -0.758,12.464 -11.106,22.339 -23.763,22.339 l -1.571,2.38 z"
   id="path8" />
		</g>
		<path
   id="Rot_2_"
   fill="#e42343"
   d="m 324.338,258.767 c 0,15.777 -12.79,28.568 -28.569,28.568 -14.931,0 -27.189,-11.458 -28.46,-26.059 l 2.614,-0.654 2.306,1.7 c 1.714,11.462 11.603,20.251 23.54,20.251 13.149,0 23.809,-10.659 23.809,-23.807 0,-13.153 -10.659,-23.813 -23.809,-23.813 -12.654,0 -23.001,9.875 -23.76,22.342 l -2.901,0.842 -1.815,-1.646 c 1.158,-14.72 13.466,-26.299 28.477,-26.299 15.778,0.001 28.568,12.792 28.568,28.575 z" />
		<g
   id="Schwarz1_2_">
			<path
   d="m 233.871,230.193 c -15.012,0 -27.318,11.579 -28.479,26.299 l 2.026,1.406 2.689,-0.602 c 0.759,-12.467 11.106,-22.342 23.763,-22.342 l 1.571,-2.38 z"
   id="path12" />
			<path
   d="m 217.036,275.601 c -3.515,-3.517 -5.937,-8.127 -6.709,-13.278 l -2.083,-1.7 -2.832,0.654 c 0.6,6.889 3.643,13.076 8.258,17.691 z"
   id="path14" />
		</g>
		<g
   id="Gelb_2_">
			<path
   fill="#f9b41d"
   d="m 200.43,261.277 -1.437,-2.512 1.458,-2.273 c 0.814,-0.069 1.638,-0.105 2.469,-0.105 14.934,0 27.189,11.458 28.459,26.059 l -2.419,0.721 -2.497,-1.767 c -1.716,-11.462 -11.603,-20.251 -23.543,-20.251 -0.84,-10e-4 -1.67,0.043 -2.49,0.128 z"
   id="path17" />
			<path
   fill="#f9b41d"
   d="m 231.402,287.229 c -1.16,14.716 -13.467,26.292 -28.481,26.292 -15.776,0 -28.568,-12.788 -28.568,-28.564 0,-13.297 9.083,-24.473 21.383,-27.66 l 0.792,2.219 -1.012,2.808 c -9.521,3.114 -16.4,12.07 -16.4,22.634 0,13.147 10.659,23.806 23.806,23.806 12.656,0 23.005,-9.875 23.765,-22.339 l 2.324,-0.6 z"
   id="path19" />
		</g>
		<g
   id="Schwarz2_2_">
			<path
   d="m 213.669,278.968 c 5.171,5.17 12.313,8.367 20.201,8.367 0.831,0 1.656,-0.036 2.47,-0.106 l 1.051,-2.275 -1.03,-2.509 c -0.819,0.085 -1.648,0.129 -2.49,0.129 -6.575,0 -12.526,-2.665 -16.835,-6.973 l -2.693,0.738 z"
   id="path22" />
			<path
   d="m 250.706,275.601 c -2.614,2.613 -5.831,4.622 -9.428,5.798 l -1.137,2.684 0.918,2.341 c 5.002,-1.296 9.471,-3.912 13.015,-7.456 l -0.323,-2.811 z"
   id="path24" />
		</g>
		<g
   id="Grün2_2_">
			<path
   fill="#009036"
   d="m 285.021,264.753 c -5.17,-5.17 -12.311,-8.367 -20.2,-8.367 -0.832,0 -1.657,0.036 -2.47,0.105 l -1.226,2.275 1.206,2.51 c 0.817,-0.085 1.649,-0.129 2.489,-0.129 6.574,0 12.526,2.664 16.834,6.973 z"
   id="path27" />
			<path
   fill="#009036"
   d="m 264.821,308.762 c -13.148,0 -23.807,-10.658 -23.807,-23.806 0,-10.563 6.88,-19.52 16.403,-22.634 l 1.125,-2.691 -0.908,-2.335 c -12.298,3.188 -21.382,14.363 -21.382,27.66 0,15.776 12.791,28.564 28.568,28.564 v -4.758 z"
   id="path29" />
		</g>
		<path
   id="Blau2_2_"
   fill="#0079c0"
   d="m 171.973,234.955 c 13.147,0 23.807,10.659 23.807,23.813 0,6.574 -2.666,12.525 -6.974,16.834 l 3.366,3.366 c 5.17,-5.17 8.368,-12.312 8.368,-20.2 0,-15.783 -12.791,-28.574 -28.567,-28.574 z" />
		<path
   id="Schwarz3_2_"
   d="m 254.074,278.967 c 5.17,-5.17 8.368,-12.312 8.368,-20.2 0,-15.783 -12.792,-28.574 -28.571,-28.574 v 4.762 c 13.149,0 23.808,10.659 23.808,23.813 0,6.574 -2.664,12.525 -6.973,16.834 z" />
	</g>
	<g
   id="Fahne_x5F_Schwarz_1_">
		<polygon
   fill="#f9b41d"
   points="374.172,199.843 374.172,211.572 280.629,211.572 275.394,205.708 280.629,199.843 "
   id="polygon35" />
		<polygon
   fill="#e42343"
   points="280.629,199.843 280.629,211.572 187.086,211.572 181.798,205.708 187.086,199.843 "
   id="polygon37" />
		<rect
   x="93.542999"
   y="199.843"
   width="93.542999"
   height="11.729"
   id="rect39" />
	</g>
	<g
   id="g85">
		<path
   d="m 366.822,135.086 c 7.094,4.232 10.187,11.528 10.187,18.372 0,13.475 -9.004,24.243 -29.046,24.243 H 303.791 V 95.114 h 44.688 c 20.433,0 27.306,11.573 27.306,22.799 -0.001,6.708 -3.993,14.11 -8.963,17.173 z m -18.398,30.686 c 10.991,0 15.892,-5.517 15.892,-12.321 0,-6.804 -4.623,-12.319 -15.337,-12.319 h -32.412 v 24.641 h 31.857 z m 0.416,-36.579 c 9.281,0 14.168,-4.281 14.168,-11.07 0,-7.296 -6.086,-11.071 -14.53,-11.071 h -31.911 v 22.142 h 32.273 z"
   id="path42" />
		<g
   id="g81">
			<path
   d="m 93.543,95.114 v 82.604 h 35.945 c 10.903,0 19.548,-2.501 26.226,-6.545 l -2.071,-6.018 -7.193,-2.97 c -4.466,2.291 -9.829,3.594 -15.971,3.594 h -24.16 V 107.05 l -4.544,-7.937 z"
   id="path44" />
			<path
   d="m 161.645,136.416 c 0,6.649 -1.96,12.786 -5.617,17.709 l 1.651,7.665 7.634,1.082 c 6.334,-7.728 9.106,-17.425 9.108,-26.456 l -6.389,-4.187 z"
   id="path46" />
			<linearGradient
   id="SVGID_1_"
   gradientUnits="userSpaceOnUse"
   x1="181.0146"
   y1="93.543503"
   x2="181.0146"
   y2="179.26421">
				<stop
   offset="0.1217"
   style="stop-color:#000000"
   id="stop48" />
				<stop
   offset="0.1563"
   style="stop-color:#1D0C0D"
   id="stop50" />
				<stop
   offset="0.1765"
   style="stop-color:#391418"
   id="stop52" />
				<stop
   offset="0.198"
   style="stop-color:#4E141A"
   id="stop54" />
				<stop
   offset="0.2249"
   style="stop-color:#6C1D26"
   id="stop56" />
				<stop
   offset="0.2772"
   style="stop-color:#A02636"
   id="stop58" />
				<stop
   offset="0.3209"
   style="stop-color:#C5273E"
   id="stop60" />
				<stop
   offset="0.3537"
   style="stop-color:#DC2542"
   id="stop62" />
				<stop
   offset="0.3719"
   style="stop-color:#E42343"
   id="stop64" />
				<stop
   offset="0.6437"
   style="stop-color:#E42343"
   id="stop66" />
				<stop
   offset="0.7125"
   style="stop-color:#EA613F"
   id="stop68" />
				<stop
   offset="0.7927"
   style="stop-color:#F3992A"
   id="stop70" />
				<stop
   offset="0.7992"
   style="stop-color:#F49D28"
   id="stop72" />
				<stop
   offset="0.8378"
   style="stop-color:#F9B41D"
   id="stop74" />
			</linearGradient>
			<path
   fill="url(#SVGID_1_)"
   d="m 224.284,136.402 c 0,23.673 -19.372,42.862 -43.27,42.862 -23.896,0 -43.269,-19.189 -43.269,-42.862 0,-23.67 19.372,-42.858 43.269,-42.858 23.898,-10e-4 43.27,19.188 43.27,42.858 z m -43.317,-30.903 c -16.832,0 -30.478,13.824 -30.478,30.876 0,17.055 13.646,30.879 30.478,30.879 16.834,0 30.479,-13.824 30.479,-30.879 0,-17.052 -13.645,-30.876 -30.479,-30.876 z"
   id="path77"
   style="fill:url(#SVGID_1_)" />
			<path
   d="M 174.421,136.416 C 174.419,117.265 161.953,95.114 129.488,95.114 H 93.543 l 12.775,11.938 h 24.16 c 19.516,0 31.166,13.15 31.166,29.364 z"
   id="path79" />
		</g>
		<path
   d="m 253.324,140.757 c -19.411,-1.128 -25.354,-11.801 -25.354,-22.844 0,-11.227 6.872,-22.8 27.305,-22.8 h 40.314 l -4.385,11.938 -35.93,0.001 c -8.755,0 -14.528,3.543 -14.528,10.86 0,6.488 4.563,10.005 13.171,10.541 l 14.831,0.976 c 19.663,1.132 26.965,10.142 26.965,24 0,13.475 -8.932,24.251 -29.172,24.251 h -43.066 l 4.385,-11.908 38.936,-0.021 c 11.613,0 16.1,-6.036 16.1,-12.321 0,-7.542 -4.953,-10.922 -14.837,-11.705 z"
   id="path83" />
	</g>
</g>
</svg>
