<?xml version="1.0" encoding="utf-8"?>
<!-- Generator: Adobe Illustrator 13.0.0, SVG Export Plug-In . SVG Version: 6.00 Build 14948)  -->
<!DOCTYPE svg PUBLIC "-//W3C//DTD SVG 1.1 Tiny//EN" "http://www.w3.org/Graphics/SVG/1.1/DTD/svg11-tiny.dtd">
<svg version="1.1" baseProfile="tiny" id="Ebene_1" xmlns="http://www.w3.org/2000/svg" xmlns:xlink="http://www.w3.org/1999/xlink"
	 x="0px" y="0px" width="425.193px" height="229.604px" viewBox="0 0 425.193 229.604" xml:space="preserve">
<g>
	<path fill-rule="evenodd" fill="#006AB2" d="M47.309,79.723H31.412v67.084h15.896c17.815,0,35.294-7.635,35.294-33.715
		C82.603,88.301,66.073,79.723,47.309,79.723L47.309,79.723z M52.72,60.891c33.076,0,56.604,18.832,56.602,52.201
		c-0.006,39.439-29.569,52.799-56.602,52.799H5.361v-105H52.72L52.72,60.891z"/>
	<path fill="#006AB2" d="M47.309,79.723H31.412v67.084h15.896c17.815,0,35.294-7.635,35.294-33.715
		C82.603,88.301,66.073,79.723,47.309,79.723L47.309,79.723z M52.72,60.891c33.076,0,56.604,18.832,56.602,52.201
		c-0.006,39.439-29.569,52.799-56.602,52.799H5.361v-105H52.72L52.72,60.891z"/>
	<polygon fill="#006AB2" points="256.806,165.891 268.994,165.891 316.314,60.891 288.494,60.891 262.496,119.988 235.069,60.891 
		206.021,60.891 256.806,165.891 	"/>
	<path fill-rule="evenodd" fill="#006AB2" d="M162.759,79.723h-13.403v24.018h13.403c10.564,0,14.83-4.061,14.83-12.393
		C177.589,85.266,173.323,79.723,162.759,79.723L162.759,79.723z M157.579,123.035h-8.224v42.855h-26.048v-105h46.362
		c26.61,0,34.723,17.057,34.729,30.451c0.006,12.398-6.091,19.705-17.461,25.189c8.121,6.504,8.326,6.504,13.406,17.877
		l14.411,31.482h-27.817l-9.349-19.084l-8.936-17.473C167.027,126.691,165.196,123.035,157.579,123.035L157.579,123.035z"/>
	<path fill="#006AB2" d="M162.759,79.723h-13.403v24.018h13.403c10.564,0,14.83-4.061,14.83-12.393
		C177.589,85.266,173.323,79.723,162.759,79.723L162.759,79.723z M157.579,123.035h-8.224v42.855h-26.048v-105h46.362
		c26.61,0,34.723,17.057,34.729,30.451c0.006,12.398-6.091,19.705-17.461,25.189c8.121,6.504,8.326,6.504,13.406,17.877
		l14.411,31.482h-27.817l-9.349-19.084l-8.936-17.473C167.027,126.691,165.196,123.035,157.579,123.035L157.579,123.035z"/>
	<path fill="#006AB2" d="M411.517,59.561h7.219C379.208,141.656,257.925,262.503,0,221.262l5.985-5.613
		C273.845,248.745,380.076,114.094,411.517,59.561L411.517,59.561z"/>
	<g>
		<path fill="#006AB2" d="M10.963,29.15c-2.78,0-5.203-0.117-7.462-0.193V2.221c2.104-0.076,5.358-0.193,8.654-0.193
			c8.3,0,13.585,3.691,13.585,13.102C25.74,24.305,19.705,29.15,10.963,29.15z M11.798,6.352c-1.189,0-2.303,0.041-3.135,0.123
			v18.07c0.712,0.117,1.787,0.193,2.821,0.193c5.042,0,8.692-2.854,8.692-9.205C20.177,9.768,17.915,6.352,11.798,6.352z"/>
		<path fill="#006AB2" d="M45.914,20.016H33.721c-0.041,3.656,1.629,5.408,5.443,5.408c1.866,0,3.853-0.398,5.719-1.154l0.554,3.85
			c-2.142,0.797-4.723,1.271-7.148,1.271c-6.231,0-9.729-3.135-9.729-10.09c0-5.912,3.498-10.441,9.375-10.441
			c5.757,0,8.18,3.691,8.18,8.385C46.113,17.988,46.072,19.143,45.914,20.016z M37.652,12.586c-2.104,0-3.571,1.594-3.853,4.055
			h7.271C41.15,14.057,39.797,12.586,37.652,12.586z"/>
		<path fill="#006AB2" d="M62.754,28.992c0-0.914,0.041-2.502,0.237-3.533h-0.038c-1.192,2.309-3.454,3.932-6.712,3.932
			c-4.447,0-5.877-2.818-5.877-6.27V9.258h5.045v12.627c0,2.021,0.551,3.258,2.461,3.258c2.584,0,4.567-2.9,4.567-6.352V9.258h5.083
			v19.734H62.754z"/>
		<path fill="#006AB2" d="M79.635,29.391c-4.371,0-5.719-1.582-5.719-6.193V13.189h-3.419V9.258h3.419V3.182l5.042-1.359v7.436
			h4.808v3.932h-4.808v8.654c0,2.543,0.595,3.264,2.344,3.264c0.832,0,1.588-0.082,2.262-0.287l0.357,4.014
			C82.649,29.15,81.023,29.391,79.635,29.391z"/>
		<path fill="#006AB2" d="M91.465,29.391c-1.544,0-3.135-0.158-4.403-0.516l0.354-4.248c1.192,0.516,2.742,0.797,4.21,0.797
			c1.907,0,3.179-0.844,3.179-2.15c0-3.492-8.024-1.43-8.024-8.145c0-3.492,2.66-6.311,8.382-6.311c1.11,0,2.461,0.158,3.571,0.398
			l-0.234,3.973c-1.078-0.316-2.344-0.521-3.577-0.521c-1.983,0-2.895,0.797-2.895,2.027c0,3.34,8.139,1.664,8.139,8.139
			C100.166,26.771,96.709,29.391,91.465,29.391z"/>
		<path fill="#006AB2" d="M111.961,29.35c-5.479,0-8.897-2.859-8.897-9.568c0-6.152,3.22-10.887,10.052-10.887
			c1.506,0,3.056,0.246,4.327,0.686l-0.794,4.359c-1.072-0.434-2.382-0.75-3.694-0.75c-3.018,0-4.567,2.42-4.567,6.076
			c0,3.375,1.23,5.713,4.608,5.713c1.348,0,2.701-0.275,3.853-0.791l0.677,4.248C115.972,29.033,113.868,29.35,111.961,29.35z"/>
		<path fill="#006AB2" d="M133.444,28.992V16.359c0-2.021-0.554-3.252-2.461-3.252c-2.54,0-4.564,2.9-4.564,6.398v9.486h-5.086V0
			h5.086v8.502c0,1.189-0.082,2.824-0.36,4.008h0.079c1.151-2.186,3.416-3.65,6.475-3.65c4.45,0,5.877,2.813,5.877,6.27v13.863
			H133.444z"/>
		<path fill="#006AB2" d="M159.976,20.016h-12.193c-0.041,3.656,1.629,5.408,5.443,5.408c1.866,0,3.853-0.398,5.716-1.154l0.56,3.85
			c-2.145,0.797-4.726,1.271-7.148,1.271c-6.234,0-9.732-3.135-9.732-10.09c0-5.912,3.498-10.441,9.372-10.441
			c5.76,0,8.183,3.691,8.183,8.385C160.175,17.988,160.134,19.143,159.976,20.016z M151.714,12.586c-2.104,0-3.571,1.594-3.85,4.055
			h7.269C155.209,14.057,153.861,12.586,151.714,12.586z"/>
		<path fill="#006AB2" d="M174.987,13.816c-3.653-0.709-5.479,1.635-5.479,7.113v8.063h-5.083V9.258h4.805
			c0,0.99-0.12,2.578-0.36,3.973h0.082c0.952-2.502,2.862-4.693,6.275-4.371L174.987,13.816z"/>
		<path fill="#006AB2" d="M200.048,28.992l-7.225-11.086h-0.439v11.086h-5.165V2.186c2.106-0.117,4.608-0.158,7.708-0.158
			c5.915,0,9.729,2.063,9.729,7.553c0,3.967-2.862,6.826-6.595,7.465c0.759,0.99,1.512,1.98,2.147,2.93l6.234,9.018H200.048z
			 M194.408,6.234c-0.75,0-1.506,0.041-2.024,0.117v7.746c0.357,0.041,1.072,0.082,1.866,0.082c3.094,0,5.004-1.594,5.004-4.09
			C199.254,7.506,197.666,6.234,194.408,6.234z"/>
		<path fill="#006AB2" d="M221.575,28.992c0-0.914,0.041-2.502,0.237-3.533h-0.041c-1.187,2.309-3.451,3.932-6.712,3.932
			c-4.444,0-5.874-2.818-5.874-6.27V9.258h5.042v12.627c0,2.021,0.557,3.258,2.461,3.258c2.584,0,4.57-2.9,4.57-6.352V9.258h5.083
			v19.734H221.575z"/>
		<path fill="#006AB2" d="M243.735,28.992c0-0.955,0.079-2.221,0.243-3.293h-0.079c-1.037,2.191-3.22,3.732-6.24,3.732
			c-4.802,0-7.187-3.615-7.187-9.258c0-6.668,3.894-11.279,10.441-11.279c0.838,0,1.632,0.047,2.505,0.164V0h5.042v28.992H243.735z
			 M243.419,13.23c-0.914-0.199-1.79-0.322-2.663-0.322c-2.897,0-4.96,1.822-4.96,6.715c0,3.691,1.072,5.596,3.369,5.596
			c2.666,0,4.254-3.1,4.254-6.475V13.23z"/>
		<path fill="#006AB2" d="M269.949,20.016h-12.193c-0.035,3.656,1.629,5.408,5.443,5.408c1.863,0,3.85-0.398,5.719-1.154l0.557,3.85
			c-2.145,0.797-4.729,1.271-7.148,1.271c-6.234,0-9.732-3.135-9.732-10.09c0-5.912,3.498-10.441,9.375-10.441
			c5.754,0,8.18,3.691,8.18,8.385C270.148,17.988,270.107,19.143,269.949,20.016z M261.687,12.586c-2.109,0-3.574,1.594-3.855,4.055
			h7.271C265.185,14.057,263.832,12.586,261.687,12.586z"/>
		<path fill="#006AB2" d="M284.96,13.816c-3.656-0.709-5.479,1.635-5.479,7.113v8.063h-5.086V9.258h4.811
			c0,0.99-0.123,2.578-0.363,3.973h0.076c0.961-2.502,2.865-4.693,6.275-4.371L284.96,13.816z"/>
		<path fill="#006AB2" d="M298.818,28.992h-5.156l-7.313-19.734h5.566l3.129,8.854c0.439,1.43,0.955,3.018,1.313,4.406h0.082
			c0.316-1.348,0.75-2.854,1.189-4.213l3.182-9.047h5.402L298.818,28.992z"/>
		<path fill="#006AB2" d="M324.318,20.016h-12.193c-0.041,3.656,1.629,5.408,5.443,5.408c1.863,0,3.855-0.398,5.719-1.154
			l0.557,3.85c-2.145,0.797-4.729,1.271-7.154,1.271c-6.223,0-9.727-3.135-9.727-10.09c0-5.912,3.504-10.441,9.375-10.441
			c5.754,0,8.18,3.691,8.18,8.385C324.517,17.988,324.476,19.143,324.318,20.016z M316.056,12.586c-2.098,0-3.574,1.594-3.85,4.055
			h7.26C319.56,14.057,318.201,12.586,316.056,12.586z"/>
		<path fill="#006AB2" d="M339.33,13.816c-3.65-0.709-5.479,1.635-5.479,7.113v8.063h-5.08V9.258h4.805
			c0,0.99-0.123,2.578-0.363,3.973h0.082c0.949-2.502,2.859-4.693,6.27-4.371L339.33,13.816z"/>
		<path fill="#006AB2" d="M350.216,29.391c-2.859,0-5.086-0.322-7.348-0.955V0h5.08v8.502c0,1.189-0.123,2.824-0.322,3.844h0.041
			c0.99-2.139,3.223-3.486,5.959-3.486c4.734,0,7.266,3.41,7.266,9.252C360.892,24.785,357.007,29.391,350.216,29.391z
			 M352.203,13.066c-2.666,0-4.254,3.053-4.254,6.357v5.555c0.709,0.24,1.547,0.363,2.666,0.363c2.854,0,4.957-1.828,4.957-6.715
			C355.572,14.936,354.494,13.066,352.203,13.066z"/>
		<path fill="#006AB2" d="M375.634,28.992c0-1.148,0.035-2.303,0.193-3.334l-0.041-0.035c-0.949,2.221-3.375,3.768-6.311,3.768
			c-3.58,0-5.643-2.426-5.643-5.643c0-4.682,4.488-6.908,11.402-6.908v-0.996c0-2.063-0.996-3.129-3.855-3.129
			c-1.787,0-3.973,0.592-5.561,1.383l-0.92-4.008c1.992-0.75,4.77-1.271,7.354-1.271c6.275,0,8.063,2.543,8.063,6.715v8.373
			c0,1.594,0.041,3.463,0.158,5.086H375.634z M375.236,20.133c-5.168,0-6.563,1.359-6.563,3.064c0,1.266,0.879,2.303,2.35,2.303
			c2.502,0,4.213-2.379,4.213-4.764V20.133z"/>
		<path fill="#006AB2" d="M397.994,28.992V16.359c0-2.021-0.563-3.252-2.467-3.252c-2.543,0-4.564,2.9-4.564,6.357v9.527h-5.086
			V9.258h4.805c0,0.914-0.082,2.496-0.281,3.533h0.047c1.189-2.303,3.492-3.932,6.715-3.932c4.441,0,5.871,2.813,5.871,6.27v13.863
			H397.994z"/>
		<path fill="#006AB2" d="M420.47,28.992c0-0.955,0.082-2.221,0.234-3.293h-0.082c-1.031,2.191-3.211,3.732-6.229,3.732
			c-4.811,0-7.189-3.615-7.189-9.258c0-6.668,3.891-11.279,10.441-11.279c0.838,0,1.629,0.047,2.508,0.164V0h5.039v28.992H420.47z
			 M420.154,13.23c-0.914-0.199-1.787-0.322-2.66-0.322c-2.9,0-4.969,1.822-4.969,6.715c0,3.691,1.072,5.596,3.375,5.596
			c2.66,0,4.254-3.1,4.254-6.475V13.23z"/>
	</g>
</g>
</svg>
