<?xml version="1.0" encoding="utf-8"?>
<!-- Generator: Adobe Illustrator 13.0.0, SVG Export Plug-In . SVG Version: 6.00 Build 14948)  -->
<!DOCTYPE svg PUBLIC "-//W3C//DTD SVG 1.1 Tiny//EN" "http://www.w3.org/Graphics/SVG/1.1/DTD/svg11-tiny.dtd">
<svg version="1.1" baseProfile="tiny" id="Ebene_1" xmlns="http://www.w3.org/2000/svg" xmlns:xlink="http://www.w3.org/1999/xlink"
	 x="0px" y="0px" width="419px" height="170.2px" viewBox="0 59.5 419 170.2" xml:space="preserve">
<g>
	<path fill-rule="evenodd" fill="#006AB2" d="M47.309,79.723H31.412v67.084h15.896c17.815,0,35.294-7.635,35.294-33.715
		C82.603,88.301,66.073,79.723,47.309,79.723L47.309,79.723z M52.72,60.891c33.076,0,56.604,18.832,56.602,52.201
		c-0.006,39.439-29.569,52.799-56.602,52.799H5.361v-105H52.72L52.72,60.891z"/>
	<path fill="#006AB2" d="M47.309,79.723H31.412v67.084h15.896c17.815,0,35.294-7.635,35.294-33.715
		C82.603,88.301,66.073,79.723,47.309,79.723L47.309,79.723z M52.72,60.891c33.076,0,56.604,18.832,56.602,52.201
		c-0.006,39.439-29.569,52.799-56.602,52.799H5.361v-105H52.72L52.72,60.891z"/>
	<polygon fill="#006AB2" points="256.806,165.891 268.994,165.891 316.314,60.891 288.494,60.891 262.496,119.988 235.069,60.891
		206.021,60.891 256.806,165.891 	"/>
	<path fill-rule="evenodd" fill="#006AB2" d="M162.759,79.723h-13.403v24.018h13.403c10.564,0,14.83-4.061,14.83-12.393
		C177.589,85.266,173.323,79.723,162.759,79.723L162.759,79.723z M157.579,123.035h-8.224v42.855h-26.048v-105h46.362
		c26.61,0,34.723,17.057,34.729,30.451c0.006,12.398-6.091,19.705-17.461,25.189c8.121,6.504,8.326,6.504,13.406,17.877
		l14.411,31.482h-27.817l-9.349-19.084l-8.936-17.473C167.027,126.691,165.196,123.035,157.579,123.035L157.579,123.035z"/>
	<path fill="#006AB2" d="M162.759,79.723h-13.403v24.018h13.403c10.564,0,14.83-4.061,14.83-12.393
		C177.589,85.266,173.323,79.723,162.759,79.723L162.759,79.723z M157.579,123.035h-8.224v42.855h-26.048v-105h46.362
		c26.61,0,34.723,17.057,34.729,30.451c0.006,12.398-6.091,19.705-17.461,25.189c8.121,6.504,8.326,6.504,13.406,17.877
		l14.411,31.482h-27.817l-9.349-19.084l-8.936-17.473C167.027,126.691,165.196,123.035,157.579,123.035L157.579,123.035z"/>
	<path fill="#006AB2" d="M411.517,59.561h7.219C379.208,141.656,257.925,262.503,0,221.262l5.985-5.613
		C273.845,248.745,380.076,114.094,411.517,59.561L411.517,59.561z"/>
</g>
</svg>
