<?xml version="1.0" encoding="utf-8"?>
<svg version="1.1" id="Layer_1" xmlns="http://www.w3.org/2000/svg" x="0px" y="0px" viewBox="0 0 263.108 76.813" style="enable-background:new 0 0 407.52 187.44;">
  <defs>
    <view id="view-1">
      <title>View 1</title>
    </view>
  </defs>
  <style type="text/css">
	.st0{fill:#072543;}
	.st1{fill:#FFB000;}
</style>
  <g transform="matrix(1, 0, 0, 1, -72.191231, -57.529881)">
    <g>
      <path class="st0" d="M72.38,60.23h40.85v10.66h-27V82.5h23.82v10.84H86.22v11.61h27v10.66H72.38V60.23z"/>
      <path class="st0" d="M120.28,74.85h12.9l0.43,3.53c1.78-1.26,3.94-2.31,6.49-3.14c2.55-0.83,5.17-1.25,7.87-1.25 c5.22,0,9.04,1.26,11.48,3.78c2.44,2.52,3.65,6.42,3.65,11.7v26.14h-13.85V90.59c0-2.29-0.5-3.93-1.51-4.9 c-1-0.97-2.74-1.46-5.2-1.46c-1.49,0-3.01,0.34-4.56,1.03c-1.55,0.69-2.84,1.55-3.87,2.58v27.78h-13.85V74.85z"/>
      <path class="st0" d="M171.88,74.85h12.04l0.69,3.53c3.55-2.92,7.83-4.39,12.81-4.39c12.56,0,18.83,6.79,18.83,20.38 c0,7.22-1.72,12.71-5.16,16.47c-3.44,3.76-8.23,5.63-14.36,5.63c-4.3,0-7.97-0.89-11.01-2.67v20.38h-13.85V74.85z M199.87,103.23 c1.52-2.06,2.28-5.1,2.28-9.12c0-3.78-0.67-6.39-2.02-7.83c-1.35-1.43-3.57-2.15-6.67-2.15c-2.92,0-5.5,1.03-7.74,3.1v16.51 c1.15,0.86,2.28,1.5,3.4,1.94c1.12,0.43,2.48,0.64,4.08,0.64C196.13,106.33,198.35,105.29,199.87,103.23z"/>
      <path class="st0" d="M226.1,113.16c-2.72-2.21-4.08-5.38-4.08-9.5c0-4.24,1.45-7.54,4.34-9.89c2.89-2.35,7.12-3.53,12.69-3.53 h11.35V89.3c0-2.12-0.7-3.61-2.11-4.47c-1.41-0.86-3.97-1.29-7.7-1.29c-4.64,0-9.2,0.72-13.67,2.15v-8.94 c2.06-0.8,4.56-1.46,7.48-1.98c2.92-0.52,5.93-0.77,9.03-0.77c6.48,0,11.47,1.32,14.96,3.96c3.5,2.64,5.25,6.71,5.25,12.21v25.46 h-12.13l-0.69-3.44c-3.15,2.87-7.94,4.3-14.36,4.3C232.27,116.47,228.82,115.37,226.1,113.16z M250.39,104v-5.76h-9.8 c-2.06,0-3.6,0.4-4.6,1.2c-1,0.8-1.5,2.04-1.5,3.7c0,3.21,2.12,4.82,6.36,4.82C244.97,107.96,248.16,106.64,250.39,104z"/>
      <path class="st0" d="M275.62,113.55c-1.95-1.95-2.92-5.07-2.92-9.37V57.65h13.85v45.15c0,1.32,0.26,2.22,0.77,2.71 c0.52,0.49,1.35,0.73,2.49,0.73c1.55,0,2.92-0.2,4.13-0.6v9.37c-1.38,0.52-2.71,0.89-4,1.12c-1.29,0.23-2.85,0.34-4.69,0.34 C280.78,116.47,277.56,115.5,275.62,113.55z"/>
      <circle class="st1" cx="324.69" cy="107.69" r="10.46"/>
    </g>
  </g>
</svg>