<svg xmlns="http://www.w3.org/2000/svg" xml:space="preserve" width="808.91248" height="268.26743" x="0px" y="0px" viewBox="0 0 808.91248 268.26743"><g fill-rule="evenodd" clip-rule="evenodd"><path fill="#006eac" d="M434.157 73.92h-7.028l-1.326-7.439c-.543-3.084-1.136-6.425-1.251-8.045h-.028c-.078 1.293-.644 4.704-1.252 8.045l-1.362 7.438h-7.185l-6.218-25.628h6.959l1.44 6.904c1.216 5.795 1.437 8.276 1.455 9.229h.05c.148-2.053.59-5.261 1.303-9.035l1.303-7.098h7.323l1.652 8.566c.368 1.938.888 4.4 1.04 7.548h.019c.174-2.278.934-7.253 1.454-9.757l1.28-6.357h7.023zM455.808 69.183c-2.715 0-4.317-1.616-4.317-8.165 0-4.888 1.275-8.018 4.24-8.018 2.83 0 4.09 1.537 4.09 7.944 0 6.568-1.2 8.239-4.013 8.239zm-.1 5.183c9.168 0 11.487-6.895 11.487-14.25 0-5.606-2.563-12.271-11.262-12.271-6.785 0-11.756 4.778-11.756 13.905 0 7.7 4.088 12.616 11.53 12.616zM480.654 53.695c2.066 0 3.074.584 3.074 2.43 0 1.722-.787 2.78-3 2.78h-1.897v-5.21zm11.483 20.224c-.837-1.92-3.005-6.66-3.848-8.39-.64-1.322-1.703-2.495-2.586-2.762 3.028-.506 5.343-2.753 5.343-7.167 0-4.262-2.43-7.313-9.955-7.313h-8.851v25.628h6.586V63.77c1.45 0 2.02.318 3.029 2.969l2.693 7.176h7.59zM511.547 73.92h-14.098V48.295h6.65v20.187h9.491zM530.892 60.424c0 7.088-1.478 8.018-3.3 8.018h-2.219V53.695h2.016c1.998 0 3.503.764 3.503 6.73zm7.245.226c0-5.215-1.275-8.764-4.189-10.766-2.066-1.436-4.331-1.588-6.112-1.588h-9.045v25.628h9.293c3.452 0 5.524-1.128 7.125-3.089 2.338-2.775 2.928-6.222 2.928-10.185zM562.922 74.366c-3.167 0-6.048-.962-8.39-3.535-2.021-2.251-2.937-5.579-2.937-9.233 0-3.208.52-5.62 1.781-7.95 2.14-4.003 5.868-5.798 10.36-5.798 2.592 0 5.363.74 6.546 1.868l-2.79 4.87c-1.16-.893-2.448-1.386-3.843-1.386-1.118 0-2.204.304-2.858 1.013-1.247 1.284-1.648 2.6-1.648 5.61 0 4.221.175 6.256 1.234 7.517.865.98 1.919 1.61 3.277 1.61 1.666 0 2.982-.409 4.4-1.693l2.844 4.506c-1.61 1.491-4.234 2.6-7.976 2.6zM594.878 66.003c0 2.209-.078 3.212-.64 4.23-1.053 2.144-3.93 4.128-8.993 4.128-4.041 0-6.835-1.11-8.39-3.203-.949-1.395-1.234-2.03-1.234-5.45V48.29h6.61v16.722c0 2.352.722 3.94 3.05 3.94 2.344 0 3.034-1.321 3.034-3.82V48.29h6.563zM610.127 53.695c1.579 0 2.651.396 2.651 2.54 0 2.799-.975 3.351-3.01 3.351h-1.915v-5.891zm9.804 2.568c0-5.845-3.802-7.967-10.32-7.967h-8.353v25.628h6.595v-9.127h2.053c8.382-.005 10.025-4.741 10.025-8.534zM326.721 53.897h9.496l2.099-5.56h-19.704V73.92h8.11v-9.242h5.606l2.204-5.579h-7.81zM348.916 48.337h-7.954l-.041 25.582h7.995zM379.418 48.337l-9.21 25.587h7.737l.985-3.457h9.016l1.036 3.457h7.972l-9.242-25.587zm.925 17.22 3.093-10.642 3.203 10.641zM362.71 73.92v-9.243h5.62l2.172-5.579h-7.792v-5.2h9.518l2.071-5.56h-19.671v25.581z"/><path fill="#56bb68" d="M418.83 93.03c-16.238 0-29.425 13.19-29.425 29.406 0 16.215 13.183 29.43 29.425 29.43h29.545v-.272c0-5.404-4.359-9.79-9.758-9.79H418.83a19.308 19.308 0 0 1-18.71-14.365H429.1c5.394 0 9.794-4.377 9.794-9.758v-.257H400.12a19.315 19.315 0 0 1 18.71-14.356h19.787c5.4 0 9.758-4.382 9.758-9.767v-.276H418.83zM342.476 93.03c-16.233 0-29.43 13.19-29.43 29.406 0 16.215 13.197 29.43 29.43 29.43h9.537c16.206 0 29.416-13.21 29.416-29.43a30.52 30.52 0 0 0-.391-4.791l-.05-.221h-48.881v.257c0 5.381 4.395 9.758 9.762 9.758h28.813c-2.27 8.483-9.887 14.365-18.673 14.365h-9.537c-10.697 0-19.373-8.671-19.373-19.368 0-10.683 8.676-19.368 19.373-19.368h19.75c5.427 0 9.794-4.382 9.794-9.767v-.276h-29.54zM565.384 102.833c-4.731-6.232-11.856-9.804-19.616-9.804-13.61 0-24.67 11.07-24.67 24.675v34.157h.248c5.422 0 9.836-4.4 9.836-9.785v-24.372c0-8.05 6.554-14.59 14.59-14.59 7.912 0 14.462 6.435 14.586 14.347v34.405h.276c5.395 0 9.781-4.4 9.781-9.786v-24.629c.175-7.898 6.734-14.337 14.618-14.337 8.06 0 14.59 6.545 14.59 14.59v24.372c0 5.385 4.415 9.785 9.837 9.785h.253v-34.157c0-13.605-11.07-24.675-24.675-24.675-7.802 0-14.922 3.577-19.654 9.804zM691.71 122.436v29.43h.216c5.404 0 9.79-4.4 9.79-9.786v-19.644c0-10.655 8.694-19.322 19.368-19.322 10.692 0 19.4 8.667 19.4 19.322v19.644c0 5.385 4.36 9.786 9.753 9.786h.3v-29.43c0-16.21-13.242-29.407-29.453-29.407-16.192 0-29.374 13.192-29.374 29.407zM621.307 122.436v29.43h.29c5.348 0 9.762-4.4 9.762-9.786v-10.029h38.737v10.03c0 5.384 4.363 9.785 9.762 9.785h.276v-29.43c0-16.21-13.214-29.407-29.407-29.407-16.215 0-29.42 13.192-29.42 29.407zm29.425-19.322c10.623 0 19.253 8.58 19.368 19.138h-38.736c.097-10.563 8.745-19.138 19.368-19.138zM749.294 95.902l-.198.188s24.744 24.73 24.914 24.864v30.907h.276c5.372 0 9.754-4.4 9.754-9.785v-21.122c.124-.134 24.872-24.864 24.872-24.864l-.202-.188c-3.816-3.775-10.002-3.775-13.804 0 0 0-15.547 15.543-15.893 15.902-.39-.355-15.897-15.902-15.897-15.902-3.816-3.775-10.002-3.775-13.822 0zM489.979 129.133c-.493-.483-.889-.796-1.234-1.077.686.078 1.625.129 3.006.129h.248c9.56 0 17.62-8.147 17.62-17.785 0-9.587-7.765-17.366-17.33-17.366h-34.842v58.832h.244c5.376 0 9.758-4.4 9.758-9.786v-21.766c.865.842 27.51 27.023 27.51 27.023 4.92 4.943 13.504 4.906 13.872 4.906h4.336zm2.315-26.35c4.12 0 7.622 3.626 7.622 7.92 0 4.217-4.244 8.52-8.41 8.52H467.45v-16.436c.524-.004 24.845-.004 24.845-.004zM406.187 169.899c-13.716 0-24.85 11.396-24.85 25.374 0 13.993 11.134 25.357 24.85 25.357h10.76c13.694 0 24.865-11.364 24.865-25.357 0-13.978-11.176-25.374-24.864-25.374zm-15.143 25.374c0-8.455 6.927-15.616 15.143-15.616h10.76c8.184 0 15.111 7.161 15.111 15.616 0 8.47-6.927 15.594-15.11 15.594h-10.761c-8.216 0-15.143-7.125-15.143-15.594zM474.343 169.899c-13.716 0-24.877 11.396-24.877 25.374 0 13.993 11.161 25.357 24.877 25.357h10.734c13.711 0 24.873-11.364 24.873-25.357 0-13.734-11.383-25.374-24.873-25.374zm-15.12 25.374c0-8.455 6.905-15.616 15.116-15.616h10.733c8.22 0 15.134 7.161 15.134 15.616 0 8.47-6.913 15.594-15.134 15.594H474.34c-8.211 0-15.115-7.125-15.115-15.594zM542.845 169.899c-13.716 0-24.877 11.396-24.877 25.374 0 13.993 11.161 25.357 24.877 25.357h20.772c8.036 0 14.84-7.038 14.84-15.378 0-8.188-6.661-14.862-14.84-14.862h-35.095c2.163-6.356 7.958-10.733 14.323-10.733h22.305c5.187 0 9.375-4.198 9.375-9.39v-.368zm20.772 30.207c2.826 0 5.086 2.31 5.086 5.146 0 2.955-2.412 5.615-5.086 5.615h-20.772c-6.37 0-12.188-4.409-14.323-10.76h35.095zM321.456 169.899v.368c0 5.192 4.216 9.39 9.385 9.39h28.196c2.96 0 5.371 2.42 5.371 5.38 0 2.932-2.412 5.353-5.371 5.353h-25.31c-8.331 0-15.12 6.766-15.12 15.101v15.134h55.554v-.373c0-5.169-4.23-9.39-9.394-9.39H328.37v-5.37c0-2.974 2.403-5.39 5.358-5.39h25.31c8.345 0 15.124-6.766 15.124-15.065 0-8.33-6.78-15.138-15.124-15.138z"/><path d="m269.377 207.59-1.308-.096c-.013.635-.193 1.049-.51 1.422-.456.538-1.04.74-1.703.612-.52-.097-1.04-.437-1.897-1.128-.713-.612-1.155-1.15-1.307-1.68-.156-.506-.014-1.09.345-1.514.281-.34.672-.57 1.156-.704l-.382-1.261c-.562.092-1.29.538-1.832 1.155a3.377 3.377 0 0 0-.557 3.6c.304.727.842 1.376 1.648 2.03.915.763 1.873 1.118 2.858 1.108 1.003-.027 1.864-.478 2.605-1.325.63-.723.874-1.39.884-2.219zm.395-5.988c-3.166-2.577-7.75-2.117-10.31.98-2.513 3.117-2.135 7.669.967 10.25 3.185 2.72 7.76 2.187 10.32-.929 2.508-3.033 2.144-7.567-.977-10.3zm-1.054 1.404c2.495 2.057 2.914 5.647.944 8.009-2.025 2.365-5.615 2.6-8.151.529-2.509-2.057-2.91-5.597-.949-7.963 2.04-2.508 5.607-2.789 8.156-.575zM282.586 188.788l-1.758 3.733c-.3.617-.672 1.487-.75 1.735-.014-.294-.36-1.242-.681-2.145-.396-1.021-.741-2.177-1.096-2.954-.713-1.598-1.652-2.85-2.784-3.402-1.984-.93-4.055-.235-5.017 1.708-.769 1.565-.815 3.281-.322 5.104l1.615-.423c-.037-.037-.037-.148-.037-.157-.271-1.44-.23-2.333.148-3.097.483-.972 1.477-1.432 2.78-.824 1.035.492 2.006 1.638 3.051 4.427.608 1.45 1.201 3.172 1.445 4.152l1.308.612 3.484-7.221zM282.471 174.893c-1.399-.442-2.95-.663-4.271-.474-1.45.23-2.969.99-3.562 2.775-.834 2.614 1.256 5.312 4.975 6.5 2.48.786 4.593.662 5.997-.065.912-.479 1.515-1.174 1.837-2.173.833-2.596-1.15-5.325-4.976-6.563zm-.7 2.269a12.604 12.604 0 0 1 2.983 1.5c.962.672 1.436 1.52 1.17 2.293-.245.777-1.069 1.247-2.62 1.113-.745-.05-1.726-.271-2.973-.667-1.353-.423-2.398-.884-3.102-1.454-.86-.668-1.252-1.409-1.036-2.205.276-.87 1.027-1.33 2.62-1.224.892.078 1.753.248 2.959.644zM284.68 162.857c-1.426-.244-2.987-.235-4.197.133-1.46.433-2.872 1.404-3.19 3.402-.437 2.559 2.016 4.93 5.823 5.564 2.568.451 4.64.028 5.923-.906.902-.608 1.46-1.372 1.639-2.398.46-2.693-2.016-5.119-5.997-5.795zm-.354 2.366c1.294.326 2.366.644 3.144 1.04 1.058.524 1.648 1.289 1.51 2.103-.143.801-.893 1.381-2.44 1.478-.741.055-1.754-.019-3.052-.235-1.348-.23-2.425-.557-3.203-.999-.971-.543-1.505-1.21-1.353-1.96.129-.852.86-1.542 2.416-1.662.856-.046 1.73 0 2.978.235zM291.732 152.063l-.235 8.074-1.473-.046a47.17 47.17 0 0 0-3.07-3.185c-2.043-1.97-3.401-2.615-4.533-2.656-1.386-.037-2.108.8-2.131 1.891-.028.866.244 1.552 1.081 2.74 0 .022.065.119.097.137l-1.293 1.04c-1.243-1.45-1.87-2.909-1.823-4.63.074-2.186 1.726-3.82 3.839-3.76 1.27.041 2.655.805 3.944 2.09.617.542 1.353 1.343 2.108 2.135.667.695 1.431 1.413 1.57 1.68a45.451 45.451 0 0 1-.033-1.901l.134-4.133zM290.669 139.475l.359 2.357-13.532 2.08-1.091-7.166 1.846-.028.75 4.709 3.65-.562-.576-3.861 1.782-.286.58 3.71zM275.208 132.332l13.1-3.402.584 2.219-13.108 3.397zM286.402 122.698l.76 2.113-12.773 4.709-2.462-6.845 1.822-.372 1.625 4.335 3.484-1.233-1.307-3.521 1.749-.617 1.289 3.521zM276.193 112.858l1.491 3.102c-.934.129-5.95 1.086-5.95 1.086l-.015-.023c.415-.313 4.28-3.912 4.474-4.165zm3.047-6.048-10.209 10.07 1.174 2.311 14.158-2.154-1.036-2.205-3.659.617-2.048-3.89 2.752-2.572zM263.968 108.324l-5.877-7.442 1.652-.935 2.145 2.651 9.178-7.212 1.394 1.75-9.15 7.354 2.127 2.66zM256.82 81.016l-8.367 10.895 2.274 1.998 6.812-4.364c.81-.52 1.528-1.03 1.845-1.293-.216.354-.598.948-1.141 1.979l-3.7 7.18 2.264 2.012 10.075-9.256-1.625-1.478-5.988 5.758c-.607.58-1.5 1.413-1.804 1.754.244-.387.838-1.4 1.256-2.237l3.931-7.668-1.491-1.284-7.627 4.625c-.768.46-1.44.92-1.818 1.284.28-.382.94-1.15 1.464-1.836l5.251-6.573z"/><path fill="#fff" d="M185.806 62.325c0-17.463-14.172-31.648-31.708-31.648-17.541 0-31.717 14.185-31.717 31.648 0 17.61 14.18 31.79 31.717 31.79 17.536 0 31.708-14.18 31.708-31.79z"/><path fill="#ef9f47" d="M172.633 113.944h-37.37v-21.21c-10.148-6.365-16.877-17.604-16.877-30.409 0-15.723 10.24-29.08 24.403-33.867a23.995 23.995 0 0 0-6.15-11.51c-.054-.042-.294-.332-.294-.737 0-.566.433-.98.948-.98.226 0 .41.087.41.087 4.888 2.448 8.773 6.628 10.67 11.658-.521-6.964-3.365-13.803-8.138-18.967-.046-.05-.281-.29-.281-.686 0-.506.419-.916.939-.916.184 0 .442.092.442.092l.018.037c7 4.142 11.732 11.391 12.906 19.276 0-.368.023-.787.023-.787 0-8.52-2.67-16.63-7.77-23.497a.902.902 0 0 1-.225-.603c0-.488.419-.925.939-.925.368 0 .626.244.626.244 7.843 6.844 12.386 16.68 12.51 26.953 16.73 3.052 29.439 17.629 29.439 35.133 0 12.933-6.886 24.288-17.214 30.612zm10.83-51.61c0 16.257-13.14 29.425-29.365 29.425-16.17 0-29.38-13.168-29.38-29.425 0-16.17 13.21-29.3 29.38-29.3 16.224.004 29.365 13.136 29.365 29.3zm-24.114-17.476c2.66 0 4.88 2.163 4.88 4.819 0 2.66-2.22 4.97-4.88 4.97-2.683 0-4.901-2.31-4.901-4.97 0-2.651 2.218-4.82 4.901-4.82zm-18.314 6.54c0 2.808 2.16 4.971 4.907 4.971 2.66 0 4.893-2.163 4.893-4.97 0-2.666-2.237-4.82-4.893-4.82-2.753-.004-4.907 2.154-4.907 4.82zm31.547 7.401c0-5.127-1.84-10.236-3.176-12.27.355.994 1.156 3.52 1.156 6.144.023 12.363-13.73 12.248-15.037 12.248-9.79 0-18.968-5.367-21.513-7.005 1.132 4.055 7.539 24.486 20.597 24.486 5.744 0 9.108-2.159 12.611-6.61 3.609-4.386 5.362-10.461 5.362-16.993z"/><path fill="#fed024" d="m92.334 207.231-1.578.014c-45.337 0-82.241-36.909-82.241-82.324 0-31.542 17.854-61.289 46.616-77.398a.96.96 0 0 0 .451-.497.794.794 0 0 0-.037-.686c-.083-.207-.285-.368-.497-.451-.225-.088-.442-.06-.672.032-16.031 6.904-29.522 17.614-38.975 30.838C5.316 90.82 0 107.491 0 124.921c0 50.032 40.725 90.834 90.756 90.834h1.578z"/><path fill="#df474a" d="m92.334 198.689-1.578.013c-41.185 0-74.605-33.466-74.605-74.595 0-14.402 4.046-28.675 11.718-41.25 7.461-12.243 18.006-22.41 30.502-29.37.373-.243.539-.726.36-1.136a.831.831 0 0 0-1.1-.382c-14.762 6.434-27.143 16.188-35.81 28.224-9.293 12.772-14.158 27.96-14.158 43.918 0 45.87 37.273 83.139 83.093 83.139l1.578-.014z"/><path d="M60.765 58.21C32.297 70.45 15.34 94.792 15.34 123.297c0 41.516 33.797 75.405 75.415 75.405l1.578-.013v-8.363l-1.578.041c-36.941 0-67.02-30.125-67.02-67.07 0-26.392 14.443-50.814 37.742-63.688.382-.23.525-.69.345-1.054a.754.754 0 0 0-.442-.386.761.761 0 0 0-.616.041z"/><path fill="#fff" d="M141.809 123.375C141.809 95.027 118.786 72 90.433 72c-28.412 0-51.398 23.027-51.398 51.375 0 28.334 22.982 51.384 51.398 51.384 28.353 0 51.376-23.05 51.376-51.384z"/><path fill="#006eac" d="M90.433 63.167c-33.24 0-60.212 26.921-60.212 60.208 0 33.268 26.972 60.208 60.212 60.208 15.576 0 31.874-4.147 42.59-13.923 12.086-11.028 17.618-28.592 17.618-46.285 0-33.282-27.008-60.208-60.208-60.208zm-4.165 107.901c-26.341-2.274-45.787-25.513-43.528-51.826 2.339-26.295 25.522-45.843 51.891-43.565 26.31 2.27 45.788 25.508 43.514 51.808-2.338 26.466-25.6 45.88-51.877 43.583z"/><path fill="#006eac" d="M96.288 100.02c-3.585.788-9.228 2.16-12.75 3.844l-1.035.451 2.808 3.655.64-.276c.05-.037 6.103-2.486 20.72-3.894l.963-.088.432-.037-.616-1.311c-.355-.677-3.683-6.775-11.35-14.761l-.346-.354-4.883 1.067 1.344 1.142c.037.032 2.273 2.14 4.966 5.942-3.199-1.266-7.502-2.83-11.286-3.802-6.19-1.754-13.37-2.218-13.44-2.237h-.165l-2.711 3.581 1.62.161c8.648 1.068 17.117 3.425 25.09 6.918zM104.67 133.957c-6.518-.557-12.764-2.799-17.753-5.989-7.18-4.423-13.49-11.129-16.777-18.668-1.109-2.352-1.717-4.617-2.07-6.978-.323.63-.655 1.496-1.023 2.297-2.315 5.266-5.274 13.923-6.126 23.63-.207 2.472-1.362 17.454 8.97 24.97 3.448 2.462 6.509 3.917 11.305 4.335 12.367 1.055 26.488-7.608 36.103-16.072 4.82-4.35 8.897-8.718 11.162-11.631-7.295 3.31-16.46 4.75-23.791 4.106zM124.028 112.895c-2.241-2.44-4.234-4.193-5.242-4.999 1.906-.557 4.543-.709 4.58-.709l.382-.013-1.349-3.775-.506-.152c-.732-.16-4.709-.626-10.462 1.257l-1.1.359c.198.304 4.39 6.922 7 18.737l.106.447.355-.28c.014-.015 1.703-1.285 2.821-2.316l.11-.097-.064-.47c-.037-.096-.382-2.692-1.063-5.2-.12-.557-.354-1.132-.584-1.735 2.88 2.665 4.984 5.481 8.008 9.656l.244.368 1.257-2.145.709-1.459-.079-.147c-.524-.99-2.103-3.958-5.123-7.327z"/><path fill="#fff" d="M200.01 98.36c-30.29 0-54.823 24.545-54.823 54.91a54.875 54.875 0 0 0 6.255 25.41c-6.701-3.957-14.517-6.176-22.779-6.176-25.273 0-45.755 20.556-45.755 45.829s20.482 45.686 45.755 45.686c25.283 0 45.737-20.413 45.737-45.686 0-6.895-1.5-13.251-4.138-19.152 8.538 5.648 18.77 8.86 29.748 8.86 30.235 0 54.785-24.546 54.785-54.772 0-30.364-24.55-54.91-54.785-54.91z"/><path d="M143.7 202.155c0-8.087-6.632-14.78-14.788-14.78-8.151 0-14.775 6.693-14.775 14.78 0 8.23 6.619 14.93 14.775 14.93s14.788-6.7 14.788-14.93z"/><path fill="#df474a" d="M136.34 218.927c-.975 0-1.91-.263-2.743-.741l-.225-.143-2.034.442.064.617c.345 2.006.46 3.663.46 5.325 0 6.43-2.108 12.036-4.299 17.297-.837 1.878-1.555 3.281-2.388 4.566l1.155.814c5.468-5.574 9.435-11.709 12.23-18.443a59.838 59.838 0 0 0 3.539-11.57l-1.225-.507c-1.021 1.468-2.688 2.343-4.533 2.343z"/><path fill="#fed024" d="M140.943 213.293c0-2.55-2.062-4.621-4.704-4.621-2.554 0-4.671 2.071-4.671 4.621 0 2.702 2.112 4.782 4.671 4.782 2.642 0 4.704-2.08 4.704-4.782zM134.058 241.14c-1.91 2.899-4.24 5.6-6.752 8.022-2.97 2.909-6.09 5.574-9.712 8.013l-1.197.828 1.602.442.336.097a42.924 42.924 0 0 0 10.328 1.257 41.81 41.81 0 0 0 12.814-1.998l.571-.193.851-.29-.533-.737c-2.108-2.95-3.738-5.937-5.045-8.832a69.196 69.196 0 0 1-2.034-6.412l-.392-1.514z"/><path fill="#56bb68" d="M162.25 153.27c0-5.657 1.297-10.863 3.456-15.7-.101 1.28-.088 2.88-.088 2.88 0 8.226 4.005 12.658 7.995 14.651 3.779 1.841 7.567 1.643 7.567 1.643 6.545 0 13.6-2.991 19.51-7.617 4.774-3.664 8.815-8.345 11.627-12.984 4.663-7.443 5.307-14.84 5.371-15.479 11.429 6.296 19.175 18.489 19.175 32.61 0 20.482-16.684 37.277-37.31 37.277-20.573-.004-37.304-16.8-37.304-37.282zm15.216-3.908s-.3-.944-.3-3.282c0-5.947 4.842-10.687 10.798-10.687 3.158 0 5.178.998 5.178.998l-1.813-1.993c-1.91-2.121-4.658-3.346-7.456-3.346-5.57 0-10.117 4.46-10.117 10.094 0 2.071.649 4.055 1.956 5.758zm19.248-13.51s-.295-.943-.295-3.285c0-5.929 4.843-10.683 10.794-10.683 3.166 0 5.224 1.021 5.224 1.021l-1.86-2.01c-1.91-2.132-4.644-3.356-7.451-3.356-5.56 0-10.108 4.474-10.108 9.95 0 2.22.69 4.198 1.942 5.915zm70.605 17.417c0 37.2-30.12 67.31-67.31 67.31-7.53 0-14.696-1.206-21.411-3.429 0 .396.014.787.014 1.188 0 27.537-22.397 49.93-49.944 49.93-27.547 0-49.94-22.388-49.94-49.93 0-27.548 22.388-49.953 49.94-49.953 1.905 0 3.88.115 5.735.336-1.155-5.068-1.772-10.182-1.772-15.452 0-19.35 8.11-36.697 21.099-48.99L208.552 49.4c.755-.764 1.814-1.188 2.771-1.082 6.61.709 12.786 1.929 19.032 3.655.212.06.575.17.796.354.516.497.438 1.224-.193 1.924l-31.666 31.583c.211 0 .455-.009.727-.009 37.176 0 67.3 30.254 67.3 67.443zm-160.822 30.705c3.622 1.804 7.083 3.972 10.218 6.784 3.116-3.466 7.465-5.33 12.197-5.33 4.368 0 8.487 1.708 11.718 4.764-.75-2.683-1.629-5.275-2.71-7.806-.686-1.45-1.354-2.83-1.98-4.207-.101-.023-.18-.023-.258-.05-2.26-.507-4.648-.75-7.014-.75-8.027 0-15.525 2.448-21.863 6.425-.106.055-.22.115-.308.17zm17.159 34.41c.336.676.672 1.367.939 2.07.8 1.75 1.454 3.563 1.873 5.386.506 2.347 1.086 6.36.874 9.624 0 0 1.837-4.851 1.837-10.885 0-2.495-.313-3.627-.608-5.418-1.445-.1-3.631-.345-4.915-.777zm4.018-2.813c-.612-2.568-1.349-4.842-2.348-7.01-1.988-4.671-4.713-9.002-8.15-12.5-1.046 1.882-1.63 3.898-1.63 6.094.004 7.074 5.353 12.68 12.128 13.416zm-1.846 31.068c5.15-5.32 9.265-11.41 12.1-18.24a61.936 61.936 0 0 0 3.512-11.438c-1.109 1.611-2.954 2.656-5.1 2.656a5.952 5.952 0 0 1-3.083-.865l-1.11.253c.24 1.823.383 3.558.383 5.422 0 6.398-1.998 11.925-4.364 17.564-.713 1.62-1.463 3.157-2.338 4.648zm10.411-29.645c2.03 0 3.637-1.611 3.637-3.687 0-1.975-1.607-3.563-3.637-3.563a3.546 3.546 0 0 0-3.54 3.563c.006 2.076 1.584 3.687 3.54 3.687zm6.04-14.789v-.064c0-7.162-6.15-13.274-13.372-13.274-3.77 0-7.097 1.578-9.573 4.239 3.825 4.032 7.06 8.662 9.293 14.098.727 1.537 1.224 3.019 1.712 4.644.676-2.633 3.143-4.608 6.002-4.608 1.647 0 3.088.622 4.174 1.602a13.105 13.105 0 0 0 1.763-6.637zM92.2 199.84a18.647 18.647 0 0 1 1.514-.055c4.548 0 9.044.888 13.086 2.711 2.02.884 3.75 1.938 5.509 3.112a16.479 16.479 0 0 1-.35-3.452c0-2.983.875-5.993 2.578-8.626-3.43-2.964-7.144-5.44-11.212-7.18a.51.51 0 0 1-.102-.032c-4.589 3.627-8.326 8.308-11.023 13.522zm31.62 33.61c0-16.584-13.472-30.024-30.106-30.024-1.05 0-2.094.05-3.134.147a37.968 37.968 0 0 0-1.671 5.542 38.067 38.067 0 0 0-1.128 9.224c0 15.874 9.132 29.604 22.397 36.425 1.031.52 2.122 1.04 3.29 1.464 6.362-5.592 10.352-13.643 10.352-22.779zm18.001 23.528a52.687 52.687 0 0 1-5.127-8.97 64.3 64.3 0 0 1-2.044-6.481c-1.988 2.946-4.35 5.68-6.853 8.124a64.529 64.529 0 0 1-9.822 8.096c.189.05.359.096.52.147a42.219 42.219 0 0 0 10.167 1.247c4.41 0 8.598-.69 12.62-1.96.185-.06.342-.138.54-.203zm27.727-38.64c0-1.73-.106-3.53-.318-5.251-2.098-16.17-13.665-29.407-28.923-33.903.322.607.612 1.182.88 1.827 1.45 3.397 2.554 6.885 3.42 10.586.989 4.455 1.481 9.03 1.481 13.845 0 6.269-.916 12.699-2.858 18.678-.575 1.854-1.247 3.852-2.02 5.656-1.16 2.679-2.482 5.261-4.023 7.636a46.349 46.349 0 0 0 2.798 9.228c1.413 3.153 3.167 6.361 5.311 9.03 14.232-6.457 24.252-20.771 24.252-37.331zm30.46-13.881c28.247 0 51.192-22.935 51.192-51.187 0-28.375-22.945-51.315-51.191-51.315-28.289 0-51.247 22.944-51.247 51.315 0 7.728 1.81 15.198 4.907 21.743 8.832 5.225 16.026 12.925 20.302 22.31 7.677 4.432 16.524 7.134 26.038 7.134z"/><path fill="#fff" d="M183.463 62.334c0 16.257-13.14 29.425-29.365 29.425-16.17 0-29.38-13.168-29.38-29.425 0-16.17 13.21-29.3 29.38-29.3 16.224.004 29.365 13.136 29.365 29.3z"/><path fill="#ef9f47" d="M159.35 44.858c2.66 0 4.878 2.163 4.878 4.819 0 2.66-2.218 4.97-4.879 4.97-2.683 0-4.901-2.31-4.901-4.97 0-2.651 2.218-4.82 4.901-4.82zM141.035 51.398c0 2.808 2.16 4.971 4.907 4.971 2.66 0 4.893-2.163 4.893-4.97 0-2.666-2.237-4.82-4.893-4.82-2.753-.004-4.907 2.154-4.907 4.82z"/><path fill="#ef9f47" d="M172.582 58.8c0-5.128-1.84-10.237-3.176-12.271.355.994 1.156 3.52 1.156 6.144.023 12.363-13.73 12.248-15.037 12.248-9.79 0-18.968-5.367-21.513-7.005 1.132 4.055 7.539 24.486 20.597 24.486 5.744 0 9.108-2.159 12.611-6.61 3.609-4.386 5.362-10.461 5.362-16.993z"/></g></svg>