<?xml version="1.0" encoding="UTF-8" standalone="no"?>
<!-- Generator: Adobe Illustrator 12.0.0, SVG Export Plug-In . SVG Version: 6.00 Build 51448)  -->

<svg
   xmlns:dc="http://purl.org/dc/elements/1.1/"
   xmlns:cc="http://creativecommons.org/ns#"
   xmlns:rdf="http://www.w3.org/1999/02/22-rdf-syntax-ns#"
   xmlns:svg="http://www.w3.org/2000/svg"
   xmlns="http://www.w3.org/2000/svg"
   xmlns:sodipodi="http://sodipodi.sourceforge.net/DTD/sodipodi-0.dtd"
   xmlns:inkscape="http://www.inkscape.org/namespaces/inkscape"
   version="1.1"
   id="Layer_1"
   width="214"
   height="268.60461"
   viewBox="0 0 214 268.60461"
   overflow="visible"
   enable-background="new 0 0 557.922 702.992"
   xml:space="preserve"
   sodipodi:docname="FIFA_World_Cup_2006_Logo.svg"
   style="overflow:visible"
   inkscape:version="0.92.2 (5c3e80d, 2017-08-06)"><metadata
     id="metadata117"><rdf:RDF><cc:Work
         rdf:about=""><dc:format>image/svg+xml</dc:format><dc:type
           rdf:resource="http://purl.org/dc/dcmitype/StillImage" /><dc:title></dc:title></cc:Work></rdf:RDF></metadata><defs
     id="defs115" /><sodipodi:namedview
     pagecolor="#ffffff"
     bordercolor="#666666"
     borderopacity="1"
     objecttolerance="10"
     gridtolerance="10"
     guidetolerance="10"
     inkscape:pageopacity="0"
     inkscape:pageshadow="2"
     inkscape:window-width="1366"
     inkscape:window-height="705"
     id="namedview113"
     showgrid="false"
     fit-margin-top="2"
     fit-margin-right="2"
     fit-margin-bottom="2"
     fit-margin-left="2"
     inkscape:zoom="1"
     inkscape:cx="280.961"
     inkscape:cy="121.87176"
     inkscape:window-x="-8"
     inkscape:window-y="-8"
     inkscape:window-maximized="1"
     inkscape:current-layer="Layer_1" /><g
     id="g110"
     transform="matrix(0.3763967,0,0,0.3763967,2,2.0003764)"><path
       d="m 364.77,122.361 c 0,-34.285 -27.824,-62.127 -62.242,-62.127 -34.434,0 -62.268,27.842 -62.268,62.127 0,34.574 27.834,62.418 62.268,62.418 34.417,0 62.242,-27.843 62.242,-62.418 z"
       id="path2"
       inkscape:connector-curvature="0"
       style="clip-rule:evenodd;fill:#ffffff;fill-rule:evenodd" /><path
       d="m 338.914,223.707 h -73.367 v -41.641 c -19.926,-12.496 -33.141,-34.559 -33.141,-59.705 0,-30.865 20.105,-57.09 47.908,-66.482 -1.842,-8.457 -5.986,-16.258 -12.072,-22.6 -0.104,-0.086 -0.582,-0.648 -0.582,-1.443 0,-1.113 0.85,-1.93 1.859,-1.93 0.441,0 0.809,0.168 0.809,0.168 9.588,4.809 17.223,13.018 20.945,22.889 -1.02,-13.674 -6.609,-27.098 -15.973,-37.236 -0.094,-0.096 -0.551,-0.563 -0.551,-1.342 0,-0.996 0.826,-1.801 1.846,-1.801 0.355,0 0.871,0.182 0.871,0.182 l 0.033,0.068 c 13.75,8.133 23.035,22.363 25.332,37.838 0,-0.721 0.047,-1.547 0.047,-1.547 0,-16.725 -5.238,-32.641 -15.258,-46.129 -0.07,-0.068 -0.438,-0.5 -0.438,-1.186 0,-0.959 0.82,-1.811 1.84,-1.811 0.73,0 1.23,0.48 1.23,0.48 15.391,13.434 24.313,32.738 24.555,52.914 32.848,5.986 57.793,34.609 57.793,68.967 0,25.395 -13.52,47.686 -33.793,60.102 z m 21.262,-101.32 c 0,31.91 -25.801,57.762 -57.648,57.762 -31.742,0 -57.674,-25.852 -57.674,-57.762 0,-31.742 25.932,-57.521 57.674,-57.521 31.847,-0.001 57.648,25.779 57.648,57.521 z M 312.832,88.076 c 5.223,0 9.578,4.248 9.578,9.463 0,5.223 -4.355,9.756 -9.578,9.756 -5.262,0 -9.629,-4.533 -9.629,-9.756 0,-5.215 4.367,-9.463 9.629,-9.463 z m -35.961,12.836 c 0,5.508 4.24,9.752 9.633,9.752 5.219,0 9.609,-4.244 9.609,-9.752 0,-5.232 -4.391,-9.465 -9.609,-9.465 -5.393,0 -9.633,4.233 -9.633,9.465 z m 61.938,14.527 c 0,-10.063 -3.613,-20.092 -6.238,-24.086 0.703,1.953 2.273,6.908 2.273,12.066 0.051,24.271 -26.949,24.039 -29.516,24.039 -19.219,0 -37.234,-10.533 -42.232,-13.758 2.219,7.965 14.795,48.068 40.436,48.068 11.277,0 17.883,-4.234 24.758,-12.969 7.081,-8.608 10.519,-20.535 10.519,-33.36 z"
       id="path4"
       inkscape:connector-curvature="0"
       style="clip-rule:evenodd;fill:#ef9e47;fill-rule:evenodd" /><path
       d="m 181.268,406.844 -3.094,0.023 c -89,0 -161.453,-72.457 -161.453,-161.613 0,-61.926 35.047,-120.326 91.52,-151.947 0.354,-0.166 0.719,-0.551 0.883,-0.982 0.174,-0.471 0.148,-0.926 -0.074,-1.344 -0.16,-0.408 -0.557,-0.721 -0.982,-0.887 -0.445,-0.168 -0.871,-0.123 -1.316,0.07 C 75.281,103.707 48.795,124.736 30.234,150.697 10.436,178.303 0,211.027 0,245.254 0,343.481 79.945,423.578 178.174,423.578 h 3.094 z"
       id="path6"
       inkscape:connector-curvature="0"
       style="clip-rule:evenodd;fill:#fdd024;fill-rule:evenodd" /><path
       d="m 181.268,390.074 -3.094,0.023 c -80.855,0 -146.471,-65.705 -146.471,-146.443 0,-28.275 7.943,-56.295 23.012,-80.982 14.643,-24.031 35.35,-43.994 59.885,-57.658 0.725,-0.477 1.055,-1.424 0.699,-2.229 -0.414,-0.805 -1.361,-1.129 -2.158,-0.756 -28.979,12.631 -53.295,31.779 -70.305,55.412 -18.24,25.07 -27.795,54.893 -27.795,86.213 0,90.047 73.17,163.213 163.133,163.213 l 3.094,-0.023 z"
       id="path8"
       inkscape:connector-curvature="0"
       style="clip-rule:evenodd;fill:#df474a;fill-rule:evenodd" /><path
       d="m 119.293,114.289 c -55.885,24.027 -89.174,71.82 -89.174,127.771 0,81.502 66.352,148.037 148.055,148.037 l 3.094,-0.023 v -16.426 l -3.094,0.086 c -72.523,0 -131.578,-59.143 -131.578,-131.674 0,-51.811 28.355,-99.75 74.098,-125.027 0.748,-0.451 1.031,-1.354 0.676,-2.074 -0.15,-0.344 -0.477,-0.625 -0.865,-0.756 -0.388,-0.142 -0.833,-0.117 -1.212,0.086 z"
       id="path10"
       inkscape:connector-curvature="0"
       style="clip-rule:evenodd;fill-rule:evenodd" /><path
       d="m 278.396,242.217 c 0,-55.65 -45.203,-100.854 -100.854,-100.854 -55.785,0 -100.902,45.203 -100.902,100.854 0,55.629 45.117,100.877 100.902,100.877 55.651,0 100.854,-45.248 100.854,-100.877 z"
       id="path12"
       inkscape:connector-curvature="0"
       style="clip-rule:evenodd;fill:#ffffff;fill-rule:evenodd" /><path
       d="m 177.543,124.02 c -65.26,0 -118.211,52.855 -118.211,118.197 0,65.309 52.951,118.201 118.211,118.201 30.578,0 62.566,-8.148 83.611,-27.342 23.732,-21.65 34.584,-56.129 34.584,-90.859 0,-65.342 -53.027,-118.197 -118.195,-118.197 z m -8.184,211.83 c -51.713,-4.465 -89.893,-50.084 -85.447,-101.742 4.592,-51.619 50.107,-89.996 101.873,-85.521 51.654,4.451 89.887,50.072 85.422,101.707 -4.59,51.942 -50.264,90.063 -101.848,85.556 z"
       id="path14"
       inkscape:connector-curvature="0"
       style="clip-rule:evenodd;fill:#006dab;fill-rule:evenodd" /><path
       d="m 189.029,196.367 c -7.035,1.547 -18.121,4.234 -25.033,7.545 l -2.025,0.891 5.512,7.172 1.254,-0.541 c 0.098,-0.072 11.979,-4.879 40.686,-7.643 l 1.891,-0.166 0.854,-0.07 -1.209,-2.57 c -0.701,-1.328 -7.232,-13.301 -22.283,-28.98 l -0.678,-0.699 -9.578,2.102 2.627,2.242 c 0.072,0.061 4.465,4.201 9.754,11.662 -6.285,-2.482 -14.732,-5.553 -22.156,-7.461 -12.152,-3.443 -26.256,-4.355 -26.391,-4.393 h -0.322 l -5.32,7.031 3.178,0.313 c 16.968,2.085 33.591,6.702 49.239,13.565 z"
       id="path16"
       inkscape:connector-curvature="0"
       style="clip-rule:evenodd;fill:#006dab;fill-rule:evenodd" /><path
       d="m 205.484,262.996 c -12.791,-1.094 -25.063,-5.494 -34.85,-11.756 -14.098,-8.689 -26.479,-21.848 -32.938,-36.65 -2.178,-4.617 -3.365,-9.072 -4.068,-13.699 -0.629,1.236 -1.277,2.938 -2,4.51 -4.549,10.328 -10.361,27.328 -12.027,46.389 -0.41,4.848 -2.678,34.262 17.615,49.018 6.766,4.834 12.775,7.689 22.188,8.52 24.281,2.074 52.01,-14.938 70.875,-31.553 9.465,-8.543 17.471,-17.117 21.916,-22.84 -14.326,6.489 -32.316,9.319 -46.711,8.061 z"
       id="path18"
       inkscape:connector-curvature="0"
       style="clip-rule:evenodd;fill:#006dab;fill-rule:evenodd" /><path
       d="m 243.488,221.645 c -4.398,-4.787 -8.316,-8.232 -10.295,-9.813 3.744,-1.092 8.92,-1.393 8.992,-1.393 l 0.75,-0.025 -2.65,-7.412 -0.996,-0.301 c -1.443,-0.313 -9.248,-1.227 -20.539,2.475 l -2.166,0.705 c 0.391,0.6 8.619,13.592 13.74,36.781 l 0.207,0.875 0.695,-0.551 c 0.023,-0.025 3.34,-2.521 5.541,-4.547 l 0.221,-0.191 -0.125,-0.926 c -0.072,-0.191 -0.746,-5.291 -2.084,-10.209 -0.238,-1.092 -0.693,-2.219 -1.154,-3.406 5.664,5.229 9.791,10.762 15.725,18.955 l 0.477,0.719 2.463,-4.209 1.395,-2.867 -0.15,-0.289 c -1.023,-1.934 -4.117,-7.762 -10.047,-14.371 z"
       id="path20"
       inkscape:connector-curvature="0"
       style="clip-rule:evenodd;fill:#006dab;fill-rule:evenodd" /><path
       d="m 392.656,193.104 c -59.461,0 -107.629,48.191 -107.629,107.799 0,17.803 4.43,34.863 12.289,49.895 -13.156,-7.773 -28.5,-12.127 -44.723,-12.127 -49.619,0 -89.828,40.354 -89.828,89.971 0,49.617 40.209,89.695 89.828,89.695 49.637,0 89.789,-40.078 89.789,-89.695 0,-13.531 -2.945,-26.008 -8.129,-37.598 16.766,11.086 36.855,17.395 58.402,17.395 59.355,0 107.555,-48.188 107.555,-107.535 0.001,-59.609 -48.198,-107.8 -107.554,-107.8 z"
       id="path22"
       inkscape:connector-curvature="0"
       style="clip-rule:evenodd;fill:#ffffff;fill-rule:evenodd" /><path
       d="m 282.109,396.871 c 0,-15.867 -13.023,-29.004 -29.039,-29.004 -16.008,0 -29.006,13.137 -29.006,29.004 0,16.164 12.998,29.324 29.006,29.324 16.016,0 29.039,-13.16 29.039,-29.324 z"
       id="path24"
       inkscape:connector-curvature="0"
       style="clip-rule:evenodd;fill-rule:evenodd" /><path
       d="m 267.66,429.805 c -1.916,0 -3.742,-0.516 -5.387,-1.465 l -0.445,-0.277 -3.994,0.867 0.117,1.207 c 0.68,3.938 0.902,7.188 0.902,10.453 0,12.633 -4.139,23.629 -8.439,33.961 -1.643,3.684 -3.057,6.441 -4.689,8.961 l 2.273,1.594 c 10.734,-10.938 18.52,-22.984 24.004,-36.203 3.029,-7.195 5.373,-14.781 6.943,-22.707 l -2.402,-1 c -1.986,2.894 -5.254,4.609 -8.883,4.609 z"
       id="path26"
       inkscape:connector-curvature="0"
       style="clip-rule:evenodd;fill:#df474a;fill-rule:evenodd" /><path
       d="m 276.703,418.746 c 0,-5.004 -4.053,-9.074 -9.238,-9.074 -5.014,0 -9.164,4.07 -9.164,9.074 0,5.301 4.15,9.391 9.164,9.391 5.185,0 9.238,-4.09 9.238,-9.391 z"
       id="path28"
       inkscape:connector-curvature="0"
       style="clip-rule:evenodd;fill:#fdd024;fill-rule:evenodd" /><path
       d="m 263.18,473.41 c -3.75,5.688 -8.32,10.988 -13.258,15.75 -5.826,5.711 -11.953,10.941 -19.061,15.73 l -2.348,1.629 3.145,0.863 0.658,0.195 c 6.672,1.641 13.408,2.469 20.277,2.469 8.604,0 16.996,-1.305 25.154,-3.922 l 1.113,-0.371 1.678,-0.574 -1.047,-1.453 c -4.145,-5.785 -7.336,-11.652 -9.902,-17.332 -1.547,-4.141 -2.848,-8.293 -3.994,-12.586 l -0.771,-2.977 z"
       id="path30"
       inkscape:connector-curvature="0"
       style="clip-rule:evenodd;fill:#fdd024;fill-rule:evenodd" /><path
       d="m 318.527,300.902 c 0,-11.096 2.547,-21.328 6.789,-30.816 -0.199,2.516 -0.176,5.65 -0.176,5.65 0,16.148 7.863,24.855 15.699,28.766 7.41,3.611 14.848,3.229 14.848,3.229 12.855,0 26.699,-5.879 38.305,-14.959 9.363,-7.188 17.301,-16.377 22.824,-25.494 9.152,-14.611 10.414,-29.127 10.539,-30.387 22.441,12.357 37.641,36.291 37.641,64.012 0,40.213 -32.758,73.18 -73.246,73.18 -40.383,-0.001 -73.223,-32.968 -73.223,-73.181 z m 29.868,-7.675 c 0,0 -0.59,-1.848 -0.59,-6.441 0,-11.676 9.508,-20.984 21.199,-20.984 6.195,0 10.16,1.957 10.16,1.957 l -3.559,-3.91 c -3.742,-4.164 -9.145,-6.564 -14.633,-6.564 -10.934,0 -19.859,8.758 -19.859,19.816 0,4.068 1.27,7.955 3.836,11.305 z m 37.789,-26.512 c 0,0 -0.578,-1.859 -0.578,-6.455 0,-11.637 9.504,-20.971 21.188,-20.971 6.211,0 10.254,2.006 10.254,2.006 l -3.656,-3.949 c -3.75,-4.186 -9.117,-6.586 -14.629,-6.586 -10.91,0 -19.844,8.785 -19.844,19.533 0,4.352 1.363,8.238 3.82,11.609 z m 138.609,34.187 c 0,73.035 -59.133,132.141 -132.137,132.141 -14.781,0 -28.855,-2.363 -42.039,-6.73 0,0.777 0.027,1.547 0.027,2.328 0,54.07 -43.969,98.023 -98.051,98.023 -54.082,0 -98.037,-43.953 -98.037,-98.023 0,-54.078 43.955,-98.057 98.037,-98.057 3.74,0 7.615,0.227 11.262,0.658 -2.271,-9.945 -3.479,-19.984 -3.479,-30.34 0,-37.98 15.92,-72.037 41.424,-96.174 L 409.418,96.992 c 1.488,-1.502 3.563,-2.332 5.438,-2.125 12.977,1.393 25.105,3.791 37.367,7.172 0.414,0.123 1.125,0.338 1.559,0.697 1.008,0.971 0.859,2.4 -0.383,3.777 l -62.172,62.012 c 0.422,0 0.898,-0.025 1.43,-0.025 73.003,0 132.136,59.395 132.136,132.402 z M 209.07,361.188 c 7.107,3.535 13.904,7.793 20.059,13.313 6.117,-6.801 14.652,-10.469 23.941,-10.469 8.574,0 16.666,3.355 23.01,9.355 -1.475,-5.27 -3.195,-10.352 -5.326,-15.324 -1.35,-2.852 -2.66,-5.563 -3.887,-8.26 -0.201,-0.049 -0.35,-0.049 -0.504,-0.098 -4.438,-0.998 -9.127,-1.479 -13.77,-1.479 -15.754,0 -30.473,4.814 -42.924,12.625 -0.198,0.106 -0.421,0.223 -0.599,0.337 z m 33.69,67.546 c 0.656,1.336 1.313,2.68 1.842,4.066 1.57,3.434 2.855,6.996 3.676,10.57 1,4.605 2.137,12.488 1.721,18.895 0,0 3.611,-9.523 3.611,-21.379 0,-4.891 -0.613,-7.113 -1.191,-10.625 -2.853,-0.191 -7.138,-0.671 -9.659,-1.527 z m 7.888,-5.515 c -1.205,-5.039 -2.65,-9.504 -4.609,-13.77 -3.902,-9.168 -9.248,-17.676 -15.998,-24.539 -2.053,3.699 -3.197,7.656 -3.197,11.961 0,13.895 10.5,24.899 23.804,26.348 z m -3.623,60.988 c 10.111,-10.449 18.189,-22.395 23.76,-35.809 3.039,-7.328 5.32,-14.719 6.891,-22.457 -2.176,3.168 -5.801,5.215 -10.016,5.215 -2.221,0 -4.283,-0.633 -6.057,-1.699 l -2.174,0.492 c 0.471,3.574 0.752,6.992 0.752,10.641 0,12.559 -3.918,23.418 -8.564,34.488 -1.402,3.18 -2.875,6.203 -4.592,9.129 z M 267.465,426 c 3.99,0 7.141,-3.152 7.141,-7.23 0,-3.875 -3.15,-6.996 -7.141,-6.996 -3.844,0 -6.943,3.121 -6.943,6.996 -10e-4,4.078 3.099,7.23 6.943,7.23 z m 11.853,-29.031 c 0,-0.07 0,-0.098 0,-0.121 0,-14.055 -12.072,-26.051 -26.248,-26.051 -7.398,0 -13.934,3.09 -18.797,8.32 7.508,7.906 13.865,17 18.238,27.676 1.428,3.023 2.4,5.93 3.365,9.121 1.334,-5.172 6.166,-9.047 11.783,-9.047 3.242,0 6.07,1.211 8.193,3.145 2.238,-3.899 3.466,-8.207 3.466,-13.043 z m -98.308,-4.641 c 0.984,-0.07 2.002,-0.098 2.975,-0.098 8.924,0 17.75,1.742 25.686,5.316 3.969,1.738 7.359,3.801 10.818,6.105 -0.443,-2.086 -0.684,-4.305 -0.684,-6.781 0,-5.852 1.719,-11.754 5.057,-16.922 -6.73,-5.82 -14.029,-10.68 -22.014,-14.102 -0.045,-0.008 -0.143,-0.031 -0.197,-0.055 -9.014,7.115 -16.35,16.303 -21.641,26.537 z m 62.07,65.981 c 0,-32.547 -26.445,-58.938 -59.096,-58.938 -2.063,0 -4.115,0.094 -6.152,0.285 -1.357,3.504 -2.461,7.137 -3.285,10.883 -1.438,5.719 -2.209,11.863 -2.209,18.102 0,31.164 17.932,58.121 43.967,71.512 2.025,1.027 4.162,2.039 6.457,2.879 12.484,-10.977 20.318,-26.778 20.318,-44.723 z m 35.34,46.195 c -3.967,-5.566 -7.305,-11.48 -10.059,-17.609 -1.547,-4.137 -2.898,-8.371 -4.014,-12.727 -3.898,5.781 -8.539,11.156 -13.453,15.941 -6.191,6.188 -12.436,11.301 -19.285,15.895 0.367,0.098 0.707,0.191 1.02,0.289 6.436,1.586 13.018,2.449 19.965,2.449 8.66,0 16.879,-1.359 24.771,-3.852 0.36,-0.109 0.676,-0.265 1.055,-0.386 z m 54.432,-75.863 c 0,-3.395 -0.207,-6.922 -0.621,-10.309 -4.117,-31.738 -26.832,-57.723 -56.781,-66.551 0.631,1.186 1.205,2.313 1.721,3.586 2.852,6.672 5.021,13.52 6.721,20.777 1.945,8.746 2.906,17.73 2.906,27.184 0,12.309 -1.793,24.93 -5.605,36.66 -1.123,3.648 -2.447,7.57 -3.973,11.109 -2.273,5.266 -4.863,10.328 -7.887,14.992 1.195,6.219 3.047,12.336 5.486,18.117 2.779,6.191 6.225,12.488 10.432,17.73 27.937,-12.678 47.601,-40.784 47.601,-73.295 z m 59.804,-27.243 c 55.453,0 100.496,-45.039 100.496,-100.496 0,-55.697 -45.043,-100.742 -100.496,-100.742 -55.539,0 -100.609,45.045 -100.609,100.742 0,15.176 3.551,29.836 9.633,42.686 17.344,10.256 31.465,25.369 39.859,43.795 15.07,8.711 32.441,14.015 51.117,14.015 z"
       id="path32"
       inkscape:connector-curvature="0"
       style="clip-rule:evenodd;fill:#55bb68;fill-rule:evenodd" /><path
       d="m 360.176,122.387 c 0,31.91 -25.801,57.762 -57.648,57.762 -31.742,0 -57.674,-25.852 -57.674,-57.762 0,-31.742 25.932,-57.521 57.674,-57.521 31.847,-0.001 57.648,25.779 57.648,57.521 z"
       id="path34"
       inkscape:connector-curvature="0"
       style="clip-rule:evenodd;fill:#ffffff;fill-rule:evenodd" /><path
       d="m 312.832,88.076 c 5.223,0 9.578,4.248 9.578,9.463 0,5.223 -4.355,9.756 -9.578,9.756 -5.262,0 -9.629,-4.533 -9.629,-9.756 0,-5.215 4.367,-9.463 9.629,-9.463 z"
       id="path36"
       inkscape:connector-curvature="0"
       style="clip-rule:evenodd;fill:#ef9e47;fill-rule:evenodd" /><path
       d="m 276.871,100.912 c 0,5.508 4.24,9.752 9.633,9.752 5.219,0 9.609,-4.244 9.609,-9.752 0,-5.232 -4.391,-9.465 -9.609,-9.465 -5.393,0 -9.633,4.233 -9.633,9.465 z"
       id="path38"
       inkscape:connector-curvature="0"
       style="clip-rule:evenodd;fill:#ef9e47;fill-rule:evenodd" /><path
       d="m 338.809,115.439 c 0,-10.063 -3.613,-20.092 -6.238,-24.086 0.703,1.953 2.273,6.908 2.273,12.066 0.051,24.271 -26.949,24.039 -29.516,24.039 -19.219,0 -37.234,-10.533 -42.232,-13.758 2.219,7.965 14.795,48.068 40.436,48.068 11.277,0 17.883,-4.234 24.758,-12.969 7.081,-8.608 10.519,-20.535 10.519,-33.36 z"
       id="path40"
       inkscape:connector-curvature="0"
       style="clip-rule:evenodd;fill:#ef9e47;fill-rule:evenodd" /><path
       d="m 118.887,583.543 c -17.057,0 -30.932,13.852 -30.932,30.91 0,17.058 13.875,30.93 30.932,30.93 h 31.082 v -0.348 c 0,-5.707 -4.633,-10.324 -10.33,-10.324 h -20.752 c -9.15,0 -17.107,-6.109 -19.502,-14.926 0.92,0 30.277,0 30.277,0 5.705,0 10.334,-4.633 10.334,-10.316 v -0.352 c 0,0 -39.691,0 -40.611,0 2.406,-8.813 10.352,-14.902 19.502,-14.902 h 20.752 c 5.697,0 10.33,-4.637 10.33,-10.324 v -0.348 z"
       id="path42"
       inkscape:connector-curvature="0"
       style="clip-rule:evenodd;fill:#55bb68;fill-rule:evenodd" /><path
       d="m 40.037,583.543 c -17.047,0 -30.92,13.852 -30.92,30.91 0,17.058 13.873,30.93 30.92,30.93 H 50.06 c 17.043,0 30.916,-13.871 30.916,-30.93 0,-1.703 -0.133,-3.359 -0.406,-5.043 l -0.059,-0.293 H 29.1 v 0.352 c 0,5.684 4.631,10.316 10.334,10.316 0,0 29.205,0 30.121,0 -2.4,8.816 -10.344,14.926 -19.494,14.926 H 40.037 c -11.16,0 -20.24,-9.078 -20.24,-20.258 0,-11.156 9.08,-20.238 20.24,-20.238 h 20.74 c 5.703,0 10.332,-4.637 10.332,-10.324 v -0.348 z"
       id="path44"
       inkscape:connector-curvature="0"
       style="clip-rule:evenodd;fill:#55bb68;fill-rule:evenodd" /><path
       d="m 270.383,593.734 c -4.977,-6.484 -12.457,-10.211 -20.594,-10.211 -14.322,0 -25.973,11.664 -25.973,25.98 v 35.879 h 0.367 c 5.703,0 10.361,-4.637 10.361,-10.324 v -25.555 c 0,-8.398 6.844,-15.246 15.254,-15.246 4.012,0 7.807,1.551 10.67,4.379 2.871,2.816 4.482,6.582 4.559,10.594 v 36.152 h 0.354 c 5.719,0 10.359,-4.637 10.359,-10.324 v -25.844 c 0.154,-8.25 6.986,-14.957 15.236,-14.957 8.402,0 15.25,6.848 15.25,15.246 v 25.555 c 0,5.688 4.66,10.324 10.363,10.324 h 0.371 l -0.02,-35.879 c 0,-14.316 -11.645,-25.98 -25.965,-25.98 -8.153,0 -15.621,3.727 -20.592,10.211 z"
       id="path46"
       inkscape:connector-curvature="0"
       style="clip-rule:evenodd;fill:#55bb68;fill-rule:evenodd" /><path
       d="m 400.238,614.453 v 30.93 h 0.371 c 5.688,0 10.324,-4.637 10.324,-10.324 v -20.605 c 0,-11.141 9.082,-20.195 20.258,-20.195 11.16,0 20.238,9.055 20.238,20.195 v 20.605 c 0,5.688 4.641,10.324 10.32,10.324 h 0.355 v -30.93 c 0,-17.059 -13.875,-30.93 -30.914,-30.93 -17.077,0 -30.952,13.872 -30.952,30.93 z"
       id="path48"
       inkscape:connector-curvature="0"
       style="clip-rule:evenodd;fill:#55bb68;fill-rule:evenodd" /><path
       d="m 327.652,614.453 v 30.93 h 0.344 c 5.707,0 10.324,-4.637 10.324,-10.324 0,0 0,-9.758 0,-10.438 0.699,0 39.82,0 40.5,0 0,0.68 0,10.438 0,10.438 0,5.688 4.641,10.324 10.324,10.324 h 0.367 v -30.93 c 0,-17.059 -13.875,-30.93 -30.926,-30.93 -17.058,0 -30.933,13.872 -30.933,30.93 z m 30.934,-20.195 c 11.074,0 20.078,8.922 20.234,19.922 -0.719,0 -39.762,0 -40.477,0 0.134,-11 9.161,-19.922 20.243,-19.922 z"
       id="path50"
       inkscape:connector-curvature="0"
       style="clip-rule:evenodd;fill:#55bb68;fill-rule:evenodd" /><path
       d="m 514.887,583.543 c -2.758,0 -5.359,1.09 -7.297,3.027 0,0 -16.145,16.145 -16.633,16.633 -0.488,-0.488 -16.633,-16.633 -16.633,-16.633 -1.934,-1.938 -4.535,-3.027 -7.289,-3.027 -2.758,0 -5.359,1.09 -7.301,3.027 l -0.25,0.254 c 0,0 25.945,25.926 26.137,26.117 0,0.289 0,32.441 0,32.441 h 0.371 c 5.684,0 10.32,-4.637 10.32,-10.324 0,0 0,-21.828 0,-22.117 0.191,-0.191 26.117,-26.117 26.117,-26.117 l -0.254,-0.254 c -1.933,-1.937 -4.534,-3.027 -7.288,-3.027 z"
       id="path52"
       inkscape:connector-curvature="0"
       style="clip-rule:evenodd;fill:#55bb68;fill-rule:evenodd" /><path
       d="m 158.166,583.543 v 61.84 h 0.354 c 5.703,0 10.334,-4.637 10.334,-10.324 0,0 0,-21.07 0,-22.66 1.154,1.141 28.693,28.234 28.693,28.234 5.234,5.219 14.254,5.176 14.648,5.176 h 4.711 l -24.453,-24.387 c -0.406,-0.406 -0.764,-0.719 -1.086,-0.973 0.701,0.059 1.635,0.102 2.906,0.117 h 0.291 -0.051 c 10.094,0 18.6,-8.598 18.6,-18.766 0,-10.074 -8.197,-18.258 -18.268,-18.258 h -36.679 z m 36.68,10.363 c 4.264,0 7.889,3.781 7.889,8.227 0,4.402 -4.4,8.867 -8.725,8.867 0,0 -24.467,0 -25.156,0 0,-0.66 0.008,-16.422 0.008,-17.094 0.687,0 25.984,0 25.984,0 z"
       id="path54"
       inkscape:connector-curvature="0"
       style="clip-rule:evenodd;fill:#55bb68;fill-rule:evenodd" /><path
       d="m 224.045,564.566 h -7.178 l -1.344,-7.59 c -0.57,-3.137 -1.168,-6.578 -1.275,-8.223 h -0.037 c -0.08,1.316 -0.643,4.809 -1.285,8.223 l -1.385,7.59 h -7.314 l -6.336,-26.16 h 7.08 l 1.475,7.047 c 1.232,5.898 1.457,8.441 1.496,9.43 h 0.041 c 0.145,-2.117 0.6,-5.375 1.316,-9.234 l 1.338,-7.242 h 7.475 l 1.686,8.738 c 0.367,1.988 0.895,4.5 1.049,7.695 h 0.037 c 0.156,-2.324 0.941,-7.387 1.477,-9.953 l 1.299,-6.48 h 7.172 z"
       id="path56"
       inkscape:connector-curvature="0"
       style="clip-rule:evenodd;fill:#006dab;fill-rule:evenodd" /><path
       d="m 244.637,559.719 c -2.777,0 -4.391,-1.652 -4.391,-8.324 0,-4.992 1.275,-8.191 4.32,-8.191 2.883,0 4.16,1.57 4.16,8.105 0.001,6.714 -1.24,8.41 -4.089,8.41 z m -0.119,5.297 c 9.354,0 11.713,-7.031 11.713,-14.543 0,-5.738 -2.59,-12.531 -11.477,-12.531 -6.908,0 -12.014,4.895 -12.014,14.203 0,7.839 4.213,12.871 11.778,12.871 z"
       id="path58"
       inkscape:connector-curvature="0"
       style="clip-rule:evenodd;fill:#006dab;fill-rule:evenodd" /><path
       d="m 269.344,543.922 c 2.109,0 3.115,0.598 3.115,2.48 0,1.766 -0.793,2.832 -3.07,2.832 h -1.914 v -5.313 h 1.869 z m 11.713,20.644 c -0.854,-1.961 -3.086,-6.816 -3.938,-8.559 -0.643,-1.359 -1.73,-2.559 -2.633,-2.813 3.076,-0.527 5.447,-2.816 5.447,-7.336 0,-4.348 -2.488,-7.453 -10.172,-7.453 h -9.002 v 26.16 h 6.715 v -10.363 c 1.465,0 2.068,0.328 3.084,3.031 l 2.734,7.332 h 7.765 z"
       id="path60"
       inkscape:connector-curvature="0"
       style="clip-rule:evenodd;fill:#006dab;fill-rule:evenodd" /><polygon
       points="302.215,558.996 300.133,564.566 285.723,564.566 285.723,538.406 292.508,538.406 292.508,558.996 "
       id="polygon62"
       style="clip-rule:evenodd;fill:#006dab;fill-rule:evenodd" /><path
       d="m 319.113,550.785 c 0,7.238 -1.496,8.168 -3.379,8.168 h -2.246 v -15.031 h 2.074 c 2.02,0 3.551,0.777 3.551,6.863 z m 7.391,0.215 c 0,-5.313 -1.297,-8.926 -4.266,-10.977 -2.098,-1.461 -4.426,-1.617 -6.23,-1.617 h -9.234 v 26.16 h 9.488 c 3.531,0 5.629,-1.168 7.273,-3.168 2.387,-2.808 2.969,-6.343 2.969,-10.398 z"
       id="path64"
       inkscape:connector-curvature="0"
       style="clip-rule:evenodd;fill:#006dab;fill-rule:evenodd" /><path
       d="m 351.715,565.016 c -3.242,0 -6.168,-0.977 -8.563,-3.617 -2.074,-2.289 -3.004,-5.699 -3.004,-9.41 0,-3.277 0.52,-5.742 1.805,-8.109 2.211,-4.094 5.992,-5.938 10.574,-5.938 2.66,0 5.477,0.758 6.691,1.926 l -2.871,4.945 c -1.16,-0.891 -2.461,-1.379 -3.895,-1.379 -1.168,0 -2.254,0.289 -2.934,1.012 -1.262,1.316 -1.691,2.652 -1.691,5.738 0,4.309 0.199,6.387 1.285,7.672 0.871,1.004 1.938,1.625 3.34,1.625 1.684,0 3.043,-0.406 4.496,-1.73 l 2.895,4.586 c -1.648,1.55 -4.308,2.679 -8.128,2.679 z"
       id="path66"
       inkscape:connector-curvature="0"
       style="clip-rule:evenodd;fill:#006dab;fill-rule:evenodd" /><path
       d="m 383.613,556.492 c 0,2.254 -0.078,3.262 -0.641,4.313 -1.086,2.172 -4.016,4.211 -9.195,4.211 -4.117,0 -6.992,-1.129 -8.559,-3.266 -0.973,-1.434 -1.262,-2.074 -1.262,-5.566 v -17.777 h 6.754 v 17.078 c 0,2.387 0.734,3.996 3.102,3.996 2.406,0 3.086,-1.336 3.086,-3.902 v -17.172 h 6.715 z"
       id="path68"
       inkscape:connector-curvature="0"
       style="clip-rule:evenodd;fill:#006dab;fill-rule:evenodd" /><path
       d="m 398.301,543.922 c 1.613,0 2.715,0.406 2.715,2.578 0,2.852 -0.984,3.414 -3.102,3.414 h -1.941 v -5.992 z m 10.012,2.617 c 0,-5.957 -3.879,-8.133 -10.535,-8.133 h -8.52 v 26.16 h 6.715 v -9.313 h 2.094 c 8.562,10e-4 10.246,-4.855 10.246,-8.714 z"
       id="path70"
       inkscape:connector-curvature="0"
       style="clip-rule:evenodd;fill:#006dab;fill-rule:evenodd" /><polygon
       points="117.422,549.41 117.422,544.133 127.1,544.133 129.234,538.449 109.152,538.449 109.152,564.566 117.422,564.566 117.422,555.113 123.146,555.113 125.389,549.41 "
       id="polygon72"
       style="clip-rule:evenodd;fill:#006dab;fill-rule:evenodd" /><polygon
       points="140.053,564.566 140.053,538.449 131.939,538.449 131.918,564.566 "
       id="polygon74"
       style="clip-rule:evenodd;fill:#006dab;fill-rule:evenodd" /><path
       d="m 170.82,538.449 -9.422,26.117 h 7.908 l 1.012,-3.531 h 9.197 l 1.045,3.531 h 8.143 l -9.445,-26.117 z m 0.942,17.578 3.131,-10.863 3.273,10.863 z"
       id="path76"
       inkscape:connector-curvature="0"
       style="clip-rule:evenodd;fill:#006dab;fill-rule:evenodd" /><polygon
       points="145.887,564.566 154.145,564.566 154.145,555.113 159.879,555.113 162.109,549.41 154.145,549.41 154.145,544.133 163.854,544.133 165.969,538.449 145.887,538.449 "
       id="polygon78"
       style="clip-rule:evenodd;fill:#006dab;fill-rule:evenodd" /><path
       d="m 231.738,663.488 c -5.152,0 -10.02,2.098 -13.707,5.883 -3.648,3.746 -5.666,8.672 -5.666,13.871 0,5.203 2.018,10.129 5.666,13.891 3.688,3.789 8.555,5.859 13.707,5.859 h 8.268 c 5.152,0 10.021,-2.07 13.709,-5.859 3.66,-3.762 5.678,-8.688 5.678,-13.891 0,-5.199 -2.018,-10.125 -5.678,-13.871 -3.688,-3.785 -8.557,-5.883 -13.709,-5.883 z m -11.394,19.754 c 0,-6.383 5.215,-11.762 11.395,-11.762 h 8.268 c 6.178,0 11.402,5.379 11.402,11.762 0,6.387 -5.225,11.758 -11.402,11.758 h -8.268 c -6.18,0 -11.395,-5.371 -11.395,-11.758 z"
       id="path80"
       inkscape:connector-curvature="0"
       style="clip-rule:evenodd;fill:#55bb68;fill-rule:evenodd" /><path
       d="m 283.777,663.488 c -5.154,0 -10.029,2.098 -13.705,5.883 -3.654,3.746 -5.672,8.672 -5.672,13.871 0,5.203 2.018,10.129 5.672,13.891 3.676,3.789 8.551,5.859 13.705,5.859 h 8.266 c 5.16,0 10.016,-2.07 13.703,-5.859 3.664,-3.762 5.684,-8.688 5.684,-13.891 0,-5.199 -2.02,-10.125 -5.684,-13.871 -3.688,-3.785 -8.563,-5.883 -13.703,-5.883 z m -11.392,19.754 c 0,-6.383 5.215,-11.762 11.393,-11.762 h 8.266 c 6.176,0 11.391,5.379 11.391,11.762 0,6.387 -5.215,11.758 -11.391,11.758 h -8.266 c -6.178,0 -11.393,-5.371 -11.393,-11.758 z"
       id="path82"
       inkscape:connector-curvature="0"
       style="clip-rule:evenodd;fill:#55bb68;fill-rule:evenodd" /><path
       d="m 335.395,663.488 c -5.164,0 -10.031,2.098 -13.699,5.883 -3.668,3.746 -5.688,8.672 -5.688,13.871 0,5.203 2.02,10.129 5.688,13.891 3.668,3.789 8.535,5.859 13.699,5.859 h 15.965 c 6.348,0 11.688,-5.527 11.688,-12.09 0,-6.414 -5.242,-11.656 -11.688,-11.656 0,0 -25.242,0 -26.641,0 1.707,-4.605 6,-7.766 10.676,-7.766 h 17.172 c 4.113,0 7.469,-3.352 7.469,-7.465 v -0.527 z m 15.964,23.731 c 2.039,0 3.707,1.648 3.707,3.684 0,2.16 -1.762,4.098 -3.707,4.098 h -15.965 c -4.676,0 -8.969,-3.16 -10.676,-7.781 1.384,-10e-4 26.641,-10e-4 26.641,-10e-4 z"
       id="path84"
       inkscape:connector-curvature="0"
       style="clip-rule:evenodd;fill:#55bb68;fill-rule:evenodd" /><path
       d="m 167.373,663.488 v 0.527 c 0,4.113 3.344,7.465 7.465,7.465 h 21.693 c 2.135,0 3.879,1.75 3.879,3.883 0,2.133 -1.744,3.883 -3.879,3.883 h -19.482 c -6.537,0 -11.867,5.313 -11.867,11.852 v 11.895 h 43.225 v -0.52 c 0,-4.113 -3.355,-7.473 -7.482,-7.473 0,0 -26.75,0 -27.752,0 0,-0.816 0,-3.902 0,-3.902 0,-2.129 1.742,-3.855 3.877,-3.855 h 19.482 c 6.551,0 11.875,-5.344 11.875,-11.879 0,-6.543 -5.324,-11.875 -11.875,-11.875 h -29.159 z"
       id="path86"
       inkscape:connector-curvature="0"
       style="clip-rule:evenodd;fill:#55bb68;fill-rule:evenodd" /><path
       d="m 502.391,422.352 -1.379,-0.273 c -0.117,0.758 -0.395,1.281 -0.934,1.766 -0.75,0.68 -1.727,0.895 -2.734,0.449 -0.602,-0.258 -1.203,-0.707 -2.055,-1.672 -0.84,-0.93 -1.281,-1.73 -1.438,-2.426 -0.191,-0.914 0.039,-1.75 0.719,-2.348 0.5,-0.449 1.027,-0.676 1.727,-0.762 l -0.176,-1.371 c -0.797,0 -1.746,0.441 -2.508,1.105 -1.215,1.105 -1.68,2.754 -1.254,4.406 0.23,0.949 0.773,1.895 1.625,2.832 1.012,1.145 2.156,1.809 3.379,1.996 1.262,0.191 2.465,-0.152 3.492,-1.082 0.856,-0.761 1.321,-1.593 1.536,-2.62 z m 1.746,-7.59 c -3.531,-3.938 -9.469,-4.172 -13.254,-0.777 -3.82,3.414 -4.191,9.297 -0.66,13.234 3.531,3.957 9.406,4.234 13.234,0.816 3.781,-3.414 4.211,-9.312 0.68,-13.273 z m -1.36,1.222 c 2.93,3.281 2.754,8.129 -0.332,10.906 -3.117,2.793 -7.938,2.41 -10.863,-0.871 -2.969,-3.324 -2.797,-8.094 0.328,-10.887 3.086,-2.773 7.899,-2.444 10.867,0.852 z"
       id="path88"
       inkscape:connector-curvature="0"
       style="clip-rule:evenodd;fill-rule:evenodd" /><path
       d="m 523.031,406.59 -6.359,7.672 -1.129,-0.914 c 0.059,-1.246 -0.098,-3.223 -0.426,-5.434 -0.563,-3.918 -1.473,-5.918 -2.777,-7.004 -1.391,-1.172 -3.082,-1.016 -4.109,0.234 -0.738,0.875 -0.992,1.746 -1.148,3.719 -0.016,0.023 -0.016,0.215 -0.035,0.238 l -1.691,0.055 c -0.035,-2.48 0.508,-4.367 1.789,-5.918 1.742,-2.098 4.594,-2.363 6.656,-0.645 1.203,0.977 2.055,2.641 2.465,4.566 0.211,1.043 0.406,2.289 0.543,3.629 0.234,1.902 0.383,3.668 0.285,4.09 0.082,-0.129 0.797,-1.121 1.383,-1.824 l 3.391,-4.07 z"
       id="path90"
       inkscape:connector-curvature="0"
       style="clip-rule:evenodd;fill-rule:evenodd" /><path
       d="m 529.301,398.594 c -0.773,1.129 -1.746,1.73 -3.145,1.965 -1.918,0.352 -4.617,-0.25 -7.43,-2.195 -3.914,-2.695 -5.527,-6.941 -3.684,-9.621 1.477,-2.133 3.816,-2.309 5.453,-2.094 1.645,0.254 3.59,1.16 4.984,2.129 4.31,2.956 5.822,6.925 3.822,9.816 z m -8.848,-9.567 c -1.844,-0.617 -3.18,-0.305 -3.883,0.727 -0.578,0.832 -0.422,1.996 0.355,3.277 0.656,1.043 1.727,2.078 3.316,3.18 1.453,1.012 2.754,1.668 3.711,2.004 1.859,0.594 3.254,0.309 3.914,-0.664 0.617,-0.891 0.43,-2.273 -0.465,-3.547 -0.703,-1.016 -1.863,-2.02 -3.355,-3.047 -1.441,-0.988 -2.409,-1.535 -3.593,-1.93 z"
       id="path92"
       inkscape:connector-curvature="0"
       style="clip-rule:evenodd;fill-rule:evenodd" /><path
       d="m 531.609,378.188 c 1.578,0.875 2.832,1.785 3.613,2.715 1.027,1.199 1.34,2.539 0.813,3.496 -0.559,1.023 -1.941,1.453 -3.84,1.023 -0.973,-0.23 -2.328,-0.773 -3.879,-1.645 -1.668,-0.93 -2.836,-1.867 -3.59,-2.855 -0.914,-1.184 -1.168,-2.344 -0.68,-3.219 0.621,-1.086 1.898,-1.535 3.801,-1.086 1.2,0.266 2.231,0.715 3.762,1.571 z m 1.223,-2.313 c -1.473,-0.809 -3.512,-1.551 -5.18,-1.629 -1.629,-0.074 -3.938,0.332 -5.219,2.602 -1.57,2.836 0.426,6.906 4.582,9.219 2.984,1.668 5.723,2.016 7.602,1.492 1.383,-0.371 2.273,-1.051 2.949,-2.254 1.707,-3.078 -0.171,-6.883 -4.734,-9.43 z"
       id="path94"
       inkscape:connector-curvature="0"
       style="clip-rule:evenodd;fill-rule:evenodd" /><path
       d="m 545.738,367.672 -4.055,9.117 -1.324,-0.586 c -0.309,-1.223 -0.969,-3.066 -1.898,-5.117 -1.613,-3.605 -3.008,-5.301 -4.559,-5.992 -1.672,-0.734 -3.242,-0.133 -3.902,1.348 -0.465,1.043 -0.484,1.945 -0.098,3.891 -0.016,0.035 0.039,0.207 0.039,0.25 l -1.609,0.48 c -0.738,-2.367 -0.719,-4.316 0.098,-6.152 1.105,-2.5 3.781,-3.531 6.246,-2.434 1.398,0.625 2.676,1.996 3.613,3.738 0.484,0.941 1.004,2.074 1.492,3.336 0.758,1.77 1.359,3.43 1.398,3.859 0.039,-0.152 0.465,-1.297 0.836,-2.133 l 2.148,-4.836 z"
       id="path96"
       inkscape:connector-curvature="0"
       style="clip-rule:evenodd;fill-rule:evenodd" /><polygon
       points="544.496,345.809 542.598,345.244 541.121,350.203 536.059,348.688 537.84,342.641 536.016,341.752 533.438,350.475 550.164,355.453 550.859,353.092 543.02,350.768 "
       id="polygon98"
       style="clip-rule:evenodd;fill-rule:evenodd" /><polygon
       points="536.422,339.684 536.992,337.26 554.004,341.199 553.441,343.619 "
       id="polygon100"
       style="clip-rule:evenodd;fill-rule:evenodd" /><polygon
       points="547.309,332.934 555.379,334.332 554.973,336.748 537.77,333.791 539.293,324.822 541.219,325.482 540.152,331.699 545.367,332.604 546.242,327.514 548.203,327.838 "
       id="polygon102"
       style="clip-rule:evenodd;fill-rule:evenodd" /><path
       d="m 550.547,317.146 -0.445,4.893 c -0.793,-0.377 -6.867,-2.77 -7.816,-3.115 v -0.156 c 1.027,-0.131 7.433,-1.395 8.261,-1.622 z m 7.375,-4.167 -17.91,4.033 -0.273,3.031 16.906,7.268 0.211,-2.529 -4.773,-1.959 0.543,-6.025 5.047,-1.092 z"
       id="path104"
       inkscape:connector-curvature="0"
       style="clip-rule:evenodd;fill-rule:evenodd" /><polygon
       points="557.73,297.045 542.324,297.715 542.133,293.189 540.094,293.021 540.594,304.736 542.613,304.654 542.418,300.123 557.848,299.453 "
       id="polygon106"
       style="clip-rule:evenodd;fill-rule:evenodd" /><path
       d="m 554.684,271.629 -17,4.141 0.547,3.406 11.156,1.348 c 1.207,0.146 2.352,0.178 2.793,0.188 v 0.049 c -0.367,0.104 -1.379,0.473 -2.734,1.064 l -10.113,4.541 0.523,3.375 17.465,-1.117 -0.367,-2.357 -11.543,0.904 c -0.914,0.059 -2.5,0.234 -3.109,0.305 l -0.016,-0.049 c 0.445,-0.176 1.707,-0.68 2.969,-1.264 l 10.922,-4.918 -0.309,-2.084 -12.516,-1.572 c -0.969,-0.127 -2.074,-0.215 -2.602,-0.236 v -0.057 c 0.504,-0.102 1.789,-0.33 2.719,-0.545 l 11.602,-2.721 z"
       id="path108"
       inkscape:connector-curvature="0"
       style="clip-rule:evenodd;fill-rule:evenodd" /></g></svg>