<?xml version="1.0" encoding="utf-8" standalone="no"?>

<!DOCTYPE svg PUBLIC "-//W3C//DTD SVG 1.1//EN" "http://www.w3.org/Graphics/SVG/1.1/DTD/svg11.dtd">
<svg version="1.1" id="Layer_1" xmlns="http://www.w3.org/2000/svg" xmlns:xlink="http://www.w3.org/1999/xlink" x="0px" y="0px"
	 width="302px" height="346px" viewBox="0 0 302 346" enable-background="new 0 0 302 346" xml:space="preserve">
<g>
	<path fill="#FFFFFF" d="M300.399,344.311V38.217c0-19.227-15.58-34.807-34.792-34.807H3.322v321.434
		c0,10.747,8.721,19.467,19.471,19.467H300.399z"/>
	<path fill="#004B97" d="M66.64,315.106H3.329v9.737c0,10.747,8.726,19.467,19.484,19.467h277.587V124.66
		C278.126,233.355,181.916,315.106,66.64,315.106"/>
	<path fill="#3C9CD7" d="M300.399,59.023c-6.817,11.36-19.042,19.116-33.092,19.711c1.316,10.254,2.033,20.727,2.033,31.392
		c0,48.494-14.271,93.382-38.466,129.952c42.815-45.294,69.524-109.466,69.524-180.656
		C300.399,59.298,300.399,59.166,300.399,59.023"/>
	<polygon fill="#FFFFFF" points="63.531,322.786 67.28,322.786 69.053,333.381 69.089,333.381 70.954,322.786 75.604,322.786 
		77.564,333.381 77.603,333.381 79.393,322.786 82.976,322.786 79.883,336.58 75.161,336.58 73.212,325.992 73.176,325.992 
		71.342,336.58 66.604,336.58 	"/>
	<path fill="#FFFFFF" d="M91.204,322.563c4.547,0,6.908,2.68,6.908,7.134c0,4.373-2.4,7.128-6.908,7.128
		c-4.511,0-6.915-2.755-6.915-7.128C84.289,325.243,86.656,322.563,91.204,322.563 M91.204,334.09c2.239,0,3.14-2.127,3.14-4.393
		c0-2.402-0.901-4.427-3.14-4.427c-2.239,0-3.12,2.024-3.12,4.427C88.083,331.963,88.964,334.09,91.204,334.09"/>
	<polygon fill="#FFFFFF" points="100.469,322.786 106.265,322.786 109.181,331.963 109.233,331.963 112.285,322.786 
		117.867,322.786 117.867,336.58 114.263,336.58 114.332,325.992 114.271,325.992 110.764,336.58 107.379,336.58 104.028,325.992 
		103.998,325.992 104.062,336.58 100.469,336.58 	"/>
	<polygon fill="#FFFFFF" points="120.625,322.786 130.35,322.786 130.35,325.406 124.298,325.406 124.298,328.259 130.009,328.259 
		130.009,330.857 124.298,330.857 124.298,333.996 130.572,333.996 130.572,336.58 120.625,336.58 	"/>
	<polygon fill="#FFFFFF" points="133.254,322.786 137.929,322.786 142.604,332.15 142.624,332.15 142.573,322.786 145.931,322.786 
		145.931,336.58 141.372,336.58 136.549,327.167 136.521,327.167 136.624,336.58 133.254,336.58 	"/>
	<polygon fill="#FFFFFF" points="149.13,322.786 152.447,322.786 150.515,328.148 147.798,328.148 	"/>
	<path fill="#FFFFFF" d="M154.455,333.192c0.947,0.503,2.271,0.908,3.772,0.908c1.191,0,2.293-0.247,2.293-1.347
		c0-2.578-6.519-0.954-6.519-5.958c0-3.343,3.229-4.246,6-4.246c1.321,0,2.627,0.217,3.56,0.517l-0.249,2.848
		c-0.941-0.43-1.993-0.632-3.059-0.632c-0.928,0-2.462,0.078-2.462,1.281c0,2.25,6.52,0.731,6.52,5.709
		c0,3.586-2.992,4.553-6.084,4.553c-1.275,0-2.873-0.191-4.089-0.591L154.455,333.192z"/>
	<polygon fill="#FFFFFF" points="172.193,322.786 175.943,322.786 177.733,333.381 177.762,333.381 179.621,322.786 
		184.291,322.786 186.229,333.381 186.265,333.381 188.067,322.786 191.637,322.786 188.56,336.58 183.833,336.58 181.872,325.992 
		181.84,325.992 180.005,336.58 175.263,336.58 	"/>
	<path fill="#FFFFFF" d="M199.89,322.563c4.526,0,6.894,2.68,6.894,7.134c0,4.373-2.396,7.128-6.894,7.128
		c-4.516,0-6.918-2.755-6.918-7.128C192.972,325.243,195.333,322.563,199.89,322.563 M199.89,334.09
		c2.212,0,3.097-2.127,3.097-4.393c0-2.402-0.885-4.427-3.097-4.427c-2.257,0-3.118,2.024-3.118,4.427
		C196.771,331.963,197.633,334.09,199.89,334.09"/>
	<path fill="#FFFFFF" d="M209.147,322.786h6.552c2.467,0,4.458,1.114,4.458,3.488c0,1.824-0.871,3.049-2.673,3.479v0.054
		c1.193,0.309,1.279,1.334,1.971,3.014l1.336,3.759h-3.82l-0.793-2.49c-0.738-2.362-1.227-2.948-2.571-2.948h-0.797v5.438h-3.662
		V322.786z M212.81,328.52h0.987c1.176,0,2.677-0.044,2.677-1.612c0-1.276-1.304-1.501-2.677-1.501h-0.987V328.52z"/>
	<polygon fill="#FFFFFF" points="222.803,322.786 226.469,322.786 226.469,333.854 232.164,333.854 232.164,336.58 222.803,336.58 	
		"/>
	<path fill="#FFFFFF" d="M234.193,322.786h5.017c4.797,0,8.164,1.499,8.164,6.863c0,5.139-3.464,6.931-8.164,6.931h-5.017V322.786z
		 M237.863,333.854h1.421c2.755,0,4.304-1.404,4.304-4.156c0-2.747-1.617-4.174-4.304-4.174h-1.421V333.854z"/>
	<path fill="#FFFFFF" d="M267.891,336.265c-1.035,0.258-2.205,0.561-4.074,0.561c-3.682,0-7.938-1.859-7.938-7.071
		c0-4.797,3.356-7.204,7.919-7.204c1.391,0,2.771,0.322,4.067,0.719l-0.282,2.986c-1.169-0.661-2.332-0.973-3.599-0.973
		c-2.597,0-4.285,1.915-4.285,4.472c0,2.695,1.896,4.347,4.588,4.347c1.216,0,2.436-0.321,3.439-0.709L267.891,336.265z"/>
	<path fill="#FFFFFF" d="M281.896,331.356c0,3.76-2.438,5.469-6.034,5.469c-3.6,0-6.043-1.709-6.043-5.469v-8.57h3.668v7.953
		c0,1.828,0.487,3.361,2.375,3.361c1.877,0,2.362-1.533,2.362-3.361v-7.953h3.672V331.356z"/>
	<path fill="#FFFFFF" d="M284.473,322.786h4.388c4.216,0,6.189,1.415,6.189,4.54c0,2.773-2.043,4.449-5.481,4.449h-1.408v4.805
		h-3.688V322.786z M288.16,329.136h0.937c1.259,0,2.265-0.416,2.265-1.862c0-1.414-1.006-1.867-2.265-1.867h-0.937V329.136z"/>
	<polygon fill-rule="evenodd" clip-rule="evenodd" fill="#FFFFFF" points="196.549,282.751 196.549,315.059 206.73,315.059 
		206.73,303.369 213.803,303.369 216.579,296.329 206.73,296.329 206.73,289.762 218.714,289.762 221.354,282.751 	"/>
	<polygon fill-rule="evenodd" clip-rule="evenodd" fill="#FFFFFF" points="224.649,282.751 224.636,315.059 234.705,315.059 
		234.705,282.751 	"/>
	<path fill-rule="evenodd" clip-rule="evenodd" fill="#FFFFFF" d="M272.631,282.823L261.03,315.1h9.736l1.253-4.354h11.339
		l1.34,4.354h10.019l-11.614-32.276H272.631z M277.7,291.131l-3.881,13.438h7.889L277.7,291.131z"/>
	<polygon fill-rule="evenodd" clip-rule="evenodd" fill="#FFFFFF" points="241.886,282.751 241.886,315.059 252.071,315.059 
		252.071,303.369 259.15,303.369 261.93,296.329 252.071,296.329 252.071,289.762 264.054,289.762 266.671,282.751 	"/>
	<path fill="#004B97" d="M265.607,3.41c-19.193,0-34.798,15.604-34.798,34.799c0,19.184,15.604,34.809,34.798,34.809
		s34.792-15.625,34.792-34.809C300.399,19.014,284.801,3.41,265.607,3.41 M257.588,26.269c-1.896-2.008-3.076-4.691-3.076-7.675
		c0-5.663,4.235-10.296,9.721-10.994v8.439c-3.926,0.667-6.914,4.07-6.914,8.171C257.318,24.915,257.434,25.604,257.588,26.269
		 M265.617,18.703h1.407v-5.631c2.565,0.634,4.471,2.941,4.471,5.688c0,3.236-2.64,5.869-5.878,5.869
		c-2.032,0-3.903-1.056-4.954-2.774C261.548,19.999,263.431,18.703,265.617,18.703 M234.594,38.209
		c0-13.619,8.846-25.199,21.088-29.349c-2.467,2.514-3.985,5.941-3.985,9.734c0,7.1,5.368,12.915,12.248,13.751
		c0.555,0.123,1.108,0.18,1.673,0.18h0.076c-2.833,1.64-5.387,3.753-7.362,6.186l-0.712,0.867l0.678,0.884
		c3.069,3.972,1.652,16.015-4.553,26.398C242.527,62.188,234.594,51.111,234.594,38.209 M261.135,39.806
		c2.416-2.681,5.642-4.908,9.09-6.34c-1.369,9.34-4.322,17.235-9.627,25.069c1.344-4.094,2.072-8.122,2.072-11.601
		C262.67,44.079,262.158,41.644,261.135,39.806 M256.914,67.96c4.897-5.696,8.559-11.266,11.225-17.126
		c2.789,5.237,4.756,10.917,5.961,17.188c-2.707,0.777-5.555,1.196-8.492,1.196C262.586,69.217,259.698,68.781,256.914,67.96
		 M276.8,67.121c-1.433-7.203-3.834-13.668-7.272-19.557c1.932-5.057,3.178-10.332,3.85-16.091l0.234-2.117
		c-3.15,0.668-5.903,0.724-7.667,0.599c-2.527-0.187-4.885-1.966-5.615-4.311c1.507,1.15,3.339,1.787,5.288,1.787
		c4.8,0,8.689-3.896,8.689-8.67c0-4.307-3.156-7.877-7.282-8.544V7.244c16.447,0.754,29.579,14.361,29.579,30.965
		C296.604,51.356,288.371,62.625,276.8,67.121"/>
	<path fill="#EF3E33" d="M113.274,238.341c-62.573-2.21-109.026-31.282-107.098-65.906c-0.18,0.626-0.375,1.247-0.54,1.866
		c-12.258,47.918,25.082,86.77,90.845,86.795c57.792,0.022,119.619-30.671,140.622-70.494
		C219.857,219.439,169.236,240.323,113.274,238.341"/>
	<path d="M129.973,229.571L129.973,229.571c-2.193,0-4.4-0.041-6.579-0.11c-9.53-0.346-18.894-1.409-27.767-3.199
		c-8.597-1.707-16.736-4.092-24.21-7.067c-14.663-5.838-26.43-13.872-34.039-23.184c-3.86-4.7-6.584-9.701-8.147-14.849
		c-1.6-5.27-1.965-10.696-1.04-16.152c0.638-3.868,1.918-7.674,3.791-11.407c0.518,10.983,11.334,21.835,30.707,30.734
		c4.691,2.158,9.876,4.182,15.423,6.021c5.565,1.847,11.526,3.526,17.726,4.962c12.839,3.014,26.542,5.044,40.663,6.032
		c6.382,0.45,12.753,0.678,18.984,0.678c11.694,0,22.896-0.785,33.292-2.345c10.189-1.521,19.316-3.748,27.154-6.606
		c7.942-2.904,14.308-6.374,18.938-10.335c0.716-0.608,1.404-1.249,2.032-1.878c-0.395,0.937-0.825,1.839-1.292,2.776
		c-1.907,3.693-4.414,7.338-7.498,10.798c-3.014,3.417-6.612,6.727-10.692,9.808c-4.02,3.055-8.591,5.916-13.516,8.536
		c-4.961,2.595-10.312,4.968-15.95,7.012c-5.712,2.084-11.728,3.851-17.935,5.292C157.162,228.052,143.682,229.571,129.973,229.571"
		/>
	<path fill="#FEBE10" d="M66.64,307.8c70.188,0,130.993-35.79,160.745-88.021c4.298-7.543,7.421-16.852,7.881-18.631
		c-25.598,44.129-86.266,72.883-142.931,72.91c-39.061,0.028-70.705-12.908-89.006-33.313V307.8H66.64z"/>
	<path fill="#6EC05D" d="M240.585,164.643c-19.375-10.207-47.83-17.282-78.089-19.394c-6.29-0.449-12.597-0.669-18.736-0.669
		c-23.456,0-44.955,3.279-60.521,9.206c-3.792,1.432-7.203,3.028-10.157,4.733c-2.965,1.707-5.498,3.538-7.543,5.455
		c-4.082,3.821-6.208,7.954-6.327,12.278c-0.028,0.876,0.036,1.769,0.197,2.688c1.509,0.79,3.059,1.546,4.68,2.301
		c4.595,2.104,9.671,4.09,15.108,5.879c5.476,1.824,11.33,3.469,17.41,4.896c12.675,2.96,26.188,4.943,40.131,5.934
		c6.299,0.45,12.597,0.667,18.738,0.667c11.545,0,22.57-0.777,32.786-2.309c9.962-1.492,18.887-3.653,26.5-6.428
		c7.566-2.76,13.583-6.041,17.9-9.718c3.942-3.396,8.02-7.834,8.646-15.138L240.585,164.643z"/>
	<path fill="#FFFFFF" d="M213.46,190.309l-34.514-14.351c2.737-0.959,4.771-2.069,6.078-3.271c1.296-1.184,1.877-2.412,1.786-3.661
		c-0.102-1.232-0.842-2.459-2.256-3.632c-1.368-1.147-3.372-2.255-6.011-3.244c-2.601-0.978-5.587-1.783-8.784-2.385
		c-3.161-0.595-6.574-1.013-10.047-1.238c-3.461-0.234-7.001-0.272-10.46-0.128c-3.508,0.138-6.917,0.495-10.108,1.053
		l-29.658-12.313c-1.733,0.282-3.431,0.572-5.11,0.884l29.567,12.589h-0.006c-2.806,0.779-5.061,1.704-6.735,2.734
		c-1.706,1.049-2.818,2.195-3.286,3.398c-0.487,1.219-0.282,2.49,0.621,3.742c0.934,1.281,2.617,2.537,5.092,3.705
		c2.488,1.205,5.591,2.177,9.066,2.935c3.515,0.792,7.386,1.346,11.394,1.654c4.006,0.283,8.123,0.324,12.13,0.107
		c3.979-0.227,7.824-0.692,11.298-1.439l34.386,14.647C209.823,191.534,211.666,190.932,213.46,190.309 M160.049,176.358
		c-3.035,0.132-6.119,0.079-9.155-0.151c-3.002-0.248-5.887-0.638-8.547-1.224c-2.618-0.572-4.978-1.319-6.922-2.217
		c-1.907-0.893-3.213-1.851-3.999-2.796c-0.76-0.958-0.982-1.925-0.72-2.869c0.266-0.915,1.035-1.794,2.241-2.632
		c1.194-0.813,2.857-1.547,4.938-2.176l30.791,13.106C165.979,175.903,163.057,176.224,160.049,176.358 M174.067,173.943
		L174.067,173.943l-30.944-12.833c2.491-0.433,5.165-0.678,7.872-0.783c2.688-0.089,5.449-0.037,8.129,0.151
		c2.708,0.189,5.323,0.531,7.809,0.998c2.453,0.494,4.747,1.121,6.73,1.882c2.004,0.779,3.534,1.627,4.544,2.517
		c1.061,0.899,1.614,1.853,1.675,2.778c0.094,0.957-0.371,1.9-1.333,2.793C177.578,172.36,176.093,173.208,174.067,173.943"/>
	<path fill="#A7A9AC" d="M40.629,165.095c-0.913-1.07-1.708-2.167-2.398-3.248c-1.973-3.17-2.935-6.335-2.851-9.423
		c0.127-4.327,2.244-8.458,6.329-12.274c2.052-1.914,4.57-3.742,7.552-5.446c2.966-1.711,6.372-3.294,10.149-4.741
		c7.653-2.91,16.715-5.191,26.902-6.773c10.44-1.616,21.763-2.431,33.615-2.431c6.167,0,12.457,0.225,18.759,0.679
		c11.404,0.798,22.543,2.278,33.185,4.43c10.284,2.061,19.885,4.691,28.545,7.834c8.117,2.922,15.222,6.225,21.121,9.809
		c-19.291-8.987-46.011-15.324-74.438-17.314c-6.393-0.458-12.776-0.685-19.005-0.685c-23.873,0-45.783,3.356-61.731,9.435
		c-8.04,3.057-14.369,6.718-18.785,10.87c-4.801,4.48-7.301,9.414-7.433,14.675C40.102,162.028,40.257,163.566,40.629,165.095"/>
	<path fill="#A7A9AC" d="M48.289,172.112c-0.338-0.25-0.643-0.477-0.959-0.715c-2.613-3.644-3.888-7.278-3.791-10.809
		c0.133-4.334,2.245-8.454,6.332-12.28c2.06-1.908,4.576-3.744,7.55-5.447c2.961-1.713,6.381-3.291,10.154-4.736
		c7.653-2.913,16.699-5.191,26.897-6.778c10.439-1.615,21.759-2.419,33.623-2.419c6.158,0,12.468,0.218,18.756,0.668
		c9.561,0.661,18.995,1.833,28.062,3.458c8.807,1.557,17.203,3.558,25.021,5.946c11.053,3.357,20.685,7.386,28.384,11.84
		c-1.24-0.555-2.514-1.119-3.835-1.657c-6.157-2.579-12.983-4.921-20.27-6.941c-7.416-2.058-15.3-3.803-23.436-5.172
		c-8.394-1.406-17.106-2.446-25.869-3.063c-6.351-0.439-12.734-0.669-18.971-0.669c-23.868,0-45.806,3.352-61.754,9.427
		c-8.02,3.061-14.353,6.723-18.808,10.882c-4.758,4.473-7.275,9.408-7.396,14.67C47.919,169.584,48.03,170.838,48.289,172.112"/>
	<path fill="#A7A9AC" d="M55.795,176.968c-1.021-0.586-2.018-1.182-2.971-1.77c-1.03-2.282-1.515-4.561-1.457-6.783
		c0.13-4.324,2.258-8.453,6.349-12.278c2.034-1.916,4.58-3.745,7.527-5.455c2.97-1.707,6.379-3.303,10.173-4.733
		c7.66-2.927,16.699-5.209,26.898-6.778c10.437-1.612,21.755-2.428,33.622-2.428c6.164,0,12.446,0.233,18.739,0.669
		c8.654,0.606,17.236,1.611,25.515,3.013c8.036,1.362,15.801,3.076,23.11,5.099c7.151,1.997,13.842,4.275,19.867,6.799
		c4.78,1.991,9.108,4.109,12.963,6.347c-19.39-8.822-45.676-14.882-73.393-16.822c-6.361-0.442-12.742-0.678-18.959-0.678
		c-23.888,0-45.814,3.349-61.763,9.426c-8.039,3.059-14.366,6.726-18.8,10.88c-4.783,4.479-7.285,9.412-7.422,14.682
		C55.777,176.437,55.777,176.704,55.795,176.968"/>
	<path fill="#3C9CD7" d="M147.451,3.41H3.329v119.525c21.673-16.139,74.163-30.447,138.646-19.394
		c53.981,9.275,94.694,34.029,103.886,60.292c0.642-5.501,0.975-11.082,0.975-16.748C246.835,84.251,206.406,29.843,147.451,3.41"/>
	<path fill="#FFFFFF" d="M123.739,83.016c-0.26,0.066-0.517,0.198-0.748,0.354c-0.215,0.181-0.425,0.414-0.56,0.714
		c-0.129,0.29-0.198,0.668-0.198,1.119v2.276h15.967c0.653,0,1.178,0.201,1.62,0.654c0.429,0.43,0.662,0.979,0.662,1.617
		c0,0.65-0.233,1.204-0.662,1.64c-0.442,0.436-0.967,0.653-1.62,0.653h-18.25c-0.658,0-1.194-0.217-1.639-0.653
		c-0.439-0.437-0.637-0.99-0.637-1.64v-4.547c0-1.264,0.221-2.321,0.682-3.204c0.451-0.866,1.023-1.577,1.706-2.11
		c0.685-0.545,1.411-0.929,2.21-1.173c0.788-0.249,1.539-0.356,2.241-0.356h9.13c0.216,0,0.49-0.023,0.764-0.11
		c0.277-0.052,0.525-0.173,0.739-0.352c0.234-0.176,0.416-0.396,0.557-0.682c0.145-0.3,0.222-0.688,0.222-1.135
		c0-0.465-0.077-0.846-0.222-1.137c-0.141-0.282-0.322-0.517-0.557-0.699c-0.213-0.168-0.462-0.298-0.739-0.354
		c-0.274-0.065-0.548-0.093-0.764-0.093h-13.693c-0.658,0-1.194-0.22-1.639-0.657c-0.439-0.435-0.637-0.977-0.637-1.622
		c0-0.657,0.198-1.205,0.637-1.636c0.445-0.443,0.981-0.64,1.639-0.64h13.693c0.666,0,1.412,0.102,2.207,0.348
		c0.802,0.25,1.551,0.629,2.244,1.176c0.682,0.547,1.248,1.24,1.707,2.111c0.441,0.867,0.682,1.929,0.682,3.203
		c0,1.254-0.24,2.322-0.682,3.194c-0.459,0.863-1.025,1.567-1.707,2.103c-0.693,0.546-1.442,0.947-2.244,1.169
		c-0.795,0.249-1.541,0.372-2.207,0.372h-9.13C124.266,82.918,124.021,82.951,123.739,83.016"/>
	<path fill="#FFFFFF" d="M161.271,69.586c0.801,0.245,1.531,0.626,2.223,1.177c0.705,0.542,1.27,1.258,1.709,2.114
		c0.47,0.875,0.705,1.942,0.705,3.201v9.117c0,0.7-0.126,1.447-0.366,2.24c-0.228,0.795-0.627,1.532-1.18,2.218
		c-0.528,0.681-1.237,1.255-2.118,1.704c-0.872,0.463-1.926,0.683-3.191,0.683h-9.121c-0.708,0-1.45-0.122-2.236-0.354
		c-0.775-0.248-1.53-0.627-2.209-1.177c-0.704-0.545-1.266-1.241-1.707-2.115c-0.458-0.863-0.699-1.937-0.699-3.199v-9.117
		c0-0.669,0.135-1.428,0.363-2.235c0.246-0.792,0.616-1.538,1.173-2.219c0.542-0.684,1.243-1.258,2.113-1.707
		c0.881-0.452,1.935-0.688,3.202-0.688h9.121C159.733,69.229,160.476,69.36,161.271,69.586 M161.348,85.195v-9.117
		c0-0.451-0.076-0.835-0.221-1.135c-0.155-0.293-0.325-0.521-0.561-0.698c-0.212-0.164-0.48-0.284-0.739-0.354
		c-0.278-0.069-0.531-0.095-0.774-0.095h-9.121c-0.461,0-0.84,0.063-1.117,0.204c-0.314,0.146-0.526,0.327-0.72,0.56
		c-0.176,0.23-0.276,0.481-0.34,0.749c-0.067,0.271-0.1,0.52-0.1,0.77v9.117c0,0.466,0.066,0.84,0.198,1.135
		c0.13,0.284,0.313,0.518,0.551,0.701c0.217,0.16,0.465,0.288,0.72,0.353c0.281,0.066,0.547,0.095,0.808,0.095h9.121
		c0.464,0,0.832-0.066,1.114-0.204c0.309-0.151,0.549-0.333,0.72-0.565c0.151-0.229,0.278-0.473,0.342-0.75
		C161.319,85.692,161.348,85.441,161.348,85.195"/>
	<path fill="#FFFFFF" d="M176.127,69.882c0.435,0.438,0.655,0.974,0.655,1.623V89.75c0,0.663-0.221,1.206-0.655,1.64
		c-0.439,0.438-0.97,0.653-1.626,0.653c-0.65,0-1.2-0.216-1.632-0.653c-0.42-0.434-0.65-0.978-0.65-1.64V73.789h-2.273
		c-0.659,0-1.201-0.2-1.635-0.645c-0.424-0.438-0.651-0.976-0.651-1.638c0-0.649,0.228-1.185,0.651-1.623
		c0.434-0.436,0.976-0.654,1.635-0.654h4.556C175.157,69.229,175.688,69.447,176.127,69.882"/>
	<path fill="#FFFFFF" d="M187.861,69.882c0.415,0.438,0.646,0.974,0.646,1.623V89.75c0,0.663-0.231,1.206-0.646,1.64
		c-0.435,0.438-0.967,0.653-1.625,0.653c-0.667,0-1.204-0.216-1.638-0.653c-0.433-0.434-0.65-0.978-0.65-1.64V73.789h-2.272
		c-0.651,0-1.202-0.2-1.622-0.645c-0.45-0.438-0.666-0.976-0.666-1.638c0-0.649,0.216-1.185,0.666-1.623
		c0.42-0.436,0.971-0.654,1.622-0.654h4.561C186.895,69.229,187.427,69.447,187.861,69.882"/>
	<path fill="#FFFFFF" d="M19.271,44.338c-0.272,0.062-0.521,0.184-0.758,0.36c-0.201,0.161-0.405,0.405-0.555,0.698
		c-0.131,0.292-0.2,0.667-0.2,1.119v9.123c0,0.249,0.039,0.509,0.089,0.762c0.069,0.277,0.191,0.537,0.354,0.76
		c0.183,0.232,0.41,0.403,0.712,0.557c0.285,0.134,0.673,0.199,1.123,0.199h9.125c0.243,0,0.479-0.024,0.753-0.089
		c0.269-0.068,0.525-0.191,0.754-0.358c0.241-0.178,0.416-0.412,0.563-0.698c0.149-0.297,0.21-0.666,0.21-1.132v-2.284H24.6
		c-0.652,0-1.203-0.214-1.629-0.637c-0.446-0.435-0.651-0.984-0.651-1.641c0-0.654,0.206-1.199,0.651-1.619
		c0.427-0.445,0.978-0.664,1.629-0.664h9.123c0.651,0,1.203,0.219,1.61,0.664c0.449,0.42,0.666,0.965,0.666,1.619v4.562
		c0,1.257-0.217,2.34-0.687,3.197c-0.444,0.874-1.014,1.582-1.704,2.117c-0.685,0.543-1.43,0.939-2.226,1.173
		c-0.81,0.247-1.552,0.352-2.219,0.352h-9.125c-1.265,0-2.32-0.213-3.199-0.682c-0.882-0.451-1.568-1.024-2.12-1.705
		c-0.546-0.682-0.923-1.424-1.169-2.214c-0.23-0.785-0.352-1.54-0.352-2.238v-9.123c0-1.253,0.229-2.321,0.684-3.194
		c0.457-0.875,1.017-1.583,1.716-2.117c0.676-0.541,1.411-0.928,2.214-1.173c0.792-0.231,1.521-0.361,2.226-0.361h13.687
		c0.651,0,1.203,0.219,1.61,0.667c0.449,0.431,0.666,0.979,0.666,1.618c0,0.662-0.217,1.187-0.666,1.625
		c-0.407,0.441-0.958,0.653-1.61,0.653H20.036C19.801,44.233,19.551,44.278,19.271,44.338"/>
	<path fill="#FFFFFF" d="M44.318,44.446c-0.284,0.132-0.519,0.329-0.685,0.561c-0.173,0.228-0.317,0.472-0.371,0.733
		c-0.059,0.292-0.098,0.536-0.098,0.778V48.8h6.86c0.637,0,1.187,0.222,1.629,0.658c0.436,0.421,0.64,0.971,0.64,1.62
		c0,0.643-0.205,1.204-0.64,1.64c-0.442,0.422-0.992,0.641-1.629,0.641h-6.86v2.282c0,0.457,0.069,0.836,0.22,1.126
		c0.135,0.3,0.325,0.529,0.535,0.691c0.243,0.178,0.501,0.301,0.771,0.372c0.257,0.069,0.532,0.091,0.753,0.091h13.703
		c0.638,0,1.187,0.217,1.622,0.656c0.443,0.441,0.654,0.975,0.654,1.628c0,0.65-0.211,1.186-0.654,1.624
		c-0.435,0.436-0.983,0.654-1.622,0.654H45.442c-0.69,0-1.428-0.108-2.211-0.356c-0.804-0.238-1.533-0.621-2.231-1.171
		c-0.673-0.546-1.248-1.248-1.715-2.121c-0.438-0.869-0.684-1.927-0.684-3.195v-9.122c0-0.666,0.127-1.403,0.384-2.21
		c0.213-0.818,0.616-1.55,1.153-2.241c0.54-0.68,1.259-1.251,2.134-1.706c0.862-0.459,1.914-0.678,3.17-0.678h13.703
		c0.638,0,1.187,0.203,1.622,0.655c0.443,0.421,0.654,0.982,0.654,1.624c0,0.64-0.211,1.187-0.654,1.626
		c-0.435,0.434-0.983,0.653-1.622,0.653H45.442C44.987,44.24,44.622,44.308,44.318,44.446"/>
	<path fill="#FFFFFF" d="M85.968,50.022c-0.568,0.919-1.273,1.656-2.097,2.199c0.889,0.89,1.607,1.986,2.158,3.269
		c0.533,1.295,0.809,2.866,0.809,4.708c0,0.658-0.21,1.2-0.662,1.642c-0.416,0.436-0.961,0.639-1.613,0.639
		c-0.644,0-1.206-0.203-1.639-0.639c-0.437-0.442-0.645-0.984-0.645-1.642c0-1.065-0.152-1.966-0.431-2.728
		c-0.287-0.761-0.635-1.393-1.088-1.912c-0.442-0.507-0.948-0.917-1.479-1.204c-0.548-0.283-1.075-0.502-1.56-0.656
		c-0.51-0.138-0.964-0.228-1.38-0.278c-0.42-0.036-0.715-0.048-0.901-0.048h-6.842v6.826c0,0.658-0.228,1.2-0.667,1.642
		c-0.427,0.436-0.959,0.639-1.605,0.639c-0.682,0-1.22-0.203-1.635-0.639c-0.441-0.442-0.662-0.984-0.662-1.642V41.955
		c0-0.64,0.221-1.187,0.662-1.632c0.416-0.435,0.953-0.653,1.635-0.653h13.677c0.663,0,1.401,0.125,2.208,0.373
		c0.807,0.234,1.55,0.621,2.234,1.162c0.684,0.533,1.271,1.258,1.709,2.117c0.463,0.874,0.685,1.941,0.685,3.194
		C86.838,47.938,86.555,49.092,85.968,50.022 M80.003,48.794c0.215,0,0.476-0.028,0.758-0.091c0.275-0.067,0.521-0.192,0.744-0.359
		c0.246-0.175,0.417-0.407,0.554-0.697c0.152-0.296,0.221-0.681,0.221-1.132c0-0.452-0.069-0.819-0.221-1.119
		c-0.136-0.292-0.308-0.537-0.554-0.698c-0.223-0.176-0.469-0.299-0.744-0.373c-0.282-0.047-0.542-0.093-0.758-0.093H68.598v4.562
		H80.003z"/>
	<path fill="#FFFFFF" d="M111.882,40.682c0.244,0.387,0.376,0.807,0.376,1.278v18.245c0,0.663-0.224,1.186-0.66,1.624
		c-0.436,0.436-0.979,0.654-1.641,0.654c-0.632,0-1.175-0.218-1.614-0.654c-0.432-0.438-0.656-0.961-0.656-1.624V47.434
		l-5.248,5.248c-0.448,0.448-0.981,0.677-1.577,0.677c-0.625,0-1.146-0.229-1.614-0.677l-5.246-5.248v12.771
		c0,0.663-0.217,1.186-0.642,1.624c-0.444,0.436-0.981,0.654-1.646,0.654c-0.646,0-1.184-0.218-1.625-0.654
		c-0.423-0.438-0.652-0.961-0.652-1.624V41.96c0-0.471,0.123-0.891,0.39-1.278c0.239-0.392,0.603-0.678,1.046-0.836
		c0.435-0.18,0.871-0.221,1.325-0.142c0.465,0.102,0.812,0.299,1.118,0.656l7.544,7.53l7.5-7.53
		c0.324-0.356,0.697-0.554,1.134-0.656c0.442-0.079,0.898-0.039,1.326,0.142C111.293,40.004,111.629,40.29,111.882,40.682"/>
	<path fill="#FFFFFF" d="M133.049,40.042c0.801,0.234,1.539,0.621,2.241,1.162c0.673,0.533,1.242,1.258,1.71,2.117
		c0.456,0.874,0.676,1.941,0.676,3.194v13.682c0,0.658-0.22,1.2-0.655,1.642c-0.435,0.436-0.968,0.639-1.619,0.639
		c-0.645,0-1.187-0.203-1.629-0.639c-0.443-0.442-0.657-0.984-0.657-1.642v-6.826h-13.682v6.826c0,0.658-0.224,1.2-0.655,1.642
		c-0.441,0.436-0.966,0.639-1.628,0.639c-0.648,0-1.202-0.203-1.638-0.639c-0.439-0.442-0.644-0.984-0.644-1.642V46.515
		c0-0.669,0.111-1.412,0.359-2.215c0.232-0.798,0.623-1.542,1.162-2.221c0.543-0.681,1.26-1.259,2.125-1.724
		c0.874-0.451,1.934-0.686,3.199-0.686h9.127C131.502,39.669,132.246,39.794,133.049,40.042 M133.116,48.794v-2.279
		c0-0.452-0.066-0.819-0.221-1.119c-0.13-0.292-0.31-0.537-0.533-0.698c-0.244-0.176-0.485-0.299-0.773-0.373
		c-0.249-0.047-0.504-0.093-0.747-0.093h-9.127c-0.463,0-0.838,0.067-1.136,0.207c-0.289,0.146-0.516,0.34-0.688,0.557
		c-0.186,0.249-0.296,0.479-0.367,0.757c-0.067,0.264-0.091,0.527-0.091,0.761v2.279H133.116z"/>
	<path fill="#FFFFFF" d="M162.44,40.337c0.435,0.417,0.655,0.979,0.655,1.618v18.25c0,0.461-0.13,0.871-0.372,1.268
		c-0.254,0.39-0.598,0.671-1.069,0.855c-0.431,0.167-0.866,0.213-1.323,0.133c-0.439-0.089-0.812-0.317-1.129-0.666l-14.358-14.362
		v12.771c0,0.65-0.223,1.201-0.644,1.634c-0.454,0.426-0.985,0.644-1.633,0.644s-1.195-0.218-1.635-0.644
		c-0.435-0.433-0.649-0.984-0.649-1.634v-18.25c0-0.451,0.12-0.871,0.384-1.273c0.239-0.392,0.599-0.678,1.047-0.842
		c0.427-0.179,0.866-0.221,1.329-0.135c0.435,0.095,0.811,0.299,1.116,0.656l14.369,14.38V41.955c0-0.64,0.223-1.201,0.649-1.618
		c0.438-0.449,0.988-0.667,1.624-0.667C161.451,39.669,162.004,39.888,162.44,40.337"/>
	<path fill="#FFFFFF" d="M186.236,39.669c0.598,0,1.136,0.235,1.597,0.691c0.463,0.463,0.675,0.98,0.675,1.6
		c0,0.614-0.212,1.143-0.675,1.595l-8.453,8.441v8.209c0,0.65-0.21,1.201-0.638,1.634c-0.438,0.426-0.98,0.644-1.636,0.644
		c-0.646,0-1.195-0.218-1.635-0.644c-0.434-0.433-0.648-0.984-0.648-1.634v-8.209l-8.446-8.441c-0.461-0.452-0.663-0.98-0.663-1.595
		c0-0.62,0.202-1.137,0.663-1.6c0.463-0.456,0.99-0.691,1.607-0.691c0.602,0,1.141,0.235,1.599,0.691l7.523,7.521l7.523-7.521
		C185.092,39.904,185.625,39.669,186.236,39.669"/>
</g>
</svg>
