<?xml version="1.0" encoding="utf-8"?>
<!-- Generator: Adobe Illustrator 13.0.0, SVG Export Plug-In . SVG Version: 6.00 Build 14948)  -->
<!DOCTYPE svg PUBLIC "-//W3C//DTD SVG 1.1 Tiny//EN" "http://www.w3.org/Graphics/SVG/1.1/DTD/svg11-tiny.dtd">
<svg version="1.1" baseProfile="tiny" id="Ebene_1" xmlns="http://www.w3.org/2000/svg" xmlns:xlink="http://www.w3.org/1999/xlink"
	 x="0px" y="0px" width="556.831px" height="256.945px" viewBox="0 0 556.831 256.945" xml:space="preserve">
<path fill-rule="evenodd" fill="#008F39" d="M535.574,161.621v89.978h-16.252V116.674h-2.332v134.924H501.5v-89.978
	c-0.465-9.4,0.929-25.925,5.135-31.771c3.313-10.231,5.938-24.43,7.816-25.603l0.122-0.048V5.81h7.886v98.389l0.127,0.048
	c0,0,0.089,11.375,10.7,26.206C537.493,136.3,536.021,152.221,535.574,161.621L535.574,161.621z"/>
<path fill-rule="evenodd" fill="#FFED00" d="M493.577,161.621v89.978h-16.252V116.674h-2.332v134.924h-15.49v-89.978
	c-0.465-9.4,0.929-25.925,5.135-31.771c3.313-10.231,5.938-24.43,7.816-25.603l0.122-0.048V5.81h7.886v98.389l0.127,0.048
	c0,0,0.089,11.375,10.701,26.206C495.496,136.3,494.024,152.221,493.577,161.621L493.577,161.621z"/>
<path fill-rule="evenodd" fill="#00509D" d="M472.618,95.788V5.81h-16.252v134.924h-2.332V5.81h-15.49v89.978
	c-0.465,9.399-0.618,20.765,3.588,26.612c10.682,14.831,9.363,30.762,9.363,30.762l0.122,0.048v98.389h7.886V153.21l0.127-0.048
	c0,0-1.213-15.932,9.399-30.762C473.235,116.553,473.064,105.188,472.618,95.788L472.618,95.788z"/>
<path fill-rule="evenodd" d="M514.618,95.788V5.81h-16.321v134.924h-2.266V5.81h-15.483v89.978
	c-0.493,9.399-0.623,20.765,3.589,26.612c10.657,14.831,9.351,30.762,9.351,30.762l0.135,0.048v98.389h7.878V153.21l0.13-0.048
	c0,0-1.282-15.932,9.398-30.762C515.191,116.553,515.069,105.188,514.618,95.788L514.618,95.788z"/>
<path fill-rule="evenodd" fill="#E2001A" d="M556.634,95.788V5.81h-16.321v134.924h-2.257V5.81h-15.534v89.978
	c-0.445,9.399-0.616,20.765,3.632,26.612c10.656,14.831,9.355,30.762,9.355,30.762l0.088,0.048v98.389h7.965V153.21l0.085-0.048
	c0,0-1.282-15.932,9.362-30.762C557.257,116.553,557.024,105.188,556.634,95.788L556.634,95.788z"/>
<path fill-rule="evenodd" fill="#87888A" d="M23.651,14.782H0V5.554h133.087l0.085,75.11h-5.426
	c-3.332-24.267-6.878-50.073-22.747-61.096c-5.262-3.711-14.808-4.785-24.592-4.785l-26.08,0v105.616
	c22.919,0,35.138-5.518,36.353-44.947h6.689V178.21H90.68c-2.136-40.845-10.547-49.694-36.353-48.584v112.623h23.669v9.228H0v-9.228
	h23.651V14.782L23.651,14.782z"/>
<polygon fill-rule="evenodd" fill="#87888A" points="172.674,242.199 196.319,242.199 196.319,251.428 118.329,251.428 
	118.329,242.199 142.035,242.199 141.998,5.505 196.319,5.505 196.319,14.733 172.674,14.733 172.674,242.199 "/>
<path fill-rule="evenodd" fill="#87888A" d="M203.241,253.649h-4.059v-73.267h7.006c4.975,35.034,18.628,67.383,44.007,67.383
	c18.903,0,35.615-21.361,35.615-51.574c0-34.18-19.874-40.846-37.75-50.379c-4.828-2.6-9.589-5.164-14.398-7.385
	c-22.242-10.254-33.265-36.096-33.265-71.058c0-38.66,18.696-67.37,43.58-67.37c13.867,0,23.84,5.163,34.912,18.457l9.093-14.734
	h4.298v69.592h-7.647c-2.63-35.034-17.45-64.086-41.4-64.086c-15.252,0-29.651,17.297-29.651,42.004
	c0,28.32,12.69,31.226,27.515,37.5c6.006,2.612,10.766,5.176,14.782,6.971c4.828,2.22,10.852,4.821,15.852,8.545
	c20.123,14.697,27.3,38.964,27.3,72.119c0,46.349-19.653,80.577-50.543,80.577c-11.236,0-25.549-6.957-33.942-18.799
	L203.241,253.649L203.241,253.649z"/>
<path fill-rule="evenodd" fill="#87888A" d="M318.023,167.908l27.832-116.847l26.636,116.847H318.023L318.023,167.908z
	 M421.266,242.249L367.688,5.774l-45.716-0.22v9.058h24.268l-56.159,236.865h42.725v-9.228h-32.707l15.483-65.113h59.326
	l14.571,65.113h-24.91v9.228h75.879v-9.228H421.266L421.266,242.249z"/>
<polygon fill-rule="evenodd" fill="#FFFFFF" points="516.99,251.599 519.322,251.599 519.322,116.532 516.99,116.532 
	516.99,251.599 "/>
<polygon fill-rule="evenodd" fill="#FFFFFF" points="474.84,251.77 476.935,251.77 476.935,117.92 474.84,117.92 474.84,251.77 "/>
</svg>
