<?xml version="1.0" encoding="UTF-8" standalone="no"?>
<!-- Creator: CorelDRAW -->

<svg
   xmlns:dc="http://purl.org/dc/elements/1.1/"
   xmlns:cc="http://creativecommons.org/ns#"
   xmlns:rdf="http://www.w3.org/1999/02/22-rdf-syntax-ns#"
   xmlns:svg="http://www.w3.org/2000/svg"
   xmlns="http://www.w3.org/2000/svg"
   xmlns:sodipodi="http://sodipodi.sourceforge.net/DTD/sodipodi-0.dtd"
   xmlns:inkscape="http://www.inkscape.org/namespaces/inkscape"
   xml:space="preserve"
   width="93.054878"
   height="86.233536"
   style="fill-rule:evenodd"
   viewBox="0 0 26.262155 24.337018"
   id="svg2"
   version="1.1"
   inkscape:version="0.48.2 r9819"
   sodipodi:docname="Hertha Fahne Pur.svg"><metadata
   id="metadata72"><rdf:RDF><cc:Work
       rdf:about=""><dc:format>image/svg+xml</dc:format><dc:type
         rdf:resource="http://purl.org/dc/dcmitype/StillImage" /><dc:title /></cc:Work></rdf:RDF></metadata><sodipodi:namedview
   pagecolor="#ffffff"
   bordercolor="#666666"
   borderopacity="1"
   objecttolerance="10"
   gridtolerance="10"
   guidetolerance="10"
   inkscape:pageopacity="0"
   inkscape:pageshadow="2"
   inkscape:window-width="640"
   inkscape:window-height="480"
   id="namedview70"
   showgrid="false"
   fit-margin-top="0"
   fit-margin-left="0"
   fit-margin-right="0"
   fit-margin-bottom="0"
   inkscape:zoom="1.3059695"
   inkscape:cx="-18.111086"
   inkscape:cy="96.790138"
   inkscape:window-x="0"
   inkscape:window-y="0"
   inkscape:window-maximized="0"
   inkscape:current-layer="Ebene_x0020_1" />
 <defs
   id="defs4">
  <style
   type="text/css"
   id="style6">
   
    .fil2 {fill:black}
    .fil1 {fill:#005CA9}
    .fil0 {fill:white}
    .fil3 {fill:#005CA9;fill-rule:nonzero}
    .fil4 {fill:white;fill-rule:nonzero}
   
  </style>
 </defs>
 <g
   id="Ebene_x0020_1"
   transform="translate(-13.223948,-15.513211)">
  <metadata
   id="CorelCorpID_0Corel-Layer" />
  
  
  
  
  
  <path
   class="fil2"
   d="m 15.2789,15.8518 c 0.0045,0.0862 0.0449,0.1654 0.1287,0.2115 3.7808,-1.0589 7.3582,-0.4087 10.8247,0.4376 1.7598,0.1441 3.6674,-0.4261 5.4785,-0.529 1.5569,-0.0037 3.1314,-0.1727 4.5945,0.2403 0.6253,0.5887 0.8294,1.4463 1.1559,2.2297 0.5838,1.6561 1.0459,3.5845 0.5956,5.2418 0.0397,0.2041 0.2866,0.2559 0.3818,0.4245 1.3736,1.8757 1.1029,4.5197 0.8111,6.6076 -0.118,0.5459 -0.1715,1.1047 -0.3687,1.6288 -3.0354,-2.0263 -6.9546,-1.9994 -10.4121,-0.4927 -2.2476,0.4866 -4.116,-0.8572 -6.2949,-0.6581 -1.0328,0.2634 -2.3305,0.2536 -3.0493,1.0415 l 0.849,3.1493 c 0.9332,0.3792 2.2379,0.4244 2.7453,1.4972 0.1787,0.663 0.1852,1.272 0.0906,1.8762 -0.1018,0.1816 -0.3417,0.2281 -0.5312,0.2151 -0.64,-0.536 0.1429,-1.5725 -0.6653,-2.0757 -0.4037,-0.2829 -0.8328,-0.374 -1.2761,-0.4124 0.1646,1.0393 0.4302,2.0843 0.7679,3.0526 -0.0417,0.1702 -0.198,0.2629 -0.3519,0.3054 -0.1825,0.0228 -0.3621,-0.0045 -0.5124,-0.1371 l -0.9119,-3.4735 c -0.7375,-0.2677 -1.632,-0.7666 -2.0165,-1.4642 -0.4449,-1.1344 0.1314,-2.1439 0.8128,-3.0612 L 14.3801,17.5712 c -0.3907,-0.0861 -0.9875,-0.1444 -1.1095,-0.6441 -0.1156,-0.4009 -0.0176,-0.7935 0.3078,-1.0438 0.5024,-0.2347 1.2446,-0.454 1.7005,-0.0315 z"
   id="path20"
   inkscape:connector-curvature="0"
   style="fill:#000000" />
  <path
   class="fil0"
   d="m 18.6046,29.8819 -1.3234,-4.9503 -1.6291,-6.1995 -0.0846,-0.3078 c 1.9207,3.2151 2.9,7.5475 3.0371,11.4576 z"
   id="path22"
   inkscape:connector-curvature="0"
   style="fill:#ffffff" />
  <path
   class="fil0"
   d="m 18.9442,35.0237 c -0.3588,-0.1792 -0.818,-0.4262 -0.8879,-0.8486 -0.0432,-0.4157 0.0956,-0.7912 0.3275,-1.1353 l 0.5604,1.9839 z"
   id="path24"
   inkscape:connector-curvature="0"
   style="fill:#ffffff" />
  <path
   class="fil3"
   d="m 26.3042,17.3879 c 2.7371,-0.0837 5.5851,-0.687 8.2682,-0.5355 0.3404,0.0208 0.6691,0.0441 1.0116,0.0775 1.0653,1.699 1.8227,4.1184 1.5259,6.1819 -2.6909,-0.4486 -5.6957,-0.1384 -8.5284,0.7359 -1.7809,0.1969 -3.3402,-0.6466 -5.067,-0.6849 -1.5377,0.0375 -3.1705,-0.0314 -4.6776,0.5483 -0.6617,-2.3138 -1.4026,-4.5866 -2.8248,-6.3909 l -0.3604,-0.316 c 3.6882,-1.2152 7.2186,-0.2943 10.6525,0.3837 z"
   id="path26"
   inkscape:connector-curvature="0"
   style="fill:#005ca9;fill-rule:nonzero" />
  <path
   class="fil4"
   d="m 27.257,24.8488 c 2.3904,0.1833 4.9633,-1.0022 7.3783,-0.9483 1.1507,0.1502 2.6125,-0.0841 3.3015,1.1523 0.8606,1.926 0.5303,3.9462 0.2972,5.8227 -2.9619,-1.3928 -6.5481,-1.3185 -9.7165,0.0078 -2.4447,0.5621 -4.4679,-1.0006 -6.8955,-0.541 -0.7294,0.0919 -1.4384,0.354 -2.1328,0.5638 0.2506,-1.9797 -0.1579,-4.0808 -0.516,-6.1791 2.8444,-0.8767 5.6639,-0.6025 8.2838,0.1218 z"
   id="path28"
   inkscape:connector-curvature="0"
   style="fill:#ffffff;fill-rule:nonzero" />
  <path
   class="fil1"
   d="m 30.9986,26.2767 c 0.1163,1.1115 0.6074,2.0998 0.7114,3.2133 -0.0559,0.1605 -0.2739,0.1278 -0.3914,0.1009 -0.4498,-0.1368 -0.8348,0.5111 -1.2406,0.0919 -0.307,-0.4262 -0.4547,-1.0578 -0.2767,-1.5537 0.2013,-0.4376 0.9094,-0.5752 0.7135,-1.1353 -0.1245,-0.0628 -0.2894,-0.1432 -0.429,-0.0285 -0.1858,0.1355 0.0074,0.3596 -0.1396,0.5004 -0.1106,0.0715 -0.3506,0.118 -0.3931,-0.0359 -0.0453,-0.4894 -0.0518,-1.0985 0.4487,-1.3455 0.3645,-0.046 0.7367,-0.1183 0.9968,0.1924 z m 6.3945,-1.3924 c 0.089,0.3939 0.451,0.909 0.1327,1.2577 -0.4899,0.1077 -0.2409,-0.7259 -0.7695,-0.5605 -0.4552,0.7984 -0.109,2.0018 0.3209,2.7406 0.0693,0.0988 0.1914,0.1499 0.2796,0.2201 0.1992,-0.0016 0.2314,-0.2196 0.2923,-0.3559 -0.0331,-0.1058 -0.0254,-0.1948 0.0326,-0.2805 0.1461,-0.0159 0.2997,0.004 0.3878,0.1363 0.1335,0.6222 0.2397,1.3614 -0.329,1.8333 -0.718,0.1518 -0.9462,-0.6385 -1.2556,-1.0769 -0.5357,-1.2164 -0.8438,-2.8011 -0.3049,-4.0024 0.1665,-0.1695 0.4192,-0.3429 0.6731,-0.2551 0.1914,0.0873 0.4286,0.1531 0.54,0.3433 z m -2.3492,-0.2287 c 0.2477,0.3132 0.442,0.7364 0.3486,1.1532 -0.0698,0.0886 -0.1711,0.1457 -0.2956,0.1449 -0.2437,-0.1644 -0.2093,-0.7568 -0.6208,-0.5646 -0.0552,0.0356 -0.0939,0.0932 -0.1204,0.1478 0.2465,1.3974 2.112,1.9571 1.6765,3.5616 -0.2033,0.3634 -0.6022,0.4908 -1.0124,0.4961 -0.2273,-0.0809 -0.4164,-0.2185 -0.5878,-0.3968 -0.1037,-0.3413 -0.2404,-0.7879 0.0677,-1.0598 0.6393,-0.2367 0.2727,1.0805 0.9161,0.5445 -0.1437,-1.4421 -2.1289,-2.0405 -1.6116,-3.6738 0.24,-0.4327 0.8274,-0.422 1.2397,-0.3531 z m -1.757,0.1924 c 0.2584,0.6224 0.183,1.2601 0.0596,1.8446 0.3882,0.0739 0.6287,0.4135 0.7805,0.7453 0.0683,0.672 -0.0142,1.3357 -0.4682,1.8852 -0.4494,0.1249 -0.9944,0.2681 -1.3846,0.1196 -0.2976,-1.3377 -0.1939,-2.7281 -0.7511,-3.9906 -0.0972,-0.1805 -0.0792,-0.4082 -0.0563,-0.6115 0.5919,0.0963 1.3512,-0.6119 1.8201,0.0074 z m -8.3584,1.2882 c 0.0939,-0.093 0.1972,-0.1379 0.3315,-0.1518 0.2563,0.0996 0.264,0.3971 0.2678,0.6082 -0.3907,0.425 0.6687,1.0038 -0.1286,1.1964 -0.3033,-0.2776 0.1274,-0.947 -0.4796,-0.9287 -0.4278,1.0676 0.6204,1.9726 0.42,3.0584 -0.1568,0.1547 -0.3764,-0.0143 -0.5123,-0.1372 -0.3935,-0.8707 -0.2895,-1.9374 -0.6927,-2.7933 -0.0486,-0.3144 -0.1665,-0.6655 0.1008,-0.8921 0.2669,-0.1011 0.4678,0.4202 0.6931,0.0401 z m 2.7558,-0.8845 c 0.2858,0.3803 0.1752,0.9 0.3283,1.3686 0.3089,0.1147 0.6845,-0.1326 0.9736,0.0727 0.2701,1.0687 0.4244,2.2472 0.6995,3.2779 -0.0657,0.1747 -0.2837,0.1421 -0.4203,0.1437 -0.5634,-0.5258 -0.4075,-1.4528 -0.612,-2.1859 0.0155,-0.2397 -0.0575,-0.487 -0.2127,-0.6438 -0.122,-0.0511 -0.1922,0.0996 -0.26,0.2 0.067,0.9213 0.6396,1.9439 0.3327,2.8007 -0.0934,0.031 -0.185,0.0735 -0.3049,0.0968 l -0.1723,-0.116 -0.8957,-4.7347 c 0.0344,-0.1437 0.0356,-0.3307 0.1964,-0.3997 0.1323,-0.0253 0.2736,-0.0032 0.3474,0.1197 z m -4.3609,0.4489 c 0.5732,0.5115 0.6471,1.4688 0.5352,2.1758 -0.1379,0.2511 -0.6282,0.0352 -0.6711,0.3922 0.056,0.2883 0.1046,0.6026 0.387,0.7096 0.3175,-0.1613 -0.0927,-1.0537 0.5241,-0.6377 0.1874,0.3874 0.1038,0.7899 0.025,1.154 -0.1927,0.1621 -0.4764,0.2421 -0.7401,0.2311 -0.5462,-0.118 -0.5046,-0.7364 -0.6965,-1.1479 -0.1681,-0.8646 -0.2473,-1.7214 -0.2359,-2.5583 0.0416,-0.1073 0.0927,-0.2298 0.191,-0.2987 0.2262,-0.0564 0.4662,-0.1029 0.6813,-0.0201 z m 2.9008,-0.589 c 0.2093,0.3082 0.2408,0.7258 0.3637,1.1005 0.1828,0.3008 0.6988,0.2629 0.5886,0.7205 0.0151,0.271 -0.3735,0.2592 -0.4392,0.4964 0.0021,0.9091 0.2559,1.8941 0.7992,2.5734 0.0087,0.1726 0.2618,0.3853 0.04,0.5277 -0.2252,-0.0061 -0.48,0.0935 -0.6882,-0.0155 -0.6763,-0.8527 -0.5854,-2.1786 -0.8074,-3.257 -0.2127,-0.1328 -0.5507,-0.2042 -0.4409,-0.5373 0.0731,-0.2012 0.3029,-0.171 0.3759,-0.3722 0.0291,-0.4291 -0.3041,-0.925 -0.0431,-1.312 0.0938,-0.0307 0.209,-0.016 0.2514,0.0755 z m -5.9553,-0.0632 0.2404,1.2364 c 0.1506,0.0707 0.34,0.1458 0.5013,0.0147 0.2036,-0.4257 -0.1123,-0.9625 -0.093,-1.4394 0.1452,-0.2151 0.4277,-0.1081 0.6534,-0.1644 l 0.0878,0.1326 c 0.3367,1.6039 0.5804,3.1763 0.8646,4.7654 -0.0992,0.1314 -0.3054,0.0968 -0.4446,0.1487 l -0.2441,-0.1642 c -0.1633,-0.8405 -0.3605,-1.6618 -0.5454,-2.4855 -0.1355,-0.1854 -0.3812,-0.038 -0.5347,0.0045 l -0.1645,0.2437 0.476,2.4488 c -0.133,0.213 -0.4033,0.1032 -0.5931,0.1526 l -0.2041,-0.4086 c -0.2392,-1.4858 -0.723,-2.9497 -0.7679,-4.3984 0.2094,-0.1404 0.5462,-0.3306 0.7679,-0.0869 z"
   id="path30"
   inkscape:connector-curvature="0"
   style="fill:#005ca9" />
  <path
   class="fil4"
   d="m 23.2753,26.6689 c -0.0032,0.1751 0.0294,0.3433 -0.0245,0.516 -0.2413,-0.1523 -0.0743,-0.4465 -0.0995,-0.6413 l 0.124,0.1253 z"
   id="path32"
   inkscape:connector-curvature="0"
   style="fill:#ffffff;fill-rule:nonzero" />
  <path
   class="fil4"
   d="m 32.651,25.4198 c 0.0743,0.3842 0.2445,0.8748 -0.0951,1.1773 -0.2747,-0.2584 -0.2311,-0.7401 -0.2127,-1.0924 0.0534,-0.1102 0.2164,-0.1044 0.3078,-0.0849 z"
   id="path34"
   inkscape:connector-curvature="0"
   style="fill:#ffffff;fill-rule:nonzero" />
  <path
   class="fil4"
   d="m 33.2401,27.3612 c 0.1513,0.3939 0.204,0.8572 -0.1336,1.172 -0.0935,0.0306 -0.1845,0.0114 -0.2706,-0.0469 -0.0555,-0.4127 -0.307,-0.9373 0.124,-1.2202 0.1058,-0.0331 0.194,0.0372 0.2802,0.0951 z"
   id="path36"
   inkscape:connector-curvature="0"
   style="fill:#ffffff;fill-rule:nonzero" />
  <path
   class="fil4"
   d="m 30.8218,28.7659 -0.1645,0.2433 c -0.2037,-0.0224 -0.1588,-0.3054 -0.1748,-0.4515 0.0727,-0.1387 0.0617,-0.3238 0.2156,-0.4286 0.249,0.1261 0.0433,0.4155 0.1237,0.6368 z"
   id="path38"
   inkscape:connector-curvature="0"
   style="fill:#ffffff;fill-rule:nonzero" />
  
  
  
  
  
  
  
  
  
  
  
  
  
  
  
 </g>
</svg>