<?xml version="1.0" encoding="UTF-8" standalone="no"?>
<!-- Created with Inkscape (http://www.inkscape.org/) -->
<svg
   xmlns:dc="http://purl.org/dc/elements/1.1/"
   xmlns:cc="http://creativecommons.org/ns#"
   xmlns:rdf="http://www.w3.org/1999/02/22-rdf-syntax-ns#"
   xmlns:svg="http://www.w3.org/2000/svg"
   xmlns="http://www.w3.org/2000/svg"
   xmlns:sodipodi="http://sodipodi.sourceforge.net/DTD/sodipodi-0.dtd"
   xmlns:inkscape="http://www.inkscape.org/namespaces/inkscape"
   width="308.42703"
   height="177.60704"
   id="svg2724"
   sodipodi:version="0.32"
   inkscape:version="0.46"
   version="1.0"
   sodipodi:docname="berlin.svg"
   inkscape:output_extension="org.inkscape.output.svg.inkscape">
  <defs
     id="defs2726">
    <inkscape:perspective
       sodipodi:type="inkscape:persp3d"
       inkscape:vp_x="0 : 526.18109 : 1"
       inkscape:vp_y="0 : 1000 : 0"
       inkscape:vp_z="744.09448 : 526.18109 : 1"
       inkscape:persp3d-origin="372.04724 : 350.78739 : 1"
       id="perspective2732" />
  </defs>
  <sodipodi:namedview
     id="base"
     pagecolor="#ffffff"
     bordercolor="#666666"
     borderopacity="1.0"
     gridtolerance="10000"
     guidetolerance="10"
     objecttolerance="10"
     inkscape:pageopacity="0.0"
     inkscape:pageshadow="2"
     inkscape:zoom="3.0573112"
     inkscape:cx="154.21352"
     inkscape:cy="88.80352"
     inkscape:document-units="px"
     inkscape:current-layer="layer1"
     showgrid="false"
     inkscape:window-width="1280"
     inkscape:window-height="750"
     inkscape:window-x="-8"
     inkscape:window-y="-8" />
  <metadata
     id="metadata2729">
    <rdf:RDF>
      <cc:Work
         rdf:about="">
        <dc:format>image/svg+xml</dc:format>
        <dc:type
           rdf:resource="http://purl.org/dc/dcmitype/StillImage" />
      </cc:Work>
    </rdf:RDF>
  </metadata>
  <g
     inkscape:label="Layer 1"
     inkscape:groupmode="layer"
     id="layer1"
     transform="translate(-236.0722,-364.70152)">
    <path
       d="M 310.66915,478.62225 C 313.83033,478.39117 317.48892,478.19219 320.94856,477.99927 C 364.35114,475.58266 389.52717,486.31121 395.08988,495.10347 C 397.69542,499.22228 398.07022,502.24479 397.93558,504.50769 C 397.74968,507.56537 396.38714,508.8164 400.10499,509.02941 C 401.32987,509.09975 402.60099,509.02036 403.26118,509.03544 L 530.80721,509.03544 C 536.51565,509.03544 541.14388,504.4082 541.14388,498.69975 L 541.15994,377.62082 C 541.15994,371.91337 536.53372,367.28612 530.82629,367.28612 L 249.54236,367.28612 C 243.83392,367.28612 239.20565,371.91337 239.20464,377.62181 L 239.18958,496.33036 C 239.18958,496.93529 239.15844,499.59106 239.35738,499.58099 C 241.0666,496.92221 242.74266,495.08036 245.45066,493.2546 C 251.00737,489.50859 263.3708,484.6864 284.18385,481.37852 C 284.18484,481.37852 304.9376,478.65543 310.66915,478.62225 L 310.66915,478.62225 L 310.66915,478.62225 z"
       id="path7"
       style="fill:#ffffff" />
    <path
       d="M 322.80649,481.04392 C 318.03453,481.04392 312.49591,481.26899 306.6247,481.71413 C 307.7039,480.85803 308.58713,480.15363 308.92878,479.87629 L 312.20351,477.10095 C 312.20351,477.10095 316.61172,472.89977 319.16698,470.3696 C 320.29037,469.25725 321.97749,467.0627 322.0026,465.65693 C 322.00965,465.23491 321.80667,464.87519 321.51526,464.6451 C 321.3153,464.48733 321.02392,464.40795 320.7707,464.44212 C 320.26827,464.50842 319.93567,464.81692 319.52971,465.50822 C 318.89366,466.59443 318.23449,466.94616 318.23449,466.94616 C 317.8808,466.15231 317.73911,465.56652 316.78354,465.67402 C 315.89326,465.77551 315.88723,466.28095 315.58276,468.09063 C 315.27829,469.90133 315.07833,470.13747 313.49471,470.99358 L 311.28611,472.27474 C 309.52765,473.26854 308.84234,474.12564 308.29273,474.81294 L 308.05457,475.10738 C 307.7461,475.45503 305.89519,476.44481 305.10339,476.86683 C 304.39699,477.24465 303.6926,477.65461 303.6926,477.65461 L 302.76314,478.05453 C 301.62767,478.52479 299.91144,479.23721 298.68151,480.11343 C 298.14694,480.49525 297.71187,480.95348 297.33205,481.46794 C 297.23456,481.43479 297.13307,481.41065 297.02757,481.41065 C 296.65979,481.41269 296.35132,481.4579 296.07801,481.51116 C 296.08102,481.44682 296.09208,481.37448 296.11519,481.2891 C 296.25485,481.18961 296.37946,481.09012 296.49098,480.99869 C 297.03962,480.93236 297.54608,480.63996 297.85254,480.15763 C 298.05952,479.8371 298.16101,479.47033 298.16101,479.09654 C 298.16101,478.85238 298.10575,478.60618 298.01834,478.36503 C 298.37504,477.58227 298.57401,476.693 298.57401,475.82683 C 298.57401,475.35554 298.51571,474.89336 298.40117,474.46228 C 298.13287,473.46044 297.56015,472.68371 296.74722,472.21748 C 295.17969,471.31916 293.67949,472.03359 292.77513,472.99824 C 292.34105,473.37806 291.29402,474.45123 291.09304,476.11318 C 290.68207,476.3604 290.35652,476.96228 290.19171,477.528 C 289.85609,476.88591 289.41396,476.24383 288.84927,475.63893 C 288.35488,473.80511 287.6957,472.57218 287.0024,471.3915 C 286.71298,470.89915 286.47786,470.22187 286.22865,469.50545 C 285.97544,468.77394 285.71219,468.01728 285.35346,467.3511 C 284.66012,466.0619 281.9672,462.15814 281.64565,461.74512 C 281.51603,461.57835 281.37535,461.3412 281.36429,460.79759 C 281.36429,460.79356 281.6587,459.14062 281.6587,458.7789 C 281.6587,458.3006 281.51199,457.8454 280.98648,457.5952 C 280.37052,457.29978 279.87412,457.62231 279.56665,457.90068 C 279.40587,457.54394 279.29834,457.68865 279.20089,456.61349 C 279.06825,455.15949 278.11566,454.91632 277.8313,454.93339 C 277.2284,454.9716 276.60845,455.81263 276.66871,456.99934 C 276.73102,458.18705 276.69485,459.40691 278.04532,462.44552 C 278.04736,462.45254 279.37875,465.05505 279.37875,465.05505 C 280.14544,467.10991 280.86892,469.05227 281.70591,470.49922 C 282.68765,472.2004 283.2433,473.59813 283.74573,476.94622 C 284.24012,480.23 284.74957,483.2103 284.79276,484.2875 C 264.73738,487.54816 246.765,493.26363 246.765,501.43793 C 246.765,508.56318 259.39971,513.69685 275.99047,517.11528 C 275.99047,517.11528 274.98161,524.93686 274.46914,527.28314 C 273.9577,529.63142 273.35981,531.67927 273.35981,531.67927 C 272.97596,533.38547 273.04127,533.96125 272.37607,535.32982 C 271.49484,537.14455 271.08187,538.15439 271.57122,538.78845 C 272.03544,539.39034 272.81219,539.46267 274.1265,539.56114 C 275.64681,539.6747 276.6878,539.41948 277.3108,538.78041 C 277.72079,538.35938 277.8474,537.83085 277.7851,537.20985 C 277.69062,536.26231 277.34094,535.62022 277.8896,534.70984 C 278.43722,533.80047 278.66731,532.89111 278.66731,532.89111 C 278.75473,532.54342 278.68541,532.15756 278.46837,531.09345 C 278.36186,530.57597 278.24227,529.99016 278.21918,529.67965 C 278.20512,529.44854 278.17295,528.22868 279.17276,527.02593 C 280.38558,525.57294 280.8237,524.25961 280.73929,522.33837 C 280.67797,520.91854 280.98546,520.4312 281.88679,519.22943 C 282.07069,518.98323 282.24553,518.67579 282.41333,518.31905 C 282.68966,518.36729 282.96497,518.41352 283.2433,518.46074 L 283.14988,519.1611 C 283.07249,519.53794 282.8625,519.8705 282.8625,519.8705 C 281.69788,520.2011 281.73005,522.88904 281.33714,524.00539 C 280.94427,525.12275 280.16453,527.12639 280.09819,527.99759 C 280.01179,529.12801 280.37453,529.82335 280.95129,530.1891 C 281.33012,530.42727 281.9672,530.59407 282.86148,530.03639 C 284.68224,528.89792 285.64789,527.38564 285.81768,525.40915 C 285.97544,523.59241 286.18245,523.08297 286.43668,522.60467 C 286.53515,522.42176 286.83156,521.98367 287.17219,521.47622 C 287.57716,520.87634 288.07857,520.13378 288.6091,519.29777 C 303.85941,521.49935 320.44311,522.51823 333.07884,522.51823 C 368.33128,522.51823 389.45982,513.37832 389.45982,502.25283 C 389.46385,490.13559 365.27963,481.04392 322.80649,481.04392 L 322.80649,481.04392 L 322.80649,481.04392 L 322.80649,481.04392 z"
       id="path9"
       style="fill:#ffffff" />
    <path
       d="M 337.26697,483.60321 C 321.15353,483.60321 306.79352,486.35843 297.47973,490.65812 C 297.22754,491.16553 296.95822,491.73426 296.67989,492.34524 C 305.28426,487.84056 319.57595,484.8904 335.75471,484.8904 C 362.0521,484.8904 383.37058,492.67984 383.37058,502.28601 C 383.37058,511.89418 362.0521,519.68261 335.75471,519.68261 C 316.77348,519.68261 300.38872,515.62409 292.73897,509.75488 C 292.63948,510.195 292.52996,510.63212 292.40636,511.07122 C 300.9625,516.95552 317.8406,520.96074 337.26697,520.96074 C 365.33891,520.96074 388.0963,512.59858 388.0963,502.28299 C 388.0963,491.9664 365.33789,483.60321 337.26697,483.60321 L 337.26697,483.60321 L 337.26697,483.60321 L 337.26697,483.60321 z"
       id="path11"
       style="fill:#b9292f" />
    <path
       d="M 337.26697,483.60321 C 321.15353,483.60321 306.79352,486.35843 297.47973,490.65812 C 297.22754,491.16553 296.95822,491.73426 296.67989,492.34524 C 305.28426,487.84056 319.57595,484.8904 335.75471,484.8904 C 362.0521,484.8904 383.37058,492.67984 383.37058,502.28601 C 383.37058,511.89418 362.0521,519.68261 335.75471,519.68261 C 316.77348,519.68261 300.38872,515.62409 292.73897,509.75488 C 292.63948,510.195 292.52996,510.63212 292.40636,511.07122 C 300.9625,516.95552 317.8406,520.96074 337.26697,520.96074 C 365.33891,520.96074 388.0963,512.59858 388.0963,502.28299 C 388.0963,491.9664 365.33789,483.60321 337.26697,483.60321 L 337.26697,483.60321 L 337.26697,483.60321 L 337.26697,483.60321 z"
       id="path13"
       style="fill:#b9292f" />
    <path
       d="M 292.73897,509.7539 C 300.38872,515.62311 316.77348,519.68162 335.75471,519.68162 C 362.0521,519.68162 383.37058,511.89317 383.37058,502.28499 C 383.37058,492.67882 362.0521,484.88938 335.75471,484.88938 C 319.57595,484.88938 305.28528,487.83955 296.67989,492.34422 C 295.5987,494.71362 294.41099,497.65575 293.85331,499.59204 C 293.62522,502.98938 293.50465,506.38167 292.73897,509.7539 L 292.73897,509.7539 L 292.73897,509.7539 L 292.73897,509.7539 z"
       id="path15"
       style="fill:#ffd520" />
    <path
       d="M 284.23308,490.79375 C 275.09516,494.95073 269.64397,500.18389 269.64397,505.86823 C 269.64397,509.33889 271.67172,512.64078 275.32627,515.63416 C 275.66691,515.7065 276.10802,515.78088 276.45469,515.85423 L 276.51801,515.31661 C 276.51801,515.31661 277.18318,507.48798 279.00795,503.45361 C 280.31826,500.55266 281.91595,498.27068 283.37293,496.59967 C 283.72766,496.14952 284.12457,495.70438 284.56165,495.26829 C 284.43405,494.80504 284.26121,491.18866 284.26121,491.18866 C 284.25117,491.06306 284.24213,490.9294 284.23308,490.79375 L 284.23308,490.79375 L 284.23308,490.79375 L 284.23308,490.79375 z"
       id="path17"
       style="fill:#b9292f" />
    <path
       d="M 311.00375,482.73401 C 308.86648,482.88276 306.7664,483.04953 304.70145,483.2324 C 302.89377,484.65024 301.06497,486.06204 300.39475,486.51521 C 300.22998,486.62473 300.03303,486.80157 299.81297,487.04174 C 307.94101,484.36787 318.22344,482.52402 329.61622,481.89196 C 327.75226,481.93216 311.28913,482.71293 311.00375,482.73401 L 311.00375,482.73401 L 311.00375,482.73401 L 311.00375,482.73401 z"
       id="path19"
       style="fill:#b9292f" />
    <path
       d="M 266.98918,506.18375 C 266.98918,499.97389 273.48641,494.30563 284.18986,489.9899 C 284.17982,489.7176 284.17179,489.43524 284.17179,489.13579 C 284.17179,488.69868 284.18887,488.23246 284.22304,487.74511 C 266.88468,492.62153 255.23371,499.90255 253.35165,508.15923 C 257.34684,510.59795 263.48534,512.81863 271.2718,514.70971 C 268.50349,512.05292 266.98918,509.17812 266.98918,506.18375 L 266.98918,506.18375 L 266.98918,506.18375 L 266.98918,506.18375 z"
       id="path21"
       style="fill:#b9292f" />
    <path
       d="M 291.42564,513.99024 C 290.85892,515.41211 290.11032,516.81685 289.35871,518.08292 C 296.11719,519.04052 303.49464,519.80823 311.33835,520.34981 C 303.38715,518.81144 296.57037,516.61387 291.43772,513.96312 C 291.43266,513.97217 291.42968,513.9822 291.42564,513.99024 L 291.42564,513.99024 L 291.42564,513.99024 L 291.42564,513.99024 z"
       id="path23"
       style="fill:#b9292f" />
    <path
       d="M 284.25619,487.33516 C 284.30443,486.81764 284.37676,486.27705 284.47724,485.72038 C 262.40316,489.32069 248.11649,495.06228 248.11649,501.52837 C 248.11649,503.31897 249.20873,505.05229 251.25658,506.70021 C 254.45796,498.76708 266.73397,491.86491 284.25619,487.33516 L 284.25619,487.33516 L 284.25619,487.33516 L 284.25619,487.33516 z"
       id="path25"
       style="fill:#b9292f" />
    <path
       d="M 284.18684,512.07907 C 283.8,513.85963 283.387,515.65826 282.9047,517.07911 C 283.07955,517.11027 283.25537,517.13938 283.43221,517.16853 C 283.62014,516.26015 284.00196,515.26739 284.93947,514.39822 C 284.85204,513.7491 284.631,512.19662 284.3868,511.09634 L 284.18684,512.07907 L 284.18684,512.07907 L 284.18684,512.07907 L 284.18684,512.07907 z"
       id="path27"
       style="fill:#b9292f" />
    <path
       d="M 291.62059,486.19366 C 294.39995,485.71333 296.38248,483.41328 297.0326,482.3542 C 296.1795,482.35721 295.6007,482.61947 295.6007,482.61947 C 295.6007,482.61947 294.76872,482.04071 295.32538,480.67914 C 295.661,480.50231 296.12123,480.07526 296.12123,480.07526 C 296.94016,480.20587 297.59228,479.27037 296.97934,478.357 C 297.88468,476.79348 298.01532,474.03019 296.28099,473.03642 C 294.48133,472.00444 293.11276,474.10456 293.29462,473.83023 C 293.29462,473.83023 295.57159,473.16804 296.39454,474.8883 C 294.34266,474.25429 293.67243,474.99985 294.415,477.01855 C 293.84226,477.33207 293.58604,477.68173 294.31554,477.89677 L 294.23114,479.7969 C 294.23114,479.7969 292.96002,479.63714 292.38125,478.98601 C 291.96824,480.87511 292.19935,481.89902 292.48273,482.65767 C 292.76609,483.41328 293.36598,484.22621 291.62059,486.19366 L 291.62059,486.19366 L 291.62059,486.19366 L 291.62059,486.19366 z"
       id="path29" />
    <path
       d="M 288.00722,476.10817 C 287.52489,474.20099 286.8426,472.97713 286.18947,471.86679 C 285.53935,470.75647 285.19067,469.03417 284.52649,467.79823 C 283.86128,466.56128 281.21457,462.72284 280.90406,462.32291 C 280.59561,461.92502 280.44185,461.26986 280.42981,460.64586 C 280.41273,459.88321 280.98546,458.63619 280.58252,458.4443 C 280.24894,458.28451 279.86911,459.17678 279.41492,459.16072 C 278.96073,459.14363 278.35081,457.67055 278.26339,456.69888 C 278.14784,455.42779 277.50273,455.71013 277.54693,456.95009 C 277.57205,457.61831 277.61527,459.17581 278.92256,462.10187 C 279.56563,463.14889 280.43181,464.82295 281.00757,466.04682 C 281.81446,467.76308 282.53491,469.50643 282.99714,470.36357 C 283.46439,471.22873 284.20193,473.28261 284.40894,474.02517 C 284.61994,474.78379 285.45295,479.07843 285.64283,480.7726 C 285.81971,482.34113 285.99656,483.31383 285.80663,484.07649 C 285.81165,484.09055 285.79558,484.11967 285.8006,484.13374 C 284.96458,487.00557 285.07712,489.60604 285.19871,491.11228 C 285.32132,492.62055 285.62677,493.58419 285.3183,494.73368 C 286.42261,491.02388 287.35307,490.36271 288.21118,490.16373 C 285.3183,484.00314 288.47246,479.55876 288.47246,479.55876 L 290.13544,481.52221 C 290.30828,480.07322 289.7707,477.88168 288.00722,476.10817 L 288.00722,476.10817 L 288.00722,476.10817 L 288.00722,476.10817 z"
       id="path31" />
    <path
       d="M 291.38846,502.08504 C 291.18246,506.95342 290.01385,512.12628 288.9216,513.84055 C 288.44531,514.58714 287.962,515.23123 287.68868,515.31864 C 287.20636,515.68541 286.61251,515.57386 285.81467,514.88455 C 284.10145,516.26117 284.31748,518.14119 284.0743,519.34801 C 283.83013,520.55381 283.73668,520.51964 283.2373,520.73668 C 282.73789,520.95072 282.49772,522.80361 282.46959,523.01866 C 282.44146,523.23469 281.26582,525.61009 281.10905,526.97769 C 280.95231,528.34626 280.97743,530.10571 282.3661,529.23855 C 283.75478,528.36837 284.72344,527.19873 284.88421,525.32875 C 285.04597,523.45574 285.26806,522.80361 285.60969,522.16255 C 286.07995,521.28128 289.03615,517.43985 290.55245,513.64259 C 292.06875,509.84332 292.78721,506.00386 292.68369,501.40074 C 292.22448,501.62783 291.79642,501.85494 291.38846,502.08504 L 291.38846,502.08504 L 291.38846,502.08504 L 291.38846,502.08504 z"
       id="path33" />
    <path
       d="M 320.93246,465.38264 C 320.74457,465.23491 319.90553,466.82758 318.8997,467.67465 C 317.89386,468.5207 317.42962,467.38726 317.12516,466.92304 C 316.62677,466.16437 316.49918,467.69573 316.30321,468.94275 C 315.97364,471.06595 313.61931,472.03461 311.75034,473.09269 C 309.88235,474.15076 309.36385,475.0119 308.77706,475.71126 C 308.18721,476.41264 304.86322,478.00328 304.36384,478.359 C 304.30655,478.40019 304.21611,478.44842 304.10256,478.50469 C 303.29671,479.72757 302.04369,479.92855 300.89918,480.62789 C 299.59993,481.42373 297.75807,484.34879 296.51512,486.71215 C 295.00485,489.58195 293.65335,490.7365 291.31009,491.81467 C 291.31009,491.81467 290.18066,494.51064 287.72587,496.6871 C 286.30804,497.94412 284.8209,498.4395 283.52567,499.47449 C 281.13922,502.31916 280.09419,505.52556 279.33854,507.49202 C 278.45128,509.80214 277.8956,515.14781 277.8956,515.14781 C 277.8956,515.14781 277.16911,520.62415 276.18439,524.68666 C 275.09113,529.19635 274.35962,531.23314 273.9617,533.29404 C 273.40401,536.18092 272.64939,537.05209 272.31479,537.6158 C 272.12588,538.41263 272.36804,538.487 274.19986,538.62466 C 276.40645,538.79045 276.99932,538.06197 276.91891,537.26008 C 276.83953,536.45824 276.85865,534.81133 277.24047,534.25365 C 277.6233,533.69596 277.68459,532.9574 277.75896,532.66101 C 277.83333,532.36657 277.34094,530.5418 277.28568,529.74999 C 277.22942,528.95618 277.45551,527.6258 278.45531,526.42804 C 279.45309,525.23028 279.88114,524.14605 279.8038,522.38258 C 279.72641,520.61912 280.19466,519.92677 281.13922,518.66775 C 282.08275,517.40968 282.87053,513.71896 283.29859,511.75351 C 283.72563,509.78807 283.76783,508.28082 285.62576,505.26231 C 287.69774,501.89209 292.81233,499.50964 292.81233,499.50964 C 292.81233,499.50964 293.59708,497.14028 295.19176,493.34101 C 296.7844,489.54175 298.55893,486.61768 299.87124,485.73343 C 301.18253,484.84918 307.28485,480.00288 308.33893,479.14677 C 309.39603,478.29167 311.10625,476.80856 311.73326,476.26694 C 312.36128,475.72533 316.00478,472.1823 318.50984,469.7024 C 321.01083,467.22045 321.30526,465.67805 320.93246,465.38264 L 320.93246,465.38264 L 320.93246,465.38264 L 320.93246,465.38264 z"
       id="path35" />
    <path
       clip-rule="evenodd"
       d="M 308.77706,511.87409 L 308.21233,513.0005 L 306.39461,513.0005 L 309.75574,506.43696 L 312.41453,506.43696 L 313.01339,513.0005 L 311.23083,513.0005 L 311.12934,511.87409 L 308.77706,511.87409 L 308.77706,511.87409 L 308.77706,511.87409 z M 310.84196,507.75127 L 309.42114,510.59493 L 311.05097,510.59493 L 310.84196,507.75127 L 310.84196,507.75127 L 310.84196,507.75127 z M 316.31528,513.0005 L 314.56387,513.0005 L 315.63601,507.96126 L 313.95494,507.96126 L 314.27848,506.43595 L 319.47547,506.43595 L 319.15392,507.96126 L 317.38543,507.96126 L 316.31528,513.0005 L 316.31528,513.0005 L 316.31528,513.0005 z M 324.9327,513.0005 L 323.18528,513.0005 L 323.72992,510.43016 L 321.44492,510.43016 L 320.90032,513.0005 L 319.15091,513.0005 L 320.54562,506.43696 L 322.295,506.43696 L 321.7725,508.90684 L 324.05346,508.90684 L 324.578,506.43696 L 326.32742,506.43696 L 324.9327,513.0005 L 324.9327,513.0005 L 324.9327,513.0005 z M 328.57017,511.47918 L 331.30835,511.47918 L 330.98178,513.0005 L 326.49419,513.0005 L 327.8889,506.43696 L 329.6393,506.43696 L 328.57017,511.47918 L 328.57017,511.47918 L 328.57017,511.47918 z M 334.70267,509.07161 L 337.5021,509.07161 L 337.24586,510.28846 L 334.44138,510.28846 L 334.17108,511.5666 L 337.21675,511.5666 L 336.90824,512.99948 L 332.11822,512.99948 L 333.51093,506.43595 L 338.24567,506.43595 L 337.9372,507.87384 L 334.95588,507.87384 L 334.70267,509.07161 L 334.70267,509.07161 L 334.70267,509.07161 z M 341.38274,513.0005 L 339.62733,513.0005 L 340.70147,507.96126 L 339.02239,507.96126 L 339.34395,506.43595 L 344.54294,506.43595 L 344.22139,507.96126 L 342.45288,507.96126 L 341.38274,513.0005 L 341.38274,513.0005 L 341.38274,513.0005 z M 345.99796,513.0005 L 344.24752,513.0005 L 345.64322,506.43696 L 347.39263,506.43696 L 345.99796,513.0005 L 345.99796,513.0005 L 345.99796,513.0005 z M 353.63563,510.51656 L 353.59343,510.70747 C 353.43971,511.42491 353.29802,512.07103 352.59162,512.57444 C 351.89629,513.06081 351.17281,513.05175 350.40612,513.05175 C 348.62657,513.05175 347.34138,512.96735 347.84883,510.56781 L 348.21157,508.87165 C 348.67178,506.70221 349.90071,506.38669 351.82795,506.38669 C 353.6276,506.38669 354.42744,506.5716 354.0446,508.53705 L 353.98935,508.79226 L 352.19171,508.79226 L 352.24295,508.53705 C 352.30726,507.95021 351.90432,507.90903 351.30847,507.90903 C 350.31168,507.90903 350.1489,508.2155 349.95396,509.15099 L 349.7339,510.17592 C 349.5259,511.15562 349.48872,511.53243 350.54178,511.53243 C 351.26725,511.53243 351.629,511.4802 351.79178,510.70849 L 351.833,510.51757 L 353.63563,510.51757 L 353.63563,510.51656 L 353.63563,510.51656 z M 358.22369,509.01334 C 360.1369,509.15099 360.56394,509.39618 360.24744,510.90041 C 360.0133,511.98663 359.83243,513.05073 356.94356,513.05073 C 355.27251,513.05073 354.16921,513.01456 354.62643,510.86523 L 356.30849,510.86523 C 356.15876,511.55151 356.39289,511.61887 357.25003,511.61887 C 358.07096,511.61887 358.35434,511.56762 358.46688,511.01194 C 358.59247,510.44822 358.49501,510.45225 357.68008,510.40401 L 357.30328,510.37588 C 355.71064,510.26335 354.76307,510.26938 355.16197,508.39136 C 355.55989,506.5093 356.64511,506.38669 358.36135,506.38669 C 359.79325,506.38669 361.0141,506.41483 360.63127,508.22153 L 360.57401,508.49383 L 358.89192,508.49383 C 359.03561,507.82161 358.75325,507.82161 358.05288,507.82161 C 357.11135,507.82161 356.99278,508.01452 356.91339,508.38129 C 356.80186,508.90582 357.05107,508.92592 357.51028,508.96009 L 358.22369,509.01334 L 358.22369,509.01334 L 358.22369,509.01334 z M 313.88562,504.0555 L 309.07447,504.0555 L 312.90791,492.02569 L 317.71901,492.02569 L 313.88562,504.0555 L 313.88562,504.0555 L 313.88562,504.0555 z M 357.42287,497.01566 L 364.78625,497.01566 L 363.94619,499.64432 L 356.58281,499.64432 L 355.17807,504.05651 L 350.36592,504.05651 L 354.20037,492.0267 L 366.99887,492.0267 L 366.16184,494.65634 L 358.17146,494.65634 L 357.42287,497.01566 L 357.42287,497.01566 L 357.42287,497.01566 z M 340.06742,499.6433 L 344.54595,499.6433 L 343.92197,494.43125 L 340.06742,499.6433 L 340.06742,499.6433 L 340.06742,499.6433 z M 323.42043,499.6433 L 327.89894,499.6433 L 327.27193,494.43125 L 323.42043,499.6433 L 323.42043,499.6433 L 323.42043,499.6433 z M 348.29698,492.0267 L 349.94691,504.05651 L 345.03832,504.05651 L 344.75999,501.98656 L 338.28787,501.98656 L 336.73844,504.05651 L 328.39133,504.05651 L 328.11598,501.98656 L 321.6439,501.98656 L 320.09245,504.05651 L 315.08738,504.05651 L 324.33983,492.0267 L 331.65097,492.0267 L 333.06477,502.3272 L 340.98686,492.0267 L 348.29698,492.0267 L 348.29698,492.0267 L 348.29698,492.0267 z"
       id="path37"
       style="fill-rule:evenodd" />
    <path
       d="M 291.31412,491.81165 C 293.65838,490.73246 295.00888,489.57991 296.51911,486.71015 C 297.76109,484.34678 299.60294,481.42171 300.90219,480.62589 C 302.04671,479.92753 303.29973,479.72557 304.10557,478.50167 C 303.22336,478.92671 300.78562,479.77178 299.23318,480.8791 C 297.48275,482.12813 296.89694,484.42214 295.44799,487.21658 C 293.99901,490.012 291.57435,490.97964 289.56169,490.50237 C 289.57376,491.70614 288.29559,494.88642 284.90228,498.02253 C 284.39788,498.48773 283.94569,498.97508 283.52868,499.47148 C 284.82492,498.43651 286.31207,497.94211 287.72889,496.68506 C 290.18568,494.50661 291.31412,491.81165 291.31412,491.81165 L 291.31412,491.81165 L 291.31412,491.81165 L 291.31412,491.81165 z"
       id="path39"
       style="fill:#ffd520" />
    <path
       d="M 285.64887,480.7726 C 285.45898,479.07745 284.62598,474.78282 284.41395,474.02416 C 284.20796,473.28261 283.4694,471.22873 283.00216,470.36357 C 282.53993,469.50643 281.81947,467.76308 281.01261,466.0458 C 280.43581,464.82092 279.56966,463.14889 278.92758,462.10187 C 278.94666,462.15511 278.96676,462.20637 278.98686,462.26061 C 280.15548,465.23491 281.07488,468.10874 282.18323,470.02794 C 283.29153,471.94718 283.8422,473.49362 284.33958,476.80452 C 284.83096,480.07526 285.43183,482.90886 285.79158,484.08653 C 285.97947,483.32488 285.82571,482.34013 285.64887,480.7726 L 285.64887,480.7726 L 285.64887,480.7726 L 285.64887,480.7726 z"
       id="path41"
       style="fill:#ffd520" />
    <path
       d="M 288.92763,513.83953 C 290.0189,512.1253 291.18752,506.95244 291.3945,502.08402 C 288.26949,503.85553 286.64769,505.7627 285.65392,507.72212 C 288.3961,506.71831 290.15554,507.49704 289.32858,511.15864 C 288.84124,513.31198 288.38203,514.79913 287.6957,515.31864 C 287.96803,515.22923 288.45135,514.58612 288.92763,513.83953 L 288.92763,513.83953 L 288.92763,513.83953 z"
       id="path43"
       style="fill:#ffd520" />
    <path
       d="M 276.1874,524.68364 C 277.17213,520.62113 277.89963,515.14482 277.89963,515.14482 C 277.89963,515.14482 277.19124,517.31524 276.09195,520.25938 C 274.99469,523.20456 274.55759,527.66197 274.3787,529.37922 C 274.19986,531.09447 272.89155,535.56595 272.43234,537.18171 C 272.38615,537.34551 272.34593,537.48719 272.31679,537.61278 C 272.65142,537.04907 273.40605,536.17688 273.96472,533.29102 C 274.36264,531.23012 275.09516,529.19333 276.1874,524.68364 L 276.1874,524.68364 L 276.1874,524.68364 L 276.1874,524.68364 z"
       id="path45"
       style="fill:#ffd520" />
    <path
       d="M 425.58749,475.864 L 346.79577,470.456 C 349.14808,469.99279 351.40192,469.48535 353.54922,468.93973 L 426.57722,473.95182 C 426.28886,474.61098 425.95525,475.24704 425.58749,475.864 L 425.58749,475.864 L 425.58749,475.864 z"
       id="path47"
       style="fill:#72bf44" />
    <path
       d="M 427.60014,470.4118 L 363.15238,465.98855 C 365.09373,465.2701 366.90239,464.51245 368.57446,463.72166 L 427.74184,467.78316 C 427.74886,467.97206 427.75086,468.16301 427.75086,468.35392 C 427.74988,469.0643 427.69862,469.74961 427.60014,470.4118 L 427.60014,470.4118 L 427.60014,470.4118 z"
       id="path49"
       style="fill:#72bf44" />
    <path
       d="M 427.40121,464.92946 C 409.22182,463.6945 391.16402,462.45456 373.22984,461.20958 C 374.79634,460.24092 376.17898,459.23407 377.36872,458.19609 C 393.78463,459.33455 410.10708,460.45595 426.3391,461.56025 C 426.8003,462.64748 427.15904,463.77087 427.40121,464.92946 L 427.40121,464.92946 L 427.40121,464.92946 z"
       id="path51"
       style="fill:#72bf44" />
    <path
       d="M 425.10817,459.14163 C 409.92119,458.10565 394.73318,457.06263 379.54416,456.01361 C 380.62034,454.75455 381.42621,453.45933 381.94773,452.13997 L 421.91683,454.88315 C 423.14474,456.23065 424.22291,457.64946 425.10817,459.14163 L 425.10817,459.14163 L 425.10817,459.14163 z"
       id="path53"
       style="fill:#72bf44" />
    <path
       d="M 420.01369,452.95792 C 407.73067,452.10983 395.2155,451.25372 382.47022,450.38855 C 382.77771,448.86927 382.7114,447.32382 382.25521,445.76633 C 392.56676,446.4677 402.97681,447.18216 413.49134,447.90865 C 415.84464,449.44804 418.06031,451.12911 420.01369,452.95792 L 420.01369,452.95792 L 420.01369,452.95792 z"
       id="path55"
       style="fill:#72bf44" />
    <path
       d="M 410.70999,446.18937 C 401.10781,445.53423 391.59207,444.87909 382.15976,444.22592 L 397.09051,439.69115 C 401.38614,441.38528 406.19829,443.54465 410.70999,446.18937 L 410.70999,446.18937 L 410.70999,446.18937 z"
       id="path57"
       style="fill:#72bf44" />
    <path
       d="M 394.96731,435.32516 L 392.29544,434.71623 L 389.74219,435.66477 L 391.98697,436.35713 C 415.91298,444.10837 431.65764,455.63277 431.65764,468.64632 C 431.65764,474.04324 428.9808,479.15783 424.19478,483.82727 L 461.42974,488.96298 C 462.65062,486.2017 463.27763,483.38013 463.27763,480.50932 C 463.27763,463.70657 441.61452,448.41907 407.06946,438.46525 L 395.91183,435.54522 L 394.96731,435.32516 L 394.96731,435.32516 L 394.96731,435.32516 z"
       id="path59"
       style="fill:#005496" />
    <path
       d="M 432.47356,440.06392 C 458.26053,447.18114 479.84726,456.64664 493.41347,467.55204 L 522.3405,467.55204 C 501.01,455.74229 472.23869,445.85175 438.42318,438.77372 L 427.82221,436.67665 L 423.75868,437.69252 L 432.47356,440.06392 L 432.47356,440.06392 L 432.47356,440.06392 z"
       id="path61"
       style="fill:#005496" />
    <path
       d="M 409.75939,437.60914 C 443.35889,447.19219 466.26298,461.88583 469.1006,478.75892 L 499.47662,480.87108 C 488.50288,462.2998 456.58044,446.39337 412.81007,436.7299 L 409.12938,435.98836 L 406.5771,436.75804 L 409.75939,437.60914 L 409.75939,437.60914 L 409.75939,437.60914 z"
       id="path63"
       style="fill:#005496" />
    <path
       clip-rule="evenodd"
       d="M 279.34259,399.16437 C 283.76383,399.16437 285.71118,401.90153 285.71118,406.05949 C 285.71118,411.5338 282.71176,418.37367 276.71193,418.37367 C 272.29167,418.37367 270.34432,415.69079 270.34432,411.53281 C 270.34331,406.05851 273.34273,399.16437 279.34259,399.16437 L 279.34259,399.16437 L 279.34259,399.16437 z M 262.0806,422.37391 L 267.55392,422.37391 L 268.3437,417.79491 L 268.44821,417.79491 C 270.2388,421.68962 273.23822,423.11145 277.44846,423.11145 C 286.86874,423.11145 291.71102,414.16343 291.71102,405.63849 C 291.71102,399.16437 287.92282,394.42761 281.4487,394.42761 C 278.02726,394.42761 275.23784,395.74392 273.18497,398.37557 L 273.08047,398.27107 L 275.86989,384.79631 L 269.87003,384.79631 L 262.0806,422.37391 L 262.0806,422.37391 L 262.0806,422.37391 z"
       id="path65"
       style="fill:#005496;fill-rule:evenodd" />
    <path
       clip-rule="evenodd"
       d="M 316.50016,413.95242 C 315.65811,416.7951 313.18424,418.37268 309.97279,418.37268 C 305.44703,418.37268 303.49969,415.79427 303.49969,412.05731 C 303.49969,411.5318 303.49969,410.95202 303.60518,410.31997 L 323.86859,410.31997 C 324.02635,409.42466 324.1831,408.26812 324.1831,406.95178 C 324.1831,401.63625 322.289,394.42557 312.60545,394.42557 C 302.86866,394.42557 297.49983,402.84605 297.49983,411.21428 C 297.49983,418.58268 302.49989,423.10945 309.39501,423.10945 C 315.86814,423.10945 320.60589,420.26677 322.50002,413.95144 L 316.50016,413.95144 L 316.50016,413.95242 L 316.50016,413.95242 z M 304.18398,406.37399 C 305.39579,402.16379 307.97419,399.16335 312.4487,399.16335 C 316.02688,399.16335 318.18425,401.47947 318.18425,404.6899 C 318.18425,405.21544 318.18425,405.74198 318.131,406.37399 L 304.18398,406.37399 L 304.18398,406.37399 L 304.18398,406.37399 z"
       id="path67"
       style="fill:#005496;fill-rule:evenodd" />
    <path
       d="M 329.29063,422.37391 L 335.28947,422.37391 L 337.81561,410.32199 C 338.97419,404.84867 341.60481,400.11089 347.81567,400.11089 C 348.49996,400.11089 349.2375,400.21642 349.92281,400.32194 L 351.18586,394.58536 C 350.23832,394.42761 349.23852,394.42761 348.29095,394.42761 C 344.60626,394.42761 341.23807,397.58577 339.60723,400.58519 L 339.50272,400.47969 L 340.60801,395.16413 L 334.92371,395.16413 L 329.29063,422.37391 L 329.29063,422.37391 L 329.29063,422.37391 z"
       id="path69"
       style="fill:#005496" />
    <polygon
       points="144.855,88.03 150.827,88.03 158.578,50.632 152.607,50.632 144.855,88.03 144.855,88.03 "
       id="polygon71"
       transform="matrix(1.0048296,0,0,1.0048296,205.31377,333.91877)"
       style="fill:#005496" />
    <path
       clip-rule="evenodd"
       d="M 367.23703,422.37391 L 373.23685,422.37391 L 378.86794,395.16413 L 372.86808,395.16413 L 367.23703,422.37391 L 367.23703,422.37391 L 367.23703,422.37391 z M 373.86891,390.48062 L 379.81548,390.48062 L 380.97304,384.79631 L 375.02647,384.79631 L 373.86891,390.48062 L 373.86891,390.48062 L 373.86891,390.48062 z"
       id="path73"
       style="fill:#005496;fill-rule:evenodd" />
    <path
       d="M 383.60569,422.37391 L 389.60555,422.37391 L 392.66022,407.63708 C 393.13248,405.42646 394.23679,403.21685 395.60536,401.796 C 397.08044,400.32194 398.92332,399.16437 401.2897,399.16437 C 405.65969,399.16437 405.44869,402.16379 405.44869,403.05909 C 405.44869,403.79663 405.23767,404.69092 405.02666,405.58523 L 401.55397,422.37391 L 407.55378,422.37391 L 411.18425,405.00643 C 411.39427,404.0589 411.44851,402.63805 411.44851,401.63824 C 411.44851,397.26926 408.97562,394.42761 403.50131,394.42761 C 399.76435,394.42761 396.29067,396.21719 394.1333,399.21762 L 394.02777,399.1121 L 394.87084,395.16515 L 389.23979,395.16515 L 383.60569,422.37391 L 383.60569,422.37391 L 383.60569,422.37391 z"
       id="path75"
       style="fill:#005496" />
    <path
       d="M 428.58087,403.39467 C 428.78483,399.28091 431.26979,395.77909 435.62674,395.77909 C 438.72059,395.77909 441.49192,397.4079 441.49192,400.86955 C 441.49192,405.83845 436.84758,408.15958 432.1239,410.76613 C 427.44039,413.37366 422.63329,416.30576 422.30872,422.37391 L 440.75739,422.37391 L 441.20453,420.01156 L 425.28099,420.01156 C 426.82742,415.81641 431.55314,413.61782 435.82768,411.17408 C 440.14543,408.77051 444.05622,406.08261 444.05622,400.95094 C 444.05622,396.18505 440.34943,393.62071 435.8689,393.62071 C 430.24887,393.62071 426.25771,397.77468 426.01453,403.39467 L 428.58087,403.39467 L 428.58087,403.39467 L 428.58087,403.39467 z"
       id="path77"
       style="fill:#005496" />
    <path
       clip-rule="evenodd"
       d="M 455.00989,422.98485 C 464.3759,422.98485 467.83857,411.25547 467.83857,403.59867 C 467.83857,398.22283 465.84295,393.62071 459.77581,393.62071 C 450.93833,393.62071 447.2315,405.2687 447.2315,412.43714 C 447.23049,417.64921 448.89953,422.98485 455.00989,422.98485 L 455.00989,422.98485 L 455.00989,422.98485 z M 465.27222,403.31329 C 465.27222,408.77153 462.70689,420.82646 455.62184,420.82646 C 451.05788,420.82646 449.79582,417.16085 449.79582,413.25105 C 449.79582,407.87423 452.56514,395.77808 459.48843,395.77808 C 464.13272,395.77909 465.27222,399.44369 465.27222,403.31329 L 465.27222,403.31329 L 465.27222,403.31329 z"
       id="path79"
       style="fill:#005496;fill-rule:evenodd" />
    <path
       clip-rule="evenodd"
       d="M 480.09345,422.98485 C 489.46147,422.98485 492.92412,411.25547 492.92412,403.59867 C 492.92412,398.22283 490.92852,393.62071 484.85937,393.62071 C 476.0219,393.62071 472.31507,405.2687 472.31507,412.43714 C 472.31405,417.64921 473.9831,422.98485 480.09345,422.98485 L 480.09345,422.98485 L 480.09345,422.98485 z M 490.35778,403.31329 C 490.35778,408.77153 487.79046,420.82646 480.7054,420.82646 C 476.14447,420.82646 474.87938,417.16085 474.87938,413.25105 C 474.87938,407.87423 477.64871,395.77808 484.57399,395.77808 C 489.21628,395.77909 490.35778,399.44369 490.35778,403.31329 L 490.35778,403.31329 L 490.35778,403.31329 z"
       id="path81"
       style="fill:#005496;fill-rule:evenodd" />
    <path
       clip-rule="evenodd"
       d="M 509.08781,395.77909 C 512.9966,395.77909 515.31877,398.79356 515.31877,402.49938 C 515.31877,406.61317 512.46807,410.64555 508.0679,410.64555 C 504.36209,410.64555 501.5928,408.28219 501.5928,404.49499 C 501.5928,400.01445 504.16115,395.77909 509.08781,395.77909 L 509.08781,395.77909 L 509.08781,395.77909 z M 497.11227,415.53205 C 497.11227,420.54111 500.16592,422.98485 505.01424,422.98485 C 509.77914,422.98485 512.99558,419.97034 515.03339,415.98016 C 517.02897,411.98799 517.8841,407.06031 517.8841,403.2319 C 517.8841,397.77468 515.19515,393.62071 509.41136,393.62071 C 503.22262,393.62071 499.02645,398.01786 499.02645,404.16941 C 499.02645,408.97552 502.16354,412.80391 507.17162,412.80391 C 510.26747,412.80391 513.11818,411.37808 514.66764,408.77153 L 514.74801,408.77153 C 513.56733,413.45504 511.32555,420.82748 505.176,420.82748 C 501.5928,420.82748 499.79915,419.11724 499.6796,415.53303 L 497.11227,415.53303 L 497.11227,415.53205 L 497.11227,415.53205 z"
       id="path83"
       style="fill:#005496;fill-rule:evenodd" />
    <path
       d="M 242.15081,538.67388 L 244.40465,528.07091 L 242.81702,528.07091 C 242.35782,529.23855 241.37608,529.77813 239.96831,529.77813 L 239.77337,529.77813 L 239.47395,531.18589 L 241.58611,531.18589 L 239.99445,538.67489 L 242.15081,538.67489 L 242.15081,538.67388 L 242.15081,538.67388 z"
       id="path85"
       style="fill:#005496" />
    <path
       d="M 251.15909,536.99883 L 247.16089,536.99883 C 247.35179,536.5939 247.83514,536.01007 248.58475,535.44134 L 250.01861,534.33303 C 251.46356,533.23977 252.08958,532.34146 252.38198,530.96383 C 252.77086,529.13706 251.94789,528.07393 249.82069,528.07393 C 247.55982,528.07393 246.29172,529.18228 245.8737,531.14369 L 245.78831,531.54866 L 247.85524,531.54866 C 248.10846,530.42523 248.41391,529.48173 249.49209,529.48173 C 250.16634,529.48173 250.44768,529.91578 250.26077,530.80003 C 250.02868,531.89231 249.7614,532.37159 248.63597,533.22571 L 247.59599,534.03459 C 245.71496,535.48759 244.67393,536.78982 244.27303,538.67791 L 250.80239,538.67791 L 251.15909,536.99883 L 251.15909,536.99883 L 251.15909,536.99883 z"
       id="path87"
       style="fill:#005496" />
    <path
       d="M 255.9843,530.61618 L 254.93727,530.61618 L 254.63684,532.02292 L 255.68587,532.02292 L 254.70515,536.63508 C 254.3575,538.26795 254.55241,538.7613 256.17019,538.7613 C 256.6495,538.7613 257.07855,538.71709 257.53776,538.6729 L 257.84324,537.23496 C 257.70558,537.25005 257.53677,537.26411 257.37196,537.26411 C 256.77309,537.26411 256.69269,537.00989 256.82737,536.38088 L 257.7528,532.02292 L 258.95155,532.02292 L 259.24998,530.61618 L 258.05225,530.61618 L 258.54261,528.30907 L 256.47568,528.30907 L 255.9843,530.61618 L 255.9843,530.61618 L 255.9843,530.61618 z"
       id="path89"
       style="fill:#005496" />
    <path
       d="M 258.99978,538.67388 L 261.06672,538.67388 L 262.2032,533.32617 C 262.39412,532.42786 262.87542,531.99381 263.57981,531.99381 C 264.19376,531.99381 264.39674,532.3083 264.22491,533.11618 L 263.04423,538.6729 L 265.11116,538.6729 L 266.38127,532.69616 C 266.71889,531.10854 266.10494,530.40516 264.81676,530.40516 C 263.94756,530.40516 263.17084,530.74979 262.63526,531.43813 L 262.60614,531.43813 L 263.34067,527.9795 L 261.27272,527.9795 L 258.99978,538.67388 L 258.99978,538.67388 L 258.99978,538.67388 z"
       id="path91"
       style="fill:#005496" />
    <polygon
       points="81.215,203.771 83.478,193.129 81.331,193.129 79.069,203.771 81.215,203.771 81.215,203.771 "
       id="polygon93"
       transform="matrix(1.0048296,0,0,1.0048296,205.31377,333.91877)"
       style="fill:#005496" />
    <path
       clip-rule="evenodd"
       d="M 288.52169,538.67388 L 290.76848,538.67388 L 291.74317,536.41204 L 294.58784,536.41204 L 294.60191,538.67388 L 296.84772,538.67388 L 296.29003,527.9805 L 293.6242,527.9805 L 288.52169,538.67388 L 288.52169,538.67388 L 288.52169,538.67388 z M 294.54764,529.83843 L 294.5768,529.83843 L 294.58784,534.64554 L 292.49176,534.64554 L 294.54764,529.83843 L 294.54764,529.83843 L 294.54764,529.83843 z"
       id="path95"
       style="fill:#005496;fill-rule:evenodd" />
    <path
       clip-rule="evenodd"
       d="M 297.5953,538.67388 L 299.8411,538.67388 L 300.81678,536.41204 L 303.66247,536.41204 L 303.67654,538.67388 L 305.92231,538.67388 L 305.36463,527.9805 L 302.69985,527.9805 L 297.5953,538.67388 L 297.5953,538.67388 L 297.5953,538.67388 z M 303.62125,529.83843 L 303.65142,529.83843 L 303.66345,534.64554 L 301.56639,534.64554 L 303.62125,529.83843 L 303.62125,529.83843 L 303.62125,529.83843 z"
       id="path97"
       style="fill:#005496;fill-rule:evenodd" />
    <polygon
       points="101.613,203.771 103.759,203.771 104.741,199.15 108.318,199.15 108.692,197.392 105.115,197.392 105.647,194.888 109.447,194.888 109.821,193.129 103.875,193.129 101.613,203.771 101.613,203.771 "
       id="polygon99"
       transform="matrix(1.0048296,0,0,1.0048296,205.31377,333.91877)"
       style="fill:#005496" />
    <polygon
       points="114.889,203.771 117.288,203.771 120.121,196.05 120.151,196.05 119.703,203.771 122.102,203.771 126.301,193.129 124.245,193.129 121.395,200.998 121.365,200.998 121.786,193.129 119.729,193.129 116.805,200.998 116.774,200.998 117.27,193.129 115.213,193.129 114.889,203.771 114.889,203.771 "
       id="polygon101"
       transform="matrix(1.0048296,0,0,1.0048296,205.31377,333.91877)"
       style="fill:#005496" />
    <path
       clip-rule="evenodd"
       d="M 331.82481,534.64452 C 331.22895,537.44499 331.60274,538.92712 334.09875,538.88289 C 336.46412,538.88289 337.58951,537.39977 338.17434,534.64452 C 338.77019,531.84407 338.39641,530.36194 335.9004,530.40615 C 333.53405,530.40615 332.40964,531.8893 331.82481,534.64452 L 331.82481,534.64452 L 331.82481,534.64452 z M 333.89076,534.64452 C 334.24044,532.9966 334.58206,531.81492 335.60099,531.81492 C 336.43899,531.81492 336.53344,532.63887 336.1064,534.64452 C 335.68135,536.65118 335.23621,537.47411 334.39718,537.47411 C 333.37928,537.47513 333.54107,536.29244 333.89076,534.64452 L 333.89076,534.64452 L 333.89076,534.64452 z"
       id="path103"
       style="fill:#005496;fill-rule:evenodd" />
    <path
       d="M 339.17012,538.67388 L 341.23705,538.67388 L 342.26499,533.83664 C 342.49309,532.75846 343.38138,532.38366 344.09982,532.38366 C 344.30982,532.38366 344.53189,532.39874 344.7389,532.41379 L 345.1579,530.43729 C 345.04133,530.42224 344.90971,530.40717 344.79012,530.40717 C 343.93604,530.40717 343.24371,530.9166 342.65889,531.69534 L 342.62875,531.69534 L 342.85885,530.61716 L 340.88235,530.61716 L 339.17012,538.67388 L 339.17012,538.67388 L 339.17012,538.67388 z"
       id="path105"
       style="fill:#005496" />
    <polygon
       points="138.987,203.771 141.044,203.771 143.306,193.129 141.249,193.129 138.987,203.771 138.987,203.771 "
       id="polygon107"
       transform="matrix(1.0048296,0,0,1.0048296,205.31377,333.91877)"
       style="fill:#005496" />
    <path
       clip-rule="evenodd"
       d="M 351.96662,534.64452 C 352.33942,532.89212 352.7102,531.99381 353.60852,531.99381 C 354.5229,531.99381 354.51086,532.89212 354.13908,534.64452 C 353.76627,536.39695 353.3955,537.29527 352.4821,537.29527 C 351.58277,537.29527 351.59382,536.39695 351.96662,534.64452 L 351.96662,534.64452 L 351.96662,534.64452 z M 353.37239,538.67388 L 355.34786,538.67388 L 357.62181,527.9805 L 355.55488,527.9805 L 354.83541,531.36477 L 354.80527,531.36477 C 354.50884,530.72068 354.05064,530.40615 353.27191,530.40615 C 351.57975,530.40615 350.53675,531.65015 349.90071,534.64452 C 349.26465,537.63892 349.7781,538.88289 351.47124,538.88289 C 352.28014,538.88289 352.91619,538.56839 353.52411,537.81879 L 353.55425,537.81879 L 353.37239,538.67388 L 353.37239,538.67388 L 353.37239,538.67388 z"
       id="path109"
       style="fill:#005496;fill-rule:evenodd" />
    <path
       d="M 369.98321,531.58985 C 370.31482,530.03236 370.57003,527.77048 367.4852,527.77048 C 364.25066,527.77048 363.47794,530.07656 362.78664,533.32617 C 362.09631,536.57681 361.88831,538.88289 365.12285,538.88289 C 367.95345,538.88289 368.94625,536.89033 369.43559,534.58424 L 367.27923,534.58424 C 366.78888,536.89033 366.13371,537.29527 365.35498,537.29527 C 364.42751,537.29527 364.10094,536.71146 364.78926,533.47692 C 365.43234,530.45136 365.91869,529.35912 367.01196,529.35912 C 367.98563,529.35912 368.15745,530.03236 367.82587,531.58985 L 369.98321,531.58985 L 369.98321,531.58985 L 369.98321,531.58985 z"
       id="path111"
       style="fill:#005496" />
    <path
       d="M 370.4816,538.67388 L 372.54857,538.67388 L 373.68502,533.32617 C 373.87592,532.42786 374.35723,531.99381 375.06163,531.99381 C 375.67558,531.99381 375.87855,532.3083 375.70571,533.11618 L 374.52506,538.6729 L 376.59199,538.6729 L 377.8621,532.69616 C 378.19972,531.10854 377.58576,530.40516 376.29756,530.40516 C 375.42839,530.40516 374.65167,530.74979 374.11609,531.43813 L 374.08694,531.43813 L 374.82146,527.9795 L 372.75452,527.9795 L 370.4816,538.67388 L 370.4816,538.67388 L 370.4816,538.67388 z"
       id="path113"
       style="fill:#005496" />
    <path
       clip-rule="evenodd"
       d="M 381.75078,533.07198 L 381.79699,532.84992 C 381.92963,532.22892 382.34663,531.81492 382.97668,531.81492 C 383.66497,531.81492 383.85589,532.18369 383.72727,532.79161 C 383.61372,533.32821 383.35145,533.56834 382.70337,533.73417 L 381.46842,534.04965 C 379.9632,534.44056 379.2176,535.05651 378.89506,536.57379 C 378.66496,537.65499 378.91414,538.8839 380.35106,538.8839 C 381.3388,538.8839 381.96783,538.67489 382.62497,537.83485 L 382.65611,537.83485 C 382.65815,538.10417 382.6511,538.41866 382.73151,538.67388 L 384.70898,538.67388 C 384.59746,538.20866 384.62559,537.864 384.78637,537.11439 L 385.68873,532.86496 C 385.99519,531.42503 385.74699,530.40615 383.29119,530.40615 C 381.7337,530.40615 380.32692,531.03518 379.93605,532.88005 L 379.89486,533.07198 L 381.75078,533.07198 L 381.75078,533.07198 L 381.75078,533.07198 z M 382.99777,536.22814 C 382.80987,537.11439 382.01404,537.47513 381.45937,537.47513 C 380.9047,537.47513 380.78915,536.96466 380.91979,536.3477 C 381.07352,535.62626 381.48852,535.22129 382.36572,535.04044 C 382.63304,534.98013 383.00581,534.84448 383.33539,534.63448 L 382.99777,536.22814 L 382.99777,536.22814 L 382.99777,536.22814 z"
       id="path115"
       style="fill:#005496;fill-rule:evenodd" />
    <path
       d="M 386.66843,538.67388 L 388.73635,538.67388 L 389.86276,533.3714 C 390.06072,532.44294 390.57518,531.99381 391.23436,531.99381 C 391.81715,531.99381 391.96386,532.36759 391.82016,533.04082 L 390.62341,538.6729 L 392.69136,538.6729 L 393.81676,533.37042 C 394.01574,532.44192 394.53021,531.99279 395.18937,531.99279 C 395.77319,531.99279 395.91689,532.36657 395.77519,533.03981 L 394.57844,538.67188 L 396.64436,538.67188 L 397.89036,532.81575 C 398.22093,531.25826 397.75772,530.40415 396.39416,530.40415 C 395.42147,530.40415 394.58044,530.83922 394.08506,531.69235 L 394.05591,531.69235 C 394.00469,530.86939 393.41382,530.40415 392.47232,530.40415 C 391.60313,530.40415 390.89673,530.7036 390.21546,531.43711 L 390.18532,531.43711 L 390.36017,530.61414 L 388.38265,530.61414 L 386.66843,538.67388 L 386.66843,538.67388 L 386.66843,538.67388 z"
       id="path117"
       style="fill:#005496" />
    <path
       clip-rule="evenodd"
       d="M 401.69061,534.64452 C 402.06341,532.89212 402.4332,531.99381 403.34758,531.99381 C 404.24691,531.99381 404.23485,532.89212 403.86205,534.64452 C 403.48927,536.39695 403.11949,537.29527 402.22016,537.29527 C 401.30577,537.29527 401.31783,536.39695 401.69061,534.64452 L 401.69061,534.64452 L 401.69061,534.64452 z M 398.20788,541.30856 L 400.2738,541.30856 L 400.99429,537.9243 L 401.02341,537.9243 C 401.31984,538.56839 401.77904,538.88289 402.55679,538.88289 C 404.24892,538.88289 405.29092,537.63892 405.92698,534.64452 C 406.56304,531.65015 406.04955,530.40615 404.35644,530.40615 C 403.54856,530.40615 402.91149,530.72068 402.30557,531.47026 L 402.27544,531.47026 L 402.45629,530.61618 L 400.47881,530.61618 L 398.20788,541.30856 L 398.20788,541.30856 L 398.20788,541.30856 z"
       id="path119"
       style="fill:#005496;fill-rule:evenodd" />
    <path
       clip-rule="evenodd"
       d="M 407.07852,538.67388 L 409.14646,538.67388 L 410.85967,530.61618 L 408.79176,530.61618 L 407.07852,538.67388 L 407.07852,538.67388 L 407.07852,538.67388 z M 409.00277,529.62742 L 411.0677,529.62742 L 411.44549,527.86092 L 409.37757,527.86092 L 409.00277,529.62742 L 409.00277,529.62742 L 409.00277,529.62742 z"
       id="path121"
       style="fill:#005496;fill-rule:evenodd" />
    <path
       clip-rule="evenodd"
       d="M 411.93185,534.64452 C 411.33597,537.44499 411.71179,538.92712 414.20576,538.88289 C 416.57112,538.88289 417.69554,537.39977 418.28136,534.64452 C 418.87925,531.84407 418.50342,530.36194 416.00741,530.40615 C 413.64005,530.40615 412.51767,531.8893 411.93185,534.64452 L 411.93185,534.64452 L 411.93185,534.64452 z M 413.99977,534.64452 C 414.34946,532.9966 414.69009,531.81492 415.70799,531.81492 C 416.54601,531.81492 416.64146,532.63887 416.21544,534.64452 C 415.78637,536.65118 415.34224,537.47411 414.50419,537.47411 C 413.48731,537.47513 413.6471,536.29244 413.99977,534.64452 L 413.99977,534.64452 L 413.99977,534.64452 z"
       id="path123"
       style="fill:#005496;fill-rule:evenodd" />
    <path
       d="M 419.27916,538.67388 L 421.34508,538.67388 L 422.48156,533.32617 C 422.67345,532.42786 423.15578,531.99381 423.85715,531.99381 C 424.47311,531.99381 424.67409,532.3083 424.50327,533.11618 L 423.32259,538.6729 L 425.38752,538.6729 L 426.65963,532.69616 C 426.99827,531.10854 426.38431,530.40516 425.0941,530.40516 C 424.22592,530.40516 423.40097,530.76488 422.79708,531.55767 L 422.76993,531.55767 L 422.96891,530.61516 L 420.99139,530.61516 L 419.27916,538.67388 L 419.27916,538.67388 L 419.27916,538.67388 z"
       id="path125"
       style="fill:#005496" />
    <path
       d="M 427.72978,536.03723 L 427.66947,536.3216 C 427.34392,537.864 427.76997,538.88289 430.09111,538.88289 C 431.82849,538.88289 433.26336,538.04386 433.62309,536.35072 C 433.88234,535.1379 433.5417,534.47873 432.33088,534.04464 L 431.17833,533.62461 C 430.53927,533.40054 430.39859,533.07096 430.48201,532.68209 C 430.60157,532.11335 431.11603,531.81391 431.63958,531.81391 C 432.31281,531.81391 432.46756,532.21786 432.2937,533.02676 L 434.15166,533.02676 L 434.22097,532.69616 C 434.53147,531.24419 433.82407,530.40516 431.95307,530.40516 C 429.82585,530.40516 428.75571,531.49839 428.47135,532.83182 C 428.23017,533.96928 428.66226,534.67367 429.71633,535.07759 L 431.05678,535.60212 C 431.42955,535.75083 431.72399,535.99099 431.61345,536.51553 C 431.47578,537.15961 430.99044,537.47411 430.36043,537.47411 C 429.65705,537.47411 429.38071,537.01091 429.53143,536.30549 L 429.5877,536.03621 L 427.72978,536.03621 L 427.72978,536.03723 L 427.72978,536.03723 z"
       id="path127"
       style="fill:#005496" />
    <path
       d="M 434.91028,538.67388 L 436.97623,538.67388 L 438.11268,533.32617 C 438.3046,532.42786 438.78693,531.99381 439.4883,531.99381 C 440.10323,531.99381 440.30519,532.3083 440.13439,533.11618 L 438.95371,538.6729 L 441.02166,538.6729 L 442.29074,532.69616 C 442.6284,531.10854 442.01543,530.40516 440.72522,530.40516 C 439.85707,530.40516 439.08133,530.74979 438.54376,531.43813 L 438.51362,531.43813 L 439.25014,527.9795 L 437.18219,527.9795 L 434.91028,538.67388 L 434.91028,538.67388 L 434.91028,538.67388 z"
       id="path129"
       style="fill:#005496" />
    <path
       clip-rule="evenodd"
       d="M 443.22323,538.67388 L 445.28918,538.67388 L 447.00239,530.61618 L 444.93447,530.61618 L 443.22323,538.67388 L 443.22323,538.67388 L 443.22323,538.67388 z M 445.14549,529.62742 L 447.21039,529.62742 L 447.58621,527.86092 L 445.52029,527.86092 L 445.14549,529.62742 L 445.14549,529.62742 L 445.14549,529.62742 z"
       id="path131"
       style="fill:#005496;fill-rule:evenodd" />
    <path
       clip-rule="evenodd"
       d="M 450.40977,534.64452 C 450.78257,532.89212 451.15334,531.99381 452.06776,531.99381 C 452.96608,531.99381 452.95503,532.89212 452.58222,534.64452 C 452.20942,536.39695 451.83865,537.29527 450.94033,537.29527 C 450.02795,537.29527 450.037,536.39695 450.40977,534.64452 L 450.40977,534.64452 L 450.40977,534.64452 z M 446.92704,541.30856 L 448.99296,541.30856 L 449.71344,537.9243 L 449.74358,537.9243 C 450.04201,538.56839 450.49821,538.88289 451.27595,538.88289 C 452.96909,538.88289 454.0131,537.63892 454.64916,534.64452 C 455.28321,531.65015 454.76973,530.40615 453.0776,530.40615 C 452.26871,530.40615 451.63465,530.72068 451.02575,531.47026 L 450.99558,531.47026 L 451.17646,530.61618 L 449.19895,530.61618 L 446.92704,541.30856 L 446.92704,541.30856 L 446.92704,541.30856 z"
       id="path133"
       style="fill:#005496;fill-rule:evenodd" />
    <path
       d="M 455.94136,536.03723 L 455.87906,536.3216 C 455.55249,537.864 455.97855,538.88289 458.30069,538.88289 C 460.03805,538.88289 461.47295,538.04386 461.83468,536.35072 C 462.09192,535.1379 461.75329,534.47873 460.54247,534.04464 L 459.38996,533.62461 C 458.74787,533.40054 458.60719,533.07096 458.6916,532.68209 C 458.81116,532.11335 459.32562,531.81391 459.84815,531.81391 C 460.52237,531.81391 460.67511,532.21786 460.50329,533.02676 L 462.36023,533.02676 L 462.43256,532.69616 C 462.74004,531.24419 462.03464,530.40516 460.16265,530.40516 C 458.03545,530.40516 456.96428,531.49839 456.68294,532.83182 C 456.43976,533.96928 456.87385,534.67367 457.92589,535.07759 L 459.26634,535.60212 C 459.63914,535.75083 459.93357,535.99099 459.82202,536.51553 C 459.68537,537.15961 459.20003,537.47411 458.57001,537.47411 C 457.86661,537.47411 457.58929,537.01091 457.74102,536.30549 L 457.79729,536.03621 L 455.94136,536.03621 L 455.94136,536.03723 L 455.94136,536.03723 z"
       id="path135"
       style="fill:#005496" />
    <path
       clip-rule="evenodd"
       d="M 257.97788,445.23079 L 260.22368,445.23079 L 261.19837,442.96989 L 264.04403,442.96989 L 264.0581,445.23079 L 266.30392,445.23079 L 265.74624,434.53836 L 263.0804,434.53836 L 257.97788,445.23079 L 257.97788,445.23079 L 257.97788,445.23079 z M 264.00383,436.3953 L 264.034,436.3953 L 264.04505,441.20241 L 261.94897,441.20241 L 264.00383,436.3953 L 264.00383,436.3953 L 264.00383,436.3953 z"
       id="path137"
       style="fill:#005496;fill-rule:evenodd" />
    <path
       d="M 271.87368,445.23079 L 273.85017,445.23079 L 275.56342,437.17406 L 273.49747,437.17406 L 272.36,442.51973 C 272.17012,443.41906 271.68779,443.85214 270.98441,443.85214 C 270.37046,443.85214 270.16748,443.53764 270.33931,442.72874 L 271.51996,437.17406 L 269.45404,437.17406 L 268.18292,443.14775 C 267.84632,444.73639 268.46027,445.43977 269.74844,445.43977 C 270.61764,445.43977 271.4426,445.08106 272.04551,444.28724 L 272.07564,444.28724 L 271.87368,445.23079 L 271.87368,445.23079 L 271.87368,445.23079 z"
       id="path139"
       style="fill:#005496" />
    <path
       clip-rule="evenodd"
       d="M 281.74812,437.17504 L 281.55721,438.07336 L 281.52707,438.07336 C 281.31606,437.23535 280.66895,436.96505 280.10023,436.96505 C 277.8534,436.96505 277.09779,439.18171 276.69685,441.06776 C 276.06985,444.01793 276.65464,445.14132 278.30257,445.14132 C 278.96073,445.14132 279.68823,444.75245 280.23487,444.15358 L 280.26398,444.15358 L 280.03792,445.21672 C 279.86308,446.04066 279.43,446.6697 278.59098,446.6697 C 278.33674,446.6697 278.11566,446.57926 277.94987,446.44462 C 277.78306,446.30995 277.70873,446.09995 277.76597,445.83066 L 275.78948,445.83066 C 275.49709,447.20826 276.32004,447.98703 278.07147,447.98703 C 280.48205,447.98703 281.64565,446.95406 282.09682,444.82683 L 283.72363,437.17504 L 281.74812,437.17504 L 281.74812,437.17504 L 281.74812,437.17504 z M 278.68138,441.45663 C 279.1436,439.2852 279.46316,438.55068 280.37754,438.55068 C 281.20152,438.55068 281.29898,439.28418 280.88197,441.24661 C 280.59259,442.60918 280.13839,443.55272 279.26922,443.55272 C 278.40104,443.55371 278.44525,442.56597 278.68138,441.45663 L 278.68138,441.45663 L 278.68138,441.45663 z"
       id="path141"
       style="fill:#005496;fill-rule:evenodd" />
    <path
       d="M 288.34786,445.23079 L 290.32435,445.23079 L 292.03659,437.17406 L 289.97066,437.17406 L 288.83521,442.51973 C 288.64429,443.41906 288.16196,443.85214 287.45758,443.85214 C 286.84362,443.85214 286.64064,443.53764 286.81247,442.72874 L 287.99316,437.17406 L 285.92622,437.17406 L 284.65611,443.14775 C 284.31948,444.73639 284.93245,445.43977 286.22164,445.43977 C 287.08981,445.43977 287.91478,445.08106 288.51866,444.28724 L 288.54782,444.28724 L 288.34786,445.23079 L 288.34786,445.23079 L 288.34786,445.23079 z"
       id="path143"
       style="fill:#005496" />
    <path
       d="M 292.66762,442.59511 L 292.60633,442.88046 C 292.27875,444.4229 292.7068,445.44077 295.02695,445.44077 C 296.7643,445.44077 298.2002,444.60276 298.56093,442.90962 C 298.81818,441.69679 298.47955,441.03861 297.26873,440.60354 L 296.11519,440.18453 C 295.47311,439.95942 295.33444,439.62984 295.41684,439.24099 C 295.53741,438.67226 296.0509,438.37281 296.57538,438.37281 C 297.24863,438.37281 297.40337,438.77674 297.23056,439.58563 L 299.08848,439.58563 L 299.1578,439.25604 C 299.46729,437.80408 298.76089,436.96505 296.8889,436.96505 C 294.76269,436.96505 293.69153,438.05831 293.40817,439.39171 C 293.16601,440.52916 293.60109,441.23356 294.65317,441.63751 L 295.99361,442.16103 C 296.36641,442.30973 296.65979,442.55088 296.54827,443.0744 C 296.41061,443.71852 295.92429,444.03302 295.29626,444.03302 C 294.59187,444.03302 294.31653,443.56878 294.46625,442.8644 L 294.52354,442.5941 L 292.66762,442.5941 L 292.66762,442.59511 L 292.66762,442.59511 z"
       id="path145"
       style="fill:#005496" />
    <path
       d="M 302.0075,437.17504 L 300.95948,437.17504 L 300.66003,438.58182 L 301.70808,438.58182 L 300.72736,443.19398 C 300.38068,444.82683 300.57462,445.3202 302.1924,445.3202 C 302.67171,445.3202 303.10076,445.276 303.55997,445.23079 L 303.86443,443.79285 C 303.72678,443.80793 303.55898,443.82302 303.39315,443.82302 C 302.7953,443.82302 302.71392,443.56878 302.84754,442.93976 L 303.77301,438.58182 L 304.97176,438.58182 L 305.27118,437.17504 L 304.07344,437.17504 L 304.5638,434.86795 L 302.49687,434.86795 L 302.0075,437.17504 L 302.0075,437.17504 L 302.0075,437.17504 z"
       id="path147"
       style="fill:#005496" />
    <path
       d="M 313.55701,445.23079 L 315.81085,434.62781 L 314.22323,434.62781 C 313.765,435.79542 312.78228,436.335 311.37452,436.335 L 311.18059,436.335 L 310.88114,437.7428 L 312.9933,437.7428 L 311.40168,445.23079 L 313.55701,445.23079 L 313.55701,445.23079 L 313.55701,445.23079 z"
       id="path149"
       style="fill:#005496" />
    <path
       d="M 325.18188,434.83781 L 319.65632,434.83781 L 318.04157,440.60354 L 319.97387,440.60354 C 320.17584,440.00464 320.58481,439.62984 321.19876,439.62984 C 322.17243,439.62984 322.33622,440.12422 321.96444,441.87565 C 321.67204,443.25327 321.13646,443.94258 320.26725,443.94258 C 319.3388,443.94258 319.4383,442.9086 319.58801,442.20522 L 317.52207,442.20522 L 317.4618,442.4896 C 317.21059,443.67228 317.26885,445.43977 319.96482,445.43977 C 322.6899,445.43977 323.70479,443.83709 324.19818,441.51592 C 324.55488,439.83885 324.36397,438.13163 322.32717,438.13163 C 321.41377,438.13163 320.73453,438.37081 320.212,438.92548 L 320.18187,438.92548 L 320.91839,436.51489 L 324.82819,436.51489 L 325.18188,434.83781 L 325.18188,434.83781 L 325.18188,434.83781 z"
       id="path151"
       style="fill:#005496" />
    <polygon
       points="119.392,107.305 126.844,107.305 127.198,105.635 119.747,105.635 119.392,107.305 119.392,107.305 "
       id="polygon153"
       transform="matrix(1.0048296,0,0,1.0048296,205.31377,333.91877)"
       style="fill:#005496" />
    <path
       d="M 339.93379,443.55371 L 335.93559,443.55371 C 336.12649,443.14877 336.60981,442.56597 337.35942,441.99621 L 338.79331,440.8879 C 340.23826,439.79464 340.86424,438.89632 341.15668,437.51771 C 341.54454,435.69092 340.72259,434.62781 338.59637,434.62781 C 336.33551,434.62781 335.06639,435.73613 334.64938,437.69757 L 334.56399,438.10251 L 336.63093,438.10251 C 336.88414,436.97911 337.1896,436.03558 338.26777,436.03558 C 338.94202,436.03558 339.22439,436.46967 339.03548,437.35393 C 338.80335,438.44617 338.53709,438.92548 337.41166,439.77956 L 336.37168,440.58845 C 334.49063,442.04042 333.44962,443.34371 333.04871,445.23079 L 339.57807,445.23079 L 339.93379,443.55371 L 339.93379,443.55371 L 339.93379,443.55371 z"
       id="path155"
       style="fill:#005496" />
    <path
       d="M 341.66914,442.13086 L 341.65907,442.17608 C 341.23004,444.19779 341.98365,445.44077 344.0355,445.44077 C 346.97061,445.44077 347.93624,443.64313 348.23969,442.22031 C 348.52308,440.8879 348.20153,439.92929 346.8842,439.71929 L 346.89023,439.68912 C 347.94126,439.46505 348.73409,438.62603 349.0044,437.35393 C 349.4013,435.4819 348.44471,434.62781 346.52848,434.62781 C 344.52084,434.62781 343.19043,435.67586 342.74831,437.75785 L 344.72581,437.75785 C 344.93784,436.75404 345.25536,436.03558 346.18483,436.03558 C 346.88821,436.03558 347.13139,436.4395 346.92139,437.42826 C 346.73749,438.29644 346.23507,439.10534 345.33675,439.10534 L 344.63338,439.10534 L 344.33393,440.5131 L 345.05239,440.5131 C 346.23608,440.5131 346.2612,441.38227 346.06023,442.3258 C 345.86328,443.25327 345.56284,444.03302 344.51382,444.03302 C 343.57126,444.03302 343.50394,443.35876 343.73506,442.13086 L 341.66914,442.13086 L 341.66914,442.13086 L 341.66914,442.13086 z"
       id="path157"
       style="fill:#005496" />
    <path
       d="M 239.48501,499.47449 C 241.19523,496.8157 242.87126,494.97283 245.57828,493.14806 C 251.135,489.40209 263.49842,484.57888 284.31145,481.27201 L 284.50036,482.82746 C 275.3584,484.27947 249.10423,488.75295 241.86342,498.67966 C 241.45448,499.24036 240.55013,501.037 239.66385,501.037 C 237.41404,501.037 237.84111,498.63044 237.84111,496.22287 L 237.85616,377.5133 C 237.85718,370.98993 243.14661,365.70152 249.67096,365.70152 L 530.95392,365.70152 C 537.47627,365.70152 542.76567,370.98993 542.76265,377.51428 L 542.74859,498.59224 C 542.74859,505.1156 537.46017,510.40401 530.9348,510.40401 L 403.37975,510.40401 C 400.66368,510.33267 395.81539,511.18678 396.27358,506.90923 C 396.34995,506.20181 396.52578,505.35173 396.58809,504.31173 C 396.70564,502.36035 396.41225,499.6433 393.96951,495.78474 C 388.89711,487.76521 364.56418,476.94821 321.15957,479.36484 C 317.70796,479.55677 311.96033,479.9014 308.80821,480.13252 L 310.79775,478.51475 C 313.95896,478.28263 317.61752,478.08368 321.07717,477.89176 C 364.47978,475.47412 389.65578,486.2027 395.21852,494.99596 C 397.82403,499.11375 398.19883,502.13629 398.06419,504.39914 C 397.88029,507.45684 396.51473,508.70887 400.23562,508.92091 C 401.45851,508.99124 402.73163,508.91185 403.38979,508.92792 L 530.93582,508.92792 C 536.64626,508.92792 541.27248,504.2997 541.27452,498.59125 L 541.28859,377.51229 C 541.28859,371.80385 536.66236,367.1766 530.95491,367.1766 L 249.67096,367.1766 C 243.96151,367.1766 239.33427,371.80385 239.33328,377.5133 L 239.31718,496.22287 C 239.31718,496.82875 239.28704,499.48452 239.48501,499.47449 L 239.48501,499.47449 L 239.48501,499.47449 z"
       id="path159"
       style="fill:#72bf44" />
    <path
       clip-rule="evenodd"
       d="M 482.95922,538.67388 L 485.20503,538.67388 L 486.17972,536.41204 L 489.02538,536.41204 L 489.03945,538.67388 L 491.28525,538.67388 L 490.72757,527.9805 L 488.06275,527.9805 L 482.95922,538.67388 L 482.95922,538.67388 L 482.95922,538.67388 z M 488.98419,529.83843 L 489.01331,529.83843 L 489.02538,534.64554 L 486.93031,534.64554 L 488.98419,529.83843 L 488.98419,529.83843 L 488.98419,529.83843 z"
       id="path161"
       style="fill:#005496;fill-rule:evenodd" />
    <path
       d="M 494.88154,530.61618 L 493.83448,530.61618 L 493.53605,532.02292 L 494.58511,532.02292 L 493.60239,536.63508 C 493.2547,538.26795 493.45066,538.7613 495.06841,538.7613 C 495.54772,538.7613 495.97579,538.71709 496.43398,538.6729 L 496.74048,537.23496 C 496.60079,537.25005 496.43398,537.26411 496.27022,537.26411 C 495.66932,537.26411 495.58891,537.00989 495.72358,536.38088 L 496.65004,532.02292 L 497.84879,532.02292 L 498.14522,530.61618 L 496.94847,530.61618 L 497.43884,528.30907 L 495.37088,528.30907 L 494.88154,530.61618 L 494.88154,530.61618 L 494.88154,530.61618 z"
       id="path163"
       style="fill:#005496" />
    <path
       d="M 497.89805,538.67388 L 499.96697,538.67388 L 501.10142,533.32617 C 501.29335,532.42786 501.77567,531.99381 502.47905,531.99381 C 503.09198,531.99381 503.29598,532.3083 503.12314,533.11618 L 501.94245,538.6729 L 504.0104,538.6729 L 505.2795,532.69616 C 505.61714,531.10854 505.00417,530.40516 503.71601,530.40516 C 502.84583,530.40516 502.06906,530.74979 501.5345,531.43813 L 501.50436,531.43813 L 502.23889,527.9795 L 500.17297,527.9795 L 497.89805,538.67388 L 497.89805,538.67388 L 497.89805,538.67388 z"
       id="path165"
       style="fill:#005496" />
    <polygon
       points="299.45,203.771 301.506,203.771 303.769,193.129 301.711,193.129 299.45,203.771 299.45,203.771 "
       id="polygon167"
       transform="matrix(1.0048296,0,0,1.0048296,205.31377,333.91877)"
       style="fill:#005496" />
    <path
       clip-rule="evenodd"
       d="M 517.12141,534.95905 L 517.22192,534.49479 C 517.74542,532.02393 517.55048,530.40615 515.1399,530.40615 C 512.35553,530.40615 511.50945,532.41379 511.05125,534.57018 C 510.62319,536.57783 510.25242,538.8839 513.24981,538.8839 C 515.19515,538.8839 516.31757,537.83485 516.78983,535.96286 L 514.93191,535.96286 C 514.60333,536.95161 514.20643,537.47513 513.51709,537.47513 C 512.75243,537.47513 512.69616,536.54667 512.8971,535.60413 L 513.03377,534.96003 L 517.12141,534.96003 L 517.12141,534.95905 L 517.12141,534.95905 z M 513.29401,533.73115 L 513.36034,533.41661 C 513.52011,532.66803 513.93911,531.81492 514.76309,531.81492 C 515.61819,531.81492 515.62019,532.50324 515.40518,533.73115 L 513.29401,533.73115 L 513.29401,533.73115 L 513.29401,533.73115 z"
       id="path169"
       style="fill:#005496;fill-rule:evenodd" />
    <path
       d="M 520.31878,530.61618 L 519.26976,530.61618 L 518.97133,532.02292 L 520.02035,532.02292 L 519.03963,536.63508 C 518.69198,538.26795 518.88791,538.7613 520.50367,538.7613 C 520.98298,538.7613 521.41104,538.71709 521.87126,538.6729 L 522.17772,537.23496 C 522.03806,537.25005 521.86923,537.26411 521.70547,537.26411 C 521.10758,537.26411 521.0262,537.00989 521.15782,536.38088 L 522.08427,532.02292 L 523.28404,532.02292 L 523.58247,530.61618 L 522.38572,530.61618 L 522.87408,528.30907 L 520.80813,528.30907 L 520.31878,530.61618 L 520.31878,530.61618 L 520.31878,530.61618 z"
       id="path171"
       style="fill:#005496" />
    <path
       clip-rule="evenodd"
       d="M 523.40963,538.67388 L 525.47557,538.67388 L 527.18882,530.61618 L 525.12087,530.61618 L 523.40963,538.67388 L 523.40963,538.67388 L 523.40963,538.67388 z M 525.33087,529.62742 L 527.39984,529.62742 L 527.77464,527.86092 L 525.70669,527.86092 L 525.33087,529.62742 L 525.33087,529.62742 L 525.33087,529.62742 z"
       id="path173"
       style="fill:#005496;fill-rule:evenodd" />
    <path
       d="M 534.62556,533.52214 C 535.0305,531.61998 534.29899,530.40615 532.39786,530.40615 C 530.49471,530.40615 528.93421,531.33463 528.23181,534.64452 C 527.54149,537.87908 528.34738,538.88289 530.41532,538.88289 C 532.60181,538.88289 533.73629,537.69922 534.18544,535.58806 L 532.20996,535.58806 C 531.93261,536.89033 531.49452,537.47411 530.80517,537.47411 C 529.87673,537.47411 529.87172,536.65118 530.29574,534.65961 C 530.68962,532.80266 531.04534,531.90435 532.06424,531.90435 C 532.84198,531.90435 532.81486,532.74239 532.64805,533.52112 L 534.62556,533.52112 L 534.62556,533.52214 L 534.62556,533.52214 z"
       id="path175"
       style="fill:#005496" />
    <path
       d="M 535.5731,536.03723 L 535.51283,536.3216 C 535.18422,537.864 535.61229,538.88289 537.93246,538.88289 C 539.66981,538.88289 541.10367,538.04386 541.46543,536.35072 C 541.72267,535.1379 541.38506,534.47873 540.17421,534.04464 L 539.0217,533.62461 C 538.37961,533.40054 538.24195,533.07096 538.32232,532.68209 C 538.44493,532.11335 538.95739,531.81391 539.47989,531.81391 C 540.15414,531.81391 540.30888,532.21786 540.13705,533.02676 L 541.99196,533.02676 L 542.06332,532.69616 C 542.37178,531.24419 541.66739,530.40516 539.79439,530.40516 C 537.66918,530.40516 536.59602,531.49839 536.31366,532.83182 C 536.07051,533.96928 536.50558,534.67367 537.55664,535.07759 L 538.9001,535.60212 C 539.27087,535.75083 539.56429,535.99099 539.45375,536.51553 C 539.31711,537.15961 538.83078,537.47411 538.20073,537.47411 C 537.49736,537.47411 537.22102,537.01091 537.37275,536.30549 L 537.43105,536.03621 L 535.5731,536.03621 L 535.5731,536.03723 L 535.5731,536.03723 z"
       id="path177"
       style="fill:#005496" />
    <path
       clip-rule="evenodd"
       d="M 466.80357,538.67388 L 468.86851,538.67388 L 470.58274,530.61618 L 468.51381,530.61618 L 466.80357,538.67388 L 466.80357,538.67388 L 466.80357,538.67388 z M 468.7258,529.62742 L 470.79375,529.62742 L 471.16957,527.86092 L 469.1006,527.86092 L 468.7258,529.62742 L 468.7258,529.62742 L 468.7258,529.62742 z"
       id="path179"
       style="fill:#005496;fill-rule:evenodd" />
    <path
       d="M 471.06906,538.67388 L 473.13701,538.67388 L 474.27448,533.32617 C 474.46339,532.42786 474.94572,531.99381 475.6501,531.99381 C 476.26304,531.99381 476.46704,532.3083 476.29318,533.11618 L 475.11252,538.6729 L 477.18044,538.6729 L 478.44957,532.69616 C 478.78817,531.10854 478.17523,530.40516 476.88702,530.40516 C 476.01586,530.40516 475.1909,530.76488 474.59,531.55767 L 474.55987,531.55767 L 474.76081,530.61516 L 472.78333,530.61516 L 471.06906,538.67388 L 471.06906,538.67388 L 471.06906,538.67388 z"
       id="path181"
       style="fill:#005496" />
    <path
       clip-rule="evenodd"
       d="M 483.24359,516.88417 C 484.67647,516.88417 486.1365,515.77182 486.45904,514.24949 C 486.7796,512.74125 485.79182,511.62789 484.35996,511.62789 C 482.914,511.62789 481.45298,512.74024 481.13346,514.24949 C 480.80987,515.77182 481.79765,516.88417 483.24359,516.88417 L 483.24359,516.88417 z M 481.66199,514.24949 C 481.92626,513.00453 483.06474,512.06602 484.26753,512.06602 C 485.45723,512.06602 486.19578,513.00453 485.93152,514.24949 C 485.6622,515.51458 484.52677,516.44706 483.33704,516.44706 C 482.13327,516.44604 481.39272,515.51458 481.66199,514.24949 L 481.66199,514.24949 z M 484.60914,514.74286 C 484.46345,515.13275 484.08564,515.40305 483.64852,515.40305 C 483.01549,515.40305 482.74217,514.86042 482.87383,514.23444 C 483.01149,513.58733 483.46364,513.09494 484.11678,513.09494 C 484.55589,513.09494 484.82117,513.34517 484.82419,513.72699 L 485.28944,513.72699 C 485.34371,513.01758 484.87544,512.63573 484.20722,512.63573 C 483.26267,512.63573 482.54021,513.31703 482.34428,514.24247 C 482.15134,515.15285 482.60553,515.86226 483.55106,515.86226 C 484.19115,515.86226 484.80308,515.43119 485.08144,514.74286 L 484.60914,514.74286 L 484.60914,514.74286 z"
       id="path183"
       style="fill:#005496;fill-rule:evenodd" />
    <polygon
       points="283.436,176.987 282.764,176.987 281.709,181.955 282.38,181.955 283.436,176.987 "
       id="polygon185"
       transform="matrix(1.0048296,0,0,1.0048296,205.31377,333.91877)"
       style="fill:#005496" />
    <path
       clip-rule="evenodd"
       d="M 493.30596,515.29956 L 493.49086,516.75254 L 494.22739,516.75254 L 493.47978,511.76053 L 492.71511,511.76053 L 489.77801,516.75254 L 490.47233,516.75254 L 491.30234,515.29956 L 493.30596,515.29956 L 493.30596,515.29956 z M 491.63894,514.70168 L 492.90504,512.50411 L 492.91911,512.50411 L 493.19039,514.70168 L 491.63894,514.70168 L 491.63894,514.70168 z"
       id="path187"
       style="fill:#005496;fill-rule:evenodd" />
    <path
       clip-rule="evenodd"
       d="M 497.94323,515.29956 L 498.12814,516.75254 L 498.86568,516.75254 L 498.11807,511.76053 L 497.3524,511.76053 L 494.41528,516.75254 L 495.10963,516.75254 L 495.93961,515.29956 L 497.94323,515.29956 L 497.94323,515.29956 z M 496.27524,514.70168 L 497.54131,512.50411 L 497.55639,512.50411 L 497.82669,514.70168 L 496.27524,514.70168 L 496.27524,514.70168 z"
       id="path189"
       style="fill:#005496;fill-rule:evenodd" />
    <polygon
       points="293.975,179.699 296.41,179.699 296.537,179.104 294.101,179.104 294.425,177.582 297.192,177.582 297.318,176.987 293.88,176.987 292.824,181.955 293.496,181.955 293.975,179.699 "
       id="polygon191"
       transform="matrix(1.0048296,0,0,1.0048296,205.31377,333.91877)"
       style="fill:#005496" />
    <path
       d="M 506.71339,513.61645 C 506.80684,513.27582 507.03091,512.41367 507.95637,512.41367 C 508.67181,512.41367 508.81751,512.90705 508.73412,513.29592 C 508.59846,513.936 508.18044,514.13695 507.59462,514.4364 L 506.86814,514.81222 C 506.13462,515.19404 505.55986,515.73663 505.30966,516.75153 L 508.65372,516.75153 L 508.7753,516.17476 L 506.11954,516.17476 C 506.18686,515.98683 506.41398,515.60501 507.15955,515.23624 L 507.72628,514.95791 C 508.53917,514.56904 509.19431,514.20027 509.38021,513.32405 C 509.57315,512.41367 509.00944,511.86402 508.16136,511.86402 C 507.63283,511.86402 506.43705,512.02381 506.09944,513.61645 L 506.71339,513.61645 L 506.71339,513.61645 z"
       id="path193"
       style="fill:#005496" />
    <path
       clip-rule="evenodd"
       d="M 512.45298,514.3741 C 512.19274,515.598 511.71744,516.33452 511.01407,516.33452 C 510.31069,516.33452 510.1489,515.598 510.40815,514.3741 C 510.6674,513.15023 511.14369,512.41367 511.84608,512.41367 C 512.54945,512.41367 512.71324,513.15121 512.45298,514.3741 L 512.45298,514.3741 z M 513.10612,514.3741 C 513.32116,513.35924 513.36737,511.86402 511.96261,511.86402 C 510.55787,511.86402 509.97006,513.35924 509.75502,514.3741 C 509.53899,515.38898 509.49274,516.88417 510.89749,516.88417 C 512.30227,516.88417 512.89111,515.38997 513.10612,514.3741 L 513.10612,514.3741 z"
       id="path195"
       style="fill:#005496;fill-rule:evenodd" />
    <path
       clip-rule="evenodd"
       d="M 516.31557,514.3741 C 516.0553,515.598 515.58002,516.33452 514.87665,516.33452 C 514.17527,516.33452 514.01148,515.598 514.27074,514.3741 C 514.52998,513.15023 515.00624,512.41367 515.70965,512.41367 C 516.41302,512.41367 516.57579,513.15121 516.31557,514.3741 L 516.31557,514.3741 z M 516.9687,514.3741 C 517.18473,513.35924 517.23096,511.86402 515.82618,511.86402 C 514.42144,511.86402 513.83362,513.35924 513.6176,514.3741 C 513.40154,515.38898 513.35533,516.88417 514.76109,516.88417 C 516.16482,516.88417 516.75365,515.38997 516.9687,514.3741 L 516.9687,514.3741 z"
       id="path197"
       style="fill:#005496;fill-rule:evenodd" />
    <path
       clip-rule="evenodd"
       d="M 520.97694,513.16429 C 521.12569,512.17052 520.39112,511.86402 519.82744,511.86402 C 518.36741,511.86402 517.69217,513.40744 517.46408,514.4786 C 517.32842,515.11869 517.28422,515.71654 517.48014,516.17476 C 517.71228,516.71736 518.21267,516.88417 518.58845,516.88417 C 519.27678,516.88417 519.60837,516.69627 519.92592,516.41191 C 520.33689,516.05015 520.54488,515.6884 520.65241,515.18801 C 520.90057,514.01939 520.0495,513.63757 519.45162,513.63757 C 518.78442,513.63757 518.37344,513.97116 518.16444,514.23542 L 518.15339,514.22135 C 518.26189,513.70689 518.73819,512.41367 519.69783,512.41367 C 520.22635,512.41367 520.39415,512.73322 520.38008,513.16429 L 520.97694,513.16429 L 520.97694,513.16429 z M 518.01772,515.25031 C 518.14034,514.67355 518.57039,514.1862 519.24461,514.1862 C 520.00327,514.1862 520.10476,514.78408 520.01432,515.21516 C 519.87364,515.87531 519.40139,516.33452 518.81757,516.33452 C 518.10013,516.33554 517.90718,515.77182 518.01772,515.25031 L 518.01772,515.25031 z"
       id="path199"
       style="fill:#005496;fill-rule:evenodd" />
    <polygon
       points="316.353,177.582 318.034,177.582 317.105,181.955 317.777,181.955 318.706,177.582 320.387,177.582 320.514,176.987 316.479,176.987 316.353,177.582 "
       id="polygon201"
       transform="matrix(1.0048296,0,0,1.0048296,205.31377,333.91877)"
       style="fill:#005496" />
    <path
       d="M 531.70048,516.75254 L 532.76059,511.76053 L 531.80098,511.76053 L 529.48585,515.98084 L 529.47179,515.98084 L 528.94326,511.76053 L 527.9766,511.76053 L 526.91649,516.75254 L 527.56963,516.75254 L 528.19565,513.80435 C 528.22578,513.65767 528.34636,513.02562 528.44487,512.56641 L 528.45893,512.56641 L 528.97438,516.75254 L 529.6426,516.75254 L 531.93664,512.56037 L 531.95071,512.56037 C 531.85122,513.02663 531.70349,513.65866 531.67336,513.80537 L 531.04735,516.75353 L 531.70048,516.75353 L 531.70048,516.75254 z"
       id="path203"
       style="fill:#005496" />
  </g>
</svg>
