<?xml version="1.0" encoding="UTF-8" standalone="no"?>
<svg
xmlns:dc="http://purl.org/dc/elements/1.1/"
xmlns:cc="http://creativecommons.org/ns#"
xmlns:rdf="http://www.w3.org/1999/02/22-rdf-syntax-ns#"
xmlns:svg="http://www.w3.org/2000/svg"
xmlns="http://www.w3.org/2000/svg"
xmlns:sodipodi="http://sodipodi.sourceforge.net/DTD/sodipodi-0.dtd"
xmlns:inkscape="http://www.inkscape.org/namespaces/inkscape"
id="svg2"
version="1.1"
inkscape:version="0.48.0 r9654"
width="373.20764"
height="178.17218"
xml:space="preserve"
sodipodi:docname="IAAF.svg"><metadata
id="metadata8"><rdf:RDF><cc:Work
rdf:about=""><dc:format>image/svg+xml</dc:format><dc:type
rdf:resource="http://purl.org/dc/dcmitype/StillImage" /><dc:title></dc:title></cc:Work></rdf:RDF></metadata><defs
id="defs6"><clipPath
clipPathUnits="userSpaceOnUse"
id="clipPath16"><path
d="m -6.9753,712.267 0,49.29 c 0.0138,-0.002 0.0241,-0.003 0.038,-0.005 -0.0011,-13.229 -0.0145,-29.866 -0.038,-49.285 m 144.6403,47.116 c -27.968,0.094 -55.288,1.601 -81.616,4.5 -21.964,2.711 -43.07,6.568 -63.0243,11.554 l 0,75.679 485.3973,0 c -64.787,-42.535 -154.419,-72.905 -252.684,-85.563 -29.717,-3.823 -59.243,-5.857 -88.073,-6.17 m 74.793,0.219 c 8.197,0.777 16.415,1.644 24.667,2.602 6.108,0.72 12.068,1.431 17.963,2.169 6.348,0.672 15.224,1.607 24.444,2.563 -17.217,-2.408 -40.095,-5.161 -67.074,-7.334 m -41.827,0.315 c 14.707,0.687 29.552,1.815 44.467,3.391 -14.701,-1.554 -29.331,-2.675 -43.83,-3.368 -0.208,-0.007 -0.429,-0.015 -0.637,-0.023 m 113.147,11.264 c 91.793,16.741 172.547,45.251 232.956,79.935 l 8.861,0 C 458.448,813.749 374.698,786 283.778,771.181 m 24.88,1.477 c 1.767,0.34 3.551,0.691 5.35,1.053 92.538,17.03 175.909,44.185 243.497,77.405 l 2.87,0 c -3.53,-1.752 -7.104,-3.488 -10.721,-5.206 l -0.057,-0.027 c -2.345,-1.115 -4.713,-2.221 -7.093,-3.322 -0.17,-0.078 -0.34,-0.157 -0.512,-0.235 -4.832,-2.227 -9.737,-4.423 -14.711,-6.586 l -0.107,-0.047 c -2.44,-1.062 -4.901,-2.114 -7.379,-3.161 -0.198,-0.084 -0.399,-0.168 -0.598,-0.252 -5.016,-2.116 -10.101,-4.201 -15.256,-6.25 l -0.209,-0.084 c -2.527,-1.005 -5.074,-2.003 -7.635,-2.992 -0.222,-0.086 -0.439,-0.171 -0.664,-0.255 -5.199,-2.005 -10.459,-3.977 -15.787,-5.91 -0.097,-0.036 -0.199,-0.072 -0.297,-0.109 -2.611,-0.945 -5.232,-1.883 -7.873,-2.813 -0.252,-0.089 -0.502,-0.178 -0.756,-0.268 -5.365,-1.882 -10.783,-3.732 -16.261,-5.543 -0.139,-0.045 -0.272,-0.092 -0.411,-0.135 -2.673,-0.886 -5.369,-1.76 -8.076,-2.628 -0.285,-0.091 -0.572,-0.181 -0.861,-0.273 -5.51,-1.761 -11.078,-3.484 -16.703,-5.169 -0.166,-0.051 -0.34,-0.102 -0.508,-0.153 -2.746,-0.821 -5.51,-1.633 -8.279,-2.437 -0.317,-0.09 -0.629,-0.179 -0.942,-0.269 -5.658,-1.634 -11.371,-3.229 -17.136,-4.786 -0.197,-0.054 -0.401,-0.108 -0.6,-0.162 -2.814,-0.758 -5.644,-1.506 -8.48,-2.244 -0.334,-0.086 -0.67,-0.173 -1.004,-0.259 -5.799,-1.504 -11.647,-2.967 -17.545,-4.39 -0.231,-0.055 -0.455,-0.11 -0.686,-0.165 -2.881,-0.692 -5.769,-1.374 -8.67,-2.046 -0.353,-0.082 -0.707,-0.163 -1.062,-0.244 -5.942,-1.372 -11.93,-2.702 -17.961,-3.986 -0.236,-0.051 -0.477,-0.104 -0.719,-0.155 -2.945,-0.626 -5.898,-1.239 -8.867,-1.845 -0.365,-0.074 -0.736,-0.148 -1.104,-0.224 -3.023,-0.613 -6.05,-1.217 -9.091,-1.808 -0.382,-0.087 -0.761,-0.167 -1.136,-0.242 -3.527,-0.365 -7.064,-0.746 -10.599,-1.14 -1.658,-0.185 -3.453,-0.399 -5.361,-0.638"
id="path18"
inkscape:connector-curvature="0" /></clipPath><linearGradient
x1="0"
y1="0"
x2="1"
y2="0"
gradientUnits="userSpaceOnUse"
gradientTransform="matrix(447.636,291.936,291.936,-447.636,74.859,491.97)"
spreadMethod="pad"
id="linearGradient28"><stop
style="stop-opacity:1;stop-color:#b7292e"
offset="0"
id="stop30" /><stop
style="stop-opacity:1;stop-color:#750f12"
offset="1"
id="stop32" /></linearGradient><clipPath
clipPathUnits="userSpaceOnUse"
id="clipPath40"><path
d="m 0,841.945 594.96,0 0,-841.89 -594.96,0 0,841.89 z"
id="path42"
inkscape:connector-curvature="0" /></clipPath><clipPath
clipPathUnits="userSpaceOnUse"
id="clipPath52"><path
d="m 605.308,758.786 c -54.819,11.931 -115.14,18.029 -178.007,18.029 -29.31,0 -59.184,-1.327 -89.293,-4.006 -7.866,-0.7 -15.729,-1.645 -23.643,-2.377 -8.245,-0.763 -21.878,-2.151 -34.833,-3.496 -9.22,-0.956 -18.096,-1.891 -24.444,-2.563 17.675,2.214 34.773,4.666 53.57,8.285 1.908,0.239 3.703,0.453 5.361,0.638 3.535,0.394 7.072,0.775 10.599,1.14 45.52,4.717 90.371,7.051 133.913,7.051 51.096,0 100.375,-3.214 146.777,-9.563 l 0,-8.578 c -44.028,8.698 -91.36,13.729 -140.519,14.986 49.285,-1.723 96.629,-7.268 140.519,-16.525 l 0,-3.021"
id="path54"
inkscape:connector-curvature="0" /></clipPath><clipPath
clipPathUnits="userSpaceOnUse"
id="clipPath58"><path
d="m 798.525,673.023 c 0,-118.747 -188.039,-215.011 -420,-215.011 -231.958,0 -419.999,96.264 -419.999,215.011 0,118.747 188.041,215.011 419.999,215.011 231.961,0 420,-96.264 420,-215.011"
id="path60"
inkscape:connector-curvature="0" /></clipPath><linearGradient
x1="0"
y1="0"
x2="1"
y2="0"
gradientUnits="userSpaceOnUse"
gradientTransform="matrix(1098.633,-220.399,-220.399,-1098.633,-204.853,630.07)"
spreadMethod="pad"
id="linearGradient70"><stop
style="stop-opacity:1;stop-color:#b7292e"
offset="0"
id="stop72" /><stop
style="stop-opacity:1;stop-color:#750f12"
offset="1"
id="stop74" /></linearGradient><clipPath
clipPathUnits="userSpaceOnUse"
id="clipPath82"><path
d="m 605.308,761.807 c -43.89,9.257 -91.234,14.802 -140.519,16.525 49.159,-1.257 96.491,-6.288 140.519,-14.986 l 0,-1.539"
id="path84"
inkscape:connector-curvature="0" /></clipPath><clipPath
clipPathUnits="userSpaceOnUse"
id="clipPath88"><path
d="m 798.525,673.023 c 0,-118.747 -188.039,-215.011 -420,-215.011 -231.958,0 -419.999,96.264 -419.999,215.011 0,118.747 188.041,215.011 419.999,215.011 231.961,0 420,-96.264 420,-215.011"
id="path90"
inkscape:connector-curvature="0" /></clipPath><linearGradient
x1="0"
y1="0"
x2="1"
y2="0"
gradientUnits="userSpaceOnUse"
gradientTransform="matrix(1098.633,-220.399,-220.399,-1098.633,-204.853,630.07)"
spreadMethod="pad"
id="linearGradient100"><stop
style="stop-opacity:1;stop-color:#ef353b"
offset="0"
id="stop102" /><stop
style="stop-opacity:1;stop-color:#ef353b"
offset="1"
id="stop104" /></linearGradient><clipPath
clipPathUnits="userSpaceOnUse"
id="clipPath112"><path
d="m 171.268,759.94 c 14.499,0.693 29.129,1.814 43.83,3.368 5.822,0.616 11.655,1.299 17.494,2.051 98.42,12.676 188.178,43.109 252.986,85.757 l 31.156,0 c -60.409,-34.684 -141.163,-63.194 -232.956,-79.935 -8.24,-1.343 -16.542,-2.581 -24.892,-3.709 -29.477,-3.983 -58.807,-6.487 -87.618,-7.532 m -115.219,3.943 c -21.755,2.395 -42.83,5.742 -63.0243,10.028 l 0,1.526 C 12.979,770.451 34.085,766.594 56.049,763.883"
id="path114"
inkscape:connector-curvature="0" /></clipPath><clipPath
clipPathUnits="userSpaceOnUse"
id="clipPath118"><path
d="m 0,841.945 594.96,0 0,-841.89 -594.96,0 0,841.89 z"
id="path120"
inkscape:connector-curvature="0" /></clipPath><clipPath
clipPathUnits="userSpaceOnUse"
id="clipPath130"><path
d="m 140.469,759.378 c -0.936,0 -1.869,0.002 -2.804,0.005 28.83,0.313 58.356,2.347 88.073,6.17 98.265,12.658 187.897,43.028 252.684,85.563 l 7.156,0 C 420.77,808.468 331.012,778.035 232.592,765.359 c -5.837,-0.751 -11.674,-1.435 -17.494,-2.051 -14.915,-1.576 -29.76,-2.704 -44.467,-3.391 -10.125,-0.36 -20.181,-0.539 -30.162,-0.539"
id="path132"
inkscape:connector-curvature="0" /></clipPath><linearGradient
x1="0"
y1="0"
x2="1"
y2="0"
gradientUnits="userSpaceOnUse"
gradientTransform="matrix(447.636,291.936,291.936,-447.636,74.859,491.97)"
spreadMethod="pad"
id="linearGradient142"><stop
style="stop-opacity:1;stop-color:#d81f27"
offset="0"
id="stop144" /><stop
style="stop-opacity:1;stop-color:#ca1c23"
offset="1"
id="stop146" /></linearGradient><clipPath
clipPathUnits="userSpaceOnUse"
id="clipPath154"><path
d="m 215.098,763.308 c 5.82,0.616 11.657,1.3 17.494,2.051 98.42,12.676 188.178,43.109 252.986,85.757 -64.808,-42.648 -154.566,-73.081 -252.986,-85.757 -5.839,-0.752 -11.672,-1.435 -17.494,-2.051"
id="path156"
inkscape:connector-curvature="0" /></clipPath><clipPath
clipPathUnits="userSpaceOnUse"
id="clipPath160"><path
d="m 0,841.945 594.96,0 0,-841.89 -594.96,0 0,841.89 z"
id="path162"
inkscape:connector-curvature="0" /></clipPath><clipPath
clipPathUnits="userSpaceOnUse"
id="clipPath172"><path
d="m 155.874,756.38 c 25.287,1.26 51.051,3.556 77.04,6.901 17.282,2.226 34.251,4.87 50.864,7.9 90.92,14.819 174.67,42.568 241.817,79.935 l 31.91,0 c -67.588,-33.22 -150.959,-60.375 -243.497,-77.405 -1.799,-0.362 -3.583,-0.713 -5.35,-1.053 -18.423,-2.307 -47.298,-6.907 -62.969,-9.283 0,0 3.67,0.392 9.399,0.998 -5.895,-0.738 -11.855,-1.449 -17.963,-2.169 -8.252,-0.958 -16.47,-1.825 -24.667,-2.602 -17.305,-1.393 -36.316,-2.549 -56.584,-3.222 m -19.523,2.72 c -27.627,10e-4 -54.554,1.604 -80.302,4.783 26.328,-2.899 53.648,-4.406 81.616,-4.5 -2.625,-0.029 -5.246,-0.043 -7.859,-0.043 -6.709,0 -13.376,0.094 -19.997,0.28 8.811,-0.336 17.712,-0.504 26.686,-0.504 11.274,0 22.662,0.266 34.136,0.801 0.208,0.008 0.429,0.016 0.637,0.023 -11.74,-0.56 -23.387,-0.84 -34.917,-0.84 m -143.2883,2.452 c -0.0139,0.002 -0.0242,0.003 -0.038,0.005 l 0,1.399 c 0.0104,-0.002 0.0275,-0.004 0.038,-0.006 0,-0.458 0,-0.931 0,-1.398"
id="path174"
inkscape:connector-curvature="0" /></clipPath><clipPath
clipPathUnits="userSpaceOnUse"
id="clipPath178"><path
d="m 0,841.945 594.96,0 0,-841.89 -594.96,0 0,841.89 z"
id="path180"
inkscape:connector-curvature="0" /></clipPath><clipPath
clipPathUnits="userSpaceOnUse"
id="clipPath190"><path
d="m 108.37,754.578 c -40.056,0 -78.723,2.336 -115.3073,6.974 0,0.467 0,0.94 0,1.398 26.8013,-3.841 54.9963,-6.21 84.1873,-7.092 10.849,-0.418 21.844,-0.628 32.959,-0.628 15.015,0 30.253,0.383 45.665,1.15 20.268,0.673 39.279,1.829 56.584,3.222 -35.407,-3.356 -70.243,-5.025 -104.088,-5.024"
id="path192"
inkscape:connector-curvature="0" /></clipPath><linearGradient
x1="0"
y1="0"
x2="1"
y2="0"
gradientUnits="userSpaceOnUse"
gradientTransform="matrix(957.187,-192.023,-192.023,-957.187,-251.824,1082.613)"
spreadMethod="pad"
id="linearGradient202"><stop
style="stop-opacity:1;stop-color:#b7292e"
offset="0"
id="stop204" /><stop
style="stop-opacity:1;stop-color:#761012"
offset="1"
id="stop206" /></linearGradient><clipPath
clipPathUnits="userSpaceOnUse"
id="clipPath214"><path
d="m 245.689,763.375 c 15.671,2.376 44.546,6.976 62.969,9.283 -18.797,-3.619 -35.895,-6.071 -53.57,-8.285 -5.729,-0.606 -9.399,-0.998 -9.399,-0.998"
id="path216"
inkscape:connector-curvature="0" /></clipPath><clipPath
clipPathUnits="userSpaceOnUse"
id="clipPath226"><path
d="m 117.83,755.744 c -33.123,0 -68.627,1.472 -105.078,5.29 -6.6583,0.826 -13.23399,1.739 -19.7273,2.74 l 0,10.137 c 20.1943,-4.286 41.2693,-7.633 63.0243,-10.028 25.748,-3.179 52.675,-4.782 80.302,-4.783 11.53,0 23.177,0.28 34.917,0.84 28.811,1.045 58.141,3.549 87.618,7.532 8.35,1.128 16.652,2.366 24.892,3.709 -16.613,-3.03 -33.582,-5.674 -50.864,-7.9 -25.989,-3.345 -51.753,-5.641 -77.04,-6.901 -12.249,-0.406 -24.954,-0.636 -38.044,-0.636"
id="path228"
inkscape:connector-curvature="0" /></clipPath><clipPath
clipPathUnits="userSpaceOnUse"
id="clipPath232"><path
d="m 0,841.945 594.96,0 0,-841.89 -594.96,0 0,841.89 z"
id="path234"
inkscape:connector-curvature="0" /></clipPath><clipPath
clipPathUnits="userSpaceOnUse"
id="clipPath244"><path
d="m 110.209,755.23 c -11.115,0 -22.11,0.21 -32.959,0.628 1.242,-0.038 2.483,-0.073 3.729,-0.105 -23.466,0.797 -46.279,2.561 -68.227,5.281 36.451,-3.818 71.955,-5.29 105.078,-5.29 13.09,0 25.795,0.23 38.044,0.636 -15.412,-0.767 -30.65,-1.15 -45.665,-1.15"
id="path246"
inkscape:connector-curvature="0" /></clipPath><clipPath
clipPathUnits="userSpaceOnUse"
id="clipPath256"><path
d="m 11.756,761.139 c -6.2041,0.657 -12.44316,1.383 -18.6932,2.181 0,-0.123 0,-0.246 -10e-5,-0.37 -0.0105,0.002 -0.0276,0.004 -0.038,0.006 l 0,0.804 c 6.16805,-0.953 12.4141,-1.827 18.7313,-2.621"
id="path258"
inkscape:connector-curvature="0" /></clipPath><clipPath
clipPathUnits="userSpaceOnUse"
id="clipPath262"><path
d="m 0,841.945 594.96,0 0,-841.89 -594.96,0 0,841.89 z"
id="path264"
inkscape:connector-curvature="0" /></clipPath><clipPath
clipPathUnits="userSpaceOnUse"
id="clipPath274"><path
d="m 77.25,755.858 c -29.191,0.882 -57.386,3.251 -84.1873,7.092 10e-5,0.124 10e-5,0.247 10e-5,0.37 6.25004,-0.798 12.4891,-1.524 18.6932,-2.181 21.092,-2.651 42.98,-4.415 65.494,-5.281"
id="path276"
inkscape:connector-curvature="0" /></clipPath><linearGradient
x1="0"
y1="0"
x2="1"
y2="0"
gradientUnits="userSpaceOnUse"
gradientTransform="matrix(957.187,-192.023,-192.023,-957.187,-251.824,1082.613)"
spreadMethod="pad"
id="linearGradient286"><stop
style="stop-opacity:1;stop-color:#b7292e"
offset="0"
id="stop288" /><stop
style="stop-opacity:1;stop-color:#761012"
offset="1"
id="stop290" /></linearGradient><clipPath
clipPathUnits="userSpaceOnUse"
id="clipPath298"><path
d="m 136.495,759.116 c -8.974,0 -17.875,0.168 -26.686,0.504 6.621,-0.186 13.288,-0.28 19.997,-0.28 2.613,0 5.234,0.014 7.859,0.043 0.935,-0.003 1.868,-0.005 2.804,-0.005 9.981,0 20.037,0.179 30.162,0.539 -11.474,-0.535 -22.862,-0.801 -34.136,-0.801"
id="path300"
inkscape:connector-curvature="0" /></clipPath><clipPath
clipPathUnits="userSpaceOnUse"
id="clipPath310"><path
d="m 12.752,761.034 c -0.334,0.035 -0.662,0.07 -0.996,0.105 -6.3172,0.794 -12.56325,1.668 -18.7313,2.621 l 0,0.014 c 6.49331,-1.001 13.069,-1.914 19.7273,-2.74"
id="path312"
inkscape:connector-curvature="0" /></clipPath><clipPath
clipPathUnits="userSpaceOnUse"
id="clipPath316"><path
d="m 0,841.945 594.96,0 0,-841.89 -594.96,0 0,841.89 z"
id="path318"
inkscape:connector-curvature="0" /></clipPath><clipPath
clipPathUnits="userSpaceOnUse"
id="clipPath328"><path
d="m 80.979,755.753 c -1.246,0.032 -2.487,0.067 -3.729,0.105 -22.514,0.866 -44.402,2.63 -65.494,5.281 0.334,-0.035 0.662,-0.07 0.996,-0.105 21.948,-2.72 44.761,-4.484 68.227,-5.281"
id="path330"
inkscape:connector-curvature="0" /></clipPath><radialGradient
fx="0"
fy="0"
cx="0"
cy="0"
r="1"
gradientUnits="userSpaceOnUse"
gradientTransform="matrix(2.1802,0,0,-2.1802,518.964,813.568)"
spreadMethod="pad"
id="radialGradient346"><stop
style="stop-opacity:1;stop-color:#ffffff"
offset="0"
id="stop348" /><stop
style="stop-opacity:1;stop-color:#231f20"
offset="1"
id="stop350" /></radialGradient><radialGradient
fx="0"
fy="0"
cx="0"
cy="0"
r="1"
gradientUnits="userSpaceOnUse"
gradientTransform="matrix(1.8437,0.82968,0.82968,-1.8437,518.535,810.182)"
spreadMethod="pad"
id="radialGradient364"><stop
style="stop-opacity:1;stop-color:#ffffff"
offset="0"
id="stop366" /><stop
style="stop-opacity:1;stop-color:#231f20"
offset="1"
id="stop368" /></radialGradient><radialGradient
fx="0"
fy="0"
cx="0"
cy="0"
r="1"
gradientUnits="userSpaceOnUse"
gradientTransform="matrix(1.2076,-1.0094,-1.0094,-1.2076,518.799,814.348)"
spreadMethod="pad"
id="radialGradient382"><stop
style="stop-opacity:1;stop-color:#ffffff"
offset="0"
id="stop384" /><stop
style="stop-opacity:1;stop-color:#231f20"
offset="1"
id="stop386" /></radialGradient><radialGradient
fx="0"
fy="0"
cx="0"
cy="0"
r="1"
gradientUnits="userSpaceOnUse"
gradientTransform="matrix(7.4879,0,0,-8.5138,517.685,807.835)"
spreadMethod="pad"
id="radialGradient400"><stop
style="stop-opacity:1;stop-color:#ffffff"
offset="0"
id="stop402" /><stop
style="stop-opacity:1;stop-color:#231f20"
offset="1"
id="stop404" /></radialGradient><radialGradient
fx="0"
fy="0"
cx="0"
cy="0"
r="1"
gradientUnits="userSpaceOnUse"
gradientTransform="matrix(4.7608,0,0,-4.7608,522.052,805.499)"
spreadMethod="pad"
id="radialGradient418"><stop
style="stop-opacity:1;stop-color:#ffffff"
offset="0"
id="stop420" /><stop
style="stop-opacity:1;stop-color:#231f20"
offset="1"
id="stop422" /></radialGradient><radialGradient
fx="0"
fy="0"
cx="0"
cy="0"
r="1"
gradientUnits="userSpaceOnUse"
gradientTransform="matrix(0.001234,0,0,-0.001234,532.772,816.953)"
spreadMethod="pad"
id="radialGradient436"><stop
style="stop-opacity:1;stop-color:#ffffff"
offset="0"
id="stop438" /><stop
style="stop-opacity:1;stop-color:#231f20"
offset="1"
id="stop440" /></radialGradient><radialGradient
fx="0"
fy="0"
cx="0"
cy="0"
r="1"
gradientUnits="userSpaceOnUse"
gradientTransform="matrix(16.569,0.43011,0.43413,-16.736,526.354,815.875)"
spreadMethod="pad"
id="radialGradient454"><stop
style="stop-opacity:1;stop-color:#ffffff"
offset="0"
id="stop456" /><stop
style="stop-opacity:1;stop-color:#231f20"
offset="1"
id="stop458" /></radialGradient><radialGradient
fx="0"
fy="0"
cx="0"
cy="0"
r="1"
gradientUnits="userSpaceOnUse"
gradientTransform="matrix(9.6309,0.24908,0.24908,-9.6309,509.695,802.801)"
spreadMethod="pad"
id="radialGradient472"><stop
style="stop-opacity:1;stop-color:#ffffff"
offset="0"
id="stop474" /><stop
style="stop-opacity:1;stop-color:#231f20"
offset="1"
id="stop476" /></radialGradient><radialGradient
fx="0"
fy="0"
cx="0"
cy="0"
r="1"
gradientUnits="userSpaceOnUse"
gradientTransform="matrix(5.8414,0.47386,0.47386,-5.8414,516.824,804.666)"
spreadMethod="pad"
id="radialGradient490"><stop
style="stop-opacity:1;stop-color:#ffffff"
offset="0"
id="stop492" /><stop
style="stop-opacity:1;stop-color:#231f20"
offset="1"
id="stop494" /></radialGradient><radialGradient
fx="0"
fy="0"
cx="0"
cy="0"
r="1"
gradientUnits="userSpaceOnUse"
gradientTransform="matrix(10.688,0,0,-10.688,510.729,824.087)"
spreadMethod="pad"
id="radialGradient508"><stop
style="stop-opacity:1;stop-color:#ffffff"
offset="0"
id="stop510" /><stop
style="stop-opacity:1;stop-color:#231f20"
offset="1"
id="stop512" /></radialGradient><radialGradient
fx="0"
fy="0"
cx="0"
cy="0"
r="1"
gradientUnits="userSpaceOnUse"
gradientTransform="matrix(10.315,0,0,-10.315,516.579,797.864)"
spreadMethod="pad"
id="radialGradient526"><stop
style="stop-opacity:1;stop-color:#ffffff"
offset="0"
id="stop528" /><stop
style="stop-opacity:1;stop-color:#231f20"
offset="1"
id="stop530" /></radialGradient><radialGradient
fx="0"
fy="0"
cx="0"
cy="0"
r="1"
gradientUnits="userSpaceOnUse"
gradientTransform="matrix(16.462,0,0,-16.462,517.867,807.936)"
spreadMethod="pad"
id="radialGradient544"><stop
style="stop-opacity:1;stop-color:#ffffff"
offset="0"
id="stop546" /><stop
style="stop-opacity:1;stop-color:#231f20"
offset="1"
id="stop548" /></radialGradient><radialGradient
fx="0"
fy="0"
cx="0"
cy="0"
r="1"
gradientUnits="userSpaceOnUse"
gradientTransform="matrix(7.8711,0,0,-8.5261,509.61,791.017)"
spreadMethod="pad"
id="radialGradient562"><stop
style="stop-opacity:1;stop-color:#ffffff"
offset="0"
id="stop564" /><stop
style="stop-opacity:1;stop-color:#231f20"
offset="1"
id="stop566" /></radialGradient><radialGradient
fx="0"
fy="0"
cx="0"
cy="0"
r="1"
gradientUnits="userSpaceOnUse"
gradientTransform="matrix(4.6521,-0.20417,-0.20963,-5.5945,522.196,799.066)"
spreadMethod="pad"
id="radialGradient580"><stop
style="stop-opacity:1;stop-color:#ffffff"
offset="0"
id="stop582" /><stop
style="stop-opacity:1;stop-color:#231f20"
offset="1"
id="stop584" /></radialGradient><radialGradient
fx="0"
fy="0"
cx="0"
cy="0"
r="1"
gradientUnits="userSpaceOnUse"
gradientTransform="matrix(3.1871,0,0,-3.1871,514.34,802.196)"
spreadMethod="pad"
id="radialGradient610"><stop
style="stop-opacity:1;stop-color:#ffffff"
offset="0"
id="stop612" /><stop
style="stop-opacity:1;stop-color:#b7292e"
offset="1"
id="stop614" /></radialGradient><radialGradient
fx="0"
fy="0"
cx="0"
cy="0"
r="1"
gradientUnits="userSpaceOnUse"
gradientTransform="matrix(18.843,0,0,-18.843,525.556,791.661)"
spreadMethod="pad"
id="radialGradient628"><stop
style="stop-opacity:1;stop-color:#ffffff"
offset="0"
id="stop630" /><stop
style="stop-opacity:1;stop-color:#b82233"
offset="1"
id="stop632" /></radialGradient><clipPath
clipPathUnits="userSpaceOnUse"
id="clipPath640"><path
d="m 510.703,786.278 c 0,0 0,0 0,0 0,0 0,0 0,10e-4 -0.003,10e-4 -0.004,10e-4 -0.007,0.002 -0.204,0.099 -0.404,0.206 -0.605,0.312 0.203,-0.102 0.407,-0.204 0.612,-0.305 0.014,0.059 0.029,0.119 0.044,0.182 0.002,0 0.003,-10e-4 0.005,-0.002 -0.031,-0.11 -0.035,-0.133 -0.049,-0.19"
id="path642"
inkscape:connector-curvature="0" /></clipPath><radialGradient
fx="0"
fy="0"
cx="0"
cy="0"
r="1"
gradientUnits="userSpaceOnUse"
gradientTransform="matrix(18.843,0,0,-18.843,525.556,791.661)"
spreadMethod="pad"
id="radialGradient660"><stop
style="stop-opacity:1;stop-color:#6e0510"
offset="0"
id="stop662" /><stop
style="stop-opacity:1;stop-color:#5b0000"
offset="1"
id="stop664" /></radialGradient><radialGradient
fx="0"
fy="0"
cx="0"
cy="0"
r="1"
gradientUnits="userSpaceOnUse"
gradientTransform="matrix(3.1871,0,0,-3.1871,514.34,802.196)"
spreadMethod="pad"
id="radialGradient682"><stop
style="stop-opacity:1;stop-color:#6e0510"
offset="0"
id="stop684" /><stop
style="stop-opacity:1;stop-color:#580103"
offset="1"
id="stop686" /></radialGradient><radialGradient
fx="0"
fy="0"
cx="0"
cy="0"
r="1"
gradientUnits="userSpaceOnUse"
gradientTransform="matrix(18.843,0,0,-18.843,525.556,791.661)"
spreadMethod="pad"
id="radialGradient700"><stop
style="stop-opacity:1;stop-color:#6e0510"
offset="0"
id="stop702" /><stop
style="stop-opacity:1;stop-color:#5b0000"
offset="1"
id="stop704" /></radialGradient><radialGradient
fx="0"
fy="0"
cx="0"
cy="0"
r="1"
gradientUnits="userSpaceOnUse"
gradientTransform="matrix(18.843,0,0,-18.843,525.556,791.661)"
spreadMethod="pad"
id="radialGradient722"><stop
style="stop-opacity:1;stop-color:#6e0510"
offset="0"
id="stop724" /><stop
style="stop-opacity:1;stop-color:#5b0000"
offset="1"
id="stop726" /></radialGradient><radialGradient
fx="0"
fy="0"
cx="0"
cy="0"
r="1"
gradientUnits="userSpaceOnUse"
gradientTransform="matrix(18.843,0,0,-18.843,525.556,791.661)"
spreadMethod="pad"
id="radialGradient744"><stop
style="stop-opacity:1;stop-color:#6e0510"
offset="0"
id="stop746" /><stop
style="stop-opacity:1;stop-color:#5b0000"
offset="1"
id="stop748" /></radialGradient><radialGradient
fx="0"
fy="0"
cx="0"
cy="0"
r="1"
gradientUnits="userSpaceOnUse"
gradientTransform="matrix(18.843,0,0,-18.843,525.556,791.661)"
spreadMethod="pad"
id="radialGradient766"><stop
style="stop-opacity:1;stop-color:#6e0510"
offset="0"
id="stop768" /><stop
style="stop-opacity:1;stop-color:#5b0000"
offset="1"
id="stop770" /></radialGradient><radialGradient
fx="0"
fy="0"
cx="0"
cy="0"
r="1"
gradientUnits="userSpaceOnUse"
gradientTransform="matrix(18.843,0,0,-18.843,525.556,791.661)"
spreadMethod="pad"
id="radialGradient788"><stop
style="stop-opacity:1;stop-color:#6e0510"
offset="0"
id="stop790" /><stop
style="stop-opacity:1;stop-color:#5b0000"
offset="1"
id="stop792" /></radialGradient><radialGradient
fx="0"
fy="0"
cx="0"
cy="0"
r="1"
gradientUnits="userSpaceOnUse"
gradientTransform="matrix(18.843,0,0,-18.843,525.556,791.661)"
spreadMethod="pad"
id="radialGradient858"><stop
style="stop-opacity:1;stop-color:#6e0510"
offset="0"
id="stop860" /><stop
style="stop-opacity:1;stop-color:#5b0000"
offset="1"
id="stop862" /></radialGradient><radialGradient
fx="0"
fy="0"
cx="0"
cy="0"
r="1"
gradientUnits="userSpaceOnUse"
gradientTransform="matrix(18.843,0,0,-18.843,525.556,791.661)"
spreadMethod="pad"
id="radialGradient858-4"><stop
style="stop-opacity:1;stop-color:#6e0510"
offset="0"
id="stop860-0" /><stop
style="stop-opacity:1;stop-color:#5b0000"
offset="1"
id="stop862-9" /></radialGradient><radialGradient
fx="0"
fy="0"
cx="0"
cy="0"
r="1"
gradientUnits="userSpaceOnUse"
gradientTransform="matrix(18.843,0,0,-18.843,525.556,791.661)"
spreadMethod="pad"
id="radialGradient788-4"><stop
style="stop-opacity:1;stop-color:#6e0510"
offset="0"
id="stop790-8" /><stop
style="stop-opacity:1;stop-color:#5b0000"
offset="1"
id="stop792-8" /></radialGradient><radialGradient
fx="0"
fy="0"
cx="0"
cy="0"
r="1"
gradientUnits="userSpaceOnUse"
gradientTransform="matrix(18.843,0,0,-18.843,525.556,791.661)"
spreadMethod="pad"
id="radialGradient766-2"><stop
style="stop-opacity:1;stop-color:#6e0510"
offset="0"
id="stop768-4" /><stop
style="stop-opacity:1;stop-color:#5b0000"
offset="1"
id="stop770-5" /></radialGradient><radialGradient
fx="0"
fy="0"
cx="0"
cy="0"
r="1"
gradientUnits="userSpaceOnUse"
gradientTransform="matrix(18.843,0,0,-18.843,525.556,791.661)"
spreadMethod="pad"
id="radialGradient744-5"><stop
style="stop-opacity:1;stop-color:#6e0510"
offset="0"
id="stop746-1" /><stop
style="stop-opacity:1;stop-color:#5b0000"
offset="1"
id="stop748-7" /></radialGradient><radialGradient
fx="0"
fy="0"
cx="0"
cy="0"
r="1"
gradientUnits="userSpaceOnUse"
gradientTransform="matrix(18.843,0,0,-18.843,525.556,791.661)"
spreadMethod="pad"
id="radialGradient722-1"><stop
style="stop-opacity:1;stop-color:#6e0510"
offset="0"
id="stop724-1" /><stop
style="stop-opacity:1;stop-color:#5b0000"
offset="1"
id="stop726-5" /></radialGradient><radialGradient
fx="0"
fy="0"
cx="0"
cy="0"
r="1"
gradientUnits="userSpaceOnUse"
gradientTransform="matrix(18.843,0,0,-18.843,525.556,791.661)"
spreadMethod="pad"
id="radialGradient700-2"><stop
style="stop-opacity:1;stop-color:#6e0510"
offset="0"
id="stop702-7" /><stop
style="stop-opacity:1;stop-color:#5b0000"
offset="1"
id="stop704-6" /></radialGradient><radialGradient
fx="0"
fy="0"
cx="0"
cy="0"
r="1"
gradientUnits="userSpaceOnUse"
gradientTransform="matrix(3.1871,0,0,-3.1871,514.34,802.196)"
spreadMethod="pad"
id="radialGradient682-1"><stop
style="stop-opacity:1;stop-color:#6e0510"
offset="0"
id="stop684-4" /><stop
style="stop-opacity:1;stop-color:#580103"
offset="1"
id="stop686-2" /></radialGradient><radialGradient
fx="0"
fy="0"
cx="0"
cy="0"
r="1"
gradientUnits="userSpaceOnUse"
gradientTransform="matrix(18.843,0,0,-18.843,525.556,791.661)"
spreadMethod="pad"
id="radialGradient660-3"><stop
style="stop-opacity:1;stop-color:#6e0510"
offset="0"
id="stop662-2" /><stop
style="stop-opacity:1;stop-color:#5b0000"
offset="1"
id="stop664-2" /></radialGradient><clipPath
clipPathUnits="userSpaceOnUse"
id="clipPath640-1"><path
inkscape:connector-curvature="0"
d="m 510.703,786.278 c 0,0 0,0 0,0 0,0 0,0 0,10e-4 -0.003,10e-4 -0.004,10e-4 -0.007,0.002 -0.204,0.099 -0.404,0.206 -0.605,0.312 0.203,-0.102 0.407,-0.204 0.612,-0.305 0.014,0.059 0.029,0.119 0.044,0.182 0.002,0 0.003,-10e-4 0.005,-0.002 -0.031,-0.11 -0.035,-0.133 -0.049,-0.19"
id="path642-6" /></clipPath><radialGradient
fx="0"
fy="0"
cx="0"
cy="0"
r="1"
gradientUnits="userSpaceOnUse"
gradientTransform="matrix(18.843,0,0,-18.843,525.556,791.661)"
spreadMethod="pad"
id="radialGradient628-8"><stop
style="stop-opacity:1;stop-color:#ffffff"
offset="0"
id="stop630-5" /><stop
style="stop-opacity:1;stop-color:#b82233"
offset="1"
id="stop632-7" /></radialGradient><radialGradient
fx="0"
fy="0"
cx="0"
cy="0"
r="1"
gradientUnits="userSpaceOnUse"
gradientTransform="matrix(3.1871,0,0,-3.1871,514.34,802.196)"
spreadMethod="pad"
id="radialGradient610-6"><stop
style="stop-opacity:1;stop-color:#ffffff"
offset="0"
id="stop612-1" /><stop
style="stop-opacity:1;stop-color:#b7292e"
offset="1"
id="stop614-8" /></radialGradient><radialGradient
fx="0"
fy="0"
cx="0"
cy="0"
r="1"
gradientUnits="userSpaceOnUse"
gradientTransform="matrix(4.6521,-0.20417,-0.20963,-5.5945,522.196,799.066)"
spreadMethod="pad"
id="radialGradient580-9"><stop
style="stop-opacity:1;stop-color:#ffffff"
offset="0"
id="stop582-2" /><stop
style="stop-opacity:1;stop-color:#231f20"
offset="1"
id="stop584-7" /></radialGradient><radialGradient
fx="0"
fy="0"
cx="0"
cy="0"
r="1"
gradientUnits="userSpaceOnUse"
gradientTransform="matrix(7.8711,0,0,-8.5261,509.61,791.017)"
spreadMethod="pad"
id="radialGradient562-9"><stop
style="stop-opacity:1;stop-color:#ffffff"
offset="0"
id="stop564-5" /><stop
style="stop-opacity:1;stop-color:#231f20"
offset="1"
id="stop566-4" /></radialGradient><radialGradient
fx="0"
fy="0"
cx="0"
cy="0"
r="1"
gradientUnits="userSpaceOnUse"
gradientTransform="matrix(16.462,0,0,-16.462,517.867,807.936)"
spreadMethod="pad"
id="radialGradient544-3"><stop
style="stop-opacity:1;stop-color:#ffffff"
offset="0"
id="stop546-1" /><stop
style="stop-opacity:1;stop-color:#231f20"
offset="1"
id="stop548-2" /></radialGradient><radialGradient
fx="0"
fy="0"
cx="0"
cy="0"
r="1"
gradientUnits="userSpaceOnUse"
gradientTransform="matrix(10.315,0,0,-10.315,516.579,797.864)"
spreadMethod="pad"
id="radialGradient526-3"><stop
style="stop-opacity:1;stop-color:#ffffff"
offset="0"
id="stop528-3" /><stop
style="stop-opacity:1;stop-color:#231f20"
offset="1"
id="stop530-4" /></radialGradient><radialGradient
fx="0"
fy="0"
cx="0"
cy="0"
r="1"
gradientUnits="userSpaceOnUse"
gradientTransform="matrix(10.688,0,0,-10.688,510.729,824.087)"
spreadMethod="pad"
id="radialGradient508-1"><stop
style="stop-opacity:1;stop-color:#ffffff"
offset="0"
id="stop510-1" /><stop
style="stop-opacity:1;stop-color:#231f20"
offset="1"
id="stop512-3" /></radialGradient><radialGradient
fx="0"
fy="0"
cx="0"
cy="0"
r="1"
gradientUnits="userSpaceOnUse"
gradientTransform="matrix(5.8414,0.47386,0.47386,-5.8414,516.824,804.666)"
spreadMethod="pad"
id="radialGradient490-8"><stop
style="stop-opacity:1;stop-color:#ffffff"
offset="0"
id="stop492-7" /><stop
style="stop-opacity:1;stop-color:#231f20"
offset="1"
id="stop494-4" /></radialGradient><radialGradient
fx="0"
fy="0"
cx="0"
cy="0"
r="1"
gradientUnits="userSpaceOnUse"
gradientTransform="matrix(9.6309,0.24908,0.24908,-9.6309,509.695,802.801)"
spreadMethod="pad"
id="radialGradient472-2"><stop
style="stop-opacity:1;stop-color:#ffffff"
offset="0"
id="stop474-7" /><stop
style="stop-opacity:1;stop-color:#231f20"
offset="1"
id="stop476-7" /></radialGradient><radialGradient
fx="0"
fy="0"
cx="0"
cy="0"
r="1"
gradientUnits="userSpaceOnUse"
gradientTransform="matrix(16.569,0.43011,0.43413,-16.736,526.354,815.875)"
spreadMethod="pad"
id="radialGradient454-9"><stop
style="stop-opacity:1;stop-color:#ffffff"
offset="0"
id="stop456-3" /><stop
style="stop-opacity:1;stop-color:#231f20"
offset="1"
id="stop458-1" /></radialGradient><radialGradient
fx="0"
fy="0"
cx="0"
cy="0"
r="1"
gradientUnits="userSpaceOnUse"
gradientTransform="matrix(0.001234,0,0,-0.001234,532.772,816.953)"
spreadMethod="pad"
id="radialGradient436-9"><stop
style="stop-opacity:1;stop-color:#ffffff"
offset="0"
id="stop438-8" /><stop
style="stop-opacity:1;stop-color:#231f20"
offset="1"
id="stop440-6" /></radialGradient><radialGradient
fx="0"
fy="0"
cx="0"
cy="0"
r="1"
gradientUnits="userSpaceOnUse"
gradientTransform="matrix(4.7608,0,0,-4.7608,522.052,805.499)"
spreadMethod="pad"
id="radialGradient418-5"><stop
style="stop-opacity:1;stop-color:#ffffff"
offset="0"
id="stop420-0" /><stop
style="stop-opacity:1;stop-color:#231f20"
offset="1"
id="stop422-2" /></radialGradient><radialGradient
fx="0"
fy="0"
cx="0"
cy="0"
r="1"
gradientUnits="userSpaceOnUse"
gradientTransform="matrix(7.4879,0,0,-8.5138,517.685,807.835)"
spreadMethod="pad"
id="radialGradient400-8"><stop
style="stop-opacity:1;stop-color:#ffffff"
offset="0"
id="stop402-6" /><stop
style="stop-opacity:1;stop-color:#231f20"
offset="1"
id="stop404-0" /></radialGradient><radialGradient
fx="0"
fy="0"
cx="0"
cy="0"
r="1"
gradientUnits="userSpaceOnUse"
gradientTransform="matrix(1.2076,-1.0094,-1.0094,-1.2076,518.799,814.348)"
spreadMethod="pad"
id="radialGradient382-2"><stop
style="stop-opacity:1;stop-color:#ffffff"
offset="0"
id="stop384-4" /><stop
style="stop-opacity:1;stop-color:#231f20"
offset="1"
id="stop386-8" /></radialGradient><radialGradient
fx="0"
fy="0"
cx="0"
cy="0"
r="1"
gradientUnits="userSpaceOnUse"
gradientTransform="matrix(1.8437,0.82968,0.82968,-1.8437,518.535,810.182)"
spreadMethod="pad"
id="radialGradient364-6"><stop
style="stop-opacity:1;stop-color:#ffffff"
offset="0"
id="stop366-5" /><stop
style="stop-opacity:1;stop-color:#231f20"
offset="1"
id="stop368-0" /></radialGradient><radialGradient
fx="0"
fy="0"
cx="0"
cy="0"
r="1"
gradientUnits="userSpaceOnUse"
gradientTransform="matrix(2.1802,0,0,-2.1802,518.964,813.568)"
spreadMethod="pad"
id="radialGradient346-9"><stop
style="stop-opacity:1;stop-color:#ffffff"
offset="0"
id="stop348-0" /><stop
style="stop-opacity:1;stop-color:#231f20"
offset="1"
id="stop350-0" /></radialGradient></defs><sodipodi:namedview
pagecolor="#ffffff"
bordercolor="#666666"
borderopacity="1"
objecttolerance="10"
gridtolerance="10"
guidetolerance="10"
inkscape:pageopacity="0"
inkscape:pageshadow="2"
inkscape:window-width="1043"
inkscape:window-height="790"
id="namedview4"
showgrid="false"
fit-margin-top="0"
fit-margin-left="0"
fit-margin-right="0"
fit-margin-bottom="0"
inkscape:zoom="2.1643449"
inkscape:cx="173.89789"
inkscape:cy="74.101047"
inkscape:window-x="0"
inkscape:window-y="0"
inkscape:window-maximized="0"
inkscape:current-layer="g10" /><g
id="g10"
inkscape:groupmode="layer"
inkscape:label="Cert_Logo_2010_17998"
transform="matrix(1.25,0,0,-1.25,-195.67702,1118.719)"><g
transform="matrix(3.6591166,0,0,3.6591166,-1622.3191,-2118.1646)"
id="g336"><g
id="g338"><g
id="g344"><path
inkscape:connector-curvature="0"
d="m 521.006,810.663 -0.142,-0.083 c -0.812,-0.492 -0.614,0.803 -0.614,0.803 0.545,0.662 1.506,2.501 0.561,3.198 -0.856,0.634 -1.55,-0.27 -1.55,-0.27 1.318,0.246 1.369,-0.386 1.369,-0.386 0,0 -0.196,0.09 -0.8,0.059 -0.61,-0.035 0.049,-1.05 -0.023,-1.908 -0.077,-0.847 -0.873,0.045 -0.873,0.045 -0.12,-0.336 -0.151,-0.551 -0.108,-0.801 0.053,-0.361 0.217,-0.573 0.358,-1.06 0.219,-0.762 -0.456,-1.344 -0.456,-1.344 0.326,0.039 0.639,0.18 0.925,0.367 0.841,0.524 1.353,1.38 1.353,1.38"
style="fill:url(#radialGradient346-9);stroke:none"
id="path352" /></g></g></g><g
transform="matrix(3.6591166,0,0,3.6591166,-1622.3191,-2118.1646)"
id="g354"><g
id="g356"><g
id="g362"><path
inkscape:connector-curvature="0"
d="m 521.006,810.663 -0.142,-0.083 c -0.812,-0.492 -0.614,0.803 -0.614,0.803 0.207,0.25 0.47,0.666 0.668,1.125 l 0.002,0.014 c 0,0 -0.639,-1.01 -1.396,-0.807 -0.1,0.012 -0.205,0.075 -0.304,0.149 l -0.059,0.044 -0.011,0.009 -0.053,0.045 c -0.095,0.086 -0.163,0.159 -0.163,0.159 0.175,-0.357 0.312,-0.483 0.697,-0.619 0.447,-0.163 0.996,-1.427 -0.137,-2.314 l 0.028,0.015 0.131,0.08 c 0.841,0.524 1.353,1.38 1.353,1.38"
style="fill:url(#radialGradient364-6);stroke:none"
id="path370" /></g></g></g><g
transform="matrix(3.6591166,0,0,3.6591166,-1622.3191,-2118.1646)"
id="g372"><g
id="g374"><g
id="g380"><path
inkscape:connector-curvature="0"
d="m 520.63,813.925 c 0,0 -0.196,0.09 -0.8,0.059 -0.447,-0.026 -0.213,-0.58 -0.082,-1.211 -0.095,1.174 0.882,1.152 0.882,1.152"
style="fill:url(#radialGradient382-2);stroke:none"
id="path388" /></g></g></g><g
transform="matrix(3.6591166,0,0,3.6591166,-1622.3191,-2118.1646)"
id="g390"><g
id="g392"><g
id="g398"><path
inkscape:connector-curvature="0"
d="m 516.008,806.089 c -0.284,1.5 0.301,3.734 0.297,5.042 -10e-4,1.153 -0.574,2.661 -1.204,4.014 0.373,-0.593 1.746,-2.285 1.72,-3.69 -0.011,-0.558 0.15,-0.64 0.15,-0.64 l 0.002,0 c -0.041,-0.051 -1.187,-1.509 -0.401,-3.942 0,0 -0.401,-0.383 -0.564,-0.784"
style="fill:url(#radialGradient400-8);stroke:none"
id="path406" /></g></g></g><g
transform="matrix(3.6591166,0,0,3.6591166,-1622.3191,-2118.1646)"
id="g408"><g
id="g410"><g
id="g416"><path
inkscape:connector-curvature="0"
d="m 510.874,784.507 c 0,0 0.772,0.295 0.952,1.161 0.177,0.866 0.403,2.277 0.403,2.277 0.023,0.607 0.198,1.694 0.392,1.928 0.191,0.234 0.359,1.521 0.495,2.345 0.175,1.066 0.216,1.431 0.328,2.353 0.466,3.797 0.904,5.546 2.334,6.901 0,0 2.88,1.481 3.255,3.97 l -0.065,0.062 0.075,0.037 c 0,0 1.492,0.822 2.619,3.228 0.49,1.044 1.343,2.946 5.125,4.467 3.653,1.354 4.132,2.739 4.188,2.739 10e-4,0 10e-4,0 10e-4,0 0.036,-0.011 0.076,-0.016 0.118,-0.016 0.529,0 1.492,0.781 1.492,0.781 l 0.187,0.211 c -0.029,-0.096 -0.295,-0.537 -0.795,-0.969 -0.826,-0.714 -1.417,-1.307 -4.58,-3.189 -0.922,-0.549 -3.841,-2.732 -4.562,-3.514 -0.632,-0.685 -1.554,-1.464 -3.405,-5.98 0,0 -3.756,-2.919 -4.633,-7.042 -0.084,-0.407 -0.583,-2.339 -0.895,-2.91 -0.35,-0.644 0.029,-0.843 -0.129,-1.759 -0.32,-1.88 -1.395,-2.357 -1.208,-3.206 0.473,-2.159 -0.344,-1.427 -0.21,-2.307 0.223,-1.497 -0.063,-1.562 -0.654,-1.562 -0.028,0 -0.057,0 -0.086,0 -0.03,0 -0.06,0 -0.09,0 -0.064,0 -0.131,0 -0.2,-0.003 l -0.452,-0.003"
style="fill:url(#radialGradient418-5);stroke:none"
id="path424" /></g></g></g><g
transform="matrix(3.6591166,0,0,3.6591166,-1622.3191,-2118.1646)"
id="g426"><g
id="g428"><g
id="g434"><path
inkscape:connector-curvature="0"
d="m 532.77,816.948 0.005,0.008 -0.002,-0.002 -0.003,-0.006"
style="fill:url(#radialGradient436-9);stroke:none"
id="path442" /></g></g></g><g
transform="matrix(3.6591166,0,0,3.6591166,-1622.3191,-2118.1646)"
id="g444"><g
id="g446"><g
id="g452"><path
inkscape:connector-curvature="0"
d="m 518.528,805.924 c 0,0 1.482,0.282 2.83,2.985 0.487,0.972 1.047,2.958 4.624,4.273 6.107,2.248 4.447,3.689 4.493,3.733 0.213,0.188 0.285,-0.175 0.512,-0.482 0.274,-0.367 1.853,0.974 1.788,0.526 l -0.189,-0.219 c 0,0 -1.123,-0.911 -1.61,-0.765 -0.051,0.016 -0.514,-1.377 -4.189,-2.739 -3.781,-1.521 -4.635,-3.423 -5.125,-4.467 -1.127,-2.406 -2.632,-3.327 -2.632,-3.327 l -0.502,0.482"
style="fill:url(#radialGradient454-9);stroke:none"
id="path460" /></g></g></g><g
transform="matrix(3.6591166,0,0,3.6591166,-1622.3191,-2118.1646)"
id="g462"><g
id="g464"><g
id="g470"><path
inkscape:connector-curvature="0"
d="m 510.874,784.507 c 0.09,0.27 0.441,1.268 0.544,1.579 0.323,0.957 1.038,3.779 1.552,7.646 0.513,3.866 0.786,6.779 2.309,8.222 0,0 2.874,1.48 3.247,3.97 l 0.442,-0.42 0.065,-0.062 c -0.375,-2.489 -3.255,-3.97 -3.255,-3.97 -1.43,-1.355 -1.868,-3.104 -2.334,-6.901 -0.112,-0.922 -0.153,-1.287 -0.328,-2.353 -0.136,-0.824 -0.304,-2.111 -0.495,-2.345 -0.194,-0.234 -0.369,-1.321 -0.392,-1.928 0,0 -0.226,-1.411 -0.403,-2.277 -0.18,-0.866 -0.952,-1.161 -0.952,-1.161"
style="fill:url(#radialGradient472-2);stroke:none"
id="path478" /></g></g></g><g
transform="matrix(3.6591166,0,0,3.6591166,-1622.3191,-2118.1646)"
id="g480"><g
id="g482"><g
id="g488"><path
inkscape:connector-curvature="0"
d="m 516.008,806.089 c 0.163,0.401 0.564,0.784 0.564,0.784 -0.799,2.478 0.406,3.944 0.406,3.944 l 0.875,0.078 c -2.166,-1.032 -0.387,-3.761 -0.387,-3.761 -0.397,-0.052 -1.29,-0.771 -1.458,-1.045"
style="fill:url(#radialGradient490-8);stroke:none"
id="path496" /></g></g></g><g
transform="matrix(3.6591166,0,0,3.6591166,-1622.3191,-2118.1646)"
id="g498"><g
id="g500"><g
id="g506"><path
inkscape:connector-curvature="0"
d="m 517.586,811.481 c 0,0.45 -0.11,1.528 -0.82,2.55 -0.676,0.975 -3.014,4.363 -3.609,5.559 -1.108,2.228 -0.096,2.574 -0.123,2.621 -0.127,0.268 -0.292,0.003 -0.655,-0.124 -0.43,-0.149 -1.03,1.364 -1.211,1.374 l -0.11,-0.17 1.181,-1.766 c 0,0 -0.313,-0.332 2.8,-6.277 0.247,-0.468 1.808,-2.294 1.782,-3.793 -0.011,-0.558 0.149,-0.64 0.149,-0.64 l 0.88,0.079 c 0,0 -0.264,0.163 -0.264,0.587"
style="fill:url(#radialGradient508-1);stroke:none"
id="path514" /></g></g></g><g
transform="matrix(3.6591166,0,0,3.6591166,-1622.3191,-2118.1646)"
id="g516"><g
id="g518"><g
id="g524"><path
inkscape:connector-curvature="0"
d="m 510.847,784.51 -0.022,0.005 0,-0.002 c -0.297,0.109 0.044,0.494 0.228,1.262 l 0.023,0.088 c 0.236,1.027 1.005,4.393 1.511,8.216 0.513,3.865 0.791,6.778 2.307,8.223 0,0 2.88,1.478 3.253,3.969 0,0 1.487,0.216 2.776,2.95 0.282,0.602 0.845,1.524 1.521,1.997 l -0.022,-0.023 0.027,0.019 c -0.61,-0.548 -1.129,-1.52 -1.404,-2.114 -1.292,-2.737 -2.776,-2.951 -2.776,-2.951 -0.375,-2.49 -3.255,-3.967 -3.255,-3.967 -1.522,-1.445 -1.793,-4.358 -2.306,-8.224 l -0.005,-0.03 c -0.464,-4.151 -1.028,-6.434 -1.251,-7.414 -0.089,-0.381 -0.518,-1.7 -0.605,-2.004"
style="fill:url(#radialGradient526-3);stroke:none"
id="path532" /></g></g></g><g
transform="matrix(3.6591166,0,0,3.6591166,-1622.3191,-2118.1646)"
id="g534"><g
id="g536"><g
id="g542"><path
inkscape:connector-curvature="0"
d="m 515.234,804.239 c -0.344,3.65 0.645,4.931 0.592,6.757 -0.04,1.33 -0.593,2.602 -1.085,3.798 -0.252,0.551 -2.051,4.426 -2.354,5.03 -0.137,0.266 -0.902,2.047 -1.081,2.522 -0.372,0.994 -0.233,1.06 -0.233,1.06 0.023,-0.048 0.276,-0.473 0.518,-0.875 0.303,-0.497 0.648,-0.999 0.648,-0.999 -0.356,-0.565 2.324,-5.844 2.639,-6.608 0.96,-2.342 1.397,-3.533 0.912,-5.781 -0.257,-1.205 -0.349,-2.771 -0.185,-3.607 -0.356,-0.714 -0.371,-1.297 -0.371,-1.297"
style="fill:url(#radialGradient544-3);stroke:none"
id="path550" /></g></g></g><g
transform="matrix(3.6591166,0,0,3.6591166,-1622.3191,-2118.1646)"
id="g552"><g
id="g554"><g
id="g560"><path
inkscape:connector-curvature="0"
d="m 516.807,799.559 c 0,0 0.121,0.271 0.592,0.958 0.375,0.541 0.803,0.972 0.803,0.972 0,0 0.929,-2.323 0.067,-4.652 -0.957,-2.578 -1.805,-3.136 -2.083,-4.124 -0.284,-0.988 -0.178,-2.045 -0.786,-2.628 -0.227,-0.219 -0.907,-0.729 -1.026,-0.31 -0.183,0.63 0.611,1.505 0.716,2.074 0.107,0.572 -0.1,0.89 0.283,1.28 0.227,0.231 0.407,-0.223 0.471,1.182 0.033,0.656 0.125,1.378 0.404,1.68 0.283,0.305 0.351,0.303 0.365,0.285 0.213,-0.218 0.746,-0.517 1.211,0.281 0.472,0.812 0.666,2.432 0.376,2.995 -0.253,0.491 -0.847,0.625 -1.393,0.007"
style="fill:url(#radialGradient562-9);stroke:none"
id="path568" /></g></g></g><g
transform="matrix(3.6591166,0,0,3.6591166,-1622.3191,-2118.1646)"
id="g570"><g
id="g572"><g
id="g578"><path
inkscape:connector-curvature="0"
d="m 519.453,802.653 c 0,0 -0.373,-0.215 -0.825,-0.691 0.311,-1.603 0.438,-3.085 -0.159,-4.853 -1.02,-2.995 -2.043,-3.568 -2.258,-4.613 -0.013,-0.071 -0.085,-0.287 -0.056,-0.699 0.103,0.634 0.221,0.846 0.264,0.953 0.372,0.955 1.08,1.314 2.225,4.004 1.147,2.689 0.809,5.899 0.809,5.899"
style="fill:url(#radialGradient580-9);stroke:none"
id="path586" /></g></g></g><g
id="g588"
transform="matrix(3.6591166,0,0,3.6591166,364.63606,791.64519)"><path
inkscape:connector-curvature="0"
d="m 0,0 1.753,2.284 c 0.65,0.828 0.945,0.862 0.945,0.862 L 3.21,0 0,0 m -12.18,0 1.75,2.284 c 0.651,0.828 0.945,0.862 0.945,0.862 L -8.971,0 -12.18,0 m 30.493,5.572 2.264,0 c 3.099,0 4.148,2.859 4.148,2.859 l -8.129,0 L 16.595,8.43 C 16.05,8.416 12.163,8.193 11.052,4.545 10.317,2.138 8.992,-2.649 8.58,-4.154 L 5.674,8.431 c 0,0 -3.055,0.819 -5.99,-3.088 C -1.373,3.939 -3.06,1.902 -4.563,0 L -6.51,8.431 c 0,0 -3.11,0.8 -5.987,-3.088 -2.013,-2.724 -6.262,-7.892 -7.522,-9.491 l 3.549,12.579 c 0,0 -4.438,-0.178 -5.609,-3.886 -0.905,-2.871 -2.603,-9.164 -2.603,-9.164 l 9.026,0 1.453,1.942 5.668,0 0.304,-1.942 4.756,0 1.456,1.942 5.666,0 0.306,-1.942 9.024,0 1.425,5.039 4.14,0 c 2.51,0 3.565,2.859 3.565,2.859 l -6.863,0 c 0.846,2.434 3.069,2.293 3.069,2.293"
style="fill:#000009;fill-opacity:1;fill-rule:nonzero;stroke:none"
id="path590" /></g><g
id="g592"
transform="matrix(3.6591166,0,0,3.6591166,335.94492,827.26302)"><path
inkscape:connector-curvature="0"
d="M 0,0 C -2.866,1.971 -6.8,3.994 -10.433,5.604 L -10.577,5.5 C -6.897,3.895 -3.116,1.819 -0.267,-0.175 -0.012,-0.352 0.316,-0.217 0,0 m -21.468,9.313 c -12.539,2.869 -23.934,1.314 -26.581,-4.65 -3.263,-7.366 7.123,-18.392 23.131,-24.881 0.08,0.266 0.329,1.042 0.447,1.54 -14.729,6.163 -24.03,16.319 -21.007,23.14 2.422,5.462 12.731,6.971 24.14,4.534 0,0 0.694,-0.155 1.016,-0.232 -0.035,0.099 -0.072,0.199 -0.111,0.296 -0.325,0.085 -1.032,0.25 -1.035,0.253"
style="fill:#b82233;fill-opacity:1;fill-rule:nonzero;stroke:none"
id="path594" /></g><g
id="g596"
transform="matrix(3.6591166,0,0,3.6591166,335.76563,827.43866)"><path
inkscape:connector-curvature="0"
d="M 0,0 C -2.899,1.996 -6.567,4.018 -10.239,5.649 L -10.402,5.544 C -6.685,3.919 -2.988,1.88 -0.111,-0.139 0.145,-0.319 0.317,-0.22 0,0 m -21.648,9.494 c -0.174,0.041 -0.347,0.078 -0.52,0.115 -12.415,2.705 -23.582,1.085 -26.208,-4.851 -3.307,-7.477 7.301,-18.692 23.546,-25.255 -0.078,0.175 0.109,0.527 0.254,1.14 0.03,0.116 0.068,0.267 0.109,0.446 -14.825,6.187 -24.369,16.566 -21.313,23.466 2.438,5.513 12.795,7.048 24.27,4.615 0.73,-0.169 1.181,-0.292 1.177,-0.291 -0.036,0.102 -0.07,0.203 -0.111,0.302 0.002,0.005 -0.778,0.214 -1.204,0.313"
style="fill:#ffd600;fill-opacity:1;fill-rule:nonzero;stroke:none"
id="path598" /></g><g
transform="matrix(3.6591166,0,0,3.6591166,-1622.3191,-2118.1646)"
id="g600"><g
id="g602"><g
id="g608"><path
inkscape:connector-curvature="0"
d="m 513.32,800.771 c -0.269,0.317 -0.498,0.626 -0.697,0.928 -0.223,0.339 -0.401,0.666 -0.542,0.981 -0.13,0.295 -0.222,0.578 -0.285,0.848 -0.031,0.135 -0.053,0.269 -0.066,0.4 0.015,-0.132 0.038,-0.264 0.068,-0.402 0.061,-0.27 0.156,-0.552 0.286,-0.846 0.138,-0.316 0.317,-0.643 0.543,-0.983 0.197,-0.3 0.428,-0.609 0.693,-0.926 m -1.606,3.43 c -10e-4,0.034 -10e-4,0.068 0,0.101 0.005,0.247 0.039,0.479 0.108,0.702 0.067,0.221 0.163,0.429 0.288,0.623 0.117,0.181 0.261,0.351 0.425,0.507 0.168,0.158 0.357,0.305 0.568,0.437 0.211,0.136 0.445,0.257 0.706,0.367 0.252,0.11 0.529,0.205 0.826,0.292 0.103,0.028 0.27,0.066 0.379,0.091 -0.02,-0.119 -0.04,-0.238 -0.058,-0.357 0.017,0.12 0.037,0.24 0.058,0.357 -0.109,-0.025 -0.268,-0.063 -0.369,-0.091 -0.301,-0.087 -0.576,-0.182 -0.83,-0.292 -0.258,-0.11 -0.493,-0.231 -0.706,-0.367 -0.212,-0.132 -0.401,-0.279 -0.567,-0.437 -0.166,-0.156 -0.309,-0.326 -0.422,-0.507 -0.128,-0.194 -0.225,-0.402 -0.291,-0.623 -0.07,-0.223 -0.104,-0.455 -0.11,-0.702 -10e-4,-0.018 -10e-4,-0.035 -10e-4,-0.053 -0.001,0.034 -0.002,0.053 -0.002,0.053 0,0 0,0 -0.001,0 -10e-4,-0.034 -0.002,-0.067 -10e-4,-0.101"
style="fill:url(#radialGradient610-6);stroke:none"
id="path616" /></g></g></g><g
transform="matrix(3.6591166,0,0,3.6591166,-1622.3191,-2118.1646)"
id="g618"><g
id="g620"><g
id="g626"><path
inkscape:connector-curvature="0"
d="m 510.747,786.47 c -0.343,0.166 -0.718,0.35 -1.057,0.524 -1.293,0.665 -2.532,1.36 -3.697,2.075 -1.171,0.718 -2.275,1.456 -3.302,2.214 -1.025,0.755 -1.978,1.53 -2.842,2.315 -0.865,0.784 -1.645,1.582 -2.333,2.384 -0.62,0.724 -1.142,1.427 -1.574,2.111 -0.432,0.681 -0.771,1.341 -1.024,1.979 -0.256,0.635 -0.418,1.245 -0.509,1.828 -0.045,0.292 -0.069,0.575 -0.074,0.852 -0.005,-0.336 0.018,-0.684 0.074,-1.044 0.091,-0.583 0.253,-1.194 0.509,-1.828 0.253,-0.637 0.592,-1.296 1.024,-1.979 0.432,-0.683 0.954,-1.387 1.574,-2.11 0.688,-0.803 1.468,-1.598 2.333,-2.386 0.864,-0.785 1.817,-1.558 2.842,-2.315 1.027,-0.756 2.131,-1.493 3.302,-2.212 1.165,-0.715 2.404,-1.41 3.697,-2.076 0.135,-0.068 0.268,-0.138 0.401,-0.209 -0.135,0.069 -0.269,0.137 -0.404,0.206 -1.293,0.668 -2.529,1.361 -3.697,2.076 -1.172,0.718 -2.272,1.456 -3.299,2.214 -1.028,0.756 -1.979,1.53 -2.842,2.315 -0.865,0.785 -1.648,1.583 -2.335,2.383 -0.621,0.723 -1.141,1.43 -1.574,2.113 -0.432,0.681 -0.77,1.342 -1.024,1.978 -0.254,0.635 -0.421,1.246 -0.51,1.829 -0.086,0.582 -0.096,1.138 -0.03,1.666 0.055,0.47 0.169,0.915 0.339,1.337 0.165,0.42 0.387,0.817 0.657,1.191 0.266,0.371 0.586,0.718 0.944,1.039 0.354,0.323 0.758,0.621 1.198,0.893 0.397,0.243 0.822,0.468 1.271,0.673 0.456,0.203 0.936,0.389 1.445,0.556 0.506,0.166 1.037,0.312 1.594,0.44 0.553,0.13 1.129,0.237 1.728,0.328 0.543,0.081 1.105,0.145 1.683,0.196 0.579,0.051 1.175,0.088 1.788,0.107 0.421,0.014 0.847,0.021 1.282,0.021 0.198,0 0.397,-0.002 0.599,-0.004 0.641,-0.012 1.296,-0.036 1.967,-0.077 0.533,-0.03 1.07,-0.072 1.603,-0.121 0.534,-0.048 1.069,-0.107 1.602,-0.173 0.298,-0.038 0.967,-0.125 1.304,-0.176 -0.035,-0.156 -0.059,-0.275 -0.087,-0.425 -0.089,0.006 -0.998,0.075 -1.102,0.078 -0.528,0.026 -1.044,0.037 -1.544,0.037 -0.025,0 -0.049,0 -0.074,0 -0.524,-0.002 -1.034,-0.02 -1.523,-0.05 -0.491,-0.028 -0.968,-0.071 -1.423,-0.128 -0.456,-0.056 -0.892,-0.125 -1.311,-0.209 -0.456,-0.091 -0.89,-0.197 -1.3,-0.32 -0.411,-0.124 -0.8,-0.263 -1.162,-0.416 -0.361,-0.155 -0.701,-0.329 -1.006,-0.514 -0.313,-0.188 -0.59,-0.39 -0.844,-0.609 -0.283,-0.243 -0.526,-0.501 -0.728,-0.782 -0.206,-0.277 -0.373,-0.575 -0.495,-0.892 -0.126,-0.319 -0.208,-0.654 -0.244,-1.007 -0.017,-0.146 -0.025,-0.296 -0.025,-0.448 -0.013,-0.277 0.003,-0.564 0.042,-0.863 0.065,-0.429 0.185,-0.878 0.364,-1.347 0.183,-0.468 0.427,-0.955 0.735,-1.458 0.306,-0.503 0.68,-1.025 1.118,-1.559 0.443,-0.534 0.953,-1.084 1.534,-1.644 0.629,-0.613 1.322,-1.217 2.067,-1.81 0.75,-0.593 1.554,-1.177 2.402,-1.746 0.395,-0.266 0.806,-0.527 1.223,-0.785 -0.402,-2.617 -0.937,-4.938 -1.25,-6.236 m 1.516,8.12 c -0.677,0.452 -1.342,0.924 -1.949,1.393 -0.718,0.56 -1.39,1.124 -2.009,1.698 -0.571,0.525 -1.073,1.044 -1.517,1.549 -0.442,0.506 -0.819,0.995 -1.141,1.47 -0.317,0.475 -0.575,0.936 -0.778,1.38 -0.2,0.441 -0.35,0.868 -0.434,1.276 -0.108,0.501 -0.109,0.874 -0.109,0.874 -0.002,-0.046 -0.004,-0.091 -0.004,-0.136 0,0.048 0,0.095 10e-4,0.142 0.005,0.336 0.054,0.658 0.147,0.962 0.088,0.303 0.218,0.59 0.383,0.859 0.166,0.267 0.369,0.519 0.611,0.75 0.215,0.214 0.46,0.409 0.736,0.59 0.271,0.183 0.574,0.348 0.897,0.5 0.324,0.15 0.675,0.286 1.048,0.407 0.376,0.12 0.77,0.226 1.189,0.314 0.385,0.081 0.791,0.152 1.215,0.206 0.424,0.058 0.867,0.099 1.326,0.129 0.459,0.029 0.935,0.046 1.427,0.048 0.073,10e-4 0.145,10e-4 0.218,10e-4 0.426,0 0.863,-0.01 1.312,-0.031 l 0.425,-0.022 c -0.057,-0.255 -0.083,-0.402 -0.146,-0.843 -0.271,-0.031 -0.655,-0.1 -0.903,-0.145 -0.347,-0.054 -0.672,-0.124 -0.978,-0.205 -0.333,-0.086 -0.64,-0.184 -0.924,-0.299 -0.288,-0.114 -0.553,-0.241 -0.794,-0.379 -0.238,-0.14 -0.459,-0.293 -0.653,-0.457 -0.192,-0.166 -0.36,-0.343 -0.504,-0.532 -0.156,-0.206 -0.278,-0.426 -0.37,-0.661 -0.092,-0.235 -0.151,-0.484 -0.177,-0.745 -0.009,-0.124 -0.018,-0.255 -0.015,-0.383 l 10e-4,0.013 c -0.008,-0.209 0.006,-0.425 0.041,-0.651 0.045,-0.289 0.129,-0.59 0.247,-0.902 0.13,-0.341 0.304,-0.692 0.521,-1.057 0.218,-0.365 0.483,-0.744 0.795,-1.131 0.312,-0.388 0.671,-0.788 1.079,-1.196 0.14,-0.141 0.297,-0.293 0.467,-0.447 -0.279,-1.23 -0.462,-2.69 -0.681,-4.339 m 1.069,6.362 c -0.286,0.341 -0.494,0.615 -0.705,0.937 -0.226,0.34 -0.405,0.666 -0.543,0.983 -0.13,0.293 -0.214,0.578 -0.286,0.845 -0.061,0.232 -0.075,0.438 -0.08,0.532 0,0.018 0,0.035 10e-4,0.053 0.006,0.247 0.04,0.479 0.11,0.702 0.066,0.221 0.163,0.429 0.291,0.623 0.113,0.181 0.256,0.351 0.422,0.507 0.166,0.158 0.355,0.305 0.567,0.437 0.213,0.136 0.448,0.257 0.706,0.367 0.254,0.11 0.529,0.205 0.83,0.292 0.101,0.028 0.26,0.066 0.369,0.091 -0.021,-0.117 -0.041,-0.237 -0.058,-0.357 -0.203,-1.438 -0.085,-3.028 -0.085,-3.028 0,0 -0.125,-1.041 -0.653,-1.797 -0.013,-0.018 -0.025,-0.035 -0.037,-0.053 0.011,0.016 0.022,0.033 0.033,0.049 l -0.882,-1.183 m -8.254,0.512 c -0.077,0.145 -0.147,0.288 -0.212,0.429 -0.2,0.443 -0.342,0.868 -0.435,1.277 -0.027,0.119 -0.048,0.237 -0.064,0.353 0.018,-0.116 0.041,-0.234 0.068,-0.358 0.089,-0.408 0.234,-0.835 0.434,-1.277 0.064,-0.14 0.134,-0.281 0.209,-0.424 m 28.431,2.592 c -0.002,10e-4 -0.005,0.002 -0.007,0.003 -0.282,0.12 -0.563,0.238 -0.849,0.351 -0.356,0.142 -0.718,0.282 -1.081,0.415 -0.356,0.133 -0.719,0.26 -1.078,0.385 -0.364,0.124 -0.719,0.243 -1.081,0.354 -0.362,0.114 -0.723,0.224 -1.088,0.326 -0.362,0.104 -0.724,0.202 -1.082,0.294 -0.363,0.094 -0.722,0.18 -1.076,0.262 -0.359,0.081 -0.712,0.156 -1.061,0.222 l -0.019,0.004 -0.021,0.005 -0.018,0.003 -0.024,0.004 c -0.35,0.067 -0.703,0.127 -1.049,0.182 -0.345,0.052 -0.691,0.099 -1.032,0.138 -0.341,0.04 -0.678,0.071 -1.003,0.095 -0.116,0.008 -0.225,0.014 -0.339,0.019 l -0.069,-0.123 c 0.093,0.168 0.167,0.306 0.252,0.458 0.004,0 0.884,-0.123 2.949,-0.553 1.038,-0.216 3.26,-0.835 3.663,-0.958 0.402,-0.12 0.805,-0.248 1.206,-0.381 0.404,-0.133 0.804,-0.27 1.205,-0.415 0.404,-0.142 0.801,-0.293 1.202,-0.446 0.399,-0.154 0.795,-0.314 1.194,-0.477 0.123,-0.053 0.245,-0.103 0.374,-0.157 l -0.068,-0.01 m 0.076,0.022 c 0,0 -5.2,2.443 -11.585,3.728 l -0.104,-0.178 c -0.002,10e-4 -0.004,10e-4 -0.006,10e-4 0.136,0.25 0.272,0.426 0.367,0.556 l 0.314,-0.085 c 0.53,-0.142 1.063,-0.292 1.592,-0.446 0.519,-0.151 1.039,-0.312 1.558,-0.475 0.521,-0.168 1.037,-0.336 1.55,-0.513 0.516,-0.176 1.03,-0.36 1.536,-0.547 0.512,-0.188 1.016,-0.381 1.518,-0.58 0.507,-0.2 1.013,-0.408 1.519,-0.622 0.504,-0.214 1.006,-0.433 1.507,-0.66 l 0.165,-0.077 c 0.098,-0.051 0.072,-0.076 0.069,-0.102 m 0,0 c -0.207,0.089 -0.412,0.173 -0.614,0.257 -0.01,0.004 -0.021,0.009 -0.032,0.013 0.216,-0.088 0.432,-0.177 0.646,-0.27 m -3.135,1.106 c -0.359,0.122 -0.721,0.235 -1.081,0.344 -0.364,0.109 -0.727,0.214 -1.089,0.314 0.362,-0.1 0.725,-0.205 1.093,-0.314 0.356,-0.109 0.718,-0.222 1.077,-0.344 m -26.962,1.159 c 0.092,0.107 0.191,0.211 0.296,0.312 -0.105,-0.101 -0.204,-0.205 -0.296,-0.312 m 0.68,0.649 c 0.208,0.168 0.433,0.326 0.68,0.473 0.305,0.187 0.645,0.358 1.006,0.514 0.362,0.154 0.751,0.292 1.162,0.415 0.41,0.124 0.844,0.229 1.3,0.322 0.419,0.082 0.855,0.152 1.311,0.207 0.455,0.058 0.932,0.101 1.423,0.129 0.489,0.03 0.999,0.047 1.523,0.049 0.024,0 0.048,0 0.072,0 0.501,0 1.017,-0.009 1.546,-0.036 0.106,-0.003 0.212,-0.008 0.318,-0.015 0.109,-0.006 0.212,-0.013 0.32,-0.019 l 0.43,-0.037 -0.431,0.035 c -0.107,0.007 -0.21,0.013 -0.321,0.018 -0.105,0.006 -0.21,0.012 -0.318,0.017 -0.505,0.023 -0.995,0.035 -1.475,0.035 -0.048,0 -0.096,0 -0.143,0 -0.526,-0.004 -1.032,-0.019 -1.524,-0.049 -0.493,-0.028 -0.965,-0.071 -1.421,-0.129 -0.455,-0.056 -0.896,-0.125 -1.314,-0.209 -0.453,-0.091 -0.888,-0.196 -1.298,-0.321 -0.411,-0.122 -0.8,-0.261 -1.163,-0.414 -0.36,-0.155 -0.698,-0.328 -1.005,-0.515 -0.245,-0.147 -0.47,-0.304 -0.678,-0.47 m 10.755,0.884 c 0.055,0.007 0.109,0.013 0.159,0.019 0,-10e-4 0,-10e-4 0,-0.002 -0.051,-0.005 -0.104,-0.011 -0.159,-0.017"
style="fill:url(#radialGradient628-8);stroke:none"
id="path634" /></g></g></g><g
transform="matrix(3.6591166,0,0,3.6591166,-1622.3191,-2118.1646)"
id="g636"><g
id="g638"
clip-path="url(#clipPath640-1)"><path
inkscape:connector-curvature="0"
d="m 510.091,786.278 0.66058,0 0,0.31537 -0.66058,0 0,-0.31537 z"
style="fill:#6e0510;fill-opacity:1;fill-rule:nonzero;stroke:none"
id="path644" /></g></g><g
id="g646"
transform="matrix(3.6591166,0,0,3.6591166,246.40267,758.91805)"><path
inkscape:connector-curvature="0"
d="M 0,0 C -0.002,0.001 -0.004,0.002 -0.007,0.003 -0.004,0.002 -0.003,0.002 0,0 0,0 0,0 0,0"
style="fill:#5b0000;fill-opacity:1;fill-rule:nonzero;stroke:none"
id="path648" /></g><g
transform="matrix(3.6591166,0,0,3.6591166,-1622.3191,-2118.1646)"
id="g650"><g
id="g652"><g
id="g658"><path
inkscape:connector-curvature="0"
d="m 510.703,786.288 c -0.205,0.101 -0.409,0.203 -0.612,0.305 -0.133,0.071 -0.266,0.141 -0.401,0.209 -1.293,0.666 -2.532,1.361 -3.697,2.076 -1.171,0.719 -2.275,1.456 -3.302,2.212 -1.025,0.757 -1.978,1.53 -2.842,2.315 -0.865,0.788 -1.645,1.583 -2.333,2.386 -0.62,0.723 -1.142,1.427 -1.574,2.11 -0.432,0.683 -0.771,1.342 -1.024,1.979 -0.256,0.634 -0.418,1.245 -0.509,1.828 -0.056,0.36 -0.079,0.708 -0.074,1.044 0.005,-0.277 0.029,-0.56 0.074,-0.852 0.091,-0.583 0.253,-1.193 0.509,-1.828 0.253,-0.638 0.592,-1.298 1.024,-1.979 0.432,-0.684 0.954,-1.387 1.574,-2.111 0.688,-0.802 1.468,-1.6 2.333,-2.384 0.864,-0.785 1.817,-1.56 2.842,-2.315 1.027,-0.758 2.131,-1.496 3.302,-2.214 1.165,-0.715 2.404,-1.41 3.697,-2.075 0.339,-0.174 0.714,-0.358 1.057,-0.524 -0.015,-0.063 -0.03,-0.123 -0.044,-0.182"
style="fill:url(#radialGradient660-3);stroke:none"
id="path666" /></g></g></g><g
id="g668"
transform="matrix(3.6591166,0,0,3.6591166,256.17984,811.71179)"><path
inkscape:connector-curvature="0"
d="M 0,0 C -0.018,0.022 -0.037,0.043 -0.055,0.065 -0.037,0.044 -0.018,0.022 0,0.001 0.051,0.143 0.105,0.273 0.165,0.396 0.342,0.747 0.562,1.032 0.806,1.38 0.485,0.907 0.198,0.551 0,0 m -1.645,3.221 c -0.01,0.092 -0.016,0.183 -0.016,0.274 0.001,-0.09 0.007,-0.181 0.016,-0.274"
style="fill:#6e0510;fill-opacity:1;fill-rule:nonzero;stroke:none"
id="path670" /></g><g
transform="matrix(3.6591166,0,0,3.6591166,-1622.3191,-2118.1646)"
id="g672"><g
id="g674"><g
id="g680"><path
inkscape:connector-curvature="0"
d="m 513.375,800.707 c -0.019,0.022 -0.037,0.043 -0.055,0.064 -0.265,0.317 -0.496,0.626 -0.693,0.926 -0.226,0.34 -0.405,0.667 -0.543,0.983 -0.13,0.294 -0.225,0.576 -0.286,0.846 -0.03,0.138 -0.053,0.27 -0.068,0.402 -0.01,0.092 -0.015,0.184 -0.016,0.273 -10e-4,0.034 0,0.067 10e-4,0.101 0.001,0 0.001,0 0.001,0 0,0 10e-4,-0.019 0.002,-0.053 10e-4,-0.231 0.028,-0.473 0.087,-0.721 0.057,-0.27 0.151,-0.553 0.284,-0.848 0.138,-0.315 0.318,-0.642 0.542,-0.981 0.209,-0.322 0.454,-0.641 0.744,-0.981 0.049,0.139 0.104,0.265 0.164,0.384 -0.059,-0.123 -0.114,-0.253 -0.164,-0.395"
style="fill:url(#radialGradient682-1);stroke:none"
id="path688" /></g></g></g><g
transform="matrix(3.6591166,0,0,3.6591166,-1622.3191,-2118.1646)"
id="g690"><g
id="g692"><g
id="g698"><path
inkscape:connector-curvature="0"
d="m 513.375,800.718 c -0.29,0.34 -0.535,0.659 -0.744,0.981 -0.224,0.339 -0.404,0.666 -0.542,0.981 -0.133,0.295 -0.227,0.578 -0.284,0.848 -0.059,0.248 -0.086,0.49 -0.087,0.721 0.005,-0.094 0.019,-0.3 0.08,-0.532 0.072,-0.267 0.156,-0.552 0.286,-0.845 0.138,-0.317 0.317,-0.643 0.543,-0.983 0.211,-0.322 0.419,-0.596 0.705,-0.937 l 0.882,1.183 c -0.011,-0.016 -0.022,-0.033 -0.033,-0.049 -0.245,-0.348 -0.464,-0.632 -0.642,-0.984 -0.06,-0.119 -0.115,-0.245 -0.164,-0.384"
style="fill:url(#radialGradient700-2);stroke:none"
id="path706" /></g></g></g><g
id="g708"
transform="matrix(3.6591166,0,0,3.6591166,252.04137,788.65934)"><path
inkscape:connector-curvature="0"
d="m 0,0 c -0.674,0.454 -1.322,0.916 -1.93,1.385 -0.718,0.559 -1.389,1.124 -2.009,1.697 -0.571,0.528 -1.073,1.045 -1.517,1.55 -0.442,0.504 -0.818,0.995 -1.141,1.47 -0.217,0.326 -0.406,0.645 -0.569,0.955 0.163,-0.309 0.352,-0.625 0.567,-0.95 0.32,-0.474 0.699,-0.965 1.14,-1.47 0.445,-0.504 0.949,-1.022 1.52,-1.55 0.62,-0.573 1.287,-1.14 2.009,-1.695 0.608,-0.471 1.25,-0.933 1.925,-1.388 0.008,0.06 0.016,0.12 0.024,0.179 C 0.02,0.182 0.021,0.182 0.022,0.181 L 0,0 m -7.877,9.117 c -0.03,0.189 -0.046,0.374 -0.045,0.571 0.002,-0.186 0.017,-0.376 0.045,-0.571"
style="fill:#6e0510;fill-opacity:1;fill-rule:nonzero;stroke:none"
id="path710" /></g><g
transform="matrix(3.6591166,0,0,3.6591166,-1622.3191,-2118.1646)"
id="g712"><g
id="g714"><g
id="g720"><path
inkscape:connector-curvature="0"
d="m 512.239,794.411 c -0.675,0.454 -1.317,0.917 -1.925,1.388 -0.723,0.555 -1.39,1.121 -2.009,1.695 -0.571,0.528 -1.075,1.045 -1.52,1.55 -0.441,0.504 -0.821,0.995 -1.14,1.47 -0.215,0.324 -0.404,0.641 -0.567,0.95 -0.075,0.143 -0.145,0.284 -0.209,0.424 -0.2,0.442 -0.345,0.869 -0.434,1.277 -0.027,0.124 -0.05,0.242 -0.068,0.358 -0.028,0.195 -0.043,0.386 -0.045,0.571 0,0.045 0.002,0.09 0.004,0.136 0,0 10e-4,-0.373 0.109,-0.874 0.084,-0.408 0.234,-0.835 0.434,-1.276 0.203,-0.444 0.461,-0.905 0.778,-1.38 0.322,-0.475 0.699,-0.964 1.141,-1.47 0.444,-0.505 0.946,-1.024 1.517,-1.549 0.619,-0.574 1.291,-1.138 2.009,-1.698 0.607,-0.469 1.272,-0.941 1.949,-1.393 -0.008,-0.06 -0.016,-0.119 -0.024,-0.179"
style="fill:url(#radialGradient722-1);stroke:none"
id="path728" /></g></g></g><g
id="g730"
transform="matrix(3.6591166,0,0,3.6591166,243.07655,824.91022)"><path
inkscape:connector-curvature="0"
d="M 0,0 C 0.002,0.059 0.006,0.118 0.012,0.176 0.038,0.436 0.099,0.687 0.189,0.921 0.281,1.156 0.4,1.389 0.552,1.597 0.696,1.785 0.876,1.963 1.07,2.129 1.265,2.294 1.485,2.453 1.726,2.594 1.966,2.732 2.234,2.857 2.521,2.97 2.806,3.085 3.105,3.18 3.436,3.266 3.744,3.347 4.081,3.417 4.424,3.476 4.627,3.51 4.892,3.538 5.13,3.564 4.889,3.534 4.616,3.494 4.414,3.459 4.068,3.401 3.742,3.332 3.436,3.253 3.104,3.166 2.797,3.067 2.513,2.954 2.224,2.839 1.959,2.711 1.718,2.573 1.48,2.436 1.26,2.281 1.065,2.117 0.873,1.951 0.705,1.775 0.561,1.585 0.405,1.38 0.283,1.159 0.191,0.923 0.1,0.687 0.041,0.445 0.017,0.184 L 0,0 m 5.288,3.582 c 0.011,0.077 0.021,0.147 0.03,0.211 0,0 0.001,0 0.001,0 L 5.291,3.583 C 5.29,3.583 5.289,3.582 5.288,3.582"
style="fill:#6e0510;fill-opacity:1;fill-rule:nonzero;stroke:none"
id="path732" /></g><g
transform="matrix(3.6591166,0,0,3.6591166,-1622.3191,-2118.1646)"
id="g734"><g
id="g736"><g
id="g742"><path
inkscape:connector-curvature="0"
d="m 509.793,804.3 c -0.003,0.128 0.006,0.259 0.015,0.383 0.026,0.261 0.085,0.51 0.177,0.745 0.092,0.235 0.214,0.455 0.37,0.661 0.144,0.189 0.312,0.366 0.504,0.532 0.194,0.164 0.415,0.317 0.653,0.457 0.241,0.138 0.506,0.265 0.794,0.379 0.284,0.115 0.591,0.213 0.924,0.299 0.306,0.081 0.631,0.151 0.978,0.205 0.248,0.045 0.632,0.114 0.903,0.145 -0.009,-0.064 -0.018,-0.134 -0.029,-0.211 -0.05,-0.006 -0.104,-0.012 -0.159,-0.019 -0.238,-0.025 -0.502,-0.053 -0.705,-0.088 -0.343,-0.058 -0.68,-0.129 -0.988,-0.209 -0.331,-0.086 -0.631,-0.182 -0.915,-0.297 -0.287,-0.113 -0.556,-0.237 -0.795,-0.376 -0.241,-0.141 -0.462,-0.3 -0.656,-0.464 -0.194,-0.166 -0.374,-0.345 -0.519,-0.532 -0.151,-0.208 -0.27,-0.441 -0.362,-0.676 -0.091,-0.235 -0.151,-0.485 -0.178,-0.745 -0.005,-0.058 -0.009,-0.117 -0.011,-0.176 l -10e-4,-0.013"
style="fill:url(#radialGradient744-5);stroke:none"
id="path750" /></g></g></g><g
id="g752"
transform="matrix(3.6591166,0,0,3.6591166,216.43451,823.00381)"><path
inkscape:connector-curvature="0"
d="M 0,0 C -0.001,0.042 -0.002,0.085 -0.002,0.127 0.002,0.212 0.009,0.297 0.019,0.381 0.058,0.733 0.138,1.068 0.263,1.386 0.387,1.703 0.553,2.002 0.76,2.281 0.827,2.373 0.898,2.463 0.974,2.551 0.899,2.464 0.829,2.375 0.762,2.283 0.557,2.005 0.39,1.705 0.268,1.389 0.142,1.069 0.06,0.737 0.023,0.382 0.009,0.257 0.002,0.129 0,0 M 1.27,2.863 C 1.34,2.931 1.412,2.997 1.487,3.061 1.542,3.108 1.597,3.154 1.654,3.2 1.599,3.155 1.544,3.109 1.49,3.063 1.414,2.998 1.341,2.931 1.27,2.863 m 11.476,2.34 c 0.012,0.067 0.023,0.127 0.033,0.183 10e-4,0 0.002,0 0.003,0 0,-0.014 -0.011,-0.051 -0.036,-0.183"
style="fill:#6e0510;fill-opacity:1;fill-rule:nonzero;stroke:none"
id="path754" /></g><g
transform="matrix(3.6591166,0,0,3.6591166,-1622.3191,-2118.1646)"
id="g756"><g
id="g758"><g
id="g764"><path
inkscape:connector-curvature="0"
d="m 502.512,803.918 c 0,0.152 0.008,0.302 0.025,0.448 0.036,0.353 0.118,0.688 0.244,1.007 0.122,0.317 0.289,0.615 0.495,0.892 0.202,0.281 0.445,0.539 0.728,0.782 0.254,0.219 0.531,0.421 0.844,0.609 0.305,0.185 0.645,0.359 1.006,0.514 0.362,0.153 0.751,0.292 1.162,0.416 0.41,0.123 0.844,0.229 1.3,0.32 0.419,0.084 0.855,0.153 1.311,0.209 0.455,0.057 0.932,0.1 1.423,0.128 0.489,0.03 0.999,0.048 1.523,0.05 0.025,0 0.049,0 0.074,0 0.5,0 1.016,-0.011 1.544,-0.037 0.104,-0.003 1.013,-0.072 1.102,-0.078 -0.011,-0.056 -0.021,-0.116 -0.034,-0.184 l -0.43,0.037 c -0.108,0.006 -0.211,0.013 -0.32,0.019 -0.106,0.007 -0.212,0.012 -0.318,0.015 -0.529,0.027 -1.045,0.036 -1.546,0.036 -0.024,0 -0.048,0 -0.072,0 -0.524,-0.002 -1.034,-0.019 -1.523,-0.049 -0.491,-0.028 -0.968,-0.071 -1.423,-0.129 -0.456,-0.055 -0.892,-0.125 -1.311,-0.207 -0.456,-0.093 -0.89,-0.198 -1.3,-0.322 -0.411,-0.123 -0.8,-0.261 -1.162,-0.415 -0.361,-0.156 -0.701,-0.327 -1.006,-0.514 -0.247,-0.147 -0.472,-0.305 -0.68,-0.473 -0.057,-0.046 -0.113,-0.092 -0.167,-0.139 -0.075,-0.065 -0.148,-0.131 -0.217,-0.198 -0.105,-0.101 -0.204,-0.205 -0.296,-0.312 -0.076,-0.088 -0.148,-0.178 -0.215,-0.27 -0.207,-0.279 -0.372,-0.579 -0.497,-0.896 -0.125,-0.317 -0.205,-0.652 -0.244,-1.004 -0.01,-0.084 -0.016,-0.169 -0.02,-0.255"
style="fill:url(#radialGradient766-2);stroke:none"
id="path772" /></g></g></g><g
id="g774"
transform="matrix(3.6591166,0,0,3.6591166,327.7668,825.03828)"><path
inkscape:connector-curvature="0"
d="m 0,0 c -0.212,0.086 -0.423,0.171 -0.629,0.254 -5.473,2.187 -10.415,3.025 -10.415,3.025 l 0,10e-4 c 0.359,-0.057 0.865,-0.165 0.892,-0.169 0.026,-0.005 0.878,-0.188 1.31,-0.288 0.426,-0.1 0.848,-0.209 1.275,-0.315 C -7.141,2.403 -6.722,2.285 -6.292,2.167 -5.866,2.048 -5.447,1.92 -5.018,1.791 -4.597,1.663 -4.167,1.533 -3.746,1.393 -3.321,1.254 -2.902,1.109 -2.481,0.956 -2.056,0.806 -1.633,0.649 -1.216,0.488 -0.809,0.33 -0.404,0.17 0,0"
style="fill:#6e0510;fill-opacity:1;fill-rule:nonzero;stroke:none"
id="path776" /></g><g
transform="matrix(3.6591166,0,0,3.6591166,-1622.3191,-2118.1646)"
id="g778"><g
id="g780"><g
id="g786"><path
inkscape:connector-curvature="0"
d="m 533.585,804.078 c -0.214,0.093 -0.43,0.182 -0.646,0.27 -0.403,0.17 -0.808,0.331 -1.216,0.489 -0.417,0.16 -0.839,0.317 -1.264,0.468 -0.421,0.152 -0.84,0.297 -1.266,0.436 -0.421,0.14 -0.851,0.271 -1.271,0.399 -0.429,0.128 -0.848,0.256 -1.275,0.376 -0.43,0.118 -0.848,0.235 -1.274,0.34 -0.428,0.106 -0.85,0.215 -1.276,0.315 -0.431,0.1 -1.284,0.283 -1.31,0.288 -0.026,0.004 -0.532,0.112 -0.891,0.169 l 0.104,0.178 c 6.385,-1.285 11.585,-3.728 11.585,-3.728"
style="fill:url(#radialGradient788-4);stroke:none"
id="path794" /></g></g></g><g
id="g796"
transform="matrix(3.6591166,0,0,3.6591166,330.72702,759.9243)"><path
inkscape:connector-curvature="0"
d="m 0,0 -1.901,0.005 c 0.074,0.211 0.12,0.312 0.25,0.47 0.211,0.259 0.57,0.439 0.972,0.441 0.398,0.004 0.646,-0.172 0.7,-0.428 C 0.058,0.333 0.056,0.212 0,0 z M -0.507,1.495 C -1.59,1.485 -2.489,0.836 -2.828,-0.28 c -0.396,-1.311 0.309,-1.761 1.366,-1.752 0.739,0.005 1.204,0.191 1.745,0.549 l -0.415,0.409 c -0.378,-0.246 -0.659,-0.357 -1.131,-0.362 -0.692,-0.003 -0.962,0.367 -0.785,0.958 l 2.733,-0.004 0.096,0.331 C 1.078,0.828 0.624,1.504 -0.507,1.495 z m -3.505,-2.516 1.167,3.869 c 0,0 -0.844,0.07 -1.087,-0.797 -0.271,-0.966 -0.941,-3.12 -0.941,-3.12 -0.154,-0.509 0.061,-0.948 0.871,-0.942 l 0.522,0.004 0.177,0.591 -0.372,-0.002 c -0.341,-0.002 -0.42,0.132 -0.337,0.397 z m 15.169,1.07 -0.65,0.043 c -0.438,0.031 -0.524,0.185 -0.464,0.389 0.077,0.258 0.392,0.444 0.897,0.45 0.404,0.002 0.757,-0.063 0.966,-0.245 l 0.667,0.446 C 12.266,1.407 11.759,1.512 11.126,1.507 10.245,1.5 9.422,1.113 9.218,0.441 9.035,-0.163 9.404,-0.453 10.18,-0.501 l 0.659,-0.041 c 0.4,-0.025 0.513,-0.174 0.443,-0.404 C 11.184,-1.273 10.731,-1.425 10.216,-1.43 9.799,-1.433 9.365,-1.362 9.109,-1.078 L 8.412,-1.539 c 0.381,-0.395 0.935,-0.487 1.626,-0.482 1.007,0.007 1.866,0.388 2.084,1.108 0.185,0.612 -0.189,0.914 -0.965,0.962 z M 6.518,0.552 C 6.759,0.75 7.069,0.861 7.391,0.861 7.725,0.866 7.906,0.778 8.102,0.542 L 8.821,1.009 C 8.528,1.353 8.161,1.485 7.578,1.48 6.63,1.474 5.557,0.998 5.168,-0.293 c -0.392,-1.292 0.398,-1.76 1.347,-1.753 0.583,0.004 1.034,0.15 1.536,0.5 L 7.608,-1.095 C 7.271,-1.336 7.035,-1.425 6.7,-1.428 6.377,-1.43 6.136,-1.324 6.01,-1.127 c -0.124,0.188 -0.114,0.438 0.008,0.838 0.12,0.402 0.256,0.646 0.5,0.841 z M -6.279,1.447 C -6.697,1.445 -7.118,1.313 -7.488,1.053 l 0.551,1.795 c 0,0 -0.845,0.07 -1.089,-0.797 l -1.223,-4.072 0.831,0 0.634,2.087 c 0.157,0.517 0.611,0.759 1.085,0.762 0.474,0.003 0.779,-0.224 0.621,-0.747 l -0.634,-2.102 0.85,0 0.665,2.217 c 0.225,0.747 -0.142,1.26 -1.082,1.251 z m 9.02,-0.56 c 0,0 0.002,0.006 0.442,0.006 0.439,0 0.536,0.531 0.536,0.531 L 2.902,1.417 3.331,2.848 c 0,0 -0.848,0.07 -1.09,-0.797 L 2.055,1.411 1.57,1.409 1.411,0.878 1.894,0.882 1.304,-1.069 C 1.155,-1.564 1.38,-2.025 2.175,-2.017 l 0.509,0.002 0.175,0.592 -0.348,-0.002 C 2.193,-1.428 2.089,-1.279 2.165,-1.027 l 0.576,1.914 z m 2.646,1.219 c 0,0 0.03,0.071 0.237,0.742 l -0.843,0 -0.34,-1.1 c 0,0 0.161,0.365 0.946,0.358 z M -9.85,0.893 c 0,0 0,0 0.438,0 0.438,0 0.537,0.531 0.537,0.531 l -0.814,-0.003 0.428,1.427 c 0,0 -0.845,0.07 -1.09,-0.797 l -0.187,-0.644 -0.484,0.002 -0.159,-0.531 0.484,0.004 -0.592,-1.951 c -0.149,-0.495 0.081,-0.956 0.87,-0.948 l 0.508,0.002 0.177,0.592 -0.348,-0.002 c -0.319,-0.003 -0.422,0.146 -0.349,0.398 l 0.581,1.92 z M 4.105,0.685 C 4.086,0.614 3.461,-1.454 3.283,-2.021 l 0.846,0 1.066,3.501 c 0,0 -0.845,0.073 -1.09,-0.795 z m -18.99,-1.145 1.595,2.186 0.256,-2.188 -1.851,0.002 z m 1.015,2.597 c -0.614,-0.823 -2.945,-3.949 -3.099,-4.158 l 0.96,0 0.677,0.937 2.353,0.001 0.128,-0.938 0.952,0 -0.713,4.858 c 0,0 -0.622,0.15 -1.258,-0.7"
style="fill:#000009;fill-opacity:1;fill-rule:nonzero;stroke:none"
id="path798" /></g><g
id="g800"
transform="matrix(3.6591166,0,0,3.6591166,208.1393,870.02346)"><path
inkscape:connector-curvature="0"
d="M 0,0 C -0.237,-0.01 -0.374,0.164 -0.386,0.408 -0.395,0.65 -0.273,0.839 -0.037,0.849 0.077,0.853 0.147,0.82 0.236,0.75 L 0.163,0.67 -0.032,0.745 C -0.22,0.736 -0.275,0.588 -0.268,0.413 -0.261,0.237 -0.191,0.097 -0.007,0.104 L 0.187,0.191 0.263,0.119 C 0.187,0.043 0.111,0.004 0,0 z m -0.059,1.065 c -0.34,-0.016 -0.605,-0.317 -0.588,-0.669 0.016,-0.353 0.302,-0.63 0.645,-0.615 0.344,0.014 0.608,0.317 0.594,0.668 -0.018,0.352 -0.305,0.63 -0.651,0.616 z M 0.005,-0.332 C -0.405,-0.35 -0.753,-0.026 -0.768,0.391 -0.786,0.808 -0.472,1.16 -0.062,1.176 0.347,1.194 0.69,0.87 0.709,0.454 0.729,0.037 0.412,-0.315 0.005,-0.332"
style="fill:#414142;fill-opacity:1;fill-rule:nonzero;stroke:none"
id="path802" /></g><g
id="g804"
transform="matrix(3.6591166,0,0,3.6591166,211.90819,868.97696)"><path
inkscape:connector-curvature="0"
d="M 0,0 -0.002,0.133 0.566,0.884 0.644,1.103 C 0.644,1.263 0.548,1.368 0.39,1.368 0.258,1.366 0.136,1.288 0.14,1.097 L -0.009,1.094 C -0.009,1.329 0.145,1.499 0.39,1.5 0.628,1.504 0.79,1.349 0.795,1.105 0.795,0.986 0.757,0.909 0.68,0.803 L 0.176,0.135 0.802,0.141 0.802,0.008 0,0"
style="fill:#414142;fill-opacity:1;fill-rule:nonzero;stroke:none"
id="path806" /></g><g
id="g808"
transform="matrix(3.6591166,0,0,3.6591166,218.1982,872.91783)"><path
inkscape:connector-curvature="0"
d="M 0,0 C 0.005,0.164 -0.086,0.285 -0.244,0.288 -0.405,0.289 -0.499,0.17 -0.499,0.007 l -0.013,-0.676 c -0.001,-0.163 0.088,-0.284 0.248,-0.288 0.163,-0.002 0.253,0.119 0.255,0.281 L 0,0 z m -0.264,-1.09 c -0.228,0.005 -0.396,0.17 -0.393,0.416 l 0.01,0.692 C -0.643,0.265 -0.47,0.424 -0.24,0.421 -0.017,0.418 0.153,0.252 0.149,0.006 L 0.139,-0.686 C 0.137,-0.933 -0.038,-1.093 -0.264,-1.09"
style="fill:#414142;fill-opacity:1;fill-rule:nonzero;stroke:none"
id="path810" /></g><g
id="g812"
transform="matrix(3.6591166,0,0,3.6591166,222.17933,872.79342)"><path
inkscape:connector-curvature="0"
d="M 0,0 C 0.005,0.162 -0.082,0.288 -0.242,0.292 -0.406,0.3 -0.5,0.182 -0.504,0.02 l -0.023,-0.677 c -0.011,-0.162 0.078,-0.285 0.238,-0.294 0.159,-0.004 0.255,0.114 0.262,0.276 L 0,0 z m -0.294,-1.083 c -0.227,0.01 -0.392,0.179 -0.384,0.425 l 0.026,0.691 c 0.009,0.246 0.189,0.401 0.413,0.392 C -0.012,0.418 0.154,0.249 0.144,0.002 L 0.12,-0.688 C 0.11,-0.935 -0.064,-1.09 -0.294,-1.083"
style="fill:#414142;fill-opacity:1;fill-rule:nonzero;stroke:none"
id="path814" /></g><g
id="g816"
transform="matrix(3.6591166,0,0,3.6591166,225.25298,873.67525)"><path
inkscape:connector-curvature="0"
d="M 0,0 C -0.156,0.009 -0.264,-0.105 -0.273,-0.285 -0.28,-0.45 -0.202,-0.59 -0.036,-0.6 0.12,-0.609 0.229,-0.499 0.24,-0.316 0.248,-0.135 0.156,-0.011 0,0 z m 0.274,-0.646 -0.401,-0.715 -0.15,0.01 0.364,0.647 -0.156,-0.021 c -0.226,0.013 -0.365,0.199 -0.348,0.442 0.012,0.251 0.178,0.43 0.425,0.416 C 0.253,0.118 0.402,-0.061 0.387,-0.318 0.379,-0.425 0.341,-0.525 0.274,-0.646"
style="fill:#414142;fill-opacity:1;fill-rule:nonzero;stroke:none"
id="path818" /></g><g
id="g820"
transform="matrix(3.6591166,0,0,3.6591166,229.51586,868.36954)"><path
inkscape:connector-curvature="0"
d="M 0,0 0.124,1.479 0.28,1.466 0.153,-0.015 0,0"
style="fill:#414142;fill-opacity:1;fill-rule:nonzero;stroke:none"
id="path822" /></g><g
id="g824"
transform="matrix(3.6591166,0,0,3.6591166,233.57748,872.61412)"><path
inkscape:connector-curvature="0"
d="M 0,0 -0.351,-0.752 0.189,-0.809 0,0 z m 0.302,-1.295 -0.083,0.345 -0.632,0.065 -0.149,-0.323 -0.165,0.017 0.682,1.424 0.132,-0.013 0.379,-1.532 -0.164,0.017"
style="fill:#414142;fill-opacity:1;fill-rule:nonzero;stroke:none"
id="path826" /></g><g
id="g828"
transform="matrix(3.6591166,0,0,3.6591166,238.19162,872.09452)"><path
inkscape:connector-curvature="0"
d="M 0,0 -0.368,-0.746 0.173,-0.812 0,0 z m 0.276,-1.303 -0.077,0.349 -0.632,0.076 -0.158,-0.318 -0.163,0.021 0.716,1.408 0.129,-0.016 0.348,-1.539 -0.163,0.019"
style="fill:#414142;fill-opacity:1;fill-rule:nonzero;stroke:none"
id="path830" /></g><g
id="g832"
transform="matrix(3.6591166,0,0,3.6591166,241.88367,871.91888)"><path
inkscape:connector-curvature="0"
d="M 0,0 -0.077,-0.541 0.554,-0.632 0.535,-0.774 -0.098,-0.681 -0.192,-1.33 -0.346,-1.308 -0.134,0.162 0.763,0.031 0.744,-0.108 0,0"
style="fill:#414142;fill-opacity:1;fill-rule:nonzero;stroke:none"
id="path834" /></g><g
id="g836"
transform="matrix(3.6591166,0,0,3.6591166,249.09213,870.77724)"><path
inkscape:connector-curvature="0"
d="M 0,0 -0.23,-1.324 -0.383,-1.298 -0.152,0.026 -0.569,0.1 -0.543,0.238 0.438,0.069 0.415,-0.072 0,0"
style="fill:#414142;fill-opacity:1;fill-rule:nonzero;stroke:none"
id="path838" /></g><g
id="g840"
transform="matrix(3.6591166,0,0,3.6591166,254.65033,864.73604)"><path
inkscape:connector-curvature="0"
d="M 0,0 0.217,1.107 -0.348,0.306 -0.479,0.331 -0.704,1.287 -0.921,0.18 -1.072,0.21 -0.784,1.666 -0.634,1.638 -0.37,0.512 0.285,1.457 0.438,1.428 0.152,-0.03 0,0"
style="fill:#414142;fill-opacity:1;fill-rule:nonzero;stroke:none"
id="path842" /></g><g
id="g844"
transform="matrix(3.6591166,0,0,3.6591166,329.8598,823.96616)"><path
inkscape:connector-curvature="0"
d="M 0,0 C -0.003,0.001 -0.006,0.003 -0.01,0.004 -0.007,0.003 -0.004,0.002 -0.002,0.001 L 0,0"
style="fill:#6e0510;fill-opacity:1;fill-rule:nonzero;stroke:none"
id="path846" /></g><g
transform="matrix(3.6591166,0,0,3.6591166,-1622.3191,-2118.1646)"
id="g848"><g
id="g850"><g
id="g856"><path
inkscape:connector-curvature="0"
d="m 533.502,804.059 c -0.294,0.119 -0.586,0.237 -0.877,0.351 -0.362,0.137 -0.722,0.272 -1.085,0.401 -0.361,0.131 -0.726,0.255 -1.09,0.373 -0.359,0.122 -0.721,0.235 -1.077,0.344 -0.368,0.109 -0.731,0.214 -1.093,0.314 -0.363,0.1 -0.728,0.194 -1.088,0.282 -0.362,0.089 -0.723,0.171 -1.08,0.248 -0.358,0.077 -0.711,0.149 -1.062,0.211 l -0.02,0.005 -0.02,0.003 -0.017,0.003 -0.023,0.004 c -0.354,0.062 -0.705,0.119 -1.051,0.169 -0.348,0.05 -0.697,0.094 -1.034,0.127 -0.339,0.036 -0.678,0.065 -1.009,0.084 -0.114,0.008 -0.23,0.011 -0.344,0.017 l 0.069,0.123 c 0.114,-0.005 0.223,-0.011 0.339,-0.019 0.325,-0.024 0.662,-0.055 1.003,-0.095 0.341,-0.039 0.687,-0.086 1.032,-0.138 0.346,-0.055 0.699,-0.115 1.049,-0.182 l 0.024,-0.004 0.018,-0.003 0.021,-0.005 0.019,-0.004 c 0.349,-0.066 0.702,-0.141 1.061,-0.222 0.354,-0.082 0.713,-0.168 1.076,-0.262 0.358,-0.092 0.72,-0.19 1.082,-0.294 0.365,-0.102 0.726,-0.212 1.088,-0.326 0.362,-0.111 0.717,-0.23 1.081,-0.354 0.359,-0.125 0.722,-0.252 1.078,-0.385 0.363,-0.133 0.725,-0.273 1.081,-0.415 0.286,-0.113 0.567,-0.231 0.849,-0.351"
style="fill:url(#radialGradient858-4);stroke:none"
id="path864" /></g></g></g></g></svg>