<?xml version="1.0" encoding="utf-8"?>
<!-- Generator: Adobe Illustrator 21.1.0, SVG Export Plug-In . SVG Version: 6.00 Build 0)  -->
<svg version="1.1" id="Logos" xmlns="http://www.w3.org/2000/svg" xmlns:xlink="http://www.w3.org/1999/xlink" x="0px" y="0px"
	 viewBox="0 0 1000 465.2" style="enable-background:new 0 0 1000 465.2;" xml:space="preserve">
<style type="text/css">
	.st0{fill-rule:evenodd;clip-rule:evenodd;fill:#0A3761;}
	.st1{fill:#FFFFFF;}
	.st2{fill-rule:evenodd;clip-rule:evenodd;fill:#FFFFFF;}
	.st3{fill:#FF6600;}
</style>
<g>
	<rect class="st0" width="1000" height="465.2"/>
	<g>
		<g>
			<rect y="348" class="st0" width="116" height="116"/>
			<rect x="884" y="349.2" class="st0" width="116" height="116"/>
			<rect y="0" class="st0" width="116" height="116"/>
			<rect x="884" y="0" class="st0" width="116" height="116"/>
		</g>
		<g id="Logo_7_">
			<g id="idealo_74_">
				<g id="i_74_">
					<rect x="116" y="116" class="st1" width="39.4" height="31.3"/>
					<rect x="116" y="163.6" class="st1" width="39.4" height="107.9"/>
				</g>
				<path id="d_74_" class="st1" d="M178.7,203.3c0-7.3-0.1-13.9,1.1-19.8c1.3-5.9,4-11.6,8.2-15.9c4.3-4.2,10.4-7.5,18.4-9.8
					c8-2.3,18.8-3.5,32.3-3.5h9.7c4.5,0,8.8,0.3,13,1c4.2,0.7,8.1,1.9,11.7,3.7c3.6,1.8,6.5,4.1,8.9,7c2.4,2.9,3.7,6.6,4.4,11l0,0
					l0.1-61h39.2v154.2h-37v-20.7h-0.1c-1.2,3.6-3.3,5.9-5.3,8.6c-2,2.8-4.5,5.1-7.8,7.1c-3.3,2-7.4,3.5-12,4.6
					c-4.7,1-9.1,1.6-15.5,1.6h-9.5c-13.5,0-24.3-1.1-32.3-3.4c-8-2.3-14.1-5.6-18.4-9.8c-4.2-4.2-7-8.5-8.2-14.4
					c-1.3-5.9-1.1-12.6-1.1-19.8V203.3z M216.6,219.8c0,3.2,0.2,6.2,0.7,8.8c0.5,2.6,1.5,4.8,3,6.5c1.5,1.7,3.8,3,6.9,3.9
					c3.1,0.9,7.2,1.4,12.6,1.4h21.5c4.3,0,8.1-0.3,11.4-0.9c3.3-0.6,6.1-1.7,8.4-3.4c2.2-1.6,3.9-3.8,5-6.6
					c1.1-2.8,1.7-6.4,1.7-10.9v-11.6c0-4.5-0.6-8.1-1.7-10.9c-1.1-2.8-2.8-5-5-6.6c-2.2-1.6-5-2.7-8.4-3.4
					c-3.4-0.6-7.2-0.9-11.4-0.9h-21.5c-5.4,0-9.5,0.5-12.6,1.4c-3,0.9-5.3,2.2-6.9,3.9c-1.5,1.7-2.5,3.9-3,6.5
					c-0.5,2.6-0.7,5.5-0.7,8.8V219.8z"/>
				<path id="e_74_" class="st2" d="M450.4,240.1c-0.5,5.9-6.3,7.1-15.4,7.1h-27.2c-9.2,0-19.4-4.7-19.4-14.6v-7.8h101v-19.1
					c0-37.8-17.4-51.4-61.1-51.4h-29.1c-29.8,0-49.9,13.3-49.9,54.7v10.7c0,46.7,27.2,51.8,54.4,51.8h39.2
					c34.1,0,46.3-6.8,46.6-31.3H450.4z M388.5,196.7c0-12,4.8-18.3,19.8-18.3h11.8h11.5c15,0,19.8,6.3,19.8,18.3v5.2h-62.9V196.7z"
					/>
				<path id="a_74_" class="st2" d="M509.3,230.7c0-30.2,42.9-28.8,46.6-28.8c3.8,0,24.7,0,31.1,0c8,0,18.9,2.7,22.6,6.6l0.7,0.7
					v-12.3c0-12-4.5-18.5-19.4-18.5h-23.3c-12.5,0-19.4,1.7-19.4,7.2h-35.4c0-23.4,18.9-31.3,49.2-31.3h46
					c27.3,0,41.6,14.4,41.6,40.9v75.2h-39.2v-14.6l-2.3,4.1c-6.6,9.5-11.7,11.7-31.7,11.7h-27.6c-24.4,0-39.5-5.1-39.5-31.2V230.7
					L509.3,230.7z M595.5,248.5c10.8,0,14.9-4.2,14.9-12.3c0-14-3.4-15.9-24.6-16.1h-18.8c-15.7-0.1-19.4,3.8-19.6,12.2
					c-0.2,12.7,3.9,16.2,19.6,16.2h13.1H595.5z"/>
				<polygon id="l_74_" class="st1" points="672.9,271.5 712.3,271.5 712.3,116 672.9,116 672.9,271.5 				"/>
				<path id="o_74_" class="st2" d="M735.5,199.1c0-37.2,24.4-44.8,46.1-44.8h56.2c21.6,0,46.1,7.5,46.1,44.8v27.6
					c0,37.2-24.5,44.8-46.1,44.8h-56.2c-21.6,0-46.1-7.5-46.1-44.8V199.1L735.5,199.1z M773.6,219.6c0,3.3,0.2,6.2,0.7,8.9
					c0.5,2.7,1.5,4.8,3.1,6.5c1.5,1.7,3.9,3,7,4c3.1,0.9,7.4,1.4,12.9,1.4h21.4c4.4,0,8.3-0.3,11.7-0.9c3.4-0.6,6.3-1.8,8.5-3.4
					c2.3-1.6,4-3.9,5.1-6.7c1.2-2.8,1.8-6.5,1.8-11v-11.1c0-4.5-0.6-8.2-1.8-11c-1.2-2.8-2.9-5-5.1-6.6c-2.3-1.6-5.1-2.8-8.5-3.4
					c-3.4-0.6-7.3-0.9-11.7-0.9h-21.4c-5.5,0-9.7,0.5-12.9,1.4c-3.1,0.9-5.5,2.3-7,4c-1.6,1.7-2.6,3.9-3.1,6.5
					c-0.5,2.6-0.7,5.6-0.7,8.9V219.6z"/>
			</g>
			<polygon id="Linie_74_" class="st3" points="116,348 884,348 884,316.7 116,316.7 116,348 			"/>
		</g>
	</g>
</g>
</svg>
