<?xml version="1.0" encoding="UTF-8" standalone="no"?><!-- Generator: Gravit.io --><svg xmlns="http://www.w3.org/2000/svg" xmlns:xlink="http://www.w3.org/1999/xlink" style="isolation:isolate" viewBox="0 0 1000 303" width="1000pt" height="303pt"><defs><clipPath id="_clipPath_6FzCkml8jxI2SI6T0mn8i3IRdSUj6bdK"><rect width="1000" height="303"/></clipPath></defs><g clip-path="url(#_clipPath_6FzCkml8jxI2SI6T0mn8i3IRdSUj6bdK)"><rect width="1000" height="303" style="fill:rgb(0,0,0)" fill-opacity="0"/><g><rect x="-150.258" y="-150" width="1300.516" height="605" transform="matrix(1,0,0,1,0,0)" fill="none"/><g><g><rect x="-150.258" y="302.58" width="150.86" height="150.86" transform="matrix(1,0,0,1,0,0)" fill="none"/><rect x="999.398" y="304.14" width="150.86" height="150.86" transform="matrix(1,0,0,1,0,0)" fill="none"/><rect x="-150.258" y="-150" width="150.86" height="150.86" transform="matrix(1,0,0,1,0,0)" fill="none"/><rect x="999.398" y="-150" width="150.86" height="150.86" transform="matrix(1,0,0,1,0,0)" fill="none"/></g><g><g><g><rect x="0.602" y="0.86" width="51.24" height="40.706" transform="matrix(1,0,0,1,0,0)" fill="rgb(10,55,97)"/><rect x="0.602" y="62.764" width="51.24" height="140.326" transform="matrix(1,0,0,1,0,0)" fill="rgb(10,55,97)"/></g><path d=" M 82.144 114.395 C 82.144 104.901 82.014 96.318 83.575 88.645 C 85.265 80.972 88.777 73.559 94.239 67.966 C 99.831 62.504 107.764 58.213 118.169 55.221 C 128.573 52.23 142.618 50.67 160.175 50.67 L 172.79 50.67 C 178.643 50.67 184.235 51.06 189.697 51.97 C 195.159 52.88 200.231 54.441 204.913 56.782 C 209.595 59.123 213.366 62.114 216.488 65.886 C 219.609 69.657 221.299 74.469 222.21 80.191 L 222.21 80.191 L 222.34 0.86 L 273.32 0.86 L 273.32 201.399 L 225.201 201.399 L 225.201 174.479 L 225.071 174.479 C 223.51 179.161 220.779 182.152 218.178 185.663 C 215.577 189.305 212.326 192.296 208.034 194.897 C 203.742 197.498 198.41 199.449 192.428 200.879 C 186.316 202.18 180.593 202.96 172.27 202.96 L 159.915 202.96 C 142.358 202.96 128.313 201.529 117.908 198.538 C 107.504 195.547 99.571 191.255 93.979 185.793 C 88.517 180.331 84.875 174.739 83.315 167.066 C 81.624 159.393 81.884 150.679 81.884 141.316 L 81.884 114.395 L 82.144 114.395 Z  M 131.434 135.853 C 131.434 140.015 131.694 143.917 132.344 147.298 C 132.994 150.679 134.295 153.54 136.246 155.751 C 138.196 157.962 141.188 159.653 145.219 160.823 C 149.251 161.994 154.583 162.644 161.606 162.644 L 189.567 162.644 C 195.159 162.644 200.101 162.254 204.393 161.474 C 208.684 160.693 212.326 159.263 215.317 157.052 C 218.178 154.971 220.389 152.11 221.82 148.468 C 223.25 144.827 224.031 140.145 224.031 134.293 L 224.031 119.207 C 224.031 113.354 223.25 108.673 221.82 105.031 C 220.389 101.39 218.178 98.529 215.317 96.448 C 212.456 94.367 208.814 92.936 204.393 92.026 C 199.971 91.246 195.029 90.856 189.567 90.856 L 161.606 90.856 C 154.583 90.856 149.251 91.506 145.219 92.676 C 141.318 93.847 138.327 95.537 136.246 97.748 C 134.295 99.959 132.994 102.82 132.344 106.202 C 131.694 109.583 131.434 113.354 131.434 117.646 L 131.434 135.853 L 131.434 135.853 Z " fill="rgb(10,55,97)"/><path d=" M 435.494 162.254 C 434.844 169.927 427.301 171.488 415.466 171.488 L 380.092 171.488 C 368.128 171.488 354.862 165.375 354.862 152.5 L 354.862 142.356 L 486.215 142.356 L 486.215 117.516 C 486.215 68.357 463.586 50.67 406.753 50.67 L 368.908 50.67 C 330.153 50.67 304.012 67.966 304.012 121.808 L 304.012 135.723 C 304.012 196.457 339.386 203.09 374.76 203.09 L 425.741 203.09 C 470.088 203.09 485.954 194.247 486.345 162.384 L 435.494 162.384 L 435.494 162.254 Z  M 354.992 105.811 C 354.992 90.205 361.235 82.012 380.743 82.012 L 396.089 82.012 L 411.045 82.012 C 430.552 82.012 436.795 90.205 436.795 105.811 L 436.795 112.574 L 354.992 112.574 L 354.992 105.811 L 354.992 105.811 Z " fill-rule="evenodd" fill="rgb(10,55,97)"/><path d=" M 512.095 150.029 C 512.095 110.753 567.887 112.574 572.699 112.574 C 577.641 112.574 604.822 112.574 613.145 112.574 C 623.549 112.574 637.725 116.086 642.537 121.158 L 643.447 122.068 L 643.447 106.072 C 643.447 90.465 637.595 82.012 618.217 82.012 L 587.915 82.012 C 571.658 82.012 562.685 84.223 562.685 91.376 L 516.647 91.376 C 516.647 60.944 541.226 50.67 580.632 50.67 L 640.456 50.67 C 675.96 50.67 694.557 69.397 694.557 103.861 L 694.557 201.66 L 643.577 201.66 L 643.577 182.672 L 640.586 188.004 C 632.002 200.359 625.37 203.22 599.359 203.22 L 563.465 203.22 C 531.733 203.22 512.095 196.587 512.095 162.644 L 512.095 150.029 L 512.095 150.029 Z  M 624.199 173.178 C 638.245 173.178 643.577 167.716 643.577 157.182 C 643.577 138.975 639.155 136.504 611.584 136.244 L 587.135 136.244 C 566.716 136.113 561.905 141.186 561.644 152.11 C 561.384 168.626 566.716 173.178 587.135 173.178 L 604.171 173.178 L 624.199 173.178 L 624.199 173.178 Z " fill-rule="evenodd" fill="rgb(10,55,97)"/><path d=" M 724.859 203.09 L 776.1 203.09 L 776.1 0.86 L 724.859 0.86 L 724.859 203.09 L 724.859 203.09 Z " fill="rgb(10,55,97)"/><path d=" M 806.271 108.933 C 806.271 60.554 838.004 50.67 866.225 50.67 L 939.314 50.67 C 967.405 50.67 999.268 60.423 999.268 108.933 L 999.268 144.827 C 999.268 193.206 967.405 203.09 939.314 203.09 L 866.225 203.09 C 838.134 203.09 806.271 193.336 806.271 144.827 L 806.271 108.933 L 806.271 108.933 Z  M 855.821 135.593 C 855.821 139.885 856.081 143.656 856.732 147.168 C 857.382 150.679 858.682 153.41 860.763 155.621 C 862.714 157.832 865.835 159.523 869.867 160.823 C 873.898 161.994 879.491 162.644 886.643 162.644 L 914.474 162.644 C 920.197 162.644 925.269 162.254 929.69 161.474 C 934.112 160.693 937.884 159.133 940.745 157.052 C 943.736 154.971 945.947 151.98 947.377 148.338 C 948.938 144.697 949.718 139.885 949.718 134.033 L 949.718 119.597 C 949.718 113.745 948.938 108.933 947.377 105.291 C 945.817 101.65 943.606 98.789 940.745 96.708 C 937.754 94.627 934.112 93.066 929.69 92.286 C 925.269 91.506 920.197 91.116 914.474 91.116 L 886.643 91.116 C 879.491 91.116 874.028 91.766 869.867 92.936 C 865.835 94.107 862.714 95.928 860.763 98.138 C 858.682 100.349 857.382 103.21 856.732 106.592 C 856.081 109.973 855.821 113.875 855.821 118.166 L 855.821 135.593 Z " fill-rule="evenodd" fill="rgb(10,55,97)"/></g><path d=" M 0.602 302.58 L 999.398 302.58 L 999.398 261.873 L 0.602 261.873 L 0.602 302.58 L 0.602 302.58 Z " fill="rgb(255,102,0)"/></g></g></g></g></svg>