<?xml version="1.0" encoding="utf-8"?>
<!DOCTYPE svg PUBLIC "-//W3C//DTD SVG 1.1//EN" "http://www.w3.org/Graphics/SVG/1.1/DTD/svg11.dtd">
<svg version="1.1" id="i" xmlns="http://www.w3.org/2000/svg" xmlns:xlink="http://www.w3.org/1999/xlink" x="0px" y="0px"
	 viewBox="0 0 383.1 60" style="enable-background:new 0 0 383.1 60;" xml:space="preserve">
<style type="text/css">
	.st0{fill:#C5073D;}
	.st1{fill:#FFFFFF;}
</style>
<path class="st0" d="M258.3,23c-2.8-2.6-8-4.4-12.7-4.4c-7.2,0-14.4,3-14.5,10.5c-0.1,7.8,7.6,10.5,13.7,10.8
	c4.5,0.2,6.2,1.5,6.2,3.1c0,1.7-2.8,3.4-5.6,3.3c-3.5-0.1-7.4-1-11.4-4.4l-4.5,6.2c5.6,4.8,10.7,5.7,15.7,5.8
	c10.6,0.2,14.7-5.4,14.7-10.8c0.2-8.7-7.8-10.6-14.3-10.9c-3.2-0.1-5.5-1.2-5.5-3c0-1.6,2.3-3.3,5.4-3.2c3,0.1,5.9,0.9,8.4,2.7
	L258.3,23z"/>
<path class="st0" d="M195.2,32.5h-15.8c0.2-2.7,3-6.2,7.8-6.2C192.4,26.3,195.2,29.6,195.2,32.5 M187.2,18.6
	c-10.5,0-17.1,7.6-17.1,17.4c0,10.1,6.4,17.9,18,17.9c4.8,0,9.6-1.5,13.7-5.1l-5.1-5.8c-2.3,2-5.9,3.1-8.4,3.1
	c-5.3,0-8.8-3.3-9.2-6.9h24.3C205.4,25.4,198.2,18.6,187.2,18.6"/>
<path class="st0" d="M326.3,36.2c0,4.7-2.4,9.4-8,9.4s-8-4.9-8-9.4s2.5-9.4,8-9.4C323.9,26.8,326.3,31.7,326.3,36.2 M335.8,36.2
	c0-11.3-7.9-17.7-17.5-17.7c-9.7,0-17.5,6.3-17.5,17.7c0,11.3,7.9,17.7,17.5,17.7S335.8,47,335.8,36.2"/>
<path class="st0" d="M230.8,19.8c-1.2-0.6-2.7-1.1-4.4-1.1c-3.1,0-6.8,2.1-8.8,5.1l-1.8-4.5h-7.5v34h9.5l0.1-17.6c0-5.1,3.2-8,7.2-8
	c0.4,0,1,0.1,1.6,0.3L230.8,19.8z"/>
<path class="st0" d="M167.5,19.2h-7.6V11l-9.5,2.4v27.7c0,10.1,4.8,12.8,11.3,12.8c3.1,0,5.1-0.7,8.4-2.4l-3.3-6.5
	c-1.1,0.5-2.5,1-3.5,1c-1.8,0-3.5-0.6-3.5-4.9V27.6h7.6v-8.4H167.5z"/>
<rect x="95.4" y="19.2" class="st0" width="9.7" height="34"/>
<path class="st0" d="M144.3,53.2v-18c0-13.2-6.5-16.7-13.8-16.7c-3.7,0-7.1,1.2-9.4,5.1l-1.6-4.4H112v34h9.5V35.1c0-5,2.5-8,6.9-8
	c4.5,0,6.4,2.8,6.4,8v18.1C134.8,53.2,144.3,53.2,144.3,53.2z"/>
<path class="st0" d="M296.3,53.2v-18c0-13.2-6.5-16.7-13.8-16.7c-3.3,0-7.6,2.1-9,4.9V10.2H264v43h9.5V35.1c0-5,2.5-8,6.8-8
	c4.5,0,6.4,2.8,6.4,8v18.1C286.7,53.2,296.3,53.2,296.3,53.2z"/>
<path class="st0" d="M365.5,36c0,4.7-2.3,9.2-8,9.2c-5.6,0-8-4.7-8-9.2s2.5-9.2,8-9.2C363.1,26.8,365.5,31.5,365.5,36 M374.8,36
	c0-11.2-6.6-17.3-16.2-17.3c-3.8,0-7.1,1.5-9.8,4l-1.2-3.4h-7.4V60h9.5v-9.8c2.5,2,5.4,3.2,8.8,3.2C368.1,53.4,374.8,46.6,374.8,36"
	/>
<path class="st0" d="M378.4,11.7c-3,0-4.7,2.2-4.7,4.7s1.6,4.7,4.7,4.7c3,0,4.7-2.2,4.7-4.7S381.4,11.7,378.4,11.7 M378.4,20.6
	c-2.6,0-4.1-1.8-4.1-4.1s1.5-4.1,4.1-4.1s4.1,1.8,4.1,4.1C382.5,18.7,381,20.6,378.4,20.6"/>
<path class="st0" d="M379.4,16.7c0.8-0.2,1.3-0.8,1.3-1.5c0-0.5-0.2-0.9-0.5-1.1c-0.4-0.3-0.9-0.5-1.7-0.5l0,0h-1.9v5.5h0.7v-2.3
	h1.2c0,0,0,0,0.1,0l1.3,2.3h0.8L379.4,16.7z M377.3,14.3h1.1c1,0,1.5,0.3,1.5,0.9c0,0.9-1,1-1.5,1h-1.2v-1.9H377.3z"/>
<polygon class="st0" points="0,0 0,60 28.8,60 28.8,21.9 48,2.7 48,41.1 29.1,60 61.1,60 61.1,0 "/>
<polygon class="st1" points="28.8,60 28.8,21.9 48,2.7 48,41.1 29.1,60 "/>
</svg>
