<?xml version="1.0" encoding="UTF-8" standalone="no"?><svg xmlns="http://www.w3.org/2000/svg" xmlns:xlink="http://www.w3.org/1999/xlink" style="isolation:isolate" viewBox="0 0 128 128" width="128pt" height="128pt"><defs><clipPath id="_clipPath_3MxEBrogRnYXC3mfagS0eg9GaoINBrkq"><rect width="128" height="128"/></clipPath></defs><g clip-path="url(#_clipPath_3MxEBrogRnYXC3mfagS0eg9GaoINBrkq)"><rect width="128" height="128" style="fill:rgb(0,0,0)" fill-opacity="0"/><rect x="14" y="63" width="100" height="65" transform="matrix(1,0,0,1,0,0)" fill="rgb(255,115,0)"/><path d=" M 65.136 88.78 L 65.136 88.78 Q 69.456 88.78 71.496 91.444 L 71.496 91.444 L 71.496 91.444 Q 73.536 94.108 73.536 98.476 L 73.536 98.476 L 73.536 112.06 L 73.536 112.06 Q 73.536 112.684 73.128 113.092 L 73.128 113.092 L 73.128 113.092 Q 72.72 113.5 72.096 113.5 L 72.096 113.5 L 72.096 113.5 Q 71.472 113.5 71.064 113.092 L 71.064 113.092 L 71.064 113.092 Q 70.656 112.684 70.656 112.06 L 70.656 112.06 L 70.656 98.62 L 70.656 98.62 Q 70.656 95.452 69.144 93.46 L 69.144 93.46 L 69.144 93.46 Q 67.632 91.468 64.464 91.468 L 64.464 91.468 L 64.464 91.468 Q 62.448 91.468 60.648 92.428 L 60.648 92.428 L 60.648 92.428 Q 58.848 93.388 57.744 95.044 L 57.744 95.044 L 57.744 95.044 Q 56.64 96.7 56.64 98.62 L 56.64 98.62 L 56.64 112.06 L 56.64 112.06 Q 56.64 112.684 56.232 113.092 L 56.232 113.092 L 56.232 113.092 Q 55.824 113.5 55.2 113.5 L 55.2 113.5 L 55.2 113.5 Q 54.576 113.5 54.168 113.092 L 54.168 113.092 L 54.168 113.092 Q 53.76 112.684 53.76 112.06 L 53.76 112.06 L 53.76 98.476 L 53.76 98.476 Q 53.76 95.356 52.32 93.412 L 52.32 93.412 L 52.32 93.412 Q 50.88 91.468 47.808 91.468 L 47.808 91.468 L 47.808 91.468 Q 45.84 91.468 44.088 92.428 L 44.088 92.428 L 44.088 92.428 Q 42.336 93.388 41.256 94.996 L 41.256 94.996 L 41.256 94.996 Q 40.176 96.604 40.176 98.476 L 40.176 98.476 L 40.176 112.06 L 40.176 112.06 Q 40.176 112.684 39.768 113.092 L 39.768 113.092 L 39.768 113.092 Q 39.36 113.5 38.736 113.5 L 38.736 113.5 L 38.736 113.5 Q 38.112 113.5 37.704 113.092 L 37.704 113.092 L 37.704 113.092 Q 37.296 112.684 37.296 112.06 L 37.296 112.06 L 37.296 90.556 L 37.296 90.556 Q 37.296 89.932 37.704 89.524 L 37.704 89.524 L 37.704 89.524 Q 38.112 89.116 38.736 89.116 L 38.736 89.116 L 38.736 89.116 Q 39.36 89.116 39.768 89.524 L 39.768 89.524 L 39.768 89.524 Q 40.176 89.932 40.176 90.556 L 40.176 90.556 L 40.176 93.34 L 40.176 93.34 Q 41.472 91.372 43.68 90.076 L 43.68 90.076 L 43.68 90.076 Q 45.888 88.78 48.336 88.78 L 48.336 88.78 L 48.336 88.78 Q 51.12 88.78 53.136 90.124 L 53.136 90.124 L 53.136 90.124 Q 55.152 91.468 56.016 94.06 L 56.016 94.06 L 56.016 94.06 Q 57.024 91.948 59.712 90.364 L 59.712 90.364 L 59.712 90.364 Q 62.4 88.78 65.136 88.78 L 65.136 88.78 L 65.136 88.78 Z  M 88.896 87.82 L 88.896 87.82 Q 89.376 87.82 89.736 88.132 L 89.736 88.132 L 89.736 88.132 Q 90.096 88.444 90.096 88.924 L 90.096 88.924 L 90.096 88.924 Q 90.096 89.404 89.76 89.74 L 89.76 89.74 L 89.76 89.74 Q 89.424 90.076 88.896 90.076 L 88.896 90.076 L 80.976 90.076 L 80.976 90.076 Q 80.4 90.076 80.04 89.74 L 80.04 89.74 L 80.04 89.74 Q 79.68 89.404 79.68 88.828 L 79.68 88.828 L 79.68 88.828 Q 79.68 88.3 80.256 87.676 L 80.256 87.676 L 84.192 83.404 L 85.056 82.348 L 85.056 82.348 Q 86.112 81.148 86.64 80.332 L 86.64 80.332 L 86.64 80.332 Q 87.168 79.516 87.168 78.604 L 87.168 78.604 L 87.168 78.604 Q 87.168 77.788 86.568 77.236 L 86.568 77.236 L 86.568 77.236 Q 85.968 76.684 84.816 76.684 L 84.816 76.684 L 84.816 76.684 Q 83.904 76.684 83.136 77.188 L 83.136 77.188 L 83.136 77.188 Q 82.368 77.692 82.032 78.652 L 82.032 78.652 L 82.032 78.652 Q 81.792 79.372 80.976 79.372 L 80.976 79.372 L 80.976 79.372 Q 80.448 79.372 80.136 79.108 L 80.136 79.108 L 80.136 79.108 Q 79.824 78.844 79.824 78.412 L 79.824 78.412 L 79.824 78.412 Q 79.824 77.692 80.472 76.708 L 80.472 76.708 L 80.472 76.708 Q 81.12 75.724 82.344 75.028 L 82.344 75.028 L 82.344 75.028 Q 83.568 74.332 85.152 74.332 L 85.152 74.332 L 85.152 74.332 Q 87.408 74.332 88.632 75.58 L 88.632 75.58 L 88.632 75.58 Q 89.856 76.828 89.856 78.508 L 89.856 78.508 L 89.856 78.508 Q 89.856 79.9 89.232 80.932 L 89.232 80.932 L 89.232 80.932 Q 88.608 81.964 87.312 83.404 L 87.312 83.404 L 86.304 84.556 L 83.376 87.82 L 88.896 87.82 L 88.896 87.82 Z " fill="rgb(0,51,102)"/><polygon points="64,0,114,63,14,63" fill="rgb(0,51,102)"/><line x1="14" y1="65" x2="114" y2="65" vector-effect="non-scaling-stroke" stroke-width="4" stroke="rgb(255,255,255)" stroke-linejoin="miter" stroke-linecap="butt" stroke-miterlimit="3"/><path d=" M 77.136 51.988 L 77.136 51.988 Q 77.472 52.372 77.472 52.9 L 77.472 52.9 L 77.472 52.9 Q 77.472 53.668 76.8 54.052 L 76.8 54.052 L 76.8 54.052 Q 75.12 55.3 72.648 56.14 L 72.648 56.14 L 72.648 56.14 Q 70.176 56.98 67.872 56.98 L 67.872 56.98 L 67.872 56.98 Q 64.32 56.98 61.224 55.516 L 61.224 55.516 L 61.224 55.516 Q 58.128 54.052 55.896 51.388 L 55.896 51.388 L 55.896 51.388 Q 53.664 48.724 52.656 45.124 L 52.656 45.124 L 49.2 45.076 L 49.2 45.076 Q 48.528 45.076 48.12 44.692 L 48.12 44.692 L 48.12 44.692 Q 47.712 44.308 47.712 43.684 L 47.712 43.684 L 47.712 43.684 Q 47.712 43.06 48.12 42.676 L 48.12 42.676 L 48.12 42.676 Q 48.528 42.292 49.2 42.292 L 49.2 42.292 L 52.08 42.34 L 52.08 42.34 Q 51.936 41.044 51.936 39.7 L 51.936 39.7 L 51.936 39.7 Q 51.936 38.98 51.984 38.644 L 51.984 38.644 L 49.2 38.596 L 49.2 38.596 Q 48.528 38.596 48.12 38.212 L 48.12 38.212 L 48.12 38.212 Q 47.712 37.828 47.712 37.204 L 47.712 37.204 L 47.712 37.204 Q 47.712 36.58 48.12 36.196 L 48.12 36.196 L 48.12 36.196 Q 48.528 35.812 49.2 35.812 L 49.2 35.812 L 52.32 35.86 L 52.32 35.86 Q 53.088 31.924 55.296 28.9 L 55.296 28.9 L 55.296 28.9 Q 57.504 25.876 60.768 24.172 L 60.768 24.172 L 60.768 24.172 Q 64.032 22.468 67.872 22.468 L 67.872 22.468 L 67.872 22.468 Q 70.272 22.468 72.576 23.236 L 72.576 23.236 L 72.576 23.236 Q 74.88 24.004 76.752 25.396 L 76.752 25.396 L 76.752 25.396 Q 77.472 25.828 77.472 26.596 L 77.472 26.596 L 77.472 26.596 Q 77.472 27.028 77.136 27.556 L 77.136 27.556 L 77.136 27.556 Q 76.704 28.084 76.08 28.084 L 76.08 28.084 L 76.08 28.084 Q 75.744 28.084 75.264 27.844 L 75.264 27.844 L 75.264 27.844 Q 71.856 25.3 67.872 25.3 L 67.872 25.3 L 67.872 25.3 Q 63.216 25.3 59.784 28.18 L 59.784 28.18 L 59.784 28.18 Q 56.352 31.06 55.248 35.86 L 55.248 35.86 L 64.896 35.956 L 64.896 35.956 Q 65.568 35.956 65.976 36.34 L 65.976 36.34 L 65.976 36.34 Q 66.384 36.724 66.384 37.348 L 66.384 37.348 L 66.384 37.348 Q 66.384 37.972 65.976 38.356 L 65.976 38.356 L 65.976 38.356 Q 65.568 38.74 64.896 38.74 L 64.896 38.74 L 54.864 38.644 L 54.864 38.644 Q 54.816 38.98 54.816 39.7 L 54.816 39.7 L 54.816 39.7 Q 54.816 41.188 55.008 42.34 L 55.008 42.34 L 64.896 42.436 L 64.896 42.436 Q 65.568 42.436 65.976 42.82 L 65.976 42.82 L 65.976 42.82 Q 66.384 43.204 66.384 43.828 L 66.384 43.828 L 66.384 43.828 Q 66.384 44.452 65.976 44.836 L 65.976 44.836 L 65.976 44.836 Q 65.568 45.22 64.896 45.22 L 64.896 45.22 L 55.68 45.124 L 55.68 45.124 Q 57.024 49.3 60.336 51.724 L 60.336 51.724 L 60.336 51.724 Q 63.648 54.148 67.872 54.148 L 67.872 54.148 L 67.872 54.148 Q 71.904 54.148 75.216 51.652 L 75.216 51.652 L 75.216 51.652 Q 75.6 51.412 76.032 51.412 L 76.032 51.412 L 76.032 51.412 Q 76.704 51.412 77.136 51.988 L 77.136 51.988 L 77.136 51.988 Z " fill="rgb(255,255,255)"/></g></svg>
