<?xml version="1.0" encoding="UTF-8"?>
<svg width="600" height="300" version="1.1" xmlns="http://www.w3.org/2000/svg">
	<defs>
		<linearGradient id="c" x2="1" gradientTransform="matrix(580,0,0,580,10,246)" gradientUnits="userSpaceOnUse">
			<stop stop-color="#2a2c6f" offset="0"/>
			<stop stop-color="#136aa2" offset=".5"/>
			<stop stop-color="#2a2c6f" offset="1"/>
		</linearGradient>
		<linearGradient id="b" x2="1" gradientTransform="matrix(550,0,0,550,23.7,159)" gradientUnits="userSpaceOnUse">
			<stop stop-color="#7b7979" offset="0"/>
			<stop stop-color="#d3d2d2" offset=".5"/>
			<stop stop-color="#918f90" offset="1"/>
		</linearGradient>
		<linearGradient id="a" x2="1" gradientTransform="matrix(408,0,0,408,98,68.2)" gradientUnits="userSpaceOnUse">
			<stop stop-color="#2a2c6f" offset="0"/>
			<stop stop-color="#136aa2" offset=".5"/>
			<stop stop-color="#2a2c6f" offset="1"/>
		</linearGradient>
	</defs>
	<path d="m10 233c80.4-9.45 193-15 297-15 99.1 0 205 5.03 283 13.7v41.9h-580v-40.7" fill="url(#c)"/>
	<path d="m293 207c99 0 191 4.83 269 13.2 1.34-7.34 4.37-24.4 11-63.5-35.4-63.3-262-59.1-274-59.1-9.93 0-241-4.17-276 59.1 6.3 37.3 9.34 54.5 10.8 62.4 75.9-7.69 164-12.1 259-12.1" fill="url(#b)"/>
	<path d="m304 85c74.3 0 144 8.8 202 24-29.9-48.1-110-82.5-204-82.5-94.6 0-175 34.9-204 83.5 59.4-15.8 130-25 206-25" fill="url(#a)"/>
	<g fill="#fff">
		<path d="m126 267v-37.9h9.37v37.9h-9.37"/>
		<path d="m196 267-15.3-22.5c-1.23-1.82-2.13-3.69-2.13-3.69h-0.106s0.213 2.1 0.213 4.24v21.9h-7.83v-37.9h8.26l14.3 20.6c1.38 1.98 2.18 3.75 2.18 3.75h0.108s-0.213-2.04-0.213-4.08v-20.2h7.88v37.9h-7.3"/>
		<path d="m251 234c-1.33 0-2.61 0.221-3.46 0.549v26.7c0.745 0.276 2.24 0.606 3.57 0.606 6.39 0 9.37-4.08 9.37-14.1 0-9.48-3.14-13.7-9.48-13.7zm0.0538 33.8c-5.49 0-9.91-0.938-12.8-2.21v-35.1c2.93-1.21 6.98-2.21 12.4-2.21 13.8 0 19.5 8.44 19.5 19.6 0 11-5.27 19.9-19.1 19.9"/>
		<path d="m321 234c-5.81 0-7.51 7.06-7.51 13.7 0 6.62 1.55 13.7 7.51 13.7 5.91 0 7.41-7.06 7.41-13.7 0-6.67-1.65-13.7-7.41-13.7zm0 33.7c-12 0-17.2-8.99-17.2-19.7 0-10.7 5.22-19.7 17.2-19.7 12 0 17.2 9.04 17.2 19.7 0 10.8-5.17 19.7-17.2 19.7"/>
		<path d="m388 234c-5.81 0-7.51 7.06-7.51 13.7 0 6.62 1.55 13.7 7.51 13.7 5.91 0 7.4-7.06 7.4-13.7 0-6.67-1.65-13.7-7.4-13.7zm0 33.7c-12 0-17.2-8.99-17.2-19.7 0-10.7 5.22-19.7 17.2-19.7s17.2 9.04 17.2 19.7c0 10.8-5.17 19.7-17.2 19.7"/>
		<path d="m453 233c-1.49 0-2.66 0.333-3.46 0.662v14c0.641 0.165 1.6 0.275 2.66 0.275 5.48 0 8.09-2.92 8.09-7.61 0-4.91-2.08-7.28-7.3-7.28zm7.62 33.7-11-17.1h-0.106v17.1h-9.32v-36.5c3.14-1.27 7.78-2.21 12.8-2.21 11.3 0 16.7 4.74 16.7 11.9 0 5.24-4.05 8.99-10.4 9.76v0.11l12.1 17h-10.8"/>
		<path d="m160 85.4v125h-31.4v-125h31.4"/>
	</g>
	<path d="m160 85.4v125h-31.4v-125z" fill="none" stroke="#224387" stroke-width="5.33"/>
	<path d="m245 123h-29.1v-9.3c0-4.34-0.37-7.1-1.12-8.28-0.743-1.19-1.99-1.78-3.72-1.78-1.89 0-3.32 0.8-4.28 2.4-0.967 1.6-1.45 4.03-1.45 7.28 0 4.19 0.544 7.34 1.63 9.46 1.04 2.12 3.99 4.68 8.86 7.67 14 8.61 22.7 15.7 26.4 21.2 3.62 5.53 5.44 14.4 5.44 26.7 0 8.93-1 15.5-3.02 19.7-2.01 4.24-5.9 7.78-11.7 10.7-5.76 2.86-12.5 4.3-20.1 4.3-8.39 0-15.6-1.65-21.5-4.95-5.93-3.31-9.82-7.51-11.7-12.6-1.84-5.11-2.75-12.4-2.75-21.8v-8.21h29.1v15.3c0 4.7 0.41 7.72 1.23 9.06 0.819 1.34 2.27 2.01 4.36 2.01s3.64-0.851 4.65-2.55c1.02-1.7 1.53-4.23 1.53-7.59 0-7.38-0.968-12.2-2.91-14.5-1.99-2.27-6.88-6.07-14.7-11.4-7.8-5.37-13-9.27-15.5-11.7-2.53-2.42-4.63-5.78-6.29-10.1-1.67-4.29-2.5-9.76-2.5-16.4 0-9.61 1.18-16.6 3.54-21.1 2.36-4.44 6.17-7.91 11.4-10.4 5.26-2.5 11.6-3.76 19.1-3.76 8.14 0 15.1 1.37 20.8 4.11 5.73 2.74 9.53 6.18 11.4 10.3 1.86 4.16 2.79 11.2 2.79 21.2v4.96" fill="#fff"/>
	<path d="m245 123h-29.1v-9.3c0-4.34-0.37-7.1-1.12-8.28-0.743-1.19-1.99-1.78-3.72-1.78-1.89 0-3.32 0.8-4.28 2.4-0.967 1.6-1.45 4.03-1.45 7.28 0 4.19 0.544 7.34 1.63 9.46 1.04 2.12 3.99 4.68 8.86 7.67 14 8.61 22.7 15.7 26.4 21.2 3.62 5.53 5.44 14.4 5.44 26.7 0 8.93-1 15.5-3.02 19.7-2.01 4.24-5.9 7.78-11.7 10.7-5.76 2.86-12.5 4.3-20.1 4.3-8.39 0-15.6-1.65-21.5-4.95-5.93-3.31-9.82-7.51-11.7-12.6-1.84-5.11-2.75-12.4-2.75-21.8v-8.21h29.1v15.3c0 4.7 0.41 7.72 1.23 9.06 0.819 1.34 2.27 2.01 4.36 2.01s3.64-0.851 4.65-2.55c1.02-1.7 1.53-4.23 1.53-7.59 0-7.38-0.968-12.2-2.91-14.5-1.99-2.27-6.88-6.07-14.7-11.4-7.8-5.37-13-9.27-15.5-11.7-2.53-2.42-4.63-5.78-6.29-10.1-1.67-4.29-2.5-9.76-2.5-16.4 0-9.61 1.18-16.6 3.54-21.1 2.36-4.44 6.17-7.91 11.4-10.4 5.26-2.5 11.6-3.76 19.1-3.76 8.14 0 15.1 1.37 20.8 4.11 5.73 2.74 9.53 6.18 11.4 10.3 1.86 4.16 2.79 11.2 2.79 21.2z" fill="none" stroke="#224387" stroke-width="5.33"/>
	<path d="m327 85.4v25.1h-18.6v100h-31.4v-100h-18.5v-25.1h68.5" fill="#fff"/>
	<path d="m327 85.4v25.1h-18.6v100h-31.4v-100h-18.5v-25.1z" fill="none" stroke="#224387" stroke-width="5.33"/>
	<path d="m372 166c-1.59-14.2-3.18-31.8-4.78-52.7-3.19 24-5.2 41.6-6.02 52.7zm16.6-80.6 17.9 125h-32l-1.68-22.5h-11.2l-1.89 22.5h-32.4l16-125h45.3" fill="#fff"/>
	<path d="m372 166c-1.59-14.2-3.18-31.8-4.78-52.7-3.19 24-5.2 41.6-6.02 52.7zm16.6-80.6 17.9 125h-32l-1.68-22.5h-11.2l-1.89 22.5h-32.4l16-125z" fill="none" stroke="#224387" stroke-width="5.33"/>
	<path d="m418 85.4h53.1v25.1h-21.7v23.8h19.4v23.9h-19.4v52.7h-31.4v-125" fill="#fff"/>
	<path d="m418 85.4h53.1v25.1h-21.7v23.8h19.4v23.9h-19.4v52.7h-31.4z" fill="none" stroke="#224387" stroke-width="5.33"/>
</svg>
