<?xml version="1.0" encoding="UTF-8" standalone="no"?>
<svg
   xmlns:dc="http://purl.org/dc/elements/1.1/"
   xmlns:cc="http://creativecommons.org/ns#"
   xmlns:rdf="http://www.w3.org/1999/02/22-rdf-syntax-ns#"
   xmlns:svg="http://www.w3.org/2000/svg"
   xmlns="http://www.w3.org/2000/svg"
   xmlns:xlink="http://www.w3.org/1999/xlink"
   xmlns:sodipodi="http://sodipodi.sourceforge.net/DTD/sodipodi-0.dtd"
   xmlns:inkscape="http://www.inkscape.org/namespaces/inkscape"
   viewBox="0 0 501.33334 501.33334"
   height="501.33334"
   width="501.33334"
   xml:space="preserve"
   id="svg2"
   version="1.1"
   sodipodi:docname="itil.svg"
   inkscape:version="0.92.2 2405546, 2018-03-11"><sodipodi:namedview
     pagecolor="#565656"
     bordercolor="#666666"
     borderopacity="1"
     objecttolerance="10"
     gridtolerance="10"
     guidetolerance="10"
     inkscape:pageopacity="0"
     inkscape:pageshadow="2"
     inkscape:window-width="1280"
     inkscape:window-height="984"
     id="namedview76"
     showgrid="false"
     inkscape:zoom="0.33283119"
     inkscape:cx="-189.30089"
     inkscape:cy="181.10287"
     inkscape:window-x="0"
     inkscape:window-y="0"
     inkscape:window-maximized="1"
     inkscape:current-layer="svg2" /><metadata
     id="metadata8"><rdf:RDF><cc:Work
         rdf:about=""><dc:format>image/svg+xml</dc:format><dc:type
           rdf:resource="http://purl.org/dc/dcmitype/StillImage" /><dc:title></dc:title></cc:Work></rdf:RDF></metadata><defs
     id="defs6"><clipPath
       id="clipPath22"
       clipPathUnits="userSpaceOnUse"><path
         style="clip-rule:evenodd"
         id="path20"
         d="m 927.699,2353.76 c 0,0 86.401,76.8 218.401,76.8 0,0 -328.799,134.4 -587.995,-110.4 0,0 220.797,98.4 369.594,33.6 z" /></clipPath><radialGradient
       id="radialGradient28"
       gradientTransform="matrix(1.3333333,0,0,-1.3333333,-277.33333,658.66666)"
       gradientUnits="userSpaceOnUse"
       r="0"
       cy="355.60999"
       cx="280.862"
       fy="355.60999"
       fx="280.862"><stop
         id="stop24"
         offset="0"
         style="stop-opacity:1;stop-color:#b8948a" /><stop
         id="stop26"
         offset="1"
         style="stop-opacity:1;stop-color:#99544f" /></radialGradient><clipPath
       id="clipPath38"
       clipPathUnits="userSpaceOnUse"><path
         style="clip-rule:evenodd"
         id="path36"
         d="m 882.102,2303.36 c 0,0 -290.399,-124.79 -477.594,-451.19 0,0 -129.598,463.19 477.594,451.19 z" /></clipPath><radialGradient
       id="radialGradient46"
       gradientTransform="matrix(1.3333333,0,0,-1.3333333,-277.33333,658.66666)"
       gradientUnits="userSpaceOnUse"
       r="0"
       cy="315.40701"
       cx="253.161"
       fy="315.40701"
       fx="253.161"><stop
         id="stop40"
         offset="0"
         style="stop-opacity:1;stop-color:#b8948a" /><stop
         id="stop42"
         offset="0.398438"
         style="stop-opacity:1;stop-color:#a8736b" /><stop
         id="stop44"
         offset="1"
         style="stop-opacity:1;stop-color:#99544f" /></radialGradient><clipPath
       id="clipPath56"
       clipPathUnits="userSpaceOnUse"><path
         style="clip-rule:evenodd"
         id="path54"
         d="m 812.5,2173.77 c 0,0 -290.391,-460.79 31.203,-933.59 0,0 -898.3671,459.82 -31.203,933.59 z" /></clipPath><radialGradient
       id="radialGradient64"
       gradientTransform="matrix(1.3333333,0,0,-1.3333333,-277.33333,658.66666)"
       gradientUnits="userSpaceOnUse"
       r="0"
       cy="261.62399"
       cx="275.20599"
       fy="261.62399"
       fx="275.20599"><stop
         id="stop58"
         offset="0"
         style="stop-opacity:1;stop-color:#b8948a" /><stop
         id="stop60"
         offset="0.398438"
         style="stop-opacity:1;stop-color:#a8736b" /><stop
         id="stop62"
         offset="1"
         style="stop-opacity:1;stop-color:#99544f" /></radialGradient><clipPath
       id="clipPath74"
       clipPathUnits="userSpaceOnUse"><path
         style="clip-rule:evenodd"
         id="path72"
         d="m 812.836,2070 c 0,0 102.496,-517.5 797.504,-740 0,0 -1007.508,-565.004 -797.504,740 z" /></clipPath><radialGradient
       id="radialGradient82"
       gradientTransform="matrix(1.3333333,0,0,-1.3333333,-277.33333,658.66666)"
       gradientUnits="userSpaceOnUse"
       r="0"
       cy="250.896"
       cx="352.508"
       fy="250.896"
       fx="352.508"><stop
         id="stop76"
         offset="0"
         style="stop-opacity:1;stop-color:#b8948a" /><stop
         id="stop78"
         offset="0.367188"
         style="stop-opacity:1;stop-color:#a8736b" /><stop
         id="stop80"
         offset="1"
         style="stop-opacity:1;stop-color:#99544f" /></radialGradient><clipPath
       id="clipPath92"
       clipPathUnits="userSpaceOnUse"><path
         style="clip-rule:evenodd"
         id="path90"
         d="m 987.836,1887.5 c 0,0 270.004,-175 830.004,-162.5 0,0 -22.5,-157.5 -140,-290 0,0 -327.5,15 -690.004,452.5 z" /></clipPath><radialGradient
       id="radialGradient98"
       gradientTransform="matrix(1.3333333,0,0,-1.3333333,-277.33333,658.66666)"
       gradientUnits="userSpaceOnUse"
       r="0"
       cy="279.60001"
       cx="374.84399"
       fy="279.60001"
       fx="374.84399"><stop
         id="stop94"
         offset="0"
         style="stop-opacity:1;stop-color:#b8948a" /><stop
         id="stop96"
         offset="1"
         style="stop-opacity:1;stop-color:#99544f" /></radialGradient><clipPath
       id="clipPath108"
       clipPathUnits="userSpaceOnUse"><path
         style="clip-rule:evenodd"
         id="path106"
         d="m 1142.84,1892.5 c 0,0 440,-17.5 712.5,157.5 0,0 30,-117.5 10,-232.5 0,0 -412.5,-40 -722.5,75 z" /></clipPath><radialGradient
       id="radialGradient114"
       gradientTransform="matrix(1.3333333,0,0,-1.3333333,-277.33333,658.66666)"
       gradientUnits="userSpaceOnUse"
       r="0"
       cy="311.03799"
       cx="386.46899"
       fy="311.03799"
       fx="386.46899"><stop
         id="stop110"
         offset="0"
         style="stop-opacity:1;stop-color:#b8948a" /><stop
         id="stop112"
         offset="1"
         style="stop-opacity:1;stop-color:#99544f" /></radialGradient><clipPath
       id="clipPath124"
       clipPathUnits="userSpaceOnUse"><path
         style="clip-rule:evenodd"
         id="path122"
         d="m 1682.84,2400 c 0,0 -105,-340 -370,-455 0,0 302.5,7.5 510,217.5 0,0 -37.5,130 -140,237.5 z" /></clipPath><radialGradient
       id="radialGradient130"
       gradientTransform="matrix(1.3333333,0,0,-1.3333333,-277.33333,658.66666)"
       gradientUnits="userSpaceOnUse"
       r="0"
       cy="342.07501"
       cx="379.57401"
       fy="342.07501"
       fx="379.57401"><stop
         id="stop126"
         offset="0"
         style="stop-opacity:1;stop-color:#b8948a" /><stop
         id="stop128"
         offset="1"
         style="stop-opacity:1;stop-color:#99544f" /></radialGradient><clipPath
       id="clipPath140"
       clipPathUnits="userSpaceOnUse"><path
         style="clip-rule:evenodd"
         id="path138"
         d="m 1132.82,2383.3 c -168.996,-26.2 -291.394,-144.23 -273.386,-263.62 18.007,-119.38 169.606,-194.92 338.606,-168.72 168.99,26.21 291.39,144.24 273.38,263.63 -18.01,119.38 -169.6,194.92 -338.6,168.71 z" /></clipPath><radialGradient
       id="radialGradient146"
       gradientTransform="matrix(1.3333333,0,0,-1.3333333,-277.33333,658.66666)"
       gradientUnits="userSpaceOnUse"
       r="0"
       cy="339.14099"
       cx="316.54099"
       fy="339.14099"
       fx="316.54099"><stop
         id="stop142"
         offset="0"
         style="stop-opacity:1;stop-color:#9c5a55" /><stop
         id="stop144"
         offset="1"
         style="stop-opacity:0.99607843;stop-color:#b58980" /></radialGradient><radialGradient
       inkscape:collect="always"
       xlink:href="#radialGradient146"
       id="radialGradient980"
       cx="141.86992"
       cy="208.2054"
       fx="141.86992"
       fy="208.2054"
       r="41.033463"
       gradientTransform="matrix(1,0,0,0.71929247,0,59.617349)"
       gradientUnits="userSpaceOnUse" /><radialGradient
       inkscape:collect="always"
       xlink:href="#radialGradient146"
       id="radialGradient988"
       cx="94.084244"
       cy="185.16457"
       fx="94.084244"
       fy="185.16457"
       r="39.199665"
       gradientTransform="matrix(1,0,0,0.25036532,0,136.55678)"
       gradientUnits="userSpaceOnUse" /><radialGradient
       inkscape:collect="always"
       xlink:href="#radialGradient146"
       id="radialGradient996"
       cx="60.964508"
       cy="225.91069"
       fx="60.964508"
       fy="225.91069"
       r="32.612885"
       gradientTransform="matrix(1.0690952,-0.92126965,0.60238498,0.69904279,-140.29756,124.0285)"
       gradientUnits="userSpaceOnUse" /><radialGradient
       inkscape:collect="always"
       xlink:href="#radialGradient146"
       id="radialGradient1004"
       cx="89.755013"
       cy="287.54672"
       fx="89.755013"
       fy="287.54672"
       r="27.24551"
       gradientTransform="matrix(2.335718,-0.25618895,0.32920274,3.0013974,-214.54855,-534.76353)"
       gradientUnits="userSpaceOnUse" /><radialGradient
       inkscape:collect="always"
       xlink:href="#radialGradient146"
       id="radialGradient1012"
       cx="174.64795"
       cy="317.35254"
       fx="174.64795"
       fy="317.35254"
       r="55.086651"
       gradientTransform="matrix(0.58145915,-0.8135756,1.64989,1.1791696,-450.49947,86.709685)"
       gradientUnits="userSpaceOnUse" /><radialGradient
       inkscape:collect="always"
       xlink:href="#radialGradient146"
       id="radialGradient1020"
       cx="213.33466"
       cy="299.12216"
       fx="213.33466"
       fy="299.12216"
       r="55.333599"
       gradientTransform="matrix(0.60979323,-0.79256054,0.63800624,0.4908797,-107.59718,312.59682)"
       gradientUnits="userSpaceOnUse" /><radialGradient
       inkscape:collect="always"
       xlink:href="#radialGradient146"
       id="radialGradient1028"
       cx="240.0625"
       cy="250.81902"
       fx="240.0625"
       fy="250.81902"
       r="48.625"
       gradientTransform="matrix(-0.89659284,0.31162894,-0.20308093,-0.58428756,506.23738,317.94223)"
       gradientUnits="userSpaceOnUse" /><radialGradient
       inkscape:collect="always"
       xlink:href="#radialGradient146"
       id="radialGradient1038"
       gradientUnits="userSpaceOnUse"
       gradientTransform="matrix(-0.69486933,-0.71913602,0.90577624,-0.87521152,204.58075,546.95631)"
       cx="229.32588"
       cy="203.24739"
       fx="229.32588"
       fy="203.24739"
       r="34" /></defs><path
     id="path30"
     style="fill:url(#radialGradient988);fill-opacity:1;fill-rule:nonzero;stroke:none;stroke-width:0.13333333"
     d="m 123.6932,187.49867 c 0,0 11.52013,-10.24 29.12013,-10.24 0,0 -43.83987,-17.92 -78.399332,14.72 0,0 29.439602,-13.12 49.279202,-4.48"
     inkscape:connector-curvature="0" /><path
     id="path48"
     style="fill:url(#radialGradient996);fill-opacity:1;fill-rule:nonzero;stroke:none;stroke-width:0.13333333"
     d="m 117.6136,194.21867 c 0,0 -38.719869,16.63867 -63.679201,60.15867 0,0 -17.279733,-61.75867 63.679201,-60.15867"
     inkscape:connector-curvature="0" /><path
     id="path66"
     style="fill:url(#radialGradient1004);fill-opacity:1;fill-rule:nonzero;stroke:none;stroke-width:0.13333333"
     d="m 108.33333,211.49734 c 0,0 -38.718798,61.43866 4.1604,124.47866 0,0 -119.7822765,-61.30933 -4.1604,-124.47866"
     inkscape:connector-curvature="0" /><path
     id="path84"
     style="fill:url(#radialGradient1012);fill-opacity:1;fill-rule:nonzero;stroke:none;stroke-width:0.13333333"
     d="m 108.37813,225.33334 c 0,0 13.66613,69 106.33386,98.66666 0,0 -134.334392,75.33387 -106.33386,-98.66666"
     inkscape:connector-curvature="0" /><path
     id="path100"
     style="fill:url(#radialGradient1020);fill-opacity:1;fill-rule:nonzero;stroke:none;stroke-width:0.13333333"
     d="m 131.71146,249.66667 c 0,0 36.00054,23.33333 110.6672,21.66667 0,0 -3,21 -18.66667,38.66666 0,0 -43.66666,-2 -92.00053,-60.33333"
     inkscape:connector-curvature="0" /><path
     id="path116"
     style="fill:url(#radialGradient1028);fill-opacity:1;fill-rule:nonzero;stroke:none;stroke-width:0.13333333"
     d="m 152.37866,249 c 0,0 58.66667,2.33334 95,-21 0,0 4,15.66667 1.33333,31 0,0 -54.99999,5.33334 -96.33333,-10"
     inkscape:connector-curvature="0" /><path
     id="path132"
     style="fill:url(#radialGradient1038);fill-opacity:1.0;fill-rule:nonzero;stroke:none;stroke-width:0.13333333"
     d="m 224.37866,181.33334 c 0,0 -14,45.33333 -49.33333,60.66666 0,0 40.33333,-1 68,-29 0,0 -5,-17.33333 -18.66667,-31.66666"
     inkscape:connector-curvature="0" /><path
     id="path148"
     style="fill:url(#radialGradient980);fill-opacity:1;fill-rule:nonzero;stroke:none;stroke-width:0.13333333"
     d="m 151.04266,183.56 c -22.5328,3.49334 -38.85253,19.23067 -36.45146,35.14934 2.40093,15.91733 22.61413,25.98933 45.14746,22.496 22.532,-3.49467 38.852,-19.232 36.45067,-35.15067 C 193.788,190.13734 173.576,180.06534 151.04266,183.56"
     inkscape:connector-curvature="0" /><path
     id="path150"
     style="fill:#000000;fill-opacity:1;fill-rule:evenodd;stroke:none;stroke-width:0.13333333"
     d="m 435.54266,241.82534 v -10.38267 h 4.076 c 1.024,0 1.76666,0.0947 2.23066,0.28133 0.464,0.18534 0.83734,0.516 1.116,0.992 0.27867,0.47867 0.41734,1.02267 0.41734,1.63734 0,0.77866 -0.212,1.424 -0.63334,1.932 -0.42266,0.504 -1.056,0.82666 -1.89733,0.956 0.42,0.26666 0.76533,0.556 1.03733,0.87333 0.272,0.316 0.63867,0.87733 1.1,1.68533 l 1.172,2.02534 h -2.31333 l -1.4,-2.26134 c -0.49733,-0.80666 -0.836,-1.31466 -1.02,-1.524 -0.18267,-0.21066 -0.37733,-0.35333 -0.58267,-0.43333 -0.20533,-0.0773 -0.528,-0.116 -0.97466,-0.116 h -0.39067 v 4.33467 z m -166.07467,-13.368 h 18.24 V 298.536 h -18.24 z m 22.88,0 h 58.23867 v 15.04 H 330.58799 V 298.536 h -18.24 v -55.03866 h -20 z M 401.62666,283.496 h 28.47866 v 15.04 h -46.71866 v -70.07866 h 18.24 z m -46.4,-55.03866 h 18.24 V 298.536 h -18.24 z M 212.35733,171.492 v -10.38266 h 2.896 l 1.73866,7.08266 1.71734,-7.08266 h 2.90266 V 171.492 h -1.796 v -8.17333 l -1.90266,8.17333 h -1.864 l -1.89734,-8.17333 v 8.17333 z m -5.99734,0 v -8.62533 h -2.84266 v -1.75733 h 7.616 v 1.75733 h -2.836 v 8.62533 z m 233.00267,55.332 c 5.292,0 9.58266,4.29067 9.58266,9.584 0,5.292 -4.29066,9.58267 -9.58266,9.58267 -5.29334,0 -9.584,-4.29067 -9.584,-9.58267 0,-5.29333 4.29066,-9.584 9.584,-9.584 z m 0,1.5 c 4.464,0 8.08266,3.61867 8.08266,8.084 0,4.464 -3.61866,8.08267 -8.08266,8.08267 -4.46534,0 -8.084,-3.61867 -8.084,-8.08267 0,-4.46533 3.61866,-8.084 8.084,-8.084 z m -1.88267,7.50934 h 1.43067 c 0.928,0 1.508,-0.0413 1.74,-0.12667 0.23066,-0.084 0.41066,-0.232 0.54266,-0.44 0.12934,-0.208 0.196,-0.46667 0.196,-0.77867 0,-0.34933 -0.0867,-0.63066 -0.25866,-0.84533 -0.172,-0.21467 -0.41467,-0.35067 -0.72934,-0.40933 -0.156,-0.0213 -0.628,-0.0333 -1.41333,-0.0333 h -1.508 v 2.63334"
     inkscape:connector-curvature="0" /></svg>