<?xml version="1.0" encoding="UTF-8" standalone="no"?>
<!-- Created with Inkscape (http://www.inkscape.org/) -->

<svg xmlns:dc="http://purl.org/dc/elements/1.1/" xmlns:cc="http://creativecommons.org/ns#" xmlns:rdf="http://www.w3.org/1999/02/22-rdf-syntax-ns#" xmlns:svg="http://www.w3.org/2000/svg" xmlns="http://www.w3.org/2000/svg" xmlns:sodipodi="http://sodipodi.sourceforge.net/DTD/sodipodi-0.dtd" xmlns:inkscape="http://www.inkscape.org/namespaces/inkscape" width="200" height="150" id="svg3640" version="1.1" inkscape:version="0.48.4 r9939" sodipodi:docname="Jugend trainiert für Olympia Logo">
  <g inkscape:label="Ebene 1" inkscape:groupmode="layer" id="layer1" transform="translate(-23,-853.36218)">
    <g transform="matrix(2.6353239,0,0,-2.6353239,-1234.6927,1134.7504)" id="g3515">
      <g id="g3820">
        <path id="path264" style="fill:#69f;stroke:none" d="m 477.3725,80.8633 c 1.342,1.063 4.617,3.047 6.097,3.694 0.369,2.684 1.298,7.243 2.13,9.602 0.602,-1.665 1.921,-5.006 2.939,-7.273 2.406,1.157 6.225,2.718 9.927,3.737 -1.865,-2.162 -5.811,-7.26 -7.102,-9.06 0.612,-1.392 3.981,-7.188 5.475,-9.736 -1.257,0.578 -7.979,3.4 -9.475,4.114 -1.292,-1.972 -3.874,-6.015 -5.08,-8.458 -0.102,3.569 0.12,8.91 0.325,10.778 -1.155,0.442 -3.743,1.708 -5.236,2.602" />
        <path id="path266" style="fill:#fc0;stroke:none" d="m 500.9145,80.7993 c 0.781,-1.086 5.249,-8.515 6.438,-10.248 2.549,0.782 9.402,2.609 12.019,3.289 -1.121,-1.427 -5.907,-7.351 -7.809,-9.696 1.053,-1.632 4.861,-7.48 6.831,-10.03 -4.009,1.361 -9.34,3.402 -11.582,4.394 -1.325,-1.734 -5.14,-6.437 -6.669,-8.373 -0.136,3.534 -0.112,9.817 -0.033,11.157 -2.961,1.138 -7.806,3.377 -10.155,4.544 3.193,0.9 7.871,2.127 10.352,2.772 0.034,2.785 0.329,8.58 0.608,12.191" />
        <path id="path268" style="fill:#393;stroke:none" d="m 520.1565,74.1153 c 1.863,0.498 9.04,2.436 11.935,3.134 -0.033,2.994 0.083,9.72 0.117,11.783 1.498,-2.129 5.472,-8.368 6.569,-10.097 1.597,0.466 7.232,1.956 9.129,2.42 -1.062,-1.731 -4.092,-6.467 -5.556,-8.497 1.531,-2.529 3.896,-7.301 4.895,-9.563 -1.796,0.765 -6.748,2.831 -9.044,3.763 -1.647,-2.123 -6.115,-7.805 -7.465,-9.533 0.299,2.361 0.84,8.128 0.94,12.154 -2.762,1.099 -8.991,3.504 -11.52,4.436" />
        <path id="path270" style="fill:#f00;stroke:none" d="m 529.2175,98.4773 c 2.625,0.485 7.141,1.013 9.605,1.175 -0.201,2.182 -0.721,4.936 -1.489,7.118 2.06,-1.776 4.776,-4.623 6.393,-6.965 1.051,-0.04 3.867,-0.062 5.805,-0.79 -0.365,-1.291 -1.479,-3.176 -2.086,-4.226 0.928,-1.211 3.942,-5.884 5.355,-8.791 -2.464,1.859 -5.371,3.627 -7.552,4.96 -1.252,-1.819 -3.941,-5.863 -5.435,-7.722 0,1.939 -0.184,7.639 -0.305,10.708 -3.19,1.576 -7.626,3.562 -10.291,4.533" />
        <path id="path272" style="fill:#000;stroke:none" d="m 508.9035,75.1993 c 0.329,6.223 0.806,11.668 0.897,12.327 -3.59,1.165 -7.419,2.454 -10.59,3.47 3.261,1.048 7.509,2.364 11.188,3.381 0.359,4.189 0.538,5.685 1.048,9.604 2.753,-3.261 4.246,-5.385 6.102,-7.809 3.172,0.777 6.403,1.466 11.071,2.274 -2.126,-2.394 -4.848,-5.474 -7.091,-7.959 2.275,-3.29 4.01,-5.536 6.791,-10.113 -5.295,2.184 -6.821,2.754 -11.458,4.489 -2.694,-3.322 -5.085,-6.194 -7.958,-9.664" />
      </g>
    </g>
  </g>
</svg>
