<?xml version="1.0" encoding="UTF-8" standalone="no"?>
<!-- Created with Inkscape (http://www.inkscape.org/) -->

<svg xmlns:dc="http://purl.org/dc/elements/1.1/" xmlns:cc="http://creativecommons.org/ns#" xmlns:rdf="http://www.w3.org/1999/02/22-rdf-syntax-ns#" xmlns:svg="http://www.w3.org/2000/svg" xmlns="http://www.w3.org/2000/svg" xmlns:sodipodi="http://sodipodi.sourceforge.net/DTD/sodipodi-0.dtd" xmlns:inkscape="http://www.inkscape.org/namespaces/inkscape" width="250" height="199" id="svg3640" version="1.1" inkscape:version="0.48.4 r9939" sodipodi:docname="Jugend trainiert für Olympia Logo">
  <g inkscape:label="Ebene 1" inkscape:groupmode="layer" id="layer1" transform="translate(0,-853.36218)">
    <g transform="matrix(2.6353239,0,0,-2.6353239,-1234.6927,1134.7504)" id="g3515">
      <g id="g3820">
        <path id="path264" style="fill:#69f;stroke:none" d="m 477.3725,80.8633 c 1.342,1.063 4.617,3.047 6.097,3.694 0.369,2.684 1.298,7.243 2.13,9.602 0.602,-1.665 1.921,-5.006 2.939,-7.273 2.406,1.157 6.225,2.718 9.927,3.737 -1.865,-2.162 -5.811,-7.26 -7.102,-9.06 0.612,-1.392 3.981,-7.188 5.475,-9.736 -1.257,0.578 -7.979,3.4 -9.475,4.114 -1.292,-1.972 -3.874,-6.015 -5.08,-8.458 -0.102,3.569 0.12,8.91 0.325,10.778 -1.155,0.442 -3.743,1.708 -5.236,2.602" />
        <path id="path266" style="fill:#fc0;stroke:none" d="m 500.9145,80.7993 c 0.781,-1.086 5.249,-8.515 6.438,-10.248 2.549,0.782 9.402,2.609 12.019,3.289 -1.121,-1.427 -5.907,-7.351 -7.809,-9.696 1.053,-1.632 4.861,-7.48 6.831,-10.03 -4.009,1.361 -9.34,3.402 -11.582,4.394 -1.325,-1.734 -5.14,-6.437 -6.669,-8.373 -0.136,3.534 -0.112,9.817 -0.033,11.157 -2.961,1.138 -7.806,3.377 -10.155,4.544 3.193,0.9 7.871,2.127 10.352,2.772 0.034,2.785 0.329,8.58 0.608,12.191" />
        <path id="path268" style="fill:#393;stroke:none" d="m 520.1565,74.1153 c 1.863,0.498 9.04,2.436 11.935,3.134 -0.033,2.994 0.083,9.72 0.117,11.783 1.498,-2.129 5.472,-8.368 6.569,-10.097 1.597,0.466 7.232,1.956 9.129,2.42 -1.062,-1.731 -4.092,-6.467 -5.556,-8.497 1.531,-2.529 3.896,-7.301 4.895,-9.563 -1.796,0.765 -6.748,2.831 -9.044,3.763 -1.647,-2.123 -6.115,-7.805 -7.465,-9.533 0.299,2.361 0.84,8.128 0.94,12.154 -2.762,1.099 -8.991,3.504 -11.52,4.436" />
        <path id="path270" style="fill:#f00;stroke:none" d="m 529.2175,98.4773 c 2.625,0.485 7.141,1.013 9.605,1.175 -0.201,2.182 -0.721,4.936 -1.489,7.118 2.06,-1.776 4.776,-4.623 6.393,-6.965 1.051,-0.04 3.867,-0.062 5.805,-0.79 -0.365,-1.291 -1.479,-3.176 -2.086,-4.226 0.928,-1.211 3.942,-5.884 5.355,-8.791 -2.464,1.859 -5.371,3.627 -7.552,4.96 -1.252,-1.819 -3.941,-5.863 -5.435,-7.722 0,1.939 -0.184,7.639 -0.305,10.708 -3.19,1.576 -7.626,3.562 -10.291,4.533" />
        <path id="path272" style="fill:#000;stroke:none" d="m 508.9035,75.1993 c 0.329,6.223 0.806,11.668 0.897,12.327 -3.59,1.165 -7.419,2.454 -10.59,3.47 3.261,1.048 7.509,2.364 11.188,3.381 0.359,4.189 0.538,5.685 1.048,9.604 2.753,-3.261 4.246,-5.385 6.102,-7.809 3.172,0.777 6.403,1.466 11.071,2.274 -2.126,-2.394 -4.848,-5.474 -7.091,-7.959 2.275,-3.29 4.01,-5.536 6.791,-10.113 -5.295,2.184 -6.821,2.754 -11.458,4.489 -2.694,-3.322 -5.085,-6.194 -7.958,-9.664" />
      </g>
      <g id="g3767" style="fill:#000000;stroke:none">
        <path id="path274" d="m 477.2825,49.0433 c 0,-0.505 -0.137,-1.327 -1.305,-1.327 -0.652,0 -1.288,0.357 -1.288,1.212 l 0,0.34 0.778,0 0,-0.176 c 0,-0.378 0.094,-0.652 0.499,-0.652 0.455,0 0.455,0.367 0.455,0.641 l 0,2.643 0.861,0" />
        <path id="path276" d="m 481.3615,49.2903 c 0,-1.058 -0.625,-1.573 -1.672,-1.573 -1.053,0 -1.667,0.509 -1.667,1.573 l 0,2.434 0.861,0 0,-2.434 c 0,-0.428 0.11,-0.85 0.806,-0.85 0.614,0 0.811,0.269 0.811,0.85 l 0,2.434 0.861,0" />
        <path id="path278" d="m 484.9305,48.2543 c -0.302,-0.389 -0.696,-0.537 -1.075,-0.537 -1.211,0 -1.924,0.904 -1.924,2.034 0,1.162 0.713,2.066 1.924,2.066 0.801,0 1.558,-0.493 1.651,-1.381 l -0.823,0 c -0.099,0.433 -0.422,0.658 -0.828,0.658 -0.773,0 -1.063,-0.658 -1.063,-1.343 0,-0.653 0.29,-1.311 1.063,-1.311 0.56,0 0.883,0.302 0.932,0.845 l -0.866,0 0,0.641 1.645,0 0,-2.116 -0.548,0" />
        <path id="path280" d="m 486.2625,51.7243 2.928,0 0,-0.724 -2.067,0 0,-0.839 1.897,0 0,-0.669 -1.897,0 0,-0.959 2.111,0 0,-0.724 -2.972,0" />
        <path id="path282" d="m 489.8155,51.7243 0.855,0 1.634,-2.626 0.011,0 0,2.626 0.806,0 0,-3.915 -0.861,0 -1.628,2.621 -0.011,0 0,-2.621 -0.806,0" />
        <path id="path284" d="m 493.8775,51.7243 1.689,0 c 1.014,0 1.776,-0.636 1.776,-1.935 0,-1.135 -0.581,-1.98 -1.776,-1.98 l -1.689,0 0,3.915 z m 0.861,-3.191 0.767,0 c 0.499,0 0.976,0.307 0.976,1.173 0,0.79 -0.2739,1.294 -1.129,1.294 l -0.614,0" />
        <path id="path286" d="m 469.6895,45.5183 -1.173,0 0,0.724 3.207,0 0,-0.724 -1.173,0 0,-3.191 -0.861,0" />
        <path id="path288" d="m 472.1735,46.2423 2.111,0 c 0.701,0 1.146,-0.488 1.146,-1.08 0,-0.461 -0.187,-0.806 -0.62,-0.982 l 0,-0.011 c 0.422,-0.109 0.543,-0.521 0.57,-0.915 0.017,-0.247 0.011,-0.707 0.165,-0.927 l -0.861,0 c -0.104,0.247 -0.093,0.625 -0.137,0.938 -0.06,0.411 -0.219,0.592 -0.653,0.592 l -0.86,0 0,-1.53 -0.861,0 0,3.915 z m 0.861,-1.771 0.943,0 c 0.383,0 0.592,0.164 0.592,0.559 0,0.379 -0.209,0.543 -0.592,0.543 l -0.943,0" />
        <path id="path290" d="m 477.2005,46.2423 0.883,0 1.464,-3.915 -0.894,0 -0.296,0.872 -1.464,0 -0.307,-0.872 -0.872,0 1.486,3.915 z m -0.082,-2.402 1.014,0 -0.493,1.437 -0.011,0" />
        <path id="path292" d="m 479.8875,42.3273 0.861,0 0,3.915 -0.861,0 0,-3.915 z" />
        <path id="path294" d="m 481.5045,46.2423 0.855,0 1.634,-2.626 0.011,0 0,2.626 0.806,0 0,-3.915 -0.861,0 -1.628,2.621 -0.011,0 0,-2.621 -0.806,0" />
        <path id="path296" d="m 485.5675,42.3273 0.861,0 0,3.915 -0.861,0 0,-3.915 z" />
        <path id="path298" d="m 487.1845,46.2423 2.928,0 0,-0.724 -2.067,0 0,-0.839 1.897,0 0,-0.669 -1.897,0 0,-0.959 2.11,0 0,-0.724 -2.971,0" />
        <path id="path300" d="m 490.7375,46.2423 2.111,0 c 0.702,0 1.145,-0.488 1.145,-1.08 0,-0.461 -0.186,-0.806 -0.619,-0.982 l 0,-0.011 c 0.422,-0.109 0.543,-0.521 0.57,-0.915 0.017,-0.247 0.011,-0.707 0.165,-0.927 l -0.861,0 c -0.104,0.247 -0.093,0.625 -0.137,0.938 -0.061,0.411 -0.219,0.592 -0.652,0.592 l -0.861,0 0,-1.53 -0.861,0 0,3.915 z m 0.861,-1.771 0.943,0 c 0.383,0 0.592,0.164 0.592,0.559 0,0.379 -0.209,0.543 -0.592,0.543 l -0.943,0" />
        <path id="path302" d="m 495.4625,45.5183 -1.173,0 0,0.724 3.207,0 0,-0.724 -1.173,0 0,-3.191 -0.861,0" />
        <path id="path304" d="m 486.6645,40.7593 2.752,0 0,-0.724 -1.891,0 0,-0.905 1.6391,0 0,-0.669 -1.6391,0 0,-1.617 -0.8609,0" />
        <path id="path306" d="m 493.2385,38.3253 c 0,-1.058 -0.625,-1.574 -1.672,-1.574 -1.053,0 -1.667,0.51 -1.667,1.574 l 0,2.434 0.861,0 0,-2.434 c 0,-0.428 0.11,-0.85 0.806,-0.85 0.614,0 0.811,0.269 0.811,0.85 l 0,2.434 0.861,0 0,-2.434 z m -2.604,3.514 0.74,0 0,-0.642 -0.74,0 0,0.642 z m 1.129,0 0.74,0 0,-0.642 -0.74,0" />
        <path id="path308" d="m 493.9785,40.7593 2.111,0 c 0.702,0 1.146,-0.488 1.146,-1.08 0,-0.461 -0.187,-0.806 -0.62,-0.982 l 0,-0.011 c 0.422,-0.109 0.543,-0.521 0.57,-0.915 0.017,-0.247 0.011,-0.707 0.165,-0.927 l -0.861,0 c -0.104,0.247 -0.093,0.625 -0.137,0.938 -0.06,0.411 -0.219,0.592 -0.652,0.592 l -0.861,0 0,-1.53 -0.861,0 0,3.915 z m 0.861,-1.771 0.943,0 c 0.383,0 0.592,0.164 0.592,0.559 0,0.379 -0.209,0.543 -0.592,0.543 l -0.943,0" />
        <path id="path310" d="m 475.1275,35.3693 c 1.212,0 1.925,-0.904 1.925,-2.067 0,-1.129 -0.713,-2.034 -1.925,-2.034 -1.212,0 -1.924,0.905 -1.924,2.034 0,1.163 0.712,2.067 1.924,2.067 m 0,-3.377 c 0.773,0 1.064,0.658 1.064,1.31 0,0.685 -0.291,1.344 -1.064,1.344 -0.773,0 -1.064,-0.659 -1.064,-1.344 0,-0.652 0.291,-1.31 1.064,-1.31" />
        <path id="path312" d="m 477.6385,35.2773 0.861,0 0,-3.191 1.908,0 0,-0.724 -2.769,0" />
        <path id="path314" d="m 481.2955,32.8863 -1.442,2.391 0.97,0 0.916,-1.546 0.91,1.546 0.96,0 -1.453,-2.413 0,-1.502 -0.861,0" />
        <path id="path316" d="m 483.9385,35.2773 1.212,0 0.915,-2.692 0.011,0 0.866,2.692 1.212,0 0,-3.915 -0.806,0 0,2.774 -0.011,0 -0.959,-2.774 -0.664,0 -0.959,2.747 -0.011,0 0,-2.747 -0.806,0" />
        <path id="path318" d="m 488.9105,35.2773 1.765,0 c 0.9761,0 1.355,-0.619 1.355,-1.255 0,-0.637 -0.3789,-1.256 -1.355,-1.256 l -0.904,0 0,-1.404 -0.8609,0 -10e-5,3.915 z m 0.861,-1.843 0.669,0 c 0.4,0 0.756,0.088 0.756,0.588 0,0.498 -0.356,0.586 -0.756,0.586 l -0.669,0" />
        <path id="path320" d="m 492.5675,31.3623 0.861,0 0,3.915 -0.861,0 0,-3.915 z" />
        <path id="path322" d="m 495.2535,35.2773 0.883,0 1.464,-3.915 -0.894,0 -0.296,0.872 -1.464,0 -0.307,-0.872 -0.872,0 1.486,3.915 z m -0.082,-2.402 1.014,0 -0.493,1.437 -0.011,0" />
        <path id="path324" d="m 503.8575,51.7243 1.42,0 c 0.347,0 0.802,0 1.037,-0.143 0.258,-0.153 0.461,-0.433 0.461,-0.816 0,-0.417 -0.219,-0.73 -0.582,-0.878 l 0,-0.011 c 0.483,-0.099 0.746,-0.46 0.746,-0.942 0,-0.576 -0.411,-1.125 -1.189,-1.125 l -1.892,0 -10e-4,3.915 z m 0.522,-1.683 1.042,0 c 0.592,0 0.833,0.214 0.833,0.625 0,0.542 -0.384,0.619 -0.833,0.619 l -1.042,0 0,-1.244 z m 0,-1.793 1.305,0 c 0.449,0 0.734,0.274 0.734,0.702 0,0.51 -0.411,0.652 -0.849,0.652 l -1.19,0" />
        <path id="path326" d="m 510.7385,49.2243 c 0,-0.987 -0.565,-1.508 -1.541,-1.508 -1.008,0 -1.6059,0.466 -1.6059,1.508 l 0,2.5 0.5209,0 0,-2.5 c 0,-0.691 0.3941,-1.069 1.085,-1.069 0.658,0 1.02,0.378 1.02,1.069 l 0,2.5 0.521,0" />
        <path id="path328" d="m 511.5665,51.7243 0.554,0 2.061,-3.175 0.0111,0 0,3.175 0.4929,0 0,-3.915 -0.57,0 -2.045,3.142 -0.0111,0 0,-3.142 -0.493,0" />
        <path id="path330" d="m 515.5305,51.7243 1.343,0 c 1.206,0 1.881,-0.603 1.881,-1.864 0,-1.311 -0.576,-2.051 -1.881,-2.051 l -1.343,0 0,3.915 z m 0.521,-3.476 0.866,0 c 0.3561,0 1.316,0.098 1.316,1.541 0,0.931 -0.345,1.496 -1.305,1.496 l -0.877,0" />
        <path id="path332" d="m 519.3905,51.7243 2.703,0 0,-0.439 -2.182,0 0,-1.244 2.033,0 0,-0.439 -2.033,0 0,-1.354 2.198,0 0,-0.439 -2.719,0" />
        <path id="path334" d="m 525.0045,50.5783 c -0.061,0.559 -0.433,0.801 -0.97,0.801 -0.439,0 -0.878,-0.159 -0.878,-0.669 0,-0.483 0.625,-0.554 1.256,-0.696 0.625,-0.143 1.25,-0.363 1.25,-1.13 0,-0.834 -0.817,-1.168 -1.53,-1.168 -0.877,0 -1.617,0.428 -1.617,1.382 l 0.493,0 c 0,-0.658 0.548,-0.943 1.141,-0.943 0.472,0 0.992,0.148 0.992,0.712 0,0.538 -0.625,0.631 -1.25,0.768 -0.625,0.137 -1.256,0.318 -1.256,1.036 0,0.795 0.708,1.146 1.421,1.146 0.8,0 1.409,-0.378 1.441,-1.239" />
        <path id="path336" d="m 529.8285,47.8093 -0.543,0 -0.894,3.289 -0.01,0 -0.905,-3.289 -0.542,0 -1.004,3.915 0.532,0 0.767,-3.257 0.011,0 0.878,3.257 0.5641,0 0.8669,-3.257 0.011,0 0.795,3.257 0.52,0" />
        <path id="path338" d="m 531.3695,51.7243 2.703,0 0,-0.439 -2.182,0 0,-1.244 2.034,0 0,-0.439 -2.034,0 0,-1.354 2.199,0 0,-0.439 -2.72,0" />
        <path id="path340" d="m 535.6075,51.2853 -1.305,0 0,0.439 3.131,0 0,-0.439 -1.305,0 0,-3.476 -0.521,0" />
        <path id="path342" d="m 538.7545,51.2853 -1.305,0 0,0.439 3.131,0 0,-0.439 -1.305,0 0,-3.476 -0.521,0" />
        <path id="path344" d="m 541.0135,51.7243 1.42,0 c 0.346,0 0.8,0 1.036,-0.143 0.258,-0.153 0.461,-0.433 0.461,-0.816 0,-0.417 -0.22,-0.73 -0.581,-0.878 l 0,-0.011 c 0.482,-0.099 0.745,-0.46 0.745,-0.942 0,-0.576 -0.411,-1.125 -1.189,-1.125 l -1.8921,0 10e-5,3.915 z m 0.521,-1.683 1.042,0 c 0.591,0 0.833,0.214 0.833,0.625 0,0.542 -0.384,0.619 -0.833,0.619 l -1.042,0 0,-1.244 z m 0,-1.793 1.305,0 c 0.449,0 0.734,0.274 0.734,0.702 0,0.51 -0.411,0.652 -0.849,0.652 l -1.19,0" />
        <path id="path346" d="m 544.7685,51.7243 2.703,0 0,-0.439 -2.182,0 0,-1.244 2.034,0 0,-0.439 -2.034,0 0,-1.354 2.198,0 0,-0.439 -2.719,0" />
        <path id="path348" d="m 551.6545,47.8093 -0.543,0 -0.894,3.289 -0.011,0 -0.904,-3.289 -0.543,0 -1.003,3.915 0.532,0 0.767,-3.257 0.011,0 0.877,3.257 0.565,0 0.867,-3.257 0.01,0 0.7951,3.257 0.521,0" />
        <path id="path350" d="m 553.1955,51.7243 2.703,0 0,-0.439 -2.182,0 0,-1.244 2.034,0 0,-0.439 -2.034,0 0,-1.354 2.198,0 0,-0.439 -2.719,0" />
        <path id="path352" d="m 556.5455,51.7243 1.842,0 c 0.735,0 1.19,-0.4 1.19,-1.025 0,-0.472 -0.209,-0.861 -0.68,-0.993 l 0,-0.011 c 0.455,-0.088 0.548,-0.422 0.587,-0.806 0.033,-0.383 0.01,-0.811 0.23,-1.08 l -0.581,0 c -0.149,0.16 -0.066,0.581 -0.143,0.965 -0.055,0.384 -0.148,0.707 -0.652,0.707 l -1.272,0 0,-1.672 -0.521,0 0,3.915 z m 1.606,-1.804 c 0.488,0 0.905,0.126 0.905,0.696 0,0.384 -0.209,0.669 -0.697,0.669 l -1.293,0 0,-1.365" />
        <path id="path354" d="m 560.3005,51.7243 1.42,0 c 0.345,0 0.8,0 1.036,-0.143 0.258,-0.153 0.461,-0.433 0.461,-0.816 0,-0.417 -0.22,-0.73 -0.581,-0.878 l 0,-0.011 c 0.482,-0.099 0.745,-0.46 0.745,-0.942 0,-0.576 -0.411,-1.125 -1.189,-1.125 l -1.892,0 0,3.915 z m 0.521,-1.683 1.042,0 c 0.592,0 0.833,0.214 0.833,0.625 0,0.542 -0.3839,0.619 -0.833,0.619 l -1.042,0 0,-1.244 z m 0,-1.793 1.305,0 c 0.449,0 0.734,0.274 0.734,0.702 0,0.51 -0.411,0.652 -0.849,0.652 l -1.19,0" />
        <path id="path356" d="m 503.8575,46.2423 1.343,0 c 1.207,0 1.881,-0.603 1.881,-1.864 0,-1.311 -0.576,-2.051 -1.881,-2.051 l -1.343,0 0,3.915 z m 0.522,-3.476 0.866,0 c 0.357,0 1.316,0.098 1.316,1.541 0,0.931 -0.345,1.496 -1.305,1.496 l -0.877,0" />
        <path id="path358" d="m 507.7175,46.2423 2.703,0 0,-0.439 -2.182,0 0,-1.244 2.034,0 0,-0.439 -2.034,0 0,-1.354 2.198,0 0,-0.439 -2.719,0" />
        <path id="path360" d="m 511.0675,46.2423 1.842,0 c 0.735,0 1.19,-0.4 1.19,-1.025 0,-0.472 -0.209,-0.861 -0.68,-0.993 l 0,-0.011 c 0.455,-0.088 0.548,-0.422 0.587,-0.806 0.033,-0.383 0.01,-0.811 0.23,-1.08 l -0.581,0 c -0.148,0.16 -0.066,0.581 -0.143,0.965 -0.055,0.384 -0.147,0.707 -0.652,0.707 l -1.272,0 0,-1.672 -0.521,0 0,3.915 z m 1.607,-1.804 c 0.487,0 0.904,0.126 0.904,0.696 0,0.384 -0.208,0.669 -0.696,0.669 l -1.294,0 0,-1.365" />
        <path id="path362" d="m 518.6115,45.0963 c -0.06,0.559 -0.433,0.801 -0.97,0.801 -0.438,0 -0.877,-0.159 -0.877,-0.669 0,-0.483 0.625,-0.554 1.255,-0.696 0.625,-0.143 1.25,-0.363 1.25,-1.13 0,-0.834 -0.817,-1.168 -1.53,-1.168 -0.876,0 -1.617,0.428 -1.617,1.382 l 0.494,0 c 0,-0.658 0.548,-0.943 1.14,-0.943 0.472,0 0.993,0.148 0.993,0.713 0,0.537 -0.625,0.63 -1.251,0.767 -0.624,0.137 -1.255,0.318 -1.255,1.036 0,0.795 0.707,1.146 1.42,1.146 0.801,0 1.409,-0.378 1.442,-1.239" />
        <path id="path364" d="m 522.6515,45.0633 c -0.109,0.553 -0.553,0.833 -1.096,0.833 -0.932,0 -1.327,-0.767 -1.327,-1.584 0,-0.894 0.395,-1.639 1.3319,-1.639 0.6851,0 1.0811,0.482 1.1301,1.129 l 0.52,0 c -0.098,-0.976 -0.706,-1.568 -1.694,-1.568 -1.216,0 -1.809,0.899 -1.809,2.039 0,1.136 0.6469,2.062 1.853,2.062 0.818,0 1.492,-0.439 1.612,-1.272" />
        <path id="path366" d="m 523.8585,46.2423 0.521,0 0,-1.683 2.062,0 0,1.683 0.52,0 0,-3.915 -0.52,0 0,1.793 -2.062,0 0,-1.793 -0.521,0" />
        <path id="path368" d="m 530.9415,43.7423 c 0,-0.987 -0.564,-1.508 -1.541,-1.508 -1.009,0 -1.606,0.466 -1.606,1.508 l 0,2.5 0.521,0 0,-2.5 c 0,-0.691 0.395,-1.069 1.085,-1.069 0.658,0 1.02,0.378 1.02,1.069 l 0,2.5 0.521,0" />
        <path id="path370" d="m 531.7745,46.2423 0.521,0 0,-3.476 2.073,0 0,-0.439 -2.594,0" />
        <path id="path372" d="m 534.8225,46.2423 2.703,0 0,-0.439 -2.182,0 0,-1.244 2.034,0 0,-0.439 -2.034,0 0,-1.354 2.199,0 0,-0.439 -2.72,0" />
        <path id="path374" d="m 538.1675,46.2423 0.554,0 2.061,-3.175 0.0111,0 0,3.175 0.493,0 0,-3.915 -0.57,0 -2.0451,3.142 -0.011,0 0,-3.142 -0.493,0" />
      </g>
    </g>
  </g>
</svg>
