<?xml version="1.0" encoding="utf-8"?>
<!-- Generator: Adobe Illustrator 24.2.3, SVG Export Plug-In . SVG Version: 6.00 Build 0)  -->
<svg version="1.1" id="Logo" xmlns="http://www.w3.org/2000/svg" xmlns:xlink="http://www.w3.org/1999/xlink" x="0px" y="0px"
	 viewBox="0 0 300 80" style="enable-background:new 0 0 300 80;" xml:space="preserve">
<g>
	<path d="M45,40.2c0,12.5-10.1,22.6-22.5,22.6S0,52.8,0,40.2s10.1-22.6,22.5-22.6S45,27.7,45,40.2"/>
	<path d="M69.7,40.2c0,11.8-5,21.3-11.2,21.3c-6.2,0-11.2-9.5-11.2-21.3s5-21.3,11.2-21.3C64.6,18.9,69.7,28.5,69.7,40.2"/>
	<path d="M79.7,40.2c0,10.5-1.8,19.1-4,19.1s-4-8.6-4-19.1s1.8-19.1,4-19.1C78,21.1,79.7,29.7,79.7,40.2"/>
	<path d="M141.8,19.6L141.8,19.6l0.1-0.5h-12.8L117.2,47l-11.9-27.9H91.5v0.5l0.1,0c2.3,0.5,3.5,1.3,3.5,4.1v33.2
		c0,2.8-1.2,3.6-3.5,4.1l-0.1,0v0.5h9.4v-0.5l-0.1,0c-2.3-0.5-3.5-1.3-3.5-4.1V25.6l15.3,35.9h0.9l15.7-36.9v33.1
		c-0.2,2.2-1.4,2.9-3.5,3.4l-0.1,0v0.5h16.3v-0.5l-0.1,0c-2.1-0.5-3.3-1.2-3.5-3.4l0-34h0C138.3,20.9,139.5,20.1,141.8,19.6
		 M149.3,41.5c0.3-6,2.4-10.3,6-10.3c1.1,0,2,0.4,2.8,1.1c1.5,1.5,2.3,4.6,2.1,9.3H149.3z M149.1,43.2h19.1v-0.1
		c-0.1-4.6-1.4-8.1-3.9-10.5c-2.2-2.1-5.5-3.3-8.9-3.3h-0.1c-1.8,0-4,0.4-5.5,1.2c-1.8,0.8-3.3,2-4.6,3.6c-2.1,2.6-3.3,6.1-3.7,10
		c0,0.1,0,0.2,0,0.4c0,0.1,0,0.2,0,0.3c0,0.2,0,0.4,0,0.6c0,0.3,0,0.7,0,1c0.2,8.9,5,16,13.5,16c7.5,0,11.8-5.5,12.9-12.8l-0.5-0.2
		c-1.9,3.9-5.3,6.3-9.2,6C152.8,55.2,148.7,49.8,149.1,43.2 M189.8,55.3c-0.6,1.5-1.9,2.3-3.7,2.3c-1.8,0-3.4-1.2-4.5-3.4
		c-1.2-2.3-1.9-5.7-1.9-9.6c0-8.2,2.5-13.5,6.5-13.5c1.6,0,2.9,0.8,3.6,2.2V55.3z M202.4,61.1c-2.3-0.6-3.5-1.4-3.5-4.4V17.1
		l-14.2,4.2v0.5l0.1,0c2-0.2,3.3,0.1,4.1,0.8c0.6,0.6,0.9,1.4,0.9,2.6v5.4c-1.4-0.9-3.1-1.3-5.1-1.3c-4.1,0-7.8,1.7-10.5,4.9
		c-2.8,3.3-4.3,7.7-4.3,12.9c0,9.2,4.5,15.4,11.3,15.4c4,0,7.1-2.2,8.6-5.8v4.9h12.7L202.4,61.1L202.4,61.1z M214.6,22.5
		c0-2.9-2.2-5.1-5.1-5.1c-2.9,0-5.1,2.2-5.1,5.1s2.2,5.1,5.1,5.1C212.4,27.6,214.6,25.4,214.6,22.5 M217.9,61.1
		c-2.3-0.6-3.5-1.4-3.5-4.4h0V29.4l-12.7,3.7v0.5l0.1,0c2.8,0.2,3.5,1.2,3.5,4.4v23.6H218L217.9,61.1L217.9,61.1z M250.6,61.1
		c-2.3-0.6-3.5-1.4-3.5-4.4V29.4L234.9,33v0.5l0.1,0c2.3,0.2,2.9,1.2,2.9,4.5v17.3c-0.8,1.5-2.2,2.4-3.9,2.4c-2.8,0-4.3-1.9-4.3-5.3
		V29.4L217,33.1v0.5l0.1,0c2.8,0.2,3.5,1.2,3.5,4.4v14.6c0,1,0.1,2,0.3,3l0.2,1c1.1,3.9,3.9,5.9,8.3,5.9c3.7,0,7-2.3,8.5-5.9v5h12.7
		L250.6,61.1L250.6,61.1z M300,61.6v-0.5l-0.1,0c-2.5-0.6-3.5-1.7-3.5-3.9V38.6c0-5.8-3.3-9.2-8.7-9.2c-4,0-7.3,2.3-8.6,5.9
		c-1-3.8-4-5.9-8.3-5.9c-3.8,0-6.8,2-8.1,5.4v-5.3l-12.7,3.5v0.5l0.1,0c2.7,0.2,3.5,1.2,3.5,4.4v23.8h11.9v-0.5l-0.1,0
		c-2-0.5-2.7-1.3-2.7-3.6V36.2c0.5-1.2,1.6-2.7,3.7-2.7c2.6,0,4,1.8,4,5.4v22.7h11.9v-0.5l-0.1,0c-2-0.5-2.7-1.3-2.7-3.6V38.6
		c0-0.7-0.1-1.4-0.2-2.1c0.6-1.4,1.7-3,3.9-3c2.7,0,4,1.8,4,5.4v22.7H300z"/>
</g>
</svg>
