<?xml version="1.0" encoding="UTF-8" standalone="no"?>
<!-- Created with Inkscape (http://www.inkscape.org/) -->

<svg
   width="1856"
   height="284"
   viewBox="0 0 491.06667 75.141664"
   version="1.1"
   id="svg5"
   xmlns="http://www.w3.org/2000/svg"
   xmlns:svg="http://www.w3.org/2000/svg">
  <defs
     id="defs2" />
  <g
     id="layer1">
    <path
       style="fill:#000000;fill-opacity:1"
       d="m 73.62375,37.865 c 0,20.47 -16.48125,37.065 -36.8125,37.065 C 16.48,74.93 0,58.34 0,37.865 0,17.39 16.48125,0.80125 36.81125,0.80125 c 20.33,0 36.8125,16.59375 36.8125,37.06375 m 40.38375,0 c 0,19.27 -8.24125,34.89 -18.40625,34.89 -10.165,0 -18.40625,-15.625 -18.40625,-34.89 0,-19.265 8.24125,-34.89 18.40625,-34.89 10.165,0 18.40625,15.625 18.40625,34.89 m 16.5175,0 c 0,17.265 -2.89875,31.26 -6.47375,31.26 -3.575,0 -6.47375,-14 -6.47375,-31.26 0,-17.26 2.89875,-31.26 6.475,-31.26 3.57625,0 6.4725,13.99625 6.4725,31.26 m 101.59625,-33.85 0.1025,-0.0225 V 3.19875 h -20.935 L 191.85,48.88625 172.41125,3.19875 h -22.56 V 3.9925 l 0.10125,0.0225 c 3.82125,0.8625 5.76125,2.14875 5.76125,6.7875 v 54.30625 c 0,4.63875 -1.9475,5.925 -5.76875,6.7875 l -0.10125,0.0225 V 72.715 H 165.15 v -0.79375 l -0.10125,-0.0225 C 161.2275,71.03625 159.2875,69.75 159.2875,65.11125 V 13.9525 L 184.25875,72.715 H 185.675 L 211.37375,12.31375 V 66.4525 c -0.3275,3.66375 -2.25,4.795 -5.71,5.57625 l -0.1025,0.02375 V 72.84 h 26.6625 v -0.7875 l -0.1025,-0.02375 c -3.46375,-0.78125 -5.4325,-1.9125 -5.76,-5.57625 l -0.0175,-55.65 h 0.0175 c 0,-4.63875 1.94,-5.925 5.76,-6.7875 M 244.3,39.99 c 0.43625,-9.7575 3.94,-16.8 9.82,-16.92125 1.81375,0.03 3.335,0.625 4.5175,1.77 2.5125,2.43875 3.69375,7.535 3.51125,15.15125 z m -0.26375,2.75 h 31.25 v -0.13125 c -0.0888,-7.46125 -2.25,-13.265 -6.4175,-17.25 C 265.26625,21.915 259.9325,20.02 254.33,20.02 h -0.125 c -2.9075,0 -6.47375,0.705 -9.01125,1.9825 -2.88875,1.3375 -5.43625,3.3375 -7.55625,5.9625 -3.4125,4.22875 -5.48,9.94375 -5.9825,16.36625 -0.0163,0.1925 -0.03,0.385 -0.0437,0.5775 -0.0138,0.1925 -0.0225,0.365 -0.0312,0.54875 a 41.58,41.58 0 0 0 -0.045,2.71125 C 231.87375,62.715 239.73125,74.34 253.6875,74.34 c 12.25,0 19.38375,-8.955 21.1625,-20.975 l -0.89875,-0.31625 c -3.125,6.46 -8.7375,10.375 -15.125,9.8975 -8.72,-0.6525 -15.4,-9.49375 -14.79375,-20.20375 m 66.58625,19.71 c -1.025,2.43125 -3.16375,3.76875 -6.03,3.76875 -2.86625,0 -5.48625,-1.9675 -7.3475,-5.5425 -2,-3.8375 -3.0525,-9.2625 -3.0525,-15.68875 0,-13.375 4.16,-22.02625 10.59875,-22.02625 2.69625,0 4.81875,1.3375 5.83125,3.67125 z m 20.73,9.535 c -3.82125,-0.90375 -5.76125,-2.25 -5.76125,-7.125 V 0 l -23.21625,6.84 v 0.8375 l 0.1425,-0.01125 c 3.2025,-0.25875 5.375,0.18375 6.63625,1.34875 0.9875,0.9125 1.46875,2.3125 1.46875,4.2825 V 22.19 c -2.28875,-1.46125 -5.01125,-2.1725 -8.315,-2.1725 -6.7,0 -12.82375,2.82125 -17.24,7.945 -4.60375,5.34 -7.0375,12.6375 -7.0375,21.10125 -0.002,15.11625 7.44,25.27625 18.515,25.27625 6.47875,0 11.69125,-3.55 14.0775,-9.5375 V 72.84 H 331.45 V 72.0075 Z M 351.26,8.82125 c 0,-4.72 -3.55875,-8.28 -8.28,-8.28 -4.69875,0 -8.375,3.6375 -8.375,8.28 0,4.6425 3.68,8.28 8.375,8.28 4.72125,0 8.28,-3.56 8.28,-8.28 m 5.48,63.16625 c -3.82125,-0.90375 -5.76125,-2.25 -5.76125,-7.125 h -0.0163 V 20.17125 L 330.13,26.1525 v 0.8125 l 0.125,0.01125 c 4.5075,0.40125 5.74125,1.95375 5.74125,7.22125 V 72.84 h 20.85 v -0.8325 z m 53.38125,0 C 406.3,71.08375 404.36,69.7375 404.36,64.8625 V 20.17125 L 384.525,25.955 v 0.815 l 0.1175,0.0125 c 3.685,0.3875 4.75,2.02875 4.75,7.32 v 28.25 c -1.22875,2.43125 -3.53375,3.875 -6.32625,3.9725 -4.52875,0 -7.0225,-3.05875 -7.0225,-8.6125 v -37.54 l -20.8325,5.98125 V 26.965 l 0.125,0.01125 c 4.5075,0.4 5.7425,1.9525 5.7425,7.22125 v 23.90875 a 26.81,26.81 0 0 0 0.43375,4.9775 l 0.375,1.63125 c 1.76375,6.32 6.385,9.625 13.625,9.625 6.1325,0 11.5075,-3.79625 13.875,-9.73625 v 8.25 H 410.22 v -0.8325 z M 491.05,72.84 v -0.83375 l -0.10125,-0.02375 c -4.14625,-0.95625 -5.76125,-2.75875 -5.76125,-6.42875 v -30.4 c 0,-9.47875 -5.32375,-15.13625 -14.24125,-15.13625 -6.5,0 -11.98125,3.75625 -14.09125,9.6075 -1.67625,-6.2 -6.5,-9.6075 -13.6325,-9.6075 -6.265,0 -11.175,3.30625 -13.28125,8.89125 V 20.175 l -20.8325,5.73625 v 0.8175 l 0.125,0.01125 c 4.45375,0.395 5.74125,1.9925 5.74125,7.125 V 72.84 h 19.4375 v -0.8325 l -0.1025,-0.025 c -3.3075,-0.7775 -4.375,-2.195 -4.375,-5.8325 V 31.305 c 0.875,-2.04375 2.63875,-4.465 6.125,-4.465 4.33,0 6.525,3 6.525,8.91 v 37.09 h 19.4425 v -0.8325 l -0.1025,-0.025 C 458.6175,71.205 457.55,69.7875 457.55,66.15 v -31 a 20.05625,20.05625 0 0 0 -0.275,-3.46 c 0.9275,-2.22125 2.7925,-4.85 6.42125,-4.85 4.39125,0 6.525,2.91375 6.525,8.91 v 37.09 z"
       id="path857" />
  </g>
</svg>
