<?xml version="1.0" encoding="UTF-8" standalone="no"?><!-- Generator: Gravit.io --><svg xmlns="http://www.w3.org/2000/svg" xmlns:xlink="http://www.w3.org/1999/xlink" style="isolation:isolate" viewBox="0 0 840 877" width="840pt" height="877pt"><defs><clipPath id="_clipPath_kBZHOkMzy6XKFnw2mOSQAMflXJIF4cf1"><rect width="840" height="877"/></clipPath></defs><g clip-path="url(#_clipPath_kBZHOkMzy6XKFnw2mOSQAMflXJIF4cf1)"><rect width="840" height="877" style="fill:rgb(0,0,0)" fill-opacity="0"/><g><path d=" M 418.956 643.764 C 446.211 627.087 480.076 625.832 511.994 620.094 C 553.877 617.097 586.384 582.31 586.563 540.325 L 586.563 197.22 L 251.527 197.22 L 251.527 540.325 C 251.707 582.336 284.214 617.097 326.096 620.094 C 358.014 624.936 391.879 627.087 418.956 643.764 Z " fill-rule="evenodd" fill="rgb(255,255,255)"/><path d=" M 588.536 358.552 L 466.833 358.552 L 466.833 192.378 L 371.284 192.378 L 371.284 358.552 L 247.403 358.552 L 247.403 454.1 L 371.284 454.1 L 371.284 631.749 L 418.956 648.784 L 466.833 631.749 L 466.833 454.1 L 588.536 454.1 L 588.536 358.552 Z " fill="rgb(225,6,19)"/><path d=" M 174.627 147.371 C 186.257 169.964 184.464 197.143 169.965 217.995 C 164.637 226.218 158.105 233.57 150.599 239.871 C 135.716 251.501 123.497 266.179 114.736 282.907 L 114.736 282.907 L 114.736 282.907 C 118.271 267.127 123.369 251.757 129.978 237.002 C 138.124 220.531 147.525 204.7 158.13 189.689 C 159.949 186.41 160.718 182.644 160.282 178.93 C 159.59 178.597 158.822 178.597 158.13 178.93 C 151.982 184.104 146.603 190.15 142.171 196.861 C 133.923 208.209 126.622 220.198 120.295 232.724 L 120.295 232.724 L 120.295 232.724 C 113.712 246.506 108.307 260.851 104.157 275.58 L 104.157 277.732 C 102.902 265.359 96.984 254.959 95.37 242.766 C 100.186 214.844 115.505 189.817 138.226 172.859 C 149.037 164.431 157.72 153.57 163.51 141.12 C 163.51 139.686 166.379 139.686 167.993 139.865 C 170.81 141.735 173.116 144.322 174.627 147.371 Z " fill="rgb(0,120,90)"/><path d=" M 86.072 197.22 C 87.685 199.372 86.072 201.882 86.072 204.393 C 79.232 228.011 80.385 253.192 89.299 276.093 C 93.705 293.025 94.218 310.751 90.734 327.889 L 89.299 327.889 C 89.299 327.889 85.892 322.689 84.637 319.64 C 73.673 302.708 66.629 283.521 64.016 263.541 C 62.94 254.754 65.451 245.609 64.016 237.899 C 63.811 237.028 63.299 236.259 62.581 235.747 C 59.712 235.747 59.533 238.795 57.919 240.23 C 47.519 270.534 61.326 300.274 75.851 324.661 C 79.488 330.707 82.613 337.085 85.175 343.668 C 94.423 362.906 98.393 384.245 96.651 405.506 C 96.318 409.554 95.396 413.55 93.961 417.341 L 93.961 417.341 C 90.657 408.785 85.021 401.305 77.644 395.823 L 73.699 394.389 C 72.802 384.219 70.753 374.177 67.602 364.443 C 62.223 343.284 49.671 326.608 41.781 306.012 C 41.781 306.012 41.781 304.937 41.781 304.219 C 35.07 287.876 32.918 270.047 35.505 252.602 C 39.681 229.522 53.59 209.336 73.699 197.22 C 77.106 196.144 83.023 191.661 86.072 197.22 Z " fill="rgb(0,120,90)"/><path d=" M 186.103 241.664 C 193.686 268.152 188.639 296.637 172.475 318.923 C 158.976 334.78 144.093 349.432 128.006 362.676 C 120.577 369.541 114.122 377.379 108.819 385.987 C 108.819 385.987 108.819 382.938 108.819 381.324 C 108.23 374.587 106.975 367.927 105.053 361.421 C 106.77 359.397 108.332 357.245 109.716 354.965 C 124.061 335.779 145.578 324.123 158.284 303.886 C 164.534 295.484 168.889 285.827 171.015 275.555 C 171.015 273.941 171.015 271.789 169.402 271.072 C 167.788 270.355 164.381 274.658 162.408 276.989 C 152.52 294.741 139.097 310.316 122.959 322.714 C 114.275 330.041 106.667 338.545 100.366 347.998 L 100.366 347.998 C 100.366 344.949 100.366 341.722 100.366 338.673 C 107.384 304.911 127.493 275.324 156.286 256.394 C 164.278 249.964 170.477 241.562 174.217 232.007 C 174.217 230.931 175.652 229.855 177.086 230.034 C 182.645 230.034 184.438 237.028 186.411 241.69" fill="rgb(0,120,90)"/><path d=" M 33.533 316.233 C 34.839 318.129 35.531 320.383 35.505 322.689 C 37.093 339.416 41.397 355.759 48.236 371.078 C 48.928 371.974 49.415 373.025 49.671 374.126 C 58.765 389.009 66.808 404.533 73.699 420.543 C 75.492 424.667 76.389 428.791 77.823 432.916 C 80.615 441.01 82.306 449.464 82.844 458.02 L 82.844 458.02 C 69.165 445.724 56.69 432.147 45.547 417.495 C 37.349 405.071 31.791 391.11 29.229 376.432 C 28.691 371.898 27.846 367.415 26.719 362.983 C 26.462 361.19 25.489 359.576 24.029 358.5 C 20.981 358.5 21.16 362.983 20.263 365.494 C 19.264 378.225 20.853 391.033 24.926 403.149 C 26.36 405.481 26.719 408.35 28.153 410.86 C 36.171 428.202 48.006 443.521 62.761 455.689 C 72.239 464.706 80.59 474.824 87.685 485.813 C 83.382 494.395 79.847 503.335 77.106 512.531 L 77.106 512.531 C 73.699 506.793 69.933 501.055 66.168 495.496 C 53.949 479.563 40.526 464.577 26.001 450.668 C 9.12 430.61 -0.102 405.199 0.001 378.968 C 0.283 356.22 9.171 334.447 24.926 318.027 C 26.898 315.337 31.022 313.006 33.891 315.516" fill="rgb(0,120,90)"/><path d=" M 177.855 348.331 C 180.545 351.738 177.855 355.862 176.779 359.448 C 169.965 377.379 173.91 398.897 167.096 416.624 C 157.285 441.164 143.529 463.911 126.392 484.02 C 125.137 486.889 122.626 489.4 121.192 492.627 C 113.302 506.486 108.512 521.907 107.205 537.814 L 107.205 537.814 C 102.645 530.334 95.498 524.801 87.122 522.214 C 87.122 521.138 87.122 520.242 87.122 519.166 C 93.372 498.058 103.593 478.359 117.247 461.094 C 136.1 441.138 148.96 416.291 154.365 389.394 C 154.365 386.345 154.365 382.938 152.392 381.324 C 150.42 379.711 147.371 386.345 146.116 389.394 C 143.042 398.59 139.2 407.53 134.64 416.111 C 130.157 422.746 126.392 429.739 121.55 436.195 C 113.481 448.029 103.619 458.609 95.191 470.623 L 94.294 470.623 C 93.347 428.817 112.072 389.009 144.835 363.06 C 152.008 356.938 159.898 351.686 168.326 347.46 C 171.143 346.025 174.474 346.025 177.291 347.46" fill="rgb(0,120,90)"/><path d=" M 25.822 468.445 C 36.248 490.757 52.463 509.893 72.777 523.828 C 90.759 538.071 104.925 556.54 114.019 577.597 C 114.019 577.597 112.226 577.597 111.329 577.597 C 80.077 566.274 53.436 544.987 35.505 517.014 C 33.353 514.145 32.277 510.738 28.512 510.021 C 24.746 509.303 27.077 514.324 27.436 516.476 C 33.097 534.356 44.573 549.828 60.071 560.408 C 79.975 577.264 106.334 583.54 127.109 599.499 C 140.583 608.848 151.803 621.093 159.923 635.361 C 159.923 635.361 159.923 635.361 158.668 635.361 C 155.133 633.594 151.419 632.262 147.551 631.416 C 142.274 629.905 136.689 629.905 131.413 631.416 L 131.413 631.416 C 122.114 621.733 111.355 613.562 99.495 607.209 C 93.782 603.725 87.788 600.728 81.563 598.243 C 69.344 592.864 57.842 585.999 47.314 577.802 C 18.188 556.13 4.176 519.627 11.272 484.046 C 11.784 477.642 13.962 471.468 17.548 466.114 C 18.829 465.423 20.391 465.423 21.672 466.114 C 23.286 466.114 24.003 468.445 25.079 469.88" fill="rgb(0,120,90)"/><path d=" M 174.807 468.445 C 183.772 497.494 180.801 528.9 166.558 555.746 C 158.13 571.679 154.185 589.559 155.082 607.542 C 153.007 606.082 151.086 604.391 149.344 602.521 C 144.861 598.756 140.02 594.452 134.819 590.866 C 135.895 589.073 134.819 586.742 136.075 584.769 C 137.125 578.596 138.918 572.576 141.454 566.838 C 142.146 564.122 143.094 561.484 144.323 558.948 C 148.089 549.803 153.289 541.016 156.696 531.333 C 162.383 519.781 164.509 506.793 162.793 494.036 C 162.793 494.036 162.793 492.96 161.358 492.602 C 159.923 492.243 158.31 494.933 157.234 496.547 C 154.365 507.895 150.394 518.935 145.399 529.54 C 136.766 544.09 130.362 559.87 126.392 576.316 C 126.392 576.316 126.392 576.316 125.316 574.881 C 122.242 565.557 120.602 555.823 120.474 546.012 C 120.807 525.519 128.287 505.82 141.633 490.271 C 150.112 479.742 156.235 467.523 159.565 454.408 C 160.231 453.101 161.384 452.128 162.793 451.718 C 170.144 453.332 173.013 461.939 175.524 468.215" fill="rgb(0,120,90)"/><path d=" M 68.499 606.645 C 83.792 620.478 101.621 631.186 121.012 638.205 C 127.647 640.843 134.102 643.917 140.378 647.35 C 142.043 648.067 143.657 648.912 145.22 649.86 C 154.416 655.342 163.049 661.721 171.041 668.867 C 172.475 670.84 174.807 672.633 176.062 674.785 C 169.965 674.785 163.689 672.992 158.13 672.812 C 156.696 672.992 155.261 672.992 153.827 672.812 C 130.926 669.943 109.485 659.979 92.527 644.301 C 90.196 642.867 87.865 640.536 84.816 641.253 C 81.768 641.97 84.816 646.812 86.789 649.502 C 103.644 669.226 127.468 681.676 153.289 684.288 C 167.455 685.774 181.441 688.592 195.069 692.716 C 196.145 692.716 195.069 694.689 196.145 695.585 C 198.553 703.578 201.755 711.314 205.649 718.717 C 204.573 718.717 203.497 718.717 202.421 717.82 C 184.08 711.467 165.175 706.959 145.963 704.372 C 138.047 702.783 130.26 700.632 122.652 697.916 C 100.084 689.156 81.153 673.069 68.883 652.191 C 62.863 641.125 59.2 628.906 58.124 616.328 C 58.124 611.666 57.228 605.57 61.352 602.88 C 65.476 600.19 67.09 605.032 68.883 606.825" fill="rgb(0,120,90)"/><path d=" M 195.043 553.056 C 196.452 558.103 197.426 563.251 197.912 568.477 C 201.499 584.436 212.078 597.526 214.947 613.844 C 220.506 638.051 221.403 663.488 228.037 686.978 C 231.982 699.838 238.053 711.954 245.969 722.841 C 240.205 720.817 234.16 719.793 228.037 719.793 C 225.757 720.023 223.529 720.587 221.403 721.407 C 206.263 694.766 198.578 664.564 199.168 633.927 C 197.733 621.247 195.479 608.669 192.354 596.271 C 191.867 593.965 190.586 591.865 188.767 590.353 C 185.898 590.353 186.257 593.043 185.181 594.657 C 185.437 609.771 186.718 624.884 188.947 639.844 C 190.202 651.32 188.947 663.155 191.457 674.273 C 190.714 674.042 190.176 673.427 190.023 672.659 C 187.794 670.481 185.822 668.073 184.105 665.486 C 170.938 646.351 165.072 623.142 167.608 600.062 C 168.684 591.071 170.785 582.233 173.884 573.703 C 173.884 573.703 173.884 572.089 173.884 571.192 C 177.266 564.455 181.8 558.384 187.333 553.261 C 189.126 552.006 193.071 551.109 194.147 553.261" fill="rgb(0,120,90)"/><path d=" M 170.324 722.815 C 186.206 728.272 202.831 731.166 219.609 731.423 C 237.592 733.088 254.832 739.261 269.792 749.354 L 269.792 749.354 C 243.074 747.202 214.409 754.375 190.202 744.154 C 188.05 744.154 185.36 742.002 183.029 744.154 C 180.698 746.306 183.029 744.154 183.029 745.768 C 186.078 749.508 190.023 752.402 194.505 754.195 C 211.771 760.113 230.138 762.136 248.274 760.113 C 275.094 758.96 301.787 764.314 326.071 775.713 L 326.071 775.713 C 314.62 777.942 303.426 781.451 292.718 786.113 C 278.04 782.63 262.978 781.118 247.89 781.63 C 245.2 781.81 242.51 781.81 239.821 781.63 C 233.724 781.63 227.807 780.555 221.889 780.196 C 215.793 779.171 209.798 777.634 203.958 775.534 C 179.981 767.644 160.461 749.994 150.189 726.965 C 148.447 723.994 147.756 720.51 148.217 717.103 C 148.78 716.155 149.677 715.464 150.727 715.131 C 157.541 716.975 164.099 719.613 170.272 723.02" fill="rgb(0,120,90)"/><path d=" M 246.507 647.35 C 269.484 653.984 288.159 670.763 297.227 692.896 C 309.753 721.74 329.606 746.818 354.761 765.672 C 356.273 766.184 357.656 766.978 358.885 768.003 C 358.885 769.078 356.734 769.258 355.299 769.258 C 330.631 770.231 307.858 756.014 297.944 733.395 C 290.951 720.664 285.571 707.215 278.04 695.022 C 273.865 687.9 268.178 681.778 261.364 677.09 C 260.416 677.09 259.571 677.654 259.212 678.525 C 259.212 682.29 261.543 685.339 262.799 688.566 C 275.709 706.498 280.73 730.347 294.358 747.894 L 294.358 747.894 C 273.942 741.643 257.701 726.069 250.605 705.934 C 246.225 687.516 240.231 669.508 232.674 652.166 C 232.674 650.552 231.598 648.4 232.674 646.966 C 236.567 645.352 240.948 645.352 244.867 646.966 L 246.507 647.35 Z " fill="rgb(0,120,90)"/><path d=" M 669.022 646.991 C 669.201 643.584 669.201 640.177 669.022 636.77 C 670.738 637.001 672.429 636.335 673.505 634.977 C 681.753 624.218 676.195 607.901 683.009 596.604 C 684.289 593.248 687.491 591.045 691.078 591.045 C 695.945 593.043 699.838 596.911 701.837 601.804 C 701.837 604.135 703.809 606.825 706.319 607.363 M 707.575 607.363 C 715.464 603.059 716.899 593.914 719.589 586.204 C 721.1 579.979 723.329 573.985 726.223 568.272 C 728.016 564.66 731.193 561.894 735.01 560.562 C 735.01 560.562 736.803 560.562 737.341 560.562 C 741.183 562.38 743.514 566.351 743.258 570.603 C 743.668 571.987 744.641 573.165 745.948 573.831 C 750.61 573.831 753.12 570.065 756.169 567.376 C 760.985 555.9 770.539 547.088 782.349 543.168 C 786.012 542.528 789.701 544.142 791.673 547.292 C 797.052 557.155 791.673 567.555 787.907 576.7 C 787.113 579.287 787.446 582.079 788.804 584.41 C 791.673 584.41 795.08 584.41 798.128 585.486 C 800.357 586.383 801.894 588.458 802.073 590.866 C 800.997 601.625 790.776 608.797 784.142 613.28 C 777.507 617.763 770.693 619.915 766.21 626.729 C 766.133 627.676 766.133 628.65 766.21 629.598 C 767.465 631.212 769.259 630.853 770.693 631.57 C 774.075 631.647 777.046 633.773 778.224 636.95 C 779.121 643.405 772.666 646.453 768.9 649.86 C 760.011 654.138 750.687 657.494 741.106 659.902 C 736.444 661.541 732.243 664.308 728.913 667.971 C 728.913 668.867 727.837 670.481 728.913 671.378 C 729.989 672.274 736.624 672.454 740.03 674.426 C 743.822 674.862 746.921 677.679 747.741 681.419 C 746.844 688.951 738.955 692.178 733.037 694.689 C 732.038 694.509 730.988 694.509 729.989 694.689 C 727.581 695.406 725.122 695.944 722.637 696.303 C 717.693 696.917 712.698 696.917 707.754 696.303 C 711.724 686.85 710.213 675.989 703.809 667.971 L 698.788 666.178 C 709.009 657.571 718.692 648.246 728.196 638.922 C 728.196 638.922 729.272 637.667 729.81 636.95 L 745.768 619.018 C 748.1 616.508 749.713 613.818 751.686 611.487 C 753.658 609.156 757.603 603.059 760.831 598.397 C 760.831 598.397 760.831 597.142 761.907 596.783 C 765.391 591.839 768.003 586.306 769.617 580.466 C 769.617 580.466 769.617 578.852 769.617 578.314 C 768.977 577.827 768.106 577.827 767.465 578.314 C 763.93 580.389 760.908 583.283 758.679 586.742 C 735.394 614.817 709.317 640.459 680.882 663.283 C 679.243 663.565 677.629 663.924 676.041 664.359 C 673.018 664.871 670.072 665.717 667.254 666.869 C 665.461 661.516 665.461 655.726 667.254 650.372 L 707.575 607.363 Z " fill="rgb(0,120,90)"/><path d=" M 716.72 356.579 C 722.278 354.427 732.679 363.393 733.216 352.634 C 733.754 341.875 720.306 331.116 716.361 319.64 C 714.158 315.26 713.389 310.316 714.209 305.474 C 714.722 303.886 715.721 302.503 717.078 301.53 C 719.896 300.428 723.047 300.428 725.865 301.53 C 727.863 302.452 730.143 302.452 732.141 301.53 C 733.37 300.71 734.011 299.224 733.754 297.764 C 731.372 291.411 728.17 285.391 724.251 279.833 C 721.382 273.198 716.899 265.308 721.023 257.956 C 721.023 256.701 722.278 256.342 723.713 255.984 C 725.916 255.164 728.324 255.164 730.527 255.984 C 733.216 257.239 736.982 259.391 740.389 254.191 C 745.589 245.404 740.389 233.928 741.644 223.707 C 741.977 217.662 745.359 212.206 750.61 209.183 C 752.813 208.696 755.118 209.08 757.065 210.259 C 767.465 216.535 768.721 229.625 776.431 238.411 C 777.635 239.794 779.275 240.665 781.093 240.921 C 784.68 238.949 786.831 234.466 791.314 234.107 C 794.004 234.082 796.463 235.619 797.59 238.052 C 804.404 254.191 794.721 269.97 795.976 286.442 C 796.105 288.67 797.232 290.694 799.025 292 C 801.177 292 802.79 292 804.404 290.207 C 806.556 286.775 810.373 284.725 814.446 284.828 C 816.546 285.34 818.135 287.031 818.57 289.131 C 820.901 304.194 810.322 315.132 805.301 327.863 C 805.301 330.553 803.687 333.96 805.301 336.112 C 806.735 337.367 808.733 337.725 810.501 337.008 C 813.524 334.754 817.545 334.395 820.901 336.112 C 824.667 339.698 822.874 346.153 820.901 350.277 C 819.492 353.659 817.699 356.835 815.522 359.781 C 808.272 355.913 799.46 356.451 792.749 361.216 C 782.477 369.541 776.329 381.888 775.893 395.106 C 772.947 393.543 769.822 392.391 766.569 391.699 C 768.362 381.299 769.259 370.181 771.052 359.243 C 770.693 358.833 770.693 358.219 771.052 357.809 C 771.052 348.484 772.486 338.084 772.666 328.222 C 772.768 308.318 771.026 288.465 767.465 268.894 C 765.134 263.694 765.134 256.88 759.576 253.832 C 757.783 253.832 757.603 256.163 757.065 257.598 C 757.117 264.514 757.783 271.405 759.038 278.219 C 761.394 303.707 760.985 329.375 757.783 354.76 C 756.527 360.498 756.348 366.954 754.914 372.692 C 751.686 395.285 747.203 416.982 742.541 439.012 L 742.541 439.012 C 739.544 437.399 736.265 436.425 732.858 436.143 C 732.858 434.35 732.858 432.019 732.858 430.047 C 731.808 414.395 727.222 399.205 719.409 385.577 C 715.311 378.686 713.133 370.822 713.133 362.804 C 713.415 359.986 715.106 357.476 717.616 356.169" fill="rgb(0,120,90)"/><path d=" M 752.557 466.114 C 752.557 466.114 752.557 465.218 752.557 464.68 C 752.787 460.171 752.378 455.637 751.302 451.231 C 753.274 451.231 755.784 454.1 758.474 452.666 C 759.473 451.795 760.114 450.565 760.267 449.259 C 761.164 445.903 761.164 442.394 760.267 439.038 C 757.45 431.507 755.861 423.591 755.605 415.548 C 755.247 411.27 757.603 407.248 761.523 405.506 C 767.978 404.61 770.847 409.63 775.15 413.217 C 776.559 413.908 778.224 413.908 779.633 413.217 C 784.295 408.35 787.088 402.022 787.523 395.285 C 789.034 385.961 793.953 377.533 801.33 371.616 C 804.225 369.976 807.76 369.976 810.655 371.616 C 816.828 378.071 819.851 386.934 818.903 395.823 C 818.724 397.181 818.724 398.59 818.903 399.947 C 818.544 402.74 819.543 405.532 821.593 407.479 C 825 408.555 826.434 404.789 829.303 404.789 C 832.172 404.789 832.352 404.789 834.145 404.789 C 835.938 404.789 838.807 409.272 839.345 412.499 C 837.296 427.101 831.071 440.78 821.413 451.949 C 821.413 454.1 819.441 457.149 821.413 459.121 C 823.386 461.094 828.048 459.121 830.917 459.121 C 832.172 459.147 833.402 459.454 834.503 460.018 C 836.655 461.862 837.629 464.757 837.014 467.549 C 835.989 472.185 833.632 476.438 830.2 479.742 C 828.176 482.355 825.948 484.814 823.565 487.094 C 822.669 487.094 821.772 488.708 820.876 489.246 C 816.034 494.984 808.324 498.391 806.889 506.281 C 806.889 507.408 807.504 508.433 808.503 508.971 C 812.627 508.971 816.393 507.536 820.876 508.971 C 823.54 509.201 825.999 510.482 827.689 512.557 C 830.379 519.909 823.565 525.647 818.724 530.488 C 813.549 534.126 807.939 537.148 802.048 539.454 L 802.048 539.454 C 797.334 533.767 790.008 530.898 782.682 531.923 C 777.148 532.742 771.948 535.022 767.619 538.557 C 766.543 534.689 764.059 531.359 760.626 529.233 C 766.723 520.626 773.178 511.302 778.557 502.874 C 781.606 498.75 783.937 493.729 786.806 489.784 C 790.033 482.073 794.516 475.08 797.385 467.011 C 798.82 462.707 800.792 458.583 801.868 454.1 C 805.762 442.573 807.094 430.354 805.813 418.237 C 805.711 416.726 804.917 415.343 803.661 414.472 C 801.151 414.472 800.434 417.7 799.537 419.493 C 797.565 426.127 796.668 432.941 794.158 439.397 C 788.035 458.634 779.48 477.001 768.695 494.062 C 767.158 488.631 762.624 484.558 757.04 483.662 C 755.093 483.303 753.069 483.303 751.122 483.662 C 751.122 481.868 752.198 480.613 752.198 478.82 C 753.018 474.645 753.12 470.341 752.557 466.114 Z " fill="rgb(0,120,90)"/><path d=" M 651.475 182.875 C 654.498 181.799 657.777 181.799 660.799 182.875 C 661.849 183.233 662.977 183.233 664.027 182.875 C 669.227 181.62 670.124 174.806 668.689 171.219 C 665.82 164.047 655.599 156.336 657.034 147.012 C 657.495 143.631 659.775 140.736 662.951 139.481 C 674.606 134.819 687.696 150.598 696.841 157.412 C 700.786 159.743 704.193 163.15 709.214 162.074 C 714.235 160.999 712.8 154.723 716.925 153.467 C 720.895 153.186 724.635 155.312 726.428 158.847 C 731.808 170.067 734.805 182.26 735.215 194.71 C 735.215 199.372 735.215 204.393 736.111 209.234 C 733.524 213.614 731.705 218.405 730.732 223.4 C 729.938 230.7 730.245 238.052 731.628 245.276 C 729.297 244.994 726.966 244.994 724.635 245.276 C 719.768 221.709 710.392 199.32 697.021 179.314 C 694.152 176.087 691.103 171.424 686.62 171.066 C 686.031 171.988 686.031 173.192 686.62 174.114 C 686.697 175.651 687.184 177.137 688.055 178.418 C 688.055 179.852 689.131 180.749 689.489 182.363 C 700.684 203.342 708.83 225.782 713.697 249.042 C 713.697 251.373 711.545 252.269 710.828 254.421 C 710.059 257.495 709.47 260.595 709.035 263.746 L 709.035 263.746 C 701.503 252.628 681.6 250.656 673.172 239.359 C 671.199 236.9 670.533 233.621 671.379 230.572 C 673.71 226.448 679.089 228.062 682.855 226.986 C 683.956 226.346 684.699 225.219 684.827 223.938 C 681.984 218.148 677.245 213.538 671.379 210.848 C 661.593 206.672 653.78 198.911 649.502 189.151 C 648.708 186.717 649.656 184.053 651.834 182.696" fill="rgb(0,120,90)"/><path d=" M 654.165 249.913 C 656.829 248.991 659.749 248.991 662.413 249.913 L 665.461 251.168 C 677.706 259.673 690.668 267.101 704.193 273.403 C 705.961 273.557 707.703 272.967 709.035 271.789 C 710.213 276.964 712.339 281.882 715.311 286.313 C 715.797 286.467 716.284 286.647 716.745 286.851 C 711.622 288.004 707.37 291.539 705.269 296.355 L 704.373 297.969 C 699.326 290.899 692.691 285.135 685.007 281.113 C 683.879 280.883 682.752 281.6 682.496 282.727 C 682.496 288.824 687.876 293.486 690.924 297.969 C 700.581 312.032 707.703 327.684 711.904 344.206 C 709.086 345.59 706.627 347.613 704.731 350.124 C 699.915 359.653 699.915 370.899 704.731 380.428 C 707.062 385.807 710.828 391.007 712.98 396.566 C 716.771 405.762 719.435 415.394 720.869 425.256 C 720.511 429.432 720.511 433.633 720.869 437.808 C 720.869 437.808 720.869 438.884 720.869 439.064 C 720.869 439.243 720.869 437.45 719.794 436.912 C 714.055 417.367 683.931 398.18 671.942 383.143 C 664.309 375.279 660.517 364.469 661.542 353.556 C 662.336 350.867 664.821 349.048 667.639 349.073 C 670.943 349.253 674.222 349.611 677.501 350.149 C 679.064 349.996 680.421 349.048 681.087 347.639 C 682.343 342.618 678.936 338.673 676.425 334.908 C 672.147 330.63 667.664 326.557 662.977 322.714 C 662.977 322.714 662.977 321.638 662.08 321.459 C 657.418 316.08 652.038 311.597 654.19 303.528 C 655.983 300.121 659.928 300.479 662.977 299.941 C 664.232 299.352 665.154 298.225 665.487 296.893 C 665.487 287.389 658.673 280.934 654.907 273.582 C 651.526 268.228 649.963 261.952 650.425 255.651 C 651.5 253.678 652.038 251.347 654.369 250.092" fill="rgb(0,120,90)"/><path d=" M 648.785 544.449 C 648.99 540.76 649.477 537.123 650.22 533.511 C 651.475 529.566 652.909 525.262 657.392 524.187 C 661.875 523.111 667.972 534.587 672.634 527.056 C 674.068 521.522 673.71 515.682 671.558 510.379 C 670.124 504.641 666.896 499.441 665.461 493.345 C 663.002 487.683 661.593 481.587 661.337 475.413 C 661.235 472.262 662.49 469.188 664.744 466.985 C 667.434 463.937 671.02 466.985 674.068 465.73 C 677.117 464.475 676.041 464.654 676.937 463.758 C 678.731 453.537 671.917 445.826 673.351 435.067 C 673.249 429.304 675.913 423.822 680.524 420.364 C 686.697 417.059 694.357 418.827 698.455 424.488 C 702.707 430.021 706.319 436.041 709.214 442.419 C 713.159 451.385 715.49 459.454 725.89 452.102 C 729.118 449.771 731.628 446.185 736.29 446.543 C 739.006 447.133 741.158 449.208 741.849 451.923 C 743.053 458.327 742.618 464.91 740.594 471.11 C 739.006 475.259 738.032 479.589 737.725 484.02 C 737.085 486.915 737.085 489.912 737.725 492.807 C 737.725 493.703 738.801 495.138 740.056 495.138 C 741.311 495.138 744.539 492.986 747.229 492.627 C 749.97 491.372 753.095 491.372 755.836 492.627 C 757.731 494.215 758.679 496.649 758.346 499.083 C 757.091 511.097 745.615 518.09 740.415 528.669 C 739.774 530.232 739.774 531.948 740.415 533.511 C 740.85 534.331 741.644 534.869 742.566 534.945 C 742.566 534.945 742.566 534.945 743.642 534.945 C 744.718 534.945 746.511 534.945 747.767 533.87 C 749.022 532.794 755.118 533.87 756.912 537.276 C 759.063 543.911 754.043 548.932 750.277 553.415 L 750.277 553.415 C 746.409 548.804 740.492 546.447 734.497 547.139 C 718.18 551.442 712.98 568.477 708.676 585.871 C 707.062 583.36 704.911 581.208 702.4 579.595 C 713.492 546.396 715.183 510.789 707.242 476.694 C 706.729 470.085 704.168 463.835 699.89 458.763 C 698.891 458.686 697.917 459.172 697.379 460.018 C 696.841 463.399 696.841 466.857 697.379 470.239 C 703.015 505.768 700.812 542.118 690.924 576.726 C 687.517 576.7 684.187 577.776 681.42 579.774 C 672.352 587.664 667.844 599.575 669.406 611.513 C 669.432 614.894 668.561 618.25 666.896 621.196 C 659.544 600.754 648.964 598.602 642.151 603.264 C 653.447 585.333 650.578 567.401 649.682 544.833" fill="rgb(0,120,90)"/><path d=" M 559.692 666.357 C 563.099 662.412 568.119 657.212 573.32 660.081 C 578.52 662.95 575.113 670.302 579.954 673.171 C 584.796 676.04 588.382 666.357 590.175 661.157 C 592.378 652.14 595.119 643.302 598.423 634.618 C 600.934 630.136 603.265 625.294 609.362 626.908 C 615.458 628.522 613.127 638.922 619.583 638.025 C 626.038 637.129 632.493 612.025 645.045 614.894 C 651.321 616.328 657.239 627.446 657.418 641.97 C 655.881 651.09 655.573 660.388 656.521 669.585 C 656.521 669.585 657.597 671.019 657.597 671.916 C 654.011 675.144 650.066 678.013 646.3 680.882 C 645.071 677.961 643.252 675.323 640.921 673.171 C 639.179 671.813 637.335 670.609 635.362 669.585 C 638.795 662.489 640.537 654.702 640.383 646.812 C 639.486 646.12 638.231 646.12 637.335 646.812 C 632.672 650.398 629.624 661.157 624.603 669.585 C 610.719 674.042 599.73 684.724 594.837 698.454 C 594.837 698.454 594.837 697.199 593.761 696.841 C 589.996 691.999 583.822 689.694 577.802 690.923 C 561.843 694.33 553.595 711.006 544.45 724.813 C 541.94 718.179 537.098 717.282 531.181 715.131 C 545.167 697.199 548.036 679.268 559.333 667.1" fill="rgb(0,120,90)"/><path d=" M 503.925 751.147 C 509.714 741.285 517.245 732.524 526.16 725.326 C 528.542 724.25 531.283 724.25 533.691 725.326 C 536.919 727.119 537.098 735.367 542.298 735.009 C 547.498 734.65 558.616 722.098 563.278 715.284 C 566.967 708.675 573.063 703.731 580.313 701.477 C 582.644 700.862 585.103 701.784 586.409 703.808 C 589.099 707.932 586.409 714.746 589.996 718.153 C 594.12 718.153 596.81 715.284 599.141 712.595 C 601.472 709.905 604.162 704.346 606.851 701.118 C 607.236 699.658 607.978 698.301 609.003 697.174 C 613.358 689.668 620.3 684.007 628.548 681.215 C 631.34 680.574 634.209 681.906 635.541 684.442 C 636.566 686.568 637.078 688.899 636.976 691.256 C 636.976 691.256 636.976 692.153 636.976 692.87 C 636.976 693.587 636.976 695.739 639.128 696.098 C 642.279 696.636 645.506 696.072 648.273 694.484 C 659.928 690.001 666.204 678.704 678.577 676.552 C 683.854 674.657 689.694 675.169 694.536 677.987 C 698.25 682.06 699.301 687.926 697.226 693.049 C 697.226 693.049 697.226 694.304 697.226 694.663 C 694.177 702.732 688.798 709.546 685.212 717.257 C 685.212 718.333 685.212 719.05 685.212 720.126 C 684.853 722.431 685.493 724.788 687.005 726.581 C 688.26 727.324 689.566 727.913 690.95 728.374 C 693.665 729.271 695.919 731.218 697.226 733.754 C 697.559 738.16 695.023 742.284 690.95 743.975 C 677.86 752.223 660.287 749.175 646.48 755.63 C 642.535 756.885 637.335 758.858 636.438 763.34 C 635.541 767.823 636.438 766.209 638.59 767.106 C 640.742 768.003 644.687 770.513 644.866 773.741 C 645.045 776.968 639.486 781.81 635.183 783.603 L 631.417 784.858 C 610.258 789.52 587.306 782.706 565.993 786.293 C 560.614 786.984 555.337 788.239 550.214 790.058 C 548.6 790.058 547.345 788.982 545.731 788.624 C 537.303 784.551 528.542 781.195 519.551 778.582 L 537.482 774.996 C 537.482 774.996 539.634 774.996 540.351 774.996 C 544.476 773.203 548.779 773.561 552.724 771.589 C 556.669 769.616 555.772 770.334 557.386 770.513 C 563.841 768.182 570.297 766.209 576.931 764.058 L 593.428 757.782 C 594.197 757.602 594.991 757.602 595.759 757.782 C 596.912 757.039 598.193 756.475 599.525 756.168 L 605.801 753.299 C 614.357 749.61 622.682 745.435 630.726 740.747 C 633.057 739.671 635.926 737.878 638.436 736.443 C 649.733 730.167 659.723 721.765 667.844 711.698 C 668.561 710.622 668.561 709.188 667.844 708.112 C 665.513 706.857 663.002 708.112 660.85 709.188 C 649.989 716.001 638.744 722.149 627.139 727.657 L 609.208 736.623 L 604.366 738.416 C 598.09 741.285 591.456 743.437 585.18 745.947 L 571.193 750.071 L 562.228 752.94 C 543.041 758.499 515.99 764.954 500.211 768.003 C 494.831 769.078 489.272 770.334 483.893 771.051 L 483.893 771.051 C 492.372 766.414 499.647 759.934 505.231 752.044" fill="rgb(0,120,90)"/><path d=" M 383.093 773.177 C 396.106 768.515 408.222 761.65 418.956 752.915 C 431.251 762.726 445.212 770.18 460.198 774.97 L 460.198 774.97 C 447.979 787.061 434.018 797.282 418.776 805.274 C 417.7 805.274 417.521 805.274 416.445 804.198 C 404.098 797.461 392.673 789.213 382.376 779.632 C 380.531 778.275 378.84 776.712 377.355 774.97 C 379.148 774.97 381.3 773.715 383.093 772.819" fill-rule="evenodd" fill="rgb(225,6,19)"/><path d=" M 297.586 799.357 C 298.841 798.281 300.634 799.357 301.889 797.743 C 315.491 793.491 329.324 789.956 343.311 787.164 C 350.125 785.37 357.297 783.577 363.932 781.426 C 368.107 785.934 372.667 790.058 377.56 793.798 C 372.206 796.027 366.698 797.82 361.063 799.178 C 343.131 805.095 323.765 807.426 306.039 813.523 C 293.513 817.16 282.113 823.872 272.866 833.068 C 268.69 837.346 265.411 842.392 263.183 847.951 C 259.238 842.572 256.728 836.834 252.783 831.813 C 263.823 816.443 279.552 805.044 297.586 799.357 Z " fill="rgb(0,120,90)"/><path d=" M 446.032 803.481 C 446.032 803.481 446.032 802.405 447.287 803.481 C 450.95 805.146 454.742 806.581 458.584 807.785 C 469.881 811.755 481.434 814.932 493.192 817.288 C 496.24 817.288 499.109 818.723 502.157 818.902 C 509.868 820.695 518.116 822.309 525.468 824.64 C 526.903 825.716 528.875 824.64 530.13 826.613 C 545.475 831.454 558.078 842.52 564.917 857.096 L 564.917 858.71 C 560.793 864.986 557.386 870.545 553.441 876.641 C 552.186 875.565 553.441 873.772 552.186 872.159 C 546.986 849.386 522.42 840.958 502.542 836.296 C 477.514 831.659 453.128 824.025 429.945 813.523 C 435.504 810.551 440.832 807.196 445.904 803.481" fill="rgb(0,120,90)"/><path d=" M 471.648 781.067 C 489.58 787.522 510.739 789.315 529.362 795.591 C 545.5 800.305 560.46 808.374 573.294 819.261 C 576.855 822.847 579.8 826.946 582.08 831.454 C 580.543 833.299 579.16 835.297 577.956 837.372 C 575.804 840.42 574.011 844.186 571.68 847.234 C 571.68 847.234 571.68 846.158 571.68 845.799 C 567.966 837.577 562.381 830.327 555.362 824.64 C 554.645 824.23 553.979 823.769 553.39 823.206 C 530.924 811.73 506.691 804.147 481.69 800.791 C 473.979 798.46 466.269 796.488 458.917 793.44 C 463.4 789.315 468.241 785.191 472.724 780.529" fill="rgb(225,6,19)"/><path d=" M 283.445 839.703 C 297.688 828.662 314.544 821.566 332.372 819.082 C 333.448 819.082 334.524 819.082 335.6 819.082 C 336.676 819.082 339.366 819.082 341.338 817.826 C 346.538 816.392 352.276 815.675 357.656 813.881 C 368.005 811.089 378.2 807.682 388.139 803.66 C 393.339 807.247 398.539 811.371 404.098 814.599 C 379.199 825.255 353.147 832.966 326.481 837.551 C 313.621 840.65 301.71 846.798 291.694 855.482 C 286.135 861.477 282.395 868.957 280.935 877 L 280.935 877 L 270.176 859.069 C 273.019 851.666 277.63 845.082 283.625 839.882" fill="rgb(225,6,19)"/><path d=" M 368.953 699.146 C 361.268 695.457 352.917 693.382 344.387 693.049 C 360.064 714.285 377.303 734.292 396.003 752.915 C 400.845 750.763 405.328 747.868 409.273 744.308 C 394.876 730.142 381.428 715.054 368.953 699.146 Z " fill="rgb(0,120,90)"/><path d=" M 326.634 687.67 C 319.744 683.674 311.828 681.804 303.862 682.29 C 322.792 711.954 344.31 739.85 368.21 765.646 C 373.564 763.955 378.764 761.855 383.81 759.37 C 362.779 737.135 343.644 713.158 326.634 687.67 Z " fill="rgb(225,6,19)"/><path d=" M 469.164 699.146 C 476.772 695.406 485.071 693.331 493.55 693.049 C 477.873 714.285 460.633 734.292 441.933 752.915 C 437.092 750.737 432.635 747.843 428.664 744.308 C 443.137 730.193 456.663 715.105 469.164 699.146 Z " fill="rgb(0,120,90)"/><path d=" M 511.456 687.67 C 518.296 683.674 526.16 681.804 534.05 682.29 C 515.196 711.98 493.653 739.876 469.702 765.646 C 464.348 763.955 459.148 761.855 454.101 759.37 C 475.209 737.135 494.396 713.158 511.456 687.67 Z " fill="rgb(225,6,19)"/><path d=" M 418.956 643.764 C 446.211 627.087 480.076 625.832 511.994 620.094 C 553.877 617.097 586.384 582.31 586.563 540.325 L 586.563 197.22 L 251.527 197.22 L 251.527 540.325 C 251.707 582.336 284.214 617.097 326.096 620.094 C 358.014 624.936 391.879 627.087 418.956 643.764 Z  M 418.956 663.129 C 415.395 659.21 411.143 655.982 406.404 653.626 C 380.07 643.43 352.302 637.359 324.124 635.694 C 274.633 631.596 236.567 590.174 236.644 540.504 L 236.644 181.978 L 601.446 181.978 L 601.446 540.504 C 601.523 590.174 563.457 631.596 513.967 635.694 C 485.763 637.334 457.995 643.379 431.687 653.626 C 426.897 655.982 422.593 659.21 418.956 663.129 Z " fill-rule="evenodd" fill="rgb(29,29,27)"/><rect x="278.425" y="31.047" width="14.883" height="30.304" transform="matrix(1,0,0,1,0,0)" fill="rgb(29,29,27)"/><path d=" M 398.155 0.026 L 413.038 0.026 L 413.038 15.626 L 425.052 15.626 L 425.052 0.026 L 439.756 0.026 L 439.756 30.509 L 398.155 30.509 L 398.155 0.026 Z " fill="rgb(29,29,27)"/><path d=" M 305.296 50.208 L 305.296 15.626 L 320.179 15.626 L 320.179 45.904 L 335.062 68.677 L 335.062 115.837 L 320.179 115.837 L 320.179 73.16 L 305.296 50.208 Z " fill="rgb(29,29,27)"/><path d=" M 347.076 31.047 L 359.09 31.047 L 359.09 45.904 L 332.193 45.904 L 332.193 15.626 L 347.076 15.626 L 347.076 31.047 Z " fill="rgb(29,29,27)"/><path d=" M 372.539 142.708 L 266.41 142.708 L 266.41 88.581 L 251.527 65.808 L 251.527 31.047 L 266.41 31.047 L 266.41 61.325 L 281.114 84.098 L 281.114 128.005 L 372.539 128.005 L 372.539 142.708 Z " fill="rgb(29,29,27)"/><rect x="544.809" y="31.047" width="14.883" height="30.304" transform="matrix(1,0,0,1,0,0)" fill="rgb(29,29,27)"/><path d=" M 532.795 50.208 L 532.795 15.626 L 517.911 15.626 L 517.911 45.904 L 503.028 68.677 L 503.028 115.837 L 517.911 115.837 L 517.911 73.16 L 532.795 50.208 Z " fill="rgb(29,29,27)"/><path d=" M 491.014 31.047 L 478.821 31.047 L 478.821 45.904 L 505.718 45.904 L 505.718 15.626 L 491.014 15.626 L 491.014 31.047 Z " fill="rgb(29,29,27)"/><path d=" M 266.41 169.785 L 266.41 154.902 L 384.732 154.902 L 384.732 128.005 C 383.349 109.049 397.617 92.552 416.573 91.194 C 435.529 89.811 452.026 104.079 453.384 123.035 C 453.512 124.7 453.512 126.34 453.384 128.005 L 453.384 154.902 L 571.706 154.902 L 571.706 169.785 L 438.501 169.785 L 438.501 128.005 C 438.501 117.22 429.74 108.459 418.956 108.459 C 408.171 108.459 399.41 117.22 399.41 128.005 L 399.41 128.005 L 399.41 169.785 L 266.41 169.785 Z " fill="rgb(29,29,27)"/><path d=" M 465.398 142.708 L 571.68 142.708 L 571.68 88.581 L 586.563 65.808 L 586.563 31.047 L 571.68 31.047 L 571.68 61.325 L 557.002 84.098 L 557.002 128.005 L 465.398 128.005 L 465.398 142.708 Z " fill="rgb(29,29,27)"/><path d=" M 399.41 85.712 L 399.41 51.105 L 386.141 30.304 L 386.141 0 L 371.258 0 L 371.258 34.787 L 384.707 55.408 L 384.707 96.65 C 388.882 92.116 393.877 88.402 399.41 85.712 Z " fill="rgb(29,29,27)"/><path d=" M 438.501 85.712 L 438.501 51.105 L 451.949 30.304 L 451.949 0 L 466.833 0 L 466.833 34.787 L 453.384 55.408 L 453.384 96.65 C 449.183 92.065 444.111 88.351 438.501 85.712 Z " fill="rgb(29,29,27)"/></g></g></svg>