<svg xmlns="http://www.w3.org/2000/svg" width="2500" height="2500" viewBox="0 0 192.756 192.756">
  <path d="M42.969 137.229h1.944a2.097 2.097 0 0 1 .649-1.531c.41-.391.988-.626 1.629-.626h15.511a4.196 4.196 0 0 0 2.97-1.247 4.26 4.26 0 0 0 1.24-2.998V80.346l-45.994-.003.024 50.478v.012a4.25 4.25 0 0 0 1.236 2.987 4.201 4.201 0 0 0 2.983 1.252h15.544a2.33 2.33 0 0 1 1.614.622c.426.404.65.949.65 1.535z" fill="#2e2f30"/>
  <path d="M62.702 133.121H47.191a4.293 4.293 0 0 0-2.965 1.167c-.1.095-.193.195-.283.299a4.113 4.113 0 0 0-.288-.303 4.282 4.282 0 0 0-2.95-1.163H25.162a2.266 2.266 0 0 1-1.609-.672 2.305 2.305 0 0 1-.667-1.617v-.012l-.023-48.528 42.106.003v48.531a2.311 2.311 0 0 1-.67 1.627 2.255 2.255 0 0 1-1.597.668z" fill="#fff"/>
  <path fill-rule="evenodd" clip-rule="evenodd" fill="#d06537" d="M22.863 86.091l18.781.016v-3.814h4.507l-.005 3.814h18.822v4.518H46.152l-.006 3.964H41.66v-3.964l-18.794-.027-.003-4.507z"/>
  <path d="M64.968 94.592l-42.101-.003.018 36.231v.012c.002.631.257 1.204.667 1.617.411.413.981.672 1.609.672h15.544a4.28 4.28 0 0 1 2.95 1.163c.101.096.198.197.288.303.09-.104.183-.204.283-.299a4.291 4.291 0 0 1 2.965-1.167h15.511a2.251 2.251 0 0 0 1.596-.668c.412-.415.669-.992.67-1.627V94.592zM43.99 123.128c-4.965 0-8.99-4.036-8.99-9.019 0-4.971 4.025-9.007 8.99-9.007 4.967 0 8.984 4.036 8.984 9.007 0 4.983-4.017 9.019-8.984 9.019z" fill-rule="evenodd" clip-rule="evenodd" fill="#3f70b3"/>
  <path d="M112.139 103.123c-.729-.736-1.576-.86-2.137-.86-.605 0-1.143.297-1.613.888-.469.59-.703 1.327-.703 2.174v6.874h-2.592v-12.061h2.592v1.079c.729-.882 1.703-1.329 2.912-1.329.76 0 1.092.157 1.564.447l-.023 2.788zM116.367 103.226c.486-.692 1.131-1.045 1.949-1.045 1.754 0 2.643 1.316 2.643 3.956 0 1.297-.248 2.287-.727 2.976-.459.703-1.111 1.047-1.916 1.047-1.777 0-2.656-1.34-2.656-4.022 0-1.247.242-2.217.707-2.912zm-2.006 7.5c.947 1.148 2.256 1.72 3.955 1.72 1.654 0 2.961-.569 3.906-1.701.967-1.142 1.434-2.671 1.434-4.607 0-1.923-.463-3.449-1.404-4.567-.938-1.113-2.248-1.682-3.936-1.682-1.621 0-2.912.596-3.885 1.744-.99 1.164-1.48 2.669-1.48 4.505 0 1.91.473 3.439 1.41 4.588zM130.072 112.445h-.926l-5.037-12.307h2.854l2.666 7.374 2.855-7.374h2.772l-5.184 12.307zM139.559 94.819c.426 0 .783.154 1.08.482.291.328.443.709.443 1.162 0 .458-.152.842-.443 1.161-.297.33-.654.482-1.08.482-.41 0-.771-.152-1.066-.482-.299-.319-.443-.703-.443-1.161 0-.452.145-.834.443-1.162a1.382 1.382 0 0 1 1.066-.482zm-1.327 17.379v-9.741h-1.449v-2.319h4.074v12.061h-2.625v-.001zM151.078 112.198v-6.969c0-1.031-.188-1.783-.545-2.255-.379-.479-.961-.712-1.805-.712-.379 0-.785.116-1.225.344a2.922 2.922 0 0 0-1.023.874v8.718h-2.592v-12.061h1.875l.479 1.117c.713-.907 1.75-1.367 3.135-1.367 1.322 0 2.365.438 3.143 1.297.764.869 1.145 2.06 1.145 3.612v7.401h-2.587v.001zM169.432 94.819c.426 0 .783.154 1.078.482.291.328.441.709.441 1.162 0 .458-.15.842-.441 1.161-.295.33-.652.482-1.078.482-.416 0-.777-.152-1.07-.482-.299-.319-.441-.703-.441-1.161 0-.452.143-.834.441-1.162a1.38 1.38 0 0 1 1.07-.482zm-1.323 17.379v-9.741h-1.451v-2.319h4.076v12.061h-2.625v-.001zM97.225 132.166c-.111.163-.348.328-.713.487-.373.16-.686.241-.928.241-2.232 0-3.355-1.265-3.355-3.78 0-1.288.28-2.276.845-2.961.562-.691 1.366-1.035 2.411-1.035.599 0 1.18.235 1.741.723v6.325h-.001zm2.589 2.856v-17.244l-2.59.003v5.49a4.9 4.9 0 0 0-2.313-.565c-1.542 0-2.829.599-3.857 1.804-1.013 1.198-1.531 2.758-1.531 4.676 0 1.913.445 3.4 1.336 4.467.896 1.083 2.122 1.608 3.674 1.608.554 0 1.088-.1 1.596-.295.519-.2.883-.426 1.096-.675v.731h2.589zM104.627 117.63c.41 0 .775.16 1.068.49.289.316.443.703.443 1.158 0 .452-.154.84-.443 1.159a1.4 1.4 0 0 1-1.068.479c-.416 0-.781-.156-1.078-.479a1.633 1.633 0 0 1-.445-1.159c0-.455.146-.842.445-1.158.297-.33.662-.49 1.078-.49zm-1.336 17.392v-9.747h-1.445v-2.325h4.074v12.072h-2.629zM138.582 117.63c.412 0 .768.16 1.068.49.295.316.445.703.445 1.158 0 .452-.15.84-.445 1.159-.301.322-.656.479-1.068.479-.422 0-.783-.156-1.078-.479a1.633 1.633 0 0 1-.445-1.159c0-.455.146-.842.445-1.158a1.39 1.39 0 0 1 1.078-.49zm-1.336 17.392v-9.747h-1.443v-2.325h4.068v12.072h-2.625zM142.887 117.784l2.594-.006v13.572c0 1.484.416 2.367 1.254 2.651-.402.842-1.094 1.259-2.068 1.259-1.188 0-1.779-.889-1.779-2.67v-14.806h-.001zM168.064 135.022v-6.98c0-1.036-.18-1.783-.537-2.258-.375-.468-.971-.712-1.791-.712-.395 0-.797.111-1.242.363a2.835 2.835 0 0 0-1.016.863v8.724h-2.592V122.95h1.877l.48 1.126c.701-.909 1.746-1.37 3.127-1.37 1.328 0 2.375.431 3.139 1.294.771.866 1.158 2.063 1.158 3.606v7.416h-2.603zM176.158 126.034c.484-.693 1.133-1.037 1.939-1.037 1.756 0 2.637 1.321 2.637 3.961 0 1.288-.232 2.284-.707 2.973-.475.701-1.117 1.048-1.93 1.048-1.771 0-2.652-1.349-2.652-4.021 0-1.246.239-2.221.713-2.924zm-2.015 7.507c.941 1.151 2.264 1.72 3.955 1.72 1.656 0 2.961-.566 3.916-1.706.955-1.137 1.426-2.663 1.426-4.597 0-1.937-.461-3.466-1.404-4.57-.926-1.118-2.254-1.682-3.938-1.682-1.615 0-2.904.577-3.887 1.738-.98 1.161-1.469 2.672-1.469 4.514 0 1.9.461 3.43 1.401 4.583zM92.727 97.529h4.263c2.487 0 3.612 1.776 3.612 3.301 0 1.537-1.125 3.449-3.612 3.449h-4.263v-6.75zm-2.794 9.211v5.442h2.794v-5.442h3.515c5.424 0 6.872-2.523 6.872-5.91 0-4.486-2.613-5.899-6.872-5.899h-6.309v11.809zM118.422 117.435l7.75 7.753 7.594-7.753v17.623h-2.647v-11.347l-4.947 5.271-4.957-5.103v11.179h-2.793v-17.623zM159.965 102.728c-.24.16-.465.352-.658.602-.576.704-.863 1.694-.863 2.945 0 1.219.266 2.139.775 2.77a3.628 3.628 0 0 0 1.66.953c.275.055.566.114.889.114 1.045 0 2.141-.437 2.986-1.153v2.669c-.535.304-1.016.522-1.445.612-.561.146-1.229.206-2 .206-1.717 0-3.078-.548-4.074-1.627-.99-1.083-1.492-2.603-1.492-4.544 0-1.897.545-3.441 1.637-4.607 1.09-1.181 2.574-1.779 4.455-1.779 1.086 0 2.064.295 2.92.861v2.642c-.846-.714-1.941-1.153-2.986-1.153a3.87 3.87 0 0 0-.645.061 2.663 2.663 0 0 0-1.159.428zM158.406 131.343l.031-1.992c.004-.134.025-.254.025-.393 0-1.937-.467-3.466-1.406-4.57-.932-1.118-2.25-1.682-3.938-1.682-1.609 0-2.906.577-3.885 1.738-.986 1.161-1.469 2.672-1.469 4.514 0 1.9.457 3.43 1.404 4.583.939 1.151 2.262 1.72 3.949 1.72 1.26 0 2.312-.332 3.16-.985.105.182.232.36.395.525.295.306.635.46 1.012.46.33 0 .633-.049.902-.138.268-.101.508-.345.713-.74-.586-.422-.893-1.429-.893-3.04zm-3.357.588c-.479.701-1.121 1.048-1.93 1.048-1.766 0-2.654-1.349-2.654-4.021 0-1.246.234-2.221.715-2.924.486-.693 1.129-1.037 1.939-1.037 1.76 0 2.635 1.321 2.635 3.961 0 1.288-.231 2.284-.705 2.973zM183.361 108.508l.029-1.989c.002-.133.023-.252.023-.393 0-1.936-.467-3.469-1.406-4.57-.93-1.121-2.254-1.682-3.938-1.682-1.611 0-2.902.577-3.889 1.735-.979 1.165-1.465 2.675-1.465 4.517 0 1.9.461 3.428 1.404 4.584.941 1.15 2.26 1.714 3.949 1.714 1.264 0 2.311-.325 3.166-.979.104.179.23.354.389.523.297.306.641.455 1.016.455.332 0 .631-.041.9-.133.26-.098.5-.344.711-.745-.592-.413-.889-1.423-.889-3.037zm-3.363.593c-.471.699-1.113 1.049-1.928 1.049-1.766 0-2.648-1.349-2.648-4.023 0-1.248.234-2.223.707-2.924.486-.691 1.137-1.035 1.941-1.035 1.76 0 2.641 1.318 2.641 3.959 0 1.29-.238 2.275-.713 2.974z" fill-rule="evenodd" clip-rule="evenodd" fill="#2e2f30"/>
  <path d="M48.347 106.442l3.92-8.515s.092-.304-.106-.06l-4.718 7.719h-.014l2.133-8.788c.032-.312-.113-.024-.113-.024l-3.272 8.764c.745.22 1.614.547 2.17.904zM35.43 111.775a8.783 8.783 0 0 0-.297 2.242 8.685 8.685 0 0 0 .267 2.185c-.37.101-.761.144-1.161.144a4.662 4.662 0 0 1-2.705-.863l-.024-.021a2.535 2.535 0 0 0-1.968-.377l-.021.009a.724.724 0 0 0-.154.032l.006-.008a2.335 2.335 0 0 1-2.566-1.164l.005.011c.192.13.417.209.659.209.399 0 .753-.207.965-.512l-.011.016a2.312 2.312 0 0 1 1.886-.964c.286 0 .562.044.816.138l.013.009c.019.011.033.013.054.017.268.11.546.162.851.162a2.308 2.308 0 0 0 1.696-.726l.016-.027a1.69 1.69 0 0 1 1.25-.544c.151 0 .289.023.429.054l-.006-.022zM46.144 105.514a8.991 8.991 0 0 0-2.246-.29 8.93 8.93 0 0 0-2.171.271v-.003a4.712 4.712 0 0 1-.146-1.162c0-1.007.318-1.94.864-2.707l.013-.029c.279-.403.44-.901.44-1.433 0-.189-.019-.362-.057-.545l-.013-.024c-.014-.051-.021-.103-.036-.154l.008.009a2.64 2.64 0 0 1-.051-.522 2.3 2.3 0 0 1 1.21-2.044h-.016a1.198 1.198 0 0 0-.198.663c0 .4.198.758.513.964l-.018-.011c.58.428.963 1.11.963 1.893 0 .284-.046.561-.138.815l-.013.016-.017.057a2.192 2.192 0 0 0-.159.848c0 .669.281 1.272.731 1.697l.024.025a1.697 1.697 0 0 1 .495 1.675l.018-.009zM52.405 116.271a8.979 8.979 0 0 0 .293-2.241c0-.753-.097-1.487-.269-2.186v.006c.372-.098.76-.152 1.16-.152 1.004 0 1.936.322 2.7.864l.021.017a2.54 2.54 0 0 0 1.439.438c.181 0 .359-.017.537-.055l.024-.014c.057-.008.103-.016.151-.026l-.007.011a2.317 2.317 0 0 1 2.566 1.156l-.008-.011a1.167 1.167 0 0 0-1.625.304l.01-.013a2.307 2.307 0 0 1-1.881.963c-.286 0-.561-.04-.812-.136l-.017-.016c-.016-.003-.033-.015-.051-.02a2.328 2.328 0 0 0-.85-.154c-.675 0-1.271.285-1.695.731l-.024.021a1.66 1.66 0 0 1-1.242.55c-.148 0-.292-.021-.43-.055l.01.018zM51.481 118.479l8.482 3.935s.302.097.062-.105l-7.694-4.728v-.021l8.758 2.145c.31.031.029-.114.029-.114l-8.738-3.284c-.215.749-.546 1.618-.899 2.172zM41.671 122.55c.71.181 1.468.286 2.228.292a8.85 8.85 0 0 0 2.191-.276v.003c.092.371.143.761.143 1.173a4.67 4.67 0 0 1-.864 2.701l-.016.022a2.568 2.568 0 0 0-.38 1.982l.011.024c.014.052.019.1.03.148l-.005-.005a2.317 2.317 0 0 1-1.161 2.569l.013-.005c.133-.183.198-.415.198-.659 0-.4-.192-.755-.505-.972l.019.014a2.318 2.318 0 0 1-.961-1.887c0-.293.037-.568.14-.82l.008-.011a2.306 2.306 0 0 0 .174-.908c0-.672-.281-1.271-.727-1.697l-.026-.027a1.683 1.683 0 0 1-.546-1.243c0-.144.021-.289.06-.426l-.024.008zM39.474 121.645l-3.928 8.505s-.092.301.102.062l4.721-7.716h.02l-2.141 8.788c-.03.307.111.027.111.027l3.283-8.761c-.751-.223-1.618-.553-2.168-.905zM36.354 109.569l-8.483-3.939s-.299-.1-.056.098l7.68 4.741v.024l-8.75-2.158c-.313-.024-.03.125-.03.125l8.739 3.283c.213-.749.545-1.616.9-2.174zM52.407 111.809l8.763-3.243s.286-.144-.024-.105l-8.774 2.111-.013-.019 7.702-4.698c.234-.2-.068-.097-.068-.097l-8.487 3.882c.38.682.761 1.53.901 2.169zM41.688 105.514l-3.219-8.8s-.146-.278-.116.028l2.097 8.808-.013.01-4.67-7.729c-.202-.241-.1.065-.1.065l3.847 8.518c.683-.375 1.533-.76 2.174-.9zM51.476 109.583a8.728 8.728 0 0 0-1.379-1.792 8.835 8.835 0 0 0-1.739-1.349h.008a4.65 4.65 0 0 1 .719-.929 4.635 4.635 0 0 1 2.51-1.308l.035-.005a2.581 2.581 0 0 0 1.32-.704c.13-.136.245-.279.346-.431l.008-.022c.032-.043.059-.086.083-.126v.005c.089-.146.202-.285.324-.412a2.323 2.323 0 0 1 2.306-.585l-.014-.007c-.218.04-.435.15-.606.322a1.166 1.166 0 0 0-.324 1.05v-.021c.118.712-.1 1.473-.647 2.02-.203.203-.43.365-.675.479h-.017c-.021.015-.032.02-.048.033-.271.11-.505.269-.718.484a2.34 2.34 0 0 0-.678 1.725l.005.03a1.706 1.706 0 0 1-.836 1.533l.017.01zM48.32 121.634a8.769 8.769 0 0 0 1.788-1.384 8.703 8.703 0 0 0 1.35-1.74v.009c.334.191.64.433.922.719a4.686 4.686 0 0 1 1.306 2.519l.003.032c.094.493.327.948.705 1.329.129.128.27.239.421.344l.027.006c.041.033.084.058.13.087h-.017c.151.092.286.203.416.333.62.623.823 1.517.585 2.307l.006-.014a1.155 1.155 0 0 0-1.366-.928h.014a2.343 2.343 0 0 1-2.009-.661 2.302 2.302 0 0 1-.48-.676v-.016c-.008-.014-.021-.027-.029-.052a2.128 2.128 0 0 0-.486-.715 2.308 2.308 0 0 0-1.711-.685l-.032.003a1.719 1.719 0 0 1-1.277-.494 2.108 2.108 0 0 1-.259-.344l-.007.021zM46.125 122.565l3.237 8.796s.144.28.111-.029l-2.106-8.8.008-.013 4.681 7.724c.2.244.105-.062.105-.062l-3.865-8.518c-.678.377-1.526.765-2.171.902zM36.312 118.464a8.845 8.845 0 0 0 3.105 3.144h-.002a5.34 5.34 0 0 1-.718.934 4.689 4.689 0 0 1-2.513 1.297l-.035.011a2.577 2.577 0 0 0-1.665 1.129l-.008.02c-.032.043-.054.092-.087.13v-.006a1.989 1.989 0 0 1-.334.411 2.3 2.3 0 0 1-2.297.583l.016.008c.224-.041.435-.144.604-.325.286-.281.392-.677.327-1.039v.016a2.352 2.352 0 0 1 .65-2.027c.206-.189.433-.354.678-.474h.016c.016-.006.032-.011.048-.024.268-.117.503-.276.713-.493a2.32 2.32 0 0 0 .686-1.719l-.003-.033a1.704 1.704 0 0 1 .494-1.272c.108-.104.222-.189.343-.26l-.018-.011zM35.409 116.252l-8.771 3.229s-.281.144.024.116l8.779-2.108.014.014-7.708 4.691c-.235.205.067.092.067.092l8.49-3.863c-.375-.685-.758-1.538-.895-2.171zM39.503 106.435a8.774 8.774 0 0 0-3.142 3.113v-.002a4.816 4.816 0 0 1-.92-.724 4.65 4.65 0 0 1-1.295-2.523l-.009-.032a2.555 2.555 0 0 0-.704-1.321 2.023 2.023 0 0 0-.421-.344l-.024-.017c-.043-.027-.089-.06-.126-.081h.013a2.302 2.302 0 0 1-.421-.339 2.318 2.318 0 0 1-.575-2.301l-.003.014a1.155 1.155 0 0 0 1.364.928l-.019.005a2.334 2.334 0 0 1 2.011.652c.205.209.367.434.47.678l.008.019c.017.017.02.035.03.054.108.26.281.501.481.715a2.354 2.354 0 0 0 1.717.686l.035-.008a1.7 1.7 0 0 1 1.261.503c.107.103.199.222.267.339l.002-.014z" fill-rule="evenodd" clip-rule="evenodd" fill="#e4be39"/>
  <path d="M37.852 113.106c0-3.856 3.121-6.991 6.969-6.991 3.851 0 6.974 3.135 6.974 6.991 0 3.857-3.123 6.987-6.974 6.987-3.849.001-6.969-3.129-6.969-6.987z" fill-rule="evenodd" clip-rule="evenodd" fill="#e4be39"/>
  <path d="M28.176 74.806c0 1.28 7.094 2.315 15.852 2.315 8.757 0 15.852-1.035 15.852-2.315 0-1.277-7.095-2.312-15.852-2.312-8.757-.001-15.852 1.034-15.852 2.312zm26.756-3.555c.423-.065.68-.141.998-.409l.025-.019c.291-.19.475-.514.475-.885 0-.423-.249-.783-.605-.957l.055.027c-.289-.157-.511-.276-.935-.29m15.72-11.779c-.157-.468-.26-1.042-.168-1.565a3.174 3.174 0 0 1 1.96-2.426l.116-.041c.686-.236 1.301-.425 1.879-.867l.003.02c.094.403.11.81.043 1.242a3.182 3.182 0 0 1-1.876 2.383l-.119.048c-.764.226-1.448.71-1.838 1.206l.005-.017m2.613.767c.267-.42.653-.858 1.11-1.118 1-.569 2.181-.53 3.115-.002l.102.068c.616.387 1.149.733 1.86.913l-.024.032a3.164 3.164 0 0 1-.926.793 3.152 3.152 0 0 1-3.032.049l-.111-.065c-.65-.448-1.468-.681-2.094-.67l.019-.008m-2.26 2.521c.401-.29.914-.56 1.438-.631a3.165 3.165 0 0 1 2.894 1.148l.073.1c.429.585.793 1.111 1.391 1.541l-.011.006a3.172 3.172 0 0 1-4.009-.664l-.078-.105c-.44-.659-1.11-1.174-1.698-1.395h.016m-5.788-1.565c-.231-.501-.421-1.118-.394-1.711a3.518 3.518 0 0 1 1.833-2.935l.125-.059c.727-.355 1.372-.65 1.955-1.219l.01.024c.16.431.225.877.203 1.365a3.536 3.536 0 0 1-1.736 2.885l-.129.065c-.808.353-1.505.986-1.867 1.585l.003-.021m.61 3.299c.435-.347.991-.673 1.568-.785a3.519 3.519 0 0 1 3.271 1.121l.086.103c.513.634.945 1.194 1.625 1.633l-.005.011c-.378.254-.81.422-1.285.514a3.497 3.497 0 0 1-3.2-1.034l-.097-.111c-.521-.704-1.293-1.241-1.963-1.452h.024M61.475 71.93a.343.343 0 0 0 .262-.108l.848-.904c.203-.23.316-.539.316-.875 0-.552-.321-1.026-.792-1.237l-.051-.021c-2.58-1.43-9.729-2.583-18.246-2.583-8.536 0-15.752 1.148-18.322 2.583l-.027.008a1.36 1.36 0 0 0-.78 1.251c0 .336.116.645.318.875l.745.812c.062.071.265.201.362.201m5.769-.681c.423-.065.683-.141.996-.409l.024-.019c.287-.19.472-.514.472-.885 0-.423-.24-.783-.602-.957l.054.027c-.283-.157-.51-.276-.937-.29M13.453 56.661l-.011.021a2.845 2.845 0 0 0-.461.408l-.008.008a2.56 2.56 0 0 1-.697.542c-.251.141-.564.113-.824-.052a.897.897 0 0 1-.226-.23.802.802 0 0 1-1.096.192.808.808 0 0 1-.354-.525l-.003-.003a.817.817 0 0 1-.907.005.83.83 0 0 1-.267-1.074l.011-.043s.057-.151.105-.228a.813.813 0 0 1 1.128-.232c.016.016.038.029.051.043h.002a.815.815 0 0 1 1.523.095l-.002-.012a.802.802 0 0 1 1.085-.175c.013.008.027.011.041.024l.059.041c.392.314.678.712.839 1.156l-.002-.002.014.041zm1.698 3.362l-.002.021a2.837 2.837 0 0 0-.256.628l-.003.011a2.988 2.988 0 0 1-.419.885.885.885 0 0 1-.834.355.95.95 0 0 1-.34-.114h.002a.89.89 0 0 1-.982.739.892.892 0 0 1-.605-.35.896.896 0 0 1-1.681-.468l-.016-.043s-.019-.179-.005-.276a.893.893 0 0 1 .991-.788c.023.005.048.011.075.014h.003c0-.049 0-.095.008-.144a.893.893 0 0 1 1.533-.517h-.011a.893.893 0 0 1 .98-.728c.019.003.035.011.051.011l.078.011a2.916 2.916 0 0 1 1.396.715l.037.038zm2.079-3.606h-.02a2.57 2.57 0 0 0-.602-.144h-.005a2.523 2.523 0 0 1-.85-.251.79.79 0 0 1-.432-.696.755.755 0 0 1 .048-.321v.002a.823.823 0 0 1-.802-.78.808.808 0 0 1 .23-.599.825.825 0 0 1-.543-.736.816.816 0 0 1 .719-.84l.041-.024s.161-.04.243-.043a.812.812 0 0 1 .848.78v.073a.81.81 0 0 1 .974.764.826.826 0 0 1-.165.528l.003-.011a.815.815 0 0 1 .785.782v.046l.005.073a2.69 2.69 0 0 1-.445 1.359l-.032.038zm3.258 5.472l-.005.016a3.446 3.446 0 0 0-.272.677v.005a3.116 3.116 0 0 1-.449.942.936.936 0 0 1-.891.382.92.92 0 0 1-.365-.119h.006a.96.96 0 0 1-1.051.791.969.969 0 0 1-.652-.372l-.003-.002a.953.953 0 0 1-1.789-.498L15 63.662s-.024-.192-.011-.295a.95.95 0 0 1 1.059-.839c.029 0 .057.005.078.011h.005c0-.054 0-.103.008-.154a.955.955 0 0 1 1.639-.552l-.009-.006a.962.962 0 0 1 1.051-.774.361.361 0 0 0 .057.011l.076.013c.578.122 1.085.39 1.498.769v-.008l.037.051zm2.205-3.756l-.024-.014a3.185 3.185 0 0 0-.683-.227l-.008-.009a3.2 3.2 0 0 1-.969-.392.964.964 0 0 1-.427-.872c.011-.136.046-.255.1-.372v.003a.949.949 0 0 1-.839-1.013.916.916 0 0 1 .332-.668.975.975 0 0 1-.543-.928.958.958 0 0 1 .939-.896l.049-.019s.191-.033.294-.028a.963.963 0 0 1 .896 1.021c-.002.024-.002.055-.011.079v.002a.959.959 0 0 1 .797 1.612v-.008c.5.062.858.503.832 1.004 0 .019-.009.038-.009.055l-.008.083a3.146 3.146 0 0 1-.677 1.538v-.002l-.041.051zm-1.611 7.559a1.172 1.172 0 0 1-.019-.346 1.127 1.127 0 0 1 1.342-.973h.005a1.131 1.131 0 0 1 1.26-1.175c.271.03.502.16.675.341l-.008-.011a1.122 1.122 0 0 1 1.234-.905c.021.003.048.003.067.011l.097.011a3.781 3.781 0 0 1 1.76.905l-.008-.003s.064.043.04.078a2.87 2.87 0 0 0-.315.792l-.005.011c-.114.406-.29.78-.524 1.113-.229.327-.624.495-1.05.446-.154-.022-.3-.07-.424-.143h.002a1.128 1.128 0 0 1-1.241.931 1.085 1.085 0 0 1-.761-.438 1.127 1.127 0 0 1-2.114-.588v-.005m7.24-5.145l-.03-.013a3.342 3.342 0 0 0-.78-.344l-.009-.011a3.554 3.554 0 0 1-1.093-.549 1.119 1.119 0 0 1-.413-1.067c.019-.157.07-.298.148-.423v.003a1.124 1.124 0 0 1-.888-1.27 1.16 1.16 0 0 1 .451-.755h.005a1.136 1.136 0 0 1-.542-1.134 1.124 1.124 0 0 1 1.188-.962l.06-.019s.224-.019.343-.003a1.132 1.132 0 0 1 .936 1.373v.005a1.127 1.127 0 0 1 .77 1.964l.013-.009c.567.124.953.674.867 1.264-.006.019-.006.041-.014.06l-.014.101a3.723 3.723 0 0 1-.95 1.732l-.048.057zm7.43 2.733l-.028-.016a4.517 4.517 0 0 0-.969-.263l-.008-.005a4.18 4.18 0 0 1-1.368-.46c-.413-.225-.662-.663-.662-1.167 0-.184.033-.359.103-.52v.005a1.332 1.332 0 0 1-.853-2.283l.008-.002a1.33 1.33 0 0 1 .391-2.553l.064-.027s.263-.062.402-.062c.731 0 1.323.593 1.323 1.327 0 .038 0 .076-.003.111l-.002.005a1.327 1.327 0 0 1 1.236 2.155l.011-.014a1.332 1.332 0 0 1 1.226 1.327v.073l-.008.117a4.4 4.4 0 0 1-.81 2.185v-.008l-.053.075zm23.734.874c.432-.436 1.001-.869 1.625-1.066a3.91 3.91 0 0 1 3.76.79l.11.111c.643.625 1.196 1.189 2.006 1.579l-.008.014c.027-.024-.51.476-1.347.742a3.883 3.883 0 0 1-3.666-.712l-.124-.11c-.672-.712-1.592-1.201-2.356-1.348l.018-.002m-.108-3.301c-.281-.539-.523-1.219-.523-1.874 0-1.427.761-2.669 1.889-3.357l.13-.078c.79-.423 1.493-.785 2.116-1.44v.016c.2.466.299.966.299 1.51a3.918 3.918 0 0 1-1.781 3.29l-.141.087c-.871.427-1.618 1.161-1.989 1.846l.005-.022m-7.055 2.726c-.333-.636-.616-1.432-.616-2.204a4.61 4.61 0 0 1 2.225-3.95l.154-.083c.929-.506 1.758-.928 2.487-1.701l.002.02c.232.552.357 1.137.357 1.773a4.607 4.607 0 0 1-2.101 3.874l-.165.095c-1.032.506-1.907 1.373-2.343 2.176l.005-.026m-9.381 7.369c1.253-.539 3.023-1.632 3.023-1.632s-1.884-1.075-3.01-1.568m-25.712-9.146c0 .501.408.916.915.916a.917.917 0 0 0 .913-.916.913.913 0 1 0-1.828 0zm50.878 0c0 .501.408.916.913.916a.917.917 0 0 0 0-1.831.912.912 0 0 0-.913.915zm-46.084 2.007a1.135 1.135 0 0 0 2.27 0c0-.631-.508-1.141-1.134-1.141-.626 0-1.136.51-1.136 1.141zm40.242 0c0 .627.505 1.134 1.139 1.134.624 0 1.131-.507 1.131-1.134a1.136 1.136 0 1 0-2.27 0zM28.871 63.25a1.419 1.419 0 1 0 2.836 0c0-.785-.637-1.424-1.417-1.424-.786 0-1.419.639-1.419 1.424zm26.619 0a1.417 1.417 0 1 0 2.834 0 1.42 1.42 0 0 0-1.417-1.424 1.42 1.42 0 0 0-1.417 1.424z" fill="none" stroke="#2e2f30" stroke-width=".975" stroke-linecap="round" stroke-linejoin="round" stroke-miterlimit="2.613"/>
</svg>
