<?xml version="1.0" encoding="UTF-8" standalone="no"?><!-- Generator: Gravit.io --><svg xmlns="http://www.w3.org/2000/svg" xmlns:xlink="http://www.w3.org/1999/xlink" style="isolation:isolate" viewBox="0 0 1399 877" width="1399pt" height="877pt"><defs><clipPath id="_clipPath_TfSM0v4DBhiaa1NwWtR4qqBRComuHub2"><rect width="1399" height="877"/></clipPath></defs><g clip-path="url(#_clipPath_TfSM0v4DBhiaa1NwWtR4qqBRComuHub2)"><rect width="1399" height="877" style="fill:rgb(0,0,0)" fill-opacity="0"/><g><g><g><path d=" M 1061.323 490.737 L 1061.323 487.104 C 1055.148 487.104 1052.242 487.104 1048.428 487.104 C 1044.614 487.104 1041.072 487.104 1035.623 487.104 L 1006.759 557.288 L 977.622 487.104 C 972.173 487.104 970.084 487.104 964.454 487.104 C 958.824 487.104 956.281 487.104 951.377 487.104 L 951.377 490.737 L 957.189 490.737 C 962.366 490.737 963.092 491.191 963.092 494.369 L 963.092 580.34 L 967.542 580.34 L 967.542 498.637 L 999.494 575.346 L 1003.671 575.346 L 1035.623 498.637 L 1035.623 566.096 C 1035.623 578.356 1039.528 581.625 1048.064 581.625 L 1049.517 581.625 L 1049.517 494.473 C 1049.517 491.022 1050.698 491.022 1055.42 490.84 L 1061.323 490.737 Z " fill="rgb(29,29,27)"/><path d=" M 1093.457 581.521 L 1093.457 517.967 C 1093.457 516.786 1093.457 516.605 1091.822 516.605 C 1090.187 516.605 1080.107 517.422 1070.754 517.422 L 1070.754 520.782 L 1078.654 520.782 C 1080.38 520.782 1080.743 521.508 1080.743 523.143 L 1080.743 567.899 C 1080.743 575.8 1083.649 581.248 1091.095 581.248 L 1093.457 581.521 Z " fill="rgb(29,29,27)"/><path d=" M 1295.094 581.612 L 1295.094 533.768 C 1294.744 523.35 1286.013 515.178 1275.583 515.528 C 1275.181 515.541 1274.792 515.567 1274.389 515.606 C 1265.127 515.255 1256.655 520.795 1253.231 529.409 L 1253.231 518.239 C 1253.231 517.149 1253.231 516.877 1251.505 516.877 C 1249.78 516.877 1239.791 517.694 1230.437 517.694 L 1230.437 521.054 L 1238.429 521.054 C 1240.063 521.054 1240.517 521.69 1240.517 523.415 L 1240.517 580.159 L 1253.231 580.159 L 1253.231 541.941 C 1252.322 531.394 1259.963 522.027 1270.485 520.782 C 1277.568 520.782 1282.471 525.05 1282.471 535.221 L 1282.471 568.263 C 1282.471 576.163 1285.377 581.612 1292.733 581.612 L 1295.094 581.612 Z " fill="rgb(29,29,27)"/><path d=" M 1136.942 568.185 L 1136.942 487.844 C 1136.942 486.663 1136.942 486.391 1135.216 486.391 C 1133.491 486.391 1123.593 487.208 1114.239 487.208 L 1114.239 490.568 L 1122.14 490.568 C 1123.865 490.568 1124.319 491.204 1124.319 492.929 L 1124.319 581.352 L 1126.589 581.352 C 1134.036 581.352 1136.942 575.904 1136.942 568.003" fill="rgb(29,29,27)"/><path d=" M 1198.589 558.831 C 1198.589 567.912 1192.868 578.174 1184.15 578.174 C 1175.432 578.174 1171.709 574.451 1171.709 564.552 C 1171.709 554.654 1179.246 547.752 1193.503 547.117 L 1196.5 547.117 C 1198.498 547.117 1198.589 547.117 1198.589 549.205 L 1198.589 558.831 Z  M 1211.847 581.521 C 1211.847 578.433 1211.03 571.895 1211.03 568.172 L 1211.03 531.407 C 1211.03 520.963 1201.131 515.061 1188.872 515.061 C 1172.708 515.061 1162.732 524.142 1162.732 528.137 C 1162.732 532.133 1165.093 533.495 1168.271 533.495 C 1177.352 533.495 1173.992 518.693 1187.25 518.693 C 1192.764 517.967 1197.836 521.846 1198.563 527.359 C 1198.667 528.125 1198.68 528.903 1198.602 529.668 L 1198.602 541.383 C 1198.602 543.381 1198.602 543.471 1196.513 543.471 L 1192.608 543.471 C 1172.993 544.107 1157.932 552.552 1157.932 564.449 C 1157.932 576.345 1165.923 581.703 1182.801 581.703 C 1190.027 581.871 1196.5 577.305 1198.783 570.442 C 1199.51 578.797 1203.687 581.339 1209.771 581.339 L 1211.847 581.521 Z " fill-rule="evenodd" fill="rgb(29,29,27)"/><path d=" M 1364.642 547.662 C 1364.642 566.732 1361.645 578.161 1347.115 578.161 C 1332.586 578.161 1329.589 566.719 1329.589 547.662 C 1329.589 531.77 1332.313 518.888 1347.115 518.888 C 1361.917 518.888 1364.642 531.77 1364.642 547.662 Z  M 1378.977 547.662 C 1379.327 530.019 1365.303 515.424 1347.66 515.074 C 1347.479 515.074 1347.297 515.074 1347.115 515.074 C 1329.342 515.32 1315.098 529.889 1315.254 547.662 C 1313.373 565.214 1326.073 580.963 1343.626 582.844 C 1361.178 584.725 1376.927 572.025 1378.808 554.472 C 1379.055 552.215 1379.055 549.932 1378.808 547.675" fill-rule="evenodd" fill="rgb(29,29,27)"/></g></g></g><g><path d=" M 853.169 547.883 C 853.169 565.432 847.254 577.658 835.62 577.658 C 823.986 577.658 818.071 565.038 818.071 547.883 C 818.071 530.728 821.226 519.686 835.62 519.686 C 850.014 519.714 853.169 533.686 853.169 547.883 Z  M 865.789 581.799 L 865.789 487.771 C 865.789 486.785 865.789 486.391 864.212 486.391 C 862.634 486.391 852.381 486.391 843.113 486.391 L 843.113 489.94 L 851 489.94 C 852.578 489.94 853.169 489.94 853.169 492.306 L 853.169 527.207 C 849.817 520.165 842.634 515.771 834.831 515.968 C 817.17 516.391 803.17 531.01 803.48 548.7 C 801.311 565.32 813.001 580.559 829.648 582.756 C 831.029 582.925 832.437 583.038 833.846 583.01 C 842.831 583.404 850.944 577.63 853.564 569.01 C 853.564 577.489 856.324 582.615 864.014 582.615 L 865.789 581.799 Z " fill-rule="evenodd" fill="rgb(29,29,27)"/><path d=" M 905 581.799 L 905 518.137 C 905 517.151 905 516.757 903.225 516.757 C 901.451 516.757 891.592 516.757 882.127 516.757 L 882.127 520.109 L 890.211 520.109 C 891.789 520.109 892.38 520.109 892.38 522.475 L 892.38 567.432 C 892.38 575.32 895.141 580.841 902.634 580.841 L 905 581.799 Z " fill-rule="evenodd" fill="rgb(29,29,27)"/></g><g><path d=" M 874.488 392.258 L 874.488 385.497 C 867.263 395.387 855.789 401.298 843.522 401.453 C 824.051 401.453 817.425 388.742 817.425 356.173 C 817.425 328.317 823.915 313.192 844.469 313.192 C 857.566 311.434 869.601 320.629 871.359 333.726 C 871.417 334.17 871.475 334.634 871.494 335.098 L 875.145 335.098 C 875.145 332.258 875.145 327.931 875.145 324.686 C 875.145 321.44 875.145 317.654 875.145 314.274 C 865.351 311.473 855.287 309.715 845.126 309 C 821.23 309.193 802.029 328.723 802.222 352.619 C 802.241 353.816 802.299 354.995 802.396 356.173 C 802.396 389.843 820.515 406.185 844.16 406.185 C 855.982 406.591 867.36 401.607 875.126 392.663" fill="rgb(29,29,27)"/><path d=" M 940.998 371.569 C 940.998 390.905 938.023 402.399 923.284 402.399 C 908.545 402.399 905.57 390.905 905.57 371.569 C 905.57 355.477 908.409 342.496 923.284 342.496 C 938.158 342.516 940.998 356.038 940.998 371.569 Z  M 955.602 371.569 C 955.969 353.72 941.809 338.961 923.979 338.594 C 923.747 338.594 923.515 338.594 923.303 338.594 C 905.319 338.884 890.927 353.584 890.985 371.588 C 889.343 389.437 902.498 405.22 920.328 406.862 C 938.158 408.504 953.96 395.348 955.602 377.519 C 955.775 375.529 955.775 373.539 955.602 371.569 Z " fill-rule="evenodd" fill="rgb(29,29,27)"/><path d=" M 1073.611 405.915 L 1073.611 357.255 C 1073.65 346.959 1065.324 338.575 1055.008 338.536 C 1054.487 338.536 1053.985 338.556 1053.463 338.594 C 1044.423 338.459 1036.213 343.81 1032.639 352.116 C 1030.05 343.481 1021.763 337.841 1012.761 338.594 C 1003.779 338.42 995.608 343.791 992.208 352.116 L 992.208 341.163 C 992.208 340.082 992.208 339.811 990.585 339.811 C 988.963 339.811 978.686 340.622 969.22 340.622 L 969.22 344.003 L 977.198 344.003 C 978.956 344.003 979.362 344.003 979.362 346.437 L 979.362 403.887 L 992.884 403.887 L 992.884 365.638 C 992.884 354.685 1000.592 344.273 1009.516 344.273 C 1018.441 344.273 1020.74 348.601 1020.74 358.877 L 1020.74 392.277 C 1020.74 400.39 1023.714 405.799 1031.152 405.799 L 1033.586 405.799 L 1033.586 365.252 C 1033.586 354.434 1041.158 343.887 1050.218 343.887 C 1057.249 343.887 1061.441 348.214 1061.441 358.491 L 1061.441 392.296 C 1061.441 400.41 1064.416 405.818 1071.853 405.818 L 1073.611 405.915 Z " fill="rgb(29,29,27)"/><path d=" M 1157.294 405.915 L 1157.294 341.163 L 1143.772 341.163 L 1143.772 379.141 C 1144.815 389.727 1137.281 399.231 1126.734 400.641 C 1119.702 400.641 1115.105 396.179 1115.105 385.902 L 1115.105 341.704 C 1115.105 340.622 1115.105 340.352 1113.347 340.352 C 1111.589 340.352 1101.583 341.163 1092.117 341.163 L 1092.117 344.544 L 1100.095 344.544 C 1101.853 344.544 1102.259 344.544 1102.259 346.978 L 1102.259 387.525 C 1102.278 397.821 1110.642 406.166 1120.958 406.147 C 1121.576 406.147 1122.194 406.108 1122.812 406.05 C 1131.969 406.475 1140.372 401.047 1143.772 392.528 C 1143.772 400.641 1146.746 406.05 1154.184 406.05 L 1157.294 405.915 Z " fill="rgb(29,29,27)"/><path d=" M 1240.976 405.915 L 1240.976 357.255 C 1240.803 346.727 1232.129 338.343 1221.601 338.517 C 1221.08 338.517 1220.539 338.556 1220.017 338.613 C 1210.745 338.246 1202.206 343.617 1198.517 352.136 L 1198.517 341.183 C 1198.517 340.101 1198.517 339.83 1196.894 339.83 C 1195.272 339.83 1184.995 340.642 1175.529 340.642 L 1175.529 344.022 L 1184.319 344.022 C 1185.941 344.022 1186.482 344.022 1186.482 346.456 L 1186.482 403.906 L 1199.193 403.906 L 1199.193 365.658 C 1198.382 355.033 1206.051 345.645 1216.637 344.293 C 1223.938 344.293 1228.806 348.62 1228.806 358.897 L 1228.806 392.296 C 1228.806 400.41 1231.781 405.818 1239.218 405.818 L 1240.976 405.915 Z " fill="rgb(29,29,27)"/><path d=" M 1307.756 366.585 C 1307.756 368.613 1307.756 368.884 1305.593 368.884 L 1280.577 368.884 C 1278.413 368.884 1278.413 368.884 1278.413 366.855 C 1278.413 353.333 1283.011 342.38 1293.693 342.38 C 1304.376 342.38 1307.215 353.198 1307.215 366.585 M 1321.414 369.425 C 1321.955 353.14 1309.418 339.405 1293.152 338.459 C 1275.96 339.618 1262.786 354.222 1263.404 371.453 C 1261.086 388.085 1272.695 403.462 1289.328 405.78 C 1290.912 405.992 1292.496 406.089 1294.08 406.07 C 1303.68 406.688 1313.03 402.902 1319.501 395.793 L 1319.501 389.843 C 1313.899 397.686 1304.801 402.283 1295.161 402.148 C 1281.639 402.148 1277.853 391.195 1277.853 375.104 C 1277.853 372.94 1277.853 372.805 1280.287 372.805 L 1319.482 372.805 C 1320.738 372.786 1321.414 371.974 1321.414 369.425 Z " fill-rule="evenodd" fill="rgb(29,29,27)"/></g><g><path d=" M 314.679 686.059 C 331.5 675.767 352.399 674.992 372.097 671.451 C 397.945 669.601 418.007 648.133 418.117 622.222 L 418.117 410.475 L 211.351 410.475 L 211.351 622.222 C 211.462 648.148 231.523 669.601 257.371 671.451 C 277.069 674.439 297.969 675.767 314.679 686.059 Z " fill-rule="evenodd" fill="rgb(255,255,255)"/><path d=" M 419.335 510.041 L 344.226 510.041 L 344.226 407.487 L 285.258 407.487 L 285.258 510.041 L 208.806 510.041 L 208.806 569.008 L 285.258 569.008 L 285.258 678.644 L 314.679 689.157 L 344.226 678.644 L 344.226 569.008 L 419.335 569.008 L 419.335 510.041 Z " fill="rgb(225,6,19)"/><path d=" M 163.892 379.711 C 171.069 393.654 169.963 410.428 161.015 423.296 C 157.727 428.371 153.695 432.908 149.063 436.797 C 139.878 443.975 132.337 453.033 126.931 463.356 L 126.931 463.356 L 126.931 463.356 C 129.112 453.618 132.258 444.133 136.337 435.027 C 141.364 424.861 147.166 415.091 153.711 405.827 C 154.833 403.804 155.308 401.48 155.039 399.187 C 154.612 398.982 154.138 398.982 153.711 399.187 C 149.917 402.381 146.597 406.112 143.862 410.254 C 138.771 417.257 134.266 424.656 130.361 432.386 L 130.361 432.386 L 130.361 432.386 C 126.298 440.892 122.962 449.745 120.401 458.835 L 120.401 460.163 C 119.627 452.527 115.975 446.109 114.979 438.584 C 117.951 421.352 127.405 405.906 141.427 395.441 C 148.099 390.24 153.458 383.536 157.031 375.853 C 157.031 374.968 158.802 374.968 159.798 375.079 C 161.537 376.233 162.959 377.829 163.892 379.711 Z " fill="rgb(0,120,90)"/><path d=" M 109.24 410.475 C 110.236 411.803 109.24 413.352 109.24 414.902 C 105.019 429.478 105.731 445.018 111.232 459.151 C 113.951 469.601 114.267 480.541 112.117 491.117 L 111.232 491.117 C 111.232 491.117 109.13 487.908 108.355 486.027 C 101.589 475.577 97.241 463.736 95.629 451.405 C 94.965 445.982 96.514 440.338 95.629 435.58 C 95.502 435.042 95.186 434.568 94.743 434.252 C 92.973 434.252 92.862 436.133 91.866 437.019 C 85.448 455.721 93.969 474.075 102.932 489.125 C 105.177 492.856 107.106 496.793 108.687 500.855 C 114.394 512.728 116.844 525.897 115.769 539.019 C 115.564 541.516 114.995 543.983 114.109 546.322 L 114.109 546.322 C 112.07 541.042 108.592 536.426 104.039 533.043 L 101.604 532.157 C 101.051 525.881 99.786 519.684 97.842 513.677 C 94.522 500.618 86.776 490.327 81.906 477.616 C 81.906 477.616 81.906 476.952 81.906 476.51 C 77.764 466.423 76.436 455.42 78.033 444.654 C 80.61 430.41 89.194 417.953 101.604 410.475 C 103.707 409.811 107.359 407.045 109.24 410.475 Z " fill="rgb(0,120,90)"/><path d=" M 170.975 437.904 C 175.654 454.25 172.54 471.83 162.564 485.584 C 154.233 495.37 145.048 504.413 135.12 512.586 C 130.535 516.823 126.551 521.66 123.279 526.972 C 123.279 526.972 123.279 525.091 123.279 524.095 C 122.915 519.937 122.14 515.827 120.955 511.811 C 122.014 510.562 122.978 509.234 123.832 507.827 C 132.685 495.986 145.965 488.793 153.806 476.304 C 157.663 471.119 160.351 465.159 161.663 458.819 C 161.663 457.823 161.663 456.495 160.667 456.053 C 159.671 455.61 157.568 458.266 156.351 459.705 C 150.249 470.66 141.965 480.272 132.005 487.924 C 126.646 492.445 121.951 497.694 118.062 503.527 L 118.062 503.527 C 118.062 501.646 118.062 499.654 118.062 497.773 C 122.393 476.936 134.803 458.677 152.573 446.994 C 157.505 443.026 161.331 437.841 163.639 431.944 C 163.639 431.28 164.524 430.616 165.41 430.727 C 168.84 430.727 169.947 435.042 171.164 437.92" fill="rgb(0,120,90)"/><path d=" M 76.816 483.924 C 77.622 485.094 78.049 486.485 78.033 487.908 C 79.013 498.231 81.669 508.317 85.89 517.771 C 86.317 518.324 86.617 518.973 86.776 519.652 C 92.388 528.838 97.352 538.418 101.604 548.298 C 102.711 550.844 103.264 553.389 104.15 555.934 C 105.873 560.93 106.916 566.147 107.248 571.427 L 107.248 571.427 C 98.806 563.839 91.107 555.46 84.23 546.417 C 79.171 538.75 75.741 530.134 74.16 521.075 C 73.828 518.277 73.306 515.51 72.611 512.776 C 72.453 511.669 71.852 510.673 70.951 510.009 C 69.069 510.009 69.18 512.776 68.627 514.325 C 68.01 522.182 68.99 530.086 71.504 537.564 C 72.389 539.003 72.611 540.773 73.496 542.323 C 78.444 553.025 85.748 562.479 94.854 569.988 C 100.703 575.553 105.857 581.798 110.236 588.58 C 107.58 593.876 105.399 599.393 103.707 605.069 L 103.707 605.069 C 101.604 601.528 99.28 597.986 96.957 594.556 C 89.416 584.723 81.132 575.474 72.168 566.89 C 61.75 554.511 56.059 538.829 56.122 522.64 C 56.296 508.602 61.781 495.164 71.504 485.031 C 72.721 483.371 75.267 481.932 77.037 483.481" fill="rgb(0,120,90)"/><path d=" M 165.884 503.733 C 167.544 505.835 165.884 508.381 165.22 510.594 C 161.015 521.66 163.449 534.94 159.244 545.88 C 153.189 561.025 144.7 575.063 134.124 587.473 C 133.349 589.244 131.8 590.793 130.914 592.785 C 126.045 601.338 123.089 610.855 122.283 620.672 L 122.283 620.672 C 119.469 616.056 115.058 612.641 109.888 611.045 C 109.888 610.381 109.888 609.827 109.888 609.163 C 113.746 596.137 120.054 583.979 128.48 573.324 C 140.115 561.009 148.051 545.674 151.387 529.075 C 151.387 527.193 151.387 525.091 150.17 524.095 C 148.953 523.099 147.071 527.193 146.297 529.075 C 144.4 534.75 142.028 540.267 139.214 545.563 C 136.448 549.658 134.124 553.974 131.136 557.958 C 126.156 565.262 120.069 571.791 114.868 579.205 L 114.315 579.205 C 113.73 553.405 125.286 528.838 145.506 512.823 C 149.933 509.045 154.802 505.804 160.003 503.195 C 161.742 502.31 163.797 502.31 165.536 503.195" fill="rgb(0,120,90)"/><path d=" M 72.057 577.861 C 78.492 591.631 88.499 603.44 101.035 612.041 C 112.133 620.83 120.876 632.229 126.488 645.224 C 126.488 645.224 125.381 645.224 124.828 645.224 C 105.541 638.236 89.099 625.099 78.033 607.835 C 76.705 606.065 76.041 603.962 73.717 603.519 C 71.393 603.077 72.832 606.175 73.053 607.503 C 76.547 618.538 83.63 628.087 93.194 634.616 C 105.478 645.018 121.745 648.891 134.566 658.741 C 142.882 664.511 149.806 672.068 154.818 680.873 C 154.818 680.873 154.818 680.873 154.043 680.873 C 151.861 679.782 149.569 678.96 147.182 678.439 C 143.925 677.506 140.479 677.506 137.222 678.439 L 137.222 678.439 C 131.484 672.463 124.844 667.42 117.524 663.499 C 113.999 661.349 110.299 659.499 106.458 657.966 C 98.917 654.646 91.819 650.409 85.321 645.35 C 67.346 631.976 58.699 609.448 63.078 587.489 C 63.394 583.537 64.738 579.727 66.951 576.423 C 67.741 575.996 68.706 575.996 69.496 576.423 C 70.492 576.423 70.935 577.861 71.599 578.747" fill="rgb(0,120,90)"/><path d=" M 164.003 577.861 C 169.536 595.789 167.702 615.171 158.912 631.739 C 153.711 641.572 151.276 652.607 151.83 663.705 C 150.549 662.803 149.364 661.76 148.289 660.606 C 145.522 658.282 142.534 655.626 139.325 653.413 C 139.989 652.306 139.325 650.868 140.099 649.65 C 140.748 645.84 141.854 642.125 143.419 638.584 C 143.846 636.908 144.431 635.28 145.19 633.715 C 147.514 628.071 150.723 622.648 152.826 616.673 C 156.335 609.543 157.647 601.528 156.588 593.655 C 156.588 593.655 156.588 592.991 155.703 592.769 C 154.818 592.548 153.822 594.208 153.158 595.204 C 151.387 602.207 148.937 609.021 145.854 615.566 C 140.526 624.546 136.574 634.284 134.124 644.433 C 134.124 644.433 134.124 644.433 133.46 643.548 C 131.563 637.794 130.551 631.786 130.472 625.731 C 130.677 613.084 135.293 600.927 143.53 591.331 C 148.763 584.833 152.541 577.292 154.596 569.198 C 155.007 568.392 155.719 567.791 156.588 567.538 C 161.125 568.534 162.896 573.846 164.445 577.719" fill="rgb(0,120,90)"/><path d=" M 98.395 663.151 C 107.833 671.688 118.836 678.296 130.804 682.628 C 134.898 684.256 138.882 686.153 142.755 688.272 C 143.783 688.714 144.779 689.236 145.743 689.821 C 151.419 693.204 156.746 697.141 161.679 701.551 C 162.564 702.769 164.003 703.875 164.777 705.203 C 161.015 705.203 157.142 704.097 153.711 703.986 C 152.826 704.097 151.94 704.097 151.055 703.986 C 136.922 702.215 123.69 696.066 113.224 686.391 C 111.785 685.505 110.347 684.067 108.466 684.509 C 106.584 684.952 108.466 687.94 109.683 689.6 C 120.085 701.773 134.788 709.456 150.723 711.068 C 159.466 711.985 168.097 713.724 176.508 716.27 C 177.172 716.27 176.508 717.487 177.172 718.04 C 178.658 722.973 180.634 727.747 183.037 732.316 C 182.373 732.316 181.709 732.316 181.045 731.763 C 169.726 727.842 158.059 725.059 146.202 723.463 C 141.317 722.483 136.511 721.155 131.816 719.479 C 117.888 714.072 106.205 704.144 98.632 691.26 C 94.917 684.43 92.656 676.889 91.992 669.127 C 91.992 666.25 91.439 662.487 93.984 660.827 C 96.53 659.167 97.526 662.155 98.632 663.262" fill="rgb(0,120,90)"/><path d=" M 176.492 630.079 C 177.361 633.193 177.962 636.371 178.263 639.596 C 180.476 649.445 187.005 657.523 188.776 667.594 C 192.206 682.533 192.759 698.232 196.854 712.728 C 199.289 720.665 203.035 728.142 207.92 734.861 C 204.363 733.612 200.632 732.98 196.854 732.98 C 195.447 733.122 194.072 733.47 192.759 733.976 C 183.416 717.534 178.674 698.896 179.037 679.988 C 178.152 672.162 176.761 664.4 174.832 656.749 C 174.532 655.326 173.741 654.029 172.619 653.097 C 170.848 653.097 171.069 654.757 170.405 655.753 C 170.563 665.08 171.354 674.407 172.729 683.64 C 173.504 690.722 172.729 698.026 174.279 704.887 C 173.82 704.745 173.488 704.365 173.393 703.891 C 172.018 702.547 170.801 701.061 169.741 699.465 C 161.616 687.655 157.995 673.332 159.56 659.088 C 160.224 653.539 161.521 648.085 163.434 642.821 C 163.434 642.821 163.434 641.825 163.434 641.272 C 165.52 637.114 168.319 633.367 171.733 630.205 C 172.84 629.431 175.275 628.877 175.939 630.205" fill="rgb(0,120,90)"/><path d=" M 161.236 734.845 C 171.038 738.213 181.298 739.999 191.653 740.157 C 202.751 741.185 213.39 744.995 222.623 751.223 L 222.623 751.223 C 206.134 749.896 188.444 754.322 173.504 748.014 C 172.176 748.014 170.516 746.686 169.077 748.014 C 167.639 749.342 169.077 748.014 169.077 749.01 C 170.959 751.318 173.393 753.105 176.16 754.211 C 186.815 757.863 198.15 759.112 209.343 757.863 C 225.895 757.152 242.368 760.456 257.355 767.491 L 257.355 767.491 C 250.289 768.866 243.38 771.032 236.772 773.909 C 227.713 771.759 218.418 770.827 209.106 771.143 C 207.446 771.254 205.786 771.254 204.126 771.143 C 200.364 771.143 196.712 770.479 193.06 770.258 C 189.297 769.625 185.598 768.677 181.993 767.38 C 167.196 762.511 155.15 751.619 148.81 737.406 C 147.735 735.573 147.308 733.422 147.593 731.32 C 147.941 730.735 148.494 730.308 149.142 730.103 C 153.347 731.241 157.395 732.869 161.205 734.972" fill="rgb(0,120,90)"/><path d=" M 208.252 688.272 C 222.433 692.366 233.958 702.721 239.554 716.38 C 247.285 734.181 259.537 749.658 275.061 761.294 C 275.994 761.61 276.848 762.1 277.607 762.732 C 277.607 763.396 276.279 763.507 275.393 763.507 C 260.169 764.108 246.115 755.334 239.997 741.374 C 235.681 733.517 232.361 725.218 227.713 717.692 C 225.136 713.298 221.627 709.519 217.422 706.626 C 216.837 706.626 216.315 706.974 216.094 707.511 C 216.094 709.835 217.532 711.717 218.307 713.709 C 226.275 724.775 229.373 739.493 237.784 750.322 L 237.784 750.322 C 225.184 746.465 215.161 736.853 210.782 724.427 C 208.078 713.06 204.379 701.947 199.715 691.244 C 199.715 690.248 199.051 688.92 199.715 688.035 C 202.118 687.039 204.822 687.039 207.24 688.035 L 208.252 688.272 Z " fill="rgb(0,120,90)"/><path d=" M 469.007 688.05 C 469.117 685.948 469.117 683.845 469.007 681.743 C 470.066 681.885 471.109 681.474 471.773 680.636 C 476.864 673.996 473.433 663.926 477.639 656.954 C 478.429 654.883 480.405 653.524 482.618 653.524 C 485.622 654.757 488.025 657.144 489.258 660.163 C 489.258 661.602 490.476 663.262 492.025 663.594 M 492.799 663.594 C 497.669 660.938 498.554 655.294 500.214 650.536 C 501.147 646.694 502.522 642.995 504.308 639.469 C 505.415 637.24 507.375 635.533 509.731 634.711 C 509.731 634.711 510.838 634.711 511.17 634.711 C 513.541 635.833 514.98 638.284 514.821 640.908 C 515.074 641.762 515.675 642.489 516.481 642.9 C 519.359 642.9 520.908 640.576 522.789 638.916 C 525.761 631.834 531.658 626.395 538.946 623.976 C 541.207 623.581 543.483 624.577 544.701 626.522 C 548.02 632.608 544.701 639.027 542.377 644.67 C 541.887 646.267 542.092 647.99 542.93 649.429 C 544.701 649.429 546.803 649.429 548.684 650.093 C 550.06 650.646 551.008 651.927 551.119 653.413 C 550.455 660.053 544.147 664.479 540.053 667.246 C 535.958 670.012 531.753 671.34 528.986 675.546 C 528.939 676.13 528.939 676.731 528.986 677.316 C 529.761 678.312 530.868 678.091 531.753 678.533 C 533.84 678.581 535.674 679.893 536.401 681.853 C 536.954 685.837 532.97 687.719 530.646 689.821 C 525.161 692.461 519.406 694.532 513.494 696.018 C 510.616 697.03 508.024 698.737 505.968 700.998 C 505.968 701.551 505.304 702.547 505.968 703.101 C 506.632 703.654 510.727 703.765 512.83 704.982 C 515.169 705.251 517.082 706.99 517.588 709.298 C 517.035 713.946 512.166 715.938 508.514 717.487 C 507.897 717.376 507.249 717.376 506.632 717.487 C 505.146 717.93 503.629 718.262 502.095 718.483 C 499.044 718.862 495.961 718.862 492.91 718.483 C 495.361 712.649 494.428 705.946 490.476 700.998 L 487.377 699.891 C 493.685 694.58 499.661 688.825 505.526 683.071 C 505.526 683.071 506.19 682.296 506.522 681.853 L 516.371 670.787 C 517.809 669.238 518.805 667.578 520.023 666.139 C 521.24 664.701 523.675 660.938 525.666 658.061 C 525.666 658.061 525.666 657.286 526.33 657.065 C 528.48 654.014 530.093 650.599 531.089 646.994 C 531.089 646.994 531.089 645.998 531.089 645.666 C 530.694 645.366 530.156 645.366 529.761 645.666 C 527.579 646.947 525.714 648.733 524.339 650.868 C 509.968 668.194 493.874 684.019 476.326 698.105 C 475.315 698.279 474.319 698.5 473.339 698.769 C 471.473 699.085 469.655 699.607 467.916 700.318 C 466.809 697.014 466.809 693.441 467.916 690.137 L 492.799 663.594 Z " fill="rgb(0,120,90)"/><path d=" M 498.443 508.823 C 501.874 507.495 508.292 513.028 508.624 506.389 C 508.956 499.749 500.657 493.109 498.222 486.027 C 496.862 483.323 496.388 480.272 496.894 477.284 C 497.21 476.304 497.827 475.45 498.665 474.85 C 500.404 474.17 502.348 474.17 504.087 474.85 C 505.32 475.419 506.727 475.419 507.96 474.85 C 508.719 474.344 509.114 473.427 508.956 472.526 C 507.486 468.605 505.51 464.89 503.091 461.459 C 501.321 457.365 498.554 452.496 501.099 447.958 C 501.099 447.184 501.874 446.962 502.759 446.741 C 504.119 446.235 505.605 446.235 506.964 446.741 C 508.624 447.516 510.948 448.844 513.051 445.634 C 516.26 440.212 513.051 433.129 513.825 426.822 C 514.031 423.091 516.118 419.723 519.359 417.858 C 520.718 417.558 522.141 417.795 523.343 418.522 C 529.761 422.395 530.536 430.474 535.294 435.896 C 536.037 436.75 537.049 437.287 538.171 437.445 C 540.385 436.228 541.713 433.461 544.479 433.24 C 546.139 433.224 547.657 434.173 548.352 435.675 C 552.558 445.634 546.582 455.373 547.356 465.538 C 547.436 466.913 548.131 468.162 549.238 468.969 C 550.566 468.969 551.562 468.969 552.558 467.862 C 553.886 465.744 556.241 464.479 558.755 464.542 C 560.051 464.858 561.031 465.902 561.3 467.198 C 562.739 476.494 556.21 483.244 553.111 491.101 C 553.111 492.761 552.115 494.864 553.111 496.192 C 553.996 496.966 555.229 497.188 556.32 496.745 C 558.186 495.354 560.668 495.133 562.739 496.192 C 565.063 498.405 563.956 502.389 562.739 504.934 C 561.869 507.021 560.763 508.981 559.419 510.799 C 554.945 508.412 549.507 508.744 545.365 511.685 C 539.025 516.823 535.231 524.443 534.962 532.6 C 533.144 531.636 531.215 530.924 529.208 530.497 C 530.314 524.079 530.868 517.218 531.974 510.467 C 531.753 510.214 531.753 509.835 531.974 509.582 C 531.974 503.828 532.86 497.409 532.97 491.323 C 533.033 479.039 531.958 466.787 529.761 454.709 C 528.322 451.5 528.322 447.294 524.892 445.413 C 523.785 445.413 523.675 446.852 523.343 447.737 C 523.374 452.006 523.785 456.258 524.56 460.463 C 526.014 476.193 525.761 492.034 523.785 507.701 C 523.011 511.242 522.9 515.226 522.015 518.767 C 520.023 532.711 517.256 546.101 514.379 559.697 L 514.379 559.697 C 512.529 558.701 510.506 558.1 508.403 557.926 C 508.403 556.82 508.403 555.381 508.403 554.164 C 507.755 544.504 504.925 535.13 500.103 526.719 C 497.574 522.466 496.23 517.613 496.23 512.665 C 496.404 510.926 497.447 509.377 498.997 508.57" fill="rgb(0,120,90)"/><path d=" M 520.56 576.423 C 520.56 576.423 520.56 575.869 520.56 575.537 C 520.702 572.755 520.449 569.957 519.786 567.238 C 521.003 567.238 522.552 569.008 524.212 568.123 C 524.829 567.586 525.224 566.827 525.319 566.02 C 525.872 563.949 525.872 561.784 525.319 559.713 C 523.58 555.065 522.6 550.18 522.441 545.216 C 522.22 542.576 523.675 540.094 526.093 539.019 C 530.077 538.465 531.848 541.564 534.504 543.777 C 535.373 544.204 536.401 544.204 537.27 543.777 C 540.148 540.773 541.871 536.869 542.14 532.711 C 543.072 526.956 546.108 521.755 550.661 518.103 C 552.447 517.091 554.629 517.091 556.415 518.103 C 560.225 522.087 562.091 527.557 561.506 533.043 C 561.395 533.881 561.395 534.75 561.506 535.588 C 561.284 537.311 561.901 539.034 563.166 540.236 C 565.268 540.9 566.153 538.576 567.924 538.576 C 569.695 538.576 569.805 538.576 570.912 538.576 C 572.019 538.576 573.789 541.342 574.121 543.334 C 572.857 552.346 569.015 560.788 563.055 567.68 C 563.055 569.008 561.838 570.89 563.055 572.107 C 564.272 573.324 567.149 572.107 568.92 572.107 C 569.695 572.123 570.454 572.312 571.133 572.66 C 572.461 573.798 573.062 575.585 572.683 577.308 C 572.05 580.17 570.596 582.794 568.477 584.833 C 567.228 586.446 565.853 587.963 564.383 589.37 C 563.83 589.37 563.276 590.366 562.723 590.698 C 559.735 594.24 554.976 596.342 554.091 601.211 C 554.091 601.907 554.471 602.539 555.087 602.871 C 557.632 602.871 559.956 601.986 562.723 602.871 C 564.367 603.014 565.885 603.804 566.928 605.085 C 568.588 609.622 564.383 613.163 561.395 616.151 C 558.202 618.396 554.739 620.261 551.103 621.684 L 551.103 621.684 C 548.194 618.174 543.673 616.404 539.152 617.036 C 535.737 617.542 532.528 618.949 529.856 621.131 C 529.192 618.744 527.658 616.688 525.54 615.376 C 529.303 610.064 533.286 604.31 536.606 599.109 C 538.488 596.564 539.926 593.465 541.697 591.03 C 543.689 586.272 546.455 581.956 548.226 576.976 C 549.111 574.32 550.329 571.775 550.993 569.008 C 553.396 561.894 554.218 554.353 553.427 546.876 C 553.364 545.943 552.874 545.089 552.099 544.552 C 550.55 544.552 550.107 546.544 549.554 547.65 C 548.337 551.745 547.783 555.95 546.234 559.934 C 542.456 571.807 537.175 583.142 530.52 593.67 C 529.571 590.319 526.773 587.805 523.327 587.252 C 522.125 587.031 520.876 587.031 519.675 587.252 C 519.675 586.145 520.339 585.371 520.339 584.264 C 520.845 581.687 520.908 579.031 520.56 576.423 Z " fill="rgb(0,120,90)"/><path d=" M 458.178 401.622 C 460.043 400.958 462.067 400.958 463.932 401.622 C 464.58 401.843 465.276 401.843 465.924 401.622 C 469.133 400.847 469.687 396.642 468.801 394.429 C 467.031 390.002 460.723 385.244 461.608 379.489 C 461.893 377.403 463.3 375.616 465.26 374.842 C 472.453 371.964 480.532 381.703 486.175 385.908 C 488.61 387.346 490.713 389.449 493.811 388.785 C 496.91 388.121 496.024 384.248 498.57 383.473 C 501.02 383.299 503.328 384.612 504.435 386.793 C 507.755 393.718 509.604 401.243 509.857 408.926 C 509.857 411.803 509.857 414.902 510.411 417.89 C 508.814 420.593 507.692 423.549 507.091 426.632 C 506.601 431.138 506.79 435.675 507.644 440.133 C 506.206 439.959 504.767 439.959 503.328 440.133 C 500.325 425.589 494.538 411.771 486.286 399.425 C 484.516 397.433 482.634 394.555 479.868 394.334 C 479.504 394.903 479.504 395.646 479.868 396.215 C 479.915 397.164 480.215 398.081 480.753 398.871 C 480.753 399.757 481.417 400.31 481.638 401.306 C 488.547 414.253 493.574 428.102 496.578 442.457 C 496.578 443.895 495.25 444.449 494.807 445.777 C 494.333 447.674 493.969 449.587 493.701 451.531 L 493.701 451.531 C 489.053 444.67 476.769 443.453 471.568 436.481 C 470.351 434.963 469.94 432.94 470.461 431.059 C 471.9 428.513 475.22 429.509 477.544 428.845 C 478.224 428.45 478.682 427.754 478.761 426.964 C 477.006 423.391 474.082 420.545 470.461 418.886 C 464.422 416.309 459.6 411.519 456.96 405.495 C 456.47 403.993 457.055 402.349 458.399 401.511" fill="rgb(0,120,90)"/><path d=" M 459.838 442.994 C 461.482 442.425 463.284 442.425 464.928 442.994 L 466.809 443.769 C 474.366 449.018 482.365 453.602 490.713 457.491 C 491.803 457.586 492.878 457.222 493.701 456.495 C 494.428 459.689 495.74 462.724 497.574 465.459 C 497.874 465.554 498.175 465.665 498.459 465.791 C 495.297 466.502 492.673 468.684 491.377 471.656 L 490.823 472.652 C 487.709 468.289 483.614 464.732 478.872 462.25 C 478.176 462.107 477.48 462.55 477.322 463.246 C 477.322 467.008 480.642 469.886 482.524 472.652 C 488.484 481.331 492.878 490.991 495.471 501.187 C 493.732 502.041 492.215 503.29 491.045 504.839 C 488.073 510.72 488.073 517.661 491.045 523.541 C 492.483 526.861 494.807 530.071 496.135 533.501 C 498.475 539.177 500.119 545.121 501.004 551.207 C 500.783 553.784 500.783 556.377 501.004 558.954 C 501.004 558.954 501.004 559.618 501.004 559.728 C 501.004 559.839 501.004 558.732 500.34 558.4 C 496.799 546.338 478.208 534.497 470.809 525.217 C 466.098 520.364 463.758 513.692 464.391 506.958 C 464.881 505.298 466.414 504.175 468.153 504.191 C 470.193 504.302 472.216 504.523 474.24 504.855 C 475.204 504.76 476.042 504.175 476.453 503.306 C 477.228 500.207 475.125 497.773 473.576 495.449 C 470.936 492.809 468.169 490.295 465.276 487.924 C 465.276 487.924 465.276 487.26 464.723 487.149 C 461.845 483.829 458.525 481.063 459.853 476.083 C 460.96 473.98 463.395 474.201 465.276 473.869 C 466.051 473.506 466.62 472.81 466.825 471.988 C 466.825 466.123 462.62 462.139 460.296 457.602 C 458.209 454.298 457.245 450.425 457.529 446.536 C 458.193 445.318 458.525 443.88 459.964 443.105" fill="rgb(0,120,90)"/><path d=" M 456.518 624.767 C 456.644 622.49 456.945 620.245 457.403 618.016 C 458.178 615.582 459.063 612.926 461.83 612.262 C 464.596 611.598 468.359 618.68 471.236 614.033 C 472.121 610.618 471.9 607.013 470.572 603.741 C 469.687 600.2 467.695 596.99 466.809 593.228 C 465.292 589.734 464.422 585.971 464.264 582.161 C 464.201 580.217 464.976 578.32 466.367 576.96 C 468.027 575.079 470.24 576.96 472.121 576.186 C 474.002 575.411 473.339 575.522 473.892 574.968 C 474.998 568.661 470.793 563.902 471.679 557.262 C 471.615 553.705 473.259 550.322 476.105 548.188 C 479.915 546.148 484.642 547.239 487.171 550.733 C 489.796 554.148 492.025 557.863 493.811 561.799 C 496.246 567.333 497.684 572.312 504.103 567.775 C 506.095 566.337 507.644 564.123 510.521 564.345 C 512.197 564.708 513.525 565.989 513.952 567.665 C 514.695 571.617 514.426 575.68 513.177 579.506 C 512.197 582.067 511.596 584.738 511.407 587.473 C 511.011 589.26 511.011 591.109 511.407 592.896 C 511.407 593.449 512.071 594.334 512.845 594.334 C 513.62 594.334 515.612 593.006 517.272 592.785 C 518.963 592.01 520.892 592.01 522.584 592.785 C 523.754 593.765 524.339 595.267 524.133 596.769 C 523.358 604.183 516.276 608.499 513.067 615.028 C 512.671 615.993 512.671 617.052 513.067 618.016 C 513.335 618.522 513.825 618.854 514.395 618.902 C 514.395 618.902 514.395 618.902 515.059 618.902 C 515.723 618.902 516.829 618.902 517.604 618.238 C 518.379 617.574 522.141 618.238 523.248 620.34 C 524.576 624.435 521.477 627.533 519.153 630.3 L 519.153 630.3 C 516.766 627.454 513.114 626 509.415 626.427 C 499.344 629.083 496.135 639.596 493.479 650.33 C 492.483 648.781 491.155 647.453 489.606 646.457 C 496.451 625.968 497.495 603.994 492.594 582.952 C 492.278 578.873 490.697 575.016 488.057 571.886 C 487.44 571.838 486.839 572.139 486.507 572.66 C 486.175 574.747 486.175 576.881 486.507 578.968 C 489.985 600.895 488.626 623.328 482.524 644.686 C 480.421 644.67 478.366 645.334 476.658 646.568 C 471.062 651.437 468.28 658.788 469.244 666.155 C 469.26 668.242 468.722 670.313 467.695 672.131 C 463.157 659.515 456.628 658.187 452.423 661.064 C 459.395 649.998 457.624 638.932 457.071 625.004" fill="rgb(0,120,90)"/><path d=" M 401.534 700.002 C 403.636 697.568 406.735 694.358 409.944 696.129 C 413.153 697.9 411.051 702.437 414.039 704.207 C 417.027 705.978 419.24 700.002 420.347 696.793 C 421.706 691.228 423.398 685.774 425.437 680.415 C 426.986 677.648 428.425 674.66 432.188 675.656 C 435.95 676.652 434.511 683.071 438.495 682.517 C 442.479 681.964 446.463 666.471 454.21 668.242 C 458.083 669.127 461.735 675.988 461.845 684.952 C 460.897 690.58 460.707 696.319 461.292 701.994 C 461.292 701.994 461.956 702.879 461.956 703.433 C 459.743 705.425 457.308 707.195 454.984 708.966 C 454.225 707.164 453.103 705.535 451.664 704.207 C 450.589 703.369 449.451 702.626 448.234 701.994 C 450.352 697.615 451.427 692.809 451.332 687.94 C 450.779 687.513 450.004 687.513 449.451 687.94 C 446.574 690.153 444.692 696.793 441.594 701.994 C 433.025 704.745 426.243 711.337 423.224 719.811 C 423.224 719.811 423.224 719.036 422.56 718.815 C 420.236 715.827 416.426 714.404 412.711 715.163 C 402.862 717.266 397.771 727.557 392.127 736.078 C 390.578 731.984 387.59 731.431 383.938 730.103 C 392.57 719.036 394.341 707.97 401.312 700.461" fill="rgb(0,120,90)"/><path d=" M 367.117 752.33 C 370.69 746.244 375.338 740.837 380.84 736.395 C 382.31 735.731 384.002 735.731 385.488 736.395 C 387.48 737.501 387.59 742.592 390.799 742.37 C 394.009 742.149 400.87 734.403 403.747 730.197 C 406.024 726.119 409.786 723.068 414.26 721.676 C 415.699 721.297 417.216 721.866 418.023 723.115 C 419.683 725.66 418.023 729.865 420.236 731.968 C 422.781 731.968 424.441 730.197 425.88 728.537 C 427.318 726.878 428.978 723.447 430.638 721.455 C 430.875 720.554 431.334 719.716 431.966 719.02 C 434.654 714.388 438.938 710.895 444.029 709.171 C 445.752 708.776 447.522 709.598 448.344 711.163 C 448.977 712.475 449.293 713.914 449.23 715.369 C 449.23 715.369 449.23 715.922 449.23 716.365 C 449.23 716.807 449.23 718.135 450.558 718.356 C 452.502 718.688 454.494 718.341 456.201 717.36 C 463.395 714.594 467.268 707.622 474.904 706.294 C 478.16 705.124 481.765 705.44 484.753 707.179 C 487.045 709.693 487.693 713.313 486.413 716.475 C 486.413 716.475 486.413 717.25 486.413 717.471 C 484.531 722.451 481.211 726.656 478.998 731.415 C 478.998 732.079 478.998 732.521 478.998 733.185 C 478.777 734.608 479.172 736.063 480.105 737.169 C 480.879 737.628 481.686 737.991 482.539 738.276 C 484.215 738.829 485.606 740.031 486.413 741.596 C 486.618 744.315 485.053 746.86 482.539 747.904 C 474.461 752.994 463.616 751.113 455.095 755.097 C 452.66 755.871 449.451 757.089 448.898 759.855 C 448.344 762.622 448.898 761.626 450.226 762.179 C 451.554 762.732 453.988 764.282 454.099 766.274 C 454.21 768.266 450.779 771.254 448.123 772.36 L 445.799 773.135 C 432.741 776.012 418.576 771.807 405.423 774.02 C 402.103 774.447 398.846 775.222 395.684 776.344 C 394.688 776.344 393.914 775.68 392.918 775.459 C 387.717 772.945 382.31 770.874 376.761 769.262 L 387.827 767.048 C 387.827 767.048 389.155 767.048 389.598 767.048 C 392.143 765.942 394.799 766.163 397.234 764.946 C 399.668 763.728 399.115 764.171 400.111 764.282 C 404.095 762.843 408.079 761.626 412.173 760.298 L 422.354 756.425 C 422.829 756.314 423.319 756.314 423.793 756.425 C 424.504 755.966 425.295 755.618 426.117 755.429 L 429.99 753.658 C 435.27 751.382 440.408 748.805 445.372 745.912 C 446.811 745.248 448.582 744.141 450.131 743.256 C 457.103 739.382 463.268 734.197 468.28 727.984 C 468.722 727.32 468.722 726.435 468.28 725.771 C 466.841 724.996 465.292 725.771 463.964 726.435 C 457.261 730.64 450.321 734.434 443.159 737.833 L 432.093 743.366 L 429.105 744.473 C 425.232 746.244 421.137 747.572 417.264 749.121 L 408.632 751.666 L 403.099 753.437 C 391.258 756.867 374.564 760.851 364.825 762.732 C 361.505 763.396 358.075 764.171 354.755 764.614 L 354.755 764.614 C 359.988 761.752 364.477 757.753 367.924 752.883" fill="rgb(0,120,90)"/><path d=" M 292.546 765.926 C 300.577 763.049 308.055 758.812 314.679 753.421 C 322.267 759.476 330.883 764.076 340.131 767.033 L 340.131 767.033 C 332.59 774.494 323.975 780.802 314.568 785.735 C 313.904 785.735 313.794 785.735 313.13 785.071 C 305.51 780.913 298.459 775.822 292.104 769.91 C 290.965 769.072 289.922 768.108 289.005 767.033 C 290.112 767.033 291.44 766.258 292.546 765.705" fill-rule="evenodd" fill="rgb(225,6,19)"/><path d=" M 239.776 782.083 C 240.55 781.419 241.657 782.083 242.431 781.087 C 250.826 778.462 259.363 776.281 267.995 774.558 C 272.2 773.451 276.626 772.344 280.721 771.016 C 283.298 773.799 286.112 776.344 289.131 778.652 C 285.827 780.028 282.428 781.134 278.95 781.972 C 267.884 785.624 255.932 787.063 244.993 790.825 C 237.262 793.07 230.227 797.212 224.52 802.887 C 221.943 805.528 219.919 808.642 218.544 812.073 C 216.109 808.753 214.56 805.211 212.125 802.113 C 218.939 792.627 228.646 785.592 239.776 782.083 Z " fill="rgb(0,120,90)"/><path d=" M 331.389 784.628 C 331.389 784.628 331.389 783.964 332.164 784.628 C 334.424 785.656 336.764 786.541 339.135 787.284 C 346.107 789.734 353.237 791.695 360.493 793.149 C 362.375 793.149 364.145 794.034 366.027 794.145 C 370.785 795.252 375.876 796.248 380.413 797.686 C 381.298 798.35 382.515 797.686 383.29 798.904 C 392.76 801.892 400.538 808.721 404.759 817.716 L 404.759 818.712 C 402.214 822.586 400.111 826.016 397.676 829.779 C 396.902 829.115 397.676 828.008 396.902 827.012 C 393.692 812.958 378.532 807.757 366.264 804.879 C 350.818 802.018 335.768 797.307 321.461 790.825 C 324.891 788.991 328.18 786.92 331.31 784.628" fill="rgb(0,120,90)"/><path d=" M 347.198 770.795 C 358.264 774.779 371.323 775.886 382.816 779.759 C 392.776 782.668 402.008 787.648 409.928 794.366 C 412.126 796.58 413.944 799.109 415.351 801.892 C 414.402 803.03 413.549 804.263 412.806 805.543 C 411.478 807.425 410.371 809.749 408.932 811.63 C 408.932 811.63 408.932 810.966 408.932 810.745 C 406.64 805.67 403.194 801.196 398.862 797.686 C 398.419 797.433 398.008 797.149 397.645 796.801 C 383.78 789.719 368.825 785.039 353.395 782.968 C 348.637 781.529 343.878 780.312 339.341 778.431 C 342.108 775.886 345.095 773.34 347.862 770.463" fill="rgb(225,6,19)"/><path d=" M 231.049 806.982 C 239.839 800.168 250.241 795.789 261.244 794.256 C 261.908 794.256 262.572 794.256 263.236 794.256 C 263.9 794.256 265.56 794.256 266.777 793.481 C 269.987 792.596 273.528 792.153 276.848 791.046 C 283.235 789.323 289.527 787.221 295.661 784.739 C 298.87 786.952 302.079 789.497 305.51 791.489 C 290.143 798.066 274.065 802.824 257.608 805.654 C 249.672 807.567 242.321 811.361 236.139 816.72 C 232.709 820.42 230.401 825.036 229.5 830 L 229.5 830 L 222.86 818.934 C 224.615 814.365 227.46 810.302 231.16 807.093" fill="rgb(225,6,19)"/><path d=" M 283.82 720.238 C 279.077 717.961 273.923 716.681 268.659 716.475 C 278.334 729.581 288.973 741.928 300.514 753.421 C 303.502 752.093 306.268 750.307 308.703 748.109 C 299.818 739.367 291.519 730.055 283.82 720.238 Z " fill="rgb(0,120,90)"/><path d=" M 257.703 713.155 C 253.45 710.689 248.565 709.535 243.649 709.835 C 255.332 728.142 268.611 745.358 283.361 761.278 C 286.665 760.235 289.874 758.938 292.989 757.405 C 280.01 743.683 268.2 728.885 257.703 713.155 Z " fill="rgb(225,6,19)"/><path d=" M 345.665 720.238 C 350.36 717.93 355.482 716.649 360.715 716.475 C 351.04 729.581 340.4 741.928 328.86 753.421 C 325.872 752.077 323.121 750.291 320.67 748.109 C 329.603 739.398 337.95 730.087 345.665 720.238 Z " fill="rgb(0,120,90)"/><path d=" M 371.765 713.155 C 375.986 710.689 380.84 709.535 385.709 709.835 C 374.073 728.158 360.778 745.374 345.997 761.278 C 342.692 760.235 339.483 758.938 336.369 757.405 C 349.396 743.683 361.236 728.885 371.765 713.155 Z " fill="rgb(225,6,19)"/><path d=" M 314.679 686.059 C 331.5 675.767 352.399 674.992 372.097 671.451 C 397.945 669.601 418.007 648.133 418.117 622.222 L 418.117 410.475 L 211.351 410.475 L 211.351 622.222 C 211.462 648.148 231.523 669.601 257.371 671.451 C 277.069 674.439 297.969 675.767 314.679 686.059 Z  M 314.679 698.01 C 312.481 695.591 309.857 693.599 306.932 692.145 C 290.681 685.853 273.544 682.106 256.154 681.079 C 225.611 678.549 202.118 652.986 202.166 622.332 L 202.166 401.069 L 427.303 401.069 L 427.303 622.332 C 427.35 652.986 403.858 678.549 373.315 681.079 C 355.909 682.09 338.772 685.821 322.536 692.145 C 319.58 693.599 316.924 695.591 314.679 698.01 Z " fill-rule="evenodd" fill="rgb(29,29,27)"/><rect x="227.95" y="307.922" width="9.185" height="18.702" transform="matrix(1,0,0,1,0,0)" fill="rgb(29,29,27)"/><path d=" M 301.842 288.777 L 311.027 288.777 L 311.027 298.405 L 318.441 298.405 L 318.441 288.777 L 327.516 288.777 L 327.516 307.59 L 301.842 307.59 L 301.842 288.777 Z " fill="rgb(29,29,27)"/><path d=" M 244.534 319.747 L 244.534 298.405 L 253.719 298.405 L 253.719 317.091 L 262.904 331.145 L 262.904 360.25 L 253.719 360.25 L 253.719 333.912 L 244.534 319.747 Z " fill="rgb(29,29,27)"/><path d=" M 270.319 307.922 L 277.733 307.922 L 277.733 317.091 L 261.134 317.091 L 261.134 298.405 L 270.319 298.405 L 270.319 307.922 Z " fill="rgb(29,29,27)"/><path d=" M 286.033 376.833 L 220.536 376.833 L 220.536 343.429 L 211.351 329.375 L 211.351 307.922 L 220.536 307.922 L 220.536 326.608 L 229.61 340.662 L 229.61 367.759 L 286.033 367.759 L 286.033 376.833 Z " fill="rgb(29,29,27)"/><rect x="392.349" y="307.922" width="9.185" height="18.702" transform="matrix(1,0,0,1,0,0)" fill="rgb(29,29,27)"/><path d=" M 384.934 319.747 L 384.934 298.405 L 375.749 298.405 L 375.749 317.091 L 366.564 331.145 L 366.564 360.25 L 375.749 360.25 L 375.749 333.912 L 384.934 319.747 Z " fill="rgb(29,29,27)"/><path d=" M 359.15 307.922 L 351.625 307.922 L 351.625 317.091 L 368.224 317.091 L 368.224 298.405 L 359.15 298.405 L 359.15 307.922 Z " fill="rgb(29,29,27)"/><path d=" M 220.536 393.544 L 220.536 384.359 L 293.558 384.359 L 293.558 367.759 C 292.704 356.06 301.51 345.879 313.209 345.041 C 324.907 344.188 335.088 352.993 335.926 364.692 C 336.005 365.72 336.005 366.731 335.926 367.759 L 335.926 384.359 L 408.948 384.359 L 408.948 393.544 L 326.741 393.544 L 326.741 367.759 C 326.741 361.103 321.334 355.697 314.679 355.697 C 308.023 355.697 302.617 361.103 302.617 367.759 L 302.617 367.759 L 302.617 393.544 L 220.536 393.544 Z " fill="rgb(29,29,27)"/><path d=" M 343.341 376.833 L 408.932 376.833 L 408.932 343.429 L 418.117 329.375 L 418.117 307.922 L 408.932 307.922 L 408.932 326.608 L 399.874 340.662 L 399.874 367.759 L 343.341 367.759 L 343.341 376.833 Z " fill="rgb(29,29,27)"/><path d=" M 302.617 341.658 L 302.617 320.3 L 294.427 307.463 L 294.427 288.761 L 285.242 288.761 L 285.242 310.23 L 293.542 322.956 L 293.542 348.409 C 296.119 345.611 299.202 343.318 302.617 341.658 Z " fill="rgb(29,29,27)"/><path d=" M 326.741 341.658 L 326.741 320.3 L 335.041 307.463 L 335.041 288.761 L 344.226 288.761 L 344.226 310.23 L 335.926 322.956 L 335.926 348.409 C 333.334 345.579 330.203 343.287 326.741 341.658 Z " fill="rgb(29,29,27)"/></g><g><path d=" M 175.555 58.437 L 175.555 53.893 C 167.829 53.893 164.194 53.893 159.422 53.893 C 154.65 53.893 150.219 53.893 143.402 53.893 L 107.289 141.701 L 70.835 53.893 C 64.018 53.893 61.405 53.893 54.361 53.893 C 47.316 53.893 44.135 53.893 38 53.893 L 38 58.437 L 45.271 58.437 C 51.747 58.437 52.656 59.005 52.656 62.982 L 52.656 170.543 L 58.223 170.543 L 58.223 68.322 L 98.2 164.294 L 103.426 164.294 L 143.402 68.322 L 143.402 152.721 C 143.402 168.059 148.287 172.149 158.967 172.149 L 160.785 172.149 L 160.785 63.112 C 160.785 58.794 162.262 58.794 168.17 58.567 L 175.555 58.437 Z " fill="rgb(29,29,27)"/><path d=" M 215.758 172.02 L 215.758 92.505 C 215.758 91.028 215.758 90.801 213.713 90.801 C 211.668 90.801 199.057 91.824 187.355 91.824 L 187.355 96.028 L 197.239 96.028 C 199.398 96.028 199.852 96.936 199.852 98.982 L 199.852 154.977 C 199.852 164.862 203.488 171.679 212.804 171.679 L 215.758 172.02 Z " fill="rgb(29,29,27)"/><path d=" M 468.032 172.133 L 468.032 112.274 C 467.594 99.241 456.671 89.016 443.621 89.454 C 443.118 89.47 442.631 89.503 442.128 89.551 C 430.539 89.113 419.941 96.044 415.656 106.821 L 415.656 92.846 C 415.656 91.483 415.656 91.142 413.497 91.142 C 411.338 91.142 398.841 92.165 387.138 92.165 L 387.138 96.368 L 397.136 96.368 C 399.181 96.368 399.75 97.164 399.75 99.322 L 399.75 170.315 L 415.656 170.315 L 415.656 122.5 C 414.52 109.304 424.079 97.586 437.242 96.028 C 446.104 96.028 452.24 101.367 452.24 114.092 L 452.24 155.432 C 452.24 165.316 455.875 172.133 465.078 172.133 L 468.032 172.133 Z " fill="rgb(29,29,27)"/><path d=" M 270.164 155.334 L 270.164 54.818 C 270.164 53.341 270.164 53 268.005 53 C 265.846 53 253.462 54.023 241.76 54.023 L 241.76 58.226 L 251.644 58.226 C 253.803 58.226 254.371 59.022 254.371 61.18 L 254.371 171.809 L 257.212 171.809 C 266.528 171.809 270.164 164.992 270.164 155.107" fill="rgb(29,29,27)"/><path d=" M 347.292 143.632 C 347.292 154.994 340.134 167.832 329.227 167.832 C 318.32 167.832 313.662 163.174 313.662 150.79 C 313.662 138.406 323.092 129.771 340.93 128.976 L 344.679 128.976 C 347.178 128.976 347.292 128.976 347.292 131.589 L 347.292 143.632 Z  M 363.88 172.02 C 363.88 168.157 362.857 159.976 362.857 155.318 L 362.857 109.32 C 362.857 96.255 350.473 88.87 335.135 88.87 C 314.912 88.87 302.43 100.231 302.43 105.23 C 302.43 110.229 305.384 111.934 309.361 111.934 C 320.722 111.934 316.519 93.414 333.106 93.414 C 340.004 92.505 346.351 97.358 347.26 104.256 C 347.389 105.214 347.406 106.188 347.308 107.146 L 347.308 121.802 C 347.308 124.301 347.308 124.415 344.695 124.415 L 339.81 124.415 C 315.269 125.21 296.425 135.777 296.425 150.66 C 296.425 165.544 306.423 172.247 327.539 172.247 C 336.58 172.458 344.679 166.745 347.535 158.159 C 348.444 168.611 353.671 171.792 361.283 171.792 L 363.88 172.02 Z " fill-rule="evenodd" fill="rgb(29,29,27)"/><path d=" M 555.045 129.658 C 555.045 153.517 551.295 167.816 533.117 167.816 C 514.939 167.816 511.189 153.5 511.189 129.658 C 511.189 109.775 514.598 93.658 533.117 93.658 C 551.636 93.658 555.045 109.775 555.045 129.658 Z  M 572.98 129.658 C 573.418 107.584 555.873 89.324 533.799 88.886 C 533.572 88.886 533.344 88.886 533.117 88.886 C 510.881 89.194 493.06 107.421 493.255 129.658 C 490.901 151.618 506.791 171.322 528.751 173.675 C 550.711 176.029 570.415 160.139 572.769 138.179 C 573.077 135.354 573.077 132.498 572.769 129.674" fill-rule="evenodd" fill="rgb(29,29,27)"/></g><line x1="691" y1="0" x2="691" y2="870" vector-effect="non-scaling-stroke" stroke-width="9" stroke="rgb(224,29,37)" stroke-linejoin="miter" stroke-linecap="square" stroke-miterlimit="3"/><line x1="1392" y1="235" x2="0" y2="235" vector-effect="non-scaling-stroke" stroke-width="9" stroke="rgb(224,29,37)" stroke-linejoin="miter" stroke-linecap="square" stroke-miterlimit="3"/></g></svg>