<?xml version="1.0" encoding="UTF-8" standalone="no"?><!-- Generator: Gravit.io --><svg xmlns="http://www.w3.org/2000/svg" xmlns:xlink="http://www.w3.org/1999/xlink" style="isolation:isolate" viewBox="0 0 903 727" width="903pt" height="727pt"><defs><clipPath id="_clipPath_ZuIE7PWnvgBCEiFpjONspfCo7VS944Sk"><rect width="903" height="727"/></clipPath></defs><g clip-path="url(#_clipPath_ZuIE7PWnvgBCEiFpjONspfCo7VS944Sk)"><rect width="903" height="727" style="fill:rgb(0,0,0)" fill-opacity="0"/><rect x="337.244" y="391.239" width="563.471" height="103" transform="matrix(1,0,0,1,0,0)" fill="rgb(225,6,19)"/><g><path d=" M 198.576 701.195 C 228.263 683.031 265.149 681.664 299.914 675.414 C 345.533 672.149 380.94 634.259 381.136 588.528 L 381.136 214.814 L 16.211 214.814 L 16.211 588.528 C 16.406 634.287 51.813 672.149 97.432 675.414 C 132.198 680.687 169.084 683.031 198.576 701.195 Z " fill-rule="evenodd" fill="rgb(255,255,255)"/><path d=" M 383.284 390.539 L 250.724 390.539 L 250.724 209.541 L 146.651 209.541 L 146.651 390.539 L 11.719 390.539 L 11.719 494.611 L 146.651 494.611 L 146.651 688.109 L 198.576 706.664 L 250.724 688.109 L 250.724 494.611 L 383.284 494.611 L 383.284 390.539 Z " fill="rgb(225,6,19)"/><path d=" M 198.576 701.195 C 228.263 683.031 265.149 681.664 299.914 675.414 C 345.533 672.149 380.94 634.259 381.136 588.528 L 381.136 214.814 L 16.211 214.814 L 16.211 588.528 C 16.406 634.287 51.813 672.149 97.432 675.414 C 132.198 680.687 169.084 683.031 198.576 701.195 Z  M 198.576 722.288 C 194.697 718.019 190.066 714.504 184.904 711.937 C 156.221 700.832 125.976 694.219 95.284 692.406 C 41.378 687.942 -0.084 642.825 0 588.724 L 0 198.213 L 397.347 198.213 L 397.347 588.724 C 397.43 642.825 355.969 687.942 302.063 692.406 C 271.343 694.192 241.098 700.776 212.443 711.937 C 207.225 714.504 202.538 718.019 198.576 722.288 Z " fill-rule="evenodd" fill="rgb(29,29,27)"/><rect x="45.508" y="33.817" width="16.211" height="33.008" transform="matrix(1,0,0,1,0,0)" fill="rgb(29,29,27)"/><path d=" M 175.92 0.028 L 192.13 0.028 L 192.13 17.02 L 205.216 17.02 L 205.216 0.028 L 221.232 0.028 L 221.232 33.231 L 175.92 33.231 L 175.92 0.028 Z " fill="rgb(29,29,27)"/><path d=" M 74.776 54.687 L 74.776 17.02 L 90.987 17.02 L 90.987 50 L 107.198 74.804 L 107.198 126.171 L 90.987 126.171 L 90.987 79.687 L 74.776 54.687 Z " fill="rgb(29,29,27)"/><path d=" M 120.284 33.817 L 133.37 33.817 L 133.37 50 L 104.073 50 L 104.073 17.02 L 120.284 17.02 L 120.284 33.817 Z " fill="rgb(29,29,27)"/><path d=" M 148.018 155.44 L 32.422 155.44 L 32.422 96.484 L 16.211 71.679 L 16.211 33.817 L 32.422 33.817 L 32.422 66.796 L 48.437 91.601 L 48.437 139.424 L 148.018 139.424 L 148.018 155.44 Z " fill="rgb(29,29,27)"/><rect x="335.656" y="33.817" width="16.211" height="33.008" transform="matrix(1,0,0,1,0,0)" fill="rgb(29,29,27)"/><path d=" M 322.57 54.687 L 322.57 17.02 L 306.36 17.02 L 306.36 50 L 290.149 74.804 L 290.149 126.171 L 306.36 126.171 L 306.36 79.687 L 322.57 54.687 Z " fill="rgb(29,29,27)"/><path d=" M 277.063 33.817 L 263.782 33.817 L 263.782 50 L 293.078 50 L 293.078 17.02 L 277.063 17.02 L 277.063 33.817 Z " fill="rgb(29,29,27)"/><path d=" M 32.422 184.932 L 32.422 168.721 L 161.299 168.721 L 161.299 139.424 C 159.792 118.777 175.334 100.808 195.981 99.33 C 216.628 97.823 234.597 113.364 236.075 134.011 C 236.215 135.825 236.215 137.611 236.075 139.424 L 236.075 168.721 L 364.953 168.721 L 364.953 184.932 L 219.865 184.932 L 219.865 139.424 C 219.865 127.678 210.322 118.135 198.576 118.135 C 186.829 118.135 177.287 127.678 177.287 139.424 L 177.287 139.424 L 177.287 184.932 L 32.422 184.932 Z " fill="rgb(29,29,27)"/><path d=" M 249.161 155.44 L 364.925 155.44 L 364.925 96.484 L 381.136 71.679 L 381.136 33.817 L 364.925 33.817 L 364.925 66.796 L 348.937 91.601 L 348.937 139.424 L 249.161 139.424 L 249.161 155.44 Z " fill="rgb(29,29,27)"/><path d=" M 177.287 93.359 L 177.287 55.664 L 162.834 33.008 L 162.834 0 L 146.623 0 L 146.623 37.89 L 161.271 60.351 L 161.271 105.273 C 165.819 100.334 171.26 96.288 177.287 93.359 Z " fill="rgb(29,29,27)"/><path d=" M 219.865 93.359 L 219.865 55.664 L 234.513 33.008 L 234.513 0 L 250.724 0 L 250.724 37.89 L 236.075 60.351 L 236.075 105.273 C 231.5 100.278 225.975 96.233 219.865 93.359 Z " fill="rgb(29,29,27)"/></g><g><path d=" M 565.79 202.843 L 565.79 198.995 C 559.248 198.995 556.169 198.995 552.129 198.995 C 548.089 198.995 544.337 198.995 538.565 198.995 L 507.987 273.344 L 477.12 198.995 C 471.348 198.995 469.135 198.995 463.171 198.995 C 457.206 198.995 454.513 198.995 449.318 198.995 L 449.318 202.843 L 455.475 202.843 C 460.958 202.843 461.728 203.324 461.728 206.691 L 461.728 297.766 L 466.441 297.766 L 466.441 211.212 L 500.29 292.474 L 504.716 292.474 L 538.565 211.212 L 538.565 282.676 C 538.565 295.663 542.701 299.126 551.744 299.126 L 553.283 299.126 L 553.283 206.801 C 553.283 203.145 554.534 203.145 559.536 202.953 L 565.79 202.843 Z " fill="rgb(29,29,27)"/><path d=" M 599.831 299.016 L 599.831 231.689 C 599.831 230.439 599.831 230.246 598.099 230.246 C 596.368 230.246 585.689 231.112 575.781 231.112 L 575.781 234.671 L 584.15 234.671 C 585.978 234.671 586.363 235.441 586.363 237.173 L 586.363 284.586 C 586.363 292.955 589.441 298.728 597.33 298.728 L 599.831 299.016 Z " fill="rgb(29,29,27)"/><path d=" M 813.438 299.112 L 813.438 248.428 C 813.067 237.393 803.818 228.734 792.769 229.106 C 792.343 229.119 791.931 229.147 791.505 229.188 C 781.692 228.817 772.718 234.685 769.09 243.811 L 769.09 231.978 C 769.09 230.823 769.09 230.535 767.262 230.535 C 765.434 230.535 754.852 231.401 744.943 231.401 L 744.943 234.96 L 753.409 234.96 C 755.141 234.96 755.622 235.633 755.622 237.461 L 755.622 297.573 L 769.09 297.573 L 769.09 257.086 C 768.128 245.913 776.222 235.991 787.368 234.671 C 794.871 234.671 800.066 239.193 800.066 249.967 L 800.066 284.971 C 800.066 293.34 803.145 299.112 810.937 299.112 L 813.438 299.112 Z " fill="rgb(29,29,27)"/><path d=" M 645.897 284.888 L 645.897 199.778 C 645.897 198.527 645.897 198.239 644.07 198.239 C 642.242 198.239 631.756 199.105 621.847 199.105 L 621.847 202.664 L 630.217 202.664 C 632.045 202.664 632.526 203.337 632.526 205.165 L 632.526 298.837 L 634.931 298.837 C 642.819 298.837 645.897 293.065 645.897 284.696" fill="rgb(29,29,27)"/><path d=" M 711.204 274.98 C 711.204 284.6 705.144 295.47 695.908 295.47 C 686.673 295.47 682.729 291.526 682.729 281.04 C 682.729 270.554 690.713 263.243 705.817 262.57 L 708.992 262.57 C 711.108 262.57 711.204 262.57 711.204 264.782 L 711.204 274.98 Z  M 725.25 299.016 C 725.25 295.745 724.384 288.819 724.384 284.875 L 724.384 245.927 C 724.384 234.864 713.898 228.611 700.911 228.611 C 683.787 228.611 673.219 238.231 673.219 242.464 C 673.219 246.697 675.72 248.14 679.087 248.14 C 688.707 248.14 685.147 232.459 699.193 232.459 C 705.034 231.689 710.407 235.798 711.177 241.639 C 711.287 242.45 711.3 243.275 711.218 244.085 L 711.218 256.495 C 711.218 258.612 711.218 258.708 709.005 258.708 L 704.869 258.708 C 684.089 259.381 668.134 268.328 668.134 280.93 C 668.134 293.533 676.599 299.209 694.479 299.209 C 702.134 299.387 708.992 294.55 711.41 287.28 C 712.18 296.13 716.605 298.824 723.051 298.824 L 725.25 299.016 Z " fill-rule="evenodd" fill="rgb(29,29,27)"/><path d=" M 887.114 263.147 C 887.114 283.349 883.94 295.457 868.548 295.457 C 853.156 295.457 849.981 283.335 849.981 263.147 C 849.981 246.312 852.867 232.665 868.548 232.665 C 884.228 232.665 887.114 246.312 887.114 263.147 Z  M 902.301 263.147 C 902.672 244.456 887.815 228.996 869.125 228.625 C 868.933 228.625 868.74 228.625 868.548 228.625 C 849.72 228.886 834.63 244.319 834.795 263.147 C 832.802 281.741 846.257 298.425 864.851 300.418 C 883.445 302.411 900.129 288.956 902.122 270.362 C 902.383 267.971 902.383 265.552 902.122 263.161" fill-rule="evenodd" fill="rgb(29,29,27)"/></g></g></svg>