<?xml version="1.0" encoding="utf-8"?>
<!-- Generator: Adobe Illustrator 27.5.0, SVG Export Plug-In . SVG Version: 6.00 Build 0)  -->
<svg version="1.1" id="katman_1" xmlns="http://www.w3.org/2000/svg" xmlns:xlink="http://www.w3.org/1999/xlink" x="0px" y="0px"
	 viewBox="0 0 841.89 595.28" style="enable-background:new 0 0 841.89 595.28;" xml:space="preserve">
<style type="text/css">
	.st0{fill:#1D1D1B;}
	.st1{fill-rule:evenodd;clip-rule:evenodd;fill:#1D1D1B;}
	.st2{fill-rule:evenodd;clip-rule:evenodd;fill:#FFFFFF;}
	.st3{fill:#E10613;}
	.st4{fill:#00785A;}
	.st5{fill-rule:evenodd;clip-rule:evenodd;fill:#E10613;}
</style>
<g id="ad00cdd6-c8e1-470b-9e3a-2b371e0fbfa9">
	<g id="b2d714e3-df7f-4fa5-a44d-761de4780c12">
		<path class="st0" d="M524.79,289.01v-2.8c-4.76,0-7,0-9.94,0c-2.94,0-5.67,0-9.87,0l-22.25,54.1l-22.46-54.1
			c-4.2,0-5.81,0-10.15,0c-4.34,0-6.3,0-10.08,0v2.8h4.48c3.99,0,4.55,0.35,4.55,2.8v66.27h3.43V295.1l24.63,59.13h3.22l24.63-59.13
			v52c0,9.45,3.01,11.97,9.59,11.97h1.12v-67.18c0-2.66,0.91-2.66,4.55-2.8L524.79,289.01z"/>
		<path class="st0" d="M549.56,358.99v-48.99c0-0.91,0-1.05-1.26-1.05c-1.26,0-9.03,0.63-16.24,0.63v2.59h6.09
			c1.33,0,1.61,0.56,1.61,1.82v34.5c0,6.09,2.24,10.29,7.98,10.29L549.56,358.99z"/>
		<path class="st0" d="M704.99,359.06v-36.88c-0.27-8.03-7-14.33-15.04-14.06c-0.31,0.01-0.61,0.03-0.92,0.06
			c-7.14-0.27-13.67,4-16.31,10.64v-8.61c0-0.84,0-1.05-1.33-1.05s-9.03,0.63-16.24,0.63v2.59h6.16c1.26,0,1.61,0.49,1.61,1.82
			v43.74h9.8v-29.46c-0.7-8.13,5.19-15.35,13.3-16.31c5.46,0,9.24,3.29,9.24,11.13v25.47c0,6.09,2.24,10.29,7.91,10.29H704.99z"/>
		<path class="st0" d="M583.08,348.71v-61.93c0-0.91,0-1.12-1.33-1.12s-8.96,0.63-16.17,0.63v2.59h6.09c1.33,0,1.68,0.49,1.68,1.82
			v68.16h1.75c5.74,0,7.98-4.2,7.98-10.29"/>
		<path class="st1" d="M630.6,341.5c0,7-4.41,14.91-11.13,14.91s-9.59-2.87-9.59-10.5c0-7.63,5.81-12.95,16.8-13.44h2.31
			c1.54,0,1.61,0,1.61,1.61L630.6,341.5z M640.82,358.99c0-2.38-0.63-7.42-0.63-10.29v-28.34c0-8.05-7.63-12.6-17.08-12.6
			c-12.46,0-20.15,7-20.15,10.08c0,3.08,1.82,4.13,4.27,4.13c7,0,4.41-11.41,14.63-11.41c4.25-0.56,8.16,2.43,8.72,6.68
			c0.08,0.59,0.09,1.19,0.03,1.78v9.03c0,1.54,0,1.61-1.61,1.61h-3.01c-15.12,0.49-26.73,7-26.73,16.17c0,9.17,6.16,13.3,19.17,13.3
			c5.57,0.13,10.56-3.39,12.32-8.68c0.56,6.44,3.78,8.4,8.47,8.4L640.82,358.99z"/>
		<path class="st1" d="M758.6,332.89c0,14.7-2.31,23.51-13.51,23.51s-13.51-8.82-13.51-23.51c0-12.25,2.1-22.18,13.51-22.18
			S758.6,320.64,758.6,332.89 M769.65,332.89c0.27-13.6-10.54-24.85-24.14-25.12c-0.14,0-0.28,0-0.42,0
			c-13.7,0.19-24.68,11.42-24.56,25.12c-1.45,13.53,8.34,25.67,21.87,27.12c13.53,1.45,25.67-8.34,27.12-21.87
			c0.19-1.74,0.19-3.5,0-5.24"/>
		<path class="st1" d="M748.31,252.55c0,6.23-2.1,10.57-6.23,10.57s-6.23-4.48-6.23-10.57c0-6.09,1.12-10.01,6.23-10.01
			C747.19,242.55,748.31,247.51,748.31,252.55 M752.79,264.59v-33.38c0-0.35,0-0.49-0.56-0.49s-4.2,0-7.49,0v1.26h2.8
			c0.56,0,0.77,0,0.77,0.84v12.39c-1.19-2.5-3.74-4.06-6.51-3.99c-6.27,0.15-11.24,5.34-11.13,11.62
			c-0.77,5.9,3.38,11.31,9.29,12.09c0.49,0.06,0.99,0.1,1.49,0.09c3.19,0.14,6.07-1.91,7-4.97c0,3.01,0.98,4.83,3.71,4.83
			L752.79,264.59z"/>
		<path class="st1" d="M766.71,264.59v-22.6c0-0.35,0-0.49-0.63-0.49c-0.63,0-4.13,0-7.49,0v1.19h2.87c0.56,0,0.77,0,0.77,0.84
			v15.96c0,2.8,0.98,4.76,3.64,4.76L766.71,264.59z"/>
		<path class="st0" d="M478.67,258.5V255c-3.74,5.12-9.68,8.18-16.03,8.26c-10.08,0-13.51-6.58-13.51-23.44
			c0-14.42,3.36-22.25,14-22.25c6.78-0.91,13.01,3.85,13.92,10.63c0.03,0.23,0.06,0.47,0.07,0.71h1.89c0-1.47,0-3.71,0-5.39
			s0-3.64,0-5.39c-5.07-1.45-10.28-2.36-15.54-2.73c-12.37,0.1-22.31,10.21-22.21,22.58c0.01,0.62,0.04,1.23,0.09,1.84
			c0,17.43,9.38,25.89,21.62,25.89c6.12,0.21,12.01-2.37,16.03-7"/>
		<path class="st1" d="M513.1,247.79c0,10.01-1.54,15.96-9.17,15.96c-7.63,0-9.17-5.95-9.17-15.96c0-8.33,1.47-15.05,9.17-15.05
			C511.63,232.75,513.1,239.75,513.1,247.79 M520.66,247.79c0.19-9.24-7.14-16.88-16.37-17.07c-0.12,0-0.24,0-0.35,0
			c-9.31,0.15-16.76,7.76-16.73,17.08c-0.85,9.24,5.96,17.41,15.19,18.26s17.41-5.96,18.26-15.19
			C520.75,249.84,520.75,248.81,520.66,247.79"/>
		<path class="st0" d="M581.75,265.57v-25.19c0.02-5.33-4.29-9.67-9.63-9.69c-0.27,0-0.53,0.01-0.8,0.03
			c-4.68-0.07-8.93,2.7-10.78,7c-1.34-4.47-5.63-7.39-10.29-7c-4.65-0.09-8.88,2.69-10.64,7v-5.67c0-0.56,0-0.7-0.84-0.7
			s-6.16,0.42-11.06,0.42v1.75h4.13c0.91,0,1.12,0,1.12,1.26v29.74h7v-19.8c0-5.67,3.99-11.06,8.61-11.06s5.81,2.24,5.81,7.56v17.29
			c0,4.2,1.54,7,5.39,7h1.26v-20.99c0-5.6,3.92-11.06,8.61-11.06c3.64,0,5.81,2.24,5.81,7.56v17.5c0,4.2,1.54,7,5.39,7
			L581.75,265.57z"/>
		<path class="st0" d="M625.07,265.57v-33.52h-7v19.66c0.54,5.48-3.36,10.4-8.82,11.13c-3.64,0-6.02-2.31-6.02-7.63v-22.88
			c0-0.56,0-0.7-0.91-0.7s-6.09,0.42-10.99,0.42v1.75h4.13c0.91,0,1.12,0,1.12,1.26v20.99c0.01,5.33,4.34,9.65,9.68,9.64
			c0.32,0,0.64-0.02,0.96-0.05c4.74,0.22,9.09-2.59,10.85-7c0,4.2,1.54,7,5.39,7L625.07,265.57z"/>
		<path class="st0" d="M668.39,265.57v-25.19c-0.09-5.45-4.58-9.79-10.03-9.7c-0.27,0-0.55,0.02-0.82,0.05
			c-4.8-0.19-9.22,2.59-11.13,7v-5.67c0-0.56,0-0.7-0.84-0.7s-6.16,0.42-11.06,0.42v1.75h4.55c0.84,0,1.12,0,1.12,1.26v29.74h6.58
			v-19.8c-0.42-5.5,3.55-10.36,9.03-11.06c3.78,0,6.3,2.24,6.3,7.56v17.29c0,4.2,1.54,7,5.39,7L668.39,265.57z"/>
		<path class="st1" d="M702.96,245.21c0,1.05,0,1.19-1.12,1.19h-12.95c-1.12,0-1.12,0-1.12-1.05c0-7,2.38-12.67,7.91-12.67
			c5.53,0,7,5.6,7,12.53 M710.03,246.68c0.28-8.43-6.21-15.54-14.63-16.03c-8.9,0.6-15.72,8.16-15.4,17.08
			c-1.2,8.61,4.81,16.57,13.42,17.77c0.82,0.11,1.64,0.16,2.46,0.15c4.97,0.32,9.81-1.64,13.16-5.32v-3.08
			c-2.9,4.06-7.61,6.44-12.6,6.37c-7,0-8.96-5.67-8.96-14c0-1.12,0-1.19,1.26-1.19h20.29C709.68,248.42,710.03,248,710.03,246.68"/>
		<path class="st2" d="M235.91,377.54c10.64-6.51,23.86-7,36.32-9.24c16.35-1.17,29.04-14.75,29.11-31.14V203.22H170.55v133.94
			c0.07,16.4,12.76,29.97,29.11,31.14C212.12,370.19,225.34,371.03,235.91,377.54"/>
		<polygon class="st3" points="302.11,266.2 254.6,266.2 254.6,201.33 217.3,201.33 217.3,266.2 168.94,266.2 168.94,303.5 
			217.3,303.5 217.3,372.85 235.91,379.5 254.6,372.85 254.6,303.5 302.11,303.5 		"/>
		<path class="st4" d="M140.53,183.76c4.54,8.82,3.84,19.43-1.82,27.57c-2.08,3.21-4.63,6.08-7.56,8.54
			c-5.81,4.54-10.58,10.27-14,16.8l0,0l0,0c1.38-6.16,3.37-12.16,5.95-17.92c3.18-6.43,6.85-12.61,10.99-18.47
			c0.71-1.28,1.01-2.75,0.84-4.2c-0.27-0.13-0.57-0.13-0.84,0c-2.4,2.02-4.5,4.38-6.23,7c-3.22,4.43-6.07,9.11-8.54,14l0,0l0,0
			c-2.57,5.38-4.68,10.98-6.3,16.73v0.84c-0.49-4.83-2.8-8.89-3.43-13.65c1.88-10.9,7.86-20.67,16.73-27.29
			c4.22-3.29,7.61-7.53,9.87-12.39c0-0.56,1.12-0.56,1.75-0.49C139.04,181.56,139.94,182.57,140.53,183.76"/>
		<path class="st4" d="M105.96,203.22c0.63,0.84,0,1.82,0,2.8c-2.67,9.22-2.22,19.05,1.26,27.99c1.72,6.61,1.92,13.53,0.56,20.22
			h-0.56c0,0-1.33-2.03-1.82-3.22c-4.28-6.61-7.03-14.1-8.05-21.9c-0.42-3.43,0.56-7,0-10.01c-0.08-0.34-0.28-0.64-0.56-0.84
			c-1.12,0-1.19,1.19-1.82,1.75c-4.06,11.83,1.33,23.44,7,32.96c1.42,2.36,2.64,4.85,3.64,7.42c3.61,7.51,5.16,15.84,4.48,24.14
			c-0.13,1.58-0.49,3.14-1.05,4.62l0,0c-1.29-3.34-3.49-6.26-6.37-8.4l-1.54-0.56c-0.35-3.97-1.15-7.89-2.38-11.69
			c-2.1-8.26-7-14.77-10.08-22.81c0,0,0-0.42,0-0.7c-2.62-6.38-3.46-13.34-2.45-20.15c1.63-9.01,7.06-16.89,14.91-21.62
			C102.46,202.8,104.77,201.05,105.96,203.22"/>
		<path class="st4" d="M145.01,220.57c2.96,10.34,0.99,21.46-5.32,30.16c-5.27,6.19-11.08,11.91-17.36,17.08
			c-2.9,2.68-5.42,5.74-7.49,9.1c0,0,0-1.19,0-1.82c-0.23-2.63-0.72-5.23-1.47-7.77c0.67-0.79,1.28-1.63,1.82-2.52
			c5.6-7.49,14-12.04,18.96-19.94c2.44-3.28,4.14-7.05,4.97-11.06c0-0.63,0-1.47-0.63-1.75c-0.63-0.28-1.96,1.4-2.73,2.31
			c-3.86,6.93-9.1,13.01-15.4,17.85c-3.39,2.86-6.36,6.18-8.82,9.87l0,0c0-1.19,0-2.45,0-3.64c2.74-13.18,10.59-24.73,21.83-32.12
			c3.12-2.51,5.54-5.79,7-9.52c0-0.42,0.56-0.84,1.12-0.77c2.17,0,2.87,2.73,3.64,4.55"/>
		<path class="st4" d="M85.45,249.68c0.51,0.74,0.78,1.62,0.77,2.52c0.62,6.53,2.3,12.91,4.97,18.89c0.27,0.35,0.46,0.76,0.56,1.19
			c3.55,5.81,6.69,11.87,9.38,18.12c0.7,1.61,1.05,3.22,1.61,4.83c1.09,3.16,1.75,6.46,1.96,9.8l0,0
			c-5.34-4.8-10.21-10.1-14.56-15.82c-3.2-4.85-5.37-10.3-6.37-16.03c-0.21-1.77-0.54-3.52-0.98-5.25c-0.1-0.7-0.48-1.33-1.05-1.75
			c-1.19,0-1.12,1.75-1.47,2.73c-0.39,4.97,0.23,9.97,1.82,14.7c0.56,0.91,0.7,2.03,1.26,3.01c3.13,6.77,7.75,12.75,13.51,17.5
			c3.7,3.52,6.96,7.47,9.73,11.76c-1.68,3.35-3.06,6.84-4.13,10.43l0,0c-1.33-2.24-2.8-4.48-4.27-6.65
			c-4.77-6.22-10.01-12.07-15.68-17.5c-6.59-7.83-10.19-17.75-10.15-27.99c0.11-8.88,3.58-17.38,9.73-23.79
			c0.77-1.05,2.38-1.96,3.5-0.98"/>
		<path class="st4" d="M141.79,262.21c1.05,1.33,0,2.94-0.42,4.34c-2.66,7-1.12,15.4-3.78,22.32c-3.83,9.58-9.2,18.46-15.89,26.31
			c-0.49,1.12-1.47,2.1-2.03,3.36c-3.08,5.41-4.95,11.43-5.46,17.64l0,0c-1.78-2.92-4.57-5.08-7.84-6.09c0-0.42,0-0.77,0-1.19
			c2.44-8.24,6.43-15.93,11.76-22.67c7.36-7.79,12.38-17.49,14.49-27.99c0-1.19,0-2.52-0.77-3.15c-0.77-0.63-1.96,1.96-2.45,3.15
			c-1.2,3.59-2.7,7.08-4.48,10.43c-1.75,2.59-3.22,5.32-5.11,7.84c-3.15,4.62-7,8.75-10.29,13.44h-0.35
			c-0.37-16.32,6.94-31.86,19.73-41.99c2.8-2.39,5.88-4.44,9.17-6.09c1.1-0.56,2.4-0.56,3.5,0"/>
		<path class="st4" d="M82.44,309.1c4.07,8.71,10.4,16.18,18.33,21.62c7.02,5.56,12.55,12.77,16.1,20.99c0,0-0.7,0-1.05,0
			c-12.2-4.42-22.6-12.73-29.6-23.65c-0.84-1.12-1.26-2.45-2.73-2.73c-1.47-0.28-0.56,1.68-0.42,2.52
			c2.21,6.98,6.69,13.02,12.74,17.15c7.77,6.58,18.06,9.03,26.17,15.26c5.26,3.65,9.64,8.43,12.81,14c0,0,0,0-0.49,0
			c-1.38-0.69-2.83-1.21-4.34-1.54c-2.06-0.59-4.24-0.59-6.3,0l0,0c-3.63-3.78-7.83-6.97-12.46-9.45c-2.23-1.36-4.57-2.53-7-3.5
			c-4.77-2.1-9.26-4.78-13.37-7.98c-11.37-8.46-16.84-22.71-14.07-36.6c0.2-2.5,1.05-4.91,2.45-7c0.5-0.27,1.11-0.27,1.61,0
			c0.63,0,0.91,0.91,1.33,1.47"/>
		<path class="st4" d="M140.6,309.1c3.5,11.34,2.34,23.6-3.22,34.08c-3.29,6.22-4.83,13.2-4.48,20.22
			c-0.81-0.57-1.56-1.23-2.24-1.96c-1.75-1.47-3.64-3.15-5.67-4.55c0.42-0.7,0-1.61,0.49-2.38c0.41-2.41,1.11-4.76,2.1-7
			c0.27-1.06,0.64-2.09,1.12-3.08c1.47-3.57,3.5-7,4.83-10.78c2.22-4.51,3.05-9.58,2.38-14.56c0,0,0-0.42-0.56-0.56
			s-1.19,0.91-1.61,1.54c-1.12,4.43-2.67,8.74-4.62,12.88c-3.37,5.68-5.87,11.84-7.42,18.26c0,0,0,0-0.42-0.56
			c-1.2-3.64-1.84-7.44-1.89-11.27c0.13-8,3.05-15.69,8.26-21.76c3.31-4.11,5.7-8.88,7-14c0.26-0.51,0.71-0.89,1.26-1.05
			c2.87,0.63,3.99,3.99,4.97,6.44"/>
		<path class="st4" d="M99.1,363.05c5.97,5.4,12.93,9.58,20.5,12.32c2.59,1.03,5.11,2.23,7.56,3.57c0.65,0.28,1.28,0.61,1.89,0.98
			c3.59,2.14,6.96,4.63,10.08,7.42c0.56,0.77,1.47,1.47,1.96,2.31c-2.38,0-4.83-0.7-7-0.77c-0.56,0.07-1.12,0.07-1.68,0
			c-8.94-1.12-17.31-5.01-23.93-11.13c-0.91-0.56-1.82-1.47-3.01-1.19c-1.19,0.28,0,2.17,0.77,3.22
			c6.58,7.7,15.88,12.56,25.96,13.58c5.53,0.58,10.99,1.68,16.31,3.29c0.42,0,0,0.77,0.42,1.12c0.94,3.12,2.19,6.14,3.71,9.03
			c-0.42,0-0.84,0-1.26-0.35c-7.16-2.48-14.54-4.24-22.04-5.25c-3.09-0.62-6.13-1.46-9.1-2.52c-8.81-3.42-16.2-9.7-20.99-17.85
			c-2.35-4.32-3.78-9.09-4.2-14c0-1.82-0.35-4.2,1.26-5.25c1.61-1.05,2.24,0.84,2.94,1.54"/>
		<path class="st4" d="M148.5,342.13c0.55,1.97,0.93,3.98,1.12,6.02c1.4,6.23,5.53,11.34,6.65,17.71
			c2.17,9.45,2.52,19.38,5.11,28.55c1.54,5.02,3.91,9.75,7,14c-2.25-0.79-4.61-1.19-7-1.19c-0.89,0.09-1.76,0.31-2.59,0.63
			c-5.91-10.4-8.91-22.19-8.68-34.15c-0.56-4.95-1.44-9.86-2.66-14.7c-0.19-0.9-0.69-1.72-1.4-2.31c-1.12,0-0.98,1.05-1.4,1.68
			c0.1,5.9,0.6,11.8,1.47,17.64c0.49,4.48,0,9.1,0.98,13.44c-0.29-0.09-0.5-0.33-0.56-0.63c-0.87-0.85-1.64-1.79-2.31-2.8
			c-5.14-7.47-7.43-16.53-6.44-25.54c0.42-3.51,1.24-6.96,2.45-10.29c0,0,0-0.63,0-0.98c1.32-2.63,3.09-5,5.25-7
			c0.7-0.49,2.24-0.84,2.66,0"/>
		<path class="st4" d="M138.85,408.4c6.2,2.13,12.69,3.26,19.24,3.36c7.02,0.65,13.75,3.06,19.59,7l0,0
			c-10.43-0.84-21.62,1.96-31.07-2.03c-0.84,0-1.89-0.84-2.8,0c-0.91,0.84,0,0,0,0.63c1.19,1.46,2.73,2.59,4.48,3.29
			c6.74,2.31,13.91,3.1,20.99,2.31c10.47-0.45,20.89,1.64,30.37,6.09l0,0c-4.47,0.87-8.84,2.24-13.02,4.06
			c-5.73-1.36-11.61-1.95-17.5-1.75c-1.05,0.07-2.1,0.07-3.15,0c-2.38,0-4.69-0.42-7-0.56c-2.38-0.4-4.72-1-7-1.82
			c-9.36-3.08-16.98-9.97-20.99-18.96c-0.68-1.16-0.95-2.52-0.77-3.85c0.22-0.37,0.57-0.64,0.98-0.77c2.66,0.72,5.22,1.75,7.63,3.08
			"/>
		<path class="st4" d="M168.59,378.94c8.97,2.59,16.26,9.14,19.8,17.78c4.89,11.26,12.64,21.05,22.46,28.41
			c0.59,0.2,1.13,0.51,1.61,0.91c0,0.42-0.84,0.49-1.4,0.49c-9.63,0.38-18.52-5.17-22.39-14c-2.73-4.97-4.83-10.22-7.77-14.98
			c-1.63-2.78-3.85-5.17-6.51-7c-0.37,0-0.7,0.22-0.84,0.56c0,1.47,0.91,2.66,1.4,3.92c5.04,7,7,16.31,12.32,23.16l0,0
			c-7.97-2.44-14.31-8.52-17.08-16.38c-1.71-7.19-4.05-14.22-7-20.99c0-0.63-0.42-1.47,0-2.03c1.52-0.63,3.23-0.63,4.76,0
			L168.59,378.94z"/>
		<path class="st4" d="M333.53,378.8c0.07-1.33,0.07-2.66,0-3.99c0.67,0.09,1.33-0.17,1.75-0.7c3.22-4.2,1.05-10.57,3.71-14.98
			c0.5-1.31,1.75-2.17,3.15-2.17c1.9,0.78,3.42,2.29,4.2,4.2c0,0.91,0.77,1.96,1.75,2.17 M348.58,363.33
			c3.08-1.68,3.64-5.25,4.69-8.26c0.59-2.43,1.46-4.77,2.59-7c0.7-1.41,1.94-2.49,3.43-3.01c0,0,0.7,0,0.91,0
			c1.5,0.71,2.41,2.26,2.31,3.92c0.16,0.54,0.54,1,1.05,1.26c1.82,0,2.8-1.47,3.99-2.52c1.88-4.48,5.61-7.92,10.22-9.45
			c1.43-0.25,2.87,0.38,3.64,1.61c2.1,3.85,0,7.91-1.47,11.48c-0.31,1.01-0.18,2.1,0.35,3.01c1.12,0,2.45,0,3.64,0.42
			c0.87,0.35,1.47,1.16,1.54,2.1c-0.42,4.2-4.41,7-7,8.75s-5.25,2.59-7,5.25c-0.03,0.37-0.03,0.75,0,1.12
			c0.49,0.63,1.19,0.49,1.75,0.77c1.32,0.03,2.48,0.86,2.94,2.1c0.35,2.52-2.17,3.71-3.64,5.04c-3.47,1.67-7.11,2.98-10.85,3.92
			c-1.82,0.64-3.46,1.72-4.76,3.15c0,0.35-0.42,0.98,0,1.33c0.42,0.35,3.01,0.42,4.34,1.19c1.48,0.17,2.69,1.27,3.01,2.73
			c-0.35,2.94-3.43,4.2-5.74,5.18c-0.39-0.07-0.8-0.07-1.19,0c-0.94,0.28-1.9,0.49-2.87,0.63c-1.93,0.24-3.88,0.24-5.81,0
			c1.55-3.69,0.96-7.93-1.54-11.06l-1.96-0.7c3.99-3.36,7.77-7,11.48-10.64c0,0,0.42-0.49,0.63-0.77l6.23-7
			c0.91-0.98,1.54-2.03,2.31-2.94c0.77-0.91,2.31-3.29,3.57-5.11c0,0,0-0.49,0.42-0.63c1.36-1.93,2.38-4.09,3.01-6.37
			c0,0,0-0.63,0-0.84c-0.25-0.19-0.59-0.19-0.84,0c-1.38,0.81-2.56,1.94-3.43,3.29c-9.09,10.96-19.27,20.97-30.37,29.88
			c-0.64,0.11-1.27,0.25-1.89,0.42c-1.18,0.2-2.33,0.53-3.43,0.98c-0.7-2.09-0.7-4.35,0-6.44L348.58,363.33z"/>
		<path class="st4" d="M352.15,265.43c2.17-0.84,6.23,2.66,6.44-1.54s-5.04-8.4-6.58-12.88c-0.86-1.71-1.16-3.64-0.84-5.53
			c0.2-0.62,0.59-1.16,1.12-1.54c1.1-0.43,2.33-0.43,3.43,0c0.78,0.36,1.67,0.36,2.45,0c0.48-0.32,0.73-0.9,0.63-1.47
			c-0.93-2.48-2.18-4.83-3.71-7c-1.12-2.59-2.87-5.67-1.26-8.54c0-0.49,0.49-0.63,1.05-0.77c0.86-0.32,1.8-0.32,2.66,0
			c1.05,0.49,2.52,1.33,3.85-0.7c2.03-3.43,0-7.91,0.49-11.9c0.13-2.36,1.45-4.49,3.5-5.67c0.86-0.19,1.76-0.04,2.52,0.42
			c4.06,2.45,4.55,7.56,7.56,10.99c0.47,0.54,1.11,0.88,1.82,0.98c1.4-0.77,2.24-2.52,3.99-2.66c1.05-0.01,2.01,0.59,2.45,1.54
			c2.66,6.3-1.12,12.46-0.63,18.89c0.05,0.87,0.49,1.66,1.19,2.17c0.84,0,1.47,0,2.1-0.7c0.84-1.34,2.33-2.14,3.92-2.1
			c0.82,0.2,1.44,0.86,1.61,1.68c0.91,5.88-3.22,10.15-5.18,15.12c0,1.05-0.63,2.38,0,3.22c0.56,0.49,1.34,0.63,2.03,0.35
			c1.18-0.88,2.75-1.02,4.06-0.35c1.47,1.4,0.77,3.92,0,5.53c-0.55,1.32-1.25,2.56-2.1,3.71c-2.83-1.51-6.27-1.3-8.89,0.56
			c-4.01,3.25-6.41,8.07-6.58,13.23c-1.15-0.61-2.37-1.06-3.64-1.33c0.7-4.06,1.05-8.4,1.75-12.67c-0.14-0.16-0.14-0.4,0-0.56
			c0-3.64,0.56-7.7,0.63-11.55c0.04-7.77-0.64-15.52-2.03-23.16c-0.91-2.03-0.91-4.69-3.08-5.88c-0.7,0-0.77,0.91-0.98,1.47
			c0.02,2.7,0.28,5.39,0.77,8.05c0.92,9.95,0.76,19.97-0.49,29.88c-0.49,2.24-0.56,4.76-1.12,7c-1.26,8.82-3.01,17.29-4.83,25.89
			l0,0c-1.17-0.63-2.45-1.01-3.78-1.12c0-0.7,0-1.61,0-2.38c-0.41-6.11-2.2-12.04-5.25-17.36c-1.6-2.69-2.45-5.76-2.45-8.89
			c0.11-1.1,0.77-2.08,1.75-2.59"/>
		<path class="st4" d="M366.14,308.19c0,0,0-0.35,0-0.56c0.09-1.76-0.07-3.53-0.49-5.25c0.77,0,1.75,1.12,2.8,0.56
			c0.39-0.34,0.64-0.82,0.7-1.33c0.35-1.31,0.35-2.68,0-3.99c-1.1-2.94-1.72-6.03-1.82-9.17c-0.14-1.67,0.78-3.24,2.31-3.92
			c2.52-0.35,3.64,1.61,5.32,3.01c0.55,0.27,1.2,0.27,1.75,0c1.82-1.9,2.91-4.37,3.08-7c0.59-3.64,2.51-6.93,5.39-9.24
			c1.13-0.64,2.51-0.64,3.64,0c2.41,2.52,3.59,5.98,3.22,9.45c-0.07,0.53-0.07,1.08,0,1.61c-0.14,1.09,0.25,2.18,1.05,2.94
			c1.33,0.42,1.89-1.05,3.01-1.05s1.19,0,1.89,0s1.82,1.75,2.03,3.01c-0.8,5.7-3.23,11.04-7,15.4c0,0.84-0.77,2.03,0,2.8
			c0.77,0.77,2.59,0,3.71,0c0.49,0.01,0.97,0.13,1.4,0.35c0.84,0.72,1.22,1.85,0.98,2.94c-0.4,1.81-1.32,3.47-2.66,4.76
			c-0.79,1.02-1.66,1.98-2.59,2.87c-0.35,0-0.7,0.63-1.05,0.84c-1.89,2.24-4.9,3.57-5.46,6.65c0,0.44,0.24,0.84,0.63,1.05
			c1.61,0,3.08-0.56,4.83,0c1.04,0.09,2,0.59,2.66,1.4c1.05,2.87-1.61,5.11-3.5,7c-2.02,1.42-4.21,2.6-6.51,3.5l0,0
			c-1.84-2.22-4.7-3.34-7.56-2.94c-2.16,0.32-4.19,1.21-5.88,2.59c-0.42-1.51-1.39-2.81-2.73-3.64c2.38-3.36,4.9-7,7-10.29
			c1.19-1.61,2.1-3.57,3.22-5.11c1.26-3.01,3.01-5.74,4.13-8.89c0.56-1.68,1.33-3.29,1.75-5.04c1.52-4.5,2.04-9.27,1.54-14
			c-0.04-0.59-0.35-1.13-0.84-1.47c-0.98,0-1.26,1.26-1.61,1.96c-0.77,2.59-1.12,5.25-2.1,7.77c-2.39,7.51-5.73,14.68-9.94,21.34
			c-0.6-2.12-2.37-3.71-4.55-4.06c-0.76-0.14-1.55-0.14-2.31,0c0-0.7,0.42-1.19,0.42-1.89
			C366.32,311.52,366.36,309.84,366.14,308.19"/>
		<path class="st4" d="M326.68,197.62c1.18-0.42,2.46-0.42,3.64,0c0.41,0.14,0.85,0.14,1.26,0c2.03-0.49,2.38-3.15,1.82-4.55
			c-1.12-2.8-5.11-5.81-4.55-9.45c0.18-1.32,1.07-2.45,2.31-2.94c4.55-1.82,9.66,4.34,13.23,7c1.54,0.91,2.87,2.24,4.83,1.82
			c1.96-0.42,1.4-2.87,3.01-3.36c1.55-0.11,3.01,0.72,3.71,2.1c2.1,4.38,3.27,9.14,3.43,14c0,1.82,0,3.78,0.35,5.67
			c-1.01,1.71-1.72,3.58-2.1,5.53c-0.31,2.85-0.19,5.72,0.35,8.54c-0.91-0.11-1.82-0.11-2.73,0c-1.9-9.2-5.56-17.94-10.78-25.75
			c-1.12-1.26-2.31-3.08-4.06-3.22c-0.23,0.36-0.23,0.83,0,1.19c0.03,0.6,0.22,1.18,0.56,1.68c0,0.56,0.42,0.91,0.56,1.54
			c4.37,8.19,7.55,16.95,9.45,26.03c0,0.91-0.84,1.26-1.12,2.1c-0.3,1.2-0.53,2.41-0.7,3.64l0,0c-2.94-4.34-10.71-5.11-14-9.52
			c-0.77-0.96-1.03-2.24-0.7-3.43c0.91-1.61,3.01-0.98,4.48-1.4c0.43-0.25,0.72-0.69,0.77-1.19c-1.11-2.26-2.96-4.06-5.25-5.11
			c-3.82-1.63-6.87-4.66-8.54-8.47c-0.31-0.95,0.06-1.99,0.91-2.52"/>
		<path class="st4" d="M327.73,223.79c1.04-0.36,2.18-0.36,3.22,0l1.19,0.49c4.78,3.32,9.84,6.22,15.12,8.68
			c0.69,0.06,1.37-0.17,1.89-0.63c0.46,2.02,1.29,3.94,2.45,5.67c0.19,0.06,0.38,0.13,0.56,0.21c-2,0.45-3.66,1.83-4.48,3.71
			l-0.35,0.63c-1.97-2.76-4.56-5.01-7.56-6.58c-0.44-0.09-0.88,0.19-0.98,0.63c0,2.38,2.1,4.2,3.29,5.95
			c3.77,5.49,6.55,11.6,8.19,18.05c-1.1,0.54-2.06,1.33-2.8,2.31c-1.88,3.72-1.88,8.11,0,11.83c0.91,2.1,2.38,4.13,3.22,6.3
			c1.48,3.59,2.52,7.35,3.08,11.2c-0.14,1.63-0.14,3.27,0,4.9c0,0,0,0.42,0,0.49s0-0.63-0.42-0.84c-2.24-7.63-14-15.12-18.68-20.99
			c-2.98-3.07-4.46-7.29-4.06-11.55c0.31-1.05,1.28-1.76,2.38-1.75c1.29,0.07,2.57,0.21,3.85,0.42c0.61-0.06,1.14-0.43,1.4-0.98
			c0.49-1.96-0.84-3.5-1.82-4.97c-1.67-1.67-3.42-3.26-5.25-4.76c0,0,0-0.42-0.35-0.49c-1.82-2.1-3.92-3.85-3.08-7
			c0.7-1.33,2.24-1.19,3.43-1.4c0.49-0.23,0.85-0.67,0.98-1.19c0-3.71-2.66-6.23-4.13-9.1c-1.32-2.09-1.93-4.54-1.75-7
			c0.42-0.77,0.63-1.68,1.54-2.17"/>
		<path class="st4" d="M325.63,338.77c0.08-1.44,0.27-2.86,0.56-4.27c0.49-1.54,1.05-3.22,2.8-3.64s4.13,4.06,5.95,1.12
			c0.56-2.16,0.42-4.44-0.42-6.51c-0.56-2.24-1.82-4.27-2.38-6.65c-0.96-2.21-1.51-4.59-1.61-7c-0.04-1.23,0.45-2.43,1.33-3.29
			c1.05-1.19,2.45,0,3.64-0.49c1.19-0.49,0.77-0.42,1.12-0.77c0.7-3.99-1.96-7-1.4-11.2c-0.04-2.25,1-4.39,2.8-5.74
			c2.41-1.29,5.4-0.6,7,1.61c1.66,2.16,3.07,4.51,4.2,7c1.54,3.5,2.45,6.65,6.51,3.78c1.26-0.91,2.24-2.31,4.06-2.17
			c1.06,0.23,1.9,1.04,2.17,2.1c0.47,2.5,0.3,5.07-0.49,7.49c-0.62,1.62-1,3.31-1.12,5.04c-0.25,1.13-0.25,2.3,0,3.43
			c0,0.35,0.42,0.91,0.91,0.91c0.49,0,1.75-0.84,2.8-0.98c1.07-0.49,2.29-0.49,3.36,0c0.74,0.62,1.11,1.57,0.98,2.52
			c-0.49,4.69-4.97,7.42-7,11.55c-0.25,0.61-0.25,1.28,0,1.89c0.17,0.32,0.48,0.53,0.84,0.56c0,0,0,0,0.42,0s1.12,0,1.61-0.42
			c0.49-0.42,2.87,0,3.57,1.33c0.84,2.59-1.12,4.55-2.59,6.3l0,0c-1.51-1.8-3.82-2.72-6.16-2.45c-6.37,1.68-8.4,8.33-10.08,15.12
			c-0.63-0.98-1.47-1.82-2.45-2.45c4.33-12.96,4.99-26.86,1.89-40.17c-0.2-2.58-1.2-5.02-2.87-7c-0.39-0.03-0.77,0.16-0.98,0.49
			c-0.21,1.32-0.21,2.67,0,3.99c2.2,13.87,1.34,28.06-2.52,41.57c-1.33-0.01-2.63,0.41-3.71,1.19c-3.54,3.08-5.3,7.73-4.69,12.39
			c0.01,1.32-0.33,2.63-0.98,3.78c-2.87-7.98-7-8.82-9.66-7c4.41-7,3.29-14,2.94-22.81"/>
		<path class="st4" d="M290.85,386.36c1.33-1.54,3.29-3.57,5.32-2.45s0.7,3.99,2.59,5.11c1.89,1.12,3.29-2.66,3.99-4.69
			c0.86-3.52,1.93-6.97,3.22-10.36c0.98-1.75,1.89-3.64,4.27-3.01c2.38,0.63,1.47,4.69,3.99,4.34c2.52-0.35,5.04-10.15,9.94-9.03
			c2.45,0.56,4.76,4.9,4.83,10.57c-0.6,3.56-0.72,7.19-0.35,10.78c0,0,0.42,0.56,0.42,0.91c-1.4,1.26-2.94,2.38-4.41,3.5
			c-0.48-1.14-1.19-2.17-2.1-3.01c-0.68-0.53-1.4-1-2.17-1.4c1.34-2.77,2.02-5.81,1.96-8.89c-0.35-0.27-0.84-0.27-1.19,0
			c-1.82,1.4-3.01,5.6-4.97,8.89c-5.42,1.74-9.71,5.91-11.62,11.27c0,0,0-0.49-0.42-0.63c-1.47-1.89-3.88-2.79-6.23-2.31
			c-6.23,1.33-9.45,7.84-13.02,13.23c-0.98-2.59-2.87-2.94-5.18-3.78c5.46-7,6.58-14,10.99-18.75"/>
		<path class="st4" d="M269.08,419.46c2.26-3.85,5.2-7.27,8.68-10.08c0.93-0.42,2-0.42,2.94,0c1.26,0.7,1.33,3.92,3.36,3.78
			c2.03-0.14,6.37-5.04,8.19-7.7c1.44-2.58,3.82-4.51,6.65-5.39c0.91-0.24,1.87,0.12,2.38,0.91c1.05,1.61,0,4.27,1.4,5.6
			c1.61,0,2.66-1.12,3.57-2.17s1.96-3.22,3.01-4.48c0.15-0.57,0.44-1.1,0.84-1.54c1.7-2.93,4.41-5.14,7.63-6.23
			c1.09-0.25,2.21,0.27,2.73,1.26c0.4,0.83,0.6,1.74,0.56,2.66c0,0,0,0.35,0,0.63c0,0.28,0,1.12,0.84,1.26
			c1.23,0.21,2.49-0.01,3.57-0.63c4.55-1.75,7-6.16,11.83-7c2.06-0.74,4.34-0.54,6.23,0.56c1.45,1.59,1.86,3.88,1.05,5.88
			c0,0,0,0.49,0,0.63c-1.19,3.15-3.29,5.81-4.69,8.82c0,0.42,0,0.7,0,1.12c-0.14,0.9,0.11,1.82,0.7,2.52c0.49,0.29,1,0.52,1.54,0.7
			c1.06,0.35,1.94,1.11,2.45,2.1c0.13,1.72-0.86,3.33-2.45,3.99c-5.11,3.22-11.97,2.03-17.36,4.55c-1.54,0.49-3.57,1.26-3.92,3.01
			c-0.35,1.75,0,1.12,0.84,1.47c0.84,0.35,2.38,1.33,2.45,2.59c0.07,1.26-2.1,3.15-3.78,3.85l-1.47,0.49
			c-8.26,1.82-17.22-0.84-25.54,0.56c-2.1,0.27-4.16,0.76-6.16,1.47c-0.63,0-1.12-0.42-1.75-0.56c-3.29-1.59-6.71-2.9-10.22-3.92
			l7-1.4c0,0,0.84,0,1.12,0c1.61-0.7,3.29-0.56,4.83-1.33s1.19-0.49,1.82-0.42c2.52-0.91,5.04-1.68,7.63-2.52l6.44-2.45
			c0.3-0.07,0.61-0.07,0.91,0c0.45-0.29,0.95-0.51,1.47-0.63l2.45-1.12c3.34-1.44,6.59-3.07,9.73-4.9c0.91-0.42,2.03-1.12,3.01-1.68
			c4.41-2.45,8.31-5.73,11.48-9.66c0.28-0.42,0.28-0.98,0-1.4c-0.91-0.49-1.89,0-2.73,0.42c-4.24,2.66-8.63,5.06-13.16,7.21l-7,3.5
			l-1.89,0.7c-2.45,1.12-5.04,1.96-7.49,2.94l-5.46,1.61l-3.5,1.12c-7.49,2.17-18.05,4.69-24.21,5.88c-2.1,0.42-4.27,0.91-6.37,1.19
			l0,0c3.31-1.81,6.15-4.34,8.33-7.42"/>
		<path class="st5" d="M221.91,428.06c5.08-1.82,9.81-4.5,14-7.91c4.8,3.83,10.25,6.74,16.1,8.61l0,0
			c-4.77,4.72-10.22,8.71-16.17,11.83c-0.42,0-0.49,0-0.91-0.42c-4.82-2.63-9.28-5.85-13.3-9.59c-0.72-0.53-1.38-1.14-1.96-1.82
			c0.7,0,1.54-0.49,2.24-0.84"/>
		<path class="st4" d="M188.53,438.28c0.49-0.42,1.19,0,1.68-0.63c5.31-1.66,10.71-3.04,16.17-4.13c2.66-0.7,5.46-1.4,8.05-2.24
			c1.63,1.76,3.41,3.37,5.32,4.83c-2.09,0.87-4.24,1.57-6.44,2.1c-7,2.31-14.56,3.22-21.48,5.6c-4.89,1.42-9.34,4.04-12.95,7.63
			c-1.63,1.67-2.91,3.64-3.78,5.81c-1.54-2.1-2.52-4.34-4.06-6.3C175.35,444.95,181.49,440.5,188.53,438.28"/>
		<path class="st4" d="M246.48,439.89c0,0,0-0.42,0.49,0c1.43,0.65,2.91,1.21,4.41,1.68c4.41,1.55,8.92,2.79,13.51,3.71
			c1.19,0,2.31,0.56,3.5,0.63c3.01,0.7,6.23,1.33,9.1,2.24c0.56,0.42,1.33,0,1.82,0.77c5.99,1.89,10.91,6.21,13.58,11.9v0.63
			c-1.61,2.45-2.94,4.62-4.48,7c-0.49-0.42,0-1.12-0.49-1.75c-2.03-8.89-11.62-12.18-19.38-14c-9.77-1.81-19.29-4.79-28.34-8.89
			c2.17-1.16,4.25-2.47,6.23-3.92"/>
		<path class="st3" d="M256.48,431.14c7,2.52,15.26,3.22,22.53,5.67c6.3,1.84,12.14,4.99,17.15,9.24c1.39,1.4,2.54,3,3.43,4.76
			c-0.6,0.72-1.14,1.5-1.61,2.31c-0.84,1.19-1.54,2.66-2.45,3.85c0,0,0-0.42,0-0.56c-1.45-3.21-3.63-6.04-6.37-8.26
			c-0.28-0.16-0.54-0.34-0.77-0.56c-8.77-4.48-18.23-7.44-27.99-8.75c-3.01-0.91-6.02-1.68-8.89-2.87c1.75-1.61,3.64-3.22,5.39-5.04
			"/>
		<path class="st3" d="M183.01,454.03c5.56-4.31,12.14-7.08,19.1-8.05c0.42,0,0.84,0,1.26,0c0.42,0,1.47,0,2.24-0.49
			c2.03-0.56,4.27-0.84,6.37-1.54c4.04-1.09,8.02-2.42,11.9-3.99c2.03,1.4,4.06,3.01,6.23,4.27c-9.72,4.16-19.89,7.17-30.3,8.96
			c-5.02,1.21-9.67,3.61-13.58,7c-2.17,2.34-3.63,5.26-4.2,8.4l0,0l-4.2-7c1.11-2.89,2.91-5.46,5.25-7.49"/>
		<path class="st4" d="M216.39,399.16c-3-1.44-6.26-2.25-9.59-2.38c6.12,8.29,12.85,16.1,20.15,23.37c1.89-0.84,3.64-1.97,5.18-3.36
			C226.51,411.26,221.26,405.37,216.39,399.16"/>
		<path class="st3" d="M199.87,394.68c-2.69-1.56-5.78-2.29-8.89-2.1c7.39,11.58,15.79,22.47,25.12,32.54
			c2.09-0.66,4.12-1.48,6.09-2.45C213.98,413.99,206.51,404.63,199.87,394.68"/>
		<path class="st4" d="M255.51,399.16c2.97-1.46,6.21-2.27,9.52-2.38c-6.12,8.29-12.85,16.1-20.15,23.37
			c-1.89-0.85-3.63-1.98-5.18-3.36C245.35,411.28,250.63,405.39,255.51,399.16"/>
		<path class="st3" d="M272.02,394.68c2.67-1.56,5.74-2.29,8.82-2.1c-7.36,11.59-15.77,22.48-25.12,32.54
			c-2.09-0.66-4.12-1.48-6.09-2.45C257.87,413.99,265.36,404.63,272.02,394.68"/>
		<path class="st1" d="M235.91,377.54c10.64-6.51,23.86-7,36.32-9.24c16.35-1.17,29.04-14.75,29.11-31.14V203.22H170.55v133.94
			c0.07,16.4,12.76,29.97,29.11,31.14C212.12,370.19,225.34,371.03,235.91,377.54 M235.91,385.1c-1.39-1.53-3.05-2.79-4.9-3.71
			c-10.28-3.98-21.12-6.35-32.12-7c-19.32-1.6-34.18-17.77-34.15-37.16V197.27h142.41v139.96c0.03,19.39-14.83,35.56-34.15,37.16
			c-11.01,0.64-21.85,3-32.12,7C239.01,382.31,237.33,383.57,235.91,385.1"/>
		<rect x="181.05" y="138.35" class="st0" width="5.81" height="11.83"/>
		<polygon class="st0" points="227.79,126.24 233.6,126.24 233.6,132.33 238.29,132.33 238.29,126.24 244.03,126.24 244.03,138.14 
			227.79,138.14 		"/>
		<polygon class="st0" points="191.54,145.83 191.54,132.33 197.35,132.33 197.35,144.15 203.16,153.04 203.16,171.45 
			197.35,171.45 197.35,154.79 		"/>
		<polygon class="st0" points="207.85,138.35 212.54,138.35 212.54,144.15 202.04,144.15 202.04,132.33 207.85,132.33 		"/>
		<polygon class="st0" points="217.79,181.94 176.36,181.94 176.36,160.81 170.55,151.92 170.55,138.35 176.36,138.35 
			176.36,150.17 182.1,159.06 182.1,176.2 217.79,176.2 		"/>
		<rect x="285.04" y="138.35" class="st0" width="5.81" height="11.83"/>
		<polygon class="st0" points="280.35,145.83 280.35,132.33 274.54,132.33 274.54,144.15 268.73,153.04 268.73,171.45 
			274.54,171.45 274.54,154.79 		"/>
		<polygon class="st0" points="264.04,138.35 259.28,138.35 259.28,144.15 269.78,144.15 269.78,132.33 264.04,132.33 		"/>
		<path class="st0" d="M176.36,192.51v-5.81h46.19v-10.5c-0.54-7.4,5.03-13.84,12.43-14.37c7.4-0.54,13.84,5.03,14.37,12.43
			c0.05,0.65,0.05,1.29,0,1.94v10.5h46.19v5.81h-52V176.2c0-4.21-3.42-7.63-7.63-7.63c-4.21,0-7.63,3.42-7.63,7.63l0,0v16.31H176.36
			z"/>
		<polygon class="st0" points="254.04,181.94 295.53,181.94 295.53,160.81 301.34,151.92 301.34,138.35 295.53,138.35 
			295.53,150.17 289.8,159.06 289.8,176.2 254.04,176.2 		"/>
		<path class="st0" d="M228.28,159.69v-13.51l-5.18-8.12v-11.83h-5.81v13.58l5.25,8.05v16.1
			C224.17,162.19,226.12,160.74,228.28,159.69"/>
		<path class="st0" d="M243.54,159.69v-13.51l5.25-8.12v-11.83h5.81v13.58l-5.25,8.05v16.1
			C247.71,162.17,245.73,160.72,243.54,159.69"/>
	</g>
</g>
</svg>
