<?xml version="1.0" encoding="UTF-8" standalone="no"?><!-- Generator: Gravit.io --><svg xmlns="http://www.w3.org/2000/svg" xmlns:xlink="http://www.w3.org/1999/xlink" style="isolation:isolate" viewBox="0 0 1464 1040" width="1464pt" height="1040pt"><defs><clipPath id="_clipPath_9GunexnIwqNvLJUf9HQurLgksS4dX08P"><rect width="1464" height="1040"/></clipPath></defs><g clip-path="url(#_clipPath_9GunexnIwqNvLJUf9HQurLgksS4dX08P)"><rect width="1464" height="1040" style="fill:rgb(0,0,0)" fill-opacity="0"/><g><g><g><path d=" M 928.801 397.707 C 880.911 397.707 840.01 382.861 807.181 353.555 C 788.382 336.766 771.456 318.149 757.12 301.935 C 756.607 301.684 756.238 301.369 755.955 301.031 C 749.129 292.948 741.34 289.491 732.353 289.458 C 723.365 289.491 715.581 292.948 708.755 301.031 C 708.468 301.369 708.104 301.684 707.591 301.935 C 693.249 318.149 676.329 336.766 657.525 353.555 C 624.7 382.861 583.794 397.707 535.905 397.707 C 516.942 397.707 496.758 395.348 475.917 390.702 L 475.71 390.644 L 475.71 472.798 C 475.71 485.676 485.316 492.246 498.819 496.128 C 512.346 500 593.726 520.836 732.353 520.836 C 870.984 520.836 952.36 500 965.887 496.128 C 979.394 492.246 989 485.676 989 472.798 L 989 390.644 L 988.794 390.702 C 967.948 395.348 947.763 397.707 928.801 397.707 Z " fill-rule="evenodd" fill="rgb(0,0,0)"/><path d=" M 830.342 185.298 C 806.155 201.097 781.652 224.204 781.652 237.818 C 781.652 239.906 781.681 241.782 781.767 243.575 C 781.81 243.575 781.853 243.58 781.896 243.58 C 782.577 251.668 785.165 258.692 794.934 276.178 C 795.078 276.405 795.169 276.613 795.26 276.83 L 795.548 277.425 C 812.075 304.647 834.948 330.215 863.564 353.406 C 884.199 370.137 910.577 376.272 941.959 376.272 L 941.973 376.272 C 956.415 376.272 972.243 374.459 988.995 370.896 L 988.995 264.817 L 989 264.822 L 989 152.048 C 934.855 145.502 883.428 156.273 830.342 185.298 Z " fill-rule="evenodd" fill="rgb(0,0,0)"/><path d=" M 475.715 370.896 C 492.463 374.459 508.295 376.272 522.737 376.272 L 522.752 376.272 C 554.133 376.272 580.506 370.137 601.146 353.406 C 629.757 330.215 652.631 304.647 669.163 277.425 L 669.45 276.83 C 669.542 276.613 669.628 276.405 669.772 276.178 C 679.54 258.692 682.134 251.668 682.809 243.58 C 682.857 243.58 682.9 243.575 682.944 243.575 C 683.03 241.782 683.054 239.906 683.054 237.818 C 683.054 224.204 658.555 201.097 634.364 185.298 C 581.283 156.273 529.855 145.502 475.71 152.048 L 475.71 264.822 L 475.715 264.817 L 475.715 370.896 Z " fill-rule="evenodd" fill="rgb(0,0,0)"/><path d=" M 525.973 123.472 C 589.527 123.472 654.697 141.412 704.772 172.671 L 708.775 175.064 C 716.856 179.966 726.27 185.018 732.353 185.037 C 738.436 185.018 747.85 179.966 755.931 175.064 L 759.933 172.671 C 810.014 141.412 875.179 123.472 938.733 123.472 C 958.059 123.472 988.851 125.542 988.851 125.542 L 988.995 48.033 C 988.995 35.165 979.083 28.914 965.887 24.718 C 952.676 20.517 870.519 0 732.353 0 C 594.191 0 512.029 20.517 498.819 24.718 C 485.628 28.914 475.715 35.165 475.715 48.033 L 475.854 125.542 C 475.854 125.542 506.651 123.472 525.973 123.472 Z " fill-rule="evenodd" fill="rgb(0,0,0)"/></g></g></g><g><g><g><path d=" M 123.914 851.557 L 122.742 851.557 L 86.17 1037.269 L 69.061 1037.269 L 30.931 851.557 L 30.16 851.557 L 30.16 1037.269 L 0 1037.269 L 0 780.54 L 43.385 780.54 L 77.621 951.273 L 78.014 951.273 L 110.299 780.54 L 157.586 780.54 L 157.586 1037.269 L 123.914 1037.269 L 123.914 851.557 Z " fill-rule="evenodd" fill="rgb(0,0,0)"/><path d=" M 198.263 780.54 L 232.495 780.54 L 232.495 1037.269 L 198.263 1037.269 L 198.263 780.54 Z " fill-rule="evenodd" fill="rgb(0,0,0)"/><path d=" M 270.028 982.329 L 270.028 948.924 L 302.328 948.924 L 302.328 983.118 C 302.328 1001.169 310.888 1012.155 330.333 1012.155 C 348.618 1012.155 356.788 999.987 356.788 983.118 L 356.788 970.95 C 356.788 953.302 350.172 948.135 333.838 932.44 L 307.38 906.148 C 282.475 881.441 270.822 871.162 270.822 842.131 L 270.822 832.724 C 270.822 800.541 290.271 777.783 329.162 777.783 C 370.017 777.783 387.523 797.795 387.523 834.284 L 387.523 859.394 L 355.999 859.394 L 355.999 833.109 C 355.999 814.286 347.053 805.643 329.558 805.643 C 313.61 805.643 303.096 814.672 303.096 832.327 L 303.096 839.778 C 303.096 856.655 312.442 861.819 327.611 876.732 L 355.231 904.199 C 378.956 928.527 390.638 938.403 390.638 967.422 L 390.638 981.161 C 390.638 1014.904 371.957 1040 329.944 1040 C 287.931 1040 270.028 1016.079 270.028 982.329 Z " fill-rule="evenodd" fill="rgb(0,0,0)"/><path d=" M 409.712 780.54 L 523.309 780.54 L 523.309 808.781 L 484.011 808.781 L 484.011 1037.269 L 449.389 1037.269 L 449.389 808.781 L 409.712 808.781 L 409.712 780.54 Z " fill-rule="evenodd" fill="rgb(0,0,0)"/><path d=" M 550.521 780.54 L 652.064 780.54 L 652.064 808.781 L 584.768 808.781 L 584.768 892.813 L 633.39 892.813 L 633.39 920.668 L 584.768 920.668 L 584.768 1009.013 L 652.064 1009.013 L 652.064 1037.269 L 550.521 1037.269 L 550.521 780.54 Z " fill-rule="evenodd" fill="rgb(0,0,0)"/><path d=" M 717.027 808.781 L 717.027 896.74 L 737.645 896.74 C 756.318 896.74 764.882 887.318 764.882 870.448 L 764.882 834.68 C 764.882 817.425 756.318 808.781 737.645 808.781 L 717.027 808.781 L 717.027 808.781 Z  M 717.027 914.017 L 717.027 1037.269 L 682.788 1037.269 L 682.788 780.54 L 741.535 780.54 C 782.759 780.54 799.107 800.941 799.107 835.862 L 799.107 867.71 C 799.107 898.311 786.26 915.974 755.15 919.887 L 806.895 1037.269 L 770.319 1037.269 L 717.027 914.017 L 717.027 914.017 Z " fill-rule="evenodd" fill="rgb(0,0,0)"/><path d=" M 901.243 982.329 L 901.243 948.924 L 933.535 948.924 L 933.535 983.118 C 933.535 1001.169 942.088 1012.155 961.534 1012.155 C 979.829 1012.155 987.992 999.987 987.992 983.118 L 987.992 970.95 C 987.992 953.302 981.376 948.135 965.027 932.44 L 938.583 906.148 C 913.683 881.441 902.022 871.162 902.022 842.131 L 902.022 832.724 C 902.022 800.541 921.467 777.783 960.369 777.783 C 1001.225 777.783 1018.716 797.795 1018.716 834.284 L 1018.716 859.394 L 987.213 859.394 L 987.213 833.109 C 987.213 814.286 978.282 805.643 960.755 805.643 C 944.81 805.643 934.303 814.672 934.303 832.327 L 934.303 839.778 C 934.303 856.655 943.646 861.819 958.822 876.732 L 986.424 904.199 C 1010.163 928.527 1021.828 938.403 1021.828 967.422 L 1021.828 981.161 C 1021.828 1014.904 1003.161 1040 961.144 1040 C 919.138 1040 901.243 1016.079 901.243 982.329 Z " fill-rule="evenodd" fill="rgb(0,0,0)"/><path d=" M 1086.838 808.781 L 1086.838 921.857 L 1108.623 921.857 C 1127.308 921.857 1135.875 912.435 1135.875 895.169 L 1135.875 834.68 C 1135.875 817.425 1127.308 808.781 1108.623 808.781 L 1086.838 808.781 L 1086.838 808.781 Z  M 1052.612 780.54 L 1112.517 780.54 C 1153.748 780.54 1169.714 800.941 1169.714 835.862 L 1169.714 892.809 C 1169.714 927.334 1153.748 948.924 1112.517 948.924 L 1086.838 948.924 L 1086.838 1037.269 L 1052.612 1037.269 L 1052.612 780.54 L 1052.612 780.54 Z " fill-rule="evenodd" fill="rgb(0,0,0)"/><path d=" M 1201.424 780.54 L 1302.949 780.54 L 1302.949 808.781 L 1235.653 808.781 L 1235.653 892.813 L 1284.279 892.813 L 1284.279 920.668 L 1235.653 920.668 L 1235.653 1009.013 L 1302.949 1009.013 L 1302.949 1037.269 L 1201.424 1037.269 L 1201.424 780.54 Z " fill-rule="evenodd" fill="rgb(0,0,0)"/><path d=" M 1372.185 901.06 L 1331.733 780.54 L 1367.137 780.54 L 1396.714 872.412 L 1426.66 780.54 L 1459.338 780.54 L 1418.496 902.624 L 1464 1037.269 L 1428.214 1037.269 L 1393.985 932.054 L 1360.524 1037.269 L 1327.85 1037.269 L 1372.185 901.06 Z " fill-rule="evenodd" fill="rgb(0,0,0)"/></g></g></g></g></svg>