<svg class="components_msxLogo__60293" xmlns="http://www.w3.org/2000/svg" width="46px" height="46px" viewBox="0 0 46 46" version="1.1">
  <title>Mister Spex</title>
  <g stroke="none" stroke-width="1" fill="none" fill-rule="evenodd">
    <g transform="translate(-344.000000, -66.000000)" fill="#000">
      <g id="Group" transform="translate(344.000000, 66.000000)">
        <path d="M39.7258298,34.9553578 C35.5451986,34.9553578 31.9746525,33.6593394 29.1087589,31.1010642 C27.4676383,29.6353945 25.9901277,28.0102018 24.7385745,26.5947523 C24.6938014,26.5728073 24.6615816,26.5453761 24.6368936,26.5158349 C24.0410355,25.8102202 23.3610709,25.5084771 22.5764965,25.5055229 C21.791922,25.5084771 21.1123759,25.8102202 20.5165177,26.5158349 C20.4914113,26.5453761 20.4596099,26.5728073 20.4148369,26.5947523 C19.1628652,28.0102018 17.685773,29.6353945 16.044234,31.1010642 C13.1787589,33.6593394 9.60779433,34.9553578 5.42716312,34.9553578 C3.7718156,34.9553578 2.00976596,34.7494128 0.190390071,34.3438532 L0.172397163,34.338789 L0.172397163,41.5105688 C0.172397163,42.6348257 1.01095035,43.2083486 2.18969504,43.5472294 C3.37053191,43.8852661 10.4748014,45.7041651 22.5764965,45.7041651 C34.6786099,45.7041651 41.782461,43.8852661 42.9632979,43.5472294 C44.142461,43.2083486 44.9810142,42.6348257 44.9810142,41.5105688 L44.9810142,34.338789 L44.9630213,34.3438532 C43.143227,34.7494128 41.3811773,34.9553578 39.7258298,34.9553578" id="Fill-11"></path>
        <path d="M31.1306596,16.4127156 C29.0192128,17.7918716 26.8801489,19.8091193 26.8801489,20.9975229 C26.8801489,21.1798349 26.8826596,21.343578 26.8901915,21.5001468 C26.8939574,21.5001468 26.8977234,21.5005688 26.9014894,21.5005688 C26.9609078,22.2066055 27.1868652,22.8197982 28.0396454,24.3462385 C28.0521986,24.3660734 28.0601489,24.3842202 28.0680993,24.403211 L28.0932057,24.4551193 C29.5359858,26.8315046 31.5327801,29.0635596 34.0308652,31.0879817 C35.8322482,32.5485872 38.134922,33.0841284 40.8744468,33.0841284 L40.8757021,33.0841284 C42.136461,33.0841284 43.5181489,32.9258716 44.9805957,32.614844 L44.9805957,23.3544954 L44.9810142,23.3549174 L44.9810142,13.5100734 C40.2543191,12.9386606 35.7648794,13.8789174 31.1306596,16.4127156" id="Fill-12"></path>
        <path d="M0.172815603,32.614844 C1.63484397,32.9258716 3.01695035,33.0841284 4.27770922,33.0841284 L4.27896454,33.0841284 C7.01848936,33.0841284 9.32074468,32.5485872 11.1225461,31.0879817 C13.6202128,29.0635596 15.6170071,26.8315046 17.0602057,24.4551193 L17.0853121,24.403211 C17.0932624,24.3842202 17.1007943,24.3660734 17.1133475,24.3462385 C17.9661277,22.8197982 18.1925035,22.2066055 18.2515035,21.5005688 C18.2556879,21.5005688 18.2594539,21.5001468 18.2632199,21.5001468 C18.2707518,21.343578 18.272844,21.1798349 18.272844,20.9975229 C18.272844,19.8091193 16.1341986,17.7918716 14.0223333,16.4127156 C9.38853191,13.8789174 4.8990922,12.9386606 0.172397163,13.5100734 L0.172397163,23.3549174 L0.172815603,23.3544954 L0.172815603,32.614844" id="Fill-13"></path>
        <path d="M4.56015603,11.0155229 C10.1082482,11.0155229 15.7973546,12.581633 20.1687943,15.3104037 L20.5181915,15.5193028 C21.2236809,15.9472294 22.0454965,16.3882385 22.5764965,16.3899266 C23.1074965,16.3882385 23.9293121,15.9472294 24.6348014,15.5193028 L24.9841986,15.3104037 C29.3560567,12.581633 35.0447447,11.0155229 40.5928369,11.0155229 C42.2799858,11.0155229 44.9680426,11.1961468 44.9680426,11.1961468 L44.9805957,4.42992661 C44.9805957,3.30651376 44.1152624,2.76084404 42.9632979,2.39453211 C41.810078,2.02779817 34.6380213,0.236752294 22.5764965,0.236752294 C10.5153901,0.236752294 3.34291489,2.02779817 2.18969504,2.39453211 C1.03814894,2.76084404 0.172815603,3.30651376 0.172815603,4.42992661 L0.184950355,11.1961468 C0.184950355,11.1961468 2.87342553,11.0155229 4.56015603,11.0155229" id="Fill-14"></path>
      </g>
    </g>
  </g>
</svg>
