<?xml version="1.0" encoding="UTF-8" standalone="no"?>
<!-- Created with Inkscape (http://www.inkscape.org/) -->
<svg
   xmlns:svg="http://www.w3.org/2000/svg"
   xmlns="http://www.w3.org/2000/svg"
   version="1.0"
   width="744.09448"
   height="364.25195"
   id="svg26043">
  <defs
     id="defs26045">
    <linearGradient
       id="linearGradient5905">
      <stop
         style="stop-color:#eb008b;stop-opacity:1"
         offset="0"
         id="stop5907" />
      <stop
         style="stop-color:white;stop-opacity:1"
         offset="0.49565217"
         id="stop5913" />
      <stop
         style="stop-color:#eb008b;stop-opacity:1"
         offset="1"
         id="stop5909" />
    </linearGradient>
  </defs>
  <g
     transform="translate(3.769531e-6,0.109664)"
     id="g23357">
    <path
       d="M 17.71661,110.24501 L 116.42986,110.24501 L 116.42986,133.29091 C 116.04576,133.03484 139.73182,110.88517 177.62952,108.90068 C 213.73476,106.66009 234.28402,146.79836 234.86016,147.43853 C 234.28402,146.79836 240.4936,160.49787 240.81368,185.97638 C 240.4936,211.19883 240.4936,287.25029 240.81368,287.37833 L 268.46875,287.37833 L 268.46875,338.0793 L 171.74001,338.0793 L 171.74001,194.10646 C 172.63624,194.29851 174.68476,166.83549 149.97444,171.76475 C 125.32814,175.28566 117.07003,187.96089 116.42986,188.0249 L 116.42986,287.37833 L 146.06944,287.37833 L 146.06944,338.0793 L 17.71661,338.0793 L 17.71661,287.37833 L 49.340701,287.37833 L 49.340701,167.73172 L 17.71661,167.73172 L 17.71661,110.24501"
       style="fill:#d51f24;fill-rule:nonzero;stroke:none"
       id="path22689" />
    <path
       d="M 270.38925,248.84047 L 284.21679,194.10646 L 331.5889,194.10646 L 317.76137,248.84047 L 270.38925,248.84047"
       style="fill:#d51f24;fill-rule:nonzero;stroke:none"
       id="path22691" />
    <path
       d="M 361.22848,66.329786 L 428.31764,17.677337 L 428.31764,110.9492 L 596.10457,110.9492 L 584.26153,159.60163 L 562.55999,159.60163 L 574.40301,261.00358 L 627.66464,159.60163 L 607.94759,159.60163 L 615.82162,110.9492 L 726.37789,110.9492 L 712.55036,161.65016 L 684.9593,161.65016 L 588.23054,338.0793 L 530.93589,338.0793 L 503.34484,159.60163 L 430.30215,159.60163 L 430.30215,271.18219 C 429.66199,270.34997 427.54945,296.78873 465.83125,285.3298 L 465.83125,331.99774 C 465.63918,332.70192 451.17148,348.00183 410.58511,346.20937 C 393.68479,344.28888 360.78037,334.81445 361.22848,291.41136 C 360.78037,246.08776 360.78037,161.58615 361.22848,161.65016 L 333.57341,161.65016 L 333.57341,110.9492 L 361.22848,110.9492 L 361.22848,66.329786"
       style="fill:#d51f24;fill-rule:nonzero;stroke:none"
       id="path22693" />
  </g>
</svg>
