<?xml version="1.0" encoding="utf-8"?>
<!DOCTYPE svg PUBLIC "-//W3C//DTD SVG 1.1//EN" "http://www.w3.org/Graphics/SVG/1.1/DTD/svg11.dtd">
<svg version="1.1" xmlns="http://www.w3.org/2000/svg" width="210" height="125" viewBox="0 0 210 125">
  <title>n-tv Der Nachrichtensender Logo (1997 bis 2003)</title>
  <path d="M89.948,109.922c0.825,0,1.237-0.412,1.237-0.824c0-0.414-0.412-0.826-1.237-0.826c-0.412,0-0.825,0.412-0.825,0.826C89.124,109.51,89.536,109.922,89.948,109.922L89.948,109.922z"/>
  <path d="M59.02,114.457c0-1.648-0.825-2.887-3.299-2.887s-3.299,1.65-3.299,1.65l1.237,0.412c0,0,0.412-0.824,1.649-0.824c1.649,0,2.062,0.824,2.062,1.648v0.824c0,0-0.825-0.412-2.062-0.412c-1.649,0-3.299,0.828-3.299,2.475c0,2.063,2.062,2.477,2.886,2.477c1.237,0,2.474-0.826,2.474-0.826v0.826h2.887v-1.236H59.02V114.457L59.02,114.457z M54.896,118.584c-0.412,0-1.237-0.414-1.237-1.24c0-0.824,0.412-1.236,1.649-1.236c1.237,0,1.649,0.824,1.649,0.824l0.412,0.824C57.371,117.756,56.134,118.584,54.896,118.584L54.896,118.584z"/>
  <path d="M82.938,113.633v-2.063h-2.887v1.65h1.649v4.949h-1.649v1.65H85v-1.65H83.35v-2.473c0-1.24,0.825-2.477,2.062-2.477c0.412,0,1.237,0,1.237,0v-1.65c0,0-0.412,0-0.825,0C84.175,111.57,83.35,112.809,82.938,113.633L82.938,113.633z"/>
  <path d="M65.618,118.584c-2.062,0-2.475-1.652-2.475-2.887c0-1.24,0.413-2.889,2.063-2.889c2.062,0,2.062,2.061,2.062,2.061h1.649v-3.299h-1.649v0.826c-0.412-0.414-1.237-0.826-2.062-0.826c-2.063,0-4.124,2.063-4.124,4.127c0,2.473,2.061,4.123,4.124,4.123c1.649,0,3.299-0.826,3.711-2.477l-1.237-0.412C67.68,116.932,66.855,118.584,65.618,118.584L65.618,118.584z"/>
  <path d="M77.99,113.633c0-0.824-0.413-2.063-2.063-2.063c-1.237,0-2.061,0.826-2.887,1.238v-4.537h-2.886v1.238h1.237v9.074h-1.237v1.236h4.536v-1.236h-1.649v-4.539c0.413-0.412,1.649-1.236,2.475-1.236c0.825,0,0.825,0.412,0.825,1.648v5.363h3.299v-1.236H77.99V113.633L77.99,113.633z"/>
  <path d="M30.154,113.633v-2.063h-2.886v1.65h1.649v4.949h-1.649v1.65h4.949v-1.65h-1.649v-2.473c0-1.24,0.825-2.477,2.062-2.477c0.412,0,1.237,0,1.237,0v-1.65c0,0-0.412,0-0.825,0C31.392,111.57,30.567,112.809,30.154,113.633L30.154,113.633z"/>
  <path d="M26.03,115.697c0-2.064-1.649-4.127-4.124-4.127s-4.124,2.063-4.124,4.127c0,2.473,1.649,4.123,4.124,4.123c3.299,0,4.124-2.064,4.124-2.064l-1.237-0.412c0,0-0.824,1.24-2.887,1.24c-2.474,0-2.474-2.477-2.474-2.477h6.598C26.03,116.107,26.03,116.107,26.03,115.697L26.03,115.697z M19.433,114.869c0-0.412,0.825-2.061,2.474-2.061c2.063,0,2.474,1.648,2.474,2.061H19.433L19.433,114.869z"/>
<polygon points="90.773,111.57 87.886,111.57 87.886,113.221 89.124,113.221 89.124,118.17 87.886,118.17 87.886,119.82 92.01,119.82 92.01,118.17 90.773,118.17 90.773,111.57 "/>
  <path d="M9.536,108.271H5v1.65h1.649v8.248H5v1.65h4.948c2.474,0,6.185-0.826,6.185-5.775C16.133,109.098,12.835,108.271,9.536,108.271L9.536,108.271z M10.36,118.17H8.299v-8.248h2.062c1.237,0,4.124,0,4.124,4.123C14.484,118.17,11.185,118.17,10.36,118.17L10.36,118.17z"/>
  <polygon points="46.237,109.922 47.887,109.922 47.887,117.344 42.938,108.271 38.814,108.271 38.814,109.922 40.463,109.922 40.463,118.17 38.814,118.17 38.814,119.82 43.763,119.82 43.763,118.17 42.113,118.17 42.113,109.922 47.474,119.82 49.536,119.82 49.536,109.922 51.186,109.922 51.186,108.271 46.237,108.271 46.237,109.922 "/>
  <path d="M135.722,113.633c0-0.824-0.824-2.063-2.062-2.063s-2.475,0.826-2.887,1.238v-1.238h-2.888v1.65h1.238v5.363h-1.238v1.236h4.124v-1.236h-1.236v-4.539c0.412-0.412,1.236-1.236,2.062-1.236s1.237,0.412,1.237,1.648v5.363h2.887v-1.236h-1.237V113.633L135.722,113.633z"/>
  <path d="M97.371,118.584c-2.062,0-2.474-1.652-2.474-2.887c0-1.24,0.824-2.889,2.474-2.889c2.062,0,2.062,2.061,2.062,2.061h1.65v-3.299h-1.65v0.826c-0.412-0.414-1.237-0.826-2.062-0.826c-2.474,0-4.124,2.063-4.124,4.127c0,2.473,2.062,4.123,4.124,4.123c1.649,0,3.299-0.826,3.711-2.477l-1.237-0.412C99.846,116.932,99.021,118.584,97.371,118.584L97.371,118.584z"/>
  <path d="M162.938,115.697c0-2.064-2.061-4.127-4.535-4.127c-2.062,0-4.123,2.063-4.123,4.127c0,2.473,2.062,4.123,4.123,4.123c3.298,0,4.535-2.064,4.535-2.064l-1.648-0.412c0,0-0.825,1.24-2.475,1.24c-2.474,0-2.474-2.477-2.474-2.477h6.597C162.938,116.107,162.938,116.107,162.938,115.697L162.938,115.697z M156.341,114.869c0-0.412,0.412-2.061,2.474-2.061c1.649,0,2.475,1.648,2.475,2.061H156.341L156.341,114.869z"/>
  <path d="M172.01,113.633c0-0.824-0.412-2.063-2.062-2.063c-1.237,0-2.062,0.826-2.474,1.238v-1.238h-3.299v1.65h1.649v5.363h-1.649v1.236h4.535v-1.236h-1.236v-4.539c0.412-0.412,1.236-1.236,2.062-1.236c0.824,0,0.824,0.412,0.824,1.648v5.363h3.299v-1.236h-1.649V113.633L172.01,113.633z"/>
  <path d="M200.464,111.57c-1.649,0-2.062,1.238-2.475,2.063v-2.063h-2.886v1.65h1.649v4.949h-1.649v1.65h4.948v-1.65h-1.649v-2.473c0-1.24,0.824-2.477,2.062-2.477c0.412,0,1.237,0,1.237,0v-1.65C201.701,111.57,201.288,111.57,200.464,111.57L200.464,111.57z"/>
  <path d="M193.866,115.697c0-2.064-2.062-4.127-4.536-4.127c-2.063,0-4.125,2.063-4.125,4.127c0,2.473,2.063,4.123,4.125,4.123c3.299,0,4.536-2.064,4.536-2.064l-1.649-0.412c0,0-0.825,1.24-2.475,1.24c-2.475,0-2.475-2.477-2.475-2.477h6.599C193.866,116.107,193.866,116.107,193.866,115.697L193.866,115.697z M187.268,114.869c0-0.412,0.412-2.061,2.475-2.061c1.649,0,2.475,1.648,2.475,2.061H187.268L187.268,114.869z"/>
  <path d="M183.144,108.271h-3.299v1.238h1.649v3.299c-0.824-0.826-2.062-1.238-2.887-1.238c-2.474,0-4.123,1.65-4.123,4.127c0,2.473,1.649,4.123,4.123,4.123c0.825,0,2.063-0.414,2.887-1.236v1.236h2.887v-1.236h-1.237V108.271L183.144,108.271z M178.607,118.584c-1.236,0-2.474-1.24-2.474-2.887c0-1.652,1.237-2.889,2.474-2.889c1.649,0,2.887,1.236,2.887,2.889C181.494,117.344,180.257,118.584,178.607,118.584L178.607,118.584z"/>
  <path d="M110.154,113.633c0-0.824-0.412-2.063-2.062-2.063c-1.237,0-2.475,0.826-2.887,1.238v-4.537h-2.886v1.238h1.237v9.074h-1.237v1.236h4.124v-1.236h-1.237v-4.539c0.412-0.412,1.649-1.236,2.475-1.236c0.412,0,0.824,0.412,0.824,1.648v5.363h2.887v-1.236h-1.237V113.633L110.154,113.633z"/>
  <path d="M115.103,109.098l-1.649,1.236v1.236h-1.237v1.65h1.237v4.949c0,1.236,1.237,1.65,1.649,1.65c0.825,0,1.237-0.414,1.237-0.414v-1.236c0,0-0.412,0.414-0.825,0.414c0,0-0.412-0.414-0.412-0.828v-4.535h1.237v-1.65h-1.237V109.098L115.103,109.098z"/>
  <path d="M148.506,112.809c-1.65-0.826-2.063-1.238-2.063-1.65c0-0.824,0.824-1.648,2.063-1.648c1.236,0,2.061,0.824,2.473,1.236v0.824h1.237v-3.299h-1.237v0.826c-0.412-0.414-1.236-0.826-2.473-0.826c-2.063,0-3.3,1.238-3.3,2.887c0,2.475,2.062,2.887,4.123,3.711c1.237,0,1.649,0.412,1.649,1.65c0,1.236-0.824,2.064-2.062,2.064s-2.062-1.24-2.474-2.064v-0.822h-1.237v4.123h1.237v-0.826c0.412,0,1.236,0.826,2.886,0.826s3.712-1.236,3.712-3.301C153.041,113.633,150.154,113.221,148.506,112.809L148.506,112.809z"/>
  <polygon points="138.196,116.52 143.145,116.52 143.145,114.869 138.196,114.869 138.196,116.52 "/>
  <path d="M126.236,115.697c0-2.064-1.649-4.127-4.123-4.127c-2.475,0-4.124,2.063-4.124,4.127c0,2.473,1.649,4.123,4.124,4.123c3.299,0,4.123-2.064,4.123-2.064l-1.237-0.412c0,0-0.824,1.24-2.886,1.24c-2.475,0-2.475-2.477-2.475-2.477h6.598C126.236,116.107,126.236,116.107,126.236,115.697L126.236,115.697z M119.639,114.869c0-0.412,0.825-2.061,2.475-2.061c2.062,0,2.474,1.648,2.474,2.061H119.639L119.639,114.869z"/>
  <path fill="#d51f24" d="M194.278,44.768l-28.453,48.66h-16.496l-7.01-48.66h-21.031v28.867c0,5.359,2.062,5.771,4.948,5.771c2.888,0,5.773-1.236,5.773-1.236v13.607c0,0-7.011,3.299-14.021,3.299c-6.598,0-15.669-2.475-15.669-15.256V44.768h-7.423V31.159h7.423V19.612L121.288,5.18v25.979h47.836l-3.299,13.608h-7.011l3.299,29.279l16.082-29.279h-7.422l3.299-13.608H205l-3.299,13.608H194.278L194.278,44.768z M5,31.159h28.041v6.186c2.887-2.475,9.072-7.011,16.907-7.011c12.784,0,17.732,9.072,17.732,18.969v29.691h8.66v14.434H48.71V54.664c0-3.299-0.824-7.422-4.948-7.422c-4.536,0-8.66,2.887-10.722,4.123v27.629h7.422v14.434H5V78.994h9.072V45.592H5V31.159L5,31.159z M80.051,54.252h14.021l-3.711,14.434H76.34L80.051,54.252L80.051,54.252z"/>
</svg>