<?xml version="1.0" encoding="utf-8"?>
<!-- Generator: Adobe Illustrator 21.0.0, SVG Export Plug-In . SVG Version: 6.00 Build 0)  -->
<svg version="1.1" id="Logo" xmlns="http://www.w3.org/2000/svg" xmlns:xlink="http://www.w3.org/1999/xlink" x="0px" y="0px"
	 viewBox="0 0 1162.9 309.5" style="enable-background:new 0 0 1162.9 309.5;" xml:space="preserve">
<style type="text/css">
	.st0{fill:#FFFFFF;}
	.st1{opacity:0.5;fill:#FFFFFF;enable-background:new    ;}
	.st2{opacity:0.8;fill:#FFFFFF;enable-background:new    ;}
</style>
<g id="Boid">
	<g>
		<path id="Netlight__x3C_Stansad_bana_x3E__8_" class="st0" d="M1100.8,223.3c-3.3-2.7-5.7-5.4-7.4-8.1c-1.6-2.7-2.9-6-3.7-10.2
			c-0.8-4.1-1.3-7.4-1.4-9.7s-0.2-5.5-0.2-9.6V96.1h-14.8V83.4h14.8c0.1-2.2,0.2-17,0.2-44.5l14.9,6.1l-0.1,38.4h45V96h-45v77
			c0,2.3,0,5.4-0.1,9.4c-0.1,3.9-0.1,6.8-0.1,8.5s0.1,3.9,0.3,6.7c0.2,2.8,0.6,4.9,1.1,6.2c0.5,1.4,1.3,2.9,2.3,4.7s2.2,3.2,3.8,4.3
			c1.6,1.1,3.5,2.1,5.6,3.1c8.3,3.7,19.2,2.2,32.6-4.3l6,11c-5.9,3.8-12.9,6.4-20.9,7.7c-8.1,1.4-15,1.2-20.7-0.6
			C1108.1,228.2,1104.1,226.1,1100.8,223.3z M921.4,226h15V116.1c5.5-7.5,12.6-13.3,21.2-17.4c8.7-4.1,18.3-6.2,28.8-6.2
			c17.2,0,30.5,4.5,39.6,13.4c9.2,8.9,13.8,21.1,13.8,36.6V226h15v-82.8c0-11.2-1.9-21-5.6-29.6c-3.8-8.6-8.8-15.3-15.2-20.3
			c-6.4-5-13.4-8.7-21.1-11.2c-7.7-2.5-16-3.8-24.7-3.8c-20.7,0-37.9,6.5-51.7,19.6V17.6l-15-6.6v215H921.4z M725,31.5V11h-15.6
			v20.5H725z M709.8,226h15.6V83.3h-15.6V226z M674.1,11v199.1V226h-14.8v-15.9V20.4v-3L674.1,11z M580.9,223.3
			c-3.3-2.7-5.7-5.4-7.4-8.1c-1.6-2.7-2.9-6-3.7-10.2c-0.8-4.1-1.3-7.4-1.4-9.7c-0.1-2.3-0.2-5.5-0.2-9.6V96.1h-14.8l1.8-10
			l13.7-3.4c0.1-1,0-10.4,0-20.5c0-11.5,0-17.1,0-17.1l14.2-6v44.5h45v12.6h-45V173c0,2.3,0,5.4-0.1,9.4c-0.1,3.9-0.1,6.8-0.1,8.5
			s0.1,3.9,0.3,6.7s0.6,4.9,1.1,6.2c0.5,1.4,1.3,2.9,2.3,4.7s2.2,3.2,3.8,4.3s3.5,2.1,5.6,3.1c8.4,3.7,19.2,2.2,32.6-4.3l6,11
			c-5.9,3.8-12.9,6.4-20.9,7.7c-8.1,1.4-15,1.2-20.7-0.6C588.2,228.2,584.2,226.1,580.9,223.3z M401.3,147.3
			c1.6-17,7.9-30.2,18.8-39.5s24.5-14,40.7-14c16.3,0,29.7,4.7,40.3,14c10.6,9.3,16.7,22.5,18.4,39.5H401.3z M407.4,100
			c-14.4,14.1-21.6,32.5-21.6,55.4c0,15,3.7,28.3,11,39.9c7.3,11.6,16.9,20.4,28.7,26.3c11.8,5.9,24.8,8.9,38.9,8.9
			c14.4,0,27.5-3.3,39.4-9.8c11.9-6.5,21.3-15.6,28.1-27.1l-16.8-0.4c-11.5,15-28.4,22.4-50.7,22.4c-17.9,0-32.6-5.2-44.1-15.5
			c-10.8-9.9-17.1-23.3-18.9-40.2h133.2c0-0.4,0-1.1,0.1-2.1s0.1-1.8,0.1-2.3c0-23-7.1-41.5-21.2-55.5c-14.2-14-31.8-21-52.9-21
			C439.6,78.9,421.8,86,407.4,100z M229.9,89.7V226h15V116.1c5.5-7.5,12.6-13.3,21.2-17.4c8.7-4.1,18.3-6.2,28.8-6.2
			c17.2,0,30.5,4.5,39.6,13.4c9.2,8.9,13.8,21.1,13.8,36.6V226h15v-82.8c0-11.2-1.9-21-5.6-29.6c-3.8-8.6-8.8-15.3-15.2-20.3
			c-6.4-5-13.4-8.7-21.1-11.2s-16-3.8-24.7-3.8c-20.7,0-37.9,6.5-51.7,19.6l-3-14.5L229.9,89.7z"/>
		<polygon class="st0" points="154.3,116.1 50,90.4 53.9,155.9 		"/>
		<polygon class="st1" points="11.6,172.7 20.1,226.8 91.8,177.6 48.4,158.1 		"/>
		<polygon class="st1" points="218.5,90.7 168.4,110.5 171.4,123 		"/>
		<polygon class="st2" points="171.4,123 168.4,110.5 168.4,110.5 154.3,116.1 53.9,155.9 48.4,158.1 91.8,177.6 195.9,224.3 		"/>
	</g>
</g>
<path class="st0" d="M882.6,83.4l-2.9,14.5c-13.8-13.1-31-19.6-51.7-19.6c-21.2,0-39,7.1-53.3,21.2s-21.5,32.5-21.5,55.4
	s7.1,41.3,21.5,55.3s32.2,21,53.4,21c20.6,0,37.9-6.6,51.7-19.6V223c0,19.7-5,34.9-14.9,45.5c-10,10.6-23.6,15.9-41,15.9
	c-10,0-19.4-1.9-28.2-5.8c-8.9-3.9-16.2-9.3-22.1-16.4l-8,12.4c7.4,7.6,16.2,13.5,26.3,17.6c7.5,3.1,15.3,5,23.5,5.8h17.5
	c17.2-1.7,31.3-8.1,42.4-19.4c12.9-13.2,19.4-32,19.4-56.5V83.4H882.6z M879.7,193.3c-11.1,15.2-27.8,22.8-50.1,22.8
	c-18.2,0-33-5.4-44.4-16.1s-17.1-25.8-17.1-45.3c0-19.4,5.7-34.6,17.1-45.4c11.4-10.7,26.2-16.1,44.4-16.1c22.3,0,39,7.6,50.1,22.8
	V193.3z"/>
</svg>
