<?xml version="1.0" encoding="utf-8"?>
<!-- Generator: Adobe Illustrator 27.4.1, SVG Export Plug-In . SVG Version: 6.00 Build 0)  -->
<svg version="1.1" id="Logo" xmlns="http://www.w3.org/2000/svg" xmlns:xlink="http://www.w3.org/1999/xlink" x="0px" y="0px"
	 viewBox="0 0 1162.9 309.5" style="enable-background:new 0 0 1162.9 309.5;" xml:space="preserve">
<style type="text/css">
	.st0{fill:#A59DFF;}
</style>
<g id="Boid">
</g>
<g>
	<g id="Boid_00000083064458266509902560000003845380125113552785_">
		<g>
			<path id="Netlight__x3C_Stansad_bana_x3E__00000016072761084007512350000001377189148831353021_" class="st0" d="M1099.6,222.9
				c-3.3-2.7-5.6-5.3-7.3-8c-1.6-2.7-2.9-5.9-3.7-10.1c-0.8-4.1-1.3-7.3-1.4-9.6c-0.1-2.3-0.2-5.4-0.2-9.5V96.9h-14.7V84.3h14.7
				c0.1-2.2,0.2-16.8,0.2-44.1l14.8,6l-0.1,38h44.6v12.5h-44.6v76.3c0,2.3,0,5.3-0.1,9.3c-0.1,3.9-0.1,6.7-0.1,8.4
				c0,1.7,0.1,3.9,0.3,6.6c0.2,2.8,0.6,4.9,1.1,6.1c0.5,1.4,1.3,2.9,2.3,4.7c1,1.8,2.2,3.2,3.8,4.3c1.6,1.1,3.5,2.1,5.5,3.1
				c8.2,3.7,19,2.2,32.3-4.3l5.9,10.9c-5.8,3.8-12.8,6.3-20.7,7.6c-8,1.4-14.9,1.2-20.5-0.6C1106.8,227.7,1102.8,225.6,1099.6,222.9
				z M921.9,225.5h14.9V116.7c5.4-7.4,12.5-13.2,21-17.2c8.6-4.1,18.1-6.1,28.5-6.1c17,0,30.2,4.5,39.2,13.3
				c9.1,8.8,13.7,20.9,13.7,36.2v82.7h14.9v-82c0-11.1-1.9-20.8-5.5-29.3c-3.8-8.5-8.7-15.2-15.1-20.1c-6.3-5-13.3-8.6-20.9-11.1
				c-7.6-2.5-15.8-3.8-24.5-3.8c-20.5,0-37.5,6.4-51.2,19.4V19.2L922,12.6L921.9,225.5L921.9,225.5z M727.4,32.9V12.6h-15.4v20.3
				H727.4z M712.3,225.5h15.4V84.2h-15.4V225.5z M677,12.6v197.2v15.7h-14.7v-15.7V21.9v-3L677,12.6z M584.7,222.9
				c-3.3-2.7-5.6-5.3-7.3-8c-1.6-2.7-2.9-5.9-3.7-10.1c-0.8-4.1-1.3-7.3-1.4-9.6c-0.1-2.3-0.2-5.4-0.2-9.5V96.9h-14.7l1.8-9.9
				l13.6-3.4c0.1-1,0-10.3,0-20.3c0-11.4,0-16.9,0-16.9l14.1-5.9v44.1h44.6V97h-44.6v76.1c0,2.3,0,5.3-0.1,9.3
				c-0.1,3.9-0.1,6.7-0.1,8.4c0,1.7,0.1,3.9,0.3,6.6c0.2,2.8,0.6,4.9,1.1,6.1c0.5,1.4,1.3,2.9,2.3,4.7c1,1.8,2.2,3.2,3.8,4.3
				c1.6,1.1,3.5,2.1,5.5,3.1c8.3,3.7,19,2.2,32.3-4.3l5.9,10.9c-5.8,3.8-12.8,6.3-20.7,7.6c-8,1.4-14.9,1.2-20.5-0.6
				C591.9,227.7,587.9,225.6,584.7,222.9z M406.8,147.6c1.6-16.8,7.8-29.9,18.6-39.1s24.3-13.9,40.3-13.9c16.1,0,29.4,4.7,39.9,13.9
				c10.5,9.2,16.5,22.3,18.2,39.1H406.8z M412.8,100.8c-14.3,14-21.4,32.2-21.4,54.9c0,14.9,3.7,28,10.9,39.5s16.7,20.2,28.4,26
				c11.7,5.8,24.6,8.8,38.5,8.8c14.3,0,27.2-3.3,39-9.7c11.8-6.4,21.1-15.4,27.8-26.8l-16.6-0.4c-11.4,14.9-28.1,22.2-50.2,22.2
				c-17.7,0-32.3-5.1-43.7-15.4c-10.7-9.8-16.9-23.1-18.7-39.8h131.9c0-0.4,0-1.1,0.1-2.1c0.1-1,0.1-1.8,0.1-2.3
				c0-22.8-7-41.1-21-55C504,86.9,486.5,80,465.6,80C444.7,79.9,427.1,86.9,412.8,100.8z M237,90.6v135h14.9V116.7
				c5.4-7.4,12.5-13.2,21-17.2c8.6-4.1,18.1-6.1,28.5-6.1c17,0,30.2,4.5,39.2,13.3c9.1,8.8,13.7,20.9,13.7,36.2v82.7h14.9v-82
				c0-11.1-1.9-20.8-5.5-29.3c-3.8-8.5-8.7-15.2-15.1-20.1c-6.3-5-13.3-8.6-20.9-11.1c-7.6-2.5-15.8-3.8-24.5-3.8
				c-20.5,0-37.5,6.4-51.2,19.4l-3-14.4L237,90.6z"/>
		</g>
	</g>
	<path class="st0" d="M883.5,84.3l-2.9,14.4c-13.7-13-30.7-19.4-51.2-19.4c-21,0-38.6,7-52.8,21s-21.3,32.2-21.3,54.9
		s7,40.9,21.3,54.8s31.9,20.8,52.9,20.8c20.4,0,37.5-6.5,51.2-19.4v11.3c0,19.5-5,34.6-14.8,45.1c-9.9,10.5-23.4,15.7-40.6,15.7
		c-9.9,0-19.2-1.9-27.9-5.7c-8.8-3.9-16-9.2-21.9-16.2l-7.9,12.3c7.3,7.5,16,13.4,26,17.4c7.4,3.1,15.2,5,23.3,5.7h17.3
		c17-1.7,31-8,42-19.2c12.8-13.1,19.2-31.7,19.2-56V84.3H883.5z M880.6,193.2c-11,15.1-27.5,22.6-49.6,22.6c-18,0-32.7-5.3-44-15.9
		c-11.3-10.6-16.9-25.6-16.9-44.9c0-19.2,5.6-34.3,16.9-45C798.3,99.4,813,94,831,94c22.1,0,38.6,7.5,49.6,22.6V193.2z"/>
	<g>
		<polygon class="st0" points="146.6,114 52.5,150.5 48.7,90 		"/>
		<polygon class="st0" points="18.6,225.4 10.1,171 40.3,159.9 84,180.6 		"/>
		<polygon class="st0" points="45.2,157.6 164.5,110.9 191.9,223.8 		"/>
		<polygon class="st0" points="171.3,120.9 168.8,109 214.5,90.8 		"/>
	</g>
</g>
</svg>
