<?xml version="1.0" encoding="UTF-8" standalone="no"?>
<!-- Created with Inkscape (http://www.inkscape.org/) -->

<svg
   xmlns:dc="http://purl.org/dc/elements/1.1/"
   xmlns:cc="http://creativecommons.org/ns#"
   xmlns:rdf="http://www.w3.org/1999/02/22-rdf-syntax-ns#"
   xmlns:svg="http://www.w3.org/2000/svg"
   xmlns="http://www.w3.org/2000/svg"
   xmlns:sodipodi="http://sodipodi.sourceforge.net/DTD/sodipodi-0.dtd"
   xmlns:inkscape="http://www.inkscape.org/namespaces/inkscape"
   version="1.1"
   id="svg10"
   xml:space="preserve"
   width="1550.5732"
   height="412.63199"
   viewBox="0 0 1550.5732 412.63199"
   sodipodi:docname="NL logo RGB.svg"
   inkscape:version="0.92.3 (2405546, 2018-03-11)"><metadata
     id="metadata16"><rdf:RDF><cc:Work
         rdf:about=""><dc:format>image/svg+xml</dc:format><dc:type
           rdf:resource="http://purl.org/dc/dcmitype/StillImage" /><dc:title></dc:title></cc:Work></rdf:RDF></metadata><defs
     id="defs14"><clipPath
       clipPathUnits="userSpaceOnUse"
       id="clipPath26"><path
         d="M 0,309.474 H 1162.93 V 0 H 0 Z"
         id="path24"
         inkscape:connector-curvature="0" /></clipPath></defs><sodipodi:namedview
     pagecolor="#ffffff"
     bordercolor="#666666"
     borderopacity="1"
     objecttolerance="10"
     gridtolerance="10"
     guidetolerance="10"
     inkscape:pageopacity="0"
     inkscape:pageshadow="2"
     inkscape:window-width="2560"
     inkscape:window-height="1361"
     id="namedview12"
     showgrid="false"
     inkscape:zoom="1.5478147"
     inkscape:cx="775.28662"
     inkscape:cy="206.31599"
     inkscape:window-x="-9"
     inkscape:window-y="-9"
     inkscape:window-maximized="1"
     inkscape:current-layer="g18" /><g
     id="g18"
     inkscape:groupmode="layer"
     inkscape:label="NL logo RGB"
     transform="matrix(1.3333333,0,0,-1.3333333,0,412.632)"><g
       id="g20"><g
         id="g22"
         clip-path="url(#clipPath26)"><g
           id="g28"
           transform="translate(791.8525,17.2832)"><path
             d="m 0,0 c -10.129,4.15 -18.884,10.035 -26.274,17.646 l 8.002,12.443 c 5.888,-7.068 13.239,-12.548 22.066,-16.418 8.83,-3.876 18.234,-5.815 28.228,-5.815 17.377,0 31.029,5.303 40.954,15.911 9.916,10.604 14.876,25.768 14.876,45.489 V 80.673 C 74.036,67.626 56.788,61.097 36.123,61.097 c -21.211,0 -38.999,7.002 -53.37,21.008 -14.37,14.008 -21.55,32.432 -21.55,55.275 0,22.851 7.18,41.308 21.55,55.384 14.371,14.077 32.159,21.11 53.37,21.11 20.665,0 37.913,-6.527 51.729,-19.582 l 2.875,14.486 h 12.111 V 70.07 c 0,-24.48 -6.467,-43.308 -19.4,-56.5 C 72.371,2.279 58.224,-4.18 40.989,-5.809 H 23.48 C 15.351,-5.015 7.523,-3.08 0,0 M -561.961,202.49 V 66.193 h 14.985 v 109.948 c 5.474,7.48 12.556,13.289 21.248,17.44 8.685,4.142 18.301,6.217 28.836,6.217 17.246,0 30.452,-4.452 39.617,-13.355 9.171,-8.912 13.753,-21.116 13.753,-36.616 V 66.193 h 14.988 v 82.817 c 0,11.151 -1.884,21.008 -5.644,29.577 -3.768,8.568 -8.829,15.335 -15.193,20.293 -6.363,4.967 -13.41,8.706 -21.144,11.221 -7.733,2.513 -15.973,3.773 -24.734,3.773 -20.664,0 -37.904,-6.527 -51.727,-19.582 l -2.877,14.486 z m 177.558,-10.343 c -14.371,-14.067 -21.557,-32.533 -21.557,-55.377 0,-14.958 3.665,-28.253 10.987,-39.877 7.323,-11.623 16.898,-20.397 28.734,-26.316 11.843,-5.91 24.808,-8.869 38.905,-8.869 14.363,0 27.5,3.259 39.411,9.787 11.904,6.527 21.275,15.577 28.117,27.13 l -16.829,0.411 c -11.493,-14.958 -28.398,-22.439 -50.699,-22.439 -17.933,0 -32.638,5.167 -44.138,15.501 -10.809,9.924 -17.103,23.322 -18.884,40.186 h 133.221 c 0,0.405 0.034,1.124 0.103,2.144 0.069,1.019 0.102,1.801 0.102,2.342 0,22.98 -7.082,41.473 -21.246,55.481 -14.165,14.006 -31.781,21.015 -52.857,21.015 -21.212,0 -39.001,-7.043 -53.37,-21.119 m -6.159,-47.22 c 1.645,17.002 7.905,30.16 18.782,39.474 10.884,9.315 24.466,13.972 40.747,13.972 16.287,0 29.734,-4.657 40.336,-13.972 10.61,-9.314 16.734,-22.472 18.37,-39.474 z m 179.613,-76.082 c -3.281,2.719 -5.746,5.404 -7.39,8.062 -1.644,2.65 -2.87,6.048 -3.693,10.199 -0.822,4.144 -1.301,7.377 -1.437,9.683 -0.137,2.315 -0.206,5.507 -0.206,9.59 v 89.749 h -14.781 l 1.843,9.986 13.698,3.426 c 0.064,1.018 0.014,10.384 0,20.547 -0.015,11.517 0,17.123 0,17.123 l 14.227,6.035 v -44.467 h 44.953 v -12.65 h -44.953 v -76.9 c 0,-2.315 -0.036,-5.437 -0.103,-9.382 -0.069,-3.946 -0.103,-6.767 -0.103,-8.468 0,-1.697 0.103,-3.945 0.308,-6.732 0.206,-2.789 0.583,-4.857 1.13,-6.22 0.541,-1.354 1.295,-2.924 2.254,-4.691 0.959,-1.769 2.226,-3.193 3.802,-4.279 1.567,-1.091 3.451,-2.112 5.642,-3.064 8.351,-3.67 19.228,-2.245 32.639,4.281 l 5.952,-11.014 c -5.884,-3.808 -12.863,-6.389 -20.939,-7.746 -8.076,-1.364 -14.986,-1.158 -20.732,0.608 -4.788,1.495 -8.822,3.604 -12.111,6.324 m 93.194,212.346 V 82.105 66.193 h -14.781 v 15.912 189.689 2.954 z M -82.098,66.18 h 15.617 v 142.743 h -15.617 z m 15.212,215.011 h -15.615 v -20.549 h 15.615 z M 37.77,198.984 c 22.306,0 38.999,-7.617 50.082,-22.843 V 98.831 C 76.769,83.598 60.076,75.989 37.77,75.989 c -18.201,0 -33.015,5.37 -44.44,16.109 -11.433,10.748 -17.146,25.837 -17.146,45.282 0,19.446 5.713,34.576 17.146,45.391 11.425,10.81 26.239,16.213 44.44,16.213 M 129.523,66.193 h 14.986 v 109.948 c 5.473,7.48 12.555,13.289 21.246,17.44 8.687,4.142 18.306,6.217 28.838,6.217 17.248,0 30.452,-4.452 39.617,-13.355 9.17,-8.912 13.756,-21.116 13.756,-36.616 V 66.193 h 14.985 v 82.817 c 0,11.151 -1.885,21.008 -5.643,29.577 -3.768,8.568 -8.832,15.335 -15.195,20.293 -6.362,4.967 -13.41,8.706 -21.142,11.221 -7.728,2.513 -15.976,3.773 -24.735,3.773 -20.663,0 -37.905,-6.527 -51.727,-19.582 v 80.265 l -14.986,6.634 z m 179.408,2.652 c -3.283,2.719 -5.747,5.404 -7.391,8.062 -1.644,2.65 -2.869,6.048 -3.691,10.199 -0.824,4.144 -1.303,7.377 -1.439,9.683 -0.137,2.315 -0.208,5.507 -0.208,9.59 v 89.749 h -14.779 v 12.65 h 14.779 c 0.141,2.172 0.208,16.994 0.208,44.467 l 14.884,-6.059 -0.103,-38.408 h 44.951 v -12.65 h -44.951 v -76.9 c 0,-2.315 -0.036,-5.437 -0.104,-9.382 -0.066,-3.946 -0.104,-6.767 -0.104,-8.468 0,-1.697 0.104,-3.945 0.311,-6.732 0.205,-2.789 0.581,-4.857 1.129,-6.22 0.541,-1.354 1.296,-2.924 2.256,-4.691 0.958,-1.769 2.224,-3.193 3.799,-4.279 1.567,-1.091 3.453,-2.112 5.646,-3.064 8.347,-3.67 19.226,-2.245 32.637,4.281 l 5.951,-11.014 c -5.883,-3.808 -12.864,-6.389 -20.94,-7.746 -8.075,-1.364 -14.984,-1.158 -20.733,0.608 -4.788,1.495 -8.821,3.604 -12.108,6.324"
             style="fill:#7473bd;fill-opacity:1;fill-rule:evenodd;stroke:none"
             id="path30"
             inkscape:connector-curvature="0" /></g><g
           id="g32"
           transform="translate(154.3218,193.3647)"><path
             d="m 0,0 -104.305,25.672 3.834,-65.506 z"
             style="fill:#a6a2dc;fill-opacity:1;fill-rule:nonzero;stroke:none"
             id="path34"
             inkscape:connector-curvature="0" /></g><g
           id="g36"
           transform="translate(11.5537,136.7602)"><path
             d="M 0,0 8.562,-54.058 80.251,-4.87 36.85,14.61 Z"
             style="fill:#565c98;fill-opacity:1;fill-rule:nonzero;stroke:none"
             id="path38"
             inkscape:connector-curvature="0" /></g><g
           id="g40"
           transform="translate(218.4687,218.7973)"><path
             d="m 0,0 -50.087,-19.858 3.014,-12.44 z"
             style="fill:#565c98;fill-opacity:1;fill-rule:nonzero;stroke:none"
             id="path42"
             inkscape:connector-curvature="0" /></g><g
           id="g44"
           transform="translate(171.3955,186.499)"><path
             d="m 0,0 -3.014,12.44 -14.06,-5.574 -100.47,-39.835 -5.448,-2.159 43.401,-19.481 104.142,-46.743 z"
             style="fill:#7473bd;fill-opacity:1;fill-rule:nonzero;stroke:none"
             id="path46"
             inkscape:connector-curvature="0" /></g></g></g></g></svg>