<?xml version="1.0" encoding="UTF-8"?><svg id="Layer_1" xmlns="http://www.w3.org/2000/svg" viewBox="0 0 298.73 271.94"><defs><style>.cls-1{fill:#a29aff;stroke-width:0px;}</style></defs><g id="Boid"><path id="Netlight_Stansad_bana_" class="cls-1" d="M281.35,247.81c-1.07-.87-1.84-1.74-2.39-2.62-.52-.87-.94-1.94-1.2-3.3-.26-1.32-.42-2.39-.45-3.13-.03-.74-.06-1.78-.06-3.1v-28.95h-4.78v-4.1h4.78c.03-.71.06-5.49.06-14.38l4.81,1.97-.03,12.41h14.54v4.07h-14.54v24.88c0,.74,0,1.74-.03,3.04-.03,1.26-.03,2.2-.03,2.75s.03,1.26.1,2.16c.06.9.19,1.58.36,2,.16.45.42.94.74,1.52.32.58.71,1.03,1.23,1.39.52.36,1.13.68,1.81,1,2.68,1.2,6.2.71,10.53-1.39l1.94,3.55c-1.91,1.23-4.17,2.07-6.75,2.49-2.62.45-4.85.39-6.69-.19-1.58-.48-2.88-1.16-3.94-2.07ZM223.39,248.68h4.85v-35.5c1.78-2.42,4.07-4.3,6.85-5.62,2.81-1.32,5.91-2,9.3-2,5.56,0,9.85,1.45,12.79,4.33,2.97,2.88,4.46,6.82,4.46,11.82v26.98h4.85v-26.75c0-3.62-.61-6.78-1.81-9.56-1.23-2.78-2.84-4.94-4.91-6.56-2.07-1.62-4.33-2.81-6.82-3.62-2.49-.81-5.17-1.23-7.98-1.23-6.69,0-12.24,2.1-16.7,6.33v-25.94l-4.85-2.13v69.46h-.03ZM159.95,185.85v-6.62h-5.04v6.62h5.04ZM155.03,248.68h5.04v-46.1h-5.04v46.1ZM143.5,179.22v69.46h-4.78v-67.39l4.78-2.07ZM113.39,247.81c-1.07-.87-1.84-1.74-2.39-2.62-.52-.87-.94-1.94-1.2-3.3-.26-1.32-.42-2.39-.45-3.13-.03-.74-.06-1.78-.06-3.1v-28.95h-4.78l.58-3.23,4.43-1.1c.03-.32,0-3.36,0-6.62v-5.52l4.59-1.94v14.38h14.54v4.07h-14.54v24.81c0,.74,0,1.74-.03,3.04-.03,1.26-.03,2.2-.03,2.75s.03,1.26.1,2.16c.06.9.19,1.58.36,2,.16.45.42.94.74,1.52s.71,1.03,1.23,1.39c.52.36,1.13.68,1.81,1,2.71,1.2,6.2.71,10.53-1.39l1.94,3.55c-1.91,1.23-4.17,2.07-6.75,2.49-2.62.45-4.85.39-6.69-.19-1.55-.48-2.84-1.16-3.91-2.07ZM55.37,223.26c.52-5.49,2.55-9.76,6.07-12.76s7.91-4.52,13.15-4.52,9.59,1.52,13.02,4.52c3.42,3,5.4,7.27,5.94,12.76h-38.19ZM57.34,207.98c-4.65,4.56-6.98,10.5-6.98,17.9,0,4.85,1.2,9.14,3.55,12.89,2.36,3.75,5.46,6.59,9.27,8.5,3.81,1.91,8.01,2.88,12.57,2.88s8.88-1.07,12.73-3.17c3.84-2.1,6.88-5.04,9.08-8.75l-5.43-.13c-3.72,4.85-9.17,7.24-16.38,7.24-5.78,0-10.53-1.68-14.25-5.01-3.49-3.2-5.52-7.53-6.11-12.99h43.03c0-.13,0-.36.03-.68s.03-.58.03-.74c0-7.43-2.29-13.41-6.85-17.93-4.59-4.52-10.27-6.78-17.09-6.78-6.82-.03-12.57,2.26-17.22,6.78ZM0,204.65v44.03h4.85v-35.5c1.78-2.42,4.07-4.3,6.85-5.62,2.81-1.32,5.91-2,9.3-2,5.56,0,9.85,1.45,12.79,4.33,2.97,2.88,4.46,6.82,4.46,11.82v26.98h4.85v-26.75c0-3.62-.61-6.78-1.81-9.56-1.23-2.78-2.84-4.94-4.91-6.56-2.07-1.62-4.33-2.81-6.82-3.62-2.49-.81-5.17-1.23-7.98-1.23-6.69,0-12.24,2.1-16.7,6.33l-.97-4.68-3.91,2.04Z"/></g><path class="cls-1" d="M210.86,202.61l-.94,4.68c-4.46-4.23-10.01-6.33-16.7-6.33s-12.6,2.29-17.22,6.85c-4.62,4.56-6.95,10.5-6.95,17.9s2.29,13.34,6.95,17.87,10.4,6.78,17.25,6.78,12.24-2.13,16.7-6.33v3.68c0,6.36-1.62,11.27-4.81,14.7-3.23,3.42-7.62,5.14-13.25,5.14-3.23,0-6.27-.61-9.11-1.87-2.88-1.26-5.23-3-7.14-5.3l-2.58,4.01c2.39,2.46,5.23,4.36,8.5,5.69,2.42,1,4.94,1.62,7.59,1.87h5.65c5.56-.55,10.11-2.62,13.7-6.27,4.17-4.26,6.27-10.34,6.27-18.25v-44.81h-3.91ZM209.92,238.12c-3.59,4.91-8.98,7.37-16.19,7.37-5.88,0-10.66-1.74-14.34-5.2-3.68-3.46-5.52-8.33-5.52-14.63s1.84-11.18,5.52-14.67c3.68-3.46,8.46-5.2,14.34-5.2,7.2,0,12.6,2.46,16.19,7.37v24.97Z"/><polygon class="cls-1" points="188.7 27.51 80.78 69.33 76.5 0 188.7 27.51"/><polygon class="cls-1" points="41.98 155.25 32.18 92.87 66.82 80.15 116.92 103.88 41.98 155.25"/><polygon class="cls-1" points="72.4 77.46 209.21 24.01 240.57 153.33 72.4 77.46"/><polygon class="cls-1" points="217.04 35.43 214.13 21.8 266.55 .89 217.04 35.43"/></svg>