<?xml version="1.0" encoding="UTF-8" standalone="no"?><!-- Generator: Gravit.io --><svg xmlns="http://www.w3.org/2000/svg" xmlns:xlink="http://www.w3.org/1999/xlink" style="isolation:isolate" viewBox="754 559 791 837" width="791pt" height="837pt"><defs><clipPath id="_clipPath_LpSHWCKZmtF9ZCExYHa3nzuJQePZM1eg"><rect x="754" y="559" width="791" height="837"/></clipPath></defs><g clip-path="url(#_clipPath_LpSHWCKZmtF9ZCExYHa3nzuJQePZM1eg)"><rect x="857" y="944" width="300" height="312" transform="matrix(1,0,0,1,0,0)" fill="rgb(253,190,108)"/><path d=" M 802 628 L 1490 628 L 1490 1319 L 802 1319 L 802 628 Z  M 802 963.999 C 997.619 964.102 1156.637 1123.441 1157 1319 L 802 1319 L 802 963.999 Z " fill-rule="evenodd" fill="rgb(0,0,0)"/><circle vector-effect="non-scaling-stroke" cx="813.0000000000001" cy="1309.0000000000007" r="53" fill="rgb(247,170,173)"/><path d=" M 1292 1318.894 C 1292.057 1209.788 1380.553 1121.202 1489.626 1121 L 1490 1319 L 1292 1318.894 Z " fill="rgb(87,92,152)"/><circle vector-effect="non-scaling-stroke" cx="1395" cy="739.9999999999999" r="19" fill="rgb(253,190,108)"/><g><path d=" M 1174.099 919.355 L 1033.388 1020.411 L 1001.205 921.542 L 1174.099 919.355 L 1174.099 919.355 Z " fill="rgb(255,255,255)"/><path d=" M 1009.361 1159.45 L 971.786 1072.734 L 1017.216 1041.321 L 1098.701 1056.931 L 1009.361 1159.45 L 1009.361 1159.45 Z " fill="rgb(255,255,255)"/><path d=" M 1024.288 1035.336 L 1202.519 906.606 L 1296.419 1082.259 L 1024.288 1035.336 L 1024.288 1035.336 Z " fill="rgb(255,255,255)"/><path d=" M 1218.136 920.213 L 1208.817 901.551 L 1276.937 851.612 L 1218.136 920.213 L 1218.136 920.213 Z " fill="rgb(255,255,255)"/></g></g></svg>