<svg height="223.606798" viewBox="0 0 76.342 37.881" width="447.213595" xmlns="http://www.w3.org/2000/svg">
<g stroke-width="1.898" transform="matrix(.52686 0 0 .52686 .49581 .6211)">
  <g fill="#0062b0">
    <path d="m84.811 45.936c-1.093.105-2.2052.19739-3.3242.27539l.38086.60937c1.179-.075 2.3489-.16367 3.5059-.26367z"/>
    <path d="m58.219 45.936-.56641.62109c1.157.101 2.3268.18767 3.5098.26367l.38086-.60937c-1.121-.078-2.2292-.17039-3.3242-.27539z"/>
    <path d="m89.617 45.381c-1.345.181-2.7135.34238-4.1055.48438l.56836.62891c1.481-.135 2.941-.28984 4.375-.46484z"/>
    <path d="m53.412 45.381-.83984.64844c1.435.175 2.896.32984 4.377.46484l.57031-.62891c-1.393-.143-2.7624-.30438-4.1074-.48438z"/>
  </g>
  <g fill="#3b80c2">
    <path d="m84.119 45.176c-1.019.113-2.0498.21278-3.0938.30078l.32422.51758c1.099-.082 2.1819-.1762 3.2559-.2832z"/>
    <path d="m58.908 45.176-.48633.53516c1.073.107 2.1579.2022 3.2559.2832l.32422-.51758c-1.041-.088-2.0748-.18778-3.0938-.30078z"/>
    <path d="m88.59 44.582c-1.237.192-2.4973.36462-3.7793.51562l.49414.54297c1.361-.142 2.6996-.30623 4.0156-.49023z"/>
    <path d="m54.439 44.582-.73242.56836c1.315.184 2.6566.34923 4.0176.49023l.49219-.54297c-1.281-.15-2.5413-.32262-3.7773-.51562z"/>
  </g>
  <path d="m83.49 44.486c-.953.117-1.9157.21955-2.8887.31055l.26758.42578c1.017-.086 2.0255-.18583 3.0215-.29883z" fill="#87a6d6"/>
  <path d="m59.535 44.486-.39648.4375c.997.113 2.0025.21283 3.0195.29883l.26758-.42578c-.974-.091-1.9366-.19255-2.8906-.31055z" fill="#87a6d6"/>
  <path d="m95.826 44.363c-1.676.324-3.4066.61409-5.1836.87109l.85547.66406c1.92-.249 3.7942-.5287 5.6172-.8457z" fill="#0062b0"/>
  <path d="m47.201 44.363-1.2891.68945c1.823.317 3.6962.59866 5.6152.84766l.85742-.66602c-1.774-.257-3.5066-.54709-5.1836-.87109z" fill="#0062b0"/>
  <path d="m87.674 43.871c-1.144.195-2.3101.37234-3.4961.52734l.40039.44531c1.25-.149 2.4785-.32072 3.6875-.51172z" fill="#87a6d6"/>
  <path d="m55.355 43.871-.5918.46094c1.208.19 2.4366.36172 3.6836.51172l.4043-.44531c-1.187-.155-2.3521-.33234-3.4961-.52734z" fill="#87a6d6"/>
  <path d="m94.262 43.527c-1.507.33-3.066.62853-4.668.89453l.75195.58203c1.727-.258 3.4139-.54909 5.0469-.87109z" fill="#3b80c2"/>
  <path d="m48.768 43.527-1.1309.60547c1.635.322 3.3208.61114 5.0488.86914l.75-.58008c-1.601-.266-3.161-.56353-4.668-.89453z" fill="#3b80c2"/>
  <path d="m92.904 42.803c-1.368.33-2.7871.62753-4.2461.89453l.60938.4707c1.557-.262 3.074-.55686 4.543-.88086z" fill="#87a6d6"/>
  <path d="m50.123 42.803-.9043.48438c1.47.324 2.986.61886 4.543.88086l.60547-.47266c-1.458-.267-2.8761-.56158-4.2441-.89258z" fill="#87a6d6"/>
  <path d="m104.05 42.393c-2.147.626-4.4225 1.1905-6.8125 1.6875l1.334.70898c2.649-.493 5.1839-1.0575 7.5879-1.6875z" fill="#0062b0"/>
  <path d="m38.975 42.393-2.1113.70898c2.404.631 4.9418 1.1945 7.5898 1.6875l1.334-.70898c-2.391-.497-4.6655-1.0615-6.8125-1.6875z" fill="#0062b0"/>
  <path d="m101.57 41.557c-1.865.61-3.8504 1.1662-5.9434 1.6602l1.1738.625c2.316-.492 4.5216-1.0519 6.5996-1.6699z" fill="#3b80c2"/>
  <path d="m41.457 41.557-1.8301.61523c2.079.618 4.2836 1.1779 6.6016 1.6699l1.1719-.625c-2.095-.494-4.0814-1.0502-5.9434-1.6602z" fill="#3b80c2"/>
  <path d="m99.48 40.854c-1.628.591-3.386 1.1321-5.25 1.6191l.94141.50195c2.036-.487 3.9693-1.031 5.7793-1.627z" fill="#87a6d6"/>
  <path d="m43.547 40.854-1.4688.49414c1.81.596 3.7443 1.14 5.7793 1.627l.94141-.50195c-1.865-.487-3.624-1.0281-5.252-1.6191z" fill="#87a6d6"/>
  <path d="m114.23 38.473c-2.446 1.246-5.2618 2.3751-8.3848 3.3711l2.1992.74219c3.61-1.029 6.8933-2.2133 9.7793-3.5273z" fill="#0062b0"/>
  <path d="m28.797 38.473-3.5957.58594c2.887 1.314 6.1703 2.4983 9.7793 3.5273l2.2012-.74219c-3.122-.996-5.9388-2.1251-8.3848-3.3711z" fill="#0062b0"/>
  <path d="m110.2 37.815c-1.983 1.152-4.3165 2.2132-6.9375 3.1602l1.916.64453c3.005-.983 5.7082-2.0935 8.0352-3.3125z" fill="#3b80c2"/>
  <path d="m32.828 37.815-3.0117.49219c2.328 1.22 5.0291 2.3305 8.0371 3.3125l1.9141-.64453c-2.621-.947-4.9585-2.0082-6.9395-3.1602z" fill="#3b80c2"/>
  <path d="m106.81 37.262c-1.564 1.077-3.4996 2.0775-5.7246 2.9785l1.5527.52344c2.549-.926 4.8139-1.9629 6.7109-3.0879z" fill="#87a6d6"/>
  <path d="m36.221 37.262-2.5391.41406c1.898 1.125 4.1609 2.1619 6.7109 3.0879l1.5547-.52344c-2.226-.9-4.1606-1.9005-5.7266-2.9785z" fill="#87a6d6"/>
  <path d="m14.457 31.59c1.981 2.3842 4.9629 4.5723 8.7598 6.5117l3.7676-.61523c-3.077-1.78-5.4359-3.7625-6.9219-5.8965z" fill="#0062b0"/>
  <path d="m122.97 31.588c-1.487 2.135-3.8468 4.1184-6.9238 5.8984l3.7656.61523c3.797-1.939 6.7817-4.1287 8.7617-6.5137z" fill="#0062b0"/>
  <path d="m116.76 31.588c-.882 1.855-2.5834 3.6079-4.9414 5.2109l3.1602.51562c2.885-1.736 5.0418-3.6626 6.2988-5.7266z" fill="#3b80c2"/>
  <path d="m111.18 31.588c-.239 1.627-1.2904 3.1791-2.9844 4.6191l2.7441.44727c2.229-1.562 3.7779-3.2684 4.4609-5.0664z" fill="#87a6d6"/>
  <path d="m27.629 31.588c.683 1.799 2.2329 3.5044 4.4629 5.0664l2.7422-.44727c-1.695-1.44-2.7444-2.9921-2.9844-4.6191z" fill="#87a6d6"/>
  <path d="m21.746 31.588c1.257 2.064 3.4138 3.9906 6.2988 5.7266l3.1602-.51562c-2.358-1.603-4.0575-3.3549-4.9395-5.2109z" fill="#3b80c2"/>
  <path d="m29.424 24.74c-1.412 1.471-2.1895 3.0657-2.1895 4.7617 0 .217.01702.43153.04102.64453h4.5762c.248-1.645 1.3425-3.1509 3.1055-4.5039z" fill="#87a6d6"/>
  <path d="m113.61 24.738-5.5332.90234c1.763 1.353 2.8565 2.8609 3.1055 4.5059h4.5742c.026-.212.041-.42753.041-.64453 0-1.696-.7745-3.2917-2.1875-4.7637z" fill="#87a6d6"/>
  <path d="m121.47 23.457-5.5547.90625c1.002 1.346 1.541 2.7782 1.541 4.2832 0 .507-.0646 1.006-.1836 1.5h4.7246c.355-.904.54297-1.8324.54297-2.7754 0-1.342-.37031-2.6501-1.0703-3.9141z" fill="#3b80c2"/>
  <path d="m21.555 23.457c-.7 1.264-1.0723 2.5721-1.0723 3.9141 0 .943.18797 1.8714.54297 2.7754h4.7266c-.12-.494-.18555-.993-.18555-1.5 0-1.505.53902-2.9382 1.541-4.2832z" fill="#3b80c2"/>
  <path d="m130.94 21.916-6.8086 1.1094c.426 1.053.65039 2.1334.65039 3.2344 0 1.332-.33112 2.6327-.95312 3.8867h5.8047c1.12-1.747 1.7188-3.5852 1.7188-5.4922 0-.92-.14311-1.8343-.41211-2.7383z" fill="#0062b0"/>
  <path d="m12.092 21.916c-.269.904-.41016 1.8183-.41016 2.7383 0 1.907.5958 3.7452 1.7168 5.4922h5.8027c-.621-1.254-.95117-2.5547-.95117-3.8867 0-1.102.22534-2.1824.65234-3.2344z" fill="#0062b0"/>
  <g fill="#87a6d6">
    <path d="m107.23 20.555-5.2012 1.9102c1.607.61 3.0434 1.279 4.2754 2l5.9219-.96289c-1.341-1.062-3.0241-2.0483-4.9961-2.9473z"/>
    <path d="m35.793 20.555c-1.97.899-3.6551 1.8853-4.9941 2.9473l5.9219.96289c1.232-.721 2.6674-1.39 4.2734-2z"/>
    <path d="m98.803 17.643-4.2363 2.6348c1.889.422 3.6656.89873 5.3066 1.4277l5.4043-1.9824c-1.953-.769-4.1266-1.4661-6.4746-2.0801z"/>
    <path d="m44.225 17.643c-2.346.615-4.5197 1.3111-6.4727 2.0801l5.4023 1.9844c1.641-.53 3.4186-1.0077 5.3086-1.4297z"/>
  </g>
  <path d="m27.662 17.568c-2.239 1.415-4.0143 2.9484-5.2383 4.5684l5.8027.94336c1.26-1.252 2.9379-2.4174 4.9629-3.4824z" fill="#3b80c2"/>
  <path d="m115.37 17.566-5.5293 2.0312c2.026 1.065 3.7019 2.2304 4.9609 3.4824l5.8066-.94336c-1.224-1.619-3.0003-3.1543-5.2383-4.5703z" fill="#3b80c2"/>
  <g fill="#87a6d6">
    <path d="m90.096 15.854-2.6465 3.1582c1.637.225 3.2287.48334 4.7617.77734l4.3418-2.7012c-2.048-.473-4.211-.88438-6.457-1.2344z"/>
    <path d="m52.934 15.854c-2.247.35-4.408.76238-6.457 1.2344l4.3418 2.7012c1.529-.294 3.1208-.55234 4.7578-.77734z"/>
    <path d="m80.271 14.766-.92578 3.4414c2.079.131 4.1186.31388 6.0996.54688l2.6738-3.1895c-2.531-.347-5.1587-.61483-7.8477-.79883z"/>
    <path d="m62.756 14.766c-2.688.184-5.3157.45088-7.8477.79688l2.6738 3.1914c1.98-.233 4.0216-.41588 6.0996-.54688z"/>
    <path d="m71.514 14.465c-2.283 0-4.5492.06169-6.7832.17969l.93164 3.4531c1.929-.09 3.8875-.13672 5.8535-.13672 1.966-.001 3.9226.04672 5.8516.13672l.92969-3.4531c-2.232-.118-4.4992-.17969-6.7832-.17969z"/>
  </g>
  <path d="m125.07 14.004-6.666 2.4473c2.258 1.621 3.9708 3.3738 5.0508 5.2188l6.9727-1.1367c-1.012-2.27-2.8434-4.4673-5.3574-6.5293z" fill="#0062b0"/>
  <path d="m17.955 14.004c-2.515 2.062-4.3435 4.2593-5.3555 6.5293l6.9707 1.1367c1.079-1.845 2.7957-3.5978 5.0527-5.2188z" fill="#0062b0"/>
  <g fill="#3b80c2">
    <path d="m105.96 13.188-4.8535 3.0195c2.551.739 4.875 1.5789 6.918 2.5059l5.7285-2.1055c-2.245-1.251-4.867-2.3979-7.793-3.4199z"/>
    <path d="m37.066 13.188c-2.924 1.022-5.547 2.1689-7.793 3.4199l5.7305 2.1055c2.042-.927 4.365-1.7669 6.916-2.5059z"/>
    <path d="m94.818 10.215-3.2422 3.8711c2.584.43 5.0427.9403 7.3457 1.5293l4.9902-3.1055c-2.805-.882-5.8538-1.6529-9.0938-2.2949z"/>
    <path d="m48.211 10.215c-3.242.642-6.2908 1.4119-9.0938 2.2949l4.9883 3.1055c2.302-.588 4.7617-1.0993 7.3457-1.5293z"/>
    <path d="m81.975 8.4512-1.1816 4.3809c3.047.214 5.9993.53227 8.8203.94727l3.291-3.9258c-3.467-.619-7.1277-1.0923-10.93-1.4023z"/>
    <path d="m61.055 8.4492c-3.802.31-7.4647.7853-10.93 1.4043l3.2891 3.9238c2.82-.415 5.7753-.73227 8.8223-.94727z"/>
    <path d="m71.514 8.0273c-2.882 0-5.7182.095344-8.4902.27734l1.1875 4.4023c2.391-.131 4.8317-.19726 7.3047-.19726 2.472 0 4.9108.06626 7.3008.19726l1.1875-4.4023c-2.771-.183-5.6092-.27734-8.4902-.27734z"/>
  </g>
  <g fill="#0062b0">
    <g>
      <path d="m28.465 7.8398c-3.548 1.546-6.6304 3.2663-9.1504 5.1113l6.8008 2.498c2.306-1.455 5.0623-2.7876 8.1953-3.9746z"/>
      <path d="m114.56 7.8379-5.8438 3.6348c3.131 1.188 5.8884 2.5226 8.1934 3.9766l6.8008-2.5c-2.52-1.845-5.6014-3.5643-9.1504-5.1113z"/>
      <path d="m100.63 3.2793-3.9844 4.7578c3.633.756 7.013 1.6697 10.084 2.7207l5.9531-3.7031c-3.617-1.449-7.6667-2.7244-12.053-3.7754z"/>
      <path d="m42.398 3.2793c-4.386 1.051-8.4357 2.3264-12.053 3.7754l5.9551 3.7031c3.069-1.051 6.45-1.9647 10.084-2.7207z"/>
      <path d="m84.092.58398-1.4727 5.4629c4.25.35 8.3141.89433 12.121 1.6113l4.0312-4.8086c-4.582-1.012-9.5077-1.7816-14.68-2.2656z"/>
      <path d="m58.936.58398c-5.17.484-10.098 1.2536-14.678 2.2656l4.0293 4.8105c3.808-.718 7.8711-1.2633 12.121-1.6133z"/>
      <path d="m71.514 0c-3.624 0-7.1692.14406-10.615.41406l1.4785 5.4863c2.969-.2 6.0237-.30469 9.1387-.30469 3.114 0 6.1687.10373 9.1367.30273l1.4785-5.4863c-3.446-.269-6.9942-.41211-10.617-.41211z"/>
    </g>
    <path d="m115.07 39.102c-.0813.0217-.16591.0492-.24804.0723.0924.0983.18101.19678.27343.29492-.008-.1224-.0191-.2442-.0254-.36719zm-111.62 13.303c-2.16 0-3.4434.53908-3.4434 2.8301v2.334c0 2.289 1.2834 2.8301 3.4434 2.8301h3.8438c2.16 0 3.4473-.54108 3.4473-2.8301v-2.334c0-2.291-1.2873-2.8301-3.4473-2.8301zm71.125 0c-3.024 0-3.1524 1.0919-3.1524 2.5059 0 1.922.40963 2.3555 4.0156 2.3555 3.089 0 3.3691.0426 3.3691.72265 0 .606-.51844.66016-1.0234.66016h-2.9375c-.622 0-.95648-.0587-1.0215-.67969h-2.4141v.32227c0 1.697.87664 2.1074 3.0566 2.1074h2.9062c3.186 0 3.8984-.34613 3.8984-2.4531 0-2.279-.86484-2.5081-4.5898-2.4941-2.57.009-2.8613-.0144-2.8613-.6914 0-.422.36525-.60352.90625-.60352h2.6562c.966 0 1.1342.18333 1.1602.61133h2.4043v-.0508c0-1.372-.25843-2.3125-3.0234-2.3125zm48.68 0c-2.16 0-3.4434.53908-3.4434 2.8301v2.334c0 2.289 1.2834 2.8301 3.4434 2.8301h3.8438c2.16 0 3.4434-.54108 3.4434-2.8301v-2.334c0-2.291-1.2834-2.8301-3.4434-2.8301zm-111.06.0859v7.8223h7.7852v-2.0098h-5.3867v-5.8125zm14.098 0-2.6348 3.1992-2.6328-3.1973h-2.8945l4.3301 5.0996v2.7227h2.3965v-2.7246l4.332-5.0996zm3.7871 0v7.8223h2.332v-5.6191h.0234l3.1406 5.6191h1.7949l3.1426-5.6191h.0215v5.6191h2.332v-7.8223h-3.6816l-2.7129 5.0352-2.709-5.0352zm14.787 0v7.8223h2.3965v-1.9648h4.7637c1.694 0 2.2012-1.3418 2.2012-2.5078v-.67188c0-1.532-.55008-2.6777-2.8301-2.6777zm10.793 0v7.8223h2.3984v-7.8223zm7.6172 0-4.2344 7.8223h2.6797l.70117-1.3848h4.8594l.74415 1.3848h2.668l-4.2969-7.8223zm18.91 0v1.9453h3.3691v5.877h2.3965v-5.877h3.3691v-1.9453zm12.482 0-4.2324 7.8223h2.6777l.70117-1.3848h4.8594l.7461 1.3848h2.666l-4.2969-7.8223zm8.3652 0v7.8223h7.2344c2.398 0 3.2422-.79065 3.2422-2.7226v-2.377c0-1.933-.84319-2.7226-3.2422-2.7226zm12.426 0v7.8223h2.4004v-7.8223zm16.912 0v7.8223h2.3965v-5.6836h.0215l4.5039 5.6836h3.7148v-7.8223h-2.3984v5.6836h-.0195l-4.5039-5.6836zm-67.541 1.8164 1.5547 2.9375h-3.0684zm31.393 0 1.5566 2.9375h-3.0684zm-92.252.10742h2.8066c1.262 0 1.5.59246 1.5 1.5645v.84375h.002c0 1.135-.23805 1.5664-1.373 1.5664h-3.0664c-1.135 0-1.3711-.4324-1.3711-1.5664v-.84375c0-.973.23695-1.5645 1.502-1.5645zm119.8 0h2.8047c1.264 0 1.502.59246 1.502 1.5645v.84375h.002c0 1.135-.2371 1.5664-1.3711 1.5664h-3.0664c-1.133 0-1.3711-.4324-1.3711-1.5664v-.84375c0-.973.236-1.5645 1.5-1.5645zm-76.512.0215h3.5215c.722 0 .98047.30298.98047.83398v.30078c0 .464-.21635.83204-.77735.83204h-3.7246zm58.17 0h4.2559c1.025 0 1.4219.2913 1.4219 1.4043v1.0586c0 1.111-.39688 1.4043-1.4219 1.4043h-4.2559zm-20.801 7.7715v7.793h1.0547v-7.793zm-39.066.002v7.791h6.7578c1.29 0 2.2578-.5692 2.2578-1.6582v-.92578c0-1.182-.72959-1.4961-1.5586-1.5371v-.0449c.947-.096 1.2559-.66461 1.2559-1.2246v-.66797c0-.895-.45045-1.7324-2.0644-1.7324zm10.889 0v7.791h7.6953v-.85937h-6.6387v-2.7227h6.3359v-.86133h-6.3379v-2.4863h6.5976v-.86132zm9.2305 0v7.791h1.0547v-3.0762h5.1445c.957 0 1.5469.14928 1.5469 1.3633v1.7129h.98828v-1.9922c0-.709-.25803-1.2679-1.332-1.4629v-.0195c.806-.076 1.4316-.37856 1.4316-1.4766v-.63477c.001-1.463-.35847-2.2051-2.6055-2.2051zm10.684 0v7.791h7.1016v-.85937h-6.0469v-6.9316h-.002zm11.348 0v7.791h1.0566v-6.8457l7.1328 6.8457h1.5703v-7.791h-1.0547v6.8438l-7.1309-6.8438zm-41.098.86132h5.5c.321 0 1.1074.10741 1.1074.81641v.70898c0 .77602-.59111.95899-1.1621.95899h-5.4453zm20.121 0h4.7988c1.549 0 1.9238.2785 1.9238 1.1504v.71094c0 .817-.49401 1.1289-1.666 1.1289h-5.0566zm-20.119 3.3477h5.4102c.958 0 1.498.14719 1.498 1.1172v.56054c0 .689-.35599 1.0449-1.334 1.0449h-5.5742z"/>
  </g>
</g>
</svg>
