<svg xmlns="http://www.w3.org/2000/svg" width="1181pt" height="896pt" version="1" viewBox="0 0 1181.000000 896.000000"><path d="M751 192.5V385H531v55h221v-55h429V275h-55V110h-112V43h-43V0H751v192.5zM960 27v16H763V11h197v16zm0 55v28H763V54h197v28zm43 0v28h-32V54h32v28zm-43 116v77h-71v-55H763v-99h197v77zm43 0v77h-32V121h32v77zm111 0v77h-100V121h100v77zm-237 55v22H763v-44h114v22zm0 77v44H763v-88h114v44zm83 0v44h-71v-88h71v44zm43 0v44h-32v-88h32v44zm111 0v44h-100v-88h100v44zm56 0v44h-44v-88h44v44zM612.9 568.1c-7.3 1-15.2 4.2-21.1 8.6l-4.8 3.5v88.1l-27.2 36.4-27.3 36.3-.3-84-.2-84h-53.8l-43.9 72.7-43.8 72.7-.3-72.7-.2-72.7-15.8.1h-15.7l-39.5 9.7-39.5 9.8v20.9l21 2.2c11.6 1.2 21.3 2.2 21.8 2.2.4.1.7 40.4.7 89.6V797l28.6-.2 28.6-.3 41.7-68.4 41.6-68.5.3 68.7.2 68.7h62.5l50.5-64.6c67.9-87 71.3-91.6 77.6-107.4 12.7-31.4-9.4-61.6-41.7-56.9zM776.5 568c-60.7 4.9-102.5 39.4-114.2 94.2-2.5 11.6-2.4 38.1.1 49.6 5.3 24.8 15.7 43.6 33.2 60.2 12 11.3 22.2 17.6 37 22.6 12.3 4.1 20.7 5.4 38.9 6.1 32.6 1.1 57.6-3.9 93-18.9 6.6-2.8 12.6-5.5 13.3-6.1.9-.7 1.2-6 1.2-20.2 0-10.5-.3-19.4-.6-19.7-.3-.3-6.5 2.2-13.7 5.7-15.8 7.5-30.7 13.2-39.7 15.1-8.9 1.9-25.7 1.8-33.3-.2-17.1-4.4-30.5-16-39.2-33.9-6.8-13.9-8.6-22.1-9.2-42-.6-20.2.6-31.3 4.8-44 4.1-12.1 8-18.8 15.8-26.6 7.4-7.4 13.3-11 23.8-14.5 12.5-4.2 11.3-7 11.3 26.9v29.4l4.8 2.6c7.6 4.1 19.7 7.7 28 8.3 18.5 1.4 34.2-6.7 41.3-21.4 3.4-7.1 3.9-21.5.9-30.1-10-29.8-48.9-46.9-97.5-43.1zM44 581.4L.5 594.6l-.3 11.2-.3 11.2H36v250.6l-16.2 4-16.3 4-.3 10.2-.3 10.2h145.2l-.3-10.2-.3-10.3-18.2-4-18.3-4V795l4.3.7c2.3.5 15.5.8 29.2.8 22.5 0 26-.2 35.4-2.3 32.2-7.2 56.5-23 72.5-47 27.5-41.5 26-107-3.4-146.1-20-26.5-51.6-37.5-84.1-29.2-10.1 2.6-24.7 9.2-40.6 18.3l-13.3 7.6V568l-11.7.1H87.5L44 581.4zm107.8 37.1c25.3 6 38.7 26.3 40.8 61.8 1.8 30.6-6.3 57.6-21.7 72.1-13.7 13-29 17.6-55.1 16.8l-4.8-.2V619.1l4.3-.5c2.3-.3 5.3-.7 6.7-1 6.6-.9 24-.4 29.8.9z"/></svg>