<svg id="Ebene_1" data-name="Ebene 1" xmlns="http://www.w3.org/2000/svg" viewBox="0 0 1417.32 291.42"><defs><style type="text/css">.cls-1{fill:#192a6b;}.cls-2{fill:#c0e0d3;}.cls-3{fill:#fff;}</style></defs><title>RMV_Logo_4c</title><path class="cls-1" d="M428.06,74.45l-15.37,52.67h76.89c22.21,0,34-7.33,39.22-25.53,6.09-21.89-6.47-27.14-25.91-27.14Z" transform="translate(-2.83 -2.83)"/><polygon class="cls-1" points="89.43 0 84.61 0 0 291.41 4.46 291.41 89.43 0"/><polygon class="cls-1" points="116.58 0 110.49 0 25.95 291.41 31.57 291.41 116.58 0"/><polygon class="cls-1" points="143.66 0 136.38 0 51.8 291.41 59.1 291.41 143.66 0"/><polygon class="cls-1" points="170.82 0 161.9 0 77.29 291.41 86.21 291.41 170.82 0"/><polygon class="cls-1" points="197.91 0 187.82 0 103.2 291.41 113.36 291.41 197.91 0"/><polygon class="cls-1" points="225.02 0 213.7 0 129.12 291.41 140.46 291.41 225.02 0"/><polygon class="cls-1" points="252.13 0 239.59 0 155.01 291.41 167.59 291.41 252.13 0"/><polygon class="cls-1" points="279.25 0 265.45 0 180.5 291.41 194.7 291.41 279.25 0"/><polygon class="cls-1" points="306.37 0 291.03 0 206.39 291.41 221.8 291.41 306.37 0"/><polygon class="cls-1" points="333.44 0 316.87 0 232.27 291.41 248.91 291.41 333.44 0"/><path class="cls-1" d="M488,234c4.86-21.51,1.22-36-19.83-36H392.45l-28.31,96.35H476.2c-1.62-8.5,4.49-27.14,11.76-60.3" transform="translate(-2.83 -2.83)"/><polygon class="cls-1" points="712.22 291.41 708.97 86.99 648.69 291.41 712.22 291.41"/><polygon class="cls-1" points="884.59 85 770.94 291.41 823.48 291.41 884.59 85"/><polygon class="cls-1" points="863.57 0 775.34 0 779.76 161.12 863.57 0"/><polygon class="cls-1" points="1153.47 0 1018.15 0 936.83 291.41 957.1 291.41 1038.63 0 1036.85 182.56 1153.47 0"/><path class="cls-1" d="M1420.16,222.61c0-44.12-86.24-181.29-118.2-210.87-3.62-3.63-8.48-6.48-13-8.9L1075,294.25h233.46c49.78,0,111.72-23.06,111.72-71.64" transform="translate(-2.83 -2.83)"/><path class="cls-2" d="M902.42,2.84h-36L782.6,164,778.17,2.84H589.31c63,0,54.58,52.65,54.58,64.38,0,39.22-20.38,69.61-60.82,80.16,2.84,3.66,15.43,15.77,17,19.8,6,8.9,1.67,21.77,1.67,32.36,0,23.93-12.56,47.32-12.56,70.81,0,8.06,2.83,16.7,6.51,23.9h55.79L711.81,89.82l3.24,204.43h58.72L887.43,87.83,826.32,294.25H939.66L1021,2.84Z" transform="translate(-2.83 -2.83)"/><polygon class="cls-3" points="1153.47 0 1036.85 182.56 1038.63 0 957.1 291.42 1072.15 291.42 1286.16 0 1153.47 0"/><path class="cls-1" d="M666.51,58.34c0-54.08-62.74-55.5-62.74-55.5h-8.6S648,6.94,648,58.34c0,43.3-19.85,79.3-64.8,88.54,20.29,13,21.9,34.85,21.9,40.91,0,27.52-15.81,53.83-15.81,81.32,0,8.53,1.6,17.43,5.71,25.14H613.5c-4.1-7.71-5.71-16.61-5.71-25.14,0-27.49,15.82-53.8,15.82-81.32,0-6.06-1.61-27.91-21.91-40.91,45-9.24,64.81-45.24,64.81-88.54" transform="translate(-2.83 -2.83)"/><path class="cls-3" d="M490.69,127.12H413.8l15.37-52.68H504c19.43,0,32,5.26,25.9,27.15-5.22,18.2-17,25.53-39.22,25.53M595.17,2.84H336.28L251.74,294.25H365.25l28.31-96.35h75.69c21,0,24.68,14.54,19.81,36-7.26,33.16-13.37,51.8-11.75,60.3H595c-4.11-7.71-5.71-16.62-5.71-25.14,0-27.49,15.82-53.79,15.82-81.32,0-6.06-1.62-27.9-21.91-40.91,45-9.24,64.8-45.24,64.8-88.54,0-51.4-52.78-55.5-52.78-55.5" transform="translate(-2.83 -2.83)"/><polygon class="cls-1" points="324.79 0 324.79 3.03 1284.13 3.03 1286.28 0 324.79 0"/><polygon class="cls-1" points="242.31 288.39 242.31 291.41 1201.89 291.41 1204 288.39 242.31 288.39"/></svg>