<?xml version="1.0" encoding="utf-8"?>
<!-- Generator: Adobe Illustrator 21.1.0, SVG Export Plug-In . SVG Version: 6.00 Build 0)  -->
<svg version="1.1" id="Ebene_1" xmlns="http://www.w3.org/2000/svg" xmlns:xlink="http://www.w3.org/1999/xlink" x="0px" y="0px"
	 viewBox="0 0 566.9 566.9" style="enable-background:new 0 0 566.9 566.9;" xml:space="preserve">
<path d="M60.9,283.5c18,0,32.6-14.6,32.6-32.6c0-18-14.6-32.6-32.6-32.6c-18,0-32.6,14.6-32.6,32.6
	C28.3,268.9,42.9,283.5,60.9,283.5"/>
<path d="M150.3,292.2L0,292.2v33.7l86.4,0l88,88.2h110.8L172.4,301.2C167.9,296.7,159.2,292.2,150.3,292.2"/>
<polyline points="0,408.2 102,510.2 108.7,510.2 0,401.6 0,408.2 "/>
<path d="M70.8,384.7l29.3,29.4h48.2l-62.2-62.2c-8.1-8.1-22.8-8.1-30.9,0l-46,45.9L0,388.3v6.4l115.5,115.5h6.7L25.7,414h15.8
	L70.8,384.7"/>
<path d="M392.1,283.5c18,0,32.6-14.6,32.6-32.6c0-18-14.6-32.6-32.6-32.6c-18,0-32.6,14.6-32.6,32.6
	C359.5,268.9,374.1,283.5,392.1,283.5"/>
<path d="M497.8,301.2c-4.3-4.3-13.2-9-22.1-9l-249.5,0c-21.9,0-22,33.7,0,33.7h6.9l184.3,184.3h6.7L239.7,325.9h7l184.2,184.3h6.7
	L341.2,414H367l29.3-29.4l29.4,29.4h48.2l-62.2-62.2c-8.1-8.1-22.8-8.1-30.9,0l-50.8,50.8l-76.9-76.8l158.7-0.1l88,88.2h67.2v-43.6
	L497.8,301.2"/>
</svg>
