<?xml version="1.0" encoding="utf-8"?>
<svg xmlns="http://www.w3.org/2000/svg" width="600" height="600">
<rect width="600" height="600" fill="#2e7123"/>
<path
d="m 357.56254,100.73418 c -7.97022,-.0593 -16.07931,1.41422 -23.90625,4.65625 -31.29869,12.96434 -46.16695,48.85488 -33.21875,80.15625 l -.25,.0937 c .004,.009 -.004,.0224 0,.0312 9.27954,22.40279 -1.37845,48.09545 -23.78125,57.375 -22.4028,9.27954 -48.06421,-1.3472 -57.34375,-23.75 -.005,-.0126 -.026,-.0186 -.0312,-.0312 l -.25,.0937 c -9.73213,-23.46499 -32.34835,-37.66578 -56.25,-37.84375 -7.97022,-.0594 -16.07931,1.44547 -23.90625,4.6875 -31.30777,12.9681 -46.186851,48.84847 -33.21875,80.15625 12.96434,31.29869 48.85489,46.16695 80.15625,33.21875 l .0937,.25 .0312,0 c 5.6007,-2.31989 11.42177,-3.38622 17.125,-3.34375 17.10968,.1274 33.29034,10.29165 40.25,27.09375 9.27954,22.40279 -1.37845,48.09546 -23.78125,57.375 l .0937,.25 c -31.28959,12.97742 -46.15192,48.8886 -33.1875,80.1875 12.9681,31.30777 48.87973,46.1556 80.1875,33.1875 31.29869,-12.96434 46.13572,-48.82366 33.1875,-80.125 l .28125,-.125 c -9.27954,-22.4028 1.3472,-48.09546 23.75,-57.375 5.6007,-2.31989 11.42177,-3.38622 17.125,-3.34375 17.10968,.1274 33.2903,10.29165 40.25,27.09375 .004,.009 -.004,.0222 0,.0312 l .25,-.0937 c 12.9774,31.28957 48.8572,46.12067 80.1563,33.15625 31.3075,-12.9681 46.1868,-48.84848 33.2187,-80.15625 -9.7261,-23.48083 -32.3393,-37.72821 -56.25,-37.90625 -7.9702,-.0593 -16.0793,1.44547 -23.9063,4.6875 l -.0937,-.25 -.0313,0 c -22.4026,9.27954 -48.0642,-1.34721 -57.3437,-23.75 -9.27954,-22.4028 1.3472,-48.09546 23.75,-57.375 l -.0937,-.25 c 31.2896,-12.97743 46.1521,-48.8886 33.1874,-80.1875 -9.7258,-23.48083 -32.3393,-37.69696 -56.24995,-37.875 z"
fill="white"/>
</svg>