<svg width="610" height="684.37" version="1.0" xmlns="http://www.w3.org/2000/svg"><path d="m 355.13982,5.0116351 c -4.77422,0.15554 -6.84334,3.1369 -6.17293,8.9434499 -8.57708,0.47719 -14.4766,1.97083 -17.69247,4.47172 -3.21664,2.50215 -4.07644,6.02151 -2.5275,10.54752 1.54818,4.5271 5.0675,8.22378 10.54744,11.0821 -1.42983,1.66831 -2.03704,4.3011 -1.79841,7.87413 0.23785,3.57411 4.08507,6.51301 11.47094,8.89476 5.47915,1.43002 10.79815,1.58074 16.03989,0.38885 -1.19163,5.48023 0.73197,8.92416 5.73547,10.35309 6.90857,7.14776 15.46761,8.92074 25.71242,5.34663 l -1.06933,6.8048 13.94984,5.73547 c 0.47601,6.67119 3.56544,11.43175 9.28369,14.29008 l -0.68048,1.409495 c -0.71519,6.2e-4 -1.3224,0.25321 -1.79841,0.72916 l -11.42234,12.83191 c -0.95342,0.95345 -2.06583,1.10401 -3.25658,0.38884 -6.67121,-3.81131 -12.59742,-6.79873 -17.8383,-8.94345 -1.42988,-0.71423 -2.28968,-1.92867 -2.52749,-3.59682 l 2.13865,-16.428735 c -4.4e-4,-1.66721 -0.81165,-2.98353 -2.47889,-3.93714 -7.62416,-3.57302 -15.37198,-6.15729 -23.23353,-7.82544 -2.38282,-0.71423 -4.05383,0 -5.00639,2.13865 l -7.48528,15.35941 c -0.71512,1.43001 -1.92951,2.03708 -3.59682,1.79833 -6.19465,-1.19065 -12.87868,-2.05046 -20.02555,-2.5275 -1.42982,6.2e-4 -2.24103,-0.70863 -2.47889,-2.13865 l -2.47889,-16.42873 c -0.23862,-2.14363 -1.55501,-3.20735 -3.93707,-3.20797 -8.33879,-0.47595 -16.69384,-0.47595 -25.03194,0 -1.90627,6.2e-4 -3.12067,0.91378 -3.59682,2.81913 l -2.47889,16.81757 c -0.23858,1.43002 -1.04977,2.13927 -2.47889,2.13865 -7.14757,0.47704 -13.8316,1.33685 -20.02555,2.5275 -0.95328,0.47703 -2.16768,0.12287 -3.59682,-1.06933 l -7.48528,-16.47725 c -0.95327,-1.42893 -2.62428,-1.98747 -5.00639,-1.74981 -2.62094,0.23875 -6.67216,1.40451 -12.15143,3.54814 v -1.40949 c 10.00586,-4.28788 19.52668,-10.16069 28.58016,-17.54674 9.52933,-8.33778 14.64435,-16.99877 15.3594,-26.05265 -1.66802,-2.14348 -6.53043,-3.35792 -14.63032,-3.59683 4.28804,-4.76413 6.56624,-9.77713 6.8048,-15.01908 -3.09745,-4.28773 -12.41428,-4.9969799 -27.89967,-2.13865 -16.2007,4.05068 -30.37994,10.38015 -42.53,18.95622 -12.38879,7.86246 -23.50531,17.45871 -33.39212,28.77458 -9.88723,11.31696 -17.81235,23.04066 -23.76819,35.19053 l 7.14504,-16.42873 c 3.57341,-7.86137 7.37203,-17.0277 11.42234,-27.51083 1.191,-5.00257 1.2663,-8.59706 0.19442,-10.74194 -1.07229,-2.14347 -3.42581,-2.75069 -6.99922,-1.79833 -3.81207,0.95345 -10.70008,5.9666 -20.70603,15.01909 -10.95927,11.19797 -20.65739,25.02253 -29.11482,41.46074 -8.457703,16.439155 -14.255236,29.404045 -17.352236,38.933105 1.667557,-10.72032 1.414962,-19.8865 -0.729086,-27.51083 -1.19133,-3.09662 -3.775536,-3.90775 -7.825519,-2.47882 -3.811978,2.62113 -7.659201,6.52172 -11.470946,11.76258 -3.811963,5.2418 -7.459973,10.33008 -11.033496,15.21351 -3.573725,4.88453 -7.802235,11.84782 -12.686089,20.90045 -4.884026,9.05373 -9.187848,19.78898 -12.880513,32.17698 -3.692805,12.38909 -6.502914,28.79791 -8.408788,49.28619 -1.191267,13.10363 -0.229465,27.18093 2.867738,42.18975 3.811792,15.0096 7.610409,26.09948 11.422341,33.2463 3.811776,7.14761 7.40639,11.30079 10.741861,12.49175 2.144079,5.24164 4.980895,13.95116 8.554604,26.10119 1.905826,5.71805 2.765642,10.04855 2.527497,13.02633 -0.238347,2.97824 0.497552,5.07926 2.284468,6.27021 1.7867,1.19142 3.280411,3.57163 4.471725,7.14496 3.097032,11.4358 7.298851,22.02049 12.540273,31.78814 -0.953092,5.24163 -1.458296,10.50723 -1.458171,15.74824 C 61.256351,388.25278 51.988121,363.23632 44.840983,346.32091 31.022901,315.5881 20.185663,301.5108 12.323764,304.13115 c -3.8119161,1.42987 -6.1921182,4.8738 -7.1450389,10.3531 -0.2383001,2.1444 -0.2383001,7.66259 0,16.47726 0.2381913,8.81528 1.0493856,18.0835 2.4788911,27.85115 7.1471848,31.68625 19.4028238,58.12122 36.7945208,79.32451 l 26.101265,30.76734 c 5.241188,5.24148 10.2542,9.06679 15.019163,11.56815 4.764697,2.50168 9.170505,3.18418 13.220752,1.99292 5.955883,9.52982 13.451103,19.50714 22.504443,29.98964 5.71762,8.81513 11.69245,13.01684 17.8869,12.54027 2.62046,5.7179 6.52107,8.55476 11.76258,8.55461 l 5.39523,-0.68048 c 7.38527,7.14729 14.02069,12.82101 19.97695,17.1092 l -6.75619,19.34508 c -11.91229,1.66783 -22.90012,2.581 -32.90607,2.81913 -9.29159,-6.67073 -22.35842,-15.68635 -39.273408,-27.12199 l -1.069326,-21.48372 c -0.476631,-7.38527 0.791177,-13.56418 3.888454,-18.56738 0.71458,-4.04991 -1.515018,-7.74658 -6.756191,-11.0821 -7.862101,-3.81162 -13.482321,-5.33201 -16.817574,-4.61747 -1.429568,0.47657 -2.240778,1.74437 -2.478891,3.88846 v 11.81111 l -33.975389,0.72916 c -3.097218,1.6e-4 -5.654734,1.16592 -7.679702,3.54814 -2.025124,2.38254 -2.100435,7.14294 -0.194423,14.29008 0.23816,2.62082 0.136096,4.89899 -0.34024,6.8048 -1.667774,7.62386 -6.073582,16.94076 -13.220753,27.89967 -0.953029,1.66784 -0.523122,4.15008 1.263749,7.48528 1.786746,3.33552 6.267866,8.55243 13.415176,15.69972 3.097062,3.09708 7.78217,6.94432 14.095655,11.47095 6.313298,4.52663 17.429835,11.41471 33.39212,20.70609 18.820921,11.19736 36.847383,20.5141 54.000943,27.89968 3.57343,0.23813 27.37551,-3.00189 71.45039,-9.67261 l 0.34024,3.93714 c -12.62703,9.52967 -20.72947,13.47879 -24.30285,11.81111 -5.0033,0.47657 -6.5237,4.17309 -4.61755,11.0821 1.42923,3.09707 4.06203,5.22468 7.87413,6.41595 l 4.61754,5.34663 13.22075,7.87412 c 5.00281,1.4294 9.76323,1.4294 14.29008,0 4.28808,-1.66768 7.17349,-5.36436 8.60321,-11.0821 l 11.76258,-5.34663 c 2.62037,-1.66768 3.93677,-5.11176 3.93706,-10.35293 l 10.35302,-7.87413 c 8.09989,-1.42955 13.36553,-4.31494 15.74825,-8.60329 0.47616,-3.81177 1.53997,-6.19197 3.20798,-7.14496 l 12.49166,-8.5546 c 0.47615,-1.19127 5.63977,0.83431 15.40801,6.07563 4.76448,1.19127 8.91768,0.93868 12.49167,-0.729 l 9.28369,-5.34663 c 8.33806,1.90596 22.9739,12.2379 43.93956,31.05897 -0.23866,2.14425 1.07774,4.67501 3.93706,7.53396 1.66726,2.14409 6.22368,3.91707 13.6096,5.34663 l 5.00638,9.28361 5.00639,1.79849 c 7.38504,0.23813 14.27305,-2.39467 20.70603,-7.87413 l 7.87413,-2.47897 c 4.04962,-3.09707 5.82262,-6.18653 5.34663,-9.28361 l -3.20798,-3.20797 -6.8048,-1.79849 c -8.57714,-4.05006 -17.28677,-9.51972 -26.10126,-16.42873 l -5.68687,-4.32583 c 25.96786,4.52647 58.22696,8.12112 96.82257,10.74178 4.76429,0.95298 11.16901,-1.5025 19.15064,-7.33938 7.98053,-5.83689 32.06191,-23.03024 72.3253,-51.61933 5.95542,-6.43244 10.76443,-13.82579 14.33868,-22.1642 -3.57425,-3.33536 -6.73896,-8.09576 -9.47811,-14.29008 -2.7404,-6.19415 -4.48672,-11.4599 -5.20081,-15.74824 -0.95359,-4.05007 -1.0556,-7.67131 -0.34024,-10.88768 0.71409,-3.21622 -0.3497,-6.23024 -3.20798,-9.08935 -1.19183,-1.66752 -3.97525,-2.77993 -8.26297,-3.2565 -7.62433,-0.7147 -16.18337,-0.56398 -25.71242,0.38884 -4.52717,-0.47641 -7.15997,-1.54014 -7.87412,-3.20797 l 0.38884,-8.60329 c 0.71414,-3.81162 -0.34965,-5.48272 -3.20798,-5.00631 -10.48318,2.62082 -16.81261,5.25361 -18.95622,7.87412 -3.09769,3.33552 -2.9957,6.93001 0.34024,10.74179 2.62009,2.38253 3.9365,5.11736 3.93706,8.21444 -1.43,15.72398 -2.74642,26.30867 -3.93706,31.78813 -17.39217,13.81802 -29.1912,22.2751 -35.38496,25.37218 -5.00358,1.66768 -16.19542,0.95858 -33.58654,-2.13865 -3.81235,-3.33536 -6.54716,-9.05762 -8.21436,-17.15789 5.95554,-3.57349 12.28497,-7.87739 18.95622,-12.88044 4.52609,-0.7147 8.32471,-1.60111 11.42234,-2.67339 3.09663,-1.07197 4.66564,-3.98411 4.66615,-8.74903 3.09663,-1.19111 5.32622,-3.8239 6.75619,-7.87412 l 20.75464,-24.98333 c 6.67021,-5.71759 13.91282,-9.05964 21.77536,-10.01278 9.52908,-0.71454 21.93533,-6.08217 37.18336,-16.08841 2.38181,-2.62051 2.38181,-6.31719 0,-11.0821 4.52598,-2.62051 11.91921,-10.01371 22.16421,-22.1642 4.04947,-5.71759 5.01128,-12.04707 2.86773,-18.95623 9.52904,-11.43548 14.84804,-20.4511 16.03989,-27.12198 0.95233,-5.95588 0.85032,-12.38723 -0.34024,-19.29655 4.52594,-2.85864 7.69065,-5.31412 9.47811,-7.33938 1.78615,-2.0248 2.67266,-4.83491 2.67331,-8.40887 -6.5e-4,-3.57333 -1.31706,-6.56076 -3.93706,-8.94345 6.90834,-9.76765 7.76814,-18.5792 2.5275,-26.44151 1.90526,-12.86472 0.58888,-20.96718 -3.93707,-24.30285 -4.76547,-3.33505 -10.63828,-2.22264 -17.54666,3.25666 -4.05072,-2.14394 -9.52035,-0.11821 -16.42872,6.07564 1.19058,-3.09677 1.34119,-5.88013 0.38884,-8.26297 6.19364,-2.85849 10.16958,-5.9747 11.95701,-9.42951 1.78618,-3.45419 2.67267,-8.8971 2.67331,-16.28284 0.71409,-4.52631 4.8673,-12.62861 12.49167,-24.30285 5.24067,-11.67346 1.54406,-15.72461 -11.08211,-12.15143 6.90838,-6.19384 10.40097,-11.56147 10.40163,-16.08856 0.47583,-4.28788 -1.34577,-9.75754 -5.39524,-16.42873 -1.66832,-3.81147 -4.15052,-4.52056 -7.48528,-2.13865 1.19059,-2.38191 1.82447,-5.21878 1.94423,-8.55461 0.11852,-3.33489 -2.08441,-10.37347 -6.61037,-21.09487 -0.71534,-14.05568 -4.00875,-19.9285 -9.96417,-17.54659 -0.95358,-7.38511 -3.33378,-14.37499 -7.14504,-21.04634 -5.7184,-8.57607 -10.27481,-10.85439 -13.6096,-6.8048 -9.292,-13.8174 -18.00163,-19.53965 -26.10127,-17.15774 -0.23881,-5.95556 -2.26441,-11.323185 -6.07571,-16.088565 -2.14473,-9.05264 -4.72894,-15.33343 -7.82552,-18.90754 -4.2889,-1.66722 -7.27631,0.71298 -8.94345,7.14496 -0.71527,-5.24071 -2.38628,-10.7589 -5.00639,-16.47726 -2.62119,-5.71728 -6.77439,-8.65602 -12.49166,-8.89492 -2.14469,-0.23766 -4.17031,0.11665 -6.07572,1.06932 -3.81238,-2.38175 -7.0524,-3.5962 -9.67253,-3.59682 -8.10071,-8.57607 -15.49395,-9.28532 -22.1642,-2.13865 l -1.06933,-7.48528 c -2.38289,-8.81435 -7.14333,-10.73789 -14.29008,-5.73547 -11.67429,-12.14972 -21.65172,-20.15014 -29.98972,-23.96254 -6.90943,-2.38176 -11.46584,-1.77469 -13.6096,1.79834 -3.57405,-3.57303 -7.37266,-5.8511999 -11.42234,-6.8047999 -4.05052,-0.95236 -7.84913,-2.01609 -11.42234,-3.20798 -0.34249,-0.0155 -0.65383,-0.0155 -0.97211,0 z m 1.84701,6.1243199 c 2.72292,-0.0716 8.26954,1.93287 16.62316,6.02711 l 7.14504,4.2773 c 1.90548,-3.57303 5.09691,-4.63675 9.62393,-3.20798 5.47911,2.62129 10.64273,5.78603 15.408,9.47819 4.76437,3.69326 10.08338,8.9856 16.03989,15.89399 5.00259,-3.33474 8.5972,-2.62548 10.74186,2.13865 l 1.06932,8.60329 c -5.24179,-5.00258 -11.6732,-5.3572 -19.29646,-1.06933 l -5.00639,-2.13865 c -6.90946,-8.33794 -11.06266,-14.66725 -12.49167,-18.95622 -1.42989,-5.47899 -2.13908,-5.93565 -2.13865,-1.40965 0.23781,4.76554 3.07461,10.84227 8.55461,18.22722 -10.48306,-3.33489 -18.15559,-7.63864 -23.03911,-12.88059 -4.88438,-5.2407 -8.65629,-9.64648 -11.27652,-13.22075 -2.62107,-4.28772 -3.68487,-4.28772 -3.20798,0 2.85848,5.24195 6.80769,10.10439 11.81119,14.6304 -3.81229,-1.66706 -7.4069,-3.33817 -10.74186,-5.00647 -8.33886,-3.57303 -15.22689,-5.44804 -20.70603,-5.68679 -2.62106,6.2e-4 -2.77165,0.45713 -0.38885,1.40949 9.29102,2.383 16.05034,4.58589 20.21997,6.61037 4.16882,2.02573 6.97893,3.874 8.40879,5.54105 -6.67117,2.85958 -13.60781,4.1759 -20.75463,3.93714 -4.52699,-0.23766 -6.55261,-0.13531 -6.07572,0.34017 0.47607,0.47703 1.89449,0.98238 4.2773,1.45817 8.57628,0.9536 17.2859,-0.0156 26.10127,-2.86766 6.43208,3.33598 13.9273,6.52732 22.50444,9.62393 -5.24176,1.19173 -10.35678,3.62062 -15.3594,7.19364 -1.90637,2.38301 -0.94456,2.48488 2.86773,0.34017 3.81142,-2.85833 9.53363,-4.63131 17.15782,-5.34663 l 6.07571,2.47897 c -0.47694,6.43306 1.04345,12.96644 4.61754,19.6367 l -3.88845,1.45817 -12.15143,-3.93714 0.68048,-8.21428 -6.75619,1.40948 c -6.43297,2.14472 -12.86437,0.26971 -19.29647,-5.68679 -4.28876,0.71533 -6.11038,-0.95578 -5.39523,-5.00646 1.66726,-3.57303 1.21066,-5.49657 -1.40957,-5.73547 l -10.35301,1.06932 c -6.67116,-0.95236 -11.07697,-2.8759 -13.22075,-5.73547 -1.42985,-2.38176 -0.51666,-5.32066 2.81913,-8.89477 -6.43291,-2.62004 -10.40883,-5.50543 -11.95701,-8.60329 -1.54894,-3.09645 -0.58715,-5.57869 2.86774,-7.48528 3.45412,-1.90534 9.81023,-2.25981 19.10204,-1.06932 -2.14458,-2.62004 -2.70318,-5.35487 -1.7498,-8.21429 0.0743,-0.89325 0.70653,-1.37713 1.94422,-1.40964 z m -102.36361,4.56894 c 0.84132,-0.0156 1.67479,0.0187 2.47889,0.0482 3.09681,0.71532 3.90804,2.4883 2.47889,5.34663 l -7.82552,10.35294 c -6.90931,0.9536 -16.40344,4.90287 -28.43434,11.81126 -12.03146,6.90948 -24.92099,16.07581 -38.73875,27.51083 l -5.00639,3.20798 c -2.62089,-1.90534 -7.4299,-1.04553 -14.33868,2.5275 21.91797,-18.34403 41.00824,-32.27077 57.20892,-41.80091 10.48234,-5.24071 16.55916,-8.93739 18.22714,-11.0821 -5.24159,1.43002 -12.63483,4.69679 -22.1642,9.81835 -9.52993,5.12281 -25.27818,15.78262 -47.19615,31.98255 l -21.04627,18.90755 c 11.91185,-16.19978 24.34481,-29.62133 37.32919,-40.34274 12.98391,-10.72016 28.50626,-19.07521 46.61287,-25.03186 7.7128,-2.08406 14.52516,-3.17811 20.4144,-3.25666 z m 4.71475,18.27574 c 3.39493,0 6.34455,0.45697 8.84624,1.40964 -3.1e-4,4.5271 -2.73513,9.5401 -8.21437,15.01909 -8.33874,7.62433 -18.74607,14.6629 -31.25347,21.09488 -12.50793,6.43306 -28.78809,14.03033 -48.80013,22.84468 v -2.13865 c 24.30039,-18.10574 46.83464,-32.84362 67.56194,-44.27972 5.47924,-3.3349 4.97403,-4.29659 -1.45817,-2.86782 -7.14755,3.57427 -14.99736,7.98005 -23.57377,13.22075 -14.29475,9.29202 -28.22139,18.4582 -41.80091,27.51083 l 0.34024,-4.2773 c 27.15927,-23.82348 49.44093,-39.2171 66.83285,-46.12674 4.28819,-0.95267 8.12462,-1.40964 11.51955,-1.40964 z m -109.0226,11.76258 c 0.11727,-9.3e-4 0.20229,-0.0296 0.29163,0 1.19106,0.95361 1.54562,2.52268 1.06933,4.66615 l -17.49806,45.00888 c -11.43576,22.157055 -26.4748,45.298505 -45.057488,69.360425 -7.862102,8.57716 -12.724508,14.04666 -14.630318,16.42873 -1.906044,2.38285 -3.475052,4.66102 -4.666148,6.8048 l 1.458171,-6.07579 6.804799,-10.74179 c 9.529518,-15.48523 20.925356,-37.41239 34.267024,-65.76359 4.04994,-8.337945 10.02477,-17.756715 17.8869,-28.239845 2.38224,-5.47899 1.06583,-5.32843 -3.93706,0.38885 -11.67399,14.53318 -25.24604,37.524075 -40.731585,68.971415 l 6.804799,-17.15773 c 1.191065,-3.81146 4.989683,-12.4457 11.422336,-25.90692 6.43237,-13.460125 12.76179,-24.119945 18.95623,-31.982555 6.19411,-7.86137 10.44931,-12.9764 12.83191,-15.35941 8.04047,-6.92332 12.96847,-10.38715 14.72753,-10.40162 z m 296.49481,5.2981 c 1.82409,-0.0933 3.77376,0.39009 5.78408,1.5067 -6.90951,6.2e-4 -10.96072,2.98805 -12.15143,8.94345 -0.71522,3.8124 -0.71522,8.47093 0,13.94992 -2.38291,-3.3349 -5.26831,-6.22029 -8.60321,-8.60329 -6.43298,-3.33474 -7.59879,-2.98011 -3.54821,1.06932 4.04962,4.05069 7.59563,8.25255 10.69325,12.54028 -5.24179,4.28896 -10.96401,6.16398 -17.15781,5.68694 -2.14464,0.95345 -1.79005,1.56067 1.06932,1.79834 2.85842,0.71532 6.20043,0.46272 10.01278,-0.72901 -0.47697,3.8124 0.13018,7.65964 1.79841,11.47094 -3.33586,0.47704 -7.28507,-0.028 -11.81119,-1.45817 -5.24178,-2.85832 -7.97659,-7.36613 -8.21436,-13.56107 l 6.46456,-2.52749 c 2.85842,-3.33474 2.88839,-5.81698 0.14574,-7.48528 -2.74024,-1.66706 -4.23396,-6.07284 -4.47173,-13.22075 2.62018,-5.71712 9.10022,-5.71712 19.34507,0 3.1117,-6.05978 6.63164,-9.17598 10.64465,-9.38083 z m 6.36735,7.72823 c 5.60205,-0.20811 11.1541,1.76116 16.57454,5.9299 0.23773,-3.33474 2.44063,-4.32334 6.61038,-3.01356 4.16869,1.31088 8.0426,10.14934 11.61676,26.5874 l 5.68687,2.13865 c 1.90539,-4.526 3.4744,-6.75564 4.66615,-6.75627 1.90539,6.3e-4 3.78037,3.90121 5.68687,11.76258 4.76426,4.28897 7.04247,11.327555 6.8048,21.094885 -3.0977,4.05068 -4.76871,9.06368 -5.00639,15.01924 l -2.86774,-6.41595 c -1.66824,-7.14683 -2.37745,-14.69059 -2.13865,-22.55305 -0.2388,-3.334895 -0.59339,-3.334895 -1.06932,0 -0.71528,6.90948 -0.81728,12.78229 -0.34024,17.54658 -6.43307,-8.33794 -13.36968,-15.83317 -20.75464,-22.504365 -1.42997,-5.24086 -1.88659,-11.21571 -1.40957,-17.8869 -0.71525,-5.71728 -1.32246,-7.03375 -1.79841,-3.93714 -0.47702,7.14776 -0.22439,13.83186 0.72909,20.02555 -5.48007,-5.47899 -11.9115,-13.47941 -19.29647,-23.96254 -1.90643,-3.33489 -2.76625,-4.04399 -2.52749,-2.13865 4.52608,8.57716 9.33509,15.71777 14.33868,21.43504 5.00254,5.71837 9.05376,10.274865 12.15143,13.609605 -6.1948,-1.90534 -11.56244,-3.19507 -16.08849,-3.79124 -4.52712,-0.59509 -8.72892,-1.836135 -12.54028,-3.742575 -3.57411,-0.71423 -3.42352,0.14621 0.38885,2.5275 2.14366,1.430025 6.47419,2.697815 13.02633,3.888465 6.55112,1.19173 12.70323,3.21731 18.42156,6.07563 3.0966,1.90643 7.24981,6.81756 12.49167,14.67893 l 4.2773,9.62393 c -6.6713,-3.57303 -14.06453,-6.05526 -22.1642,-7.48528 -8.10073,-1.42893 -12.86115,-2.74525 -14.29008,-3.93699 -6.19479,-2.6202 -6.904,-2.3676 -2.13865,0.72901 1.42893,1.43002 6.51726,3.02569 15.21359,4.81204 8.69527,1.78729 17.07701,5.20462 25.17775,10.2072 l 0.72909,2.13865 c -1.66829,1.90643 -2.27545,4.53923 -1.79841,7.87412 l 2.47889,7.14496 c -2.14473,-2.62019 -5.08354,-1.45428 -8.89485,3.5483 1.4289,-3.09677 1.07431,-5.93348 -1.06932,-8.55461 -3.33592,-5.00257 -11.43835,-10.37019 -24.30286,-16.08856 l -2.13865,3.93714 c -10.48312,-3.33489 -17.06516,-9.56234 -19.68531,-18.61606 -0.23873,-2.85833 2.29206,-4.454 7.53389,-4.81189 5.2408,-0.35696 6.05199,-1.85059 2.47889,-4.47172 -6.90951,-2.38192 -12.63172,-6.43322 -17.15782,-12.151435 -3.09762,-4.0496 -3.09762,-6.88646 0,-8.55461 l 5.34663,-1.45817 2.5275,-3.20797 -3.20798,-12.49175 c -0.95346,-6.43197 0.81955,-10.98831 5.34663,-13.6096 0.80399,-0.11976 1.58139,-0.16471 2.38168,-0.19442 z m -155.44105,13.22075 c 4.08513,-0.0995 8.15694,0.19116 12.54027,0.63196 1.64852,-0.13377 2.18744,1.2415 3.01355,2.86765 l 1.89563,12.63749 c 0.35786,3.00142 0.55614,5.99009 5.88129,6.22153 5.32515,0.2316 13.78448,1.25146 18.32435,2.23586 4.53988,0.98456 7.61553,-0.91114 9.13787,-4.08288 0,0 4.35011,-9.00582 6.51317,-13.51238 0.51515,-1.07322 1.4643,-1.56223 2.28446,-1.40949 8.16436,1.5193 13.539,3.27874 20.70604,6.95054 0.95702,0.49041 1.63173,1.68883 1.31235,3.74271 l -2.09005,13.949765 c -0.47818,3.21591 1.19507,5.37696 4.52034,6.70759 6.10283,2.44226 9.92001,4.47281 13.94983,6.85348 3.77982,2.23291 8.71041,4.42227 12.92912,-0.0482 l 11.42234,-12.10275 h 0.68048 l -2.47889,2.86766 c -1.10776,1.28148 -1.7026,3.49541 -1.79841,6.46464 -0.0614,1.90534 3.59082,4.22675 6.65898,4.71467 5.99367,0.9533 9.92743,0.63413 15.45662,0.43753 l -4.42312,13.07486 -1.26375,3.5483 c -0.42876,2.02526 -1.44388,4.05037 2.13865,6.07563 l 4.32591,3.20798 6.41595,6.07578 3.59682,3.20798 c 2.21042,2.1668 3.51954,5.55489 13.70681,-0.0964 -0.94945,3.10097 -1.55386,6.22511 -1.94423,9.42951 -0.43283,3.5528 0.0392,6.1618 1.45818,9.28361 -3.05107,1.48835 -4.88229,3.37596 -5.39524,6.07579 -0.61161,3.21887 -0.089,6.22449 1.06933,9.28361 1.29037,3.40785 3.75664,6.22993 5.73547,9.28377 -2.62118,0.71517 -3.42839,1.50763 -4.66615,3.20798 -1.50338,2.06508 -1.16571,6.56853 -0.24303,9.38082 2.02219,6.16367 8.34102,6.33259 13.12355,9.23509 6.23896,3.78642 12.20703,7.68934 16.28291,13.70681 2.23947,3.30627 3.92431,6.61846 6.17292,9.91556 0.9635,1.41275 3.98054,4.12161 5.44384,5.00647 1.65244,0.99917 4.95778,2.47881 4.95778,2.47881 -1.10127,2.20258 -1.75932,4.20591 -2.77052,7.6797 -0.87601,3.00935 -0.98216,3.8869 -1.21514,6.99922 -0.15165,2.02527 -0.037,3.94228 0.72908,5.83269 0.51239,1.26437 3.30519,3.98567 3.30519,3.98567 0.76053,4.79991 1.7091,10.31685 2.23586,14.87334 0.21601,1.86848 2.75026,5.09528 5.49245,5.44384 3.87519,0.49259 6.0591,0.7175 12.92911,1.8957 1.60584,0.2753 3.34139,1.93116 3.59683,5.49237 0.56242,5.12607 0.0757,11.29394 0.14574,16.42873 0.0314,2.29574 -0.13019,4.12036 -2.96495,4.61762 l -12.20003,2.13865 c -3.66696,0.4425 -5.91217,2.38144 -6.27014,4.56893 -0.39011,6.83451 -1.51924,13.52203 -2.5761,20.26851 -0.43882,2.80124 -0.11121,5.97111 3.49961,8.11723 3.08488,1.83333 3.74449,2.22715 10.88768,5.10352 -0.43406,1.55554 -0.28937,3.23068 0.24302,4.86057 -2.63618,-0.97476 -4.17405,0.47595 -5.34662,1.8957 -0.91168,-3.32432 -1.42996,-5.44213 -3.45101,-6.36743 -2.37275,-1.08612 -4.92174,-0.0575 -5.88129,0.48606 -1.55031,0.8791 -4.2773,3.20798 -4.2773,3.20798 -0.37141,-3.03735 -0.7226,-6.08792 -0.97212,-9.13787 -0.0845,-2.06555 -0.46328,-3.74754 1.45818,-8.55461 0.42651,-1.06699 1.7154,-2.26448 2.33307,-4.08288 2.27078,-7.11836 1.2965,-12.56593 0.92351,-19.6367 -0.15196,-2.88026 -0.51696,-5.07957 -0.97212,-7.82545 -0.34537,-2.08374 -0.75698,-4.11429 -1.65259,-6.0271 -0.54494,-1.1639 -1.06326,-2.67557 -1.84702,-3.69404 -1.13401,-1.47372 -2.35376,-3.14871 -4.13148,-3.69403 -2.78342,-0.85391 -5.60184,0.19862 -7.6311,2.23586 -6.29751,-5.45317 -7.82782,-5.16122 -10.06138,-4.81204 -2.86021,0.44717 -5.11248,2.90592 -7.33946,5.34663 0.38738,-4.81889 0.13843,-9.08655 -0.14574,-14.43582 -0.28446,-5.34943 -1.21611,-10.82142 -2.5761,-17.35232 l -97.55166,37.81523 92.25364,-66.92998 H 349.64737 l 101.19708,-27.85115 c -9.61556,-23.31487 -28.98363,-45.12336 -46.8559,-59.00733 -17.87226,-13.88396 -41.15461,-26.56048 -75.04721,-27.85098 l 5.1036,101.97477 -34.0726,-101.97477 -34.21842,102.50935 5.39524,-103.33573 c -28.74092,0.74021 -59.84498,15.47668 -78.93567,30.13554 -19.09069,14.65901 -36.71845,39.58822 -44.03677,57.54915 l 102.84967,27.85115 H 136.46274 l 92.49666,67.02595 -96.77396,-38.05819 c -1.81086,6.88443 -2.70724,11.40188 -3.3538,17.49805 -10.34118,6.26275 -14.04103,20.41953 -18.61598,36.60002 -5.27684,6.6631 -9.56489,12.55163 -13.901234,19.15065 -1.145804,-6.46884 -1.829332,-12.94218 -2.333074,-19.49081 -0.238378,-1.90566 -1.247339,-3.33614 -3.548216,-3.69403 l -15.310798,-2.38176 c -3.280691,-0.21278 -3.207199,-3.05991 -3.305188,-5.29795 -0.0787,-6.07688 -0.246435,-13.03084 -0.145739,-19.24786 0.01913,-1.18442 1.137949,-2.30523 2.576102,-2.67339 4.060731,-1.03946 10.892656,-1.5039 15.262192,-2.62471 3.26341,-0.8371 3.756856,-1.88014 4.471725,-3.54814 0.347706,-6.28514 1.29974,-12.4807 2.673314,-18.61606 0,0 2.16769,-6.26477 -0.145739,-8.11707 -3.093439,-2.47695 -7.631096,-4.18009 -7.631096,-4.18009 5.06868,-3.54985 9.064567,-6.64833 14.921951,-12.34585 5.8574,-5.69768 11.73855,-12.20431 17.8869,-21.77536 6.14837,-9.5712 14.68323,-21.50876 19.92834,-33.05188 5.24511,-11.54327 12.31844,-30.97296 11.13071,-41.31485 3.27109,-5.43077 4.21488,-6.56698 8.65182,-14.24155 4.43694,-7.67457 11.56906,-22.49052 15.99127,-32.2255 h 2.86774 l 10.45023,11.81111 c 4.79266,5.43792 7.64099,4.38742 12.29724,1.60406 4.99735,-2.98727 9.81308,-5.395 14.92195,-7.48528 2.11495,-0.86541 5.04156,-2.69112 4.32591,-8.11723 l -1.65259,-12.491595 c -0.24079,-1.8257 0.48339,-2.71414 2.47889,-3.69403 5.19484,-2.55098 14.41706,-6.12867 18.42156,-6.95069 1.7998,-0.36941 3.33351,0.61079 3.88846,1.79848 l 5.92989,12.63749 c 1.593,3.55265 4.45373,5.20571 9.42951,4.08288 4.97948,-1.12377 10.3288,-2.03164 17.0606,-2.47897 6.73181,-0.44717 6.51948,-2.79673 6.99923,-6.22153 l 1.7498,-12.78322 c -0.21341,-1.39503 1.0536,-3.06893 3.74264,-2.72192 2.5342,-0.34592 4.98559,-0.57223 7.43667,-0.63196 z m -125.54854,9.04067 c 0.50629,-0.0451 0.95494,-0.0218 1.31235,0.0964 0.95275,2.383 1.15674,5.64977 0.68048,9.81835 -0.47671,4.16983 -3.56612,12.954785 -9.28369,26.295775 l -13.22075,25.71234 c -9.29161,1.19173 -18.10324,5.49547 -26.44151,12.88058 4.28817,-7.38511 9.47849,-15.84203 15.55383,-25.37217 6.07496,-9.52921 15.52049,-23.81042 28.38573,-42.870235 2.14396,-3.57318 2.21925,-4.4596 0.19443,-2.6734 -2.02527,1.78745 -7.4196,8.60018 -16.23431,20.511615 -8.81514,11.91268 -20.61416,30.39576 -35.38496,55.4105 -4.05026,6.19478 -14.0763,21.53988 -30.038324,46.07821 -1.191345,1.19174 -4.785959,1.90084 -10.741861,2.13865 l -11.762581,34.70451 c 0.952858,1.42986 3.940266,0.92467 8.94345,-1.45817 -2.382535,4.52694 -5.977149,7.05786 -10.741861,7.53396 l -2.867737,-2.18733 -1.409566,-5.34663 0.34024,-3.20798 2.867737,0.34032 12.491667,-31.78813 -7.485279,-9.28377 1.798411,-5.34663 c 2.382302,5.00351 4.611896,7.73834 6.756193,8.21444 3.335254,-6.43213 8.17097,-15.21708 14.484501,-26.29576 6.313251,-11.07775 13.78178,-22.34494 22.35863,-33.78089 l -0.38885,-2.81913 c -1.6e-4,-1.66721 0.85964,-1.81777 2.5275,-0.38884 l 17.83829,-25.7125 -14.63032,25.37218 c 2.38224,2.62113 1.31845,4.39427 -3.20797,5.34663 -15.247606,20.25108 -26.944644,40.4051 -35.044718,60.41696 l 3.596822,1.06933 c 2.144048,0.95329 4.169654,0 6.075713,-2.86781 l 21.775353,-38.59294 20.75464,-38.59292 c 9.76771,-17.39105 20.95954,-30.963165 33.58655,-40.731585 2.85873,-1.60765 5.04289,-2.49048 6.56177,-2.62471 z m 44.52282,3.69403 v 1.06932 l 2.13866,17.157905 c 0.23797,1.66814 -0.32063,2.8339 -1.74981,3.54814 -5.95631,2.383 -12.03312,5.37042 -18.22714,8.94345 -1.19145,0.47703 -2.30386,0.375 -3.25658,-0.34017 l -11.0335,-12.54027 -3.25658,-2.819135 3.59682,-1.45817 c 11.91182,-4.76429 22.49645,-9.2721 31.78813,-13.56107 z m 210.85156,20.365875 9.67254,1.06932 6.07571,5.00631 c -1.66818,0.47704 -2.88259,1.54092 -3.59682,3.20798 -13.34201,0.23875 -19.52082,-0.72294 -18.56738,-2.86766 -0.7152,-1.42893 1.41241,-3.55654 6.41595,-6.41595 z m -352.634405,8.79755 c 0.792919,-0.0778 1.343789,0.32197 1.7012,1.21522 0.952843,9.53014 0.877547,18.77161 -0.194423,27.70526 -1.072203,8.93442 -3.377109,18.83661 -6.950616,29.79521 -9.291529,30.97187 -14.863143,51.83515 -16.768969,62.55562 -3.573725,12.62722 -7.522935,29.08457 -11.811187,49.33472 -1.906012,-9.76749 -0.766912,-30.35143 3.4024,-61.68056 4.169125,-31.32837 9.461439,-53.63675 15.894066,-66.97867 3.097031,-6.90854 2.995029,-7.97242 -0.34024,-3.20798 C 45.32732,177.4048 36.8703,213.96765 34.487967,262.33025 c -0.476569,16.91556 0.436643,29.14445 2.819131,36.6487 2.382333,7.50503 5.117131,11.83553 8.214365,13.02633 1.667603,0.95329 3.489205,0.85126 5.395233,-0.34016 1.42935,-9.05295 2.391152,-16.4194 2.867737,-22.01847 0.476382,-5.59828 1.110278,-12.13167 1.944228,-19.6367 0.833747,-7.50426 2.327443,-13.75829 4.471725,-18.7618 l 1.409565,1.40964 c -2.382519,10.95938 -3.623621,18.60533 -3.742639,22.89321 -0.119298,4.28881 -0.39852,8.59256 -0.874903,12.88059 -0.476584,4.28866 -0.981788,12.49314 -1.458171,24.64302 2.858793,-9.7675 5.996809,-19.08439 9.332296,-27.89968 l 11.033495,-32.1283 14.338684,-33.97546 c 7.861821,-15.24695 18.801057,-32.61762 32.857457,-52.15385 8.33827,-9.76749 15.7315,-15.03308 22.1642,-15.74825 1.6675,2.38285 1.6675,7.29381 0,14.67893 -1.66788,7.38589 -4.55329,15.13371 -8.60321,23.23352 -15.48585,28.58934 -30.4763,49.30206 -45.008882,62.16663 L 116.29137,211.24573 128.10256,189.762 c 4.52641,-8.09981 5.3376,-10.93667 2.47889,-8.5546 -24.06255,36.21304 -38.445777,58.95133 -43.210474,68.24241 -4.764963,9.2917 -9.423379,18.00138 -13.949838,26.10119 -4.526708,8.10059 -7.514115,14.43006 -8.94345,18.95623 -1.429552,4.52694 -4.416975,12.62939 -8.94345,24.30285 -1.09e-4,2.14456 1.466913,8.32332 4.325908,18.56738 2.858793,10.24469 5.265686,16.24629 7.290856,18.0328 2.024937,1.78698 2.202235,3.73743 0.534663,5.88121 -0.714838,1.90628 -0.209635,5.50092 1.458171,10.74194 1.191096,5.71805 3.925895,13.56776 8.214364,23.57369 l -1.069325,3.59682 c -4.526708,-10.00593 -8.57792,-20.99377 -12.151427,-32.90598 -1.09e-4,-4.76461 -0.532018,-7.70335 -1.603988,-8.89493 -1.072188,-1.19095 -2.135991,-3.39384 -3.207977,-6.61037 -1.072187,-3.21591 -2.716507,-8.025 -4.86057,-14.33861 -2.144266,-6.31314 -3.664669,-11.96012 -4.617543,-16.96347 -6.432611,-2.85848 -11.091029,-7.64564 -13.949837,-14.43582 -2.85898,-6.78956 -5.518482,-15.67654 -8.019942,-26.63593 -2.5016,-10.95876 -3.538713,-24.07421 -3.06216,-39.32209 1.191128,-18.1059 3.82394,-35.72916 7.874125,-52.88301 5.955949,-23.82364 18.109584,-46.4599 36.45428,-67.90209 2.531245,-2.82877 4.462564,-4.29286 5.784079,-4.4232 z m 444.110345,0.48606 c 1.0721,-0.11976 2.4902,0.2358 4.2773,1.06933 3.57304,1.6683 9.29527,7.99762 17.15782,18.95622 3.81126,-4.28788 7.50788,-2.76734 11.0821,4.61762 4.28774,6.67119 5.95875,14.67161 5.00639,23.96253 8.81432,-4.76429 11.90371,-1.57296 9.28369,9.62393 3.81123,7.86246 6.16474,14.01462 6.99922,18.42164 0.83322,4.4078 0.12396,8.53439 -2.13865,12.34585 -2.26392,3.81225 -3.37635,6.72439 -3.25658,8.74903 0.11852,2.02542 0.9783,1.95014 2.52749,-0.19442 1.54795,-2.14379 4.71266,-3.91677 9.47811,-5.34663 3.09651,6.67119 4.41291,11.07697 3.93707,13.22075 -6.4e-4,2.62098 -1.64494,5.45784 -4.86057,8.55461 -3.21689,3.09754 -5.06518,6.79406 -5.54105,11.0821 -6.3e-4,2.14456 1.11178,3.25697 3.25658,3.2565 l 6.41595,-1.79833 c 3.33474,-0.4761 3.43674,2.15669 0.34024,7.87412 -3.33601,6.19462 -5.74291,11.41169 -7.29085,15.69957 -1.5492,4.28881 -2.3337,7.73274 -2.33308,10.35309 -0.23886,5.47993 -1.20068,8.71994 -2.86774,9.67246 0.47586,-6.90854 0.29856,-14.12459 -0.53466,-21.62946 -0.83446,-7.50426 -2.32817,-15.88606 -4.47172,-25.17776 1.90531,-1.66737 4.53812,-7.28759 7.87412,-16.81757 1.66708,-4.76445 1.31246,-5.37167 -1.06932,-1.79849 -2.62129,7.1476 -5.25409,11.55354 -7.87413,13.22075 -2.62127,-8.81451 -5.45807,-19.50108 -8.5546,-32.12829 3.57301,-5.95556 5.80262,-13.49948 6.75619,-22.55305 0.23763,-7.62324 -0.21898,-8.18194 -1.40957,-1.74981 -1.43006,9.05357 -4.06286,16.04362 -7.87412,21.0462 -3.09773,-10.00563 -6.43975,-19.37587 -10.01278,-28.19131 1.19062,-5.00258 1.69582,-10.87539 1.45818,-17.54659 -0.23883,-6.67025 -0.84604,-6.87432 -1.79842,-0.68048 -5.9e-4,5.00351 -0.60779,9.25873 -1.79841,12.83191 l -7.87412,-19.97702 -5.00639,-11.47095 c -1.66829,-3.8113 -2.22687,-3.8113 -1.7498,0 l 4.61754,15.01924 c -3.57419,-4.04959 -6.91621,-7.03701 -10.01278,-8.94344 -3.09771,-1.9055 -3.65631,-1.75494 -1.7498,0.38884 5.24073,4.5271 9.74854,9.38938 13.56099,14.63024 3.09655,7.62417 6.18596,15.47403 9.28369,23.57384 -9.05376,-7.62324 -15.38319,-11.87845 -18.95623,-12.8319 -4.52716,-1.66722 -4.52716,-0.85609 0,2.47881 6.43195,4.05053 14.07776,11.19129 22.89329,21.43519 2.8583,8.33888 5.59311,16.44133 8.21437,24.30286 -4.52719,-2.62036 -9.99681,-7.83726 -16.42873,-15.69972 -2.85948,-2.85849 -2.96148,-2.40183 -0.34024,1.40964 5.24072,7.8623 11.31754,14.799 18.22714,20.75456 l 5.34662,21.77535 c -5.48015,-5.47914 -12.62079,-11.05068 -21.43511,-16.76889 -3.81246,-2.38206 -4.06506,-1.9254 -0.72909,1.40949 7.62313,5.47993 15.62356,13.58238 23.96262,24.30285 2.3818,6.6712 3.44559,18.92683 3.20797,36.7946 -0.23886,4.52694 -3.58086,7.86884 -10.01277,10.01278 l -1.45817,17.15774 -8.89485,0.34031 c -4.76543,-6.67041 -8.43534,-11.86072 -10.93628,-15.55382 -2.50213,-3.69248 -6.04814,-9.3393 -10.69326,-16.96347 -4.64628,-7.6234 -8.06358,-13.80216 -10.2072,-18.56738 -2.14473,-4.76445 -2.49934,-9.67542 -1.06932,-14.67893 1.42888,-5.00257 2.64329,-8.80128 3.59682,-11.42226 0.95239,-2.62035 0.8018,-3.07686 -0.38885,-1.40964 -2.85946,5.00351 -4.88506,9.86594 -6.07571,14.63039 l -7.14504,-20.36587 c 0.71417,-8.09981 5.01799,-18.48043 12.88051,-31.10765 2.38186,-4.28788 2.12925,-4.6425 -0.72908,-1.06932 -7.14781,9.53014 -11.75762,19.20151 -13.90123,28.969 l -11.0821,-24.64302 c -0.23879,-4.52616 2.59801,-13.1338 8.5546,-25.76102 3.09658,-6.67026 2.38739,-6.41767 -2.13865,0.729 -3.81241,7.14777 -6.54721,13.83171 -8.21437,20.02556 -3.33592,-13.57927 -6.57592,-25.12565 -9.67253,-34.6558 l -2.47889,-0.72916 1.40956,3.93714 c 1.90539,11.91252 4.53822,22.24446 7.87413,31.05897 -4.52711,-4.04959 -9.64213,-7.34312 -15.35941,-9.96409 -3.09765,-1.66722 -3.09765,-1.31274 0,1.06932 6.90849,4.05053 12.12549,8.10168 15.69965,12.15143 2.85836,6.67119 5.49117,12.74792 7.87412,18.22706 -4.28887,-3.09661 -11.5315,-6.69125 -21.77535,-10.74178 -3.81239,-0.71439 -3.81239,-0.25773 0,1.40949 12.8645,5.24179 20.81632,10.40535 23.914,15.40808 l 7.14504,18.90755 c -2.62121,4.6e-4 -6.06521,-3.90013 -10.35301,-11.76259 -3.57416,-6.67025 -12.4878,-13.10176 -26.78175,-19.29638 -2.85941,-1.1908 -4.17581,-3.72172 -3.93706,-7.53397 0.47596,-2.62019 3.21078,-3.68392 8.21436,-3.20797 -1.42997,-4.0496 -3.10096,-7.28961 -5.00638,-9.67246 l -2.86774,-4.2773 c -3.81238,-7.86153 -1.53417,-11.76212 6.8048,-11.76258 -3.09759,-4.76445 -4.16146,-8.46097 -3.20798,-11.0821 -0.23875,-4.52617 0.82504,-8.93194 3.20798,-13.22076 1.42891,-2.85848 2.49273,-5.74386 3.20798,-8.60328 4.52605,2.62113 8.65256,4.82401 12.34585,6.61037 3.69219,1.78729 5.6425,5.05406 5.88129,9.81835 l -1.79842,11.08211 c 0.71419,2.14471 2.63779,1.43546 5.73548,-2.13866 3.09659,-4.28787 5.57878,-6.77011 7.48528,-7.48527 2.62009,1.19173 5.15091,3.31934 7.53388,6.41595 2.38185,4.5271 1.52205,12.88214 -2.5275,25.03202 l -3.93706,10.01277 c 8.09966,-10.72047 14.68168,-15.8355 19.68531,-15.3594 1.66709,1.19158 2.19902,3.59853 1.60399,7.29085 -0.59618,3.6931 -0.59618,7.5671 0,11.61669 0.59503,4.05053 -0.79667,7.49461 -4.13148,10.35309 -3.33594,2.85926 -5.56555,7.51763 -6.7562,13.94976 7.62317,-5.71727 10.71258,-4.65355 9.28369,3.20798 l -4.2773,15.3594 c -1.19176,7.38589 -0.026,10.87851 3.54822,10.40162 3.57304,-0.4761 5.77594,-0.0202 6.61037,1.40965 0.83327,1.42971 1.01057,3.91194 0.53467,7.48528 -2.14475,5.00335 -3.10657,8.31865 -2.86774,9.86688 0.23766,1.549 0.92016,2.86532 1.99283,3.93714 1.07151,1.07243 3.37641,0.81984 6.95062,-0.72917 3.57303,-1.54822 5.34604,-0.48434 5.34663,3.20798 -5.9e-4,3.6931 0.0747,7.28775 0.19442,10.74194 0.11852,3.45482 1.25762,6.82346 3.4024,10.15851 1.66709,2.38285 3.7947,3.95177 6.41595,4.66615 l 3.20798,-3.93698 c -4.76543,0.23859 -6.96833,-2.85086 -6.61038,-9.28377 0.35678,-6.43213 0.32681,-11.44513 -0.14574,-15.01909 -1.90652,-4.52631 -3.83014,-7.05708 -5.73547,-7.53396 -1.90652,-0.4761 -6.31233,-12.37711 -13.22075,-35.72511 l 7.48528,0.38884 c 5.47897,20.01264 9.88478,30.77449 13.22075,32.32272 3.33479,1.549 4.90379,3.32198 4.66615,5.34663 -0.23885,2.02542 0.36834,6.4046 1.79841,13.07501 4.28772,-1.19096 6.76994,-5.14007 7.48528,-11.81127 1.1906,-6.19384 -0.58242,-10.95424 -5.34663,-14.29007 -5.00368,-2.85849 -7.88907,-5.49128 -8.60321,-7.87413 -1.43003,-4.04975 0.1389,-6.53183 4.66615,-7.48528 2.62006,-1.42908 -3.70937,-7.15118 -18.95623,-17.15773 -7.86255,-5.47915 -10.24275,-10.39027 -7.14504,-14.67893 1.19063,-2.14378 3.39354,-2.0685 6.61038,0.19443 3.21568,2.2637 5.31658,2.79549 6.27014,1.60391 1.6671,-3.3349 0.35069,-5.63982 -3.93707,-6.95054 -4.28892,-1.30994 -6.31454,-2.80373 -6.07571,-4.47173 -0.23883,-7.38511 -0.0882,-12.39811 0.38885,-15.01924 0.4759,-2.6202 0.2233,-5.70965 -0.72909,-9.28361 -2.62124,-3.81146 -7.63425,-3.55887 -15.01916,0.72901 1.66712,-4.0496 2.09703,-7.99887 1.26375,-11.81111 -0.83441,-3.81147 -2.68273,-7.50799 -5.54106,-11.0821 l -3.59682,-11.0821 c -0.95351,-3.81146 1.2227,-6.44426 6.46456,-7.87412 -1.66824,-7.38496 -1.66824,-12.60202 0,-15.69972 1.66714,-3.3349 2.83293,-6.06957 3.54822,-8.21429 0.35708,-1.07182 1.06655,-1.67935 2.13865,-1.79849 z m -77.91495,9.67261 c 0.95247,2.14472 3.55858,5.43809 7.72831,9.9641 4.16872,4.52709 9.56304,8.12174 16.23431,10.74193 l -8.94345,7.48528 c -1.42996,0.71516 -2.74636,0.5111 -3.93707,-0.68048 -4.28884,-4.52616 -9.40385,-8.93194 -15.3594,-13.22075 -1.19169,-0.4761 -1.39569,-1.43779 -0.68048,-2.86781 z M 267.45512,134.3515 261.62244,246.24184 152.84286,217.37005 c 6.92872,-15.84686 25.25948,-42.08772 41.41207,-53.85513 16.15258,-11.76756 49.15561,-27.65423 73.20019,-29.16342 z m 65.03444,0.38885 c 29.48548,1.07352 52.97366,14.10078 70.13803,27.21919 19.20322,16.0685 35.39726,35.31667 44.47423,55.26461 l -108.73097,28.82326 z m -32.51722,21.82388 32.51722,97.55173 h 106.15486 l -87.19864,62.89579 32.51722,101.09987 -83.99066,-63.57626 -83.94205,63.57626 32.51721,-101.09987 -87.19864,-62.89579 h 106.10626 z m -233.356001,47.8767 2.867737,3.54814 -9.62393,25.76102 c 1.667588,-10.72047 3.897182,-20.49388 6.756193,-29.30916 z m 21.094877,7.48528 c -5.003199,9.29185 -8.801817,17.64675 -11.422341,25.03186 l -2.867737,-0.34016 7.485279,-23.23353 z m -16.088489,38.98177 -7.145039,19.29639 -5.006388,16.76905 1.798412,-14.29008 2.478891,-10.35309 2.187256,-10.35294 z m 436.722283,6.75612 c 0.9524,4.52694 2.8274,8.83084 5.68686,12.88059 -1.19176,3.1e-4 -2.53487,-0.27904 -4.08288,-0.8749 -1.54913,-0.59525 -2.58622,-1.5571 -3.06216,-2.86782 -0.47703,-1.30994 0.0282,-4.37265 1.45818,-9.13787 z m -456.018749,2.5275 c -2.382503,19.05965 -4.408109,33.94809 -6.075713,44.66872 l -1.409565,-2.86782 c -1.429537,-2.14378 1.052667,-16.07052 7.485278,-41.8009 z m 33.246304,1.40964 6.415953,2.86766 c 1.429304,0.71516 1.783915,1.92945 1.069326,3.59682 -1.429583,6.43291 -2.240793,13.06833 -2.478891,19.97702 -1.4e-4,1.42971 -0.709333,2.28953 -2.138651,2.5275 l -16.817575,2.47881 c -1.906044,0.47688 -2.867845,1.69133 -2.867737,3.59683 -0.4766,8.33887 -0.4766,16.64523 0,24.98333 -1.08e-4,2.38269 1.112301,3.69917 3.256583,3.93714 l 16.428729,2.5275 c 1.429318,0.23844 2.138511,1.04972 2.138651,2.47881 0.476351,7.1476 1.287545,13.83155 2.478891,20.02556 0.238098,1.66799 -0.320502,2.83375 -1.749806,3.54829 l -15.408009,7.53381 c -2.144297,0.71501 -2.853489,2.38595 -2.138651,5.00646 1.667573,7.62387 3.945773,14.66259 6.804799,21.09488 l -0.34024,1.40949 c -2.144297,-3.33506 -4.169903,-8.17074 -6.075713,-14.4845 -1.906059,-6.31315 -2.51325,-10.54161 -1.798411,-12.68602 1.90581,-3.3352 1.298604,-6.4245 -1.798411,-9.28376 -2.382536,-2.38207 -5.471945,-13.11733 -9.28369,-32.17699 0.238129,-5.00273 2.263735,-12.49796 6.075713,-22.50436 3.811745,-10.00578 9.888563,-22.15954 18.22714,-36.45428 z m 463.844265,0.38884 5.73547,5.68679 c -3.81247,-1.1908 -5.73606,-3.06581 -5.73547,-5.68679 z m -40.68298,12.49159 7.04783,1.26375 c 3.56867,5.9565 6.57899,10.77243 10.79047,16.96347 l -13.94984,-2.13865 c -1.26854,-0.19458 -1.89727,-1.43857 -2.13865,-2.86781 -0.52358,-3.10004 -1.43197,-11.88422 -1.74981,-13.22076 z m -43.06465,6.02711 c 1.29673,7.8931 1.75104,14.10483 1.55538,21.48372 -0.24034,9.06353 -1.00007,17.99423 -2.28447,26.92757 -3.50106,-1.72259 -6.74174,-2.18936 -9.47811,0.92358 -1.00758,1.14616 -1.69691,2.97887 -1.45817,6.07564 l 0.72908,3.25666 c 0.71422,2.38269 1.52541,4.40826 2.47889,6.07563 0.74753,1.29549 1.47463,2.59874 2.13865,3.93715 -4.3979,12.98464 -9.06044,25.00759 -13.56099,33.19762 -7.06102,12.84964 -13.68069,21.95453 -23.57377,32.51729 l -61.48622,-94.34376 z m -331.10208,0.14621 104.64809,39.90536 -61.43762,94.3436 c -14.89639,-13.56822 -25.5344,-31.21061 -32.22558,-48.55702 2.47671,-10.44284 4.08557,-16.49452 5.39523,-32.85746 0.30941,-3.86575 -0.54619,-7.50954 -1.45817,-9.18656 -1.37138,-2.52158 -3.32454,-2.51287 -4.2773,-1.79833 1.05889,-1.60827 1.6662,-3.05291 2.52749,-5.15221 1.25935,-3.0697 1.19101,-5.12249 0,-6.07579 -2.17517,-1.45786 -6.05224,-1.01924 -12.68609,2.57618 -0.97346,-5.16371 -1.58313,-9.53823 -3.20797,-14.53318 0.28498,-6.87401 1.04548,-12.68928 2.72192,-18.66459 z m -6.46456,18.85901 c 2.62048,6.90932 4.74808,19.6969 6.41595,38.39851 1.66751,18.70224 1.66751,35.54096 0,50.54994 -1.57759,19.30432 -6.64582,32.20249 -14.29008,48.60571 -1.7e-4,-14.77069 0.17713,-26.77374 0.53467,-36.06544 0.35719,-9.29108 0.71179,-21.62215 1.06932,-36.98886 0.3572,-15.36641 1.39431,-32.81236 3.06216,-52.34843 0.9528,-4.76445 0.70019,-5.87686 -0.72908,-3.25651 -3.81203,19.77592 -6.09024,45.14546 -6.8048,76.11655 l -0.34024,20.36586 -0.72909,27.89968 -4.61754,-5.34663 c -3.33553,-16.67665 -4.80254,-34.19804 -4.32591,-52.54284 0.71458,-13.57943 2.89079,-28.21527 6.46456,-43.93957 5.0029,-19.77373 9.76332,-30.25639 14.29008,-31.44781 z m 458.06018,3.69404 c 2.09117,-0.16285 4.01188,0.40206 5.78408,1.65259 2.14352,3.57396 3.10532,7.09332 2.86774,10.54752 -0.23889,3.45481 -1.45329,7.32865 -3.59682,11.61668 4.52594,3.1e-4 6.90614,1.77329 7.14503,5.34663 -1.90657,8.10059 -5.70519,13.92472 -11.42234,17.49806 5.24068,0.95329 8.05079,2.62424 8.40879,5.00646 0.35673,2.38269 -0.17518,4.33299 -1.60399,5.88122 -1.43009,1.54885 -4.16491,2.9406 -8.21436,4.13156 l -3.93706,-7.14512 c 0.2376,-5.71743 -1.68601,-11.18709 -5.73548,-16.42873 1.66706,-1.42909 4.29987,-2.8476 7.87413,-4.2773 2.62001,-1.19096 2.16343,-1.59411 -1.40957,-1.11786 -3.81249,0.71501 -6.7999,1.67686 -8.94345,2.86766 h -0.72908 c 2.14353,-7.62339 5.58755,-14.86603 10.35301,-21.77535 1.19057,-3.09677 0.48138,-2.99474 -2.13865,0.34031 -4.05073,5.71806 -7.59674,11.79494 -10.69326,18.22707 -1.43006,-1.42909 -2.54247,-4.06189 -3.25658,-7.87413 -0.95357,-4.52616 -1.66278,-4.62819 -2.13865,-0.34016 0.71411,5.47977 1.77791,9.42904 3.20798,11.81111 -5.24194,8.10059 -9.39514,11.29193 -12.49167,9.62393 1.90533,-11.43533 4.43614,-23.43822 7.53389,-36.06544 5.47892,-5.4793 10.23934,-7.30081 14.29007,-5.39515 3.2159,-2.54601 6.15761,-3.92205 8.84624,-4.13156 z m -105.6688,3.88845 c 0.21974,-0.0233 0.45989,-0.0202 0.68048,0 0.58823,0.0529 1.20266,0.27468 1.79841,0.63195 2.38188,1.42971 3.90228,2.9501 4.61754,4.61747 0.71418,1.66799 1.77799,1.3888 3.20798,-0.8749 1.42889,-2.26293 2.64331,-3.04747 3.59682,-2.33308 0.95242,0.71501 1.94091,2.13352 3.01355,4.2773 1.07154,2.14457 1.85663,4.42258 2.33308,6.8048 0.47652,2.38269 0.90583,6.71335 1.26374,13.02633 0.35681,6.31377 -0.42754,10.54239 -2.33307,12.68617 -1.90632,2.14457 -2.96299,4.77876 -2.86774,7.87413 0.38131,12.39204 1.43774,18.54094 2.86774,18.42148 1.4289,-0.11821 3.1752,-1.08068 5.20081,-2.86766 2.02449,-1.78666 3.7975,-2.46917 5.34663,-1.99291 1.54801,0.47673 2.43451,3.96934 2.67331,10.40162 0.23768,6.43276 0.84489,7.06673 1.79841,1.94423 0.95241,-5.12187 2.72541,-7.67939 5.34663,-7.6797 2.62009,3.1e-4 3.12529,6.88832 1.45817,20.70603 -9.29198,8.33872 -15.976,15.27541 -20.02555,20.75472 -1.42999,-5.95587 -1.5053,-10.10906 -0.19442,-12.49175 1.30979,-2.38207 2.52418,-5.0903 3.59682,-8.06855 1.07153,-2.97778 1.95803,-5.63732 2.67331,-8.01986 1.90536,-5.71759 1.55078,-6.22277 -1.06932,-1.45817 -1.43,2.8591 -2.67111,5.38987 -3.74264,7.53381 -1.07264,2.1444 -2.36235,4.27201 -3.79125,6.41595 -0.47702,-3.81162 -1.99743,-10.5976 -4.61754,-20.36571 -2.14471,-6.67057 -2.75191,-6.56854 -1.79841,0.34016 1.90539,11.19766 3.22179,22.03479 3.93706,32.51729 -4.05065,-4.28819 -8.17716,-7.98471 -12.34585,-11.0821 -4.16974,-3.09692 -7.79106,-6.39029 -10.88767,-9.96424 -2.62118,-1.66737 -3.07778,-1.46346 -1.40957,0.68048 2.85837,3.81208 7.08688,8.2933 12.68609,13.41517 5.59813,5.1225 8.96684,8.53983 10.15859,10.2072 1.19066,1.66799 1.89987,3.08634 2.13865,4.2773 -2.14471,2.85911 -4.62692,5.84653 -7.48528,8.94345 -1.66822,-0.95267 -2.63002,-2.59702 -2.86773,-4.86057 -0.23878,-2.26308 -1.02329,-3.93403 -2.33308,-5.00631 -1.31086,-1.07197 -5.28677,-4.33858 -11.957,-9.81835 -5.95656,-5.24118 -7.88016,-10.00158 -5.73547,-14.29008 -1.66821,-2.14394 -3.16191,-4.62617 -4.47173,-7.48528 -1.31083,-2.85864 -0.98294,-5.66875 0.92351,-8.40886 1.90541,-2.7395 6.31123,-1.49846 13.22075,3.74271 1.19068,-4.0499 1.19068,-7.84846 0,-11.42242 -1.19173,-3.57333 -2.61013,-7.16798 -4.2773,-10.74178 -3.09767,-5.71759 -6.08508,-10.58002 -8.94345,-14.6304 -2.62118,-5.47915 -3.22838,-8.5686 -1.79841,-9.28361 1.42893,-0.71454 3.70713,0.2473 6.8048,2.86766 5.9555,-6.43213 9.85612,-8.28055 11.76258,-5.54105 1.9054,2.74011 3.47441,7.3232 4.66615,13.75549 1.19067,6.43276 1.29266,13.06817 0.34024,19.97687 l -1.40957,1.45817 1.40957,1.40965 c 0.47594,1.4297 -0.0826,6.79733 -1.74981,16.08841 -5.4e-4,1.90627 0.55806,3.82982 1.74981,5.73547 -0.47698,-2.85864 -0.57903,-5.03477 -0.34024,-6.46448 0.23771,-1.19096 1.02221,-3.95254 2.33307,-8.36018 1.30979,-4.40718 1.94368,-6.9381 1.94423,-7.53396 -5.5e-4,-0.59525 -0.96233,-1.02516 -2.86774,-1.26375 2.14365,-0.71439 3.53534,-1.70299 4.13149,-3.01356 0.59506,-1.30994 0.69706,-2.62642 0.34024,-3.93698 -0.3579,-1.3101 -0.56196,-5.08206 -0.68048,-11.27652 -0.11961,-6.19401 -0.72688,-10.87913 -1.79841,-14.09566 -1.07264,-3.21607 -1.75513,-5.69815 -1.99284,-7.48528 -0.23876,-1.78652 -1.65718,-2.82364 -4.2773,-3.06224 -2.62118,-0.23782 -6.31779,2.39498 -11.0821,7.87412 2.14366,-10.24406 4.34656,-17.10532 6.61037,-20.56013 1.48494,-2.26682 2.98208,-3.48297 4.52034,-3.64551 z m -465.010805,5.54074 c 0.253138,0 0.509668,0.0373 0.777691,0.0964 1.429381,3.1e-4 4.69609,3.36896 9.818354,10.15852 5.122108,6.79017 12.085432,22.03324 20.900454,45.73805 8.814835,23.70528 14.209151,39.27621 16.234306,46.66148 2.024937,7.38558 4.050543,13.81709 6.075713,19.29639 2.024937,5.47977 4.480451,11.05146 7.339462,16.76905 4.288221,8.57684 8.592027,14.44966 12.880512,17.54658 5.717649,4.05021 9.870863,4.75947 12.491663,2.13865 l -9.623926,-19.68523 c -1.667821,-3.5735 -4.198631,-4.88982 -7.533885,-3.93714 -5.479675,0.23844 -7.709285,-2.9529 -6.756193,-9.62393 0.476352,-4.28819 1.996754,-11.68139 4.617542,-22.16421 5.241173,-17.62964 12.736406,-35.15087 22.504442,-52.54269 -1.19136,7.62402 -1.74996,14.05537 -1.74981,19.29639 -8.815064,19.77436 -15.246493,35.72652 -19.296461,47.8767 -2.144297,8.81513 -2.04231,13.11887 0.34024,12.88043 l 2.867737,-1.40948 -2.138651,-5.00647 1.409565,-3.93698 4.277303,7.48527 2.527496,-1.7498 2.138652,3.20798 -2.138652,3.20797 16.088491,23.23353 3.88845,-3.20798 2.86774,3.20798 c -4.76499,4.76491 -6.63999,7.85437 -5.68687,9.28361 4.28819,7.86215 8.1888,14.19162 11.76258,18.95623 7.14707,10.48281 12.97129,13.42155 17.49806,8.89492 1.42927,-1.19111 3.25087,-0.93852 5.39523,0.72901 2.14397,1.66783 4.52418,5.26248 7.14504,10.74194 l -0.38884,-8.21445 -13.22076,-12.54027 -7.48527,-15.01908 c -6.19446,-8.81482 -10.60026,-15.6008 -13.22076,-20.36587 -2.62082,-4.76461 -5.88752,-10.43818 -9.81835,-17.10921 -3.93114,-6.67057 -8.766852,-14.21433 -14.484501,-22.55305 l 1.069326,-3.93698 11.422345,13.94976 c 10.24421,13.10347 17.46015,23.05419 21.62954,29.8439 4.16904,6.79002 6.62456,8.38585 7.33946,4.81204 l 2.13865,-6.75627 3.20798,1.74981 -2.13866,13.94991 -0.72908,4.27731 c -0.23843,3.33551 0.44408,5.33434 1.99283,5.92989 1.54839,0.59571 2.89147,2.7986 4.08288,6.61038 0.71453,2.38253 4.48644,7.32025 11.27653,14.82466 6.78966,7.50472 13.93029,13.78551 21.43512,18.9077 7.50436,5.12218 13.68318,9.32405 18.56738,12.54027 4.88369,3.21638 7.23721,6.38096 6.99922,9.47804 l 6.75619,1.40964 -1.7498,-8.55461 4.2773,-1.06932 c 2.14391,1.42955 3.9169,4.01366 5.34662,7.82544 6.19401,4.76491 11.56162,8.61215 16.08849,11.47095 l -15.69964,2.81913 -26.83035,-16.03989 -24.64309,-16.47725 -4.66615,-6.07579 c -1.42966,-1.66753 -3.37997,-2.02216 -5.88129,-1.06933 -2.50174,0.95314 -4.45204,-0.46537 -5.88129,-4.2773 -6.43271,3.81193 -13.01473,2.39358 -19.68532,-4.2773 l -11.76258,-14.29008 -11.0821,-18.95623 -3.93706,-2.86766 c -5.956183,3.81194 -13.602008,1.22782 -22.893288,-7.82559 C 76.501589,465.80681 69.360967,453.50248 58.401975,432.0606 43.869148,404.42487 33.993729,383.61012 28.752494,369.55366 c -3.811932,-11.67345 -6.294136,-19.06681 -7.485279,-22.1642 -1.191268,-3.09677 -1.696472,-3.17205 -1.458172,-0.19442 0.238176,2.9784 2.011188,9.66235 5.346628,20.02555 3.335301,10.36382 9.562726,25.5316 18.615986,45.54362 7.861868,16.20056 15.609696,30.98696 23.233528,44.32841 -17.629967,-19.05919 -30.390808,-36.93505 -38.252691,-53.61217 -7.862039,-16.43838 -13.127648,-31.68144 -15.74825,-45.7379 -1.191268,-5.00288 -1.90046,-12.67528 -2.138651,-23.03911 -0.2383,-10.3632 -0.08772,-16.16073 0.388845,-17.35231 1.042262,-3.12663 2.456743,-4.68839 4.228697,-4.71468 z m 127.589985,1.36096 c 2.16266,-0.15616 2.39661,1.29641 0.72908,4.42304 l -6.75619,10.01278 c -0.47666,-4.04975 -0.74363,-7.59105 -1.45817,-10.45015 2.38222,-1.66737 4.3202,-2.88664 6.46456,-3.83993 0.38712,-0.0887 0.71177,-0.12443 1.02072,-0.14621 z m 390.25522,0.14621 6.8048,11.0821 c -1.1918,12.38878 -3.31941,23.68273 -6.41596,33.92679 -3.09771,-2.38223 -7.14894,-2.23151 -12.15142,0.38884 l -11.0821,-5.39562 c -1.43002,-0.71454 -2.09983,-1.89041 -1.79841,-3.54829 1.1283,-6.20567 1.98322,-11.83258 2.38168,-19.00476 0.0804,-1.44682 0.85785,-3.24158 2.28446,-3.49961 l 15.69965,-2.81913 c 2.14359,-0.47626 3.3094,-1.89462 3.54821,-4.27731 z m 20.36579,5.00631 c -3.33598,18.10667 -6.5274,33.34974 -9.62393,45.73805 l -5.00639,-2.86781 c 4.28776,-17.15308 6.92057,-31.1817 7.87413,-42.14108 1.42885,-0.47626 3.65846,-0.72885 6.75619,-0.72916 z m -408.19073,6.8048 c 1.58668,-0.10266 2.22308,2.40804 1.89562,7.48527 -0.71491,10.72126 -3.76119,30.57914 -7.92273,42.57861 -0.23842,-13.10301 -0.51441,-20.58409 -1.02072,-29.01753 l 3.20798,-8.89493 c 0.23805,-3.09676 -0.36914,-3.24748 -1.79841,-0.38884 l -1.84702,3.30519 -0.63187,-6.51317 5.34663,-6.8048 c 1.1167,-1.11661 2.04931,-1.7033 2.77052,-1.7498 z m -36.35707,10.35309 c -2.33657,9.9291 -3.36706,18.17247 -3.93706,21.77536 -10.482765,18.10652 -18.585189,36.13309 -24.302853,54.00086 -1.429568,5.47977 -2.595374,12.01316 -3.548217,19.63671 -0.714853,-9.76765 0.88086,-23.41504 4.811965,-40.92601 3.930857,-17.51003 12.919786,-35.66554 26.976165,-54.48692 z m 460.68489,10.839 c 2.0546,-0.0887 3.70654,3.44906 4.95779,10.59604 -0.71535,12.62707 2.37406,18.60191 9.28369,17.8869 1.19058,0.71501 1.36788,4.00838 0.53466,9.96425 -0.83448,5.95618 -2.78479,11.1199 -5.88129,15.40793 -9.76852,11.19767 -13.81973,17.83309 -12.15143,19.97703 2.62004,4.52678 2.16345,9.64181 -1.40956,15.3594 -5.24192,6.43259 -12.17854,13.62188 -20.75464,21.48372 2.38182,4.76492 0.60881,8.81622 -5.34663,12.15143 -6.90958,3.81193 -14.55541,7.10545 -22.89329,9.96409 15.48511,-11.67361 25.05456,-24.18184 28.62877,-37.52361 5.00246,-4.52631 9.40829,-7.46521 13.22075,-8.89476 3.33477,-2.1441 3.89337,-3.10579 1.7498,-2.86782 -4.28895,1.668 -8.79677,4.30079 -13.56099,7.87413 4.52598,-9.05295 7.766,-18.82635 9.67254,-29.30917 9.2908,-9.05294 15.11502,-16.19355 17.49805,-21.43519 3.33476,-5.00273 3.43676,-6.11514 0.34024,-3.2565 -3.57424,5.95618 -9.04386,12.28565 -16.42873,18.95622 3.33476,-10.24422 6.32218,-21.68857 8.94345,-34.31563 1.19059,-7.38527 0.83599,-8.70174 -1.06932,-3.93714 l -3.59683,12.54027 c -1.6683,-5.00273 -3.5433,-8.84997 -5.68686,-11.47094 l 4.61754,15.01924 c -0.95357,5.95618 -3.23179,14.41326 -6.8048,25.37218 -3.33598,-9.52952 -7.74179,-18.08848 -13.22075,-25.7125 -5.00365,-6.194 -5.81486,-6.29603 -2.47889,-0.34016 5.47896,7.86215 9.98677,18.19424 13.56099,31.05897 -2.85949,11.43579 -6.20151,20.9566 -10.01278,28.58015 -2.85949,-4.28819 -5.79829,-7.22693 -8.89484,-8.89476 -2.383,-1.19112 -2.383,-0.48186 0,2.13865 3.09655,3.09723 5.57877,6.18669 7.48528,9.28361 -2.85948,6.90916 -6.63139,12.98604 -11.27653,18.22722 -4.64627,5.24148 -9.2294,9.64726 -13.75541,13.22075 5.71721,-8.81482 7.64083,-18.58822 5.73547,-29.30932 -5.7e-4,-1.90565 1.49314,-3.47472 4.47173,-4.66615 2.97739,-1.19095 3.96593,-2.50743 3.01355,-3.93698 -2.62124,-5.24117 -3.88903,-9.39436 -3.88846,-12.49175 1.90536,-0.95267 4.74216,-0.95267 8.55461,0 3.09655,-2.14394 2.81725,-5.15796 -0.8749,-9.08919 -3.69332,-3.93076 -6.04683,-9.62626 -6.99923,-17.01199 -5.7e-4,-4.28819 2.88485,-5.80858 8.60321,-4.61762 2.62008,-0.23798 2.82407,-3.32743 0.68048,-9.28361 l -6.07571,-8.21445 c -4.28892,-9.52936 -2.4673,-13.02197 5.39523,-10.40162 l 9.28369,5.73548 c 6.19368,2.38269 9.18109,-1.7705 8.94345,-12.49159 -6e-4,-2.38223 1.84771,-2.91401 5.54106,-1.60407 3.69212,1.31057 7.06083,-1.49954 10.15859,-8.40871 0.77413,-0.83384 1.50239,-1.28272 2.18725,-1.31243 z M 91.308038,357.3058 c -4.793518,8.57872 -7.734777,14.95236 -10.207198,23.86548 -1.84963,-4.75045 -3.407377,-10.09054 -4.082879,-14.29008 -0.238363,-1.19095 -0.06206,-2.55549 1.069325,-3.06223 z m 208.664302,7.63118 70.76991,87.49027 c -18.89431,10.74847 -47.76658,16.19309 -70.08943,15.79678 -22.32285,-0.39632 -50.06842,-5.28131 -71.79063,-15.79678 z m 171.03529,7.9872 c -3.26783,-1.02858 -6.2188,-1.7285 -8.82164,-0.8326 -2.13264,0.73399 -4.41327,2.87964 -4.97419,4.21913 -0.79432,1.89664 -1.31422,4.03389 -1.06932,6.07564 0.33442,2.78818 1.25572,6.10192 2.47169,7.88843 0.33182,0.48761 1.46537,2.46466 1.46537,2.46466 -0.87666,4.16827 0.55172,8.39767 3.20798,11.47095 4.40658,5.09823 10.16294,9.69345 14.82474,13.4637 -1.02041,4.08428 -1.76603,10.73727 -1.94423,14.38729 -0.1782,3.65002 0.35498,6.19742 0.72908,9.28377 -2.06968,3.54627 -3.59226,6.02804 -6.07571,9.33229 l -6.99922,-0.68048 c 0,0 -3.56528,-2.82908 -5.44384,-3.6455 -2.12417,-0.92312 -4.90557,-1.0813 -7.19365,0.82637 -5.25797,4.38354 -11.09154,8.98903 -15.74824,12.78323 -2.24671,1.55958 -4.1271,3.76278 -3.06216,6.31874 1.76761,4.24246 5.00897,10.77398 6.8534,14.97055 0.5027,1.14383 1.01581,2.72768 -0.72908,3.83993 -6.46478,4.12099 -11.66206,7.862 -17.8383,11.17932 -1.79368,0.96324 -2.50088,0.83228 -4.47172,-1.31244 -3.0232,-3.28979 -5.50887,-6.4973 -8.60321,-9.72114 -3.34958,-3.48965 -6.01902,-2.08981 -8.79764,-0.53458 -5.6838,3.18122 -12.24848,6.21095 -18.03271,9.1864 -2.6211,0.95314 -3.39436,3.92718 -3.20798,5.10368 0.81516,5.14505 1.1731,8.29454 1.79841,13.4637 0.41698,3.44704 -0.77299,4.18678 -2.23586,4.76336 -6.85037,2.7003 -10.81693,4.16593 -18.17854,5.97858 -2.20187,0.54205 -3.52667,0.17809 -4.2773,-1.40965 -2.49105,-5.26917 -4.76908,-10.2341 -7.14504,-15.3594 -1.23566,-2.66546 -2.94841,-2.93625 -5.54105,-2.47881 -7.14762,1.66783 -13.90243,1.73907 -19.83113,2.47881 -2.94253,0.36723 -5.77925,1.28724 -6.41595,6.02711 -0.34945,4.2535 -1.13034,8.50545 -1.79841,12.54027 -0.66166,3.99625 -1.66244,3.52948 -4.95778,3.79125 -6.53281,0.51903 -11.90025,0.38573 -17.78969,0 -3.61314,-0.23642 -3.79593,-0.52448 -4.42312,-4.18009 -0.85613,-4.98983 -1.19771,-8.29735 -1.84702,-13.31797 -0.65041,-3.2579 -3.60821,-4.62602 -7.09643,-4.81189 -5.23959,-0.27934 -12.89297,-1.36687 -21.09488,-2.7706 -1.67564,-0.28681 -3.92381,1.52645 -4.2773,2.72192 -2.39218,5.11581 -4.48456,10.37798 -7.14504,15.3594 -0.71879,1.34588 -2.42716,1.92463 -4.2773,1.40965 -6.4452,-1.79429 -12.47285,-3.71503 -18.66459,-6.02711 -1.68162,-0.62806 -1.78897,-1.60515 -1.7012,-2.5275 0.56998,-5.99133 1.48817,-11.86865 2.13865,-17.54673 -2.8e-4,-1.42925 -0.81148,-2.49313 -2.47889,-3.20798 0,0 -9.78434,-4.27139 -11.51956,-5.29795 -1.73521,-1.0267 -6.7568,-3.92516 -10.30441,-5.78415 -2.27295,-1.19096 -3.96395,0.78547 -5.00638,1.79849 l -2.81913,3.20797 -5.73548,6.07564 -1.06932,1.06932 c -0.9532,0.95314 -2.37162,1.1037 -4.27731,0.38885 l -2.52749,-1.45817 -10.35302,-6.07564 -4.61754,-3.30518 c -2.28831,-1.63098 -1.13558,-2.61289 -0.0972,-4.56894 2.2992,-4.33128 5.54145,-9.41007 6.8534,-13.90123 -0.0277,-2.35345 -0.26832,-2.78072 -1.79841,-4.56894 -1.09242,-1.27681 -4.38478,-3.65266 -5.68687,-4.71483 -2.49996,-2.03911 -4.12159,-3.27844 -6.51316,-5.44384 -1.12955,-1.02266 -2.98396,-3.00951 -4.2287,-3.88846 -1.8104,-1.27821 -2.79191,-2.14767 -5.00639,-2.23586 -2.67911,-0.10732 -5.03661,1.09343 -7.38806,2.38176 -1.5829,0.86712 -5.49245,3.11076 -5.49245,3.11076 h -4.61754 l -2.04144,-3.4024 -3.4024,-5.00646 c 5.53155,-9.23306 10.1533,-22.74794 12.58888,-31.98256 2.31419,-8.77422 3.25869,-16.45019 4.52033,-26.87888 2.0152,-4.77658 3.10686,-7.52898 4.66615,-11.76258 7.25376,18.60798 20.5136,35.79838 33.73236,47.19607 l 58.52127,-90.16367 -35.67659,111.25854 88.26797,-66.83292 -65.71492,80.34531 c 24.64236,13.30941 50.82336,18.28243 77.08865,18.32427 26.2653,0.042 52.43703,-4.6002 74.90139,-18.47016 l -64.84001,-80.19942 88.26797,66.83292 -35.53078,-110.82101 58.52127,89.77467 c 7.6689,-7.26846 19.34313,-21.82793 26.29594,-35.34763 6.95281,-13.5197 9.07857,-19.76689 12.73894,-31.25386 1.6125,1.63253 3.20882,4.20856 4.23624,6.24471 1.51459,3.00189 2.47354,5.39655 3.77921,8.49456 1.05341,2.49935 2.01414,4.36799 1.98464,5.89724 z m -367.54817,23.41208 c -0.23839,7.86215 0.47082,15.96461 2.13866,24.30286 l -7.874128,-10.01278 z m 415.5788,3.59683 -0.34024,8.89476 c -14.29504,17.63011 -23.25728,29.68183 -26.83035,36.11412 -12.15083,18.34465 -20.35526,32.87861 -24.64309,43.59924 -2.62116,5.95618 -6.4198,10.71659 -11.42234,14.29008 -3.81237,1.90612 -6.69778,3.93169 -8.60321,6.07579 -1.66818,3.09723 -0.70638,3.90837 2.86773,2.47881 2.38192,-2.38222 5.01471,-4.1552 7.87413,-5.34662 5.24078,-2.62051 16.43263,-14.97818 33.58654,-37.13476 l -0.34024,-12.54028 3.93706,-6.8048 c -0.23879,6.90917 0.31981,10.75641 1.74981,11.47095 1.4289,0.71501 3.42781,-1.28397 5.9299,-5.9299 2.50097,-4.64546 8.60448,-17.43303 18.37295,-38.3985 -2.14475,6.43275 -2.24673,12.05297 -0.34024,16.81757 -5.71836,4.05037 -7.28737,10.93838 -4.66615,20.70603 l -11.76258,10.74194 c -4.76532,5.24148 -6.33439,10.71099 -4.66614,16.42873 -6.67132,3.57365 -13.10272,8.79071 -19.29647,15.69957 -6.19479,6.90916 -10.87992,12.78197 -14.09565,17.54673 -3.21679,4.76492 -6.63409,7.60178 -10.2072,8.55461 -4.05061,1.90596 -8.66042,0.94427 -13.90124,-2.86782 l -1.45817,8.94345 -23.96261,14.6304 -5.68687,-10.69326 c 16.43819,-8.57669 25.95901,-16.42639 28.58016,-23.57384 3.33488,-5.95587 6.92949,-10.89359 10.74186,-14.82467 3.81136,-3.93091 6.54617,-8.7666 8.21436,-14.4845 l 0.34024,-8.60328 -1.06932,-8.89477 c 3.81134,4.2885 7.25536,5.20167 10.35301,2.81913 5.00255,-9.29123 10.37016,-17.92563 16.08849,-25.90692 5.71725,-7.98082 11.79408,-15.40078 18.22714,-22.30994 6.43196,-6.90885 11.90157,-12.73298 16.42873,-17.49805 z m -37.5236,21.77535 c 0.2377,3.5738 0.9469,6.05604 2.13865,7.48528 l -3.54822,6.07564 z m -379.51337,21.09488 10.01278,16.76889 -1.06933,2.13865 -11.082097,-16.76889 z m 43.84235,5.83268 c 0.92027,0.0202 1.66054,0.75545 2.28447,1.31228 4.391,4.89012 9.6414,9.17085 15.35941,13.22075 1.19091,0.71486 1.5456,1.77874 1.06932,3.20798 l -7.53389,15.01924 c -0.47669,1.90597 0.0285,3.42651 1.45818,4.61746 6.67055,5.0032 13.81117,9.40914 21.43511,13.22076 1.66747,1.19142 3.23648,1.19142 4.66615,0 l 11.0335,-12.49159 c 0.95272,-1.19111 2.06513,-1.29315 3.25658,-0.34032 6.19402,3.5738 12.27083,6.56123 18.22714,8.94345 1.42918,0.71485 1.98778,1.88077 1.74981,3.54829 l -2.13866,17.15774 c -0.23851,2.14425 0.82531,3.56276 3.20798,4.2773 7.14697,3.09724 14.79279,5.47744 22.89329,7.14512 2.38211,0.23828 4.05312,-0.32025 5.00639,-1.74981 l 7.48528,-16.47741 c 0.71441,-1.42924 1.84261,-1.53361 3.59682,-1.06932 6.36976,1.68619 13.11621,2.28936 20.02555,2.52749 1.42912,1.6e-4 2.24031,0.70941 2.47889,2.13865 l 2.47889,16.76905 c 0.47615,1.90597 1.69055,2.86782 3.59682,2.86766 8.3381,0.47657 16.69315,0.47657 25.03194,0 2.38206,1.6e-4 3.69845,-1.06373 3.93707,-3.20798 l 2.47889,-16.42873 c 0.23786,-1.42924 1.04907,-2.13849 2.47889,-2.13865 7.14687,-0.47625 13.8309,-1.33607 20.02555,-2.52749 1.66731,-0.23813 2.8817,0.36909 3.59682,1.79849 l 7.48528,15.3594 c 0.95256,2.14425 2.62357,2.8535 5.00639,2.13865 7.86155,-1.66768 15.48417,-4.53207 23.23353,-7.8256 1.80765,-0.7682 2.75658,-1.79755 2.47889,-3.93698 l -2.13865,-16.47741 c 0.23781,-1.66753 1.09761,-2.83329 2.52749,-3.54814 5.24088,-2.1441 11.17958,-5.10975 17.8383,-8.94345 1.20347,-0.69293 2.36226,-0.66835 3.25658,0.34016 l 11.42234,12.88059 c 1.42898,1.19127 2.84738,1.34183 4.2773,0.38885 7.38501,-4.52648 14.42363,-9.18485 21.09488,-13.94992 1.90544,-1.19096 2.36203,-2.76003 1.40956,-4.66615 l -6.75619,-15.3594 c -0.64351,-1.46299 0.13501,-2.93019 1.16654,-3.69403 5.86941,-4.34699 10.18987,-8.14383 14.87334,-12.39438 1.19071,-1.19111 2.53374,-1.75541 4.08288,-1.36096 0.78224,0.19909 1.92572,1.03355 2.86774,1.7498 -2.21359,0.34405 -6.51494,2.35983 -6.56177,7.14496 l 1.40957,13.22076 c 0.95247,5.47977 -1.95965,11.58324 -8.74903,18.37295 -6.79037,6.79003 -11.27149,13.04422 -13.41518,18.76181 -1.19168,4.2885 -5.8015,8.94687 -13.90123,13.94991 -0.47696,-1.42939 -2.40056,-3.70756 -5.73547,-6.8048 -0.47694,-0.95282 -1.43876,-1.30745 -2.86774,-1.06932 -8.10067,2.14425 -24.40751,9.28485 -48.94595,21.43504 -4.28876,2.14425 -10.36556,8.47372 -18.22714,18.95622 h -13.94983 c -3.81223,-2.14409 -7.86346,-5.13152 -12.15143,-8.94345 -3.09751,-2.38222 -8.56711,-1.52256 -16.42873,2.5275 -7.38583,-1.66753 -14.77904,-0.14776 -22.1642,4.61762 -4.52691,1.66768 -7.86893,2.02231 -10.01278,1.06932 l -17.49805,-18.90769 c -36.21298,-15.24726 -55.96383,-22.0334 -59.29896,-20.36572 -3.57387,2.14425 -6.20666,5.23371 -7.87413,9.28362 -3.57385,-1.66753 -8.94146,-6.22402 -16.08849,-13.6096 l -11.0821,-12.49159 c -8.1004,-9.05311 -11.44242,-17.61207 -10.01278,-25.7125 l 1.79841,-11.0821 c 0.23806,-1.66752 -0.014,-2.98385 -0.72908,-3.93698 -2.62087,-2.8588 -5.10306,-4.52974 -7.48528,-5.00647 l 5.68687,-3.20798 c 0.35436,-0.18835 0.66536,-0.24995 0.97211,-0.24295 z m 316.66618,5.784 c 0.43752,-0.0155 0.94101,0.0498 1.45818,0.19443 1.69158,0.47221 2.3913,0.45137 4.08287,0.92358 -1.01171,1.68495 -1.64886,2.96316 -2.38167,4.0342 -1.53548,2.24411 -2.55397,2.53325 -5.055,0.38885 -2.18928,-1.87595 -1.16699,-5.45007 1.89562,-5.54106 z m 24.40007,6.61038 v 6.07579 l -8.60321,10.01278 z m 24.98333,5.00647 -1.06932,6.41595 c -3.0977,3.09723 -4.51612,2.84464 -4.27731,-0.72916 z m -391.32455,7.48528 9.3323,13.22075 5.34663,9.67246 1.79841,5.34662 c -3.33557,-1.66752 -6.22097,-4.14976 -8.60321,-7.48528 l -5.68687,-7.5338 -6.07571,-8.21444 z m -41.655087,19.83112 c 0.335045,-0.056 0.77626,0.0156 1.312354,0.19443 10.00601,2.62082 14.615822,5.96271 13.901232,10.01277 -3.09728,5.24133 -4.51568,11.16765 -4.277302,17.83822 l 0.388846,18.61606 c -12.626923,-8.3384 -26.247564,-15.7316 -40.780188,-22.1642 1.667588,-0.23813 3.591207,-0.41544 5.735473,-0.53474 2.144064,-0.11977 3.56248,-0.90352 4.277302,-2.33307 0.714621,-1.42925 -0.601793,-2.28906 -3.937062,-2.5275 -7.385579,1.5e-4 -12.145998,0.60738 -14.290078,1.79849 -1.667774,1.90596 -1.313178,3.93154 1.069326,6.07563 17.153273,8.57685 32.294331,17.18449 45.39773,25.76103 20.726854,13.10332 36.829704,23.79004 48.265464,32.12845 11.19716,-0.23829 26.8968,-1.75867 47.14754,-4.61762 l 30.71881,-5.73548 c 12.62652,-2.38238 25.74197,-4.40795 39.32202,-6.07563 5.00276,-0.7147 11.33217,-1.17136 18.95622,-1.40964 7.6234,-0.23813 14.66202,-0.84535 21.09488,-1.79834 6.19392,11.67393 9.99254,21.90383 11.42234,30.71881 0.71437,4.52663 0.10716,7.05739 -1.79841,7.53381 -28.35107,10.48271 -48.70911,17.09138 -61.09738,19.83119 -12.38882,2.7398 -23.58067,5.14676 -33.58654,7.29085 -25.01559,4.52663 -49.67746,8.22331 -73.97789,11.0821 -6.19445,-1.66768 -24.07031,-10.83386 -53.612093,-27.51083 -20.96536,-12.62681 -35.601199,-22.85687 -43.939559,-30.71887 -9.529736,-10.24421 -13.376944,-16.42312 -11.470947,-18.56738 6.194203,-10.24421 10.396022,-19.30852 12.540273,-27.17051 0.952874,-3.33536 1.156878,-5.96816 0.68048,-7.87412 -2.620742,-8.10012 -0.697138,-12.25331 5.735473,-12.49175 15.962067,-0.95282 26.697303,-1.20542 32.176978,-0.729 2.382286,0.23828 3.902688,-0.47082 4.617542,-2.13866 l 5.395234,-10.74193 -3.256583,-1.40949 -4.617542,7.14496 -0.34024,-8.21429 c -7.8e-5,-0.7444 0.267899,-1.17073 0.826297,-1.26375 z m 443.721497,1.99276 v 7.8256 l -6.8048,-1.74981 0.72909,3.54814 c 1.42888,2.62082 4.0617,4.3938 7.87412,5.34663 l 19.29647,1.06932 8.5546,-0.34016 c 10.00553,0.23829 14.86795,2.69377 14.63032,7.33938 -0.23886,4.64593 0.11572,8.97643 1.06933,13.02633 1.66706,10.24453 5.71828,20.01793 12.15142,29.30932 -1.43008,4.28835 -4.51947,9.30135 -9.28369,15.01909 l -18.56738,12.15143 c -15.96276,11.4357 -37.63722,26.32413 -65.03443,44.66878 -19.53632,0.47641 -43.0324,-1.0925 -70.42967,-4.66615 -19.77448,-2.62066 -42.51276,-7.63366 -68.24241,-15.01924 l -5.68687,-1.40949 2.47889,-2.47897 c 4.0497,-5.24117 6.25261,-8.76053 6.61038,-10.54736 0.35694,-1.78688 -0.25025,-5.83803 -1.79841,-12.15148 -1.54896,-6.31346 -5.98148,-13.78194 -13.36657,-22.35863 v -2.13865 l 5.34662,-0.72916 c 14.77057,0.95313 27.91271,2.87668 39.46784,5.73547 11.55427,2.85895 25.30362,5.49174 41.26624,7.87412 15.48522,2.85895 26.72564,4.55665 33.63515,5.15221 6.9085,0.59571 12.1255,0.31636 15.69965,-0.8749 6.43198,-2.62051 19.64942,-12.39407 39.66225,-29.30917 19.29698,-14.53272 35.60383,-24.66074 48.94595,-30.37864 4.04948,-2.38223 4.22678,-4.07993 0.53466,-5.15221 -3.69335,-1.07197 -9.18967,-1.65244 -16.57454,-1.65259 -2.38301,1.90612 -2.17902,3.47503 0.68048,4.66615 3.33477,-0.23813 5.71498,0.0156 7.14503,0.72916 -15.96276,8.33856 -29.2822,16.64493 -40.00249,24.98333 0.95239,-5.47945 1.7636,-14.8497 2.47889,-28.19131 -0.23881,-4.28834 -1.65721,-8.13543 -4.2773,-11.47094 -1.66826,-2.38238 0.60994,-4.50999 6.8048,-6.41596 z m -327.16501,23.71958 c 1.51689,-0.0373 3.21635,0.3705 5.15221,1.26375 l 17.15781,8.21445 29.30924,11.0821 c 7.14694,7.6237 11.55276,12.88945 13.22075,15.74825 -5.95633,0.71469 -12.38776,1.17135 -19.29646,1.40948 l -15.3594,-10.69325 c -6.19457,-7.38543 -10.70238,-12.75305 -13.561,-16.08841 -2.85916,-3.33537 -5.59396,-5.71557 -8.21436,-7.14512 -3.81212,-2.14409 -6.95014,-2.85319 -9.3323,-2.13865 -1.66793,0.47657 -3.44094,2.85677 -5.34663,7.14512 l -0.72908,-0.72917 c 0.95272,-4.0499 2.44643,-6.53214 4.47172,-7.48528 0.7593,-0.35727 1.61737,-0.56087 2.5275,-0.58327 z m 211.87228,1.40965 c 0.84855,-0.0451 1.618,0.41902 2.33307,1.31227 l 2.86774,3.5483 -3.93706,2.5275 c -2.38288,1.90596 -5.32168,2.71725 -8.89485,2.47881 -3.09759,-0.23813 -7.29941,0.799 -12.54027,3.06224 -5.24175,2.26339 -8.07855,5.37944 -8.55461,9.4295 -0.95338,2.85895 -2.2698,4.68062 -3.93706,5.39516 -5.24173,2.85895 -10.00215,5.34118 -14.29008,7.48528 l -11.0821,-0.72901 5.73548,-7.8256 c 2.85849,-3.3352 6.50649,-6.32263 11.03349,-8.94345 20.25009,-10.00593 33.72014,-15.83021 40.39134,-17.49805 0.29769,-0.11977 0.59206,-0.22818 0.87491,-0.24295 z m -208.17825,4.95778 c 0.69986,0.0155 1.41291,0.21495 2.18726,0.6318 l 5.73548,5.00646 2.47889,3.93699 c -3.33565,1.66783 -6.67767,1.66783 -10.01278,0 l -5.68687,-4.32583 c 1.42926,-3.57365 3.19843,-5.29406 5.29802,-5.24942 z m -150.045815,5.97842 -1.798411,2.5275 c 1.191112,0.71486 1.545708,1.62802 1.069325,2.81913 l -15.359403,23.62238 c -0.714807,0.47656 -1.676609,0.326 -2.867737,-0.38885 l -1.749805,2.5275 9.96417,6.41595 1.798411,-2.47881 c -0.953045,-0.47642 -1.205655,-1.18567 -0.729086,-2.13865 l 5.395234,-8.26297 0.34024,0.38884 c -0.47657,6.4326 -0.299272,11.64951 0.534662,15.69957 0.833748,4.05021 3.541871,7.64486 8.068548,10.74194 l 0.68048,-1.79849 c -2.620758,-1.90581 -3.786548,-6.059 -3.548217,-12.49159 0.476383,-3.81178 0.476383,-6.69732 0,-8.60329 3.335285,2.38254 6.703995,2.71041 10.158593,0.92359 3.454396,-1.78683 5.6573,-4.95156 6.610376,-9.47819 0.952843,-4.52648 -0.820153,-8.47575 -5.346628,-11.81111 z m 349.620855,4.90926 c 0.55469,0.0156 1.08671,0.0373 1.65259,0.0964 1.90547,0.23829 2.05609,3.68237 0.38885,10.35294 -1.4299,3.33552 -8.46853,7.38667 -21.09488,12.15143 l -11.81119,-1.40949 12.54028,-7.14512 3.20797,5.00647 h 1.74981 l -1.74981,-5.73548 c -1.19164,-4.05006 0.22676,-7.24139 4.2773,-9.62393 3.33499,-2.50152 6.95619,-3.74613 10.83908,-3.69403 z m 8.11715,0.43737 5.00639,9.3323 -6.8048,2.81913 c 0.9525,-2.38223 1.55971,-6.43353 1.79841,-12.15143 z m -351.322052,2.86782 c 3.573523,1.90596 5.674425,3.75422 6.270136,5.54105 0.595494,1.78682 0.165586,4.14043 -1.263748,6.99922 -1.429552,2.85895 -3.379862,4.45461 -5.881291,4.81189 -2.50163,0.35742 -5.059146,-1.03418 -7.679701,-4.13141 z m 485.327982,2.13865 5.34663,34.31563 c 0.23763,1.19126 -0.36956,2.40555 -1.79841,3.59682 l 0.72909,2.13865 10.01277,-6.8048 -1.06932,-1.40964 c -2.38302,1.42955 -3.59743,1.42955 -3.59683,0 l -1.40956,-5.73548 9.62393,-6.41595 5.00639,3.20798 c 0.95234,0.71485 0.74835,1.52598 -0.68048,2.47897 l 1.40956,2.52749 11.42234,-7.53396 -1.79841,-2.13865 c -0.95359,0.47657 -2.2214,0.47657 -3.88846,0 z m -465.642671,6.07563 -1.069325,1.79849 c 1.667572,0.7147 2.022168,1.92914 1.069325,3.59682 l -15.359403,23.57369 c -0.714823,1.42956 -1.827232,1.68215 -3.256582,0.72917 l -1.069326,2.13865 17.8869,11.42226 6.804799,-3.59682 -1.069325,-1.74981 c -2.859027,1.19127 -7.264835,-0.27576 -13.220753,-4.32583 l 7.145039,-11.03357 3.207977,2.13865 c 1.191081,0.71486 1.293083,1.88062 0.34024,3.5483 l 2.138651,1.45817 5.006388,-8.21444 -1.798411,-1.11786 c -1.19133,1.66768 -2.357136,2.17287 -3.548217,1.45817 l -3.207977,-2.13865 7.145039,-11.47094 c 4.526459,2.62066 6.906661,5.25346 7.145039,7.87412 l 1.798411,0.72901 1.409566,-5.73548 z m 235.494651,3.25666 4.2773,0.34017 3.69404,3.45108 z m -16.38012,1.06933 c 3.63319,-0.11977 7.54457,0.43955 11.71397,1.7498 l 8.60321,3.59683 4.66615,-1.99292 2.47889,2.33308 c 12.14994,13.10332 19.01126,22.06559 20.56022,26.83035 1.54816,4.76491 1.72546,9.37476 0.53466,13.90129 -4.52699,5.95603 -7.76699,8.13232 -9.67254,6.46464 l -1.79841,-5.73547 -9.62393,12.15142 -7.87412,5.00631 c -3.57399,3.09724 -7.27061,4.31152 -11.0821,3.59683 l -12.49167,-6.07564 6.41595,-3.25666 1.79842,1.45817 c -1.19157,3.57365 0.22683,3.06846 4.2773,-1.45817 l 11.0821,-10.69326 c 0.71435,-6.4325 -0.85465,-14.71227 -4.66615,-24.8375 -3.81223,-10.12523 -6.64903,-16.52998 -8.5546,-19.15064 -0.47684,-2.1441 -5.94645,-2.60076 -16.42873,-1.40965 3.09697,-1.54854 6.42819,-2.35967 10.06138,-2.47881 z m 231.84922,0 -8.94345,5.68679 1.45817,2.5275 c 1.42888,-0.71455 2.94929,-0.36008 4.61754,1.06932 l 6.46456,10.69326 -25.03194,-6.07564 -6.8048,5.39516 1.11794,1.7498 c 1.90537,-0.47641 3.78038,-0.12132 5.68686,1.06933 l 12.88052,20.41439 c 0.4759,1.42956 0.12132,2.59532 -1.06933,3.54836 l 1.40957,1.79833 8.60321,-5.34669 -1.45818,-1.79833 c -1.43001,0.7147 -2.59582,0.56414 -3.54821,-0.38884 l -9.67254,-15.69973 31.83674,7.48528 -16.81757,-24.30285 c -0.95355,-2.14409 -0.59895,-4.16967 1.06932,-6.07564 z m 20.36579,1.40949 8.94345,5.73547 -6.8048,4.61762 z m -363.76511,0.34031 16.42873,10.74179 -21.43512,3.54829 z m 240.84128,2.5275 c 0.95248,5.00304 2.97811,9.66157 6.07571,13.94976 -6.19474,-0.95283 -16.17218,-2.77449 -29.98972,-5.39515 l 12.49167,-4.27731 c 6.67029,1.42956 10.4689,0.0156 11.42234,-4.2773 z m -326.241508,5.34663 -1.458172,2.13865 c 1.191066,0.7147 1.545662,1.67655 1.069326,2.86766 l -15.699643,23.96269 c -0.953092,0.95298 -1.914894,1.05502 -2.867737,0.34016 l -1.458171,2.13865 10.401621,6.41602 1.069326,-2.13871 c -1.191346,-0.7147 -1.44394,-1.62787 -0.729086,-2.81914 l 5.346628,-8.26297 1.798411,1.79849 c 4.526443,3.81178 8.754955,4.69835 12.686085,2.67324 3.93083,-2.02495 6.38634,-5.21644 7.33947,-9.62393 0.95281,-4.40733 -0.7182,-8.28132 -5.00639,-11.61669 z m 180.084148,0.34016 -9.28369,34.31563 c -0.71504,1.66774 -1.67686,2.62959 -2.86774,2.86788 l 0.34024,2.13865 10.01278,-2.13865 v -2.13872 c -1.66801,0.23829 -2.47922,-0.0155 -2.47889,-0.72916 l 2.13865,-7.48528 10.35301,-2.5275 3.20798,5.39532 c 0.47615,1.66768 -0.0824,2.73156 -1.74981,3.20797 l 0.34024,2.13865 12.15143,-2.86781 v -2.13865 c -1.90628,0 -3.22269,-0.60707 -3.93706,-1.79834 z m -26.68453,6.02711 c -0.80051,-0.0264 -1.56809,0 -2.33308,0.0482 -5.0999,0.29785 -9.35875,2.11952 -12.7833,5.39531 -4.28862,5.24133 -4.89583,12.63453 -1.79841,22.1642 2.85861,8.33847 9.03743,11.78255 18.56738,10.353 4.76451,-0.95283 8.46113,-2.72596 11.0821,-5.34663 l -1.06932,-8.60319 -2.13866,1.06932 c -3.1e-4,4.52663 -1.41871,7.51412 -4.2773,8.94351 -8.10051,2.38238 -13.57012,-1.56689 -16.42873,-11.81132 -1.19148,-10.72079 1.54332,-17.25417 8.21437,-19.63671 4.76452,-0.71454 8.20853,1.31103 10.35301,6.07579 l 1.40957,-0.34016 -1.06933,-7.14512 c -2.7473,-0.67005 -5.32678,-1.08659 -7.7283,-1.16653 z m -146.98367,1.84702 c 3.33523,1.66783 5.25885,3.59137 5.73548,5.73547 0.47632,2.14425 -0.10421,4.44917 -1.6526,6.95069 -1.54872,2.50152 -3.42372,3.91988 -5.68686,4.27731 -2.263443,0.35742 -4.718956,-0.63118 -7.339465,-3.01356 z m 254.45088,2.52749 -0.38884,2.47897 c 1.1908,0.7147 1.696,1.92914 1.45817,3.59682 l -3.59682,23.91407 c -0.4769,1.4294 -1.64269,2.03662 -3.54822,1.79834 l -0.38885,3.20797 12.54028,1.79849 0.34024,-3.20797 c -1.6681,-0.23829 -2.37731,-1.0981 -2.13865,-2.5275 l 3.54821,-23.91407 c 0.23784,-1.90597 1.35023,-2.76578 3.25658,-2.5275 l 0.68048,-2.47897 z m -128.31906,0.34032 -11.76258,2.13865 0.68048,2.86766 c 1.42917,-0.23813 2.39098,0.21838 2.86773,1.40964 l 3.93707,25.37224 c -2.8e-4,1.4294 -0.70949,2.39125 -2.13866,2.86766 l 0.34024,2.86782 11.47095,-2.13865 -0.38884,-2.86782 c -1.90624,0.47657 -2.86802,-0.13065 -2.86774,-1.79833 l -3.93706,-25.71256 c -2.8e-4,-1.4294 0.85953,-2.1385 2.52749,-2.13865 z m -113.64015,0.72901 -0.68048,1.40964 c 0.95281,1.19127 1.30741,2.60962 1.06933,4.2773 l -5.39524,36.84319 27.51083,-23.62243 c 1.19102,-0.95299 2.40543,-1.05502 3.59683,-0.34032 l 1.06932,-1.40949 -7.87412,-5.00647 -0.68048,1.40965 c 1.19102,0.95298 1.29302,2.01671 0.34024,3.20797 l -15.35941,13.60966 3.54822,-21.43525 c 0.23807,-1.19111 1.19987,-1.44371 2.86774,-0.72901 l 0.72908,-1.45817 z m 162.24585,0.68048 5.00639,8.94345 -7.87412,1.79849 z m 95.80185,1.06932 -2.52749,7.19365 1.79841,1.06932 c 1.42902,-2.62051 4.62043,-3.37844 9.62393,-2.18718 l -4.61755,25.03193 c -0.71515,1.66768 -2.03154,2.37693 -3.93706,2.13865 l -0.34024,2.5275 12.49167,2.13865 0.34024,-2.5275 c -1.66813,-0.47641 -2.37734,-1.5403 -2.13865,-3.20798 l 4.2773,-24.98339 c 5.00262,0.47657 7.88803,2.24955 8.60321,5.34663 l 2.13865,-0.38885 0.34024,-7.82544 c -8.81538,-0.95298 -17.47639,-2.42002 -26.05266,-4.32599 z m -166.18291,2.18734 -11.81119,2.13865 0.34024,2.47881 c 1.66744,-0.23813 2.77986,0.26706 3.25659,1.45817 l 3.93706,25.37224 c -2.7e-4,1.66769 -0.75806,2.73157 -2.18726,3.20798 l 0.38885,2.47897 18.56738,-3.54829 1.79841,-8.60314 -2.13865,-0.34031 c -1.19147,3.57364 -4.28088,5.85197 -9.28369,6.80479 l -4.66615,-26.44156 c -0.23849,-1.4294 0.57271,-2.28921 2.47889,-2.5275 z m -21.62954,3.15929 c -0.62164,-0.0264 -1.25931,-0.0156 -1.94423,0.0482 l -14.33868,2.13865 0.38884,2.47897 c 1.42923,0 2.24042,0.60722 2.4789,1.79833 l 2.86773,26.83041 c -2.2e-4,1.66768 -0.81142,2.58101 -2.47889,2.81913 v 2.5275 l 11.42234,-1.79833 c 10.72062,-1.19127 15.12644,-5.84964 13.22075,-13.94992 -0.71496,-4.05006 -2.74058,-6.43032 -6.07571,-7.14502 2.62042,-1.90597 3.5822,-4.89339 2.86774,-8.94345 -1.25098,-4.37763 -4.05731,-6.62235 -8.40879,-6.8048 z m 228.15519,0.0482 -18.22714,30.3787 c -0.9534,1.19112 -2.11921,1.74981 -3.54822,1.74981 l -0.34024,2.18718 11.42234,2.13865 v -2.86766 c -2.14462,-0.47657 -3.00442,-1.43826 -2.52749,-2.86781 l 1.79841,-2.86766 12.49166,1.79833 1.06933,4.2773 c -0.2387,1.42956 -1.1519,2.03678 -2.81913,1.79849 l -0.38885,2.13865 14.67893,1.45817 v -2.18733 c -1.42993,0 -2.39173,-0.81113 -2.86774,-2.47881 z m 67.90217,0 5.39523,34.31569 c -5.4e-4,1.66768 -0.60775,2.93547 -1.79841,3.88846 l 0.72909,2.52749 9.96417,-7.14496 -1.40957,-1.45817 c -1.90648,0.95298 -2.97028,0.85095 -3.20797,-0.34032 l -1.45817,-5.34663 9.67253,-6.41595 4.2773,2.81913 c 0.95241,0.71486 0.85041,1.42396 -0.34024,2.13865 l 1.79841,2.86782 10.69326,-7.48528 -1.79841,-2.13865 c -0.95354,0.47641 -2.01733,0.57844 -3.20798,0.34016 z m -298.0988,3.15945 c 2.24079,0.10421 3.56853,2.03179 3.98567,5.784 0.23799,3.33552 -0.8258,5.36109 -3.20798,6.07579 l -5.00639,0.68048 -1.40956,-11.76258 4.61754,-0.72917 c 0.35734,-0.0591 0.70061,-0.0638 1.02072,-0.0482 z m -24.74031,0.72947 c -0.62535,-0.0264 -1.3079,-0.0156 -1.99283,0.0482 l -13.94984,1.7498 0.38885,2.5275 c 1.42924,0 2.24045,0.60722 2.47889,1.79833 l 2.5275,26.78189 c -2.1e-4,1.66768 -0.86002,2.62953 -2.5275,2.86766 v 2.47897 l 11.81119,-1.74981 c 10.48241,-0.7147 14.99022,-5.37322 13.56099,-13.94992 -0.71495,-4.05006 -2.84255,-6.32823 -6.41595,-6.80479 2.62043,-1.90581 3.58223,-4.8933 2.86773,-8.94352 -1.45943,-4.37762 -4.37148,-6.62235 -8.74903,-6.8048 z m 274.2334,0.38885 v 3.20797 c 1.66722,0 2.42502,0.96185 2.18726,2.86766 l -1.45817,24.30292 c -0.47697,2.14425 -1.54078,3.20797 -3.20798,3.20797 l -0.34024,2.13866 24.98334,2.52749 2.52749,-8.60313 h -1.79841 c -2.8594,3.33536 -7.97441,4.65168 -15.3594,3.93698 l 1.79841,-26.78172 c 0.23776,-1.66769 1.04895,-2.5275 2.47889,-2.5275 l 0.34024,-3.20798 z m 30.76742,2.47881 v 2.86781 c 1.42893,0.47642 2.13812,1.5403 2.13865,3.20798 l -1.06933,23.9626 c -0.477,1.42955 -1.69141,2.13865 -3.59682,2.13865 l -0.34024,3.20798 12.49167,1.06932 0.38884,-3.20797 c -1.42997,-0.23813 -2.28977,-1.04942 -2.52749,-2.47882 l 1.06932,-23.96275 c 0.47595,-1.66768 1.53977,-2.62938 3.20798,-2.86766 l 0.38884,-2.81913 z m -306.31317,0.29163 c 2.24083,0.10421 3.56856,2.0318 3.98567,5.78416 0.23804,3.33536 -1.07838,5.361 -3.93706,6.0757 l -4.27731,0.72916 -1.45817,-11.76264 4.66615,-0.72916 c 0.35733,-0.0591 0.70061,-0.11199 1.02072,-0.0964 z m 329.54669,4.71484 8.89485,6.07569 -6.75619,4.66615 z m -76.11653,1.45817 3.54821,13.22081 -10.35301,-1.45817 z m -226.21096,4.61752 c 2.85865,-0.23813 4.63166,1.78745 5.34663,6.07579 0.71448,5.24133 -0.60192,8.22876 -3.93707,8.94345 l -4.66614,0.72901 -1.74981,-15.01908 z m -26.44151,3.59683 c 2.85869,-0.23813 4.6317,1.68541 5.34663,5.73547 0.71451,5.24133 -0.34929,8.33078 -3.20798,9.28377 l -5.00639,0.68048 -1.79841,-14.97056 z m 91.47594,21.09487 c 3.57332,2.38238 3.42272,5.11721 -0.38884,8.21444 -10.00645,9.76781 -21.30027,19.03602 -33.92678,27.851 l -4.27731,-1.40949 c 7.38521,-4.52663 17.86785,-11.91983 31.4479,-22.1642 l 6.07571,-6.8048 -3.25658,-0.34032 c -4.52688,4.05022 -9.66859,8.17665 -15.50522,12.34585 -5.83718,4.1692 -12.59653,8.14523 -20.21998,11.957 l -10.35301,5.00647 1.79841,2.13865 7.87412,1.06933 c 4.52632,2.85879 6.40133,5.69565 5.68687,8.5546 -2.38268,3.57349 -6.18128,4.07868 -11.42234,1.45817 l -8.60321,-4.66615 c -3.09738,-3.09723 -6.1868,-5.22484 -9.28369,-6.41595 l -3.54822,-2.86781 1.40957,-3.54814 10.74186,4.2773 h 3.20797 l -1.79841,-6.41595 12.88052,-7.87413 c 3.33511,-1.19127 4.75353,-3.21684 4.2773,-6.07579 l 1.06932,-6.46448 c 5.47927,1.19111 11.45411,0.3047 17.8869,-2.67339 6.43223,-2.97794 12.50906,-4.67564 18.22714,-5.15221 z m 109.31424,4.08288 c 3.61079,0.0187 8.61617,0.88657 15.01916,2.67339 l 30.37857,22.55305 c -6.43297,0 -10.48418,0.7091 -12.15143,2.13865 h -5.00639 c -6.90943,-4.76491 -12.37905,-9.17069 -16.42872,-13.22075 l -16.76897,-13.22075 c 1.16128,-0.62542 2.7913,-0.93479 4.95778,-0.92359 z m 10.40162,23.42795 7.14504,6.07579 c -1.42988,0.95283 -3.25148,0.59836 -5.39523,-1.06932 -2.1446,-1.66768 -2.7032,-3.33879 -1.74981,-5.00647 z m -135.4641,2.86782 0.72908,1.7498 -2.86774,3.93699 -3.20797,1.79849 -2.86774,-1.79849 0.34024,-1.40949 6.07571,-3.93714 z m 169.39088,2.81913 8.60321,1.45817 5.68687,-1.45817 3.93706,0.72901 -1.40956,1.79848 -9.28369,2.86766 c -4.05056,3.57365 -8.85959,5.95385 -14.33869,7.14512 l -6.07571,-1.06933 -1.40956,-4.2773 c 1.429,-2.14425 3.27731,-3.71332 5.54105,-4.66615 2.26284,-0.95298 5.17494,-1.81279 8.74902,-2.52749 z" font-weight="400" font-size="470.545" font-family="Bitstream Vera Sans"/></svg>