<?xml version="1.0" encoding="UTF-8"?>
<svg viewBox="0 0 410 461" xmlns="http://www.w3.org/2000/svg">
 <path d="m54.644 130.2c0.76578-1.3783 1.7614-2.8334 2.9869-4.3654s4.3653-5.0544 9.4201-10.569c11.947-15.47 21.597-30.328 28.95-44.573l11.258-28.95c0.30622-1.3782 0.07646-2.3738-0.68927-2.9869-0.91917-0.30596-4.1358 1.915-9.6499 6.663-1.5318 1.5321-4.2889 4.8253-8.2713 9.8796-3.9826 5.055-8.0416 11.91-12.177 20.563s-6.5865 14.207-7.3523 16.657l-4.3654 11.028c9.9561-20.218 18.687-35 26.192-44.343 3.2165-3.6758 4.059-3.7524 2.5273-0.22976-5.0548 6.7399-8.8841 12.79-11.488 18.151-8.5777 18.228-15.93 32.32-22.057 42.276l-4.3654 6.8928-0.91903 3.9059zm80.875-46.871c0.61253 0.45986 1.3018 0.53644 2.0678 0.22976 3.9823-2.2972 7.8882-4.2119 11.718-5.744 0.91886-0.45917 1.3018-1.225 1.1488-2.2976l-1.3786-11.028v-0.68927c-5.9739 2.7575-12.79 5.6677-20.448 8.7308l-2.2976 0.91903 2.0678 1.8381 7.1225 8.0415zm-9.6498-18.84c8.7307-5.8202 17.691-11.717 26.882-17.691 5.514-3.3694 10.569-6.2031 15.164-8.5011 4.1354-0.91865 4.4418-0.30596 0.91903 1.8381-13.326 7.3526-27.801 16.849-43.424 28.49v1.3786c12.866-5.667 23.32-10.569 31.362-14.705s14.743-8.6539 20.104-13.556c3.5228-3.5226 5.2842-6.7392 5.2844-9.6498-3.2168-1.225-7.5822-1.225-13.096 0-11.182 4.4424-25.503 14.322-42.965 29.639l-0.22976 2.7571zm-0.68927-7.582 3.2166-2.0678c8.8838-7.3519 17.193-13.249 24.929-17.691s13.824-6.9689 18.266-7.582l5.0547-6.663c0.91884-1.8377 0.38273-2.9864-1.6083-3.4464-4.1358-0.15277-9.0374 0.53651-14.705 2.0678-11.641 3.8297-21.636 9.1907-29.983 16.083s-16.351 15.547-24.01 25.963l13.556-12.177c14.092-10.415 24.201-17.27 30.328-20.563s10.875-5.3989 14.245-6.3184c-1.0724 1.379-4.9783 3.7531-11.718 7.1225-10.416 6.1273-22.67 15.088-36.761 26.882 4.4418-2.2972 7.5053-2.8333 9.1903-1.6083zm-40.667 230.68 0.45952-17.921 0.22976-13.096c0.45941-19.912 1.9145-36.225 4.3654-48.939 0.91892-1.6847 1.0721-0.9954 0.45952 2.0678-1.0723 12.56-1.7233 23.78-1.953 33.66s-0.45963 17.806-0.68928 23.78-0.34475 13.709-0.34464 23.206l2.9869-6.4332c2.757-4.2887 4.8248-12.56 6.2035-24.814 1.0721-9.6497 1.0721-20.487 0-32.511s-2.4509-20.257-4.1356-24.699c-2.9104 0.76608-5.9738 7.5057-9.1903 20.219-2.2977 10.11-3.6762 19.53-4.1356 28.26-0.30645 11.794 0.61259 23.053 2.7571 33.774l2.9869 3.4464zm-29.409-51.466c1.9912 1.8382 2.3741 3.8295 1.1488 5.9737-0.4596 1.3787-0.07667 4.0975 1.1488 8.1564s2.5273 7.161 3.9059 9.3052l0.22976-0.91904c-1.8382-4.1355-3.2933-8.6541-4.3654-13.556-0.4596-1.6847-8e-5 -2.7569 1.3786-3.2166l9.8796-4.8249c0.91894-0.45934 1.3019-1.2252 1.1488-2.2976-0.76595-3.9823-1.3021-8.2711-1.6083-12.866-9e-5 -0.91883-0.45961-1.4549-1.3786-1.6083l-10.569-1.6083c-1.3786-0.15296-2.0679-0.99541-2.0678-2.5273-0.30642-5.3608-0.30642-10.722 0-16.083-8e-5 -1.2252 0.61261-1.991 1.8381-2.2976l10.799-1.6083c0.91894-0.15294 1.3785-0.68904 1.3786-1.6083 0.15308-4.4418 0.68918-8.7306 1.6083-12.866 0.45942-1.072 0.22966-1.8378-0.68927-2.2976l-4.1356-1.8381c-5.3611 9.1906-9.267 17.002-11.718 23.435s-3.7528 11.258-3.9059 14.475c2.4507 12.254 4.4419 19.147 5.9737 20.678zm109.59 131.19c4.4418-0.15312 8.5774-0.45946 12.407-0.91904-1.0724-1.838-3.9061-5.2078-8.5011-10.109l-18.84-7.1225-11.028-5.2844c-1.9914-0.91895-3.638-1.0721-4.9398-0.45951s-2.2594 2.2211-2.872 4.8249l0.45951 0.45952c1.2252-2.757 2.374-4.2888 3.4464-4.5952 1.5316-0.45944 3.5228 8e-5 5.9737 1.3786 1.6847 0.91911 3.4462 2.4508 5.2844 4.5952s4.7482 5.5908 8.7308 10.339l9.8796 6.8928zm39.748 40.667c2.4505 0.45953 4.8247-0.30633 7.1225-2.2976l5.0547-3.2166 6.2035-7.8118 1.1488 3.6761c1.2251 1.0722 3.293-0.30632 6.2035-4.1356 0.7656-2.9102 0.65072-5.8971-0.34464-8.9606s-5.3996-8.8074-13.211-17.232l-4.3654-4.1356-2.7571-0.22976 5.744 2.7571-3.2166 1.3786-5.5142-2.2976c-5.3612-1.6848-10.033-1.5317-14.015 0.45952 6.7394-0.76581 10.262-0.45946 10.569 0.91903 1.2252 1.685 3.0632 5.7823 5.5142 12.292s3.4461 11.833 2.9869 15.968l-7.1225 6.8928c-2.6042 2.9103-3.5232 3.2166-2.7571 0.91904l-1.1488-0.91904-4.1357 2.0678 8.0416 3.9059zm73.293 5.0547c17.614 2.2976 32.702 3.2932 45.262 2.9868 17.614-11.794 31.553-21.368 41.816-28.72l11.947-7.8118c3.063-3.6761 5.0543-6.8927 5.9737-9.6498-4.136-5.9737-6.74-12.254-7.8118-18.84-0.61309-2.6038-0.84285-5.3992-0.68928-8.3862s-2.9872-4.5568-9.4201-4.71l-5.5142 0.22976-12.407-0.68927c-2.4511-0.6126-4.136-1.7614-5.0547-3.4464l-0.45952-2.2976 4.3654 1.1488v-5.0547l-3.2166 0.91903c-3.9828 1.2255-5.438 2.604-4.3654 4.1356 1.6845 2.1445 2.6036 4.5952 2.7571 7.3523-0.45988 8.5777-0.99599 14.628-1.6083 18.151 6.8924-5.361 15.47-10.722 25.733-16.083-0.91942-0.45943-2.4512-0.6126-4.5952-0.45951-1.8384-0.76578-1.9916-1.7614-0.45952-2.9869 4.748 8e-5 8.3092 0.34472 10.684 1.0339s2.2589 1.7999-0.34464 3.3315c-8.578 3.6762-19.07 10.186-31.477 19.529-12.867 10.875-21.368 17.155-25.503 18.84-2.2979 0.7659-5.6677 0.95736-10.109 0.57439s-11.641-1.4934-21.597-3.3315c-10.263-1.5317-19.109-3.2166-26.537-5.0547s-15.892-3.0634-25.388-3.6761l-3.4464 0.45952v1.3786c4.7481 5.5142 7.6201 10.301 8.6159 14.36s1.3783 6.663 1.1488 7.8118-1.6469 3.4081-4.2505 6.7779l-1.6083 1.6083 3.6761 0.91903c16.542 4.7484 31.17 7.965 43.884 9.6499zm69.157-131.19c-3.7e-4 1.9914 0.84208 4.6719 2.5274 8.0415 0.61231 0.91917-0.03867 1.7616-1.953 2.5274-1.915 0.76599-2.8724 1.7616-2.872 2.9868 1.225 6.8929-3.7e-4 13.173-3.6761 18.84 2.9099-2.2975 5.8585-5.1312 8.8457-8.5011s5.399-7.2756 7.2374-11.718c-1.2258-1.9911-2.8341-3.9823-4.8249-5.9737-1.5321-1.6848-1.5321-2.1443 0-1.3786 1.9909 1.0723 3.9055 2.987 5.744 5.744 2.4504-4.9014 4.5948-11.028 6.4332-18.381-2.298-8.2711-5.2082-14.934-8.7308-19.989-2.1448-3.8291-1.6087-3.7526 1.6083 0.22975 3.5226 4.9017 6.3563 10.416 8.5011 16.543 2.2972-7.0458 3.7523-12.483 4.3654-16.313l-2.9869-9.6498c1.3782 1.6851 2.6035 4.1358 3.6761 7.3523l2.2976-8.0415c1.225-3.0633 1.4547-2.2208 0.68928 2.5273-1.6853 8.1183-3.6 15.471-5.744 22.057 4.7479-4.2887 8.2709-8.3477 10.569-12.177 1.9908-1.8379 1.9142-1.1486-0.22976 2.0678-1.5321 3.37-5.2848 7.9651-11.258 13.786-1.2258 6.7397-3.2936 13.02-6.2035 18.84 3.063-2.2974 5.9733-3.9823 8.7308-5.0547 1.3782-0.15304 0.99523 0.45965-1.1488 1.8381-2.4511 0.91916-5.2848 2.8338-8.5011 5.744-2.298 8.5778-8.4248 16.619-18.381 24.125 5.3607-1.838 10.262-3.9824 14.705-6.4332 3.8289-2.1443 4.9777-4.7482 3.4464-7.8118 5.5138-5.0546 9.9558-9.6497 13.326-13.786 2.2972-3.676 2.6035-6.9692 0.91903-9.8796-1.0726-1.3784 1.5313-5.6672 7.8118-12.866 1.9908-2.7569 3.2545-6.0501 3.791-9.8796s0.42082-5.9735-0.34464-6.4332c-4.4424 0.45969-6.4336-3.3696-5.9737-11.488-1.0726-6.1267-2.6043-8.1179-4.5952-5.9737-1.9916 4.4422-4.1743 6.242-6.5481 5.3993s-3.5616-0.49762-3.5613 1.0339c0.15278 6.8929-1.7619 9.5734-5.744 8.0415l-5.9737-3.6761c-5.055-1.6847-6.2038 0.53628-3.4464 6.663l3.9059 5.2844c1.3782 3.8295 1.225 5.8207-0.45952 5.9737-3.6765-0.7657-5.5146 0.22992-5.5142 2.9869 0.61232 4.7485 2.1058 8.3863 4.4803 10.914s2.5653 4.4804 0.5744 5.8588c-2.4511-0.61255-4.2892-0.61255-5.5142 0zm-26.537-4.71c0.8421 0.68942 1.3399 1.7616 1.4934 3.2166 0.15283 1.4553 0.76552 2.4892 1.8381 3.1017 1.8377-1.9911 3.446-3.9058 4.8249-5.744-0.15352-0.76572-0.61304-1.6848-1.3786-2.7571s-2.9489-3.2548-6.5481-6.5481-6.3187-6.165-8.1564-8.6159c-1.0725-1.3784-0.7662-1.5316 0.91903-0.45951 1.9909 2.2977 4.3268 4.4422 7.0076 6.4332s5.3224 4.3656 7.9267 7.1225c-0.45987-6.7394-1.3023-13.709-2.5274-20.908-0.61303-4.4418-0.2301-4.5184 1.1488-0.22976 1.6845 6.2802 2.6802 10.646 2.9868 13.096 0.91868-1.3784 1.7228-2.7569 2.4125-4.1356l2.4125-4.8249c1.6845-3.0633 1.9143-2.7569 0.68928 0.91904-0.45988 1.5319-1.0343 3.2551-1.7232 5.1696s-1.4555 3.638-2.2976 5.1696-0.8045 4.2124 0.11488 8.0416c2.6036-3.5228 6.8924-7.9648 12.866-13.326 1.0718-8.8838 0.7655-13.326-0.91903-13.326-1.6853 1.8e-4 -2.834 1.6468-3.4464 4.9398s-0.99598 2.8722-1.1488-1.2637-0.72793-6.3565-1.7232-6.663-2.1448 0.11505-3.4464 1.2637-2.4128 1.7616-3.3315 1.8381-1.5321-3.8674-1.8381-11.833c-3.5e-4 -1.991 0.61234-3.676 1.8381-5.0547s1.7228-4.0972 1.4934-8.1564-0.49816-6.8542-0.80415-8.3862-0.80451-2.9866-1.4934-4.3654-1.3406-2.2974-1.953-2.7571-1.3789 0.03851-2.2976 1.4934c-0.91938 1.4554-1.6087 1.6468-2.0678 0.57439s-1.4555-2.0676-2.9869-2.9868-3.0255-0.26784-4.4803 1.9529c-1.4555 2.2212-2.8723 6.6249-4.2505 13.211 3.0631-3.5228 5.4373-5.2076 7.1225-5.0547 1.6846 0.15338 2.6036 0.80436 2.7571 1.953s0.57405 2.7573 1.2637 4.8249 1.0718 5.0932 1.1488 9.0754 0.22941 6.3951 0.45951 7.2374 0.15283 1.6851-0.22975 2.5273-1.264 1.4936-2.6422 1.953c1.225 0.15335 1.8377 0.4214 1.8381 0.80415s-0.42157 1.9914-1.2637 4.8249-1.3406 4.6336-1.4934 5.3993c-0.15352 0.9192-0.07693 2.2978 0.22976 4.1356-0.76621-1.2252-1.1491-2.4506-1.1488-3.6761 1.0719-5.9736 1.4548-9.4199 1.1488-10.339l-0.91903-0.91903 0.91903-0.91903c0.61234-4.4418 0.53576-8.7306-0.22976-12.866s-1.7618-7.084-2.9869-8.8457-3.7531-0.5742-7.582 3.5612c-1.9916-1.6847-3.4467-2.2974-4.3654-1.8381s-0.53644 2.451 1.1488 5.9737c1.8377 2.6041 3.7524 5.7442 5.744 9.4201 1.0719 2.2978 1.9909 4.5953 2.7571 6.8928s0.76552 4.7485 0 7.3523c-4.4423-3.3696-7.276-4.1738-8.5011-2.4125s-1.4172 3.5614-0.5744 5.3993 1.7994 3.4465 2.872 4.8249c-1.3789 2.7573-0.1535 5.8207 3.6761 9.1903l7.6969 6.3184zm-260.89 9.7647c0.61261-4.9014 1.3785-9.1136 2.2976-12.637 3.676-11.488 8.8839-23.052 15.624-34.694 0.15307-3.0633 0.99552-7.735 2.5273-14.015-9.0373 12.101-14.82 23.78-17.347 35.038s-3.5613 20.027-3.1017 26.307zm209.54-246.07c-3.5232-4.748-5.3613-8.6538-5.5142-11.718-2.8e-4 -2.9099 0.45923-2.6035 1.3786 0.91903 0.91875 2.7575 3.5993 6.8166 8.0416 12.177l3.2166 1.3786c4.9012-2.7567 9.0369-2.527 12.407 0.68927l-0.68928-5.5142c-1.3789-3.0631-3.6764-3.5226-6.8928-1.3786-3.8296-4.4416-7.276-7.8497-10.339-10.224s-6.3569-4.4033-9.8796-6.0886c-2.9106-0.91863-4.9784-0.22936-6.2035 2.0678l-4.5952-2.7571c-7.812-3.8289-11.795-4.8245-11.947-2.9869-0.61295 1.8385-0.23002 3.6 1.1488 5.2844-5.974-0.76546-10.071-0.5357-12.292 0.68927-2.2212 1.2258-2.8339 2.8341-1.8381 4.8249s3.561 3.8297 7.6969 5.5142c-2.1447 2.298-2.7574 4.2126-1.8381 5.744 1.3783 1.8384 4.212 3.0638 8.5011 3.6761l6.663-0.68927c1.6846 0.15355 1.991 1.3789 0.91903 3.6761-0.45979 2.6043 0.689 3.6765 3.4464 3.2166 4.1354 3.8297 8.271 5.055 12.407 3.6761l4.3654-0.91903-0.45952 5.2844 7.8118 2.5273 2.5274-0.91903c-2.2979-4.2884-3.2935-8.5007-2.9869-12.637l-3.9059-1.6083c-4.9018 0.45989-8.5779 1.6087-11.028 3.4464-2.451 1.3789-3.0637 1.3023-1.8381-0.22976 3.2163-2.2972 6.5095-3.8289 9.8796-4.5952-5.5145-1.9909-10.339-4.0587-14.475-6.2035-5.6676 1.8384-11.258 2.4511-16.772 1.8381-1.532-0.30596-2.451-0.6123-2.7571-0.91903s0.99536-0.38255 3.9059-0.22976c4.5949 0.15356 9.0369-0.68889 13.326-2.5273-0.9193-1.0718-2.7191-2.2589-5.3993-3.5613s-7.0079-2.7184-12.981-4.2505c-1.532-0.61229-1.4554-0.91864 0.22976-0.91903 3.5227 0.15357 7.9647 1.379 13.326 3.6761 2.1441 1.0726 4.4417 2.1448 6.8928 3.2166-3.2169-2.9099-5.7442-6.0499-7.582-9.4201-0.30661-2.7567 0.38267-2.7567 2.0678 0 1.6846 2.298 4.0971 5.1317 7.2374 8.5011s8.0796 6.1273 14.819 8.2713zm12.637 31.017c2.91 0.91938 5.4373 1.2257 7.582 0.91903-1.0725-2.4504-1.4554-4.9012-1.1488-7.3523-2.4511 0.76622-4.5955 0.91939-6.4332 0.45952-1.8384-0.15281-2.0681-0.53574-0.68927-1.1488 3.9822 0.3067 7.6583-0.91867 11.028-3.6761-1.9916-2.7567-4.2891-5.4372-6.8928-8.0415s-1.8384-2.8333 2.2976-0.68928c2.1441 1.5321 3.9822 3.3702 5.5142 5.5142-0.45984-3.5226-0.45984-6.5094 0-8.9606 0.76554-3.8289 3.3695-5.7436 7.8118-5.744-4.136-2.2972-7.6589-0.61231-10.569 5.0547-6.5867-3.6758-10.722-3.6758-12.407 0 0.15287 4.5955 1.1102 7.4292 2.872 8.5011s1.7229 2.6809-0.11488 4.8249l-4.1356 1.6083c0.15287 3.9828 1.9144 6.8931 5.2844 8.7308zm16.083 14.475c1.6846 5.8209 5.8968 9.8034 12.637 11.947l1.3786-2.5273c8.271 3.6765 13.479 7.1228 15.624 10.339 1.3782 1.6852 1.608 3.5233 0.68928 5.5142 2.4504-3.2163 4.365-3.9822 5.744-2.2976l-1.6083-4.5952c-0.3067-2.1441 0.07623-3.829 1.1488-5.0547l-0.45952-1.3786c-5.2082-3.2163-10.608-5.399-16.198-6.5481s-8.846-2.1824-9.7647-3.1017c-3.0638-1.9909-2.6043-2.1441 1.3786-0.45952 0.9187 0.76619 3.9821 1.6086 9.1903 2.5273s9.9558 2.5277 14.245 4.8249l-2.7571-6.2035c-3.3701-5.0544-6.0506-8.1944-8.0415-9.4201-3.6765-1.8377-7.6207-3.1397-11.833-3.9059s-7.008-1.608-8.3862-2.5273c-2.4511-1.5314-2.5277-2.0675-0.22976-1.6083 2.4504 1.2257 5.1309 2.0299 8.0416 2.4125s6.3563 1.1874 10.339 2.4125c-1.9916-2.1441-4.5955-5.0543-7.8118-8.7308s-6.2804-8.2709-9.1903-13.786c-0.1535-1.225 0.38261-0.76549 1.6083 1.3786 4.748 6.7399 8.8837 11.871 12.407 15.394-0.61302-3.9821-0.7662-8.2709-0.45951-12.866 0.306-1.9909 0.68893-1.1484 1.1488 2.5273-0.30669 4.2892-3.4e-4 8.1185 0.91903 11.488 4.748 4.2892 9.19 9.1141 13.326 14.475-0.3067-3.0631-0.23011-6.8158 0.22976-11.258 0.30599-2.1441 0.53574-2.1441 0.68927 0-0.15353 5.055 0.30599 9.88 1.3786 14.475l1.8381 4.1356c0.15281-3.829 1.225-7.0456 3.2166-9.6498 0.15281-6.2797-1.3023-10.798-4.3654-13.556-1.2257-5.0543-2.4511-7.5817-3.6761-7.582-0.76621 3.6e-4 -1.7618 1.4555-2.9869 4.3654l-3.6761-1.3786c-2.2979-10.569-4.787-16.274-7.4672-17.117s-4.0977-0.19109-4.2505 1.953c-3.9828-3.0631-8.0419-4.2884-12.177-3.6761-2.9106 1.6853-4.0594 4.5955-3.4464 8.7308l2.0678 8.0415-1.6083 2.0678-3.4464 0.91903c-1.9916 1.0726-1.9916 2.9106 0 5.5142 2.91 3.6765 6.5861 6.2804 11.028 7.8118 2.2972 1.6852 1.7612 2.6426-1.6083 2.872s-4.9784 1.264-4.8249 3.1017zm-56.291 280.31c2.7568-1.3785 5.8203-2.9868 9.1903-4.8249 1.0719-0.45946 1.9144-1.6082 2.5273-3.4464 0.30607-2.6039 2.1441-4.6334 5.5142-6.0886s6.05-2.106 8.0415-1.9529c2.2973 0.15324 4.2119-0.38286 5.744-1.6083l2.5273-1.6083-1.8381-2.2976c-0.61298-0.76579-1.3023-0.99554-2.0678-0.68928-4.2891 1.0723-12.943 4.825-25.963 11.258-2.9105 1.685-5.2847 3.5996-7.1225 5.744l-3.6761 5.0547 7.1225 0.45951zm36.302-7.582 15.394-9.4201 0.91904-5.744c3.3695 2.4508 6.3563 3.0635 8.9606 1.8381 2.2973-0.61261 4.48-2.4507 6.5481-5.5142s5.0926-6.8161 9.0754-11.258 8.1178-7.8117 12.407-10.109c-1.0726-3.676-0.07694-7.199 2.9869-10.569l7.582-6.8928c-1.6853-6.2799-0.68964-10.722 2.9869-13.326-1.2257-3.0633-1.1492-6.6629 0.22976-10.799-6.2804 13.479-10.225 21.712-11.833 24.699s-2.8723 4.2506-3.791 3.791-1.3023-2.9102-1.1488-7.3523l-2.5273 4.3654 0.22975 8.0416c-11.029 14.245-18.228 22.21-21.597 23.895-1.8384 0.76595-3.5233 1.9147-5.0547 3.4464-2.2979 0.91912-2.9106 0.38302-1.8381-1.6083 1.2251-1.3785 3.0631-2.6804 5.5142-3.9059 3.2163-2.2975 5.667-5.3609 7.3523-9.1903 2.7568-6.8926 8.0412-16.236 15.853-28.031 2.2972-4.1355 8.0412-11.871 17.232-23.206l0.22976-5.744c-2.9106 3.0636-6.4336 6.8163-10.569 11.258s-8.0419 9.2288-11.718 14.36-7.1228 10.684-10.339 16.657c-1.9916 1.5318-4.2126 0.91915-6.663-1.8381l0.68927 5.744-0.22976 5.5142c-1.0725 3.6762-2.834 6.778-5.2844 9.3052s-4.7487 5.7058-6.8928 9.535c-1.6852 4.5952-7.8121 9.6499-18.381 15.164l3.6761 6.8928zm-23.895 9.6498c8.1178-3.0634 12.636-5.6673 13.556-7.8118 1.0719-4.2888 0.99533-6.5098-0.22975-6.663-2.9106-0.30628-5.5911 0.45959-8.0416 2.2976-2.6042 1.5318-3.5232 3.5996-2.7571 6.2035l1.1488 3.6761h-1.1488l-2.0678-3.2166-8.0416 4.5952 7.582 0.91904zm12.866 3.9059c8.8837 1.6849 15.317 2.8337 19.3 3.4464-1.9915-2.757-3.2935-5.7439-3.9059-8.9606-0.61299 2.7572-3.0638 3.6762-7.3523 2.7571l-8.0415 2.7571zm78.348-132.11c3.2162-1.6847 5.8202-1.7613 7.8118-0.22976 1.9909-6.5862 3.3694-13.862 4.1356-21.827l-4.3654-7.1225v4.5952c-0.15354 1.5319-0.9194 2.451-2.2976 2.7571l-10.569 1.6083c-0.91939 0.15338-1.3023 0.68948-1.1488 1.6083-0.45988 4.5954-1.0726 8.8842-1.8381 12.866-0.15354 1.0724 0.22939 1.8382 1.1488 2.2976l7.1225 3.4464zm33.315-13.326c1.3782-0.76566 3.2928-1.3784 5.744-1.8381 2.2972-0.30615 2.6035-0.07639 0.91904 0.68927-2.298 0.91923-3.9829 1.8383-5.0547 2.7571 2.6035 3.37 3.8289 6.8929 3.6761 10.569l2.5273 4.5952c2.6035-0.76568 4.365-1.6464 5.2844-2.6422s1.2633-2.2591 1.0339-3.791-2.0299-2.6037-5.3993-3.2166c3.6757-2.2974 6.1265-6.0501 7.3523-11.258-0.15359-2.2974-1.6853-3.4462-4.5952-3.4464 1.3781-2.7569 2.144-5.2459 2.2976-7.4672s-0.45994-4.4801-1.8381-6.7779c-2.6043-1.8378-5.7444-1.3018-9.4201 1.6083-2.6043-1.2252-5.6678-0.07637-9.1903 3.4464-1.9916 8.1183-3.5999 15.854-4.8249 23.206 1.9908 1.0724 4.6714-0.99543 8.0416-6.2035-0.91943-1.5315-1.6087-4.0589-2.0678-7.582 0.30595-2.7569 0.76547-2.6803 1.3786 0.22975 0.45912 2.451 1.1484 4.1358 2.0678 5.0547 1.9908-4.1354 4.2884-8.0413 6.8928-11.718 1.6845-2.1442 2.144-2.2208 1.3786-0.22976-3.0638 4.4422-5.2848 9.114-6.663 14.015h0.45951zm-254.34 147.5 13.786-2.2976-10.569-6.8928-3.2166 9.1903zm3.2166 57.21 2.2976 1.8381c1.9911 0.76585 3.9823 2.1444 5.9737 4.1356l5.5142 2.9869c3.3696 1.6849 5.8204 1.3785 7.3523-0.91903 0.45935-1.8381-0.76603-3.6762-3.6761-5.5142l-5.0547-0.68928-1.1488-1.3786 6.663-3.2166c4.9013-2.4508 9.2284-5.0164 12.981-7.6969s7.084-5.3227 9.9945-7.9267l2.0678 0.22976-3.9059 4.3654c-8.731 6.5864-15.471 11.335-20.219 14.245l2.7571 0.91903c8.118-5.6674 15.394-11.641 21.827-17.921 2.4506-1.9912 2.5271-3.7527 0.22975-5.2844-3.6763 0.30635-7.5822 1.4168-11.718 3.3315s-7.9651 2.4891-11.488 1.7232l-0.68928 4.1356c0.30618 1.8381-0.61286 3.14-2.7571 3.9059l-8.2713 5.0547 1.1488 4.1356h-2.0678l-6.8928-2.7571-0.91904 2.2976zm173.24-325.11c0.76554 0.76618 1.608 0.91935 2.5273 0.45952l5.744-4.8249c-4.2892-1.6846-7.7738-3.9822-10.454-6.8928s-4.3274-5.0544-4.9398-6.4332l-3.2166 7.3523c-0.45983 0.91936-0.30665 1.532 0.45952 1.8381 3.829 2.7574 7.1222 5.5911 9.8796 8.5011zm-162.44 246.53c2.1442 1.0723 4.2886 1.0723 6.4332 0l-1.6083-2.5274-3.6761-3.2166c-1.9914-1.0721-3.5997-0.07651-4.8249 2.9869l3.6761 2.7571zm221.49-109.36c1.9908-7.9648 4.0587-17.768 6.2035-29.409-1.9916 2.1e-4 -3.4468 0.15338-4.3654 0.45952-0.61307 7.0461-2.298 16.083-5.0547 27.111l3.2166 1.8381zm-174.85 125.68c-4.9017 0.15323-8.9608 0.45957-12.177 0.91904-8.731 1.0722-17.155 2.3742-25.273 3.9059l-19.759 3.6761c-13.02 1.8381-23.129 2.8337-30.328 2.9869-7.3524-5.361-17.692-12.254-31.017-20.678-8.4246-5.5141-18.151-11.028-29.179-16.543-1.5318-1.3785-1.7615-2.6804-0.68928-3.9059 1.3785-0.76578 4.4419-1.1487 9.1903-1.1488 2.1443 0.15325 2.9868 0.68936 2.5273 1.6083s-1.3786 1.4169-2.7571 1.4934-2.604 0.19154-3.6761 0.34463c9.3434 4.1357 18.074 8.8841 26.192 14.245l-0.22976-11.947c-0.15326-4.2887 0.76577-8.118 2.7571-11.488 0.45942-2.6038-2.5274-4.7482-8.9606-6.4332-0.91912-0.30624-1.3786-0.07649-1.3786 0.68928l0.22976 5.2844 2.9869-4.5952 2.0678 0.91904-3.4464 6.8928c-0.4596 1.0723-1.4552 1.5318-2.9869 1.3786-3.523-0.30626-10.416-0.15309-20.678 0.45952-4.1357 0.15325-5.3611 2.8338-3.6761 8.0415 0.30629 1.2254 0.15311 2.9104-0.45952 5.0547-1.3786 5.0548-4.0591 10.875-8.0415 17.462-1.2254 1.3786 1.2253 5.3611 7.3523 11.947 5.361 5.0547 14.781 11.641 28.26 19.759 18.993 10.722 30.481 16.619 34.464 17.691 15.623-1.8381 31.477-4.2122 47.56-7.1225 6.4331-1.3785 13.632-2.9486 21.597-4.71 7.9648-1.7615 21.061-6.012 39.289-12.752 1.2252-0.30632 1.6081-1.9146 1.1488-4.8249-0.91926-5.6673-3.37-12.254-7.3523-19.759-4.1359 0.61274-8.6544 0.99567-13.556 1.1488zm-36.072-91.444 53.993-40.897 53.993 40.897-20.908-65.022 56.061-40.437h-68.238l-20.908-62.724-20.908 62.724h-68.238l56.061 40.437-20.908 65.022zm-77.888 106.61c1.6848 1.5318 3.2548 2.1828 4.71 1.953s2.6804-1.1488 3.6761-2.7571 1.3402-3.1017 1.0339-4.4803-1.5318-2.6039-3.6761-3.6761l-5.744 8.9606zm87.308-325.34c3.5228-1.3782 6.1267-2.144 7.8118-2.2976 1.5315-0.15281 2.6037 0.23012 3.2166 1.1488l4.8249 10.569c0.91884 0.76621 1.6847 0.99597 2.2976 0.68927 3.9823-0.76551 8.2711-1.3016 12.866-1.6083 0.91882 3.5e-4 1.4549-0.45916 1.6083-1.3786l1.6083-10.799c0.30613-1.225 1.072-1.8377 2.2976-1.8381 5.3608-0.30597 10.722-0.30597 16.083 0 1.5315 3.7e-4 2.3739 0.68964 2.5274 2.0678l1.6083 10.569c0.15293 0.91939 0.68903 1.3789 1.6083 1.3786 4.5949 0.3067 8.8838 0.8428 12.866 1.6083 1.072 0.15353 1.8378-0.2294 2.2976-1.1488l4.8249-9.8796c0.61243-1.3782 1.6846-1.8377 3.2166-1.3786 5.0544 1.0726 10.033 2.7575 14.934 5.0547 1.0719 0.61305 1.608 1.4555 1.6083 2.5273l-1.3786 10.569c0.1529 1.0726 0.689 1.8384 1.6083 2.2976 3.3695 1.3789 7.1988 3.2936 11.488 5.744 0.76557 0.45986 1.4548 0.38327 2.0678-0.22976l7.3523-8.2713c0.30604-0.306 0.68897-0.45917 1.1488-0.45952l0.45951-0.91903c-3.6764-1.8377-5.6677-4.9012-5.9737-9.1903l-8.9606-3.6761 0.68927-4.3654c-6.5867 2.298-12.101 1.1492-16.543-3.4464-3.2169-0.91866-4.4423-3.1397-3.6761-6.663-3.3701 0.76624-6.8164 0.68965-10.339-0.22976-4.7486-1.5313-7.1994-3.446-7.3523-5.744s0.22951-3.9821 1.1488-5.0547c-3.5232-1.8377-5.7825-4.2118-6.7779-7.1225s-0.45976-5.1692 1.6083-6.7779 5.8586-2.5652 11.373-2.872c-0.45977-3.9821 1.072-5.8967 4.5952-5.744 2.2973 0.76627 4.7481 1.4556 7.3523 2.0678s5.0544 2.0682 7.3523 4.3654c1.3783-2.2972 4.2886-2.6801 8.7308-1.1488 5.3607 2.4512 11.794 7.5824 19.3 15.394 4.5948-3.2162 7.6583-1.9908 9.1903 3.6761l0.68928 4.8249c4.2885-4.5948 9.0368-4.1353 14.245 1.3786 1.6846 3.8e-4 3.7524 0.76624 6.2035 2.2976 1.225-0.61231 2.527-0.84207 3.9059-0.68927 3.6758 0.15355 6.3563 2.0682 8.0416 5.744 1.6845 3.6765 2.7568 7.1995 3.2166 10.569 1.0718-4.1353 2.9865-5.667 5.744-4.5952 1.9909 2.298 3.6758 6.357 5.0547 12.177 2.4504 3.0638 3.7524 6.5102 3.9059 10.339 5.2075-1.5314 10.798 2.1448 16.772 11.028 2.144-2.6036 5.0543-1.1485 8.7308 4.3654 2.4504 4.2892 3.9821 8.8077 4.5952 13.556 3.8289-1.5314 5.9733 2.2213 6.4332 11.258 2.9099 6.893 4.3267 11.412 4.2505 13.556s-0.49821 3.9828-1.2637 5.5142c2.144-1.5314 3.7523-1.0719 4.8249 1.3786 2.6035 4.2891 3.7523 7.8121 3.4464 10.569-4.2e-4 2.9105-2.2214 6.3569-6.663 10.339 8.1177-2.2973 10.492 0.30661 7.1225 7.8118-4.9019 7.5057-7.5824 12.714-8.0415 15.624-4.1e-4 4.7486-0.5748 8.2332-1.7232 10.454s-3.7148 4.2508-7.6969 6.0886c0.61229 1.532 0.5357 3.2934-0.22976 5.2844 4.4416-3.9823 7.9646-5.2842 10.569-3.9059 4.4416-3.5227 8.1943-4.212 11.258-2.0678 2.9099 2.1446 3.7523 7.3525 2.5274 15.624 3.3694 5.0549 2.8333 10.722-1.6083 17.002 1.6845 1.5319 2.5269 3.4466 2.5273 5.744s-0.57482 4.0975-1.7232 5.3993-3.1787 2.8722-6.0886 4.71c0.76545 4.4422 0.84204 8.5778 0.22976 12.407-0.76627 4.289-4.2126 10.11-10.339 17.462 1.3782 4.4421 0.76546 8.5012-1.8381 12.177-6.5868 7.8119-11.335 12.56-14.245 14.245 1.5313 3.0636 1.5313 5.4377 0 7.1225-9.8034 6.4333-17.768 9.8797-23.895 10.339-5.055 0.61279-9.7268 2.7572-14.015 6.4332l-13.326 16.083c-0.91937 2.604-2.3745 4.2889-4.3654 5.0547-3.3e-4 3.0635-0.99595 4.9399-2.9869 5.6291s-4.4423 1.2637-7.3523 1.7232c-4.2891 3.2167-8.3482 5.9738-12.177 8.2713 1.0719 5.2079 2.8334 8.884 5.2844 11.028 11.181 1.9913 18.38 2.4508 21.597 1.3786 3.9821-1.9912 11.564-7.4288 22.746-16.313 0.7655-3.5229 1.608-10.339 2.5273-20.448-3.6e-4 -1.9912-0.84281-3.7526-2.5273-5.2844-2.1448-2.4507-2.2214-4.7482-0.22976-6.8928 1.3782-1.6848 5.4372-3.3697 12.177-5.0547 1.8377-0.30625 2.527 0.76596 2.0678 3.2166l-0.22976 5.5142c0.45915 1.0723 2.144 1.7616 5.0547 2.0678 6.1265-0.6126 11.641-0.68919 16.543-0.22976 2.7567 0.30643 4.5182 0.99571 5.2844 2.0678 1.8377 1.8382 2.5269 3.7911 2.0678 5.8588s-0.38333 4.4038 0.22976 7.0076c0.45911 2.7572 1.5696 6.127 3.3315 10.109s3.7906 7.046 6.0886 9.1903c-2.298 5.3611-5.3614 10.109-9.1903 14.245-25.886 18.381-41.395 29.447-46.526 33.2s-9.229 5.3227-12.292 4.71c-24.814-1.6849-45.569-3.9825-62.265-6.8928l3.6761 2.7571c5.6671 4.442 11.258 7.965 16.772 10.569l4.3654 1.1488 2.0678 2.0678c0.30603 1.9912-0.84276 3.9825-3.4464 5.9737l-5.0547 1.6083c-4.136 3.5229-8.5779 5.2078-13.326 5.0547l-3.2166-1.1488-3.2166-5.9737c-4.7486-0.91905-7.6589-2.0678-8.7308-3.4464-1.8383-1.8381-2.6808-3.4464-2.5273-4.8249-13.479-12.101-22.9-18.764-28.26-19.989l-5.9737 3.4464c-2.2978 1.0722-4.9783 1.2254-8.0416 0.45952-6.2803-3.3698-9.5735-4.6717-9.8796-3.9059l-8.0415 5.5142c-1.0724 0.61269-1.7617 2.1444-2.0678 4.5952-1.5319 2.7571-4.9017 4.5952-10.109 5.5142l-6.663 5.0547c-1.9e-4 3.3698-0.84263 5.5908-2.5273 6.663l-7.582 3.4464c-0.91921 3.6761-2.7573 6.0503-5.5142 7.1225-2.9104 0.91901-5.9739 0.91901-9.1903 0l-8.5011-5.0547-2.9869-3.4464c-2.4509-0.76588-4.1358-2.1444-5.0547-4.1356-1.2255-4.442-0.2299-6.8162 2.9869-7.1225 2.2974 1.0722 7.5053-1.4551 15.624-7.582l-0.22976-2.5273c-28.337 4.2888-43.654 6.3566-45.952 6.2035-11.029-4.7483-22.593-10.722-34.694-17.921-10.263-5.9737-17.423-10.416-21.482-13.326s-7.0843-5.361-9.0755-7.3523c-4.5952-4.5951-7.4672-7.9649-8.6159-10.109s-1.4169-3.7527-0.80416-4.8249c4.5951-7.0459 7.4288-13.02 8.5011-17.921 0.30629-1.2253 0.38288-2.6804 0.22976-4.3654-1.2254-4.5951-1.1871-7.6585 0.11488-9.1903s2.9485-2.2975 4.9398-2.2976l21.827-0.45952v-7.582c0.15309-1.3785 0.68919-2.2209 1.6083-2.5274 2.1443-0.45941 5.7439 0.53621 10.799 2.9869 3.3697 2.1445 4.8248 4.5187 4.3654 7.1225-1.9913 3.2167-2.8338 7.1992-2.5273 11.947l0.68928 13.786c10.875 7.3523 19.3 13.173 25.273 17.462 6.4331-0.15313 13.479-0.76582 21.138-1.8381l4.3654-12.407c-3.8294-2.757-8.1183-6.4332-12.866-11.028l-3.4464 0.45951c-3.3699 7e-5 -5.8973-1.838-7.582-5.5142-3.9826 0.30642-7.8119-2.3741-11.488-8.0415-5.8206-6.7395-10.646-13.173-14.475-19.3-2.604 0.76597-5.4377 0.34475-8.5011-1.2637s-6.2801-4.0972-9.6498-7.4671l-16.772-19.759c-11.182-13.632-19.07-30.634-23.665-51.006-0.91907-6.2799-1.4552-12.254-1.6083-17.921s-0.15321-9.1901 0-10.569c0.61265-3.5227 2.1444-5.7437 4.5952-6.663 5.0546-1.6847 12.024 7.3525 20.908 27.111 4.5951 10.875 10.569 26.958 17.921 48.249-8e-5 -3.3696 0.30626-6.7394 0.91903-10.109-3.3699-6.2799-6.0504-13.096-8.0415-20.448-0.76593-2.2974-1.7233-3.8291-2.872-4.5952s-1.6467-2.1059-1.4934-4.0208-0.383-4.7099-1.6083-8.3862c-2.2976-7.8116-4.1357-13.402-5.5142-16.772-2.1445-0.76565-4.442-3.4462-6.8928-8.0415-2.4508-4.595-4.9016-11.717-7.3523-21.368-1.9913-9.6496-2.604-18.687-1.8381-27.111 1.2253-13.173 3.0251-23.741 5.3993-31.707 2.3741-7.9647 5.1312-14.857 8.2713-20.678s5.8588-10.301 8.1564-13.441 4.6717-6.3946 7.1225-9.7647 4.9014-5.8968 7.3523-7.582c2.6038-0.91869 4.2887-0.38258 5.0547 1.6083 1.3785 4.9018 1.5316 10.799 0.45952 17.691 1.9912-6.1266 5.7056-14.474 11.143-25.044s11.679-19.452 18.725-26.652c6.4331-5.8202 10.875-9.0368 13.326-9.6498 2.2974-0.6123 3.7909-0.22937 4.4803 1.1488s0.65085 3.6765-0.11488 6.8928c-2.6041 6.74-5.0548 12.637-7.3523 17.691l-4.5952 10.569c3.8292-7.8114 8.9222-15.355 15.279-22.631s13.517-13.44 21.482-18.496c7.8116-5.5138 16.925-9.5729 27.341-12.177 9.956-1.8377 15.93-1.3781 17.921 1.3786-0.15338 3.3702-1.6085 6.5868-4.3654 9.6498 5.2076 0.15357 8.3477 0.91943 9.4201 2.2976-0.45973 5.8209-3.7529 11.412-9.8796 16.772-5.8207 4.7487-11.948 8.5014-18.381 11.258v0.91903zm103.39 379.33 3.9059 0.68928c3.5227-0.76588 6.5861-2.2976 9.1903-4.5952l5.9737-1.8381 0.91904-1.1488-2.5274-0.45951-3.6761 0.91903-5.5142-0.91903c-2.2979 0.4595-4.1742 0.99561-5.6291 1.6083-1.4554 0.61268-2.6425 1.6083-3.5613 2.9869l0.91904 2.7571zm-191.85-52.385-3.4464 5.2844c-0.45961 0.76589-0.30643 1.3786 0.45952 1.8381l-0.68928 1.3786-6.663-4.1356 0.91903-1.3786c0.61261 0.45955 1.2253 0.38297 1.8381-0.22976l10.109-15.394c0.30625-0.76581 0.07649-1.3785-0.68928-1.8381l0.91903-1.3786 8.0415 5.0547c2.757 2.1445 3.8292 4.6335 3.2166 7.4672s-2.1828 4.9015-4.71 6.2035-5.2462 0.7276-8.1564-1.7232l-1.1488-1.1488zm-24.125-4.3654 11.488 7.3523 4.3654-2.2976-0.68928-1.1488c-1.8382 0.76589-4.6718-0.15314-8.5011-2.7571l4.5952-7.1225 2.0678 1.3786c0.76578 0.45956 0.84236 1.2254 0.22976 2.2976l1.3786 0.91903 3.2166-5.2844-1.1488-0.68927c-0.76595 1.0722-1.5318 1.3786-2.2976 0.91903l-2.0678-1.3786 4.5952-7.3523c2.9102 1.685 4.4419 3.3698 4.5952 5.0547l1.1488 0.45951 0.91903-3.6761-11.258-7.1225-0.68928 1.1488c1.0721 0.45958 1.3019 1.2254 0.68928 2.2976l-9.8796 15.164c-0.45959 0.91907-1.1489 1.0722-2.0678 0.45951l-0.68927 1.3786zm-0.68928 0.91904-0.45952 1.1488c-2.9103-1.9912-4.6335-4.2888-5.1696-6.8928s-0.65104-5.9737-0.34464-10.109l-0.22976-0.22976-3.4464 5.2844c-0.3064 0.61274-0.15323 1.0723 0.45952 1.3786l-1.1488 1.6083-6.4332-4.1356 1.1488-1.6083c0.76581 0.45957 1.3785 0.53616 1.8381 0.22976l9.8796-15.164c0.30628-0.76579 0.07652-1.3785-0.68928-1.8381l1.1488-1.6083 8.5011 5.2844c2.9102 2.1445 4.059 4.6718 3.4464 7.582s-2.0296 4.9399-4.2505 6.0886-4.4038 0.95738-6.5481-0.5744c0.30628 1.2254 0.30628 3.0635 0 5.5142-0.15324 4.1357 0.61262 6.8162 2.2976 8.0416zm-4.8249-18.151c1.6848 1.9913 3.3314 2.872 4.9398 2.6422s2.8719-1.2636 3.791-3.1017 1.187-3.3314 0.80415-4.4803-1.7233-2.3358-4.0208-3.5612l-5.5142 8.5011zm44.573 13.326 6.8928 4.3654-0.45952 0.91903c-1.0723-0.45947-1.685-0.3063-1.8381 0.45952l-2.2976 13.786 9.8796-8.7308c0.61257-0.76583 0.53598-1.4551-0.22976-2.0678l0.45952-0.91903 5.0547 3.2166-0.68928 0.91904c-0.76598-0.45949-1.5318-0.3829-2.2976 0.22976l-17.691 15.164 3.4464-23.665c0.15306-1.0722-0.07669-1.9912-0.68927-2.7571l0.45952-0.91904zm-11.947-104.77 5.0547 6.4332c-1.0723-5.3609-1.5318-10.569-1.3786-15.624l-3.6761 9.1903zm14.705 40.437-2.5273 3.2166 3.9059 5.2844 3.6761 4.8249c1.5316 2.1445 3.3697 3.7528 5.5142 4.8249l-1.1488-3.4464-3.4464-6.2035-5.9737-8.5011zm38.599 80.875 1.1488 9.6498 2.9869-0.45952c2.1443-0.4595 2.9867-2.3742 2.5273-5.744-0.45967-2.7571-1.6085-4.059-3.4464-3.9059l-3.2166 0.45952zm-1.1488-9.4201 0.91903 7.582 3.2166-0.45952c1.5316-0.45948 2.2208-1.7614 2.0678-3.9059-0.3065-2.7571-1.3787-3.9824-3.2166-3.6761l-2.9869 0.45952zm-26.882-164.74 4.3654-6.4332c1.2252-2.2974 0.84232-3.2164-1.1488-2.7571-1.3787 0.6129-2.8338 1.4553-4.3654 2.5273 0.4594 1.8383 0.84233 4.0593 1.1488 6.663zm150.95 201.27c2.6036 2.6039 6.1266 5.4376 10.569 8.5011h3.2166c1.0719-0.91904 3.6758-1.3786 7.8118-1.3786l-19.529-14.475c-6.5867-1.8381-10.875-2.221-12.866-1.1488l10.799 8.5011zm-0.91904 5.9737c-0.61296 1.0722-0.23003 2.1444 1.1488 3.2166s2.5271 1.302 3.4464 0.68927l-4.5952-3.9059zm-209.31-224.24 0.91903 1.8381c1.0721-6.8925 2.3741-16.466 3.9059-28.72-4.1357 16.543-5.744 25.503-4.8249 26.882zm80.645 180.59 9.1903-1.3786c3.5228-0.3063 5.7438 1.1488 6.663 4.3654 0.45935 2.604-0.15333 4.5186-1.8381 5.744 2.1442 0.45954 3.4462 1.9913 3.9059 4.5952 1.2252 5.2079-1.6085 8.1947-8.5011 8.9606l-7.3523 1.1488v-1.6083c1.0721-0.15316 1.6082-0.76585 1.6083-1.8381l-1.8381-17.232c-0.15332-0.76582-0.68942-1.1488-1.6083-1.1488l-0.22976-1.6083zm-17.002 2.2976 8.9606-1.1488c3.5228-0.3063 5.8204 1.1488 6.8928 4.3654 0.45937 2.604-0.15332 4.5186-1.8381 5.744 2.2974 0.30637 3.676 1.7615 4.1356 4.3654 0.91889 5.5142-1.9914 8.5011-8.7308 8.9606l-7.582 1.1488v-1.6083c1.0721-0.15316 1.6082-0.76585 1.6083-1.8381l-1.6083-17.232c-0.1533-0.76582-0.68941-1.1488-1.6083-1.1488l-0.22976-1.6083zm6.8928 10.569 1.1488 9.6498 3.2166-0.45952c1.8379-0.61267 2.5272-2.6039 2.0678-5.9737-0.45965-2.6039-1.6084-3.8293-3.4464-3.6761l-2.9869 0.45952zm-1.1488-9.1903 0.91903 7.582 2.7571-0.45952c1.8379-0.45948 2.6804-1.7614 2.5273-3.9059-0.30648-2.7571-1.3787-3.9824-3.2166-3.6761l-2.9869 0.45951zm-34.004-92.363 7.1225 10.799 0.68927-1.3786-6.4332-10.799-1.3786 1.3786zm102.01 79.956 0.68927 4.5952-0.91903 0.22976c-1.3788-3.0634-3.5997-4.3654-6.663-3.9059-4.289 1.5318-6.0505 5.744-5.2844 12.637 1.8379 6.5864 5.3608 9.1138 10.569 7.582 1.8379-0.919 2.7569-2.8337 2.7571-5.744l1.3786-0.68927 0.68928 5.5142c-1.6851 1.6849-4.0593 2.8337-7.1225 3.4464-6.1271 0.91906-10.11-1.3019-11.947-6.663-1.9914-6.1268-1.6085-10.875 1.1488-14.245 3.5228-3.3697 8.4243-4.2888 14.705-2.7571zm12.177-4.5952-5.9737 22.057c-0.45972 1.0722-1.0724 1.6849-1.8381 1.8381l0.22976 1.3786 6.4332-1.3786v-1.3786c-1.0724 0.15321-1.6085 3e-5 -1.6083-0.45951l1.3786-4.8249 6.663-1.6083 2.0678 3.4464c0.30613 1.0722-0.0768 1.7615-1.1488 2.0678l0.22976 1.3786 7.8118-1.8381v-1.3786c-1.2256 3e-5 -2.068-0.3829-2.5273-1.1488l-11.718-18.151zm-38.14 8.2713 7.582-1.3786 0.45951 1.8381c-1.0724 5e-5 -1.6085 0.45956-1.6083 1.3786l2.5273 16.543c-1.8e-4 1.0722 0.6125 1.4552 1.8381 1.1488l0.22975 1.8381-7.3523 1.3786-0.22976-1.8381c0.91885-0.30632 1.3784-0.91901 1.3786-1.8381l-2.5273-16.313c-0.30652-0.76582-0.91921-1.0722-1.8381-0.91904l-0.45952-1.8381zm42.046 5.2844-5.0547 1.1488 1.8381-6.8928 3.2166 5.744zm-56.061-2.2976 7.582-1.3786 0.45951 1.6083c-1.2255 0.15322-1.7616 0.68932-1.6083 1.6083l2.9869 17.002c3.2164-0.61266 5.2077-2.0678 5.9737-4.3654l1.3786 0.22976-1.1488 5.5142-11.947 2.2976-0.22975-1.6083c0.91887-0.30633 1.3784-0.9956 1.3786-2.0678l-2.5274-16.313c-0.3065-0.76583-0.99578-1.0722-2.0678-0.91904l-0.22976-1.6083zm-85.24-204.03-1.6083 6.663-1.1488 9.1903 3.2166-10.799 4.5952-12.407-3.6761 0.68928-1.3786 6.663zm1.8381-37.221c-1.8381 5.6676-3.2933 11.948-4.3654 18.84l6.2035-16.543-1.8381-2.2976zm9.1903 5.744-4.8249 14.934 1.8381 0.22976c1.6848-4.7481 4.1356-10.109 7.3523-16.083l-4.3654 0.91903zm93.741 286.74 1.8381 1.1488 2.0678-1.1488 1.8381-2.5273-0.45951-1.1488-1.1488 0.22976-3.9059 2.5273-0.22976 0.91903zm115.8-78.807c-0.15347 3.6762-0.5364 6.2801-1.1488 7.8118l4.3654-1.8381-3.2166-5.9737zm35.613-53.763c-2.2979 1.5318-2.6426 2.987-1.0339 4.3654s2.7951 1.3021 3.5613-0.22976l1.8381-2.2976-4.3654-1.8381zm50.547 56.98 3.4464 22.057c0.15278 0.7659-0.23015 1.5318-1.1488 2.2976l0.45952 1.3786 6.4332-4.3654-0.68928-0.91904c-1.5321 0.91908-2.298 0.91908-2.2976 0l-0.91904-3.6761 6.2035-4.1356 3.2166 2.0678c0.61229 0.45957 0.45912 0.99567-0.45952 1.6083l0.91903 1.6083 7.3523-4.8249-1.1488-1.3786c-0.61309 0.3064-1.4555 0.3064-2.5273 0l-18.84-11.718zm-23.206 20.908 8.2713 13.096c0.30597 0.91906 0.07622 1.6849-0.68928 2.2976l0.91903 1.1488 5.5142-3.4464-0.91904-1.1488c-0.9194 0.45955-1.6853 0.38297-2.2976-0.22975l-6.2035-10.109 20.448 4.8249-10.799-15.624c-0.61306-1.3785-0.3833-2.6804 0.68928-3.9059l-1.1488-1.1488-5.744 3.6761 0.91903 1.6083c0.91867-0.45946 1.9143-0.2297 2.9869 0.68928l4.1356 6.8928-16.083-3.9059-4.3654 3.4464 0.68928 1.1488c1.225-0.3063 2.4504-0.07654 3.6761 0.68928zm32.626-9.6498-4.3654 2.9869-1.3786-6.663 5.744 3.6761zm-46.871 13.786 3.4464 22.057c-3.5e-4 1.0722-0.38328 1.9147-1.1488 2.5274l0.45951 1.6083 6.4332-4.5952-0.91903-0.91904c-1.2257 0.61271-1.915 0.53613-2.0678-0.22975l-0.91903-3.4464 6.2035-4.1356 2.7571 1.8381c0.61233 0.45954 0.53575 0.91905-0.22975 1.3786l1.1488 1.8381 6.8928-4.8249-1.1488-1.3786c-0.61306 0.30637-1.3023 0.38296-2.0678 0.22976l-18.84-11.947zm9.1903 11.488-4.3654 2.9869-1.3786-6.8928 5.744 3.9059zm-20.678-7.1225 7.8118 0.68927-0.22976 1.8381c-1.0725 0.15321-1.7618 0.76589-2.0678 1.8381l-0.68928 15.394c0.15284 0.91905 0.68894 1.4552 1.6083 1.6083l-0.22976 2.0678-8.0415-0.68927 0.22976-2.0678c1.225 2e-5 1.9909-0.4595 2.2976-1.3786l0.68928-15.394c-3.4e-4 -1.0722-0.45985-1.7614-1.3786-2.0678v-1.8381zm-58.129-7.8118-1.6083 4.5952 1.1488 0.68928c0.91876-1.6849 2.9866-2.1444 6.2035-1.3786l-2.9869 16.083c-0.45979 1.0722-1.3022 1.5318-2.5273 1.3786l-0.22976 1.6083 8.0416 1.3786 0.22976-1.6083c-1.0725-0.30632-1.532-0.99559-1.3786-2.0678l2.7571-16.083c3.2163 0.30638 5.0544 1.4552 5.5142 3.4464l1.3786-0.22976 0.22976-5.0547c-5.6677-0.61264-11.258-1.5317-16.772-2.7571zm-10.339-1.8381 7.582 1.3786-0.45951 1.6083c-1.2256-0.15313-1.9149 0.38297-2.0678 1.6083l-2.2976 15.394c-0.15344 0.91905 0.30608 1.4552 1.3786 1.6083l-0.22976 2.0678-8.0415-1.1488 0.22975-2.0678c1.2251 0.1532 1.991-0.22973 2.2976-1.1488l2.2976-15.394c0.15291-1.0722-0.15343-1.838-0.91903-2.2976l0.22976-1.6083zm82.713-71.685-5.5142 10.339 5.5142-6.4332v-3.9059zm-3.4464-25.273-0.91903 8.7308 2.2976-3.9059c-0.76621-0.9189-1.2257-2.5272-1.3786-4.8249zm19.529 28.49-3.4464 3.6761c-0.15354 2.2977 0.7655 2.4509 2.7571 0.45952l0.68927-4.1356zm-2.2976-133.95c-0.9194 3.0637-1.2257 5.0166-0.91904 5.8588s0.95697 1.4554 1.953 1.8381 1.876 0.57463 2.6422 0.57439c-1.8384-2.6037-3.0638-5.3608-3.6761-8.2713zm26.422 2.7571c-3.8e-4 1.6851 1.225 2.9105 3.6761 3.6761l-3.6761-3.6761zm-246.07 159.68c4.595 4.7484 8.0414 7.6587 10.339 8.7308 1.0721-2.6038 2.757-4.5951 5.0547-5.9737 2.1442-1.0721 14.858 3.2933 38.14 13.096l11.258 12.177c1.3783 0.61275 3.5228 0.38299 6.4332-0.68927 4.7481-3.0634 9.4965-4.059 14.245-2.9869 5.0545-2.6039 8.5774-3.14 10.569-1.6083 2.7569 2.4508 5.3608 4.3655 7.8118 5.744h8.9606c5.0544-6.7395 8.9603-10.799 11.718-12.177 15.776-7.8117 26.269-12.407 31.477-13.786 0.91873-0.15309 1.5314 0.07667 1.8381 0.68928 2.1441 1.9913 3.3695 3.4464 3.6761 4.3654 5.2076-3.2165 8.1944-6.2034 8.9606-8.9606 1.3782-3.676 4.2502-7.6968 8.6159-12.062s6.2414-8.3095 5.6291-11.833l-0.91903-8.5011c1.6846-2.6038 2.91-4.059 3.6761-4.3654l-1.3786-0.91904c-0.91936-0.45939-1.7618-0.30622-2.5273 0.45952-2.7574 2.9104-6.0506 5.7441-9.8796 8.5011-0.76617 0.30646-0.91935 0.91915-0.45952 1.8381l4.3654 9.8796c0.61237 1.2255 0.30603 2.2211-0.91903 2.9869-4.2891 3.0635-8.8077 6.0504-13.556 8.9606-0.91934 0.61278-1.8384 0.5362-2.7571-0.22976l-7.3523-8.2713c-0.61298-0.61258-1.3023-0.68917-2.0678-0.22976-4.2891 2.4509-8.1184 4.3655-11.488 5.744-0.91931 0.45962-1.4554 1.2255-1.6083 2.2976l1.3786 10.569c0.1529 1.3786-0.38321 2.2211-1.6083 2.5274-4.9018 2.2977-9.8799 3.9826-14.934 5.0547-1.532 0.45959-2.6042 8e-5 -3.2166-1.3786l-4.8249-9.8796c-0.45977-0.91895-1.2256-1.3019-2.2976-1.1488-3.9827 0.76595-8.2715 1.302-12.866 1.6083-0.91927 8e-5 -1.4554 0.4596-1.6083 1.3786l-1.6083 10.569c-0.15341 1.3786-0.99586 2.0679-2.5274 2.0678-5.3612 0.30641-10.722 0.30641-16.083 0-1.2256 7e-5 -1.9915-0.61262-2.2976-1.8381l-1.6083-10.799c-0.15339-0.91895-0.68949-1.3785-1.6083-1.3786-4.4422-0.15309-8.731-0.68919-12.866-1.6083-1.0724-0.45943-1.8383-0.22967-2.2976 0.68927l-4.8249 10.569c-0.61288 0.91911-1.6851 1.302-3.2166 1.1488-5.208-1.0721-10.11-2.6038-14.705-4.5952-1.5319-0.45943-2.2212-1.3785-2.0678-2.7571l1.3786-11.028c0.153-1.0721-0.22993-1.838-1.1488-2.2976-3.8295-1.5316-7.7354-3.4463-11.718-5.744-0.76602-0.61259-1.4553-0.536-2.0678 0.22975l-7.1225 8.0416c-0.91918 0.76595-1.9148 0.76595-2.9869 0-4.9016-2.4507-9.4968-5.2844-13.786-8.5011-0.91917-0.76576-1.2255-1.7614-0.91903-2.9869l4.8249-9.6498c0.30621-0.91892 0.07645-1.6082-0.68927-2.0678-3.6763-2.6038-6.9695-5.4375-9.8796-8.5011-0.61282-0.91891-1.3021-1.1487-2.0678-0.68927l-3.6761 2.0678c1.5316 0.30647 3.1399 1.3787 4.8249 3.2166 0.45938 0.61281 0.61256 1.4552 0.45951 2.5273l-1.1488 7.1225c-0.91916 5.208 1.2252 10.722 6.4332 16.543l7.1225 8.0416zm-18.61-108.45 1.3786-2.5273c0.91891-1.8379 1.3018-1.7613 1.1488 0.22976l-2.0678 5.744c0.61257 2.9105 0.9955 8.5778 1.1488 17.002 2.6038-10.262 4.1355-18.84 4.5952-25.733 0.30622-4.7481-0.6894-5.9735-2.9869-3.6761l-3.4464 4.3654 0.22976 4.5952zm-19.989-63.413-1.8381 2.0678h94.66l-7.582-2.0678h-85.24zm4.8249-5.9737-1.8381 2.0678h67.549l-7.8118-2.0678h-57.899zm4.8249-5.9737-1.6083 2.0678h39.748l-7.8118-2.0678h-30.328zm2.0678-3.9059h15.164l1.1488-2.0678h-14.934l-1.3786 2.0678zm152.1 15.853-7.582 2.0678h95.35l-1.6083-2.0678h-86.159zm22.516-5.9737-7.8118 2.0678h68.698l-2.0678-2.0678h-58.818zm22.746-5.9737-7.8118 2.0678h42.046l-2.9869-2.0678h-31.247zm22.746-5.9737h-10.799l1.1488 2.0678h12.866l-3.2166-2.0678zm-237.57 23.895-3.2166 2.0678h36.302l-2.7571-2.0678h-30.328zm-2.5273 5.9737 4.5952 2.0678h39.289l-2.7571-2.0678h-41.127zm1.8381 5.9737-0.45952 2.0678h50.777l-2.9869-2.0678h-47.33zm-1.1488 5.9737-0.22976 2.0678h22.746l0.45952-2.0678h-22.976zm0.68927 5.9737c-0.45961 1.0724-1.7616 1.7617-3.9059 2.0678h25.044l0.22976-2.0678h-21.368zm-15.164 5.9737v2.0678h30.788c0.61258-0.91881 1.2253-1.6081 1.8381-2.0678h-32.626zm-0.22976 5.9737v2.0678h27.801l0.91903-2.0678h-28.72zm0.22976 5.9737v2.0678h25.503l0.45952-2.0678h-25.963zm13.556 5.9737c0.61259 0.15338 0.99553 0.84265 1.1488 2.0678h9.1903l0.68928-2.0678h-11.028zm0.91903 8.0415h4.8249l1.6083-2.0678h-6.663l0.22976 2.0678zm0.68927 3.9059 0.22976 2.0678 1.1488-2.0678h-1.3786zm-11.488 11.947c-0.15326 0.61287-0.15326 1.3021 0 2.0678h5.2844l1.1488-2.0678h-6.4332zm0.91903 5.9737 0.45952 2.0678h1.6083l0.68928-2.0678h-2.7571zm241.48-77.658-2.7571 2.0678h32.626l0.45952-2.0678h-30.328zm-8.2713 5.9737-2.7571 2.0678h40.437v-2.0678h-37.68zm-8.0416 5.9737-2.9869 2.0678h50.777l-1.6083-2.0678h-46.181zm25.503 5.9737 0.45952 2.0678h22.746l-0.22976-2.0678h-22.976zm0.91904 5.9737 0.22976 2.0678h23.206c-0.91939-0.30612-1.3789-0.99539-1.3786-2.0678h-22.057zm0.45951 5.9737v2.0678h36.072v-2.0678h-36.072zm18.61 5.9737 1.3786 2.0678h16.313v-2.0678h-17.691zm2.5274 5.9737 0.45951 2.0678h14.475v-2.0678h-14.934zm0 5.9737 0.22975 2.0678c0.15282-1.2252 0.53575-1.9144 1.1488-2.0678h-1.3786zm0.68927 5.9737h-0.68927l0.45951 2.0678 0.22976-2.0678zm-2.5273 8.0415h1.3786l0.22976-2.0678-1.6083 2.0678zm-0.68928 3.9059v2.0678h5.0547l-3.2166-2.0678h-1.8381zm-0.68927 5.9737 1.1488 2.0678 2.7571-2.0678h-3.9059zm9.4201 0 1.1488 2.0678h2.9869l0.22976-2.0678h-4.3654zm-2.2976-48.939c0.15281 0.91926 0.61232 1.532 1.3786 1.8381l8.9606 1.3786c-2.9106-3.6759-5.2848-7.4286-7.1225-11.258l-4.1357-0.91903c0.45916 3.0637 0.7655 6.0505 0.91904 8.9606zm-235.73-4.8249 5.0547 2.0678h23.206l-2.9869-2.0678h-25.273zm15.394 5.9737 5.0547 2.0678h16.083l-2.7571-2.0678h-18.381zm15.624 5.9737 5.0547 2.0678h8.7308l-2.7571-2.0678h-11.028zm15.394 5.9737 5.0547 2.0678h1.6083l-2.7571-2.0678h-3.9059zm129.12-17.921-2.9869 2.0678h23.206l5.0547-2.0678h-25.273zm-8.5011 5.9737-2.7571 2.0678h16.083l5.0547-2.0678h-18.381zm-8.2713 5.9737-2.7571 2.0678h8.7308l5.0547-2.0678h-11.028zm-8.2713 5.9737-2.7571 2.0678h1.6083l5.0547-2.0678h-3.9059zm-68.928-107.53-0.22975 2.0678h16.313l0.68928-2.0678h-16.772zm-62.954-17.921-0.91904 2.0678h12.637l-1.8381-2.0678h-9.8796zm62.954 14.015h18.151l0.68927-2.0678h-18.61l-0.22976 2.0678zm-0.68927 15.853-0.22976 2.0678h13.096l0.68927-2.0678h-13.556zm-0.22976 5.9737-0.22976 2.0678h11.258l0.68928-2.0678h-11.718zm-0.45952 5.9737-0.22976 2.0678h9.6499l0.68927-2.0678h-10.109zm-0.22976 5.9737-0.22975 2.0678h8.0415l0.68928-2.0678h-8.5011zm-0.22975 5.9737-0.22976 2.0678h6.2035l0.68928-2.0678h-6.663zm-0.45952 5.9737-0.22976 2.0678h4.8249l0.45951-2.0678h-5.0547zm-0.22976 5.9737-0.22976 2.0678h2.9869l0.68928-2.0678h-3.4464zm-0.22976 5.9737-0.22976 2.0678h1.1488l0.68927-2.0678h-1.6083zm23.665-53.763 0.68927 2.0678h16.313l-0.22976-2.0678h-16.772zm2.0678 5.9737 0.68928 2.0678h14.475v-2.0678h-15.164zm14.475-11.947h-18.61l0.68928 2.0678h18.151l-0.22976-2.0678zm-12.637 17.921 0.68927 2.0678h13.096l-0.22976-2.0678h-13.556zm2.0678 5.9737 0.68928 2.0678h11.258l-0.22976-2.0678h-11.718zm2.0678 5.9737 0.68927 2.0678h9.4201v-2.0678h-10.109zm1.8381 5.9737 0.68927 2.0678h8.0416l-0.22976-2.0678h-8.5011zm2.0678 5.9737 0.68928 2.0678h6.2035l-0.22975-2.0678h-6.663zm2.0678 5.9737 0.45951 2.0678h4.5952v-2.0678h-5.0547zm1.8381 5.9737 0.68928 2.0678h2.9869l-0.22976-2.0678h-3.4464zm2.0678 5.9737 0.68928 2.0678h1.1488l-0.22976-2.0678h-1.6083zm-63.643 71.685-1.3786 2.0678h2.0678l0.68928-2.0678h-1.3786zm-3.9059 5.9737-1.3786 2.0678h4.1356l0.68927-2.0678h-3.4464zm-3.9059 5.9737-1.1488 2.0678h5.9737l0.68927-2.0678h-5.5142zm-3.6761 5.9737-1.3786 2.0678h7.8118l0.68928-2.0678h-7.1225zm-3.9059 5.9737-1.3786 2.0678h9.8796l0.68927-2.0678h-9.1903zm-3.9059 5.9737-1.3786 2.0678h11.947l0.68928-2.0678h-11.258zm-3.9059 5.9737-1.3786 2.0678h13.786l0.68928-2.0678h-13.096zm-3.9059 5.9737-1.3786 2.0678h15.853l0.68927-2.0678h-15.164zm-3.9059 5.9737-1.3786 2.0678h17.921l0.68928-2.0678h-17.232zm67.779-23.895-2.7571 2.0678h1.1488l1.6083-2.0678zm-8.0415 5.9737-2.5274 2.0678h4.1356l1.6083-2.0678h-3.2166zm-7.8118 5.9737-2.7571 2.0678h7.3523l1.6083-2.0678h-6.2035zm-7.8118 5.9737-2.7571 2.0678h10.339l1.6083-2.0678h-9.1903zm-8.0416 5.9737-2.5273 2.0678h13.326l1.6083-2.0678h-12.407zm-7.8118 5.9737-2.7571 2.0678h16.543l1.6083-2.0678h-15.394zm-7.8118 5.9737-2.7571 2.0678h19.529l1.6083-2.0678h-18.381zm-9.4201 7.1225 0.22976-1.1488h-49.628l-1.3786 2.0678h72.144l1.6083-2.0678h-21.368l-1.6083 1.1488zm-45.033-11.028h48.479l0.68928-2.0678h-48.02l-1.1488 2.0678zm-1.1488 3.9059-1.1488 2.0678h48.939l0.68927-2.0678h-48.479zm3.9059-11.947-0.68928 2.0678h24.814l-2.0678-2.0678h-22.057zm0.91903-5.9737-0.45952 2.0678h18.151l-1.6083-2.0678h-16.083zm1.1488-5.9737-0.68928 2.0678h12.407l-1.1488-2.0678h-10.569zm1.8381-5.9737-0.91903 2.0678h7.3523l-0.91903-2.0678h-5.5142zm2.0678-5.9737-1.3786 2.0678h2.9869l-0.45951-2.2976-1.1488 0.22976zm142.22-23.895 0.68928 2.0678h2.0678l-1.3786-2.0678h-1.3786zm1.8381 5.9737 0.68928 2.0678h4.1356l-1.3786-2.0678h-3.4464zm58.818 5.9737-0.68928 2.0678h3.9059l-1.3786-2.0678h-1.8381zm-2.0678 5.9737-0.68927 2.0678h8.5011l-0.91904-2.0678h-6.8928zm-51.006 5.9737 0.68927 2.0678h9.8796l-1.3786-2.0678h-9.1903zm1.8381 5.9737 0.68927 2.0678h11.947l-1.3786-2.0678h-11.258zm2.0678 5.9737 0.68928 2.0678h13.786l-1.3786-2.0678h-13.096zm1.8381 5.9737 0.68927 2.0678h15.853l-1.3786-2.0678h-15.164zm1.8381 5.9737 0.68927 2.0678h17.921l-1.3786-2.0678h-17.232zm-48.939-21.827h1.1488l-2.7571-2.0678 1.6083 2.0678zm3.2166 3.9059 1.6083 2.0678h4.1356l-2.5273-2.0678h-3.2166zm4.8249 5.9737 1.6083 2.0678h7.3523l-2.7571-2.0678h-6.2035zm4.8249 5.9737 1.6083 2.0678h10.339l-2.7571-2.0678h-9.1903zm4.8249 5.9737 1.6083 2.0678h13.326l-2.5273-2.0678h-12.407zm4.8249 5.9737 1.6083 2.0678h16.543l-2.7571-2.0678h-15.394zm4.8249 5.9737 1.6083 2.0678h19.529l-2.7571-2.0678h-18.381zm26.192 5.9737h-21.368l1.6083 2.0678h71.455l-0.22976-2.0678h-50.087l0.22976 1.1488-1.6083-1.1488zm52.155-11.947h-54.682l0.68928 2.0678h53.534l0.45952-2.0678zm-52.844 5.9737 0.68927 2.0678h51.236l0.22976-2.0678h-52.155zm22.516-11.947-2.0678 2.0678h29.409l-2.5273-2.0678h-24.814zm5.0547-5.9737-1.6083 2.0678h17.691l-1.3786-2.0678h-14.705zm3.6761-5.9737-1.1488 2.0678h11.258l0.22976-1.3786-0.91904-0.68927h-9.4201zm3.2166-5.9737-0.91904 2.0678h5.9737l-0.45952-2.0678h-4.5952zm14.934-5.5142-0.45952-0.68928-0.91903 0.22976 1.3786 0.45952zm-62.724-6.4332 0.68928 2.0678h7.8118l-1.3786-2.0678h-7.1225zm49.628 8.0415h3.4464l1.6083-2.2976-3.9059 0.22976-1.1488 2.0678zm-51.696-14.015 0.68927 2.0678h5.9737l-1.1488-2.0678h-5.5142zm-53.763-179.21-0.45952 2.0678h16.543l-0.22976-2.0678h-15.853zm-0.91904 5.9737-0.22976 2.0678h17.921l-0.22976-2.0678h-17.462zm-40.667 11.947c0.45934 0.76621 0.22958 1.4555-0.68928 2.0678h100.86c-1.3788-0.76551-1.9915-1.4548-1.8381-2.0678h-98.337zm-7.3523 5.9737-4.1356 2.0678h122c-1.2257-0.76552-2.451-1.4548-3.6761-2.0678h-114.19zm-28.72 5.9737-1.1488 2.0678h174.39l1.1488-2.0678h-174.39zm-2.9869 5.9737-1.1488 2.0678h55.142c3.2164-0.91871 5.9735-1.608 8.2713-2.0678h-62.265zm-3.2166 5.9737-1.1488 2.0678h41.586l4.5952-2.0678h-45.033zm-2.9869 5.9737v2.0678h32.626l3.2166-2.0678h-35.842zm-0.45952 5.9737-0.45952 2.0678h25.733l2.7571-2.0678h-28.031zm-1.1488 5.9737-0.91903 2.0678h20.908l2.0678-2.0678h-22.057zm-2.2976 5.9737-0.68928 2.0678h17.462l1.6083-2.0678h-18.381zm-2.5274 5.9737-1.1488 2.0678h14.934l1.8381-2.0678h-15.624zm-3.2166 5.9737-1.3786 2.0678h14.245l1.6083-2.0678h-14.475zm-3.4464 5.9737-1.1488 2.0678h13.786l1.1488-2.0678h-13.786zm88.457-35.842v2.0678h14.475l0.68928-2.0678h-15.164zm-59.507-29.869-0.91904 2.0678h4.5952l-1.8381-2.0678h-1.8381zm39.289-15.853h4.3654c-0.45971-0.45915-0.99581-0.68891-1.6083-0.68928s-1.5319 0.23012-2.7571 0.68928zm-11.718 5.9737h19.07l-0.91904-2.0678h-18.381l0.22976 2.0678zm1.1488 5.9737h19.989c-0.30654-0.45916-0.84264-1.225-1.6083-2.2976h-18.84l0.45951 2.2976zm89.836-11.947c-1.3788-0.61232-2.3361-0.91867-2.872-0.91903s-1.0342 0.30671-1.4934 0.91903h4.3654zm11.488 3.9059h-17.921l-0.91904 2.0678h18.61l0.22976-2.0678zm-0.68928 5.744h-19.529c-0.15343 1.0726-0.53636 1.8384-1.1488 2.2976h20.448l0.22975-2.2976zm-64.792 0.22976c-4.4422 0.3067-9.1905 0.99597-14.245 2.0678h56.98c-5.2081-1.0718-10.186-1.7611-14.934-2.0678h-27.801zm39.059 23.895c2.6037 0.45985 5.5139 1.1491 8.7308 2.0678h51.925l1.1488-2.0678h-61.805zm20.908 5.9737 5.0547 2.0678h38.829l-2.7571-2.0678h-41.127zm11.718 5.9737 3.6761 2.0678h34.923l-2.2976-2.0678h-36.302zm9.4201 5.9737 2.9869 2.0678h33.774l0.22976-2.0678h-36.991zm6.663 5.9737 2.5274 2.0678h28.49l-0.91903-2.0678h-30.098zm6.4332 5.9737 2.0678 2.0678h18.84c-0.1535-0.61239-0.07691-1.3017 0.22976-2.0678h-21.138zm5.744 5.9737 1.6083 2.0678h15.624l-1.1488-2.0678h-16.083zm4.5952 5.9737 1.3786 2.0678h10.799c0.30601-0.91874 1.3016-1.608 2.9869-2.0678h-15.164zm3.9059 5.9737 1.1488 2.0678h7.1225l-0.68928-2.0678h-7.582zm-16.313-60.656c-0.61299 1.3789 3.3695 1.9916 11.947 1.8381 0.4592-1.0719 1.2251-1.7611 2.2976-2.0678l-3.9059-3.2166-6.2035-0.68928c-3.2169 1.8384-4.5955 3.217-4.1356 4.1356zm-5.9737 0.91903-1.6083 2.0678h7.582c-1.9915-0.15283-2.9872-0.84211-2.9869-2.0678h-2.9869zm5.2844-5.9737-1.8381 1.8381h0.68928l1.6083-1.8381h-0.45951zm-101.55 19.989c-5.9739 1.0725-11.182 2.3745-15.624 3.9059h18.84l0.22976-3.9059h-3.4464zm-21.138 5.9737c-3.5231 1.532-6.2036 2.834-8.0415 3.9059h32.166l0.22976-3.9059h-24.354zm-11.718 5.9737c-2.2978 1.532-4.3656 2.834-6.2035 3.9059h41.586l0.22976-3.9059h-35.613zm-8.7308 5.9737c-1.5319 1.2257-3.0636 2.5276-4.5952 3.9059h48.479l0.22975-3.9059h-44.114zm-6.8928 5.9737-3.9059 3.9059h54.223l0.45952-3.9059h-50.777zm-5.9737 5.9737-3.2166 3.9059h59.278l0.22976-3.9059h-56.291zm-4.8249 5.9737-2.9869 3.9059h63.643l0.22976-3.9059h-60.886zm-4.3654 5.9737-2.5273 3.9059h67.319v-3.9059h-64.792zm-5.9737 9.8796h70.306l0.22976-3.9059h-68.238l-2.2976 3.9059zm1.8381 2.0678 14.934 3.9059h53.304l0.22976-3.9059h-68.468zm22.746 5.9737 14.705 3.9059h30.558l0.22976-3.9059h-45.492zm22.516 5.9737 14.475 3.9059h7.8118l0.22976-3.9059h-22.516zm67.779-65.711 0.22976 3.9059h18.84c-4.4423-1.5314-9.6501-2.8334-15.624-3.9059h-3.4464zm0.22976 5.9737 0.22976 3.9059h32.166c-1.8383-1.0719-4.5188-2.3738-8.0415-3.9059h-24.354zm0.45952 5.9737 0.22976 3.9059h41.586c-1.8384-1.0719-3.9062-2.3739-6.2035-3.9059h-35.613zm0.22976 5.9737 0.22976 3.9059h48.479c-1.532-1.3782-3.0637-2.6802-4.5952-3.9059h-44.114zm0.22976 5.9737 0.45951 3.9059h54.223l-3.9059-3.9059h-50.777zm0.45951 5.9737 0.22976 3.9059h59.278l-3.2166-3.9059h-56.291zm0.22976 5.9737 0.22976 3.9059h63.643l-2.9869-3.9059h-60.886zm0.45952 5.9737v3.9059h67.319l-2.5273-3.9059h-64.792zm68.468 5.9737h-68.238l0.22975 3.9059h70.306l-2.2976-3.9059zm-68.008 5.9737 0.22976 3.9059h53.304l14.934-3.9059h-68.468zm0.22976 5.9737 0.22976 3.9059h30.558l14.705-3.9059h-45.492zm0.45952 5.9737 0.22976 3.9059h7.8118l14.475-3.9059h-22.516zm-33.085 183.12 0.22976 2.0678h17.462l0.22976-2.0678h-17.921zm-0.91903-5.9737 0.22976 2.0678h19.3l0.22976-2.0678h-19.759zm-19.07-5.9737c5.2077 1.2255 9.4965 1.9147 12.866 2.0678h30.098c3.8291-0.30626 8.0413-0.99553 12.637-2.0678h-55.602zm-22.287 5.9737-0.22976 2.0678h17.921l0.91903-2.0678h-18.61zm0.91903-5.9737-0.45951 2.0678h19.989c0.30614-1.0721 0.76566-1.7614 1.3786-2.0678h-20.908zm9.1903 11.947 2.9869 0.91903c1.2252 0.15325 2.1442-0.15309 2.7571-0.91903h-5.744zm-10.339-17.921c1.072 0.45962 1.6081 1.1489 1.6083 2.0678h99.026c-2.7e-4 -0.76577 0.84217-1.455 2.5274-2.0678h-103.16zm-11.488-5.9737 4.3654 2.0678h117.87l3.4464-2.0678h-125.68zm95.12 17.921 0.91904 2.0678h17.921l-0.22976-2.0678h-18.61zm-3.2166-5.9737c0.61243 0.30643 1.0719 0.99571 1.3786 2.0678h19.989l-0.45951-2.0678h-20.908zm5.9737 11.947c0.61243 0.76594 1.5315 1.0723 2.7571 0.91903l2.9869-0.91903h-5.744zm-122.23-29.869-1.1488 2.0678h176.68l-0.91904-2.0678h-174.62zm115.34-5.9737c-2.2978 0.76597-6.2037 1.4552-11.718 2.0678h69.387l-1.1488-2.0678h-56.521zm16.772-5.9737-4.3654 2.0678h46.411l2.5273-2.0678h-44.573zm1.6083-5.9737 1.3786 2.0678h46.411l2.0678-2.0678h-49.858zm-130.96 11.947-1.1488 2.0678h69.387c-5.5144-0.61257-9.4203-1.3018-11.718-2.0678h-56.521zm-4.8249-5.9737 2.5273 2.0678h46.411l-4.3654-2.0678h-44.573zm-6.8928-5.9737 2.0678 2.0678h46.411l1.3786-2.0678h-49.858zm17.002 29.869 1.6083 0.91904c1.2252 0.45961 2.1443 0.38302 2.7571-0.22976l0.68927-0.68928h-5.0547zm-9.8796-5.9737 3.2166 2.0678h15.394l1.8381-2.0678h-20.448zm-23.206-23.895 1.6083 2.0678h2.9869l2.7571-2.0678h-7.3523zm186.56 29.869 0.68927 0.68928c0.61239 0.61278 1.5314 0.68937 2.7571 0.22976l1.6083-0.91904h-5.0547zm-5.5142-5.9737 1.8381 2.0678h15.394l3.2166-2.0678h-20.448zm35.153-23.895 3.9059 2.0678h1.8381l1.6083-2.0678h-7.3523zm-2.7571-105.46-10.339 3.9059h16.083l-0.22976-3.9059h-5.5142zm-15.624 5.9737-10.339 3.9059h32.166l-0.22975-3.9059h-21.597zm-15.624 5.9737-10.109 3.9059h47.56v-3.9059h-37.451zm-15.394 5.9737-10.339 3.9059h62.724l0.45951-3.9059h-52.844zm-15.624 5.9737 2.5273 3.9059h64.792l0.45952-3.9059h-67.779zm3.9059 5.9737 2.5273 3.9059h53.534c-0.15349-1.991 0.15285-3.293 0.91904-3.9059h-56.98zm3.9059 5.9737 2.5273 3.9059h51.696c-0.61302-1.072-1.1491-2.374-1.6083-3.9059h-52.615zm3.9059 5.9737 2.5274 3.9059h48.02l1.1488-3.4464-0.22976-0.45952h-51.466zm3.9059 5.9737 2.5273 3.9059h41.816l1.6083-3.9059h-45.952zm3.9059 5.9737 2.5273 3.9059h35.613l1.6083-3.9059h-39.748zm3.9059 5.9737 2.5273 3.9059h28.72l2.0678-3.9059h-33.315zm3.9059 5.9737 2.5274 3.9059h21.597l2.2976-3.9059h-26.422zm3.9059 5.9737 2.2976 3.9059h13.786l2.9869-3.9059h-19.07zm3.6761 5.9737 2.7571 3.9059h4.8249l3.4464-3.9059h-11.028zm3.9059 5.9737 0.68928 0.91903 0.91903-0.91903h-1.6083zm-184.73-83.632-0.45952 3.9059h16.313l-10.339-3.9059h-5.5142zm-0.68927 5.9737v3.9059h32.166l-10.339-3.9059h-21.827zm0 5.9737v3.9059h47.56l-10.109-3.9059h-37.451zm9.6498 5.9737c0.76573 0.6129 0.76573 1.9149 0 3.9059h53.534l-10.339-3.9059h-43.195zm-0.91903 5.9737-0.45952 0.68927c0.61256-0.45931 1.2635-0.65077 1.953-0.57439s1.2635 1.3405 1.7232 3.791h53.993l2.5274-3.9059h-59.737zm3.2166 5.9737v3.9059h50.087l2.5273-3.9059h-52.615zm0 5.9737-0.45951 3.9059h46.641l2.5273-3.9059h-48.709zm-0.68927 5.9737-0.68928 3.9059h43.654l2.5273-3.9059h-45.492zm-1.1488 5.9737-0.91904 3.9059h41.127l2.5274-3.9059h-42.735zm-1.3786 5.9737v0.22976l1.3786 3.6761h36.302l2.5273-3.9059h-40.208zm2.0678 5.9737 2.0678 3.9059h29.639l2.5273-3.9059h-34.234zm2.9869 5.9737 2.2976 3.9059h22.516l2.5273-3.9059h-27.341zm3.6761 5.9737 2.9868 3.9059h14.475l2.2976-3.9059h-19.759zm4.8249 5.9737 3.4464 3.9059h5.0547l2.7571-3.9059h-11.258zm5.744 5.9737 0.91903 0.91903 0.68928-0.91903h-1.6083zm78.348-29.869-2.9869 3.9059h8.5011l-3.2166-3.9059h-2.2976zm-4.8249 5.9737-2.9869 3.9059h18.151l-3.2166-3.9059h-11.947zm-4.8249 5.9737-3.2166 3.9059h28.031l-3.2166-3.9059h-21.597zm-4.8249 5.9737-2.9869 3.9059h37.451l-3.2166-3.9059h-31.247zm-4.8249 5.9737-2.9868 3.9059h47.1l-3.2166-3.9059h-40.897zm-4.8249 5.9737-2.9869 3.9059h56.75l-3.2166-3.9059h-50.547zm-4.8249 5.9737-3.2166 3.9059h66.63l-3.2166-3.9059h-60.197zm-4.8249 5.9737-3.2166 3.9059h76.28l-3.2166-3.9059h-69.847zm-4.8249 5.9737-3.2166 3.9059h85.7l-2.9869-3.9059h-79.496zm-4.8249 5.9737-1.1488 1.1488 5.744 2.7571h80.186l5.2844-2.7571-0.91903-1.1488h-89.146zm9.8796 5.9737c6.5862 2.1445 12.33 3.4465 17.232 3.9059h35.842c5.6671-0.91892 11.181-2.2209 16.543-3.9059h-69.617zm115.34 99.945c0.30604 1.0722 0.91873 1.6083 1.8381 1.6083v1.3786l-9.4201-0.91903 0.22975-1.3786c1.0719 0.15319 1.6846-0.22974 1.8381-1.1488l-0.68927-2.7571-8.0416-1.1488-1.1488 1.8381c-0.30663 0.91905 0.22947 1.5317 1.6083 1.8381v1.8381l-7.3523-1.3786 0.22976-1.3786c0.91875 2e-5 1.6846-0.38291 2.2976-1.1488l11.718-19.529 6.8928 22.287zm6.8928-15.624c0.15286-1.2253-0.30665-1.838-1.3786-1.8381v-2.0678l7.8118 0.68928-0.22976 2.0678c-0.91935 4e-5 -1.4554 0.53614-1.6083 1.6083l-1.1488 17.232c4.748 0.45953 8.0412-0.38292 9.8796-2.5273h1.1488l-1.6083 5.5142-16.083-1.6083 0.22976-1.3786c1.0719 1e-5 1.7612-0.68926 2.0678-2.0678l0.91903-15.624zm-15.624 1.8381-4.3654 7.582 6.663 0.91903-2.2976-8.5011zm-211.61-114.65c-1.685 6.7397-2.6806 11.488-2.9869 14.245-0.61277 4.289 0.84236 6.3568 4.3654 6.2035 2.1443-0.61256 3.7526 0.22989 4.8249 2.5274l6.2035 12.637c-1.685 1.685-4.3655 1.2255-8.0415-1.3786-2.7572-1.9911-5.5143-5.7438-8.2713-11.258-1.8382-3.676-3.4082-7.2756-4.71-10.799s-2.604-7.6585-3.9059-12.407-4.7867-14.743-10.454-29.983-10.148-25.043-13.441-29.409-5.3994-6.5479-6.3184-6.5481c-1.3786-0.30613-2.4508 0.68949-3.2166 2.9869-0.30638 0.76607-0.38297 4.4805-0.22976 11.143s0.61265 11.603 1.3786 14.819c1.6848 9.0373 5.0546 18.84 10.109 29.409 5.0546 10.722 13.249 22.21 24.584 34.464-4.9016-8.5775-9.8797-18.074-14.934-28.49-5.8206-12.866-9.8031-22.631-11.947-29.294s-3.2932-10.952-3.4464-12.866 0.15313-1.8762 0.91903 0.11488 2.3741 6.7398 4.8249 14.245c3.3697 9.0373 9.7264 22.44 19.07 40.208 7.0458 13.786 11.641 21.674 13.786 23.665 5.9736 5.8206 10.875 7.5055 14.705 5.0547l2.5273 1.8381 7.1225 12.177 7.582 9.1903c4.2887 4.2889 8.5009 5.2079 12.637 2.7571 0.91891 2.4508 2.1826 3.3699 3.791 2.7571s2.8718-0.38285 3.791 0.68927l2.9869 3.9059 15.853 10.569 17.232 10.339 10.109-1.8381c-2.9105-1.838-6.3568-4.2888-10.339-7.3523-0.91921-2.4507-2.068-4.1356-3.4464-5.0547l-2.7571 0.68927 1.1488 5.5142-4.3654-0.91903c0.15301-1.9912-1.3404-4.0207-4.4803-6.0886s-7.1227-4.7483-11.947-8.0415c-4.8251-3.2931-9.4202-7.3522-13.786-12.177-4.3655-4.8248-6.778-8.0032-7.2374-9.535-0.76599-2.4506-1.6467-3.8675-2.6422-4.2505s-1.417-1.6465-1.2637-3.791l0.45952-2.7571 1.3786-8.9606-2.0678-1.1488-1.3786 4.3654c-0.45964 2.2977-2.0296 1.2638-4.71-3.1017s-7.3141-10.76-13.9-19.185l-7.3523-8.9606-0.68927 2.5273c3.676 5.3612 6.7778 10.186 9.3052 14.475s4.6334 7.9651 6.3184 11.028c1.6848 3.0636 4.5185 7.429 8.5011 13.096l4.8249 9.6498 8.5011 8.0416 0.22976 5.2844c-1.685-3.5229-3.2168-5.8205-4.5952-6.8928s-2.5275-1.2253-3.4464-0.45952c-2.9104 2.9104-6.6631 0.99571-11.258-5.744-2.2977-3.0634-4.825-7.1224-7.582-12.177-0.61279-0.91893 0.61258-2.9102 3.6761-5.9737l-1.8381-2.0678-2.5273 2.0678-10.339-14.934 1.3786-2.0678-1.3786-2.0678-1.6083 1.1488-2.7571-4.8249-0.91903 2.5273 1.3786 3.2166-1.8381 0.91903c-1.5318 0.1533-1.6084-2.6038-0.22976-8.2713 2.6038-7.8116 6.7395-18.074 12.407-30.788-1e-4 -3.3696 0.38283-7.5053 1.1488-12.407-6.2802 11.182-11.105 22.44-14.475 33.774zm260.78-141.07c1.0719-3.9822 2.8333-8.271 5.2844-12.866 2.9099-4.5949 3.3694-4.748 1.3786-0.45952-3.8297 8.1184-5.6677 13.633-5.5142 16.543l7.1225 15.853c1.3782-6.2798 4.365-12.483 8.9606-18.61 1.8377-2.2973 1.9909-2.0675 0.45951 0.68927-5.055 8.1184-7.8121 14.781-8.2713 19.989l4.5952 13.096c0.7655-3.0632 2.0675-6.2032 3.9059-9.4201 0.7655-1.072 0.84208-0.7656 0.22976 0.91903-0.61305 1.6852-1.3789 4.1359-2.2976 7.3523s-0.68964 6.3569 0.68927 9.4201 3.5609 7.0462 6.5481 11.947 5.2841 8.5396 6.8928 10.914 3.9438 5.7059 7.0076 9.9945l5.744-0.22976 0.91903-11.028c4.1353-1.3783 6.2797-3.5227 6.4332-6.4332 0.15277-11.488-0.5365-19.376-2.0678-23.665-5.3614-6.8925-10.493-12.1-15.394-15.624-2.1448-2.1441-1.9916-2.4505 0.45952-0.91903 5.667 3.6764 10.262 7.2759 13.786 10.799l-3.4464-14.015c-4.4424-3.829-8.3483-8.271-11.718-13.326-1.6853-2.4505-1.6087-2.7568 0.22976-0.91903 4.1353 5.055 7.6582 8.4248 10.569 10.109-1.6853-5.0544-3.4468-10.262-5.2844-15.624-5.6678-6.5861-10.569-11.181-14.705-13.786-2.9106-2.1441-2.9106-2.6802 0-1.6083 2.2972 0.61299 6.3563 3.3701 12.177 8.2713-1.9916-5.2076-3.9828-10.262-5.9737-15.164-2.4511-3.3695-5.3614-6.5095-8.7308-9.4201-1.2258-1.3782-0.84282-1.4548 1.1488-0.22976s4.1353 3.1404 6.4332 5.744l-2.9868-9.6498c-0.30672-2.4504 0.07621-2.4504 1.1488 0l3.2166 7.3523 5.0547 12.866c0.76548-2.2973 1.1484-5.0544 1.1488-8.2713 0.61231-3.9822 0.99524-3.829 1.1488 0.45951s-0.15355 8.0419-0.91903 11.258c2.2972 5.6677 4.4416 11.718 6.4332 18.151 2.4504-3.2163 4.1353-7.7349 5.0547-13.556 0.76546-4.1353 1.0718-3.7524 0.91903 1.1488-0.61308 5.8208-2.0682 10.646-4.3654 14.475 1.9908 8.1184 3.8289 15.011 5.5142 20.678 1.6845-1.0719 3.3694-3.9056 5.0547-8.5011 1.5313-2.2973 1.7611-1.9144 0.68927 1.1488-2.1448 6.1272-3.8297 9.7267-5.0547 10.799 1.3782 5.974 2.3355 11.373 2.872 16.198 0.5357 4.8252 0.65058 9.4586 0.34464 13.9 1.0718-0.61246 1.6845-2.6803 1.8381-6.2035-4e-4 -1.6846 0.49741-3.9056 1.4934-6.663s2.5652-6.1266 4.71-10.109c1.9908-3.6759 1.9142-5.3608-0.22976-5.0547l-4.1356 1.1488c-1.379 2.6e-4 -2.0682-0.68902-2.0678-2.0678 0.30595-2.7568 1.493-5.131 3.5613-7.1225s3.1013-3.829 3.1017-5.5142c0.30593-1.3783-0.53651-4.212-2.5273-8.5011-3.0638 0.91932-5.0934 2.0681-6.0886 3.4464s-1.5321 1.4171-1.6083 0.11488 0.61229-3.178 2.0678-5.6291c1.4547-2.4505 1.9142-5.0927 1.3786-7.9267s-2.0299-6.7776-4.4803-11.833c1.6845-7.1988-0.30674-9.2666-5.9737-6.2035 0.6123-5.9734-0.45991-11.105-3.2166-15.394-2.298-4.748-4.6721-5.7436-7.1225-2.9869-5.0551-7.0456-8.7312-11.105-11.028-12.177s-3.6765-0.91869-4.1356 0.45952-1.2257 3.1404-2.2976 5.2844c-1.0726 1.9916-1.0726 5.3614 0 10.109-3.3701 0.91936-4.7487 2.6042-4.1356 5.0547l2.2976 7.1225c1.8377 2.2979 3.0248 4.6721 3.5612 7.1225s0.26769 4.9784-0.80415 7.582c4.748-2.7568 7.9646-2.91 9.6498-0.45952 0.61232 2.2979 0.76549 4.2891 0.45952 5.9737-0.30672 1.6852-0.38331 4.9018-0.22976 9.6498-0.15355 1.0725 1.1484 2.0298 3.9059 2.872s3.5992 2.3362 2.5273 4.4803c-0.61307 0.76613-1.9533 0.42149-4.0208-1.0339-2.0682-1.4549-3.485-1.4932-4.2505-0.11488-1.9916 2.7574-0.45989 5.8974 4.5952 9.4201 9.8026 6.4335 13.862 10.11 12.177 11.028-2.9107 0.61294-3.9063 2.2212-2.9869 4.8249 0.45914 1.532 2.2972 3.2169 5.5142 5.0547 3.063 2.1447 4.2118 5.2081 3.4464 9.1903-0.45991 4.289-2.0682 6.8164-4.8249 7.582-0.91943-4.2886-1.3024-7.084-1.1488-8.3862s-0.84283-2.4505-2.9869-3.4464-4.9785-7.9264-8.5011-20.793l-4.8249-0.22976c4.4416 15.011 7.2753 22.67 8.5011 22.976 1.225 0.30658 2.4504 1.9149 3.6761 4.8249 0.30596 2.2978 0.34426 5.5144 0.11488 9.6498s1.1867 6.1271 4.2505 5.9737l-2.0678 2.5273c-1.6853-0.4593-3.0638-1.4549-4.1356-2.9869-1.3789-2.1442-2.1065-4.3269-2.1827-6.5481s-0.11526-4.5184-0.11488-6.8928-1.1492-3.0632-3.4464-2.0678-3.7914 1.149-4.4803 0.45952-1.1109-1.5315-1.2637-2.5273 0.45914-3.1015 1.8381-6.3184c0.30597-2.2973 0.1911-3.9056-0.34463-4.8249s-1.9533-1.2251-4.2505-0.91903-3.0638-1.9144-2.2976-6.663l2.7571-9.8796c0.91867-5.0544-1.0726-5.7437-5.9737-2.0678 0.7655-4.1354 2.2206-7.1222 4.3654-8.9606s3.0248-4.0588 2.6422-6.663-0.3833-5.0927 0-7.4672 0.03792-3.9439-1.0339-4.71c-3.217-0.30605-7.4292 2.9872-12.637 9.8796l2.5273-6.4332c2.6036-7.8115 3.1397-13.173 1.6083-16.083-1.5321-1.9909-3.1404-3.3695-4.8249-4.1356-1.2257 0.45982-2.834 2.0681-4.8249 4.8249-1.9916 2.2979-3.217 2.7574-3.6761 1.3786l1.1488-7.1225c-0.15352-3.0631-1.4172-5.1692-3.791-6.3184s-5.0167-2.5653-7.9267-4.2505c-0.45985 1.8384-1.1491 3.6764-2.0678 5.5142-1.5321 2.7574-2.2213 5.5911-2.0678 8.5011-0.61302 1.6852 0.07625 4.0594 2.0678 7.1225-5.3614 3e-4 -6.8165 2.5276-4.3654 7.582l1.8381 2.7571c1.225 1.532 2.2972 3.5998 3.2166 6.2035-3.217-0.30606-4.9784 0.38322-5.2844 2.0678-0.1535 2.451 0.68894 4.0593 2.5273 4.8249 9.19 3.9828 14.934 8.1184 17.232 12.407 2.7568 5.0549 4.9777 7.5823 6.663 7.582l-4.5952-12.177c-1.9916-3.2164-7.1228-6.5096-15.394-9.8796-2.4511-1.0719-2.4511-1.3783 0-0.91904 6.5861 2.6042 11.258 4.9018 14.015 6.8928-1.5321-3.5227-3.217-7.4286-5.0547-11.718-2.2979-2.6036-5.6677-5.2076-10.109-7.8118-1.9916-1.5314-1.9916-1.7612 0-0.68927 3.6758 1.6852 6.969 3.8296 9.8796 6.4332-2.1448-5.6671-3.8296-12.33-5.0547-19.989l-0.91904-2.5273 1.6083 0.45952c1.9909 6.1272 4.0587 13.556 6.2035 22.287zm-278.24 75.131c0.30627-7.8116 0.61262-13.096 0.91903-15.853s0.49774-5.514 0.5744-8.2713 0.88067-7.6584 2.4125-14.705l-0.91903-0.91903c-1.3786 3.2169-2.336 7.2376-2.872 12.062-0.53617 4.8252-0.95739 9.0374-1.2637 12.637s-0.9191 8.3098-1.8381 14.13c-1.2254 0.76607-2.3742 0.84266-3.4464 0.22976-1.9913-0.76565-3.7528-3.561-5.2844-8.3862-1.5318-4.8247-2.1445-12.675-1.8381-23.55 1.5317-31.094 6.9693-54.606 16.313-70.536 2.1443-3.0631 2.2209-2.3738 0.22976 2.0678-4.1357 8.578-7.5438 22.938-10.224 43.08s-3.4081 33.354-2.1827 39.633c2.757-13.019 5.2844-23.588 7.582-31.707 1.2253-6.8925 4.8248-20.295 10.799-40.208 2.2975-7.0456 3.7909-13.441 4.4803-19.185s0.72749-11.679 0.11488-17.806c-0.61277-1.5314-2.2211-0.84211-4.8249 2.0678-11.794 13.786-19.606 28.337-23.435 43.654-2.604 11.029-4.2889 22.363-5.0547 34.004-0.30639 9.8033 0.34459 18.228 1.953 25.273s3.3314 12.752 5.1696 17.117 4.8249 7.4674 8.9606 9.3052c0.61262 3.2168 1.6082 6.8547 2.9869 10.914s2.4124 7.1227 3.1017 9.1903 1.3785 3.4848 2.0678 4.2505 1.0338 2.6807 1.0339 5.744c2.2975 7.6588 4.9014 14.705 7.8118 21.138l0.68927-2.2976c-2.7572-6.4331-4.5187-11.488-5.2844-15.164-1.0723-3.3696-1.3786-5.6672-0.91903-6.8928 1.0721-1.3784 0.95725-2.642-0.34464-3.791s-2.872-5.0162-4.71-11.603-2.7572-10.569-2.7571-11.947c2.9102-7.5052 4.8248-12.713 5.744-15.624s2.8336-6.9691 5.744-12.177 5.897-10.798 8.9606-16.772 12.33-20.601 27.801-43.884c1.838-1.5314 1.3018 0.30664-1.6083 5.5142l-7.582 13.786-15.853 25.733c9.3434-8.271 18.993-21.597 28.95-39.978 2.6038-5.2076 4.4419-10.186 5.5142-14.934s1.0721-7.8881 0-9.4201c-4.1358 0.45984-8.8841 3.8296-14.245 10.109-9.0373 12.56-16.083 23.742-21.138 33.545l-9.1903 21.827-7.1225 20.678c-2.1445 5.6676-4.1357 11.641-5.9737 17.921zm44.803-101.09c5.3609-4.748 11.028-7.5051 17.002-8.2713l8.5011-16.543c3.676-8.5773 5.6672-14.206 5.9737-16.887s0.15303-4.7863-0.45952-6.3184c-0.91917-0.30598-2.6041 0.23012-5.0547 1.6083-8.1183 6.2804-15.317 15.011-21.597 26.192l-13.326 24.814-14.015 24.814c-1.2255 1.8384-2.5274 2.451-3.9059 1.8381l-2.2976-0.68927c5.2078-12.866 12.713-25.809 22.516-38.829 2.9102-0.61236 3.5994-1.7612 2.0678-3.4464l9.4201-16.313-11.488 16.543c-1.0723-0.91871-1.6084-0.84212-1.6083 0.22976l0.22976 1.8381c-5.5143 7.3526-10.301 14.59-14.36 21.712s-7.1609 12.752-9.3052 16.887c-1.3786-0.30606-2.8338-2.0675-4.3654-5.2844l-1.1488 3.4464 4.8249 5.9737-8.0415 20.448-1.8381-0.22975-0.22976 2.0678 0.91903 3.4464 1.8381 1.3786c3.0634-0.30609 5.361-1.9144 6.8928-4.8249-3.2167 1.532-5.1314 1.8383-5.744 0.91904l7.582-22.287c3.8292-0.15289 6.1268-0.61241 6.8928-1.3786 10.262-15.776 16.696-25.656 19.3-29.639 9.4966-16.083 17.079-27.954 22.746-35.613s9.1519-12.062 10.454-13.211 1.2635-0.57404-0.11488 1.7232c-8.2714 12.254-14.36 21.444-18.266 27.571s-7.2375 11.565-9.9945 16.313z"/>
</svg>
