<?xml version="1.0" encoding="UTF-8"?>
<svg width="180" height="104" version="1.1" viewBox="0 0 180 104" xmlns="http://www.w3.org/2000/svg">
 <g id="Name" transform="scale(1,-1) translate(0,-104)">
  <path d="m67.748 80.117c0-0.2856-0.0357-0.5355-0.1071-0.7497s-0.1686-0.3986-0.2915-0.5533c-0.123-0.1547-0.2658-0.2797-0.4284-0.3749-0.1627-0.0952-0.3313-0.1666-0.5058-0.2142v-0.0238c0.2142-0.0397 0.4145-0.115 0.6009-0.2261 0.1865-0.1111 0.3491-0.2499 0.488-0.4165 0.1388-0.1666 0.2499-0.3629 0.3332-0.589 0.0833-0.2262 0.1249-0.4741 0.1249-0.7438 0-0.3253-0.0555-0.6228-0.1666-0.8925s-0.2836-0.5038-0.5177-0.7021c-0.234-0.1983-0.5295-0.353-0.8865-0.4641s-0.7814-0.1666-1.2733-0.1666h-1.6779v8.211h1.5827c0.4839 0 0.8985-0.0496 1.2436-0.1487 0.3451-0.0992 0.6287-0.24 0.8508-0.4225s0.3828-0.4026 0.482-0.6604c0.0991-0.2579 0.1487-0.5455 0.1487-0.8628zm-1.0472-0.0357c0 0.3808-0.1349 0.6942-0.4046 0.9401s-0.6942 0.3689-1.2733 0.3689h-0.5474v-2.8322h0.5355c0.5553 0 0.9758 0.1349 1.2614 0.4046s0.4284 0.6426 0.4284 1.1186zm0.1547-3.7842c0 0.4443-0.1448 0.7953-0.4343 1.0532-0.2896 0.2578-0.7041 0.3867-1.2436 0.3867h-0.7021v-2.8798h0.6426c0.6109 0 1.0532 0.121 1.3269 0.363 0.2737 0.2419 0.4105 0.6009 0.4105 1.0769zm6.3784-2.2967h-0.8806v0.6426h-0.0238c-0.0238-0.0476-0.0754-0.117-0.1547-0.2082-0.0793-0.0913-0.1805-0.1785-0.3034-0.2618-0.123-0.0833-0.2718-0.1567-0.4463-0.2202s-0.3689-0.0952-0.5831-0.0952c-0.2539 0-0.4819 0.0377-0.6842 0.113-0.2023 0.0754-0.3749 0.1964-0.5177 0.363s-0.2519 0.3828-0.3272 0.6486c-0.0754 0.2657-0.1131 0.593-0.1131 0.9817v3.7485h0.9639v-3.6771c0-0.476 0.0774-0.8151 0.2321-1.0175 0.1547-0.2022 0.3946-0.3034 0.7199-0.3034 0.2777 0 0.5117 0.0694 0.7021 0.2083 0.1904 0.1388 0.3411 0.2756 0.4522 0.4105v4.3792h0.9639v-5.712zm4.5934 0v3.6771c0 0.4839-0.0813 0.831-0.2439 1.0413-0.1627 0.2102-0.4106 0.3153-0.7438 0.3153-0.2856 0-0.5236-0.0714-0.714-0.2142s-0.3411-0.2816-0.4522-0.4165v-4.403h-0.9639v5.712h0.8806v-0.6426h0.0238c0.0238 0.0476 0.0754 0.117 0.1547 0.2083 0.0793 0.0912 0.1825 0.1785 0.3094 0.2618s0.2777 0.1566 0.4522 0.2201 0.3729 0.0952 0.595 0.0952c0.2539 0 0.4839-0.0377 0.6902-0.113 0.2063-0.0754 0.3808-0.1964 0.5236-0.363s0.2539-0.3828 0.3332-0.6485c0.0793-0.2658 0.119-0.5931 0.119-0.9818v-3.7485h-0.9639zm2.142 2.7727c0 0.5791 0.0754 1.0631 0.2261 1.4518s0.3451 0.7021 0.5831 0.9401 0.5077 0.4066 0.8092 0.5058c0.3015 0.0991 0.6029 0.1487 0.9044 0.1487 0.1825 0 0.3411-0.0139 0.476-0.0417 0.1349-0.0277 0.2459-0.0614 0.3332-0.1011v2.737l0.9639 0.1071v-8.5204h-0.8806v0.6069h-0.0238c-0.0238-0.0476-0.0674-0.113-0.1309-0.1963s-0.1507-0.1666-0.2618-0.2499-0.2499-0.1547-0.4165-0.2143c-0.1666-0.0595-0.361-0.0892-0.5831-0.0892-0.2697 0-0.5256 0.0535-0.7675 0.1607-0.242 0.1071-0.4542 0.2776-0.6367 0.5117-0.1825 0.234-0.3272 0.5355-0.4343 0.9044s-0.1607 0.8151-0.1607 1.3387zm2.261-2.0587c0.1507 0 0.2856 0.0198 0.4046 0.0595s0.2221 0.0893 0.3094 0.1488 0.1607 0.1209 0.2202 0.1844 0.1051 0.119 0.1368 0.1666v3.5224c-0.0873 0.0555-0.1884 0.1031-0.3034 0.1428-0.1151 0.0397-0.2599 0.0595-0.4344 0.0595-0.2221 0-0.4304-0.0377-0.6247-0.113-0.1944-0.0754-0.363-0.2004-0.5058-0.3749s-0.2558-0.4006-0.3391-0.6783-0.125-0.6188-0.125-1.0234c0-0.3967 0.0337-0.7279 0.1012-0.9936 0.0674-0.2658 0.1606-0.48 0.2796-0.6426 0.119-0.1627 0.2539-0.2797 0.4046-0.3511s0.3094-0.1071 0.476-0.1071zm7.1757 3.0702c0-0.2459-0.0079-0.4581-0.0238-0.6366s-0.0317-0.3352-0.0476-0.4701h-2.9155c0.0317-0.6743 0.1765-1.1702 0.4344-1.4875 0.2578-0.3173 0.6287-0.476 1.1126-0.476 0.1666 0 0.3173 0.0198 0.4522 0.0595s0.2519 0.0873 0.3511 0.1428c0.0991 0.0555 0.1824 0.1111 0.2499 0.1666 0.0674 0.0555 0.117 0.0992 0.1487 0.1309l0.357-0.6783c-0.0397-0.0397-0.0992-0.0972-0.1785-0.1725-0.0793-0.0754-0.1864-0.1508-0.3213-0.2262-0.1349-0.0753-0.3015-0.1408-0.4998-0.1963s-0.4324-0.0833-0.7021-0.0833c-0.357 0-0.6803 0.0595-0.9698 0.1785-0.2896 0.119-0.5355 0.3035-0.7378 0.5534s-0.359 0.5672-0.4701 0.952c-0.1111 0.3847-0.1666 0.8468-0.1666 1.3863 0 0.5077 0.0575 0.9461 0.1726 1.315 0.115 0.3689 0.2717 0.6723 0.47 0.9103s0.4284 0.4145 0.6902 0.5296c0.2618 0.115 0.5434 0.1725 0.8449 0.1725 0.5474 0 0.9758-0.1725 1.2852-0.5176s0.4641-0.8628 0.4641-1.553zm-1.8088 1.2852c-0.3411 0-0.6148-0.1428-0.8211-0.4284s-0.3253-0.6981-0.357-1.2376h2.0825c0.0079 0.0397 0.0139 0.0972 0.0179 0.1726 0.0039 0.0753 0.0059 0.1566 0.0059 0.2439 0 0.3967-0.0793 0.7041-0.238 0.9223-0.1587 0.2181-0.3887 0.3272-0.6902 0.3272zm5.5573-0.5117c-0.0635 0.0714-0.1785 0.1686-0.3451 0.2916-0.1666 0.1229-0.3848 0.1844-0.6545 0.1844-0.2539 0-0.4482-0.0595-0.5831-0.1785s-0.2023-0.2618-0.2023-0.4284c0-0.2142 0.0615-0.3907 0.1845-0.5295 0.1229-0.1389 0.3113-0.2876 0.5652-0.4463l0.357-0.2142c0.3887-0.2301 0.6942-0.478 0.9163-0.7437 0.2221-0.2658 0.3332-0.6089 0.3332-1.0294 0-0.4522-0.1567-0.833-0.47-1.1424-0.3134-0.3094-0.7636-0.4641-1.3507-0.4641-0.2301 0-0.4324 0.0238-0.6069 0.0714s-0.3273 0.1031-0.4581 0.1666c-0.1309 0.0635-0.24 0.1329-0.3273 0.2082-0.0873 0.0754-0.1587 0.1448-0.2142 0.2083l0.4641 0.7616c0.0476-0.0476 0.1051-0.1031 0.1726-0.1666 0.0674-0.0635 0.1487-0.1249 0.2439-0.1844s0.2023-0.1091 0.3213-0.1488 0.2578-0.0595 0.4165-0.0595c0.2856 0 0.5038 0.0635 0.6545 0.1904s0.2261 0.2816 0.2261 0.4641c0 0.1349-0.0178 0.2519-0.0535 0.3511-0.0357 0.0991-0.0893 0.1884-0.1607 0.2677s-0.1587 0.1547-0.2618 0.2261-0.2221 0.1507-0.357 0.238l-0.357 0.2261c-0.357 0.2301-0.6367 0.472-0.8389 0.7259-0.2023 0.2539-0.3035 0.5791-0.3035 0.9758 0 0.2142 0.0417 0.4106 0.125 0.5891 0.0833 0.1784 0.2003 0.3331 0.351 0.4641 0.1507 0.1309 0.3273 0.234 0.5296 0.3094 0.2023 0.0753 0.4184 0.113 0.6485 0.113 0.2221 0 0.4125-0.0218 0.5712-0.0654 0.1587-0.0437 0.2955-0.0992 0.4106-0.1666 0.115-0.0675 0.2102-0.1349 0.2856-0.2023 0.0753-0.0675 0.1368-0.125 0.1844-0.1726l-0.4165-0.6902zm1.3685-3.1059c0 0.3332 0.0635 0.6109 0.1904 0.833s0.2975 0.4026 0.5117 0.5415c0.2142 0.1388 0.4661 0.238 0.7557 0.2975 0.2895 0.0595 0.5969 0.0892 0.9222 0.0892h0.2975v0.5474c0 0.4839-0.0853 0.8171-0.2558 0.9996-0.1706 0.1825-0.4106 0.2737-0.72 0.2737-0.2856 0-0.5236-0.0615-0.714-0.1844-0.1904-0.123-0.3411-0.2321-0.4522-0.3273l-0.4046 0.6426c0.0635 0.0635 0.1448 0.1349 0.244 0.2142 0.0991 0.0793 0.2201 0.1547 0.3629 0.2261s0.3054 0.1309 0.4879 0.1785 0.3887 0.0714 0.6188 0.0714c0.5871 0 1.0313-0.1626 1.3328-0.4879s0.4522-0.8489 0.4522-1.5708v-2.6061c0-0.2459 0.0079-0.4859 0.0238-0.7199 0.0159-0.2341 0.0317-0.3908 0.0476-0.4701h-0.9163l-0.0357 0.6307h-0.0238c-0.0317-0.0714-0.0793-0.1527-0.1428-0.2439-0.0635-0.0913-0.1428-0.1746-0.238-0.25-0.0952-0.0753-0.2102-0.1408-0.3451-0.1963s-0.2935-0.0833-0.476-0.0833c-0.2142 0-0.4145 0.0397-0.6009 0.119-0.1865 0.0793-0.3491 0.1904-0.4879 0.3332-0.1389 0.1428-0.246 0.3114-0.3213 0.5058-0.0754 0.1943-0.1131 0.4065-0.1131 0.6366zm1.7255-0.7735c0.1349 0 0.2539 0.0198 0.357 0.0595s0.1924 0.0873 0.2678 0.1428c0.0753 0.0555 0.1388 0.117 0.1904 0.1845 0.0515 0.0674 0.0971 0.1249 0.1368 0.1725v1.2614l-0.3094-0.0119c-0.4601-0.0159-0.8092-0.0952-1.0472-0.238s-0.357-0.3729-0.357-0.6902c0-0.2935 0.0674-0.5137 0.2023-0.6604 0.1349-0.1468 0.3213-0.2202 0.5593-0.2202zm6.4736-0.6783v3.6771c0 0.4839-0.0813 0.831-0.2439 1.0413-0.1627 0.2102-0.4106 0.3153-0.7438 0.3153-0.2856 0-0.5236-0.0714-0.714-0.2142s-0.3411-0.2816-0.4522-0.4165v-4.403h-0.9639v5.712h0.8806v-0.6426h0.0238c0.0238 0.0476 0.0754 0.117 0.1547 0.2083 0.0793 0.0912 0.1825 0.1785 0.3094 0.2618s0.2777 0.1566 0.4522 0.2201 0.3729 0.0952 0.595 0.0952c0.2539 0 0.4839-0.0377 0.6902-0.113 0.2063-0.0754 0.3808-0.1964 0.5236-0.363s0.2539-0.3828 0.3332-0.6485c0.0793-0.2658 0.119-0.5931 0.119-0.9818v-3.7485h-0.9639zm4.8671 4.5577c-0.0635 0.0714-0.1785 0.1686-0.3451 0.2916-0.1666 0.1229-0.3848 0.1844-0.6545 0.1844-0.2539 0-0.4482-0.0595-0.5831-0.1785s-0.2023-0.2618-0.2023-0.4284c0-0.2142 0.0615-0.3907 0.1845-0.5295 0.1229-0.1389 0.3113-0.2876 0.5652-0.4463l0.357-0.2142c0.3887-0.2301 0.6942-0.478 0.9163-0.7437 0.2221-0.2658 0.3332-0.6089 0.3332-1.0294 0-0.4522-0.1567-0.833-0.47-1.1424-0.3134-0.3094-0.7636-0.4641-1.3507-0.4641-0.2301 0-0.4324 0.0238-0.6069 0.0714s-0.3273 0.1031-0.4581 0.1666c-0.1309 0.0635-0.24 0.1329-0.3273 0.2082-0.0873 0.0754-0.1587 0.1448-0.2142 0.2083l0.4641 0.7616c0.0476-0.0476 0.1051-0.1031 0.1726-0.1666 0.0674-0.0635 0.1487-0.1249 0.2439-0.1844s0.2023-0.1091 0.3213-0.1488 0.2578-0.0595 0.4165-0.0595c0.2856 0 0.5038 0.0635 0.6545 0.1904s0.2261 0.2816 0.2261 0.4641c0 0.1349-0.0178 0.2519-0.0535 0.3511-0.0357 0.0991-0.0893 0.1884-0.1607 0.2677s-0.1587 0.1547-0.2618 0.2261-0.2221 0.1507-0.357 0.238l-0.357 0.2261c-0.357 0.2301-0.6367 0.472-0.8389 0.7259-0.2023 0.2539-0.3035 0.5791-0.3035 0.9758 0 0.2142 0.0417 0.4106 0.125 0.5891 0.0833 0.1784 0.2003 0.3331 0.351 0.4641 0.1507 0.1309 0.3273 0.234 0.5296 0.3094 0.2023 0.0753 0.4184 0.113 0.6485 0.113 0.2221 0 0.4125-0.0218 0.5712-0.0654 0.1587-0.0437 0.2955-0.0992 0.4106-0.1666 0.115-0.0675 0.2102-0.1349 0.2856-0.2023 0.0753-0.0675 0.1368-0.125 0.1844-0.1726l-0.4165-0.6902zm4.1412 0.3689h-1.2495v-3.1654c0-0.4046 0.0516-0.6803 0.1547-0.827 0.1031-0.1468 0.2777-0.2202 0.5236-0.2202 0.1428 0 0.2658 0.0198 0.3689 0.0595s0.1785 0.0754 0.2261 0.1071l0.1309-0.7735c-0.0397-0.0317-0.1349-0.0813-0.2856-0.1488-0.1507-0.0674-0.353-0.1011-0.6069-0.1011-0.4919 0-0.8608 0.1368-1.1067 0.4106-0.2459 0.2736-0.3689 0.7278-0.3689 1.3625v3.2963h-0.6902v0.6426l0.6902 0.1428 0.1071 1.5946h0.8568v-1.5946h1.3685l-0.119-0.7854zm0.7616-3.4748c0 0.3332 0.0635 0.6109 0.1904 0.833s0.2975 0.4026 0.5117 0.5415c0.2142 0.1388 0.4661 0.238 0.7557 0.2975 0.2895 0.0595 0.5969 0.0892 0.9222 0.0892h0.2975v0.5474c0 0.4839-0.0853 0.8171-0.2558 0.9996-0.1706 0.1825-0.4106 0.2737-0.72 0.2737-0.2856 0-0.5236-0.0615-0.714-0.1844-0.1904-0.123-0.3411-0.2321-0.4522-0.3273l-0.4046 0.6426c0.0635 0.0635 0.1448 0.1349 0.244 0.2142 0.0991 0.0793 0.2201 0.1547 0.3629 0.2261s0.3054 0.1309 0.4879 0.1785 0.3887 0.0714 0.6188 0.0714c0.5871 0 1.0313-0.1626 1.3328-0.4879s0.4522-0.8489 0.4522-1.5708v-2.6061c0-0.2459 0.0079-0.4859 0.0238-0.7199 0.0159-0.2341 0.0317-0.3908 0.0476-0.4701h-0.9163l-0.0357 0.6307h-0.0238c-0.0317-0.0714-0.0793-0.1527-0.1428-0.2439-0.0635-0.0913-0.1428-0.1746-0.238-0.25-0.0952-0.0753-0.2102-0.1408-0.3451-0.1963s-0.2935-0.0833-0.476-0.0833c-0.2142 0-0.4145 0.0397-0.6009 0.119-0.1865 0.0793-0.3491 0.1904-0.4879 0.3332-0.1389 0.1428-0.246 0.3114-0.3213 0.5058-0.0754 0.1943-0.1131 0.4065-0.1131 0.6366zm1.7255-0.7735c0.1349 0 0.2539 0.0198 0.357 0.0595s0.1924 0.0873 0.2678 0.1428c0.0753 0.0555 0.1388 0.117 0.1904 0.1845 0.0515 0.0674 0.0971 0.1249 0.1368 0.1725v1.2614l-0.3094-0.0119c-0.4601-0.0159-0.8092-0.0952-1.0472-0.238s-0.357-0.3729-0.357-0.6902c0-0.2935 0.0674-0.5137 0.2023-0.6604 0.1349-0.1468 0.3213-0.2202 0.5593-0.2202zm4.3078 0.6545c0-0.238 0.0337-0.4046 0.1012-0.4998 0.0674-0.0952 0.1844-0.1428 0.351-0.1428 0.0873 0 0.1607 0.0079 0.2202 0.0238s0.1051 0.0317 0.1368 0.0476l0.0833-0.714c-0.0476-0.0238-0.1349-0.0555-0.2618-0.0952s-0.2975-0.0595-0.5117-0.0595c-0.3253 0-0.5871 0.0992-0.7854 0.2975s-0.2975 0.5514-0.2975 1.0591v7.1638l0.9639 0.1071v-7.1876zm4.2007 3.5938h-1.2495v-3.1654c0-0.4046 0.0516-0.6803 0.1547-0.827 0.1031-0.1468 0.2777-0.2202 0.5236-0.2202 0.1428 0 0.2658 0.0198 0.3689 0.0595s0.1785 0.0754 0.2261 0.1071l0.1309-0.7735c-0.0397-0.0317-0.1349-0.0813-0.2856-0.1488-0.1507-0.0674-0.353-0.1011-0.6069-0.1011-0.4919 0-0.8608 0.1368-1.1067 0.4106-0.2459 0.2736-0.3689 0.7278-0.3689 1.3625v3.2963h-0.6902v0.6426l0.6902 0.1428 0.1071 1.5946h0.8568v-1.5946h1.3685l-0.119-0.7854zm-54.657-9.5367h-2.1896v-7.3899h-1.0353v7.3899h-2.1896v0.8211h5.4859l-0.0714-0.8211zm3.689-3.6057c0-0.2459-0.0079-0.4581-0.0238-0.6366s-0.0317-0.3352-0.0476-0.4701h-2.9155c0.0317-0.6743 0.1765-1.1702 0.4344-1.4875 0.2578-0.3173 0.6287-0.476 1.1126-0.476 0.1666 0 0.3173 0.0198 0.4522 0.0595s0.2519 0.0873 0.3511 0.1428c0.0991 0.0555 0.1824 0.1111 0.2499 0.1666 0.0674 0.0555 0.117 0.0992 0.1487 0.1309l0.357-0.6783c-0.0397-0.0397-0.0992-0.0972-0.1785-0.1725-0.0793-0.0754-0.1864-0.1508-0.3213-0.2262-0.1349-0.0753-0.3015-0.1408-0.4998-0.1963s-0.4324-0.0833-0.7021-0.0833c-0.357 0-0.6803 0.0595-0.9698 0.1785-0.2896 0.119-0.5355 0.3035-0.7378 0.5534s-0.359 0.5672-0.4701 0.952c-0.1111 0.3847-0.1666 0.8468-0.1666 1.3863 0 0.5077 0.0575 0.9461 0.1726 1.315 0.115 0.3689 0.2717 0.6723 0.47 0.9103s0.4284 0.4145 0.6902 0.5296c0.2618 0.115 0.5434 0.1725 0.8449 0.1725 0.5474 0 0.9758-0.1725 1.2852-0.5176s0.4641-0.8628 0.4641-1.553zm-1.8088 1.2852c-0.3411 0-0.6148-0.1428-0.8211-0.4284s-0.3253-0.6981-0.357-1.2376h2.0825c0.0079 0.0397 0.0139 0.0972 0.0179 0.1726 0.0039 0.0753 0.0059 0.1566 0.0059 0.2439 0 0.3967-0.0793 0.7041-0.238 0.9223-0.1587 0.2181-0.3887 0.3272-0.6902 0.3272zm6.2713-0.4641c-0.0238 0.0238-0.0615 0.0595-0.113 0.1071-0.0516 0.0476-0.1171 0.0952-0.1964 0.1428s-0.1745 0.0893-0.2856 0.125-0.238 0.0535-0.3808 0.0535c-0.2063 0-0.3986-0.0377-0.5771-0.113-0.1785-0.0754-0.3332-0.1964-0.4641-0.363s-0.2341-0.3828-0.3094-0.6485c-0.0754-0.2658-0.1131-0.5891-0.1131-0.9699 0-0.4205 0.0337-0.7735 0.1012-1.0591 0.0674-0.2856 0.1606-0.5137 0.2796-0.6842 0.119-0.1706 0.2638-0.2936 0.4344-0.3689 0.1705-0.0754 0.3589-0.1131 0.5652-0.1131 0.2935 0 0.5177 0.0516 0.6724 0.1547s0.2637 0.1864 0.3272 0.2499l0.3927-0.6664c-0.0397-0.0476-0.0972-0.1051-0.1725-0.1725-0.0754-0.0675-0.1726-0.1329-0.2916-0.1964s-0.2638-0.117-0.4343-0.1607c-0.1706-0.0436-0.367-0.0654-0.5891-0.0654-0.3173 0-0.6148 0.0516-0.8925 0.1547s-0.5196 0.2737-0.7259 0.5117-0.3689 0.5474-0.4879 0.9282-0.1785 0.8528-0.1785 1.4161c0 0.5474 0.0714 1.0115 0.2142 1.3923s0.3292 0.6882 0.5593 0.9223c0.2301 0.234 0.4859 0.4046 0.7676 0.5117 0.2816 0.1071 0.5652 0.1606 0.8508 0.1606 0.2142 0 0.4026-0.0198 0.5653-0.0595 0.1626-0.0397 0.3014-0.0892 0.4165-0.1487 0.115-0.0595 0.2102-0.123 0.2856-0.1904 0.0753-0.0675 0.1368-0.125 0.1844-0.1726l-0.4046-0.6783zm4.5339-4.6053v3.6771c0 0.4839-0.0813 0.831-0.2439 1.0413-0.1627 0.2102-0.4106 0.3153-0.7438 0.3153-0.2856 0-0.5236-0.0714-0.714-0.2142s-0.3411-0.2816-0.4522-0.4165v-4.403h-0.9639v8.4133l0.9639 0.1071v-3.3915h0.0238c0.0317 0.0476 0.0813 0.1111 0.1488 0.1904 0.0674 0.0793 0.1606 0.1587 0.2796 0.238s0.2638 0.1488 0.4344 0.2083c0.1705 0.0595 0.3708 0.0892 0.6009 0.0892 0.4998 0 0.8965-0.1626 1.19-0.4879s0.4403-0.8647 0.4403-1.6184v-3.7485h-0.9639zm5.5216 0v3.6771c0 0.4839-0.0813 0.831-0.2439 1.0413-0.1627 0.2102-0.4106 0.3153-0.7438 0.3153-0.2856 0-0.5236-0.0714-0.714-0.2142s-0.3411-0.2816-0.4522-0.4165v-4.403h-0.9639v5.712h0.8806v-0.6426h0.0238c0.0238 0.0476 0.0754 0.117 0.1547 0.2083 0.0793 0.0912 0.1825 0.1785 0.3094 0.2618s0.2777 0.1566 0.4522 0.2201 0.3729 0.0952 0.595 0.0952c0.2539 0 0.4839-0.0377 0.6902-0.113 0.2063-0.0754 0.3808-0.1964 0.5236-0.363s0.2539-0.3828 0.3332-0.6485c0.0793-0.2658 0.119-0.5931 0.119-0.9818v-3.7485h-0.9639zm3.3677 0h-0.9639v5.712h0.9639v-5.712zm-0.476 7.0924c-0.1983 0-0.357 0.0635-0.476 0.1904s-0.1785 0.2935-0.1785 0.4998c0 0.1983 0.0595 0.361 0.1785 0.4879s0.2777 0.1904 0.476 0.1904c0.1904 0 0.3451-0.0635 0.4641-0.1904s0.1785-0.2896 0.1785-0.4879c0-0.2063-0.0595-0.3729-0.1785-0.4998s-0.2737-0.1904-0.4641-0.1904zm4.4149-2.5347c-0.0635 0.0714-0.1785 0.1686-0.3451 0.2916-0.1666 0.1229-0.3848 0.1844-0.6545 0.1844-0.2539 0-0.4482-0.0595-0.5831-0.1785s-0.2023-0.2618-0.2023-0.4284c0-0.2142 0.0615-0.3907 0.1845-0.5295 0.1229-0.1389 0.3113-0.2876 0.5652-0.4463l0.357-0.2142c0.3887-0.2301 0.6942-0.478 0.9163-0.7437 0.2221-0.2658 0.3332-0.6089 0.3332-1.0294 0-0.4522-0.1567-0.833-0.47-1.1424-0.3134-0.3094-0.7636-0.4641-1.3507-0.4641-0.2301 0-0.4324 0.0238-0.6069 0.0714s-0.3273 0.1031-0.4581 0.1666c-0.1309 0.0635-0.24 0.1329-0.3273 0.2082-0.0873 0.0754-0.1587 0.1448-0.2142 0.2083l0.4641 0.7616c0.0476-0.0476 0.1051-0.1031 0.1726-0.1666 0.0674-0.0635 0.1487-0.1249 0.2439-0.1844s0.2023-0.1091 0.3213-0.1488 0.2578-0.0595 0.4165-0.0595c0.2856 0 0.5038 0.0635 0.6545 0.1904s0.2261 0.2816 0.2261 0.4641c0 0.1349-0.0178 0.2519-0.0535 0.3511-0.0357 0.0991-0.0893 0.1884-0.1607 0.2677s-0.1587 0.1547-0.2618 0.2261-0.2221 0.1507-0.357 0.238l-0.357 0.2261c-0.357 0.2301-0.6367 0.472-0.8389 0.7259-0.2023 0.2539-0.3035 0.5791-0.3035 0.9758 0 0.2142 0.0417 0.4106 0.125 0.5891 0.0833 0.1784 0.2003 0.3331 0.351 0.4641 0.1507 0.1309 0.3273 0.234 0.5296 0.3094 0.2023 0.0753 0.4184 0.113 0.6485 0.113 0.2221 0 0.4125-0.0218 0.5712-0.0654 0.1587-0.0437 0.2955-0.0992 0.4106-0.1666 0.115-0.0675 0.2102-0.1349 0.2856-0.2023 0.0753-0.0675 0.1368-0.125 0.1844-0.1726l-0.4165-0.6902zm4.879 0.0476c-0.0238 0.0238-0.0615 0.0595-0.113 0.1071-0.0516 0.0476-0.1171 0.0952-0.1964 0.1428s-0.1745 0.0893-0.2856 0.125-0.238 0.0535-0.3808 0.0535c-0.2063 0-0.3986-0.0377-0.5771-0.113-0.1785-0.0754-0.3332-0.1964-0.4641-0.363s-0.2341-0.3828-0.3094-0.6485c-0.0754-0.2658-0.1131-0.5891-0.1131-0.9699 0-0.4205 0.0337-0.7735 0.1012-1.0591 0.0674-0.2856 0.1606-0.5137 0.2796-0.6842 0.119-0.1706 0.2638-0.2936 0.4344-0.3689 0.1705-0.0754 0.3589-0.1131 0.5652-0.1131 0.2935 0 0.5177 0.0516 0.6724 0.1547s0.2637 0.1864 0.3272 0.2499l0.3927-0.6664c-0.0397-0.0476-0.0972-0.1051-0.1725-0.1725-0.0754-0.0675-0.1726-0.1329-0.2916-0.1964s-0.2638-0.117-0.4343-0.1607c-0.1706-0.0436-0.367-0.0654-0.5891-0.0654-0.3173 0-0.6148 0.0516-0.8925 0.1547s-0.5196 0.2737-0.7259 0.5117-0.3689 0.5474-0.4879 0.9282-0.1785 0.8528-0.1785 1.4161c0 0.5474 0.0714 1.0115 0.2142 1.3923s0.3292 0.6882 0.5593 0.9223c0.2301 0.234 0.4859 0.4046 0.7676 0.5117 0.2816 0.1071 0.5652 0.1606 0.8508 0.1606 0.2142 0 0.4026-0.0198 0.5653-0.0595 0.1626-0.0397 0.3014-0.0892 0.4165-0.1487 0.115-0.0595 0.2102-0.123 0.2856-0.1904 0.0753-0.0675 0.1368-0.125 0.1844-0.1726l-0.4046-0.6783zm4.5339-4.6053v3.6771c0 0.4839-0.0813 0.831-0.2439 1.0413-0.1627 0.2102-0.4106 0.3153-0.7438 0.3153-0.2856 0-0.5236-0.0714-0.714-0.2142s-0.3411-0.2816-0.4522-0.4165v-4.403h-0.9639v8.4133l0.9639 0.1071v-3.3915h0.0238c0.0317 0.0476 0.0813 0.1111 0.1488 0.1904 0.0674 0.0793 0.1606 0.1587 0.2796 0.238s0.2638 0.1488 0.4344 0.2083c0.1705 0.0595 0.3708 0.0892 0.6009 0.0892 0.4998 0 0.8965-0.1626 1.19-0.4879s0.4403-0.8647 0.4403-1.6184v-3.7485h-0.9639zm6.069 3.7842c0-0.2459-0.0079-0.4581-0.0238-0.6366s-0.0317-0.3352-0.0476-0.4701h-2.9155c0.0317-0.6743 0.1765-1.1702 0.4344-1.4875 0.2578-0.3173 0.6287-0.476 1.1126-0.476 0.1666 0 0.3173 0.0198 0.4522 0.0595s0.2519 0.0873 0.3511 0.1428c0.0991 0.0555 0.1824 0.1111 0.2499 0.1666 0.0674 0.0555 0.117 0.0992 0.1487 0.1309l0.357-0.6783c-0.0397-0.0397-0.0992-0.0972-0.1785-0.1725-0.0793-0.0754-0.1864-0.1508-0.3213-0.2262-0.1349-0.0753-0.3015-0.1408-0.4998-0.1963s-0.4324-0.0833-0.7021-0.0833c-0.357 0-0.6803 0.0595-0.9698 0.1785-0.2896 0.119-0.5355 0.3035-0.7378 0.5534s-0.359 0.5672-0.4701 0.952c-0.1111 0.3847-0.1666 0.8468-0.1666 1.3863 0 0.5077 0.0575 0.9461 0.1726 1.315 0.115 0.3689 0.2717 0.6723 0.47 0.9103s0.4284 0.4145 0.6902 0.5296c0.2618 0.115 0.5434 0.1725 0.8449 0.1725 0.5474 0 0.9758-0.1725 1.2852-0.5176s0.4641-0.8628 0.4641-1.553zm-1.8088 1.2852c-0.3411 0-0.6148-0.1428-0.8211-0.4284s-0.3253-0.6981-0.357-1.2376h2.0825c0.0079 0.0397 0.0139 0.0972 0.0179 0.1726 0.0039 0.0753 0.0059 0.1566 0.0059 0.2439 0 0.3967-0.0793 0.7041-0.238 0.9223-0.1587 0.2181-0.3887 0.3272-0.6902 0.3272zm5.5573-0.5117c-0.0635 0.0714-0.1785 0.1686-0.3451 0.2916-0.1666 0.1229-0.3848 0.1844-0.6545 0.1844-0.2539 0-0.4482-0.0595-0.5831-0.1785s-0.2023-0.2618-0.2023-0.4284c0-0.2142 0.0615-0.3907 0.1845-0.5295 0.1229-0.1389 0.3113-0.2876 0.5652-0.4463l0.357-0.2142c0.3887-0.2301 0.6942-0.478 0.9163-0.7437 0.2221-0.2658 0.3332-0.6089 0.3332-1.0294 0-0.4522-0.1567-0.833-0.47-1.1424-0.3134-0.3094-0.7636-0.4641-1.3507-0.4641-0.2301 0-0.4324 0.0238-0.6069 0.0714s-0.3273 0.1031-0.4581 0.1666c-0.1309 0.0635-0.24 0.1329-0.3273 0.2082-0.0873 0.0754-0.1587 0.1448-0.2142 0.2083l0.4641 0.7616c0.0476-0.0476 0.1051-0.1031 0.1726-0.1666 0.0674-0.0635 0.1487-0.1249 0.2439-0.1844s0.2023-0.1091 0.3213-0.1488 0.2578-0.0595 0.4165-0.0595c0.2856 0 0.5038 0.0635 0.6545 0.1904s0.2261 0.2816 0.2261 0.4641c0 0.1349-0.0178 0.2519-0.0535 0.3511-0.0357 0.0991-0.0893 0.1884-0.1607 0.2677s-0.1587 0.1547-0.2618 0.2261-0.2221 0.1507-0.357 0.238l-0.357 0.2261c-0.357 0.2301-0.6367 0.472-0.8389 0.7259-0.2023 0.2539-0.3035 0.5791-0.3035 0.9758 0 0.2142 0.0417 0.4106 0.125 0.5891 0.0833 0.1784 0.2003 0.3331 0.351 0.4641 0.1507 0.1309 0.3273 0.234 0.5296 0.3094 0.2023 0.0753 0.4184 0.113 0.6485 0.113 0.2221 0 0.4125-0.0218 0.5712-0.0654 0.1587-0.0437 0.2955-0.0992 0.4106-0.1666 0.115-0.0675 0.2102-0.1349 0.2856-0.2023 0.0753-0.0675 0.1368-0.125 0.1844-0.1726l-0.4165-0.6902zm9.8889-4.5577h-1.0353v3.7366h-3.3915v-3.7366h-1.0353v8.211h1.0353v-3.6533h3.3915v3.6533h1.0353v-8.211zm2.6418 0h-0.9639v5.712h0.9639v-5.712zm-0.476 7.0924c-0.1983 0-0.357 0.0635-0.476 0.1904s-0.1785 0.2935-0.1785 0.4998c0 0.1983 0.0595 0.361 0.1785 0.4879s0.2777 0.1904 0.476 0.1904c0.1904 0 0.3451-0.0635 0.4641-0.1904s0.1785-0.2896 0.1785-0.4879c0-0.2063-0.0595-0.3729-0.1785-0.4998s-0.2737-0.1904-0.4641-0.1904zm2.9036-5.7596c0-0.238 0.0337-0.4046 0.1012-0.4998 0.0674-0.0952 0.1844-0.1428 0.351-0.1428 0.0873 0 0.1607 0.0079 0.2202 0.0238s0.1051 0.0317 0.1368 0.0476l0.0833-0.714c-0.0476-0.0238-0.1349-0.0555-0.2618-0.0952s-0.2975-0.0595-0.5117-0.0595c-0.3253 0-0.5871 0.0992-0.7854 0.2975s-0.2975 0.5514-0.2975 1.0591v7.1638l0.9639 0.1071v-7.1876zm4.165 3.5938h-1.1662v-4.9266h-0.9639v4.9266h-0.6902v0.6426l0.6902 0.1309v1.1424c0 0.3094 0.0436 0.5752 0.1309 0.7973s0.2023 0.4046 0.3451 0.5474 0.3094 0.2459 0.4998 0.3094 0.3927 0.0952 0.6069 0.0952c0.2063 0 0.3808-0.0278 0.5236-0.0833s0.238-0.0992 0.2856-0.1309l-0.2023-0.7973c-0.0476 0.0317-0.115 0.0655-0.2023 0.1012s-0.1944 0.0535-0.3213 0.0535c-0.2301 0-0.4046-0.0714-0.5236-0.2142s-0.1785-0.4046-0.1785-0.7854v-1.0234h1.2852l-0.119-0.7854zm3.3677-0.3689c-0.0635 0.0714-0.1785 0.1686-0.3451 0.2916-0.1666 0.1229-0.3848 0.1844-0.6545 0.1844-0.2539 0-0.4482-0.0595-0.5831-0.1785s-0.2023-0.2618-0.2023-0.4284c0-0.2142 0.0615-0.3907 0.1845-0.5295 0.1229-0.1389 0.3113-0.2876 0.5652-0.4463l0.357-0.2142c0.3887-0.2301 0.6942-0.478 0.9163-0.7437 0.2221-0.2658 0.3332-0.6089 0.3332-1.0294 0-0.4522-0.1567-0.833-0.47-1.1424-0.3134-0.3094-0.7636-0.4641-1.3507-0.4641-0.2301 0-0.4324 0.0238-0.6069 0.0714s-0.3273 0.1031-0.4581 0.1666c-0.1309 0.0635-0.24 0.1329-0.3273 0.2082-0.0873 0.0754-0.1587 0.1448-0.2142 0.2083l0.4641 0.7616c0.0476-0.0476 0.1051-0.1031 0.1726-0.1666 0.0674-0.0635 0.1487-0.1249 0.2439-0.1844s0.2023-0.1091 0.3213-0.1488 0.2578-0.0595 0.4165-0.0595c0.2856 0 0.5038 0.0635 0.6545 0.1904s0.2261 0.2816 0.2261 0.4641c0 0.1349-0.0178 0.2519-0.0535 0.3511-0.0357 0.0991-0.0893 0.1884-0.1607 0.2677s-0.1587 0.1547-0.2618 0.2261-0.2221 0.1507-0.357 0.238l-0.357 0.2261c-0.357 0.2301-0.6367 0.472-0.8389 0.7259-0.2023 0.2539-0.3035 0.5791-0.3035 0.9758 0 0.2142 0.0417 0.4106 0.125 0.5891 0.0833 0.1784 0.2003 0.3331 0.351 0.4641 0.1507 0.1309 0.3273 0.234 0.5296 0.3094 0.2023 0.0753 0.4184 0.113 0.6485 0.113 0.2221 0 0.4125-0.0218 0.5712-0.0654 0.1587-0.0437 0.2955-0.0992 0.4106-0.1666 0.115-0.0675 0.2102-0.1349 0.2856-0.2023 0.0753-0.0675 0.1368-0.125 0.1844-0.1726l-0.4165-0.6902zm8.2348 1.1543-1.7374-5.712h-0.8568l-0.5831 1.9992c-0.0873 0.2856-0.1606 0.5514-0.2201 0.7973s-0.0972 0.48-0.1131 0.7021h-0.0238c-0.0159-0.2221-0.0595-0.4601-0.1309-0.714s-0.1547-0.5196-0.2499-0.7973l-0.6545-1.9873h-0.8211l-1.7969 5.712h1.0353l0.8568-3.2368c0.0793-0.3015 0.1488-0.5811 0.2083-0.8389 0.0595-0.2579 0.0932-0.5018 0.1011-0.7319h0.0238c0.0238 0.2301 0.0734 0.4701 0.1488 0.72 0.0753 0.2499 0.1606 0.5216 0.2558 0.8151l0.6188 1.8683-0.4284 1.4042h0.9996l0.8687-3.1535c0.0873-0.3253 0.1666-0.6307 0.238-0.9163s0.1111-0.5315 0.119-0.7378h0.0238c0.0159 0.2063 0.0555 0.4542 0.119 0.7438 0.0635 0.2895 0.1388 0.593 0.2261 0.9103l0.8449 3.1535h0.9282zm4.4744-1.9278c0-0.2459-0.0079-0.4581-0.0238-0.6366s-0.0317-0.3352-0.0476-0.4701h-2.9155c0.0317-0.6743 0.1765-1.1702 0.4344-1.4875 0.2578-0.3173 0.6287-0.476 1.1126-0.476 0.1666 0 0.3173 0.0198 0.4522 0.0595s0.2519 0.0873 0.3511 0.1428c0.0991 0.0555 0.1824 0.1111 0.2499 0.1666 0.0674 0.0555 0.117 0.0992 0.1487 0.1309l0.357-0.6783c-0.0397-0.0397-0.0992-0.0972-0.1785-0.1725-0.0793-0.0754-0.1864-0.1508-0.3213-0.2262-0.1349-0.0753-0.3015-0.1408-0.4998-0.1963s-0.4324-0.0833-0.7021-0.0833c-0.357 0-0.6803 0.0595-0.9698 0.1785-0.2896 0.119-0.5355 0.3035-0.7378 0.5534s-0.359 0.5672-0.4701 0.952c-0.1111 0.3847-0.1666 0.8468-0.1666 1.3863 0 0.5077 0.0575 0.9461 0.1726 1.315 0.115 0.3689 0.2717 0.6723 0.47 0.9103s0.4284 0.4145 0.6902 0.5296c0.2618 0.115 0.5434 0.1725 0.8449 0.1725 0.5474 0 0.9758-0.1725 1.2852-0.5176s0.4641-0.8628 0.4641-1.553zm-1.8088 1.2852c-0.3411 0-0.6148-0.1428-0.8211-0.4284s-0.3253-0.6981-0.357-1.2376h2.0825c0.0079 0.0397 0.0139 0.0972 0.0179 0.1726 0.0039 0.0753 0.0059 0.1566 0.0059 0.2439 0 0.3967-0.0793 0.7041-0.238 0.9223-0.1587 0.2181-0.3887 0.3272-0.6902 0.3272zm5.6049-0.2023c-0.0238 0.0159-0.0754 0.0357-0.1547 0.0595s-0.1864 0.0357-0.3213 0.0357c-0.3015 0-0.5375-0.0813-0.708-0.2439-0.1706-0.1627-0.2916-0.3392-0.363-0.5296v-4.1888h-0.9639v5.712h0.8806v-0.7735h0.0238c0.0397 0.1111 0.0912 0.2202 0.1547 0.3273s0.1428 0.2023 0.238 0.2856 0.2082 0.1487 0.3391 0.1963c0.131 0.0476 0.2876 0.0714 0.4701 0.0714 0.1349 0 0.244-0.0119 0.3273-0.0357s0.1487-0.0436 0.1963-0.0595l-0.119-0.8568zm3.1059-1.7731 1.9635-3.094h-1.1543l-1.6065 2.6656h-0.3927v-2.6656h-0.9639v8.4133l0.9639 0.1071v-5.0337h0.4046l1.5351 2.2253h1.1424l-1.8921-2.618z"/>
 </g>
 <g id="Adler-und-Saeulenelement">
  <path d="m37.173 29.339c0.027-0.224 0.043-0.455 0.043-0.691 0-0.129 1e-3 -0.279-0.015-0.449 1.993-0.028 3.741-1.464 3.741-3.115 0-0.84-0.548-1.474-0.857-1.853 0.069-0.015 0.139-0.031 0.21-0.048 0.292 0.254 1.12 1.156 1.12 2.295 0 1.981-1.98 3.82-4.242 3.861m-2.008-6.899c-0.037-0.221-0.121-0.421-0.249-0.593 7e-3 -0.202 0.09-0.395 0.415-0.236-0.176 0.18-0.04 0.499-0.04 0.499s0.36-0.167 0.285-0.405c0.534 0.128 0.15 0.845-0.411 0.735m-0.463 1.017c-0.071-0.296-0.223-0.6-0.416-0.829-0.176-0.208-0.467-0.455-0.859-0.455-0.179 0-0.479 0.084-0.67 0.165-0.071-0.13-0.21-0.443-0.21-0.584 0-0.145 0.245-0.292 0.714-0.292 1.032 0 1.648 0.466 1.648 1.248 0 0.275-0.109 0.525-0.207 0.747m2.65 13.3c0.12 0 0.178 0.019 0.248 0.045 0.297 0.808 1.442 2.333 1.49 2.398l0.01 0.014 0.017-4e-3c0.281-0.045 0.998-0.153 1.598-0.153h0.014c0.065 0 0.139 0 0.186 0.046 0.039 0.039 0.058 0.107 0.058 0.204 0 0.149-0.063 0.404-0.139 0.513-0.21-0.229-0.551-0.332-1.097-0.332-0.164 0-0.358 0.049-0.463 0.077l-0.043 9e-3 -0.049 0.013 0.315 0.315c0.486 0.486 0.906 0.905 0.906 1.184 0 0.168-0.164 0.387-0.314 0.484-0.033-0.511-0.549-1.195-1.052-1.578l-0.043-0.032-8e-3 0.18c-7e-3 0.122-0.018 0.305-0.018 0.501 0 0.973-0.099 1.121-0.436 1.121-0.052 0-0.131-0.015-0.18-0.033 0.19-0.235 0.265-0.545 0.265-1.089l-3e-3 -0.251-3e-3 -0.202c0-0.223 0.023-0.388 0.041-0.521l0.01-0.075-0.053-7e-3c-0.158-0.022-0.451-0.062-0.675-0.062-0.481 0-0.807 0.044-1.043 0.266-0.156-0.126-0.316-0.343-0.316-0.48 0-0.203 0.126-0.219 0.292-0.219 0.084 0 0.162 0.012 0.27 0.025 0.207 0.031 0.518 0.077 1.159 0.077h0.04l-0.013-0.039c-0.162-0.465-0.608-1.141-1.323-2.01 0.064-0.233 0.127-0.385 0.352-0.385m-6.174 2.395-0.013 0.039h0.04c0.64 0 0.952-0.046 1.159-0.077 0.108-0.013 0.186-0.025 0.27-0.025 0.165 0 0.292 0.016 0.292 0.219 0 0.137-0.16 0.354-0.315 0.48-0.237-0.222-0.563-0.266-1.043-0.266-0.225 0-0.519 0.04-0.676 0.062l-0.025 3e-3 -0.028 4e-3 9e-3 0.075c0.019 0.133 0.042 0.298 0.042 0.521l-3e-3 0.202-3e-3 0.251c0 0.544 0.075 0.854 0.266 1.089-0.05 0.018-0.129 0.033-0.181 0.033-0.338 0-0.436-0.148-0.436-1.121 0-0.196-0.01-0.379-0.017-0.501l-0.01-0.181-0.042 0.033c-0.502 0.383-1.02 1.067-1.051 1.578-0.151-0.097-0.315-0.316-0.315-0.484 0-0.279 0.42-0.698 0.906-1.184l0.315-0.315-0.092-0.022c-0.105-0.028-0.299-0.077-0.464-0.077-0.545 0-0.885 0.103-1.096 0.332-0.076-0.109-0.139-0.364-0.139-0.513 0-0.097 0.019-0.165 0.058-0.204 0.047-0.046 0.121-0.046 0.186-0.046h0.014c0.6 0 1.318 0.108 1.598 0.153l0.017 4e-3 0.01-0.014c0.049-0.065 1.193-1.59 1.491-2.398 0.068-0.026 0.127-0.045 0.247-0.045 0.225 0 0.288 0.152 0.353 0.385-0.716 0.869-1.162 1.545-1.324 2.01m-3.092-13.674c0-1.139 0.829-2.041 1.121-2.295 0.07 0.017 0.14 0.033 0.21 0.048-0.31 0.379-0.858 1.013-0.858 1.853 0 1.668 1.782 3.116 3.8 3.116-0.013 0.143-0.02 0.293-0.02 0.448 0 0.246 0.014 0.475 0.038 0.691-2.282-0.014-4.291-1.866-4.291-3.861m15.306 3.513c1.024 1.619 1.825 1.592 3.035 1.592-1.001-0.767-1.663-1.75-1.979-2.252l-1.87-2.992c-0.182-0.924-0.66-1.788-1.376-2.431 0.241-0.091 0.441-0.187 0.561-0.278-1.221 0-2.431-0.62-3.097-0.62-0.428 0-0.703 0.256-0.703 0.594 0.027 0.377 0.415 0.76 1.132 0.76 0.162 0 0.37-0.021 0.598-0.059 0.388 0.541 0.701 1.03 0.701 1.728 0 1.31-1.566 2.331-3.147 2.331-0.09 0-0.175-4e-3 -0.264-0.01-0.143-0.325-0.62-0.87-0.62-1.49 0-1.041 0.679-1.891 0.679-2.922 0-0.641-0.312-1.038-0.432-1.203 0.194-0.18 0.406-0.401 0.456-0.553-0.113 0.049-0.247 0.055-0.442 0.055-0.758 0-1.376-0.197-1.978-0.197-0.344 0-0.436 0.106-0.436 0.207 0 0.037 5e-3 0.075 0.015 0.093-0.128-0.05-0.248-0.083-0.391-0.109-0.178-0.034-0.369-0.051-0.573-0.051-0.732 0-0.992 0.307-0.992 0.57 0 0.222 0.175 0.628 0.374 0.938 0.285-0.144 0.628-0.241 0.784-0.241 0.389 0 0.734 0.37 0.917 0.808-0.261 0.032-0.311 0.043-0.575 0.043-0.713 0-1.198-0.255-1.298-0.255-9e-3 0-0.028 5e-3 -0.028 0.021 0 0.1 0.202 0.364 0.6 0.509 0.525 0.192 1.311 0.272 1.442 0.294 0 0.023-0.133 0.271-0.282 0.319-0.031 0.01-0.056 0.011-0.093 3e-3 -0.548-0.108-0.701-0.154-1.396-0.418-0.021-8e-3 -0.034 5e-3 -0.034 0.027 0 0.275 0.712 0.882 1.35 1.115-0.533 0.68-1.198 1.376-1.512 2.437-0.089 6e-3 -0.175 0.01-0.264 0.01-1.581 0-3.147-1.021-3.147-2.331 0-0.698 0.313-1.187 0.701-1.728 0.228 0.038 0.435 0.059 0.598 0.059 0.717 0 1.105-0.383 1.133-0.76 0-0.338-0.275-0.594-0.704-0.594-0.666 0-1.875 0.62-3.098 0.62 0.121 0.091 0.321 0.187 0.561 0.278-0.715 0.643-1.193 1.507-1.375 2.431l-1.87 2.992c-0.315 0.502-0.979 1.485-1.98 2.252 1.21 0 2.012 0.027 3.036-1.592l0.959-1.534c0.071 0.199 0.158 0.393 0.261 0.583l-1.907 3.051c-0.317 0.506-0.975 1.48-1.98 2.252 1.21 0 2.012 0.028 3.036-1.59l1.641-2.628c0.123 0.131 0.252 0.259 0.388 0.381l-2.316 3.708c-0.318 0.507-0.972 1.479-1.979 2.25 1.21 0 2.012 0.029 3.035-1.59l2.258-3.615c0.149 0.094 0.301 0.185 0.459 0.271l-2.757 4.411c-0.318 0.507-0.972 1.476-1.979 2.25 1.21 0 2.012 0.028 3.036-1.59l2.838-4.543c0.168 0.064 0.338 0.126 0.511 0.181l-3.207 5.133c-0.313 0.5-0.982 1.487-1.978 2.25 1.209 0 2.012 0.028 3.035-1.59l3.418-5.47c0.035 6e-3 0.069 0.011 0.103 0.018 0.093 0.296 0.158 0.572 0.158 0.847 0 1.719-1.128 3.237-2.482 4.409 0.087 0.038 0.238 0.051 0.377 0.051 0.28 0 0.46-0.015 0.587-0.037-0.314 0.713-0.988 1.634-1.328 2.11-0.443-0.08-1.088-0.142-1.51-0.142-0.442 0-0.492 0.258-0.492 0.489 0 0.401 0.188 0.72 0.406 0.898 0.082-0.205 0.247-0.479 1.063-0.479 0.016 0 0.044 2e-3 0.082 5e-3 -0.238 0.265-0.985 0.869-0.985 1.355 0 0.322 0.353 0.805 0.818 0.805-0.027-0.104-0.024-0.199-0.024-0.271 0-0.394 0.349-0.855 0.644-1.177-9e-3 0.096-4e-3 0.086-4e-3 0.198 0 0.931 0.084 1.359 0.675 1.359 0.29 0 0.49-0.159 0.559-0.207-0.384-0.353-0.404-0.631-0.404-1.153 1e-3 -0.136 2e-3 -0.269 4e-3 -0.452 1e-3 -0.12-1e-3 -0.278-0.02-0.392 0.211-0.029 0.297-0.029 0.46-0.029 0 0 0.839-0.067 1.042 0.37 0.228-0.209 0.559-0.504 0.559-0.829 0-0.215-0.102-0.458-0.535-0.458-0.164 0-0.679 0.1-1.11 0.1 0.116-0.257 0.631-1.011 1.078-1.558 0.068 0.212 0.173 0.441 0.407 0.629 0.033-0.352 0.239-1.465 0.789-2.116 0.064 0.44 0.15 0.891 0.15 1.842 0 2.314-0.556 4.023-1.737 4.349 0.154 0.267 0.479 0.508 0.816 0.508 0.432 0 0.667-0.489 0.907-0.95 0.125 0.34 0.47 1.174 0.816 1.174s0.692-0.834 0.817-1.174c0.239 0.461 0.475 0.95 0.907 0.95 0.337 0 0.662-0.241 0.816-0.508-1.181-0.326-1.738-2.035-1.738-4.349 0-0.951 0.086-1.402 0.15-1.842 0.551 0.651 0.758 1.764 0.789 2.116 0.235-0.188 0.341-0.417 0.408-0.629 0.446 0.547 0.962 1.301 1.078 1.558-0.431 0-0.947-0.1-1.11-0.1-0.432 0-0.534 0.243-0.534 0.458 0 0.325 0.331 0.62 0.559 0.829 0.201-0.437 1.042-0.37 1.042-0.37 0.162 0 0.248 0 0.46 0.029-0.02 0.114-0.021 0.272-0.02 0.392 2e-3 0.183 2e-3 0.316 3e-3 0.452 0 0.522-0.02 0.8-0.404 1.153 0.069 0.048 0.269 0.207 0.559 0.207 0.591 0 0.676-0.428 0.676-1.359 0-0.112 3e-3 -0.102-5e-3 -0.198 0.295 0.322 0.644 0.783 0.644 1.177 0 0.072 4e-3 0.167-0.025 0.271 0.466 0 0.82-0.483 0.82-0.805 0-0.486-0.747-1.09-0.987-1.355 0.039-3e-3 0.067-5e-3 0.082-5e-3 0.817 0 0.982 0.274 1.064 0.479 0.218-0.178 0.406-0.497 0.406-0.898 0-0.231-0.05-0.489-0.492-0.489-0.422 0-1.066 0.062-1.51 0.142-0.341-0.476-1.013-1.397-1.328-2.11 0.127 0.022 0.308 0.037 0.587 0.037 0.14 0 0.29-0.013 0.377-0.051-1.354-1.172-2.482-2.69-2.482-4.409 0-0.275 0.065-0.551 0.158-0.847 0.033-7e-3 0.069-0.012 0.103-0.018l3.418 5.47c1.023 1.618 1.826 1.59 3.035 1.59-0.996-0.763-1.665-1.75-1.978-2.25l-3.208-5.133c0.174-0.055 0.345-0.117 0.513-0.181l2.837 4.543c1.024 1.618 1.826 1.59 3.036 1.59-1.007-0.774-1.661-1.743-1.979-2.25l-2.756-4.411c0.156-0.086 0.309-0.177 0.457-0.271l2.259 3.615c1.024 1.619 1.825 1.59 3.035 1.59-1.007-0.771-1.66-1.743-1.979-2.25l-2.316-3.708c0.136-0.122 0.266-0.25 0.387-0.381l1.643 2.628c1.023 1.618 1.825 1.59 3.035 1.59-1.006-0.772-1.662-1.746-1.98-2.252l-1.906-3.051c0.102-0.19 0.189-0.384 0.261-0.583z"/>
  <path d="m56 42h-3.5v-20h3.5z"/>
  <path d="m56 62h-3.5v-20h3.5z" fill="#f00"/>
  <path d="m56 82h-3.5v-20h3.5z" fill="#fc0"/>
 </g>
</svg>
