<?xml version="1.0" encoding="UTF-8" standalone="no"?><!-- Generator: Gravit.io --><svg xmlns="http://www.w3.org/2000/svg" xmlns:xlink="http://www.w3.org/1999/xlink" style="isolation:isolate" viewBox="0 0 300 300" width="300pt" height="300pt"><defs><clipPath id="_clipPath_tuv3NCu6EXZ0B6pDOVDxg0NzVrwewKqT"><rect width="300" height="300"/></clipPath></defs><g clip-path="url(#_clipPath_tuv3NCu6EXZ0B6pDOVDxg0NzVrwewKqT)"><rect width="300" height="300" style="fill:rgb(0,0,0)" fill-opacity="0"/><g><g><path d=" M 16.405 8.779 L 16.405 5.509 L 13.766 5.509 L 13.766 20.152 L 16.227 20.152 L 16.227 25.376 L 5.029 25.376 L 5.029 20.152 L 7.489 20.152 L 7.489 5.509 L 4.957 5.509 L 4.957 8.778 L 0 8.778 L 0 0 L 21.326 0 L 21.326 8.779 L 16.405 8.779 Z " fill="rgb(32,60,137)"/><path d=" M 41.333 17.913 L 27.067 17.913 C 27.994 19.938 29.813 20.969 31.775 20.969 C 33.094 20.969 34.271 20.542 35.091 19.654 L 40.869 19.654 C 39.299 23.421 35.804 25.98 31.775 25.98 C 26.354 25.98 21.646 21.786 21.646 15.815 C 21.646 9.987 26.175 5.65 31.632 5.65 C 36.91 5.65 41.617 9.738 41.617 15.673 C 41.617 16.597 41.475 17.308 41.333 17.913 Z  M 31.561 10.626 C 29.635 10.626 27.781 11.799 27.032 13.79 L 36.411 13.79 C 35.484 11.622 33.558 10.626 31.561 10.626 Z " fill="rgb(32,60,137)"/><path d=" M 53.599 25.98 C 48.214 25.98 43.506 21.537 43.506 15.78 C 43.506 10.093 48.035 5.615 53.135 5.615 C 54.954 5.615 56.452 6.29 57.771 7.64 L 57.771 6.219 L 62.55 6.219 L 62.55 13.113 L 57.272 13.113 C 56.345 11.94 55.239 11.159 53.598 11.159 C 51.102 11.159 49.247 13.256 49.247 15.814 C 49.247 18.444 51.245 20.435 53.777 20.435 C 55.168 20.435 56.38 19.831 57.058 18.658 L 63.335 18.658 C 61.908 23.35 57.7 25.98 53.599 25.98 Z " fill="rgb(32,60,137)"/><path d=" M 79.347 25.376 L 79.347 15.425 C 79.347 13.399 78.99 11.373 76.208 11.373 C 74.39 11.373 72.891 12.404 72.891 15.212 L 72.891 20.152 L 74.925 20.152 L 74.925 25.376 L 65.189 25.376 L 65.189 20.152 L 67.221 20.152 L 67.221 5.224 L 65.189 5.224 L 65.189 0 L 72.891 0 L 72.891 8.743 C 74.139 6.824 75.923 5.829 78.17 5.829 C 82.057 5.829 85.017 8.921 85.017 14.074 L 85.017 20.152 L 87.014 20.152 L 87.014 25.376 L 79.347 25.376 L 79.347 25.376 Z " fill="rgb(32,60,137)"/><path d=" M 103.418 25.376 L 103.418 14.607 C 103.418 12.368 102.312 11.373 100.422 11.373 C 97.212 11.373 96.998 13.79 96.998 15.816 L 96.998 20.152 L 98.995 20.152 L 98.995 25.376 L 89.295 25.376 L 89.295 20.152 L 91.328 20.152 L 91.328 11.409 L 89.295 11.409 L 89.295 6.22 L 96.998 6.22 L 96.998 8.708 C 98.104 6.824 99.887 5.829 102.133 5.829 C 105.236 5.829 107.803 7.535 108.731 10.059 C 109.052 10.912 109.088 11.978 109.088 13.009 L 109.088 20.153 L 111.12 20.153 L 111.12 25.377 L 103.418 25.377 L 103.418 25.376 Z " fill="rgb(32,60,137)"/><path d=" M 113.402 25.376 L 113.402 20.152 L 115.434 20.152 L 115.434 11.409 L 113.402 11.409 L 113.402 6.22 L 121.104 6.22 L 121.104 20.152 L 123.102 20.152 L 123.102 25.376 L 113.402 25.376 Z  M 115.434 5.224 L 115.434 0 L 121.104 0 L 121.104 5.224 L 115.434 5.224 Z " fill="rgb(32,60,137)"/><path d=" M 134.441 25.803 C 131.802 25.803 130.554 24.985 129.556 24.168 L 129.556 25.376 L 125.668 25.376 L 125.668 19.867 L 131.089 19.867 C 131.303 21.183 132.052 21.751 133.479 21.751 C 134.691 21.751 135.405 21.147 135.405 20.223 C 135.405 18.873 134.049 18.553 130.269 17.522 C 127.131 16.669 125.205 14.644 125.205 11.835 C 125.205 8.459 127.987 5.793 132.195 5.793 C 134.727 5.793 135.654 6.682 136.332 7.322 L 136.332 6.149 L 140.076 6.149 L 140.076 11.694 L 134.941 11.694 C 134.834 10.592 134.156 9.987 133.016 9.987 C 131.981 9.987 131.197 10.556 131.197 11.373 C 131.197 14.43 141.396 12.333 141.396 19.655 C 141.396 23.066 138.757 25.803 134.441 25.803 Z " fill="rgb(32,60,137)"/><path d=" M 153.306 25.98 C 147.921 25.98 143.214 21.537 143.214 15.78 C 143.214 10.093 147.743 5.615 152.842 5.615 C 154.661 5.615 156.159 6.29 157.478 7.64 L 157.478 6.219 L 162.257 6.219 L 162.257 13.113 L 156.979 13.113 C 156.052 11.94 154.946 11.159 153.305 11.159 C 150.809 11.159 148.955 13.256 148.955 15.814 C 148.955 18.444 150.952 20.435 153.484 20.435 C 154.875 20.435 156.087 19.831 156.765 18.658 L 163.041 18.658 C 161.616 23.35 157.407 25.98 153.306 25.98 Z " fill="rgb(32,60,137)"/><path d=" M 179.054 25.376 L 179.054 15.425 C 179.054 13.399 178.697 11.373 175.915 11.373 C 174.097 11.373 172.598 12.404 172.598 15.212 L 172.598 20.152 L 174.631 20.152 L 174.631 25.376 L 164.895 25.376 L 164.895 20.152 L 166.929 20.152 L 166.929 5.224 L 164.895 5.224 L 164.895 0 L 172.598 0 L 172.598 8.743 C 173.847 6.824 175.63 5.829 177.876 5.829 C 181.764 5.829 184.724 8.921 184.724 14.074 L 184.724 20.152 L 186.721 20.152 L 186.721 25.376 L 179.054 25.376 L 179.054 25.376 Z " fill="rgb(32,60,137)"/><path d=" M 208.26 17.913 L 193.995 17.913 C 194.922 19.938 196.741 20.969 198.702 20.969 C 200.022 20.969 201.199 20.542 202.019 19.654 L 207.796 19.654 C 206.228 23.421 202.732 25.98 198.702 25.98 C 193.282 25.98 188.574 21.786 188.574 15.815 C 188.574 9.987 193.103 5.65 198.56 5.65 C 203.838 5.65 208.546 9.738 208.546 15.673 C 208.545 16.597 208.402 17.308 208.26 17.913 Z  M 198.488 10.626 C 196.562 10.626 194.707 11.799 193.959 13.79 L 203.338 13.79 C 202.411 11.622 200.485 10.626 198.488 10.626 Z " fill="rgb(32,60,137)"/><path d=" M 219.599 25.803 C 216.96 25.803 215.712 24.985 214.713 24.168 L 214.713 25.376 L 210.826 25.376 L 210.826 19.867 L 216.247 19.867 C 216.461 21.183 217.21 21.751 218.636 21.751 C 219.848 21.751 220.562 21.147 220.562 20.223 C 220.562 18.873 219.206 18.553 215.426 17.522 C 212.288 16.669 210.362 14.644 210.362 11.835 C 210.362 8.459 213.144 5.793 217.352 5.793 C 219.884 5.793 220.811 6.682 221.489 7.322 L 221.489 6.149 L 225.233 6.149 L 225.233 11.694 L 220.098 11.694 C 219.991 10.592 219.313 9.987 218.172 9.987 C 217.139 9.987 216.353 10.556 216.353 11.373 C 216.353 14.43 226.554 12.333 226.554 19.655 C 226.554 23.066 223.914 25.803 219.599 25.803 Z " fill="rgb(32,60,137)"/><path d=" M 71.431 60.702 L 71.431 55.478 L 73.891 55.478 L 73.891 50.786 L 65.867 50.786 L 65.867 55.478 L 68.328 55.478 L 68.328 60.702 L 57.13 60.702 L 57.13 55.478 L 59.591 55.478 L 59.591 40.55 L 57.13 40.55 L 57.13 35.326 L 68.328 35.326 L 68.328 40.55 L 65.867 40.55 L 65.867 44.886 L 73.891 44.886 L 73.891 40.55 L 71.431 40.55 L 71.431 35.326 L 82.629 35.326 L 82.629 40.55 L 80.168 40.55 L 80.168 55.478 L 82.629 55.478 L 82.629 60.702 L 71.431 60.702 Z " fill="rgb(32,60,137)"/><path d=" M 85.337 60.702 L 85.337 55.478 L 87.37 55.478 L 87.37 46.735 L 85.337 46.735 L 85.337 41.545 L 93.04 41.545 L 93.04 55.478 L 95.037 55.478 L 95.037 60.702 L 85.337 60.702 Z  M 87.37 40.55 L 87.37 35.326 L 93.04 35.326 L 93.04 40.55 L 87.37 40.55 Z " fill="rgb(32,60,137)"/><path d=" M 97.461 60.702 L 97.461 55.478 L 99.494 55.478 L 99.494 40.55 L 97.461 40.55 L 97.461 35.326 L 105.164 35.326 L 105.164 55.478 L 107.197 55.478 L 107.197 60.702 L 97.461 60.702 Z " fill="rgb(32,60,137)"/><path d=" M 117.432 46.735 L 117.432 55.478 L 119.429 55.478 L 119.429 60.702 L 109.728 60.702 L 109.728 55.478 L 111.761 55.478 L 111.761 46.735 L 109.728 46.735 L 109.728 41.545 L 111.761 41.545 C 112.011 36.072 114.793 34.437 119.821 34.437 L 119.821 39.377 C 119.678 39.342 119.535 39.342 119.321 39.342 C 117.895 39.342 117.467 40.23 117.431 41.545 L 119.821 41.545 L 119.821 46.734 L 117.432 46.734 L 117.432 46.735 Z " fill="rgb(32,60,137)"/><path d=" M 131.446 61.129 C 128.807 61.129 127.559 60.311 126.56 59.494 L 126.56 60.703 L 122.673 60.703 L 122.673 55.194 L 128.094 55.194 C 128.308 56.509 129.056 57.078 130.483 57.078 C 131.696 57.078 132.409 56.473 132.409 55.55 C 132.409 54.199 131.054 53.878 127.274 52.849 C 124.136 51.995 122.21 49.969 122.21 47.162 C 122.21 43.786 124.992 41.12 129.199 41.12 C 131.732 41.12 132.659 42.008 133.336 42.648 L 133.336 41.474 L 137.081 41.474 L 137.081 47.019 L 131.946 47.019 C 131.839 45.917 131.161 45.313 130.02 45.313 C 128.986 45.313 128.201 45.881 128.201 46.699 C 128.201 49.756 138.401 47.659 138.401 54.98 C 138.4 58.392 135.761 61.129 131.446 61.129 Z " fill="rgb(32,60,137)"/><path d=" M 166.858 46.735 L 162.15 60.702 L 156.837 60.702 L 153.805 50.68 L 150.131 60.702 L 145.032 60.702 L 141.145 46.735 L 139.254 46.735 L 139.254 41.545 L 148.277 41.545 L 148.277 46.735 L 146.672 46.735 L 148.277 52.812 L 151.701 41.545 L 156.302 41.545 L 159.583 52.812 L 161.33 46.735 L 159.725 46.735 L 159.725 41.545 L 169.033 41.545 L 169.033 46.735 L 166.858 46.735 Z " fill="rgb(32,60,137)"/><path d=" M 189.68 53.238 L 175.415 53.238 C 176.342 55.265 178.161 56.295 180.122 56.295 C 181.442 56.295 182.619 55.868 183.439 54.98 L 189.216 54.98 C 187.648 58.747 184.153 61.306 180.122 61.306 C 174.702 61.306 169.994 57.112 169.994 51.141 C 169.994 45.312 174.523 40.976 179.98 40.976 C 185.258 40.976 189.966 45.064 189.966 50.999 C 189.965 51.924 189.822 52.634 189.68 53.238 Z  M 179.909 45.952 C 177.983 45.952 176.128 47.125 175.379 49.116 L 184.759 49.116 C 183.831 46.948 181.906 45.952 179.909 45.952 Z " fill="rgb(32,60,137)"/><path d=" M 199.985 51.924 L 199.985 55.478 L 201.982 55.478 L 201.982 60.702 L 192.281 60.702 L 192.281 55.478 L 194.314 55.478 L 194.314 46.735 L 192.281 46.735 L 192.281 41.545 L 199.485 41.545 L 199.485 44.424 C 201.054 42.078 202.588 41.439 204.942 41.261 L 204.942 47.054 C 201.733 47.232 199.985 48.938 199.985 51.924 Z " fill="rgb(32,60,137)"/><path d=" M 220.776 60.702 L 214.249 52.137 L 214.249 60.702 L 206.546 60.702 L 206.546 55.478 L 208.58 55.478 L 208.58 40.55 L 206.546 40.55 L 206.546 35.326 L 214.249 35.326 L 214.249 50.147 L 217.816 46.202 L 216.176 46.202 L 216.176 41.546 L 226.162 41.546 L 226.162 46.735 L 224.307 46.735 L 220.241 50.965 L 224.307 55.478 L 227.017 55.478 L 227.017 60.703 L 220.776 60.703 L 220.776 60.702 Z " fill="rgb(32,60,137)"/></g><g><g><g><g><g><path d=" M 279.632 47.141 C 278.469 49.076 277.306 51.011 276.143 52.946 C 275.424 51.752 274.709 50.562 273.99 49.368 C 271.235 49.975 268.363 49.975 265.608 49.368 C 264.889 50.562 264.17 51.752 263.451 52.946 C 262.223 51 261.144 48.908 259.821 47.049 C 253.845 43.579 250.142 36.668 250.51 29.758 C 250.67 23.005 254.741 16.597 260.712 13.51 C 260.712 12.082 260.712 10.654 260.712 9.222 C 266.771 9.222 272.827 9.222 278.882 9.222 C 278.882 10.65 278.882 12.078 278.882 13.51 C 284.911 16.608 288.954 23.101 289.107 29.892 C 289.348 38.388 285.19 43.759 279.632 47.141 L 279.632 47.141 Z  M 299.929 27.477 C 298.651 27.266 296.111 27.04 293.694 26.602 C 293.445 25.028 293.009 23.488 292.458 21.995 C 294.084 20.651 295.706 19.311 297.332 17.971 C 296.559 16.213 295.561 14.562 294.463 12.988 C 292.489 13.725 290.511 14.462 288.537 15.199 C 287.52 13.963 286.384 12.823 285.14 11.809 C 285.879 9.836 286.617 7.863 287.355 5.889 C 285.787 4.784 284.119 3.809 282.371 3.025 C 281.028 4.649 279.682 6.27 278.339 7.894 C 276.843 7.337 275.302 6.918 273.726 6.661 C 273.378 4.58 273.026 2.503 272.677 0.422 C 270.761 0.25 268.833 0.25 266.92 0.422 C 266.568 2.503 266.22 4.58 265.868 6.661 C 264.296 6.922 262.751 7.337 261.259 7.894 C 259.916 6.27 258.57 4.649 257.227 3.025 C 255.471 3.805 253.815 4.791 252.243 5.889 C 252.981 7.863 253.719 9.836 254.454 11.809 C 253.226 12.831 252.07 13.944 251.08 15.199 C 249.098 14.462 247.117 13.725 245.135 12.988 C 244.033 14.558 243.043 16.213 242.266 17.971 C 243.892 19.311 245.518 20.655 247.14 21.995 C 246.581 23.484 246.168 25.032 245.904 26.602 C 243.823 26.951 241.738 27.301 239.657 27.65 C 239.493 29.562 239.493 31.485 239.657 33.397 C 241.738 33.747 243.819 34.096 245.904 34.445 C 246.168 36.016 246.577 37.563 247.14 39.052 C 245.514 40.396 243.892 41.736 242.266 43.08 C 243.05 44.83 244.03 46.493 245.135 48.059 C 247.117 47.322 249.098 46.589 251.08 45.852 C 252.074 47.103 253.226 48.224 254.454 49.242 C 253.715 51.215 252.977 53.184 252.243 55.158 C 253.815 56.256 255.471 57.246 257.227 58.022 C 258.57 56.398 259.916 54.774 261.259 53.154 C 262.751 53.714 264.296 54.136 265.868 54.39 C 266.22 56.467 266.568 58.548 266.92 60.625 C 268.837 60.801 270.761 60.801 272.677 60.625 C 273.026 58.548 273.378 56.467 273.726 54.39 C 275.298 54.136 276.847 53.714 278.339 53.154 C 279.682 54.774 281.028 56.398 282.371 58.022 C 284.123 57.239 285.791 56.263 287.355 55.158 C 286.617 53.184 285.879 51.215 285.14 49.242 C 286.38 48.228 287.516 47.088 288.537 45.852 C 290.511 46.589 292.489 47.322 294.463 48.059 C 295.568 46.493 296.551 44.834 297.332 43.08 C 295.706 41.736 294.08 40.396 292.458 39.052 C 293.009 37.559 293.445 36.019 293.694 34.445 C 295.775 34.096 297.856 33.747 299.941 33.397 C 300.032 31.685 300.009 28.61 299.929 27.477 Z " fill="rgb(32,60,137)"/></g><g><path d=" M 278.021 10.086 L 261.596 10.086 L 261.596 14.409 L 265.624 14.409 L 265.624 13.529 L 267.781 13.529 L 267.781 21.599 L 266.917 21.599 L 266.917 25.062 L 272.674 25.062 L 272.674 21.599 L 271.813 21.599 L 271.813 13.549 L 273.99 13.549 L 273.99 14.409 L 278.021 14.409 L 278.021 10.086 Z " fill="rgb(32,60,137)"/></g><g><path d=" M 260.865 16.712 L 260.865 20.175 L 261.745 20.175 L 261.745 33.996 L 260.865 33.977 L 260.865 37.444 L 266.641 37.444 L 266.641 33.977 L 265.777 33.977 L 265.777 30.533 L 273.84 30.533 L 273.84 33.977 L 272.98 33.977 L 272.98 37.444 L 278.737 37.444 L 278.737 33.977 L 277.876 33.977 L 277.876 20.16 L 278.737 20.175 L 278.737 16.712 L 272.98 16.712 L 272.98 20.175 L 273.84 20.175 L 273.84 27.066 L 265.777 27.066 L 265.777 20.175 L 266.641 20.175 L 266.641 16.712 L 260.865 16.712 Z " fill="rgb(32,60,137)"/></g><g><path d=" M 269.808 40.699 L 276.147 51.242 L 284.456 37.425 L 286.517 37.425 L 286.517 33.977 L 279.617 33.977 L 279.617 37.425 L 280.424 37.425 L 276.147 44.539 L 269.793 33.977 L 263.455 44.539 L 259.201 37.425 L 260.008 37.425 L 260.008 33.977 L 253.088 33.977 L 253.088 37.425 L 255.169 37.425 L 263.478 51.242 L 269.808 40.699 Z " fill="rgb(32,60,137)"/></g></g></g></g></g></g><g><g><path d=" M 100.164 169.698 C 100.164 170.339 100.084 170.899 99.924 171.379 C 99.764 171.859 99.546 172.273 99.27 172.62 C 98.994 172.967 98.674 173.247 98.31 173.46 C 97.945 173.674 97.567 173.834 97.176 173.941 L 97.176 173.994 C 97.656 174.083 98.105 174.252 98.523 174.501 C 98.941 174.75 99.306 175.061 99.617 175.435 C 99.928 175.808 100.177 176.248 100.364 176.755 C 100.551 177.262 100.644 177.818 100.644 178.423 C 100.644 179.152 100.52 179.819 100.271 180.424 C 100.022 181.029 99.635 181.553 99.11 181.998 C 98.585 182.443 97.923 182.79 97.122 183.039 C 96.322 183.288 95.37 183.412 94.268 183.412 L 90.506 183.412 L 90.506 165.003 L 94.054 165.003 C 95.139 165.003 96.069 165.114 96.842 165.336 C 97.616 165.558 98.252 165.874 98.75 166.283 C 99.248 166.692 99.608 167.186 99.831 167.764 C 100.053 168.342 100.164 168.987 100.164 169.698 L 100.164 169.698 Z  M 97.816 169.778 C 97.816 168.925 97.514 168.222 96.909 167.671 C 96.304 167.119 95.352 166.844 94.054 166.844 L 92.827 166.844 L 92.827 173.194 L 94.027 173.194 C 95.272 173.194 96.215 172.891 96.856 172.286 C 97.496 171.682 97.816 170.846 97.816 169.778 L 97.816 169.778 Z  M 98.163 178.263 C 98.163 177.267 97.838 176.48 97.189 175.901 C 96.54 175.323 95.611 175.034 94.401 175.034 L 92.827 175.034 L 92.827 181.491 L 94.268 181.491 C 95.637 181.491 96.629 181.22 97.242 180.677 C 97.856 180.135 98.163 179.33 98.163 178.263 Z  M 112.464 183.412 L 110.489 183.412 L 110.489 181.971 L 110.436 181.971 C 110.383 182.078 110.267 182.234 110.089 182.438 C 109.911 182.643 109.684 182.838 109.409 183.025 C 109.133 183.212 108.799 183.376 108.408 183.519 C 108.017 183.661 107.581 183.732 107.101 183.732 C 106.532 183.732 106.02 183.648 105.567 183.479 C 105.113 183.31 104.726 183.039 104.406 182.665 C 104.086 182.292 103.841 181.807 103.672 181.211 C 103.503 180.615 103.419 179.881 103.419 179.01 L 103.419 170.606 L 105.58 170.606 L 105.58 178.85 C 105.58 179.917 105.754 180.677 106.1 181.131 C 106.447 181.584 106.985 181.811 107.714 181.811 C 108.337 181.811 108.862 181.656 109.289 181.344 C 109.716 181.033 110.053 180.726 110.302 180.424 L 110.302 170.606 L 112.464 170.606 L 112.464 183.412 L 112.464 183.412 Z  M 122.762 183.412 L 122.762 175.168 C 122.762 174.083 122.58 173.305 122.215 172.833 C 121.851 172.362 121.295 172.126 120.548 172.126 C 119.907 172.126 119.374 172.286 118.947 172.607 C 118.52 172.927 118.182 173.238 117.933 173.54 L 117.933 183.412 L 115.772 183.412 L 115.772 170.606 L 117.746 170.606 L 117.746 172.046 L 117.8 172.046 C 117.853 171.94 117.969 171.784 118.147 171.579 C 118.324 171.375 118.556 171.179 118.84 170.992 C 119.125 170.806 119.463 170.641 119.854 170.499 C 120.245 170.356 120.69 170.285 121.188 170.285 C 121.757 170.285 122.273 170.37 122.736 170.539 C 123.198 170.708 123.589 170.979 123.91 171.353 C 124.23 171.726 124.479 172.211 124.657 172.807 C 124.834 173.402 124.923 174.136 124.923 175.008 L 124.923 183.412 L 122.762 183.412 L 122.762 183.412 Z  M 127.565 177.196 C 127.565 175.897 127.734 174.812 128.072 173.941 C 128.41 173.069 128.845 172.366 129.379 171.833 C 129.913 171.299 130.517 170.921 131.193 170.699 C 131.869 170.477 132.545 170.365 133.221 170.365 C 133.63 170.365 133.986 170.397 134.288 170.459 C 134.591 170.521 134.84 170.597 135.035 170.686 L 135.035 164.549 L 137.196 164.309 L 137.196 183.412 L 135.222 183.412 L 135.222 182.051 L 135.169 182.051 C 135.115 182.158 135.018 182.305 134.875 182.492 C 134.733 182.678 134.537 182.865 134.288 183.052 C 134.039 183.239 133.728 183.399 133.354 183.532 C 132.981 183.666 132.545 183.732 132.047 183.732 C 131.442 183.732 130.869 183.612 130.326 183.372 C 129.784 183.132 129.308 182.75 128.899 182.225 C 128.49 181.7 128.165 181.024 127.925 180.197 C 127.685 179.37 127.565 178.37 127.565 177.196 L 127.565 177.196 Z  M 132.634 181.811 C 132.972 181.811 133.274 181.767 133.541 181.678 C 133.808 181.589 134.039 181.478 134.235 181.344 C 134.431 181.211 134.595 181.073 134.729 180.931 C 134.862 180.788 134.964 180.664 135.035 180.557 L 135.035 172.66 C 134.84 172.535 134.613 172.429 134.355 172.34 C 134.097 172.251 133.772 172.206 133.381 172.206 C 132.883 172.206 132.416 172.291 131.98 172.46 C 131.545 172.629 131.167 172.909 130.846 173.3 C 130.526 173.691 130.273 174.198 130.086 174.821 C 129.899 175.444 129.806 176.208 129.806 177.116 C 129.806 178.005 129.881 178.748 130.033 179.343 C 130.184 179.939 130.393 180.419 130.66 180.784 C 130.926 181.149 131.229 181.411 131.567 181.571 C 131.905 181.731 132.261 181.811 132.634 181.811 L 132.634 181.811 Z  M 148.722 174.928 C 148.722 175.479 148.705 175.955 148.669 176.355 C 148.633 176.755 148.598 177.107 148.562 177.409 L 142.026 177.409 C 142.097 178.921 142.421 180.033 143 180.744 C 143.578 181.455 144.409 181.811 145.494 181.811 C 145.868 181.811 146.205 181.767 146.508 181.678 C 146.81 181.589 147.073 181.482 147.295 181.358 C 147.517 181.233 147.704 181.109 147.855 180.984 C 148.006 180.86 148.118 180.762 148.189 180.691 L 148.989 182.212 C 148.9 182.301 148.767 182.429 148.589 182.598 C 148.411 182.767 148.171 182.936 147.869 183.105 C 147.566 183.274 147.193 183.421 146.748 183.546 C 146.303 183.67 145.779 183.732 145.174 183.732 C 144.373 183.732 143.649 183.599 143 183.332 C 142.35 183.065 141.799 182.652 141.345 182.091 C 140.892 181.531 140.54 180.82 140.291 179.957 C 140.042 179.094 139.918 178.058 139.918 176.849 C 139.918 175.71 140.047 174.728 140.305 173.9 C 140.563 173.073 140.914 172.393 141.359 171.859 C 141.803 171.326 142.319 170.93 142.906 170.672 C 143.493 170.414 144.124 170.285 144.8 170.285 C 146.028 170.285 146.988 170.672 147.682 171.446 C 148.376 172.22 148.722 173.38 148.722 174.928 L 148.722 174.928 Z  M 144.667 172.046 C 143.902 172.046 143.289 172.366 142.826 173.007 C 142.363 173.647 142.097 174.572 142.026 175.782 L 146.695 175.782 C 146.712 175.693 146.726 175.564 146.735 175.395 C 146.744 175.226 146.748 175.043 146.748 174.848 C 146.748 173.958 146.57 173.269 146.214 172.78 C 145.859 172.291 145.343 172.046 144.667 172.046 L 144.667 172.046 Z  M 157.127 173.194 C 156.984 173.033 156.727 172.816 156.353 172.54 C 155.979 172.264 155.49 172.126 154.886 172.126 C 154.316 172.126 153.881 172.26 153.578 172.527 C 153.276 172.793 153.125 173.113 153.125 173.487 C 153.125 173.967 153.263 174.363 153.538 174.674 C 153.814 174.986 154.236 175.319 154.806 175.675 L 155.606 176.155 C 156.477 176.671 157.162 177.227 157.66 177.822 C 158.158 178.418 158.407 179.188 158.407 180.13 C 158.407 181.144 158.056 181.998 157.354 182.692 C 156.651 183.385 155.642 183.732 154.325 183.732 C 153.809 183.732 153.356 183.679 152.965 183.572 C 152.573 183.466 152.231 183.341 151.937 183.199 C 151.644 183.056 151.399 182.901 151.204 182.732 C 151.008 182.563 150.848 182.407 150.723 182.265 L 151.764 180.557 C 151.871 180.664 152 180.788 152.151 180.931 C 152.302 181.073 152.484 181.211 152.698 181.344 C 152.911 181.478 153.151 181.589 153.418 181.678 C 153.685 181.767 153.996 181.811 154.352 181.811 C 154.992 181.811 155.481 181.669 155.819 181.384 C 156.157 181.1 156.326 180.753 156.326 180.344 C 156.326 180.041 156.286 179.779 156.206 179.557 C 156.126 179.335 156.006 179.134 155.846 178.957 C 155.686 178.779 155.49 178.61 155.259 178.45 C 155.028 178.289 154.761 178.112 154.459 177.916 L 153.658 177.409 C 152.858 176.893 152.231 176.351 151.777 175.782 C 151.324 175.212 151.097 174.483 151.097 173.594 C 151.097 173.113 151.19 172.673 151.377 172.273 C 151.564 171.873 151.826 171.526 152.164 171.232 C 152.502 170.939 152.898 170.708 153.352 170.539 C 153.805 170.37 154.29 170.285 154.806 170.285 C 155.303 170.285 155.73 170.334 156.086 170.432 C 156.442 170.53 156.749 170.654 157.007 170.806 C 157.265 170.957 157.478 171.108 157.647 171.259 C 157.816 171.41 157.954 171.539 158.061 171.646 L 157.127 173.194 L 157.127 173.194 Z  M 160.195 180.157 C 160.195 179.41 160.337 178.787 160.622 178.289 C 160.906 177.792 161.289 177.387 161.769 177.075 C 162.249 176.764 162.814 176.542 163.463 176.408 C 164.113 176.275 164.802 176.208 165.531 176.208 L 166.198 176.208 L 166.198 174.981 C 166.198 173.896 166.007 173.149 165.625 172.74 C 165.242 172.331 164.704 172.126 164.01 172.126 C 163.37 172.126 162.836 172.264 162.409 172.54 C 161.983 172.816 161.645 173.06 161.396 173.274 L 160.488 171.833 C 160.631 171.69 160.813 171.53 161.036 171.353 C 161.258 171.175 161.529 171.006 161.849 170.846 C 162.169 170.686 162.534 170.552 162.943 170.445 C 163.352 170.339 163.815 170.285 164.33 170.285 C 165.647 170.285 166.643 170.65 167.319 171.379 C 167.995 172.109 168.333 173.283 168.333 174.901 L 168.333 180.744 C 168.333 181.295 168.35 181.834 168.386 182.358 C 168.422 182.883 168.457 183.234 168.493 183.412 L 166.438 183.412 L 166.358 181.998 L 166.305 181.998 C 166.234 182.158 166.127 182.34 165.985 182.545 C 165.842 182.75 165.664 182.936 165.451 183.105 C 165.238 183.274 164.98 183.421 164.677 183.546 C 164.375 183.67 164.019 183.732 163.61 183.732 C 163.13 183.732 162.681 183.643 162.263 183.466 C 161.845 183.288 161.48 183.039 161.169 182.718 C 160.857 182.398 160.617 182.02 160.449 181.584 C 160.279 181.149 160.195 180.673 160.195 180.157 L 160.195 180.157 Z  M 164.064 181.891 C 164.366 181.891 164.633 181.847 164.864 181.758 C 165.095 181.669 165.295 181.562 165.464 181.438 C 165.633 181.313 165.776 181.175 165.891 181.024 C 166.007 180.873 166.109 180.744 166.198 180.637 L 166.198 177.809 L 165.504 177.836 C 164.473 177.872 163.69 178.049 163.157 178.37 C 162.623 178.69 162.356 179.206 162.356 179.917 C 162.356 180.575 162.507 181.069 162.81 181.398 C 163.112 181.727 163.53 181.891 164.064 181.891 L 164.064 181.891 Z  M 178.578 183.412 L 178.578 175.168 C 178.578 174.083 178.396 173.305 178.031 172.833 C 177.666 172.362 177.11 172.126 176.363 172.126 C 175.723 172.126 175.189 172.286 174.763 172.607 C 174.336 172.927 173.998 173.238 173.749 173.54 L 173.749 183.412 L 171.588 183.412 L 171.588 170.606 L 173.562 170.606 L 173.562 172.046 L 173.615 172.046 C 173.669 171.94 173.784 171.784 173.962 171.579 C 174.14 171.375 174.371 171.179 174.656 170.992 C 174.94 170.806 175.278 170.641 175.67 170.499 C 176.061 170.356 176.506 170.285 177.004 170.285 C 177.573 170.285 178.089 170.37 178.551 170.539 C 179.014 170.708 179.405 170.979 179.725 171.353 C 180.045 171.726 180.294 172.211 180.472 172.807 C 180.65 173.402 180.739 174.136 180.739 175.008 L 180.739 183.412 L 178.578 183.412 L 178.578 183.412 Z  M 189.49 173.194 C 189.348 173.033 189.09 172.816 188.716 172.54 C 188.343 172.264 187.854 172.126 187.249 172.126 C 186.68 172.126 186.244 172.26 185.942 172.527 C 185.639 172.793 185.488 173.113 185.488 173.487 C 185.488 173.967 185.626 174.363 185.902 174.674 C 186.177 174.986 186.6 175.319 187.169 175.675 L 187.969 176.155 C 188.841 176.671 189.526 177.227 190.024 177.822 C 190.522 178.418 190.771 179.188 190.771 180.13 C 190.771 181.144 190.419 181.998 189.717 182.692 C 189.014 183.385 188.005 183.732 186.689 183.732 C 186.173 183.732 185.719 183.679 185.328 183.572 C 184.937 183.466 184.594 183.341 184.301 183.199 C 184.007 183.056 183.763 182.901 183.567 182.732 C 183.371 182.563 183.211 182.407 183.087 182.265 L 184.127 180.557 C 184.234 180.664 184.363 180.788 184.514 180.931 C 184.665 181.073 184.848 181.211 185.061 181.344 C 185.275 181.478 185.515 181.589 185.782 181.678 C 186.048 181.767 186.36 181.811 186.715 181.811 C 187.356 181.811 187.845 181.669 188.183 181.384 C 188.521 181.1 188.69 180.753 188.69 180.344 C 188.69 180.041 188.65 179.779 188.57 179.557 C 188.49 179.335 188.37 179.134 188.209 178.957 C 188.049 178.779 187.854 178.61 187.623 178.45 C 187.391 178.289 187.125 178.112 186.822 177.916 L 186.022 177.409 C 185.221 176.893 184.594 176.351 184.141 175.782 C 183.687 175.212 183.46 174.483 183.46 173.594 C 183.46 173.113 183.554 172.673 183.741 172.273 C 183.927 171.873 184.19 171.526 184.528 171.232 C 184.865 170.939 185.261 170.708 185.715 170.539 C 186.169 170.37 186.653 170.285 187.169 170.285 C 187.667 170.285 188.094 170.334 188.45 170.432 C 188.805 170.53 189.112 170.654 189.37 170.806 C 189.628 170.957 189.841 171.108 190.011 171.259 C 190.179 171.41 190.317 171.539 190.424 171.646 L 189.49 173.194 L 189.49 173.194 Z  M 198.775 172.366 L 195.973 172.366 L 195.973 179.463 C 195.973 180.371 196.089 180.989 196.32 181.318 C 196.551 181.647 196.943 181.811 197.494 181.811 C 197.814 181.811 198.09 181.767 198.321 181.678 C 198.553 181.589 198.722 181.509 198.828 181.438 L 199.122 183.172 C 199.033 183.243 198.819 183.354 198.481 183.506 C 198.144 183.657 197.69 183.732 197.121 183.732 C 196.018 183.732 195.191 183.426 194.639 182.812 C 194.088 182.198 193.812 181.18 193.812 179.757 L 193.812 172.366 L 192.265 172.366 L 192.265 170.926 L 193.812 170.606 L 194.052 167.03 L 195.973 167.03 L 195.973 170.606 L 199.042 170.606 L 198.775 172.366 L 198.775 172.366 Z  M 200.482 180.157 C 200.482 179.41 200.625 178.787 200.909 178.289 C 201.194 177.792 201.576 177.387 202.057 177.075 C 202.537 176.764 203.102 176.542 203.751 176.408 C 204.4 176.275 205.089 176.208 205.819 176.208 L 206.486 176.208 L 206.486 174.981 C 206.486 173.896 206.294 173.149 205.912 172.74 C 205.53 172.331 204.991 172.126 204.298 172.126 C 203.657 172.126 203.124 172.264 202.697 172.54 C 202.27 172.816 201.932 173.06 201.683 173.274 L 200.776 171.833 C 200.918 171.69 201.101 171.53 201.323 171.353 C 201.545 171.175 201.817 171.006 202.137 170.846 C 202.457 170.686 202.821 170.552 203.231 170.445 C 203.64 170.339 204.102 170.285 204.618 170.285 C 205.934 170.285 206.93 170.65 207.606 171.379 C 208.282 172.109 208.62 173.283 208.62 174.901 L 208.62 180.744 C 208.62 181.295 208.638 181.834 208.673 182.358 C 208.709 182.883 208.744 183.234 208.78 183.412 L 206.726 183.412 L 206.646 181.998 L 206.592 181.998 C 206.521 182.158 206.415 182.34 206.272 182.545 C 206.13 182.75 205.952 182.936 205.739 183.105 C 205.525 183.274 205.267 183.421 204.965 183.546 C 204.662 183.67 204.307 183.732 203.898 183.732 C 203.417 183.732 202.968 183.643 202.55 183.466 C 202.132 183.288 201.768 183.039 201.456 182.718 C 201.145 182.398 200.905 182.02 200.736 181.584 C 200.567 181.149 200.482 180.673 200.482 180.157 L 200.482 180.157 Z  M 204.351 181.891 C 204.654 181.891 204.92 181.847 205.152 181.758 C 205.383 181.669 205.583 181.562 205.752 181.438 C 205.921 181.313 206.063 181.175 206.179 181.024 C 206.294 180.873 206.397 180.744 206.486 180.637 L 206.486 177.809 L 205.792 177.836 C 204.76 177.872 203.978 178.049 203.444 178.37 C 202.91 178.69 202.644 179.206 202.644 179.917 C 202.644 180.575 202.795 181.069 203.097 181.398 C 203.4 181.727 203.818 181.891 204.351 181.891 L 204.351 181.891 Z  M 214.009 180.424 C 214.009 180.958 214.085 181.331 214.236 181.545 C 214.388 181.758 214.65 181.865 215.023 181.865 C 215.219 181.865 215.384 181.847 215.517 181.811 C 215.65 181.776 215.753 181.74 215.824 181.705 L 216.011 183.305 C 215.904 183.359 215.708 183.43 215.424 183.519 C 215.139 183.608 214.757 183.652 214.276 183.652 C 213.547 183.652 212.96 183.43 212.515 182.985 C 212.071 182.541 211.848 181.749 211.848 180.611 L 211.848 164.549 L 214.009 164.309 L 214.009 180.424 Z  M 223.428 172.366 L 220.626 172.366 L 220.626 179.463 C 220.626 180.371 220.742 180.989 220.973 181.318 C 221.204 181.647 221.596 181.811 222.147 181.811 C 222.467 181.811 222.743 181.767 222.974 181.678 C 223.205 181.589 223.374 181.509 223.481 181.438 L 223.775 183.172 C 223.686 183.243 223.472 183.354 223.134 183.506 C 222.796 183.657 222.343 183.732 221.774 183.732 C 220.671 183.732 219.844 183.426 219.292 182.812 C 218.741 182.198 218.465 181.18 218.465 179.757 L 218.465 172.366 L 216.918 172.366 L 216.918 170.926 L 218.465 170.606 L 218.705 167.03 L 220.626 167.03 L 220.626 170.606 L 223.695 170.606 L 223.428 172.366 L 223.428 172.366 Z  M 100.884 193.748 L 95.974 193.748 L 95.974 210.317 L 93.653 210.317 L 93.653 193.748 L 88.744 193.748 L 88.744 191.907 L 101.044 191.907 L 100.884 193.748 Z  M 109.155 201.832 C 109.155 202.384 109.137 202.86 109.101 203.26 C 109.066 203.66 109.03 204.011 108.994 204.314 L 102.458 204.314 C 102.529 205.826 102.853 206.937 103.432 207.649 C 104.01 208.36 104.841 208.716 105.926 208.716 C 106.3 208.716 106.638 208.672 106.94 208.583 C 107.243 208.494 107.505 208.387 107.727 208.262 C 107.949 208.138 108.136 208.013 108.288 207.889 C 108.439 207.764 108.55 207.666 108.621 207.595 L 109.421 209.116 C 109.332 209.205 109.199 209.334 109.021 209.503 C 108.843 209.672 108.603 209.841 108.301 210.01 C 107.998 210.179 107.625 210.326 107.18 210.45 C 106.736 210.575 106.211 210.637 105.606 210.637 C 104.806 210.637 104.081 210.504 103.432 210.237 C 102.782 209.97 102.231 209.556 101.778 208.996 C 101.324 208.436 100.973 207.724 100.724 206.862 C 100.474 205.999 100.35 204.963 100.35 203.753 C 100.35 202.615 100.479 201.632 100.737 200.805 C 100.995 199.978 101.346 199.298 101.791 198.764 C 102.235 198.231 102.751 197.835 103.338 197.577 C 103.925 197.319 104.557 197.19 105.233 197.19 C 106.46 197.19 107.42 197.577 108.114 198.351 C 108.808 199.124 109.155 200.285 109.155 201.832 L 109.155 201.832 Z  M 105.099 198.951 C 104.334 198.951 103.721 199.271 103.258 199.911 C 102.796 200.552 102.529 201.477 102.458 202.686 L 107.127 202.686 C 107.145 202.597 107.158 202.468 107.167 202.299 C 107.176 202.13 107.18 201.948 107.18 201.752 C 107.18 200.863 107.002 200.174 106.647 199.685 C 106.291 199.196 105.775 198.951 105.099 198.951 L 105.099 198.951 Z  M 119.16 199.991 C 119.106 199.938 119.022 199.858 118.906 199.751 C 118.791 199.645 118.644 199.538 118.466 199.431 C 118.288 199.324 118.075 199.231 117.826 199.151 C 117.577 199.071 117.292 199.031 116.972 199.031 C 116.509 199.031 116.078 199.116 115.678 199.284 C 115.278 199.453 114.931 199.725 114.637 200.098 C 114.344 200.472 114.113 200.956 113.944 201.552 C 113.775 202.148 113.69 202.873 113.69 203.727 C 113.69 204.67 113.766 205.461 113.917 206.101 C 114.068 206.742 114.277 207.253 114.544 207.635 C 114.811 208.018 115.135 208.294 115.518 208.462 C 115.9 208.631 116.323 208.716 116.785 208.716 C 117.443 208.716 117.946 208.6 118.293 208.369 C 118.64 208.138 118.884 207.951 119.026 207.809 L 119.907 209.303 C 119.818 209.41 119.689 209.539 119.52 209.69 C 119.351 209.841 119.133 209.988 118.866 210.13 C 118.599 210.272 118.275 210.392 117.893 210.49 C 117.51 210.588 117.07 210.637 116.572 210.637 C 115.86 210.637 115.193 210.521 114.571 210.29 C 113.948 210.059 113.406 209.676 112.943 209.143 C 112.481 208.609 112.116 207.916 111.849 207.062 C 111.582 206.208 111.449 205.15 111.449 203.887 C 111.449 202.66 111.609 201.619 111.929 200.765 C 112.249 199.911 112.667 199.222 113.183 198.697 C 113.699 198.173 114.273 197.79 114.904 197.55 C 115.536 197.31 116.172 197.19 116.812 197.19 C 117.292 197.19 117.714 197.234 118.079 197.323 C 118.444 197.412 118.755 197.523 119.013 197.657 C 119.271 197.79 119.484 197.933 119.653 198.084 C 119.822 198.235 119.96 198.364 120.067 198.471 L 119.16 199.991 L 119.16 199.991 Z  M 129.325 210.317 L 129.325 202.073 C 129.325 200.988 129.143 200.209 128.778 199.738 C 128.413 199.267 127.858 199.031 127.111 199.031 C 126.47 199.031 125.937 199.191 125.51 199.511 C 125.083 199.831 124.745 200.143 124.496 200.445 L 124.496 210.317 L 122.335 210.317 L 122.335 191.454 L 124.496 191.214 L 124.496 198.818 L 124.549 198.818 C 124.62 198.711 124.731 198.568 124.883 198.391 C 125.034 198.213 125.243 198.035 125.51 197.857 C 125.776 197.679 126.101 197.523 126.484 197.39 C 126.866 197.257 127.315 197.19 127.831 197.19 C 128.951 197.19 129.841 197.555 130.499 198.284 C 131.157 199.013 131.486 200.223 131.486 201.912 L 131.486 210.317 L 129.325 210.317 L 129.325 210.317 Z  M 141.705 210.317 L 141.705 202.073 C 141.705 200.988 141.522 200.209 141.158 199.738 C 140.793 199.267 140.237 199.031 139.49 199.031 C 138.85 199.031 138.316 199.191 137.889 199.511 C 137.463 199.831 137.125 200.143 136.876 200.445 L 136.876 210.317 L 134.714 210.317 L 134.714 197.51 L 136.689 197.51 L 136.689 198.951 L 136.742 198.951 C 136.796 198.844 136.911 198.689 137.089 198.484 C 137.267 198.279 137.498 198.084 137.783 197.897 C 138.067 197.71 138.405 197.546 138.797 197.403 C 139.188 197.261 139.633 197.19 140.131 197.19 C 140.7 197.19 141.216 197.275 141.678 197.443 C 142.141 197.612 142.532 197.884 142.852 198.257 C 143.172 198.631 143.421 199.116 143.599 199.711 C 143.777 200.307 143.866 201.041 143.866 201.912 L 143.866 210.317 L 141.705 210.317 L 141.705 210.317 Z  M 149.255 210.317 L 147.094 210.317 L 147.094 197.51 L 149.255 197.51 L 149.255 210.317 Z  M 148.188 194.415 C 147.743 194.415 147.388 194.273 147.121 193.988 C 146.854 193.704 146.721 193.33 146.721 192.868 C 146.721 192.423 146.854 192.058 147.121 191.774 C 147.388 191.489 147.743 191.347 148.188 191.347 C 148.615 191.347 148.962 191.489 149.229 191.774 C 149.495 192.058 149.629 192.423 149.629 192.868 C 149.629 193.33 149.495 193.704 149.229 193.988 C 148.962 194.273 148.615 194.415 148.188 194.415 Z  M 158.087 200.098 C 157.944 199.938 157.686 199.72 157.313 199.444 C 156.939 199.169 156.45 199.031 155.845 199.031 C 155.276 199.031 154.84 199.164 154.538 199.431 C 154.236 199.698 154.084 200.018 154.084 200.392 C 154.084 200.872 154.222 201.268 154.498 201.579 C 154.774 201.89 155.196 202.224 155.765 202.579 L 156.566 203.06 C 157.437 203.576 158.122 204.131 158.62 204.727 C 159.118 205.323 159.367 206.092 159.367 207.035 C 159.367 208.049 159.016 208.903 158.313 209.596 C 157.611 210.29 156.601 210.637 155.285 210.637 C 154.769 210.637 154.316 210.584 153.924 210.477 C 153.533 210.37 153.191 210.246 152.897 210.103 C 152.604 209.961 152.359 209.805 152.163 209.637 C 151.968 209.468 151.808 209.312 151.683 209.17 L 152.724 207.462 C 152.83 207.569 152.959 207.693 153.111 207.836 C 153.262 207.978 153.444 208.116 153.658 208.249 C 153.871 208.382 154.111 208.494 154.378 208.583 C 154.645 208.672 154.956 208.716 155.312 208.716 C 155.952 208.716 156.441 208.574 156.779 208.289 C 157.117 208.005 157.286 207.658 157.286 207.249 C 157.286 206.946 157.246 206.684 157.166 206.461 C 157.086 206.239 156.966 206.039 156.806 205.861 C 156.646 205.683 156.45 205.514 156.219 205.354 C 155.988 205.194 155.721 205.016 155.418 204.821 L 154.618 204.314 C 153.818 203.798 153.191 203.255 152.737 202.686 C 152.284 202.117 152.057 201.388 152.057 200.498 C 152.057 200.018 152.15 199.578 152.337 199.178 C 152.524 198.778 152.786 198.431 153.124 198.137 C 153.462 197.844 153.858 197.612 154.311 197.443 C 154.765 197.275 155.249 197.19 155.765 197.19 C 156.263 197.19 156.69 197.239 157.046 197.337 C 157.402 197.435 157.709 197.559 157.967 197.71 C 158.224 197.862 158.438 198.013 158.607 198.164 C 158.776 198.315 158.914 198.444 159.02 198.551 L 158.087 200.098 L 158.087 200.098 Z  M 169.026 199.991 C 168.972 199.938 168.888 199.858 168.772 199.751 C 168.656 199.645 168.51 199.538 168.332 199.431 C 168.154 199.324 167.941 199.231 167.692 199.151 C 167.442 199.071 167.158 199.031 166.838 199.031 C 166.375 199.031 165.944 199.116 165.544 199.284 C 165.144 199.453 164.797 199.725 164.503 200.098 C 164.21 200.472 163.978 200.956 163.81 201.552 C 163.641 202.148 163.556 202.873 163.556 203.727 C 163.556 204.67 163.632 205.461 163.783 206.101 C 163.934 206.742 164.143 207.253 164.41 207.635 C 164.677 208.018 165.001 208.294 165.384 208.462 C 165.766 208.631 166.188 208.716 166.651 208.716 C 167.309 208.716 167.812 208.6 168.159 208.369 C 168.505 208.138 168.75 207.951 168.892 207.809 L 169.773 209.303 C 169.684 209.41 169.555 209.539 169.386 209.69 C 169.217 209.841 168.999 209.988 168.732 210.13 C 168.465 210.272 168.141 210.392 167.758 210.49 C 167.376 210.588 166.935 210.637 166.438 210.637 C 165.726 210.637 165.059 210.521 164.436 210.29 C 163.814 210.059 163.272 209.676 162.809 209.143 C 162.346 208.609 161.982 207.916 161.715 207.062 C 161.448 206.208 161.315 205.15 161.315 203.887 C 161.315 202.66 161.475 201.619 161.795 200.765 C 162.115 199.911 162.533 199.222 163.049 198.697 C 163.565 198.173 164.139 197.79 164.77 197.55 C 165.401 197.31 166.037 197.19 166.678 197.19 C 167.158 197.19 167.58 197.234 167.945 197.323 C 168.31 197.412 168.621 197.523 168.879 197.657 C 169.137 197.79 169.35 197.933 169.519 198.084 C 169.688 198.235 169.826 198.364 169.933 198.471 L 169.026 199.991 L 169.026 199.991 Z  M 179.191 210.317 L 179.191 202.073 C 179.191 200.988 179.009 200.209 178.644 199.738 C 178.279 199.267 177.723 199.031 176.976 199.031 C 176.336 199.031 175.802 199.191 175.375 199.511 C 174.949 199.831 174.611 200.143 174.362 200.445 L 174.362 210.317 L 172.201 210.317 L 172.201 191.454 L 174.362 191.214 L 174.362 198.818 L 174.415 198.818 C 174.486 198.711 174.597 198.568 174.749 198.391 C 174.9 198.213 175.109 198.035 175.375 197.857 C 175.642 197.679 175.967 197.523 176.349 197.39 C 176.732 197.257 177.181 197.19 177.697 197.19 C 178.817 197.19 179.707 197.555 180.365 198.284 C 181.023 199.013 181.352 200.223 181.352 201.912 L 181.352 210.317 L 179.191 210.317 L 179.191 210.317 Z  M 192.798 201.832 C 192.798 202.384 192.78 202.86 192.744 203.26 C 192.709 203.66 192.673 204.011 192.638 204.314 L 186.101 204.314 C 186.172 205.826 186.497 206.937 187.075 207.649 C 187.653 208.36 188.485 208.716 189.57 208.716 C 189.943 208.716 190.281 208.672 190.583 208.583 C 190.886 208.494 191.148 208.387 191.371 208.262 C 191.593 208.138 191.779 208.013 191.931 207.889 C 192.082 207.764 192.193 207.666 192.264 207.595 L 193.065 209.116 C 192.976 209.205 192.842 209.334 192.664 209.503 C 192.487 209.672 192.247 209.841 191.944 210.01 C 191.642 210.179 191.268 210.326 190.823 210.45 C 190.379 210.575 189.854 210.637 189.249 210.637 C 188.449 210.637 187.724 210.504 187.075 210.237 C 186.426 209.97 185.874 209.556 185.421 208.996 C 184.967 208.436 184.616 207.724 184.367 206.862 C 184.118 205.999 183.993 204.963 183.993 203.753 C 183.993 202.615 184.122 201.632 184.38 200.805 C 184.638 199.978 184.989 199.298 185.434 198.764 C 185.879 198.231 186.395 197.835 186.981 197.577 C 187.568 197.319 188.2 197.19 188.876 197.19 C 190.103 197.19 191.064 197.577 191.757 198.351 C 192.451 199.124 192.798 200.285 192.798 201.832 L 192.798 201.832 Z  M 188.742 198.951 C 187.978 198.951 187.364 199.271 186.901 199.911 C 186.439 200.552 186.172 201.477 186.101 202.686 L 190.77 202.686 C 190.788 202.597 190.801 202.468 190.81 202.299 C 190.819 202.13 190.823 201.948 190.823 201.752 C 190.823 200.863 190.646 200.174 190.29 199.685 C 189.934 199.196 189.418 198.951 188.742 198.951 L 188.742 198.951 Z  M 201.202 200.098 C 201.06 199.938 200.802 199.72 200.428 199.444 C 200.055 199.169 199.566 199.031 198.961 199.031 C 198.392 199.031 197.956 199.164 197.654 199.431 C 197.351 199.698 197.2 200.018 197.2 200.392 C 197.2 200.872 197.338 201.268 197.614 201.579 C 197.889 201.89 198.312 202.224 198.881 202.579 L 199.681 203.06 C 200.553 203.576 201.238 204.131 201.736 204.727 C 202.234 205.323 202.483 206.092 202.483 207.035 C 202.483 208.049 202.132 208.903 201.429 209.596 C 200.726 210.29 199.717 210.637 198.401 210.637 C 197.885 210.637 197.431 210.584 197.04 210.477 C 196.649 210.37 196.306 210.246 196.013 210.103 C 195.719 209.961 195.475 209.805 195.279 209.637 C 195.083 209.468 194.923 209.312 194.799 209.17 L 195.839 207.462 C 195.946 207.569 196.075 207.693 196.226 207.836 C 196.378 207.978 196.56 208.116 196.773 208.249 C 196.987 208.382 197.227 208.494 197.494 208.583 C 197.76 208.672 198.072 208.716 198.427 208.716 C 199.068 208.716 199.557 208.574 199.895 208.289 C 200.233 208.005 200.402 207.658 200.402 207.249 C 200.402 206.946 200.362 206.684 200.282 206.461 C 200.202 206.239 200.082 206.039 199.922 205.861 C 199.761 205.683 199.566 205.514 199.335 205.354 C 199.103 205.194 198.837 205.016 198.534 204.821 L 197.734 204.314 C 196.933 203.798 196.306 203.255 195.853 202.686 C 195.399 202.117 195.172 201.388 195.172 200.498 C 195.172 200.018 195.266 199.578 195.453 199.178 C 195.639 198.778 195.902 198.431 196.24 198.137 C 196.578 197.844 196.973 197.612 197.427 197.443 C 197.881 197.275 198.365 197.19 198.881 197.19 C 199.379 197.19 199.806 197.239 200.162 197.337 C 200.517 197.435 200.824 197.559 201.082 197.71 C 201.34 197.862 201.554 198.013 201.723 198.164 C 201.891 198.315 202.029 198.444 202.136 198.551 L 201.202 200.098 L 201.202 200.098 Z  M 223.374 210.317 L 221.052 210.317 L 221.052 201.939 L 213.449 201.939 L 213.449 210.317 L 211.127 210.317 L 211.127 191.907 L 213.449 191.907 L 213.449 200.098 L 221.052 200.098 L 221.052 191.907 L 223.374 191.907 L 223.374 210.317 Z  M 229.297 210.317 L 227.136 210.317 L 227.136 197.51 L 229.297 197.51 L 229.297 210.317 Z  M 228.23 194.415 C 227.785 194.415 227.429 194.273 227.162 193.988 C 226.895 193.704 226.762 193.33 226.762 192.868 C 226.762 192.423 226.895 192.058 227.162 191.774 C 227.429 191.489 227.785 191.347 228.23 191.347 C 228.656 191.347 229.003 191.489 229.27 191.774 C 229.537 192.058 229.67 192.423 229.67 192.868 C 229.67 193.33 229.537 193.704 229.27 193.988 C 229.003 194.273 228.656 194.415 228.23 194.415 Z  M 234.74 207.329 C 234.74 207.862 234.815 208.236 234.966 208.449 C 235.118 208.663 235.38 208.769 235.753 208.769 C 235.949 208.769 236.114 208.752 236.247 208.716 C 236.381 208.68 236.483 208.645 236.554 208.609 L 236.741 210.21 C 236.634 210.263 236.438 210.335 236.154 210.424 C 235.869 210.513 235.487 210.557 235.006 210.557 C 234.277 210.557 233.69 210.335 233.245 209.89 C 232.801 209.445 232.578 208.654 232.578 207.515 L 232.578 191.454 L 234.74 191.214 L 234.74 207.329 L 234.74 207.329 Z  M 244.078 199.271 L 241.463 199.271 L 241.463 210.317 L 239.302 210.317 L 239.302 199.271 L 237.754 199.271 L 237.754 197.83 L 239.302 197.537 L 239.302 194.976 C 239.302 194.282 239.4 193.686 239.595 193.188 C 239.791 192.69 240.049 192.281 240.369 191.961 C 240.689 191.64 241.063 191.409 241.49 191.267 C 241.917 191.125 242.37 191.054 242.85 191.054 C 243.313 191.054 243.704 191.116 244.024 191.24 C 244.345 191.365 244.558 191.463 244.665 191.534 L 244.211 193.321 C 244.104 193.25 243.953 193.175 243.758 193.094 C 243.562 193.014 243.322 192.975 243.037 192.975 C 242.521 192.975 242.13 193.135 241.863 193.455 C 241.596 193.775 241.463 194.362 241.463 195.216 L 241.463 197.51 L 244.345 197.51 L 244.078 199.271 L 244.078 199.271 Z  M 251.628 200.098 C 251.486 199.938 251.228 199.72 250.855 199.444 C 250.481 199.169 249.992 199.031 249.387 199.031 C 248.818 199.031 248.382 199.164 248.08 199.431 C 247.777 199.698 247.626 200.018 247.626 200.392 C 247.626 200.872 247.764 201.268 248.04 201.579 C 248.315 201.89 248.738 202.224 249.307 202.579 L 250.108 203.06 C 250.979 203.576 251.664 204.131 252.162 204.727 C 252.66 205.323 252.909 206.092 252.909 207.035 C 252.909 208.049 252.558 208.903 251.855 209.596 C 251.153 210.29 250.143 210.637 248.827 210.637 C 248.311 210.637 247.857 210.584 247.466 210.477 C 247.075 210.37 246.732 210.246 246.439 210.103 C 246.146 209.961 245.901 209.805 245.705 209.637 C 245.509 209.468 245.349 209.312 245.225 209.17 L 246.266 207.462 C 246.372 207.569 246.501 207.693 246.652 207.836 C 246.804 207.978 246.986 208.116 247.199 208.249 C 247.413 208.382 247.653 208.494 247.92 208.583 C 248.187 208.672 248.498 208.716 248.854 208.716 C 249.494 208.716 249.983 208.574 250.321 208.289 C 250.659 208.005 250.828 207.658 250.828 207.249 C 250.828 206.946 250.788 206.684 250.708 206.461 C 250.628 206.239 250.508 206.039 250.348 205.861 C 250.188 205.683 249.992 205.514 249.761 205.354 C 249.53 205.194 249.263 205.016 248.96 204.821 L 248.16 204.314 C 247.359 203.798 246.732 203.255 246.279 202.686 C 245.825 202.117 245.599 201.388 245.599 200.498 C 245.599 200.018 245.692 199.578 245.879 199.178 C 246.066 198.778 246.328 198.431 246.666 198.137 C 247.004 197.844 247.4 197.612 247.853 197.443 C 248.307 197.275 248.791 197.19 249.307 197.19 C 249.805 197.19 250.232 197.239 250.588 197.337 C 250.944 197.435 251.25 197.559 251.508 197.71 C 251.766 197.862 251.98 198.013 252.149 198.164 C 252.318 198.315 252.455 198.444 252.562 198.551 L 251.628 200.098 Z  M 270.091 197.51 L 266.196 210.317 L 264.275 210.317 L 262.967 205.835 C 262.772 205.194 262.607 204.598 262.474 204.047 C 262.341 203.496 262.256 202.971 262.22 202.473 L 262.167 202.473 C 262.131 202.971 262.034 203.504 261.874 204.074 C 261.714 204.643 261.527 205.239 261.313 205.861 L 259.846 210.317 L 258.005 210.317 L 253.976 197.51 L 256.297 197.51 L 258.218 204.767 C 258.396 205.443 258.552 206.07 258.685 206.648 C 258.819 207.226 258.894 207.773 258.912 208.289 L 258.965 208.289 C 259.019 207.773 259.13 207.235 259.299 206.675 C 259.468 206.115 259.659 205.505 259.873 204.847 L 261.26 200.658 L 260.299 197.51 L 262.541 197.51 L 264.488 204.581 C 264.684 205.31 264.862 205.995 265.022 206.635 C 265.182 207.275 265.271 207.827 265.289 208.289 L 265.342 208.289 C 265.378 207.827 265.466 207.271 265.609 206.621 C 265.751 205.972 265.92 205.292 266.116 204.581 L 268.01 197.51 L 270.091 197.51 L 270.091 197.51 Z  M 280.123 201.832 C 280.123 202.384 280.105 202.86 280.07 203.26 C 280.034 203.66 279.999 204.011 279.963 204.314 L 273.426 204.314 C 273.497 205.826 273.822 206.937 274.4 207.649 C 274.978 208.36 275.81 208.716 276.895 208.716 C 277.268 208.716 277.606 208.672 277.909 208.583 C 278.211 208.494 278.473 208.387 278.696 208.262 C 278.918 208.138 279.105 208.013 279.256 207.889 C 279.407 207.764 279.518 207.666 279.589 207.595 L 280.39 209.116 C 280.301 209.205 280.167 209.334 279.99 209.503 C 279.812 209.672 279.572 209.841 279.269 210.01 C 278.967 210.179 278.593 210.326 278.149 210.45 C 277.704 210.575 277.179 210.637 276.575 210.637 C 275.774 210.637 275.049 210.504 274.4 210.237 C 273.751 209.97 273.2 209.556 272.746 208.996 C 272.292 208.436 271.941 207.724 271.692 206.862 C 271.443 205.999 271.318 204.963 271.318 203.753 C 271.318 202.615 271.447 201.632 271.705 200.805 C 271.963 199.978 272.315 199.298 272.759 198.764 C 273.204 198.231 273.72 197.835 274.307 197.577 C 274.894 197.319 275.525 197.19 276.201 197.19 C 277.428 197.19 278.389 197.577 279.083 198.351 C 279.776 199.124 280.123 200.285 280.123 201.832 L 280.123 201.832 Z  M 276.068 198.951 C 275.303 198.951 274.689 199.271 274.227 199.911 C 273.764 200.552 273.497 201.477 273.426 202.686 L 278.095 202.686 C 278.113 202.597 278.126 202.468 278.135 202.299 C 278.144 202.13 278.149 201.948 278.149 201.752 C 278.149 200.863 277.971 200.174 277.615 199.685 C 277.259 199.196 276.744 198.951 276.068 198.951 L 276.068 198.951 Z  M 288.634 199.405 C 288.581 199.369 288.465 199.324 288.287 199.271 C 288.109 199.218 287.869 199.191 287.567 199.191 C 286.891 199.191 286.362 199.373 285.98 199.738 C 285.597 200.103 285.326 200.498 285.166 200.925 L 285.166 210.317 L 283.005 210.317 L 283.005 197.51 L 284.979 197.51 L 284.979 199.244 L 285.032 199.244 C 285.121 198.995 285.237 198.751 285.379 198.511 C 285.521 198.27 285.699 198.057 285.913 197.87 C 286.126 197.684 286.38 197.537 286.673 197.43 C 286.967 197.323 287.318 197.27 287.727 197.27 C 288.029 197.27 288.274 197.297 288.461 197.35 C 288.648 197.403 288.794 197.448 288.901 197.484 L 288.634 199.405 L 288.634 199.405 Z  M 295.598 203.38 L 300 210.317 L 297.412 210.317 L 293.81 204.34 L 292.93 204.34 L 292.93 210.317 L 290.769 210.317 L 290.769 191.454 L 292.93 191.214 L 292.93 202.499 L 293.837 202.499 L 297.279 197.51 L 299.84 197.51 L 295.598 203.38 L 295.598 203.38 Z " fill="rgb(0,0,0)"/></g><g><path d=" M 31.613 181.931 C 31.674 181.429 31.709 180.911 31.709 180.382 C 31.709 180.093 31.712 179.756 31.676 179.375 C 36.144 179.312 40.063 176.093 40.063 172.391 C 40.063 170.508 38.835 169.086 38.142 168.237 C 38.297 168.203 38.454 168.167 38.613 168.129 C 39.267 168.698 41.124 170.721 41.124 173.274 C 41.124 177.716 36.685 181.839 31.613 181.931 Z  M 27.111 166.463 C 27.028 165.968 26.84 165.519 26.553 165.134 C 26.568 164.681 26.754 164.248 27.483 164.604 C 27.089 165.008 27.393 165.723 27.393 165.723 C 27.393 165.723 28.201 165.349 28.032 164.815 C 29.23 165.102 28.369 166.71 27.111 166.463 Z  M 26.073 168.743 C 25.914 168.08 25.573 167.398 25.14 166.885 C 24.746 166.418 24.093 165.864 23.214 165.864 C 22.813 165.864 22.14 166.053 21.712 166.234 C 21.553 165.943 21.241 165.241 21.241 164.925 C 21.241 164.6 21.791 164.27 22.842 164.27 C 25.156 164.27 26.537 165.315 26.537 167.068 C 26.537 167.685 26.293 168.246 26.073 168.743 Z  M 32.014 198.563 C 32.283 198.563 32.413 198.605 32.57 198.664 C 33.236 200.475 35.803 203.894 35.911 204.04 L 35.933 204.071 L 35.972 204.062 C 36.602 203.961 38.209 203.719 39.554 203.719 L 39.586 203.719 C 39.731 203.719 39.897 203.719 40.003 203.822 C 40.09 203.91 40.133 204.062 40.133 204.28 C 40.133 204.614 39.992 205.186 39.821 205.43 C 39.35 204.917 38.586 204.686 37.362 204.686 C 36.994 204.686 36.559 204.796 36.324 204.858 L 36.227 204.878 L 36.117 204.908 L 36.824 205.614 C 37.913 206.704 38.855 207.643 38.855 208.268 C 38.855 208.645 38.487 209.136 38.151 209.354 C 38.077 208.208 36.92 206.674 35.792 205.816 L 35.696 205.744 L 35.678 206.147 C 35.662 206.421 35.637 206.831 35.637 207.271 C 35.637 209.452 35.416 209.784 34.66 209.784 C 34.543 209.784 34.366 209.75 34.256 209.71 C 34.682 209.183 34.851 208.488 34.851 207.269 L 34.844 206.706 L 34.837 206.253 C 34.837 205.753 34.889 205.383 34.929 205.085 L 34.951 204.917 L 34.833 204.901 C 34.478 204.852 33.821 204.762 33.319 204.762 C 32.241 204.762 31.51 204.861 30.981 205.358 C 30.631 205.076 30.272 204.589 30.272 204.282 C 30.272 203.827 30.555 203.791 30.927 203.791 C 31.115 203.791 31.29 203.818 31.532 203.847 C 31.996 203.917 32.694 204.02 34.131 204.02 L 34.221 204.02 L 34.191 203.932 C 33.828 202.89 32.828 201.374 31.225 199.426 C 31.369 198.903 31.51 198.563 32.014 198.563 Z  M 18.172 203.932 L 18.143 204.02 L 18.232 204.02 C 19.667 204.02 20.367 203.917 20.831 203.847 C 21.073 203.818 21.248 203.791 21.436 203.791 C 21.806 203.791 22.091 203.827 22.091 204.282 C 22.091 204.589 21.732 205.076 21.385 205.358 C 20.853 204.861 20.122 204.762 19.046 204.762 C 18.542 204.762 17.883 204.852 17.531 204.901 L 17.475 204.908 L 17.412 204.917 L 17.432 205.085 C 17.475 205.383 17.526 205.753 17.526 206.253 L 17.519 206.706 L 17.513 207.269 C 17.513 208.488 17.681 209.183 18.109 209.71 C 17.997 209.75 17.82 209.784 17.703 209.784 C 16.945 209.784 16.726 209.452 16.726 207.271 C 16.726 206.831 16.703 206.421 16.688 206.147 L 16.665 205.742 L 16.571 205.816 C 15.446 206.674 14.284 208.208 14.215 209.354 C 13.876 209.136 13.508 208.645 13.508 208.268 C 13.508 207.643 14.45 206.704 15.54 205.614 L 16.246 204.908 L 16.04 204.858 C 15.804 204.796 15.369 204.686 14.999 204.686 C 13.777 204.686 13.015 204.917 12.542 205.43 C 12.372 205.186 12.23 204.614 12.23 204.28 C 12.23 204.062 12.273 203.91 12.36 203.822 C 12.466 203.719 12.632 203.719 12.777 203.719 L 12.809 203.719 C 14.154 203.719 15.764 203.961 16.392 204.062 L 16.43 204.071 L 16.452 204.04 C 16.562 203.894 19.127 200.475 19.795 198.664 C 19.948 198.605 20.08 198.563 20.349 198.563 C 20.853 198.563 20.995 198.903 21.14 199.426 C 19.535 201.374 18.535 202.89 18.172 203.932 M 11.239 173.274 C 11.239 170.721 13.098 168.698 13.753 168.129 C 13.91 168.167 14.067 168.203 14.224 168.237 C 13.529 169.086 12.3 170.508 12.3 172.391 C 12.3 176.131 16.295 179.377 20.82 179.377 C 20.791 179.698 20.775 180.034 20.775 180.382 C 20.775 180.933 20.806 181.447 20.86 181.931 C 15.744 181.9 11.239 177.747 11.239 173.274 Z  M 45.556 181.151 C 47.852 184.781 49.648 184.72 52.361 184.72 C 50.117 183 48.632 180.797 47.924 179.671 L 43.731 172.963 C 43.323 170.891 42.252 168.954 40.646 167.512 C 41.187 167.308 41.635 167.093 41.904 166.889 C 39.166 166.889 36.454 165.499 34.96 165.499 C 34.001 165.499 33.384 166.073 33.384 166.831 C 33.445 167.676 34.315 168.535 35.922 168.535 C 36.285 168.535 36.752 168.488 37.263 168.402 C 38.133 169.615 38.835 170.712 38.835 172.277 C 38.835 175.214 35.324 177.503 31.779 177.503 C 31.577 177.503 31.387 177.494 31.187 177.481 C 30.866 176.752 29.797 175.53 29.797 174.14 C 29.797 171.806 31.319 169.9 31.319 167.589 C 31.319 166.151 30.62 165.261 30.351 164.891 C 30.786 164.488 31.261 163.992 31.373 163.652 C 31.12 163.761 30.819 163.775 30.382 163.775 C 28.683 163.775 27.297 163.333 25.947 163.333 C 25.176 163.333 24.97 163.571 24.97 163.797 C 24.97 163.88 24.981 163.965 25.003 164.006 C 24.716 163.894 24.447 163.82 24.127 163.761 C 23.728 163.685 23.299 163.647 22.842 163.647 C 21.201 163.647 20.618 164.335 20.618 164.925 C 20.618 165.423 21.01 166.333 21.456 167.028 C 22.095 166.705 22.864 166.488 23.214 166.488 C 24.086 166.488 24.86 167.317 25.27 168.299 C 24.685 168.371 24.573 168.396 23.981 168.396 C 22.382 168.396 21.295 167.824 21.071 167.824 C 21.051 167.824 21.008 167.835 21.008 167.871 C 21.008 168.095 21.461 168.687 22.353 169.012 C 23.53 169.443 25.293 169.622 25.586 169.671 C 25.586 169.723 25.288 170.279 24.954 170.387 C 24.885 170.409 24.829 170.411 24.746 170.393 C 23.517 170.151 23.174 170.048 21.616 169.456 C 21.569 169.438 21.539 169.467 21.539 169.517 C 21.539 170.133 23.136 171.494 24.566 172.017 C 23.371 173.541 21.88 175.102 21.176 177.481 C 20.977 177.494 20.784 177.503 20.584 177.503 C 17.04 177.503 13.529 175.214 13.529 172.277 C 13.529 170.712 14.23 169.615 15.1 168.402 C 15.611 168.488 16.076 168.535 16.441 168.535 C 18.049 168.535 18.918 167.676 18.981 166.831 C 18.981 166.073 18.365 165.499 17.403 165.499 C 15.91 165.499 13.199 166.889 10.457 166.889 C 10.728 167.093 11.177 167.308 11.715 167.512 C 10.112 168.954 9.04 170.891 8.632 172.963 L 4.439 179.671 C 3.733 180.797 2.244 183 0 184.72 C 2.713 184.72 4.511 184.781 6.807 181.151 L 8.957 177.711 C 9.116 178.158 9.311 178.593 9.542 179.019 L 5.267 185.859 C 4.556 186.994 3.081 189.177 0.827 190.908 C 3.54 190.908 5.338 190.971 7.634 187.343 L 11.313 181.451 C 11.589 181.745 11.878 182.032 12.183 182.305 L 6.991 190.619 C 6.278 191.756 4.811 193.935 2.554 195.664 C 5.267 195.664 7.065 195.729 9.358 192.099 L 14.421 183.994 C 14.755 184.204 15.096 184.409 15.45 184.601 L 9.269 194.491 C 8.556 195.628 7.089 197.8 4.832 199.536 C 7.545 199.536 9.343 199.598 11.639 195.971 L 18.001 185.785 C 18.378 185.929 18.759 186.068 19.147 186.191 L 11.957 197.699 C 11.255 198.82 9.755 201.033 7.522 202.744 C 10.233 202.744 12.033 202.807 14.327 199.179 L 21.99 186.915 C 22.069 186.929 22.145 186.94 22.221 186.955 C 22.43 187.619 22.575 188.238 22.575 188.855 C 22.575 192.709 20.046 196.112 17.01 198.74 C 17.206 198.825 17.544 198.854 17.856 198.854 C 18.484 198.854 18.887 198.82 19.172 198.771 C 18.468 200.37 16.957 202.435 16.194 203.502 C 15.201 203.323 13.755 203.183 12.809 203.183 C 11.818 203.183 11.706 203.762 11.706 204.28 C 11.706 205.179 12.127 205.894 12.616 206.293 C 12.8 205.834 13.17 205.219 14.999 205.219 C 15.035 205.219 15.098 205.224 15.183 205.23 C 14.65 205.825 12.975 207.179 12.975 208.268 C 12.975 208.99 13.766 210.073 14.809 210.073 C 14.748 209.84 14.755 209.627 14.755 209.466 C 14.755 208.582 15.537 207.549 16.199 206.827 C 16.179 207.042 16.19 207.02 16.19 207.271 C 16.19 209.358 16.378 210.318 17.703 210.318 C 18.353 210.318 18.802 209.961 18.957 209.854 C 18.096 209.062 18.051 208.439 18.051 207.269 C 18.053 206.964 18.055 206.665 18.06 206.255 C 18.062 205.986 18.058 205.632 18.015 205.376 C 18.488 205.311 18.681 205.311 19.046 205.311 C 19.046 205.311 20.927 205.161 21.382 206.141 C 21.894 205.672 22.636 205.011 22.636 204.282 C 22.636 203.8 22.407 203.255 21.436 203.255 C 21.069 203.255 19.914 203.479 18.948 203.479 C 19.208 202.903 20.362 201.213 21.365 199.986 C 21.517 200.462 21.752 200.975 22.277 201.397 C 22.351 200.607 22.813 198.112 24.046 196.652 C 24.19 197.639 24.382 198.65 24.382 200.782 C 24.382 205.97 23.136 209.802 20.488 210.533 C 20.833 211.132 21.562 211.672 22.317 211.672 C 23.286 211.672 23.813 210.576 24.351 209.542 C 24.631 210.304 25.405 212.174 26.18 212.174 C 26.956 212.174 27.732 210.304 28.012 209.542 C 28.548 210.576 29.077 211.672 30.046 211.672 C 30.801 211.672 31.53 211.132 31.875 210.533 C 29.227 209.802 27.979 205.97 27.979 200.782 C 27.979 198.65 28.171 197.639 28.315 196.652 C 29.55 198.112 30.014 200.607 30.084 201.397 C 30.611 200.975 30.848 200.462 30.999 199.986 C 31.999 201.213 33.156 202.903 33.416 203.479 C 32.449 203.479 31.292 203.255 30.927 203.255 C 29.958 203.255 29.73 203.8 29.73 204.282 C 29.73 205.011 30.472 205.672 30.983 206.141 C 31.434 205.161 33.319 205.311 33.319 205.311 C 33.682 205.311 33.875 205.311 34.351 205.376 C 34.306 205.632 34.303 205.986 34.306 206.255 C 34.31 206.665 34.31 206.964 34.312 207.269 C 34.312 208.439 34.268 209.062 33.407 209.854 C 33.561 209.961 34.01 210.318 34.66 210.318 C 35.985 210.318 36.176 209.358 36.176 207.271 C 36.176 207.02 36.182 207.042 36.164 206.827 C 36.826 207.549 37.608 208.582 37.608 209.466 C 37.608 209.627 37.617 209.84 37.552 210.073 C 38.597 210.073 39.391 208.99 39.391 208.268 C 39.391 207.179 37.716 205.825 37.178 205.23 C 37.265 205.224 37.328 205.219 37.362 205.219 C 39.193 205.219 39.563 205.834 39.747 206.293 C 40.236 205.894 40.657 205.179 40.657 204.28 C 40.657 203.762 40.545 203.183 39.554 203.183 C 38.608 203.183 37.164 203.323 36.169 203.502 C 35.404 202.435 33.898 200.37 33.191 198.771 C 33.476 198.82 33.882 198.854 34.507 198.854 C 34.821 198.854 35.158 198.825 35.353 198.74 C 32.317 196.112 29.788 192.709 29.788 188.855 C 29.788 188.238 29.934 187.619 30.142 186.955 C 30.216 186.94 30.297 186.929 30.373 186.915 L 38.036 199.179 C 40.33 202.807 42.13 202.744 44.841 202.744 C 42.608 201.033 41.108 198.82 40.406 197.699 L 33.214 186.191 C 33.604 186.068 33.987 185.929 34.364 185.785 L 40.725 195.971 C 43.021 199.598 44.819 199.536 47.532 199.536 C 45.274 197.8 43.808 195.628 43.095 194.491 L 36.915 184.601 C 37.265 184.409 37.608 184.204 37.94 183.994 L 43.005 192.099 C 45.301 195.729 47.097 195.664 49.81 195.664 C 47.552 193.935 46.088 191.756 45.373 190.619 L 40.18 182.305 C 40.485 182.032 40.776 181.745 41.048 181.451 L 44.731 187.343 C 47.025 190.971 48.823 190.908 51.536 190.908 C 49.28 189.177 47.81 186.994 47.097 185.859 L 42.823 179.019 C 43.052 178.593 43.247 178.158 43.408 177.711 L 45.556 181.151 Z " fill="rgb(0,0,0)"/><path d=" M 73.824 210.318 L 65.977 210.318 L 65.977 165.477 L 73.824 165.477 L 73.824 210.318 Z " fill="rgb(0,0,0)"/><path d=" M 73.824 255.159 L 65.977 255.159 L 65.977 210.318 L 73.824 210.318 L 73.824 255.159 Z " fill="rgb(255,0,0)"/><path d=" M 73.824 300 L 65.977 300 L 65.977 255.159 L 73.824 255.159 L 73.824 300 Z " fill="rgb(255,204,0)"/></g></g></g></svg>