<?xml version="1.0" encoding="UTF-8" standalone="no"?>
<!-- Created with Inkscape (http://www.inkscape.org/) -->
<svg
   xmlns:dc="http://purl.org/dc/elements/1.1/"
   xmlns:cc="http://web.resource.org/cc/"
   xmlns:rdf="http://www.w3.org/1999/02/22-rdf-syntax-ns#"
   xmlns:svg="http://www.w3.org/2000/svg"
   xmlns="http://www.w3.org/2000/svg"
   xmlns:sodipodi="http://sodipodi.sourceforge.net/DTD/sodipodi-0.dtd"
   xmlns:inkscape="http://www.inkscape.org/namespaces/inkscape"
   width="600"
   height="220"
   id="svg2"
   sodipodi:version="0.32"
   inkscape:version="0.45pre1"
   sodipodi:docbase="T:\gallery_thw\thw_thiemoschuff\symbole"
   sodipodi:docname="thw_dienststellungskennzeichen_helfer.svg"
   inkscape:output_extension="org.inkscape.output.svg.inkscape"
   version="1.0"
   sodipodi:modified="true">
  <defs
     id="defs4" />
  <sodipodi:namedview
     id="base"
     pagecolor="#ffffff"
     bordercolor="#666666"
     borderopacity="1.0"
     inkscape:pageopacity="0.0"
     inkscape:pageshadow="2"
     inkscape:zoom="0.98994949"
     inkscape:cx="368.76369"
     inkscape:cy="-21.02247"
     inkscape:document-units="px"
     inkscape:current-layer="layer1"
     inkscape:window-width="1920"
     inkscape:window-height="1120"
     inkscape:window-x="0"
     inkscape:window-y="44"
     showborder="true"
     borderlayer="false" />
  <metadata
     id="metadata7">
    <rdf:RDF>
      <cc:Work
         rdf:about="">
        <dc:format>image/svg+xml</dc:format>
        <dc:type
           rdf:resource="http://purl.org/dc/dcmitype/StillImage" />
      </cc:Work>
    </rdf:RDF>
  </metadata>
  <g
     inkscape:label="Ebene 1"
     inkscape:groupmode="layer"
     id="layer1"
     transform="translate(-183.29895,-314.27568)">
    <rect
       style="fill:#003399;fill-opacity:1;fill-rule:evenodd;stroke:#003399;stroke-width:30;stroke-linecap:round;stroke-linejoin:round;stroke-miterlimit:4;stroke-dasharray:none;stroke-opacity:1"
       id="rect3274"
       width="570"
       height="120"
       x="198.29895"
       y="364.27567" />
    <rect
       style="fill:#0080ff;fill-opacity:1;fill-rule:evenodd;stroke:#007dff;stroke-width:20;stroke-linecap:round;stroke-linejoin:round;stroke-miterlimit:4;stroke-dasharray:none;stroke-opacity:1"
       id="rect2291"
       width="550"
       height="95"
       x="208.29895"
       y="376.77567" />
    <path
       sodipodi:type="arc"
       style="fill:#003399;fill-opacity:1;fill-rule:evenodd;stroke:#003399;stroke-width:0;stroke-miterlimit:4;stroke-dasharray:none;stroke-opacity:1"
       id="path2287"
       sodipodi:cx="350.52292"
       sodipodi:cy="486.17169"
       sodipodi:rx="41.416256"
       sodipodi:ry="41.416256"
       d="M 391.93917 486.17169 A 41.416256 41.416256 0 1 1  309.10666,486.17169 A 41.416256 41.416256 0 1 1  391.93917 486.17169 z"
       transform="matrix(2.655962,0,0,2.655962,-447.6766,-866.97786)" />
    <rect
       style="opacity:1;fill:#003399;fill-opacity:1;fill-rule:evenodd;stroke:#003399;stroke-width:0;stroke-linecap:round;stroke-linejoin:round;stroke-miterlimit:4;stroke-dasharray:none;stroke-opacity:1"
       id="rect6203"
       width="199.99998"
       height="130"
       x="383.29895"
       y="359.27567" />
    <rect
       style="opacity:1;fill:#003399;fill-opacity:1;fill-rule:evenodd;stroke:#003399;stroke-width:10;stroke-linecap:round;stroke-linejoin:round;stroke-miterlimit:4;stroke-dasharray:none;stroke-opacity:1"
       id="rect9120"
       width="545"
       height="90"
       x="210.79895"
       y="379.27567" />
    <g
       style="fill:#0080ff;fill-opacity:1"
       id="g6397"
       transform="matrix(1.7906546,0,0,1.7995159,-403.50573,-900.93372)">
      <g
         id="g6150"
         stroke-miterlimit="10"
         style="fill:#0080ff;fill-opacity:1;fill-rule:nonzero;stroke-width:0;stroke-linecap:butt;stroke-linejoin:miter;stroke-miterlimit:10">
        <path
           id="path6152"
           d="M 530.852,737.922 L 530.68,740.16 L 530.367,742.43 L 529.918,744.633 L 529.328,746.836 L 528.602,749.004 L 527.738,751.141 L 526.699,753.203 L 525.559,755.199 L 524.246,757.164 L 522.793,759.02 L 521.199,760.809 L 519.473,762.496 L 517.57,764.082 L 515.563,765.594 L 513.383,766.973 L 506.949,777.641 L 502.973,771.066 L 502.039,771.238 L 501.07,771.41 L 500.102,771.582 L 499.133,771.688 L 498.164,771.789 L 497.195,771.859 L 496.227,771.895 L 495.258,771.895 L 494.254,771.895 L 493.285,771.859 L 492.316,771.789 L 491.348,771.688 L 490.379,771.582 L 489.414,771.41 L 488.445,771.238 L 487.512,771.066 L 483.531,777.641 L 477.098,766.973 L 474.953,765.594 L 472.914,764.082 L 471.012,762.496 L 469.281,760.809 L 467.691,759.02 L 466.238,757.164 L 464.922,755.199 L 463.781,753.203 L 462.742,751.141 L 461.879,749.004 L 461.152,746.836 L 460.563,744.633 L 460.113,742.43 L 459.805,740.16 L 459.629,737.922 L 459.629,735.648 L 459.734,733.379 L 460.012,731.141 L 460.391,728.902 L 460.945,726.699 L 461.637,724.531 L 462.469,722.398 L 463.434,720.332 L 464.543,718.301 L 465.789,716.34 L 467.207,714.48 L 468.727,712.656 L 470.387,710.973 L 472.223,709.352 L 474.16,707.84 L 476.27,706.43 L 478.48,705.152 L 478.48,697.273 L 512,697.273 L 512,705.152 L 514.25,706.43 L 516.324,707.84 L 518.262,709.352 L 520.094,710.973 L 521.754,712.656 L 523.277,714.48 L 524.695,716.34 L 525.938,718.301 L 527.047,720.332 L 528.016,722.398 L 528.844,724.531 L 529.535,726.699 L 530.09,728.902 L 530.473,731.141 L 530.75,733.379 L 530.887,735.648 L 530.852,737.922 z M 551.016,733.793 L 550.949,732.449 L 550.844,731.141 L 539.324,729.215 L 539.152,728.145 L 538.91,727.043 L 538.668,725.977 L 538.391,724.91 L 538.078,723.879 L 537.77,722.813 L 537.422,721.777 L 537.043,720.746 L 546.035,713.348 L 545.484,712.141 L 544.895,710.973 L 544.273,709.801 L 543.613,708.629 L 542.922,707.496 L 542.23,706.395 L 541.504,705.293 L 540.746,704.191 L 529.813,708.254 L 529.086,707.391 L 528.359,706.566 L 527.602,705.773 L 526.84,704.98 L 526.043,704.227 L 525.25,703.469 L 524.418,702.746 L 523.551,702.023 L 527.633,691.145 L 526.563,690.387 L 525.422,689.664 L 524.313,688.977 L 523.172,688.289 L 521.996,687.637 L 520.82,687.016 L 519.645,686.43 L 518.434,685.879 L 510.996,694.828 L 509.961,694.449 L 508.922,694.105 L 507.848,693.797 L 506.813,693.484 L 505.738,693.211 L 504.668,692.969 L 503.594,692.762 L 502.488,692.559 L 500.551,681.094 L 499.234,680.992 L 497.887,680.922 L 496.574,680.855 L 495.258,680.855 L 493.91,680.855 L 492.594,680.922 L 491.246,680.992 L 489.93,681.094 L 487.992,692.559 L 486.922,692.762 L 485.816,692.969 L 484.742,693.211 L 483.672,693.484 L 482.633,693.797 L 481.563,694.105 L 480.523,694.449 L 479.484,694.828 L 472.047,685.879 L 470.836,686.43 L 469.66,687.016 L 468.484,687.637 L 467.309,688.289 L 466.168,688.977 L 465.063,689.664 L 463.953,690.387 L 462.848,691.145 L 466.93,702.023 L 466.066,702.746 L 465.234,703.469 L 464.438,704.227 L 463.645,704.98 L 462.883,705.773 L 462.121,706.566 L 461.395,707.391 L 460.703,708.254 L 449.738,704.191 L 448.977,705.293 L 448.25,706.395 L 447.559,707.496 L 446.867,708.629 L 446.211,709.801 L 445.586,710.973 L 445,712.141 L 444.445,713.348 L 453.438,720.746 L 453.059,721.777 L 452.711,722.813 L 452.402,723.879 L 452.09,724.91 L 451.813,725.977 L 451.57,727.043 L 451.363,728.145 L 451.156,729.215 L 439.637,731.141 L 439.535,732.449 L 439.465,733.793 L 439.43,735.098 L 439.395,736.441 L 439.43,737.75 L 439.465,739.059 L 439.535,740.398 L 439.637,741.707 L 451.156,743.637 L 451.363,744.738 L 451.57,745.805 L 451.813,746.871 L 452.09,747.938 L 452.402,749.004 L 452.711,750.039 L 453.059,751.07 L 453.438,752.102 L 444.445,759.504 L 445,760.707 L 445.586,761.879 L 446.211,763.047 L 446.867,764.219 L 447.559,765.355 L 448.25,766.457 L 448.977,767.59 L 449.738,768.656 L 460.703,764.598 L 461.395,765.457 L 462.121,766.281 L 462.883,767.074 L 463.645,767.867 L 464.438,768.625 L 465.234,769.383 L 466.066,770.105 L 466.93,770.828 L 462.848,781.703 L 463.953,782.461 L 465.063,783.184 L 466.168,783.871 L 467.309,784.559 L 468.484,785.215 L 469.66,785.832 L 470.836,786.418 L 472.047,786.969 L 479.484,778.019 L 480.523,778.398 L 481.563,778.742 L 482.633,779.086 L 483.672,779.363 L 484.742,779.637 L 485.816,779.879 L 486.922,780.121 L 487.992,780.293 L 489.93,791.754 L 491.246,791.855 L 492.594,791.926 L 493.91,791.996 L 495.258,791.996 L 496.574,791.996 L 497.887,791.926 L 499.234,791.855 L 500.551,791.754 L 502.488,780.293 L 503.594,780.121 L 504.668,779.879 L 505.738,779.637 L 506.813,779.363 L 507.848,779.086 L 508.922,778.742 L 509.961,778.398 L 510.996,778.019 L 518.434,786.969 L 519.645,786.418 L 520.82,785.832 L 521.996,785.215 L 523.172,784.559 L 524.313,783.871 L 525.422,783.184 L 526.563,782.461 L 527.633,781.703 L 523.551,770.828 L 524.418,770.105 L 525.25,769.383 L 526.043,768.625 L 526.84,767.867 L 527.602,767.074 L 528.359,766.281 L 529.086,765.457 L 529.813,764.598 L 540.746,768.656 L 541.504,767.59 L 542.23,766.457 L 542.922,765.355 L 543.613,764.219 L 544.273,763.047 L 544.895,761.879 L 545.484,760.707 L 546.035,759.504 L 537.043,752.102 L 537.422,751.07 L 537.77,750.039 L 538.078,749.004 L 538.391,747.938 L 538.668,746.871 L 538.91,745.805 L 539.152,744.738 L 539.324,743.637 L 550.844,741.707 L 550.949,740.398 L 551.016,739.059 L 551.086,737.75 L 551.086,736.441 L 551.086,735.098 L 551.016,733.793"
           style="fill:#0080ff;fill-opacity:1" />
      </g>
      <g
         id="g6154"
         stroke-miterlimit="10"
         style="fill:#0080ff;fill-opacity:1;fill-rule:evenodd;stroke-width:0;stroke-linecap:butt;stroke-linejoin:miter;stroke-miterlimit:10">
        <path
           id="path6156"
           d="M 510.41,698.855 L 480.109,698.855 L 480.109,706.805 L 487.543,706.805 L 487.543,705.188 L 491.523,705.188 L 491.523,720.023 L 489.93,720.023 L 489.93,726.391 L 500.551,726.391 L 500.551,720.023 L 498.961,720.023 L 498.961,705.223 L 502.973,705.223 L 502.973,706.805 L 510.41,706.805 L 510.41,698.855"
           style="fill:#0080ff;fill-opacity:1" />
      </g>
      <g
         id="g6158"
         stroke-miterlimit="10"
         style="fill:#0080ff;fill-opacity:1;fill-rule:evenodd;stroke-width:0;stroke-linecap:butt;stroke-linejoin:miter;stroke-miterlimit:10">
        <path
           id="path6160"
           d="M 478.758,711.039 L 478.758,717.406 L 480.383,717.406 L 480.383,742.809 L 478.758,742.773 L 478.758,749.141 L 489.414,749.141 L 489.414,742.773 L 487.82,742.773 L 487.82,736.441 L 502.695,736.441 L 502.695,742.773 L 501.105,742.773 L 501.105,749.141 L 511.723,749.141 L 511.723,742.773 L 510.133,742.773 L 510.133,717.375 L 511.723,717.406 L 511.723,711.039 L 501.105,711.039 L 501.105,717.406 L 502.695,717.406 L 502.695,730.074 L 487.82,730.074 L 487.82,717.406 L 489.414,717.406 L 489.414,711.039 L 478.758,711.039"
           style="fill:#0080ff;fill-opacity:1" />
      </g>
      <g
         id="g6162"
         stroke-miterlimit="10"
         style="fill:#0080ff;fill-opacity:1;fill-rule:evenodd;stroke-width:0;stroke-linecap:butt;stroke-linejoin:miter;stroke-miterlimit:10">
        <path
           id="path6164"
           d="M 495.258,755.133 L 506.949,774.508 L 522.273,749.109 L 526.078,749.109 L 526.078,742.773 L 513.348,742.773 L 513.348,749.109 L 514.836,749.109 L 506.949,762.188 L 495.223,742.773 L 483.531,762.188 L 475.68,749.109 L 477.168,749.109 L 477.168,742.773 L 464.402,742.773 L 464.402,749.109 L 468.242,749.109 L 483.566,774.508 L 495.258,755.133"
           style="fill:#0080ff;fill-opacity:1" />
      </g>
    </g>
  </g>
</svg>
