<?xml version="1.0" encoding="utf-8"?>
<!DOCTYPE svg PUBLIC "-//W3C//DTD SVG 1.1//EN" "http://www.w3.org/Graphics/SVG/1.1/DTD/svg11.dtd">
<svg version="1.1" id="Layer_1" xmlns="http://www.w3.org/2000/svg" xmlns:xlink="http://www.w3.org/1999/xlink" x="0px" y="0px"
	 width="566.93px" height="122px" viewBox="0 0 566.93 122" enable-background="new 0 0 566.93 122" xml:space="preserve">
<g>
	<path fill="#203C89" d="M32.969,20.87v-6.13h-4.948v27.454h4.614v9.795H11.64v-9.795h4.613V14.739h-4.747v6.13H2.212V4.411h39.984
		V20.87H32.969z"/>
	<path fill="#203C89" d="M79.706,37.995H52.96c1.738,3.798,5.148,5.73,8.826,5.73c2.474,0,4.68-0.8,6.218-2.465h10.832
		c-2.942,7.063-9.495,11.861-17.05,11.861c-10.164,0-18.99-7.863-18.99-19.058c0-10.928,8.492-19.058,18.722-19.058
		c9.896,0,18.722,7.663,18.722,18.791C80.24,35.529,79.973,36.862,79.706,37.995z M61.385,24.334c-3.611,0-7.087,2.199-8.492,5.931
		h17.585C68.74,26.201,65.129,24.334,61.385,24.334z"/>
	<path fill="#203C89" d="M102.704,53.121c-10.097,0-18.923-8.33-18.923-19.125c0-10.662,8.492-19.058,18.053-19.058
		c3.41,0,6.219,1.266,8.692,3.798v-2.666h8.96v12.927h-9.896c-1.738-2.199-3.811-3.665-6.887-3.665
		c-4.681,0-8.158,3.932-8.158,8.729c0,4.931,3.745,8.663,8.492,8.663c2.608,0,4.881-1.133,6.152-3.332h11.768
		C118.283,48.19,110.393,53.121,102.704,53.121z"/>
	<path fill="#203C89" d="M150.978,51.988V33.331c0-3.798-0.668-7.597-5.884-7.597c-3.41,0-6.219,1.933-6.219,7.197v9.262h3.812
		v9.795h-18.254v-9.795h3.811V14.206h-3.811V4.411h14.442v16.393c2.34-3.599,5.684-5.464,9.896-5.464
		c7.288,0,12.838,5.797,12.838,15.459v11.395h3.745v9.795H150.978z"/>
	<path fill="#203C89" d="M196.108,51.988v-20.19c0-4.198-2.073-6.064-5.617-6.064c-6.018,0-6.419,4.531-6.419,8.33v8.129h3.745
		v9.795H169.63v-9.795h3.811V25.801h-3.811v-9.729h14.442v4.665c2.073-3.532,5.416-5.397,9.628-5.397
		c5.817,0,10.631,3.199,12.37,7.93c0.602,1.599,0.669,3.598,0.669,5.531v13.394h3.811v9.795H196.108z"/>
	<path fill="#203C89" d="M214.827,51.988v-9.795h3.811V25.801h-3.811v-9.729h14.442v26.121h3.745v9.795H214.827z M218.638,14.206
		V4.411h10.631v9.795H218.638z"/>
	<path fill="#203C89" d="M254.274,52.788c-4.948,0-7.288-1.533-9.16-3.065v2.266h-7.288V41.66h10.163
		c0.401,2.466,1.805,3.532,4.48,3.532c2.273,0,3.611-1.133,3.611-2.865c0-2.532-2.541-3.132-9.628-5.064
		c-5.884-1.599-9.495-5.397-9.495-10.662c0-6.33,5.216-11.328,13.105-11.328c4.748,0,6.486,1.666,7.756,2.865v-2.199h7.021v10.396
		h-9.628c-0.2-2.066-1.471-3.199-3.61-3.199c-1.939,0-3.41,1.066-3.41,2.599c0,5.731,19.123,1.799,19.123,15.526
		C267.313,47.657,262.365,52.788,254.274,52.788z"/>
	<path fill="#203C89" d="M289.643,53.121c-10.096,0-18.922-8.33-18.922-19.125c0-10.662,8.492-19.058,18.053-19.058
		c3.41,0,6.219,1.266,8.692,3.798v-2.666h8.96v12.927h-9.896c-1.739-2.199-3.812-3.665-6.888-3.665c-4.68,0-8.157,3.932-8.157,8.729
		c0,4.931,3.744,8.663,8.492,8.663c2.607,0,4.881-1.133,6.151-3.332h11.768C305.223,48.19,297.332,53.121,289.643,53.121z"/>
	<path fill="#203C89" d="M337.917,51.988V33.331c0-3.798-0.669-7.597-5.884-7.597c-3.41,0-6.219,1.933-6.219,7.197v9.262h3.812
		v9.795h-18.254v-9.795h3.812V14.206h-3.812V4.411h14.442v16.393c2.341-3.599,5.684-5.464,9.896-5.464
		c7.288,0,12.838,5.797,12.838,15.459v11.395h3.744v9.795H337.917z"/>
	<path fill="#203C89" d="M392.675,37.995H365.93c1.738,3.798,5.148,5.73,8.826,5.73c2.474,0,4.681-0.8,6.218-2.465h10.832
		c-2.941,7.063-9.494,11.861-17.05,11.861c-10.163,0-18.989-7.863-18.989-19.058c0-10.928,8.491-19.058,18.722-19.058
		c9.896,0,18.722,7.663,18.722,18.791C393.21,35.529,392.942,36.862,392.675,37.995z M374.354,24.334
		c-3.61,0-7.088,2.199-8.492,5.931h17.586C381.71,26.201,378.099,24.334,374.354,24.334z"/>
	<path fill="#203C89" d="M413.935,52.788c-4.948,0-7.288-1.533-9.16-3.065v2.266h-7.288V41.66h10.163
		c0.401,2.466,1.806,3.532,4.479,3.532c2.273,0,3.611-1.133,3.611-2.865c0-2.532-2.541-3.132-9.629-5.064
		c-5.884-1.599-9.494-5.397-9.494-10.662c0-6.33,5.215-11.328,13.105-11.328c4.747,0,6.485,1.666,7.756,2.865v-2.199h7.021v10.396
		h-9.628c-0.201-2.066-1.472-3.199-3.611-3.199c-1.938,0-3.41,1.066-3.41,2.599c0,5.731,19.124,1.799,19.124,15.526
		C426.974,47.657,422.025,52.788,413.935,52.788z"/>
	<path fill="#203C89" d="M136.137,118.221v-9.796h4.613v-8.796h-15.044v8.796h4.614v9.796h-20.995v-9.796h4.613V80.438h-4.613
		v-9.795h20.995v9.795h-4.614v8.129h15.044v-8.129h-4.613v-9.795h20.995v9.795h-4.614v27.987h4.614v9.796H136.137z"/>
	<path fill="#203C89" d="M162.209,118.221v-9.796h3.811V92.033h-3.811v-9.729h14.442v26.121h3.745v9.796H162.209z M166.021,80.438
		v-9.795h10.631v9.795H166.021z"/>
	<path fill="#203C89" d="M184.941,118.221v-9.796h3.811V80.438h-3.811v-9.795h14.442v37.782h3.812v9.796H184.941z"/>
	<path fill="#203C89" d="M222.383,92.033v16.392h3.745v9.796H207.94v-9.796h3.811V92.033h-3.811v-9.729h3.811
		c0.468-10.262,5.684-13.327,15.111-13.327v9.262c-0.268-0.067-0.535-0.067-0.936-0.067c-2.675,0-3.477,1.666-3.544,4.131h4.48
		v9.729H222.383z"/>
	<path fill="#203C89" d="M248.658,119.02c-4.948,0-7.288-1.532-9.16-3.064v2.266h-7.288v-10.329h10.163
		c0.401,2.466,1.805,3.532,4.48,3.532c2.273,0,3.611-1.133,3.611-2.865c0-2.533-2.541-3.133-9.628-5.064
		c-5.884-1.6-9.495-5.398-9.495-10.662c0-6.33,5.216-11.328,13.105-11.328c4.748,0,6.486,1.666,7.756,2.865V82.17h7.021v10.396
		h-9.628c-0.2-2.066-1.471-3.199-3.61-3.199c-1.939,0-3.41,1.066-3.41,2.599c0,5.731,19.123,1.8,19.123,15.526
		C261.696,113.889,256.749,119.02,248.658,119.02z"/>
	<path fill="#203C89" d="M315.051,92.033l-8.826,26.188h-9.962l-5.684-18.791l-6.888,18.791h-9.561l-7.288-26.188h-3.544v-9.729
		h16.917v9.729h-3.009l3.009,11.395l6.419-21.124h8.626l6.151,21.124l3.276-11.395h-3.009v-9.729h17.451v9.729H315.051z"/>
	<path fill="#203C89" d="M357.84,104.227h-26.745c1.738,3.799,5.148,5.73,8.826,5.73c2.474,0,4.681-0.799,6.218-2.465h10.832
		c-2.941,7.062-9.494,11.861-17.05,11.861c-10.163,0-18.989-7.863-18.989-19.059c0-10.928,8.491-19.057,18.722-19.057
		c9.896,0,18.722,7.663,18.722,18.792C358.375,101.762,358.107,103.094,357.84,104.227z M339.52,90.566
		c-3.61,0-7.088,2.199-8.492,5.931h17.586C346.875,92.433,343.264,90.566,339.52,90.566z"/>
	<path fill="#203C89" d="M377.161,101.762v6.663h3.744v9.796h-18.188v-9.796h3.812V92.033h-3.812v-9.729h13.507v5.397
		c2.942-4.398,5.817-5.597,10.23-5.93v10.861C380.438,92.965,377.161,96.164,377.161,101.762z"/>
	<path fill="#203C89" d="M416.141,118.221l-12.236-16.06v16.06h-14.442v-9.796h3.812V80.438h-3.812v-9.795h14.442V98.43l6.687-7.396
		h-3.075v-8.729h18.722v9.729h-3.478l-7.622,7.93l7.622,8.462h5.082v9.796H416.141z"/>
</g>
<g id="thw-logo" transform="translate(-109.88407,434.92474)" >
	<g id="layer1-0" transform="matrix(7.1720425,0,0,7.1980267,-3304.0405,-681.10409)">
		<g id="g6068" transform="translate(36.594136,-646.6532)">
			<g id="g6397">
				<g id="thw-logo-zahnrad">
						<path id="path6152" fill="#203C89" d="
						M512.819,693.746c-0.304,0.504-0.608,1.008-0.912,1.512c-0.188-0.311-0.375-0.621-0.563-0.932c-0.72,0.158-1.471,0.158-2.191,0
						c-0.188,0.311-0.376,0.621-0.564,0.932c-0.321-0.507-0.603-1.052-0.949-1.536c-1.562-0.904-2.53-2.704-2.434-4.504
						c0.042-1.759,1.106-3.428,2.667-4.232c0-0.372,0-0.744,0-1.117c1.584,0,3.167,0,4.75,0c0,0.372,0,0.744,0,1.117
						c1.576,0.807,2.633,2.498,2.673,4.267C515.359,691.466,514.272,692.865,512.819,693.746L512.819,693.746z M518.125,688.624
						c-0.334-0.055-0.998-0.114-1.63-0.228c-0.065-0.41-0.179-0.811-0.323-1.2c0.425-0.35,0.849-0.699,1.274-1.048
						c-0.202-0.458-0.463-0.888-0.75-1.298c-0.516,0.192-1.033,0.384-1.549,0.576c-0.266-0.322-0.563-0.619-0.888-0.883
						c0.193-0.514,0.386-1.028,0.579-1.542c-0.41-0.288-0.846-0.542-1.303-0.746c-0.351,0.423-0.703,0.845-1.054,1.268
						c-0.391-0.145-0.794-0.254-1.206-0.321c-0.091-0.542-0.183-1.083-0.274-1.625c-0.501-0.045-1.005-0.045-1.505,0
						c-0.092,0.542-0.183,1.083-0.275,1.625c-0.411,0.068-0.815,0.176-1.205,0.321c-0.351-0.423-0.703-0.845-1.054-1.268
						c-0.459,0.203-0.892,0.46-1.303,0.746c0.193,0.514,0.386,1.028,0.578,1.542c-0.321,0.266-0.623,0.556-0.882,0.883
						c-0.518-0.192-1.036-0.384-1.554-0.576c-0.288,0.409-0.547,0.84-0.75,1.298c0.425,0.349,0.85,0.699,1.274,1.048
						c-0.146,0.388-0.254,0.791-0.323,1.2c-0.544,0.091-1.089,0.182-1.633,0.273c-0.043,0.498-0.043,0.999,0,1.497
						c0.544,0.091,1.088,0.182,1.633,0.273c0.069,0.409,0.176,0.812,0.323,1.2c-0.425,0.35-0.849,0.699-1.274,1.049
						c0.205,0.456,0.461,0.889,0.75,1.297c0.518-0.192,1.036-0.383,1.554-0.575c0.26,0.326,0.561,0.618,0.882,0.883
						c-0.193,0.514-0.386,1.027-0.578,1.541c0.411,0.286,0.844,0.544,1.303,0.746c0.351-0.423,0.703-0.846,1.054-1.268
						c0.39,0.146,0.794,0.256,1.205,0.322c0.092,0.541,0.183,1.083,0.275,1.624c0.501,0.046,1.004,0.046,1.505,0
						c0.091-0.541,0.183-1.083,0.274-1.624c0.411-0.066,0.816-0.176,1.206-0.322c0.351,0.422,0.703,0.845,1.054,1.268
						c0.458-0.204,0.894-0.458,1.303-0.746c-0.193-0.514-0.386-1.027-0.579-1.541c0.324-0.264,0.621-0.561,0.888-0.883
						c0.516,0.192,1.033,0.383,1.549,0.575c0.289-0.408,0.546-0.84,0.75-1.297c-0.425-0.35-0.85-0.699-1.274-1.049
						c0.144-0.389,0.258-0.79,0.323-1.2c0.544-0.091,1.088-0.182,1.633-0.273C518.152,689.72,518.146,688.919,518.125,688.624z"/>
				</g>
				<g id="thw-logo-t">
					<path id="path6156" fill="#203C89" d="M512.398,684.094h-4.294v1.126h1.053v-0.229h0.564
						v2.102h-0.226v0.902h1.505v-0.902h-0.225v-2.097h0.569v0.224h1.054V684.094"/>
				</g>
        <g id="thw-logo-h">
					<path id="path6160" fill="#203C89" d="M507.913,685.82v0.902h0.23v3.6l-0.23-0.005v0.903
						h1.51v-0.903h-0.226v-0.897h2.108v0.897h-0.225v0.903h1.505v-0.903h-0.225v-3.599l0.225,0.004v-0.902h-1.505v0.902h0.225v1.795
						h-2.108v-1.795h0.226v-0.902H507.913"/>
				</g>
				<g id="thw-logo-w">
					<path id="path6164" fill="#203C89" d="M510.251,692.068l1.657,2.746l2.172-3.599h0.539
						v-0.898h-1.804v0.898h0.211l-1.118,1.853l-1.661-2.751l-1.657,2.751l-1.112-1.853h0.211v-0.898h-1.809v0.898h0.544l2.172,3.599
						L510.251,692.068"/>
				</g>
			</g>
		</g>
	</g>
</g>
</svg>
