<?xml version="1.0" encoding="UTF-8" standalone="no"?>
<!-- Created with Inkscape (http://www.inkscape.org/) -->

<svg
   xmlns:dc="http://purl.org/dc/elements/1.1/"
   xmlns:cc="http://creativecommons.org/ns#"
   xmlns:rdf="http://www.w3.org/1999/02/22-rdf-syntax-ns#"
   xmlns:svg="http://www.w3.org/2000/svg"
   xmlns="http://www.w3.org/2000/svg"
   xmlns:sodipodi="http://sodipodi.sourceforge.net/DTD/sodipodi-0.dtd"
   xmlns:inkscape="http://www.inkscape.org/namespaces/inkscape"
   width="800"
   height="800"
   id="svg2"
   version="1.1"
   inkscape:version="0.48.4 r9939"
   sodipodi:docname="THW_invers.svg">
  <defs
     id="defs4">
    <inkscape:path-effect
       effect="interpolate"
       id="path-effect3132"
       is_visible="true"
       trajectory="m 398.05786,317.99682 -0.0218,-1.29047"
       equidistant_spacing="true"
       steps="5" />
    <inkscape:path-effect
       effect="curvestitching"
       id="path-effect3130"
       is_visible="true"
       count="5"
       startpoint_edge_variation="0;1"
       startpoint_spacing_variation="0;1"
       endpoint_edge_variation="0;1"
       endpoint_spacing_variation="0;1"
       strokepath="m 328.22916,316.70635 139.61375,0"
       prop_scale="1"
       scale_y_rel="false" />
    <clipPath
       id="clipPath3020"
       clipPathUnits="userSpaceOnUse">
      <path
         id="path3022"
         d="m 0,0 5510.88,0 0,1113 L 0,1113 0,0 z"
         inkscape:connector-curvature="0" />
    </clipPath>
  </defs>
  <sodipodi:namedview
     id="base"
     pagecolor="#ffffff"
     bordercolor="#666666"
     borderopacity="1.0"
     inkscape:pageopacity="0.0"
     inkscape:pageshadow="2"
     inkscape:zoom="0.47152899"
     inkscape:cx="221.79475"
     inkscape:cy="686.0149"
     inkscape:document-units="px"
     inkscape:current-layer="layer1"
     showgrid="false"
     inkscape:window-width="1136"
     inkscape:window-height="888"
     inkscape:window-x="44"
     inkscape:window-y="44"
     inkscape:window-maximized="0"
     showborder="true" />
  <metadata
     id="metadata7">
    <rdf:RDF>
      <cc:Work
         rdf:about="">
        <dc:format>image/svg+xml</dc:format>
        <dc:type
           rdf:resource="http://purl.org/dc/dcmitype/StillImage" />
      </cc:Work>
    </rdf:RDF>
  </metadata>
  <g
     inkscape:label="Ebene 1"
     inkscape:groupmode="layer"
     id="layer1"
     transform="translate(0,-252.36218)">
    <g
       id="g3189"
       transform="translate(27.952759,126.18109)">
      <rect
         y="126.18109"
         x="-27.952759"
         height="800"
         width="800"
         id="rect3174"
         style="fill:#254aa5;fill-opacity:1;stroke:none" />
      <path
         inkscape:connector-curvature="0"
         id="path3064-0"
         d="m 616.51335,520.94386 c 0.96182,60.84981 -21.20597,122.23658 -63.27323,166.57419 -16.50281,17.78611 -35.95206,32.73796 -56.76702,45.142 -14.70641,24.04058 -29.41282,48.08116 -44.11923,72.12174 -9.09406,-14.81248 -18.18813,-29.62495 -27.28219,-44.43743 -34.84963,7.49939 -71.19323,7.50386 -106.04253,0 -9.09406,14.81248 -18.18812,29.62495 -27.28218,44.43743 -14.70641,-24.04058 -29.41282,-48.08116 -44.11923,-72.12174 -40.10994,-23.60874 -74.31511,-57.92878 -94.84614,-99.94288 -33.02125,-65.40629 -33.40188,-146.25802 -0.52744,-211.80733 22.11267,-45.63432 60.16051,-82.59468 104.85856,-106.09492 0,-17.75933 0,-35.51865 0,-53.27798 76.62285,0 153.24569,0 229.86854,0 0,17.75933 0,35.51865 0,53.27798 47.65806,24.83869 87.37313,65.39963 109.00725,114.80581 12.89061,28.72026 19.33886,59.93084 20.52484,91.32313 z m 136.87729,-30.47528 c -26.33117,-4.34245 -52.66235,-8.6849 -78.99352,-13.02735 -3.18086,-19.55465 -8.69814,-38.70307 -15.66428,-57.23291 20.56337,-16.67401 41.12674,-33.34801 61.69011,-50.02202 -9.87104,-21.84064 -22.4095,-42.381 -36.29395,-61.88536 -24.98924,9.1515 -49.97847,18.30299 -74.96771,27.45449 -12.90807,-15.37987 -27.31584,-29.50829 -42.94647,-42.1115 9.33181,-24.50564 18.66363,-49.01129 27.99544,-73.51693 -19.87936,-13.75056 -40.93764,-25.90697 -63.10291,-35.59483 -16.99936,20.16229 -33.99872,40.32459 -50.99808,60.48688 -18.91417,-6.94013 -38.47505,-12.08477 -58.35699,-15.35388 -4.43044,-25.82552 -8.86088,-51.65105 -13.29132,-77.47657 -24.22342,-2.17586 -48.60433,-2.16641 -72.82794,0 -4.42815,25.82552 -8.85631,51.65105 -13.28446,77.47657 -19.87588,3.30197 -39.44684,8.39158 -58.357,15.35388 -17.00164,-20.16229 -34.00329,-40.32459 -51.00493,-60.48688 -22.20075,9.63512 -43.15824,21.93042 -63.10292,35.59483 9.33182,24.50564 18.66363,49.01129 27.99545,73.51693 -15.50729,12.64035 -30.1288,26.51837 -42.69957,42.1115 -25.06697,-9.1515 -50.133934,-18.30299 -75.200901,-27.45449 -13.884147,19.50313 -26.447073,40.03323 -36.29395,61.88536 20.558799,16.67401 41.117597,33.34801 61.676396,50.02202 -7.094971,18.50334 -12.28336,37.70852 -15.657424,57.23291 -26.33346,4.34245 -52.666919,8.6849 -79.0003787,13.02735 -2.0742143,23.75043 -2.0743833,47.67448 0,71.42488 26.3334597,4.34333 52.6669187,8.68667 79.0003787,13.03 3.355039,19.52585 8.537073,38.73779 15.657424,57.23021 -20.558799,16.67401 -41.117597,33.34801 -61.676396,50.02202 9.9043,21.81021 22.321974,42.44534 36.29395,61.87725 25.066967,-9.1488 50.133931,-18.29759 75.200901,-27.44639 12.57624,15.58819 27.1906,29.47463 42.69957,42.11356 -9.33182,24.50451 -18.66363,49.00902 -27.99545,73.51353 19.94477,13.66819 40.90766,25.952 63.10292,35.60293 17.00164,-20.16454 34.00329,-40.32909 51.00493,-60.49363 18.88715,7.00339 38.46424,12.18913 58.357,15.35388 4.42815,25.82284 8.85631,51.64567 13.28446,77.46851 24.22258,2.18522 48.60528,2.17852 72.82794,0 4.43044,-25.82284 8.86088,-51.64567 13.29132,-77.46851 19.89332,-3.14093 39.46712,-8.36492 58.35699,-15.35388 16.99936,20.16454 33.99872,40.32909 50.99808,60.49363 22.16074,-9.70243 43.2216,-21.85084 63.10291,-35.60293 -9.33181,-24.50451 -18.66363,-49.00902 -27.99544,-73.51353 15.63122,-12.60285 30.03377,-26.73772 42.94647,-42.11356 24.98924,9.1488 49.97847,18.29759 74.96771,27.44639 13.97407,-19.43199 26.36443,-40.07936 36.29395,-61.87725 -20.56337,-16.67401 -41.12674,-33.34801 -61.69011,-50.02202 6.99345,-18.5187 12.503,-37.67804 15.66428,-57.23021 26.33117,-4.34333 52.66235,-8.68667 78.99352,-13.03 2.22059,-23.76962 2.21462,-47.65386 0,-71.42488 z"
         style="fill:#ffffff;fill-opacity:1;fill-rule:nonzero;stroke:none" />
      <path
         inkscape:connector-curvature="0"
         d="m 476.07661,272.24107 -207.81235,0 0,53.74237 50.99808,0 0,-10.936 27.28904,0 0,100.2732 -10.91836,0 0,43.04095 72.82794,0 0,-43.04095 -10.91151,0 0,-100.04133 27.52223,0 0,10.70413 51.00493,0 0,-53.74237"
         style="fill:#ffffff;fill-opacity:1;fill-rule:evenodd;stroke:none"
         id="path3066-8" />
      <path
         inkscape:connector-curvature="0"
         d="m 259.0056,354.5972 0,43.04094 11.15154,0 0,171.69873 -11.15154,-0.23252 0,43.04365 73.07484,0 0,-43.04365 -10.91151,0 0,-42.80572 102.00301,0 0,42.80572 -10.9115,0 0,43.04365 72.82794,0 0,-43.04365 -10.91836,0 0,-171.69603 10.91836,0.22982 0,-43.04094 -72.82794,0 0,43.04094 10.9115,0 0,85.61685 -102.00301,0 0,-85.61685 10.91151,0 0,-43.04094 -73.07484,0"
         style="fill:#ffffff;fill-opacity:1;fill-rule:evenodd;stroke:none"
         id="path3068-1" />
      <path
         inkscape:connector-curvature="0"
         d="m 372.16701,652.62985 80.18686,130.9762 105.08922,-171.69057 26.10257,0 0,-42.81113 -87.30574,0 0,42.81113 10.19824,0 -54.08429,88.39965 -80.4269,-131.21078 -80.18,131.21078 -53.85112,-88.39965 10.19825,0 0,-42.81113 -87.53207,0 0,42.81113 26.33575,0 105.08923,171.69057 80.18,-130.9762"
         style="fill:#ffffff;fill-opacity:1;fill-rule:evenodd;stroke:none"
         id="path3070-3" />
    </g>
  </g>
</svg>
