<?xml version="1.0" encoding="utf-8"?>
<!-- Generator: Adobe Illustrator 24.1.3, SVG Export Plug-In . SVG Version: 6.00 Build 0)  -->
<svg version="1.1" id="Ebene_1" xmlns="http://www.w3.org/2000/svg" xmlns:xlink="http://www.w3.org/1999/xlink" x="0px" y="0px"
	 viewBox="0 0 235.92 80.7" style="enable-background:new 0 0 235.92 80.7;" xml:space="preserve">
<style type="text/css">
	.st0{fill:#FFFFFF;}
	.st1{fill:#C50E1F;}
</style>
<path id="XMLID_191_" class="st1" d="M75.81,80.7c6.28,0,10.79-1.86,14.29-4.21c3.27-2.19,5.8-4.78,7.74-8.12
	c2.51-4.32,2.78-8.33,2.99-10.66c0-0.02,4.67-48.4,4.67-48.4l-22.8,0C82.69,9.31,75.8,80.7,75.81,80.7z"/>
<path id="XMLID_190_" class="st1" d="M53.86,22.73l-3.45,35.8c-0.58,7.83,2.36,11.85,4.18,13.97c3.34,3.87,9.47,6.91,16.56,8.18
	c0.2-2.08,6.6-68.5,6.6-68.51c0.21-3.25-0.73-6.09-2.9-8.57c-2.53-2.89-6.28-3.55-7.83-3.55L10.46,0.06C6.28,0.06,0,4.11,0,11.11
	c0,8.65,7.69,11.62,10.34,11.62C11.69,22.74,53.86,22.73,53.86,22.73z"/>
<path id="XMLID_189_" class="st1" d="M44.53,71.41l4.24-44.02l-22.84-0.05c0,0-3.72,38.32-4.26,44.02L44.53,71.41z"/>
<g id="XMLID_127_">
	<path id="XMLID_187_" class="st1" d="M119.73,11.16v11.67h-2.18V11.16h-3.7V9.31h9.61v1.84H119.73z"/>
	<path id="XMLID_185_" class="st1" d="M126.36,22.83V9.31h7.13v1.82h-4.95v3.84h4.7v1.78h-4.7v4.2h4.95v1.86H126.36z"/>
	<path id="XMLID_183_" class="st1" d="M143.02,22.99c-4.52,0-6.19-2.92-6.19-6.53c0-4.2,2.12-7.27,6.67-7.27
		c1,0,2.04,0.16,2.98,0.38l-0.24,2c-0.98-0.3-1.94-0.46-2.92-0.46c-2.82,0-4.1,2.16-4.1,4.98c0,3.14,1.34,4.92,4.28,4.92
		c0.92,0,2.1-0.26,2.84-0.62l0.26,1.94C145.58,22.75,144.32,22.99,143.02,22.99z"/>
	<path id="XMLID_181_" class="st1" d="M158.99,22.83v-6.07h-6.39v6.07h-2.18V9.31h2.18v5.59h6.39V9.31h2.16v13.51H158.99z"/>
	<path id="XMLID_179_" class="st1" d="M174.01,22.83l-4.62-7.69c-0.6-0.98-1.08-1.94-1.5-2.84c0.08,1.32,0.12,4.06,0.12,5.99v4.54
		h-2.12V9.31h2.86l4.46,7.37c0.6,1,1.14,2.08,1.64,3.06c-0.08-1.54-0.14-4.44-0.14-6.43v-4h2.12v13.51H174.01z"/>
	<path id="XMLID_177_" class="st1" d="M181.56,22.83V9.31h2.18v13.51H181.56z"/>
	<path id="XMLID_175_" class="st1" d="M190.47,23.03c-0.98,0-1.94-0.12-2.72-0.32l0.12-2.06c0.76,0.28,1.82,0.5,2.8,0.5
		c1.48,0,2.68-0.62,2.68-2.08c0-2.84-5.91-1.64-5.91-6.01c0-2.32,1.82-3.94,4.96-3.94c0.8,0,1.62,0.1,2.44,0.24l-0.12,1.94
		c-0.78-0.24-1.64-0.38-2.44-0.38c-1.68,0-2.54,0.78-2.54,1.9c0,2.7,5.9,1.7,5.9,5.93C195.65,21.23,193.69,23.03,190.47,23.03z"/>
	<path id="XMLID_173_" class="st1" d="M204.85,22.99c-4.52,0-6.19-2.92-6.19-6.53c0-4.2,2.12-7.27,6.67-7.27
		c1,0,2.04,0.16,2.98,0.38l-0.24,2c-0.98-0.3-1.94-0.46-2.92-0.46c-2.82,0-4.1,2.16-4.1,4.98c0,3.14,1.34,4.92,4.28,4.92
		c0.92,0,2.1-0.26,2.84-0.62l0.26,1.94C207.41,22.75,206.15,22.99,204.85,22.99z"/>
	<path id="XMLID_171_" class="st1" d="M220.82,22.83v-6.07h-6.39v6.07h-2.18V9.31h2.18v5.59h6.39V9.31h2.16v13.51H220.82z"/>
	<path id="XMLID_169_" class="st1" d="M227.71,22.83V9.31h7.13v1.82h-4.95v3.84h4.7v1.78h-4.7v4.2h4.95v1.86H227.71z"/>
	<path id="XMLID_167_" class="st1" d="M120.21,47.29c-4.24,0-5.15-2.32-5.15-4.8v-8.91h2.18v8.75c0,1.8,0.6,3.16,3.1,3.16
		c2.2,0,3.2-0.92,3.2-3.44v-8.47h2.14v8.31C125.69,45.49,123.75,47.29,120.21,47.29z"/>
	<path id="XMLID_165_" class="st1" d="M138.25,47.09l-4.62-7.69c-0.6-0.98-1.08-1.94-1.5-2.84c0.08,1.32,0.12,4.06,0.12,5.99v4.54
		h-2.12V33.58h2.86l4.46,7.37c0.6,1,1.14,2.08,1.64,3.06c-0.08-1.54-0.14-4.44-0.14-6.43v-4h2.12v13.51H138.25z"/>
	<path id="XMLID_163_" class="st1" d="M145.6,47.09V33.58h2.18v13.51H145.6z"/>
	<path id="XMLID_161_" class="st1" d="M157.79,47.09h-2.48l-4.8-13.51h2.4l2.84,8.33c0.28,0.78,0.6,1.74,0.86,2.74h0.02
		c0.24-0.94,0.48-1.78,0.88-2.88l2.9-8.19h2.24L157.79,47.09z"/>
	<path id="XMLID_159_" class="st1" d="M165.38,47.09V33.58h7.13v1.82h-4.95v3.84h4.7v1.78h-4.7v4.2h4.95v1.86H165.38z"/>
	<path id="XMLID_156_" class="st1" d="M182.84,47.09l-4.2-5.85h-0.1v5.85h-2.18V33.58c0.98-0.06,2.1-0.08,3.62-0.08
		c2.8,0,4.72,0.98,4.72,3.66c0,2.16-1.62,3.54-3.82,3.78c0.38,0.48,0.8,1,1.14,1.44l3.56,4.7H182.84z M179.68,35.28
		c-0.42,0-0.82,0.02-1.14,0.04v4.28c0.2,0.02,0.58,0.04,1.06,0.04c1.76,0,2.82-0.9,2.82-2.24C182.42,35.92,181.5,35.28,179.68,35.28
		z"/>
	<path id="XMLID_154_" class="st1" d="M190.87,47.29c-0.98,0-1.94-0.12-2.72-0.32l0.12-2.06c0.76,0.28,1.82,0.5,2.8,0.5
		c1.48,0,2.68-0.62,2.68-2.08c0-2.84-5.91-1.64-5.91-6.01c0-2.32,1.82-3.94,4.96-3.94c0.8,0,1.62,0.1,2.44,0.24l-0.12,1.94
		c-0.78-0.24-1.64-0.38-2.44-0.38c-1.68,0-2.54,0.78-2.54,1.9c0,2.7,5.9,1.7,5.9,5.93C196.06,45.49,194.09,47.29,190.87,47.29z"/>
	<path id="XMLID_152_" class="st1" d="M199.56,47.09V33.58h2.18v13.51H199.56z"/>
	<path id="XMLID_150_" class="st1" d="M210.47,35.42v11.67h-2.18V35.42h-3.7v-1.84h9.61v1.84H210.47z"/>
	<path id="XMLID_145_" class="st1" d="M223.91,47.09l-1.04-2.98h-5.47l-1.04,2.98h-2.2L219,33.58h2.42l4.9,13.51H223.91z
		 M218.22,32.42c-0.68,0-1.2-0.54-1.2-1.22c0-0.66,0.52-1.2,1.2-1.2s1.22,0.54,1.22,1.2C219.44,31.87,218.9,32.42,218.22,32.42z
		 M220.74,38.12c-0.26-0.7-0.44-1.34-0.6-2.08h-0.04c-0.14,0.68-0.36,1.42-0.62,2.14l-1.52,4.18h4.32L220.74,38.12z M222.17,32.42
		c-0.68,0-1.22-0.54-1.22-1.22c0-0.66,0.54-1.2,1.22-1.2c0.66,0,1.2,0.54,1.2,1.2C223.37,31.87,222.83,32.42,222.17,32.42z"/>
	<path id="XMLID_143_" class="st1" d="M232.2,35.42v11.67h-2.18V35.42h-3.7v-1.84h9.61v1.84H232.2z"/>
	<path id="XMLID_139_" class="st1" d="M118.75,71.41c-0.82,0-2.18-0.04-3.68-0.06V57.84c1.06-0.02,2.6-0.06,4.24-0.06
		c2.94,0,4.46,1.2,4.46,3.28c0,1.38-0.92,2.6-2.3,3.08v0.04c1.76,0.34,2.58,1.68,2.58,3.08C124.05,69.03,122.89,71.41,118.75,71.41z
		 M118.95,59.52c-0.6,0-1.18,0.02-1.7,0.04v4c0.36,0.02,0.7,0.02,1.16,0.02c2.02,0,3.08-0.82,3.08-2.18
		C121.49,60.3,120.87,59.52,118.95,59.52z M118.47,65.21c-0.22,0-0.92,0-1.22,0.02v4.3c0.34,0.06,0.88,0.1,1.58,0.1
		c1.98,0,2.92-0.96,2.92-2.32C121.75,65.77,120.37,65.21,118.47,65.21z"/>
	<path id="XMLID_137_" class="st1" d="M127.72,71.35V57.84h7.13v1.82h-4.95v3.84h4.7v1.78h-4.7v4.2h4.95v1.86H127.72z"/>
	<path id="XMLID_134_" class="st1" d="M145.18,71.35l-4.2-5.85h-0.1v5.85h-2.18V57.84c0.98-0.06,2.1-0.08,3.62-0.08
		c2.8,0,4.72,0.98,4.72,3.66c0,2.16-1.62,3.54-3.82,3.78c0.38,0.48,0.8,1,1.14,1.44l3.56,4.7H145.18z M142.01,59.54
		c-0.42,0-0.82,0.02-1.14,0.04v4.28c0.2,0.02,0.58,0.04,1.06,0.04c1.76,0,2.82-0.9,2.82-2.24
		C144.76,60.18,143.84,59.54,142.01,59.54z"/>
	<path id="XMLID_132_" class="st1" d="M151.06,71.35V57.84h2.18v11.61h4.65v1.9H151.06z"/>
	<path id="XMLID_130_" class="st1" d="M160.62,71.35V57.84h2.18v13.51H160.62z"/>
	<path id="XMLID_128_" class="st1" d="M175.45,71.35l-4.62-7.69c-0.6-0.98-1.08-1.94-1.5-2.84c0.08,1.32,0.12,4.06,0.12,5.98v4.54
		h-2.12V57.84h2.86l4.46,7.37c0.6,1,1.14,2.08,1.64,3.06c-0.08-1.54-0.14-4.44-0.14-6.43v-4h2.12v13.51H175.45z"/>
</g>
</svg>
