<?xml version="1.0" encoding="UTF-8" standalone="no"?><!-- Generator: Gravit.io --><svg xmlns="http://www.w3.org/2000/svg" xmlns:xlink="http://www.w3.org/1999/xlink" style="isolation:isolate" viewBox="0 0 300 220" width="300pt" height="220pt"><defs><clipPath id="_clipPath_hxFIKXCPS1VhTQDEF4eWBfVHJwsl7Ony"><rect width="300" height="220"/></clipPath></defs><g clip-path="url(#_clipPath_hxFIKXCPS1VhTQDEF4eWBfVHJwsl7Ony)"><rect width="300" height="220" style="fill:rgb(0,0,0)" fill-opacity="0"/><g><g><path d=" M 230.139 18.326 L 300 18.326 L 287.056 150.766 C 285.422 189.274 253.217 220 213.732 220 L 210.426 219.979 L 230.139 18.326 Z " fill="rgb(153,0,0)"/><path d=" M 220.269 37.476 L 202.53 219.309 C 163.049 212.506 136.454 192.335 140.025 154.636 L 140.003 154.556 L 148.482 67.724 L 34.092 67.724 C 15.242 67.586 0 52.481 0 33.867 C 0 15.259 15.242 0.154 34.092 0 L 186.187 0 C 205.129 0.053 220.463 15.19 220.463 33.867 C 220.463 35.085 220.393 36.291 220.269 37.476 Z " fill="rgb(153,0,0)"/><path d=" M 69.932 75.224 L 132.684 75.224 L 120.306 201.86 L 57.554 201.86 L 69.932 75.224 Z " fill="rgb(153,0,0)"/><path d=" M 261.728 47.256 L 291.877 47.256 L 292.811 38.332 L 275.028 38.332 C 273.642 38.332 271.366 37.902 271.366 36.079 C 271.366 34.234 273.275 33.74 274.484 33.74 L 293.242 33.74 L 294.105 24.88 L 274.198 24.88 C 268.389 24.88 263.012 27.059 262.58 31.704 C 262.375 33.958 263.713 36.684 266.593 38.518 L 266.577 38.699 L 262.607 38.699 L 261.728 47.256 Z " fill="rgb(255,255,255)"/><path d=" M 258.859 51.067 L 249.318 51.067 L 248.406 59.837 L 257.958 59.837 L 258.859 51.067 Z  M 291.554 51.067 L 261.448 51.067 L 260.547 59.837 L 290.648 59.837 L 291.554 51.067 Z " fill-rule="evenodd" fill="rgb(255,255,255)"/><path d=" M 290.4 62.813 L 248.568 62.813 L 247.711 71.519 L 289.547 71.519 L 290.4 62.813 Z " fill="rgb(255,255,255)"/><path d=" M 287.946 87.943 L 288.803 79.167 L 274.403 79.167 C 270.379 79.167 268.723 77.275 268.95 75.016 C 269.015 74.336 269.047 73.975 269.144 73.613 L 258.039 73.571 C 257.721 76.866 259.474 78.944 263.147 79.619 L 263.141 79.71 L 258.265 79.71 L 257.559 87.943 L 287.946 87.943 Z " fill="rgb(255,255,255)"/><path d=" M 272.946 91.987 C 275.729 93.832 277.45 97.77 277.207 100.305 C 277.126 101.156 276.905 102.283 276.447 102.942 L 266 90.35 C 259.997 92.365 255.801 96.649 255.277 102.24 C 254.619 109.192 260.186 114.927 270.482 114.927 C 278.771 114.927 286.117 109.527 286.84 101.91 C 287.271 97.302 286.452 95.086 284.106 91.28 L 272.946 91.987 Z  M 271.113 105.759 C 270.579 105.95 270.217 106.141 268.95 106.141 C 266.361 106.141 263.923 104.589 264.134 102.336 C 264.247 101.156 264.619 100.215 265.903 99.466 L 271.113 105.759 Z " fill-rule="evenodd" fill="rgb(255,255,255)"/><path d=" M 241.508 142.369 L 267.219 142.369 C 277.051 142.369 283.501 136.836 284.23 129.028 C 284.861 122.315 279.737 116.203 269.387 116.203 C 261.674 116.203 253.46 121.045 252.824 127.768 C 252.586 130.303 253.217 131.521 254.204 133.259 L 242.258 133.259 L 241.508 142.369 Z  M 268.065 133.259 C 265.541 133.259 263.486 131.808 263.697 129.597 C 263.896 127.439 266.221 125.977 268.756 125.977 C 271.285 125.977 273.335 127.439 273.13 129.597 C 272.925 131.808 270.606 133.259 268.065 133.259 Z " fill-rule="evenodd" fill="rgb(255,255,255)"/></g></g></g></svg>