<?xml version="1.0" encoding="UTF-8"?>
<svg xmlns="http://www.w3.org/2000/svg" width="500" height="425">
  <g fill="#c50e1f">
    <path d="M223.83 419.809c.654 0 69.187 0 69.842-.007 112.763-1.06 203.843-92.798 203.843-205.806 0-112.845-90.82-204.477-203.348-205.798-.82-.011-69.518-.015-70.338-.015v65.685c.655 0 69.188.004 69.843.012 76.485 1.056 138.16 63.387 138.16 140.116 0 76.731-61.675 139.06-138.16 140.112-.655.01-69.188.014-69.843.014v65.687m-25.65-41.757-3.488-.316 2.214-24.354 3.49.318-2.216 24.352m-10.75-7.69-3.124-.639.57-2.78-.068-.013c-1.37 1.792-3.948 2.516-6.386 2.018-4.53-.928-5.978-4.156-5.017-8.858l2.128-10.399 3.227.66-1.855 9.06c-.836 4.084-.35 6.257 2.43 7.005 3.671.752 5.922-1.862 6.793-6.118l1.658-8.099 3.227.66-3.583 17.503m-24.185-8.673 3.98 1.355-.857 2.52-3.98-1.353-.53 1.559c-1.4 4.112-3.376 6.438-7.986 4.87-.796-.27-1.426-.596-2.022-.912l.99-2.473c.32.256.894.524 1.425.705 2.687.915 3.605-.697 4.384-2.985l.62-1.824-4.476-1.524.857-2.521 4.477 1.522 4.898-14.394 3.117 1.06-4.896 14.396m-14.053-19.655c-3.464-1.69-6.543.707-7.94 3.572-1.49 3.055-1.074 6.92 2.076 8.455 3.178 1.552 6.48-.503 7.969-3.558 1.397-2.864 1.39-6.765-2.105-8.469zm-7.031 14.42c-4.88-2.379-6.436-7.501-4.057-12.383 2.24-4.596 7.436-6.78 12.253-4.43 4.85 2.364 6.33 7.8 4.09 12.398-2.38 4.88-7.374 6.811-12.286 4.415m-13.608-7.915-2.581-1.686 1.513-2.318-.06-.038c-1.747 1.076-4.06 1.157-5.643.12-.821-.536-1.174-.892-1.684-1.392l1.61-2.464c.364.53.882.953 1.352 1.26 2.464 1.61 5.61.316 8.062-3.438l4.446-6.805 2.757 1.803-9.772 14.958m-13.824-9.008-2.28-2.074 1.744-1.916-.052-.05c-2.324.68-4.281.179-6.225-1.588-1.528-1.39-2.351-3.558-1.424-5.982-2.627 1.066-5.236-.075-6.428-1.159-3.368-3.064-2.607-6.348.009-9.225l7.707-8.475 2.436 2.216-7.164 7.879c-1.486 1.632-2.96 4.033-.99 5.824 2.488 2.262 5.688.722 7.927-1.74l6.057-6.659 2.436 2.215-7.165 7.877c-1.484 1.633-2.957 4.033-.988 5.824 2.488 2.264 5.688.723 7.927-1.739l6.057-6.658 2.436 2.214-12.02 13.216m-23.546-38.183c.425.555.796 1.154 1.221 1.711 1.085 1.419 3.99 4.752 6.493 2.836 1.503-1.149 1.203-3.213.287-4.408-1.98-2.588-4.636-2.716-6.75-1.098zm-.486 12.678c-1.778-.71-3.528-1.843-4.912-3.65-3.108-4.06-2.36-7.235 1.504-10.195l5.87-4.492c1.612-1.235 2.321-1.866 2.696-2.242l1.873 2.45-1.836 1.405.043.055c1.33-.048 3.702.342 5.533 2.734 2.341 3.059 2.647 6.223-.44 8.586-3.56 2.725-7.655-.316-9.719-3.016-.788-1.028-1.34-1.751-2.073-2.823-2.448 1.875-3.019 3.721-1.017 6.336 1.129 1.475 2.899 2.633 4.598 3.01l-2.12 1.842m-15.663-25.598 2.414 4.067 8.408-4.986c1.776-1.054 2.096-2.711 1.328-4.007-.517-.873-1.165-1.345-1.685-1.607l2.41-1.429c.555.525 1.315 1.256 1.851 2.16 1.733 2.923 1.42 5.553-1.653 7.376l-8.979 5.325 2.055 3.467-2.29 1.359-2.054-3.467-3.556 2.11-2.584-2.298 4.458-2.644-2.412-4.068 2.29-1.357m-5.012-4.043-1.439-2.96 16.073-7.803 1.439 2.963zM64.9 282.98l1.621 3.342-3.34 1.62-1.62-3.34 3.34-1.622m12.347-21.506c-1.287-3.632-5.16-4.082-8.165-3.018-3.204 1.134-5.618 4.18-4.45 7.483 1.182 3.333 4.975 4.184 8.178 3.05 3.005-1.063 5.734-3.85 4.437-7.515zm-15.124 5.352c-1.812-5.116.67-9.86 5.79-11.671 4.82-1.708 10.055.379 11.842 5.43 1.801 5.085-.955 10-5.776 11.706-5.119 1.812-10.032-.312-11.856-5.465m-4.412-15.666-.59-3.132 2.79-.525-.015-.068c-2.177-.59-3.824-2.704-4.284-5.148-.856-4.544 1.586-7.108 6.303-7.996l10.43-1.964.61 3.236-9.09 1.712c-4.095.772-5.925 2.044-5.565 4.899.694 3.684 3.966 4.778 8.235 3.976l8.125-1.531.61 3.236-17.559 3.305m10.768-22.896c.76-1.345 1.065-3.224 1.008-4.169-.092-1.504-.835-3.32-2.759-3.201-3.252.2-2.498 7.912-7.5 8.217-3.706.227-5.66-2.427-5.876-5.959-.094-1.538.144-2.817.45-4.134l2.884.104c-.41.761-.744 2.749-.698 3.518.103 1.679.892 3.104 2.362 3.015 3.637-.223 2.114-7.887 7.814-8.237 3.812-.234 5.748 2.702 5.943 5.885.103 1.679.033 3.403-.68 4.956l-2.948.005m-15.453-16.875.296-3.066 2.58.248.006-.07c-1.936-1.454-2.705-3.322-2.453-5.937.2-2.057 1.443-4.013 3.94-4.722-2.428-1.466-3.076-4.238-2.92-5.842.436-4.532 3.523-5.888 7.392-5.514l11.401 1.1-.317 3.277-10.597-1.023c-2.198-.212-5.002.046-5.258 2.695-.322 3.347 2.827 4.988 6.14 5.307l8.96.865-.317 3.277-10.599-1.022c-2.196-.212-5 .045-5.256 2.696-.324 3.345 2.826 4.988 6.138 5.306l8.96.864-.316 3.278-17.78-1.716m16.521-41.732c-.19.674-.45 1.329-.643 2.002-.489 1.72-1.429 6.043 1.603 6.906 1.82.52 3.297-.955 3.71-2.404.893-3.134-.59-5.342-3.153-6.071zm-10.46 7.184c-.495-1.852-.63-3.931-.007-6.123 1.402-4.919 4.395-6.216 9.08-4.881l7.11 2.026c1.953.558 2.882.748 3.406.824l-.844 2.967-2.224-.635-.02.068c.834 1.039 1.94 3.176 1.112 6.072-1.056 3.708-3.413 5.842-7.153 4.776-4.313-1.229-4.317-6.33-3.385-9.6.354-1.245.605-2.122 1.026-3.349-2.964-.845-4.788-.2-5.69 2.968-.51 1.787-.383 3.899.33 5.487l-2.742-.6m5.132-20.647 1.313-2.905 2.584 1.169.03-.065c-1.447-1.731-1.585-4.406-.56-6.672 1.905-4.214 5.374-4.914 9.747-2.938l9.672 4.372-1.357 3.002-8.427-3.81c-3.798-1.717-6.024-1.724-7.368.82-1.542 3.418.51 6.19 4.468 7.979l7.534 3.405-1.356 3-16.28-7.357m24.11-25.486c-.38.589-.817 1.14-1.196 1.729-.965 1.504-3.114 5.37-.46 7.073 1.591 1.024 3.43.039 4.244-1.23 1.76-2.74.978-5.283-1.262-6.722zm-12.093 3.85c.065-1.915.536-3.944 1.767-5.86 2.762-4.305 6.002-4.681 10.1-2.05l6.22 3.995c1.71 1.098 2.544 1.55 3.024 1.775l-1.666 2.595-1.946-1.25-.038.059c.498 1.235.938 3.599-.692 6.133-2.082 3.244-4.954 4.604-8.226 2.504-3.774-2.422-2.303-7.306-.467-10.168.701-1.089 1.193-1.856 1.952-2.91-2.593-1.666-4.527-1.574-6.305 1.197-1.004 1.563-1.494 3.623-1.27 5.348l-2.453-1.368m25.948-21.681c-2.8-2.438-6.333-3.234-8.63-.591-2.185 2.51-.543 6.12 1.757 8.12 2.536 2.207 5.998 2.71 8.021.384 2.023-2.325 1.363-5.73-1.148-7.913zm8.16 2.732c4.096 3.564 4.61 7.722.404 12.56-1.243 1.428-2.507 2.508-5.132 4.032l-2.07-2.264c2.527-1.144 3.86-1.983 5.446-3.806 2.275-2.616 1.861-5.716-.993-8.197l-1.322-1.15-.046.053c.481 2.274-.348 4.617-1.843 6.334-3.356 3.86-8.155 3.027-11.644-.008-3.463-3.009-5.46-8.184-1.92-12.254 2.067-2.378 4.088-2.942 6.185-2.418l.047-.052-2.01-1.746 2-2.3 12.898 11.215m6.447-19.02c-1.782-2.073-4.466-2.722-6.618-.873-2.444 2.102-1.717 4.988-.396 6.9zm8.082 6.125c-.66 1.166-1.292 2.634-3.524 4.553-4.808 4.133-9.524 3.107-13.316-1.304-3.446-4.012-3.366-9.023.458-12.31 4.516-3.883 8.81-1.846 12.554 2.511l-9.669 8.312c2.305 2.683 5.98 2.712 8.345.68 1.646-1.416 2.828-3.91 3.006-4.941l2.146 2.499m-4.145-18.667 2.66-1.556 1.31 2.236.06-.036c.045-2.42 1.107-4.139 3.374-5.465 1.784-1.044 4.097-1.182 6.135.426-.234-2.826 1.633-4.974 3.024-5.789 3.93-2.3 6.837-.593 8.801 2.763l5.787 9.882-2.842 1.664-5.38-9.188c-1.114-1.905-2.966-4.026-5.262-2.682-2.903 1.698-2.388 5.213-.707 8.084l4.548 7.769-2.84 1.663-5.38-9.188c-1.116-1.906-2.967-4.027-5.264-2.683-2.9 1.699-2.387 5.212-.705 8.084l4.548 7.768-2.842 1.664-9.025-15.416m43.666-13.392c-.934-2.57-3.214-4.125-5.88-3.157-3.03 1.101-3.37 4.057-2.813 6.314zm5.391 8.588c-1.029.859-2.14 2.007-4.905 3.012-5.959 2.164-10.008-.464-11.992-5.93-1.807-4.971.041-9.631 4.783-11.353 5.597-2.034 8.89 1.391 10.852 6.791l-11.984 4.353c1.208 3.326 4.633 4.654 7.564 3.588 2.041-.741 4.03-2.656 4.56-3.557l1.122 3.096m2.258-18.468 3.124-.637.565 2.78.07-.014c.555-2.186 2.645-3.864 5.08-4.36 4.531-.924 7.13 1.478 8.09 6.179l2.12 10.4-3.228.657-1.847-9.06c-.833-4.085-2.13-5.893-4.98-5.49-3.67.748-4.718 4.036-3.85 8.292l1.65 8.1-3.225.657-3.57-17.504m32.942-2.072-4.716.36.745 9.747c.158 2.061 1.5 3.082 3.003 2.968 1.013-.079 1.723-.448 2.187-.8l.214 2.794c-.717.266-1.709.623-2.757.703-3.388.259-5.607-1.188-5.879-4.75l-.797-10.41-4.016.307-.204-2.655 4.017-.307-.314-4.122 3.202-1.299.395 5.17 4.717-.36.203 2.654M191.87 392.622l-5.086-.804c-8.33-1.319-13.568 1.973-14.947 10.693-1.25 7.895 3.392 13.396 10.367 14.499l5.666.896zm.17 30.313-9.978-1.579c-10.026-1.586-17.038-9.049-15.39-19.464 1.792-11.334 9.597-16.108 20.737-14.345l9.98 1.577-5.349 33.811m-47.264-34.048c.924.327 1.817.743 2.742 1.067 2.36.826 8.322 2.5 9.782-1.664.874-2.5-1.062-4.686-3.05-5.383-4.304-1.51-7.513.381-8.745 3.9zm9.164 15.217c-2.628.534-5.546.552-8.554-.502-6.757-2.368-8.32-6.658-6.065-13.091l3.421-9.765c.942-2.684 1.287-3.967 1.438-4.694l4.072 1.428-1.07 3.055.092.032c1.522-1.077 4.598-2.443 8.578-1.048 5.092 1.785 7.876 5.255 6.076 10.392-2.076 5.924-9.204 5.504-13.694 3.932-1.712-.601-2.916-1.023-4.596-1.715-1.426 4.074-.676 6.675 3.675 8.199 2.453.86 5.416.859 7.693-.005l-1.066 3.782m-38.148-18.355 5.902 2.998 6.198-12.197c1.31-2.579.446-4.779-1.434-5.732-1.268-.646-2.385-.718-3.197-.636l1.776-3.498c1.052.204 2.497.499 3.81 1.166 4.24 2.153 5.84 5.497 3.575 9.957l-6.618 13.027 5.028 2.556-1.688 3.322-5.028-2.554-2.622 5.158-4.776-.776 3.288-6.47-5.902-2.999 1.688-3.323m-17.19-18.704c-2.168 3.151-2.088 7.015 1.186 9.267 3.718 2.556 7.365.541 9.481-1.93zm5.398-13.132c1.816.475 4.028.806 7.422 3.14 7.315 5.03 7.612 11.78 3 18.49-4.196 6.101-11.008 7.784-16.826 3.784-6.87-4.723-5.647-11.263-1.09-17.89l14.708 10.114c2.807-4.08 1.532-9.064-2.065-11.538-2.505-1.722-6.304-2.429-7.76-2.301l2.611-3.799m-23.135 12.15-3.22-3.091 2.752-2.867-.07-.066c-2.96 1.101-6.557.028-9.067-2.383-4.67-4.485-3.974-9.39.681-14.236l10.292-10.72 3.327 3.193-8.968 9.34c-4.043 4.21-5.094 7.146-2.363 10.107 3.787 3.635 8.405 2.223 12.617-2.164l8.018-8.35 3.325 3.194-17.324 18.043m-28.568-35.97c2.97 4.024 8.224 3.134 11.973.368 3.354-2.473 6.216-7.268 3.13-11.45-2.94-3.986-8.622-2.352-11.722.054-3.688 2.6-6.35 7.003-3.38 11.028zm-4.863 18.518-2.736-3.708 12.232-9.026-.058-.08c-2.699.224-5.564-.769-8.156-4.281-4.31-5.84-1.63-12.204 3.776-16.192 5.524-4.076 12.784-5.47 17.266.607 2.65 3.59 2.524 7.218 1.751 9.31l.06.08 2.84-2.097 2.62 3.55-29.595 21.837m-4.965-54.214c.447.874.805 1.792 1.252 2.666 1.137 2.226 4.297 7.552 8.228 5.544 2.36-1.204 2.465-4.122 1.505-6-2.073-4.062-5.7-4.908-9.02-3.214zm-3.865 17.339c-2.272-1.428-4.395-3.428-5.845-6.267-3.257-6.376-1.428-10.56 4.643-13.661l9.216-4.705c2.534-1.295 3.668-1.986 4.28-2.407l1.962 3.844-2.883 1.472.045.088c1.844.27 5.012 1.404 6.931 5.161 2.453 4.804 2.075 9.238-2.773 11.715-5.59 2.853-10.46-2.37-12.624-6.604-.827-1.617-1.406-2.753-2.144-4.413-3.844 1.962-5.095 4.365-2.999 8.47 1.183 2.315 3.328 4.358 5.573 5.304l-3.382 2.003m-14.537-26.488-1.352-4.253 3.786-1.204-.03-.094c-3.127-.446-5.773-3.105-6.829-6.424-1.962-6.169.995-10.146 7.398-12.181l14.162-4.504 1.398 4.393-12.34 3.923c-5.562 1.77-7.887 3.847-6.902 7.755 1.59 5 6.323 5.965 12.12 4.122l11.031-3.508 1.397 4.395-23.84 7.58m-20.923-31.1-.658-4.564 21.7-3.133-11.486-8.502-.897-6.213 12.632 9.921 11.915-14.953.947 6.553-11.12 12.904 12.718-1.836.66 4.563-36.41 5.26m28.441-30.398c1.145-1.834 1.691-4.442 1.67-5.766-.034-2.108-.959-4.693-3.656-4.65-4.56.075-3.99 10.906-11.003 11.02-5.198.085-7.76-3.749-7.843-8.7-.035-2.16.378-3.931.887-5.754l4.028.327c-.62 1.041-1.214 3.797-1.196 4.876.038 2.353 1.053 4.396 3.113 4.362 5.1-.084 3.45-10.894 11.443-11.026 5.345-.087 7.866 4.14 7.94 8.602.038 2.352-.168 4.759-1.262 6.887l-4.122-.179m11.451-18.442c.26-.564.54-1.323.63-2.103.453-4.095-5.049-6.09-5.537-6.144-.536-.06-1.868.385-2.73.585l-24.143 5.852.56-5.021 21.314-4.39.01-.097-19.812-9.114.515-4.631 24.38 11.99c4.587 2.238 9.895 4.654 9.222 10.7-.163 1.462-.45 2.27-.688 3.082l-3.722-.71m-8.36-26.225c1.567-1.489 2.746-3.88 3.055-5.166.492-2.051.24-4.786-2.384-5.415-4.434-1.064-6.582 9.567-13.402 7.93-5.055-1.213-6.584-5.563-5.428-10.382.505-2.097 1.345-3.712 2.294-5.35l3.818 1.32c-.86.853-2.12 3.374-2.373 4.423-.55 2.29-.076 4.522 1.927 5.003 4.96 1.19 6.06-9.693 13.832-7.828 5.2 1.248 6.588 5.97 5.547 10.31-.55 2.289-1.35 4.567-2.939 6.355l-3.948-1.2m-5.449-38.825-2.243 6.23 12.875 4.634c2.722.981 4.797-.15 5.512-2.133.481-1.339.414-2.458.232-3.254l3.69 1.33c-.07 1.069-.184 2.54-.68 3.924-1.613 4.476-4.73 6.481-9.438 4.786l-13.753-4.949-1.91 5.307-3.507-1.263 1.91-5.308-5.446-1.959.178-4.836 6.83 2.458 2.242-6.23 3.508 1.263m16.444-19.406c-3.398-1.76-7.223-1.202-9.05 2.323-2.078 4.007.372 7.376 3.09 9.172zm13.698 3.734c-.246 1.86-.3 4.097-2.197 7.755-4.087 7.881-10.75 9.012-17.979 5.264-6.574-3.41-9.089-9.962-5.838-16.231 3.838-7.404 10.48-6.999 17.621-3.296l-8.219 15.85c4.398 2.28 9.186.4 11.196-3.478 1.4-2.699 1.632-6.557 1.324-7.987l4.092 2.123m-14.794-22.504 2.714-3.355 2.822 2.283.061-.076c-1.139-3.192-.595-5.97 1.72-8.828 1.82-2.25 4.784-3.572 8.247-2.473-1.704-3.586-.319-7.323 1.1-9.078 4.01-4.954 8.662-4.154 12.893-.73L86.593 89.91l-2.9 3.582-11.588-9.377c-2.4-1.944-5.876-3.81-8.22-.912-2.962 3.659-.55 8.008 3.07 10.939l9.797 7.928-2.9 3.582-11.588-9.378c-2.4-1.943-5.875-3.808-8.22-.912-2.96 3.66-.55 8.008 3.07 10.938l9.797 7.93-2.9 3.582-19.44-15.733m51.137-38.948c-2.432-2.952-6.17-3.94-9.235-1.413-3.48 2.869-2.55 6.93-.756 9.646zm11.136 8.808c-.957 1.615-1.885 3.65-5.064 6.27-6.85 5.645-13.423 4.07-18.6-2.211-4.71-5.715-4.452-12.728 1-17.219 6.433-5.303 12.381-2.324 17.496 3.883L87.9 74.014c3.15 3.822 8.292 3.97 11.661 1.194 2.346-1.934 4.072-5.39 4.351-6.826l2.932 3.557m38.835-20.683-4.024 1.934-1.72-3.582-.09.043c-.005 3.159-2.266 6.15-5.405 7.66-5.836 2.805-10.187.433-13.099-5.623l-6.437-13.394 4.156-1.998 5.61 11.671c2.527 5.26 4.91 7.272 8.64 5.75 4.73-2.274 5.026-7.095 2.39-12.577l-5.015-10.432 4.156-1.997 10.838 22.545m.558-26.862 4.295-1.216L151.613 27l.095-.026c.547-3.111 3.288-5.672 6.637-6.62 6.23-1.763 10.11 1.318 11.94 7.784l4.047 14.298-4.436 1.256-3.527-12.458c-1.588-5.616-3.59-8.006-7.528-7.147-5.048 1.43-6.165 6.13-4.508 11.981l3.152 11.136-4.436 1.256-6.812-24.066m45.62 12.375c5.17-.54 6.782-5.886 6.347-10.033-.484-4.633-3.368-9.114-8.344-8.594-4.975.52-6.437 5.406-5.864 9.932.31 3.913 2.935 9.21 7.861 8.696zm7.471-1.175-.099.009c-1.025 1.981-3.618 4.521-8.057 4.985-7.512.786-11.38-5.566-12.09-12.346-.698-6.682 2.197-12.951 9.415-13.706 4.342-.453 7.008.994 8.662 3.139l.097-.01-1.58-15.12 4.584-.48 3.825 36.582-4.39.459-.367-3.512"></path>
    <path d="M289.514 133.055H223.83V96.322h65.684v36.733m-65.683 24.179h65.684v176.629H223.83v-176.63"></path>
  </g>
</svg>
