<?xml version="1.0" encoding="utf-8"?>
<svg xmlns="http://www.w3.org/2000/svg" xml:space="preserve" width="224.6" height="100">
  <path d="M47.3 70.3c-2.1 1.7-4.6 2.6-7 2.4-2.8-.3-4.6-1.5-7.2-4.8L19.5 51.1l-6.1 5 14.9 18.3c3.1 3.8 6.7 5.9 10.8 6.2 4.7.4 8.8-1 13-4.3 4.1-3.3 6.3-7.1 6.9-11.8.4-4.1-.8-8-3.9-11.8L40.2 34.3l-6 4.9L47.8 56c2.7 3.3 3.4 5.2 3.2 8.1-.2 2.2-1.6 4.5-3.7 6.2M188.6 88l11.3-39.3c.4-1.4.6-2.8-1.3-4.2l-1.5-1.2c-1.8-1.4-3.2-.9-4.4-.1l-34.2 22.2 7.2 4.1 24.7-16-3.9 13.5-3.2-2.5-6.5 4.3 7.6 5.8-2.2 7.6 6.4 5.8zM112.3 6.1c42.3 0 80.6 17.4 107.9 45.5l4.4-4.3C196.1 18.1 156.3 0 112.3 0S28.5 18.1 0 47.3l4.3 4.3C31.7 23.5 70 6.1 112.3 6.1m0 64.4c25.9 0 49.2 11.4 65.1 29.5l4.6-4c-17-19.3-41.9-31.6-69.6-31.6-27.7 0-52.6 12.2-69.6 31.6l4.6 4c15.7-18.1 39-29.5 64.9-29.5m33.2-43.3 14 3.7 1.8-7.1-14.3-3.7c-6.7-1.7-12.9-.1-15.1 8.1l-6.4 24.4c-.4 1.8.5 3.1 2.1 3.6l4.7 1.2 4.2-15.8 17.4 4.6 1.8-7-17.4-4.6 1-3.7c.9-3.9 2.6-4.6 6.2-3.7M97.6 15.8l-24.1 4.9c-1.7.3-2.6 1.7-2.3 3.5l5.1 24.7c1.7 8.4 7.8 10.4 14.6 9l14.7-3-1.5-7.2-14.2 2.9c-3.7.8-5.3 0-6.2-4.1l-.7-3.6 17.7-3.6-1.5-7.1-17.7 3.6-1.7-8.8 19.3-4-1.5-7.2z"/>
</svg>