<?xml version="1.0" encoding="utf-8"?>
<!-- Generator: Adobe Illustrator 23.0.1, SVG Export Plug-In . SVG Version: 6.00 Build 0)  -->
<svg version="1.1" id="Livello_1" xmlns="http://www.w3.org/2000/svg" xmlns:xlink="http://www.w3.org/1999/xlink" x="0px" y="0px"
	 width="526.3px" height="500px" viewBox="0 0 526.3 500" enable-background="new 0 0 526.3 500" xml:space="preserve">
<path d="M350.2,147.3c-0.3,0.6-0.9,1-1.5,1.1c-15.1,1.7-31.1-0.3-37.3-1.3c-10.3-10.3-21.5-21.7-29.7-31.8c-0.8-1-0.9-2.5-0.1-3.6
	c11.7-16.4,22.5-29.3,27-34.5c13-2.8,25.9-5.3,34.6-5.7c0.7,0,1.3,0.3,1.7,0.8c11.3,15.7,19.3,30.7,21.9,36.2
	C361.6,122.5,355.4,136.5,350.2,147.3z M335.8,173.8c-8.3,13.9-14.6,22.3-16.6,24.8c-2.7,3.9-9.7,14-20.6,24.2
	c-0.7,0.7-1.6,1-2.6,1.1c-13.6,0.6-26.3-0.4-31.2-1.5c-4.2-1.7-13.9-6.1-25.4-12.4c-1-0.6-1.6-1.6-1.5-2.8c0.6-8.9,3.4-21.6,5.9-35
	c6.2-10.8,12.6-23.2,19.2-33.4c0.7-1.1,2-1.6,3.2-1.2c19.9,5.4,37.1,9.5,44.1,11.1c9.6,11.1,18.9,18.9,25.1,23.8
	C335.9,172.8,336,173.4,335.8,173.8z M215.5,193.1c-1,0.6-2.3,0.6-3.3-0.1c-8.7-6.1-19-14-27.6-22c-5.1-8.7-9-19.8-11.7-29.2
	c-0.2-0.6,0-1.3,0.4-1.8c9.7-11.9,21.2-21.3,26.1-24.8c10.9,4.7,23.5,8.9,34.4,12.5c1.1,0.4,1.9,1.4,2,2.6
	c1.5,19.5,5.1,35.3,6.1,41.3C237.8,176,227.1,185.9,215.5,193.1z M167.4,116.3c-1.4-9.2-2.4-18.9-2.5-23.3
	c-0.2-10.2,1.4-19.3,3.3-27.7c0.3-1.4,1-2.6,2.1-3.6c5.5-5,15.4-13.9,21.7-17.9c5.9-3.8,22.3-9.1,29.1-11c1.3-0.4,2.7,0.2,3.4,1.4
	c0.8,1.4,1.7,2.8,2.6,4.2c5.3,8.3,11.2,15.4,13.7,18.5c-3.3,13-4.7,27.6-5.3,39.9c-0.1,1.2-0.8,2.2-1.9,2.6
	c-17.1,6.7-30,11.9-34.4,13.9c-11.8,0.5-22.9,2.5-30.5,3.8C168,117.2,167.5,116.9,167.4,116.3z M253.7,27.1c0.5-0.7,1.2-1.2,2.1-1.3
	c17.6-2.3,33.7-2.7,39.9-2.5c11.3,7.5,22.3,17.4,31,26.7c0.6,0.7,0.7,1.6,0.2,2.4c-6.3,9.8-15.4,19.2-19.4,23.3
	c-14.8,3.5-30.6,8.6-43.3,12.8c-1.2,0.4-2.6-0.1-3.3-1.1c-9.7-14.1-15.8-26.1-18.3-30.6C245.2,45,248.8,34.6,253.7,27.1z
	 M371.2,142.6c-0.3,0.1-0.7-0.1-0.7-0.4c-0.7-14.4-2.1-28.5-2.8-33.6c0.1-12.5-2-25.4-4.1-35c-0.1-0.3,0.2-0.7,0.6-0.6
	c11.8,2.4,15.6,6.8,15.6,6.8c-6.3-14-15.3-24.6-25-32.5c-8.4-17.5-18-25.6-18-25.6c0.8,3.9,0.2,8.3-1.1,12.8
	c-0.1,0.3-0.4,0.4-0.7,0.3c-16-7.8-32.6-11.4-39-12.3c-9.6-4.7-20-7.7-28.5-10.1c-0.2-0.1-0.3-0.4-0.1-0.5
	c11.3-9.4,21.7-11.7,21.7-11.7c-18.4-0.7-34.2,2.6-47.4,7.7c-19.8-1.6-32.4,1.9-32.4,1.9s5.5,6.5,7.6,10.2c0.3,0.4,0.1,1-0.3,1.3
	c-12.4,8.6-21.3,18.1-24.9,22c-3.9,0.5-10.7,1.5-16.6,2.9c-0.2,0.1-0.4-0.2-0.3-0.4c5.9-14.1,12.4-21.9,12.4-21.9
	s-38.1,27.1-45.4,75.7c0,0,3.1-8.6,13.8-21.7c0.1-0.2,0.4-0.1,0.5,0.1c3,6.7,6.4,12.6,8.2,15.3c-5.8,9.4-9.9,19.6-12.4,28
	c-0.1,0.3-0.3,0.5-0.6,0.6c-8.8,3.4-11.1,6.5-11.1,6.5c1.4,4.7,4.1,9.3,7.5,13.6c0.3,0.4,0.4,0.8,0.4,1.3
	c-0.9,20.8,5.8,34.4,5.8,34.4c1.5-7.2,4.5-14.3,8.2-20.9c0.1-0.3,0.5-0.3,0.7-0.1c8.7,6.9,17.7,13,21.3,15.1
	c1.8,4.7,7.1,17,14.2,29.5c0.1,0.3,0,0.6-0.3,0.7c-8.5,3.1-17.2,4.5-25.1,2.5c0,0,9.6,12,39.2,17.1c8.2,9.7,18.2,17.7,29.9,20.5
	c0,0-3.4-3.8-4.3-17.8c0-0.3,0.2-0.5,0.5-0.5c7.3,0.1,17.2,0.3,26.3-0.4c3.2,2.5,10.2,8.1,17.1,11.7c0.3,0.2,0.4,0.7,0,0.9
	c-12,7.3-20.1,7.9-20.1,7.9c54.6,1.2,87.3-34.4,87.3-34.4c-9,5.9-19.4,9.6-29.7,11.8c-0.3,0.1-0.7-0.2-0.6-0.6
	c1.9-9.3,1.4-18.2,1.2-21.4c12.9-3.2,24.2-9,32.6-14.9c0.2-0.1,0.4-0.1,0.6,0c3.5,2.4,6.5,5.1,9.4,9.7c0,0,5.7-8,7.6-26.5
	c14-18.3,16.1-37,16.1-37C382.7,135.8,377.4,139.8,371.2,142.6z M263.1,323.1c-23.4,0-44.6,10.4-57.6,25.9l4.1,5.1
	c11.8-14.6,31.8-24.6,53.5-24.6c21.7,0,41.7,10,53.5,24.6l4.1-5.1C307.8,333.5,286.5,323.1,263.1,323.1z M208.4,326.4
	c-1.5,1.2-3.3,1.9-4.9,1.7c-2-0.2-3.2-1-5.2-3.5l-11.5-14.1l-6.2,5l12.5,15.3c2.7,3.2,5.7,5,9.3,5.3c0.4,0,0.8,0.1,1.3,0.1
	c3.5,0,6.7-1.2,9.8-3.7c3.5-2.8,5.4-6.1,5.8-10c0.4-3.6-0.7-6.9-3.3-10.1L203.4,297l-6.2,5l11.5,14.1v0c2,2.4,2.6,3.8,2.4,5.8
	C210.9,323.5,209.9,325.1,208.4,326.4z M250.7,282l-20,4.1c-0.9,0.2-1.6,0.6-2.1,1.3c-0.5,0.7-0.6,1.5-0.4,2.4l4,19.6
	c0.7,3.2,2.1,5.5,4.3,6.8c1.4,0.9,3.2,1.3,5.2,1.3c1,0,2.1-0.1,3.2-0.4l12.5-2.5l-1.5-7.4l-12.2,2.5c-2.5,0.5-3.3,0.2-3.9-2.6
	l-0.4-2.1l14.1-2.9l-1.5-7.3l-14.1,2.9l-1.1-5.3l15.4-3.1L250.7,282z M289.7,292.7l12,3.1l1.9-7.3l-12.4-3.2
	c-6.8-1.8-11.4,0.8-13.1,7.1l-5,19.4c-0.2,0.9-0.1,1.7,0.3,2.5c0.4,0.7,1.1,1.2,2,1.4l4.6,1.2l3.3-12.6l13.9,3.6l1.9-7.2l-13.9-3.6
	l0.5-2.1C286.4,292.3,287.2,292.1,289.7,292.7z M352,310.5l4.2-5.2c-2.1-2.1-4.3-4.1-6.6-6.1c-23.7-20.4-54.5-31.7-86.6-31.7
	c-32.1,0-62.8,11.3-86.6,31.7c-2.3,2-4.5,4-6.6,6.1l4.2,5.2c2.1-2.2,4.4-4.3,6.7-6.3c22.5-19.4,51.7-30.1,82.2-30.1
	s59.7,10.7,82.2,30.1C347.6,306.2,349.9,308.3,352,310.5z M319.7,336.4l1.4-4.7l-5.9-4.4l4.8-3.4l2.8,2.1l3.1-10.5l-18.2,11.7
	l-7.5-4.2l28.5-18.4c1.1-0.7,2.6-1.3,4.5,0.1l1.2,0.9c1.9,1.5,1.6,3.2,1.3,4.3l-9.5,32.5L319.7,336.4z M185.4,490.4h-21v-16.1h12.5
	l5.1,4.4h0.2v-16.5H182l-5.1,4.4h-12.5v-14h20.3l5.9,6.3h0.2l-0.7-13.9h-43.3v0.2l4,4.8v43.3l-4,4.8v0.2h45.1l1.1-16h-0.2
	L185.4,490.4z M193.3,383.2l14.9,38h8.3l13.8-38.4l2.4,33.4l-5.2,4.8v0.2h22.6V421l-4.4-4.8l-3.2-43.3l3.5-4.8V368h-18.9l-12.8,35.5
	L200.6,368h-19.1v0.2l3.9,4.8l-2.3,43.3l-4.6,4.8v0.2H197V421l-4.6-4.8L193.3,383.2z M130.7,490.3h-18.3v-40.5l5-4.8v-0.2H94.8v0.2
	l4,4.8v43.3l-4,4.7v0.3h42.3l2-16.7H139L130.7,490.3z M89.9,421v0.2h21.5V421l-4-4.8v-43.3l4-4.8V368H89.9v0.2l3.9,4.8V389H74.7
	v-16.1l3.9-4.8V368H57.1v0.2l4,4.8v43.3l-4,4.8v0.2h21.5V421l-3.9-4.8v-18.7h19.1v18.7L89.9,421z M425.1,490.4h-21v-16.1h12.5
	l5.1,4.4h0.2v-16.5h-0.2l-5.1,4.4h-12.5v-14h20.3l5.9,6.3h0.2l-0.7-13.9h-43.3v0.2l4,4.8v43.3l-4,4.8v0.2h45.1l1.1-16h-0.2
	L425.1,490.4z M232,476.9l-6.3-21.2l-7.4,21.2H232z M250.8,493.2l4.4,4.8v0.2h-22.8V498l4.4-4.8l-2.4-8.3h-18.9l-2.9,8.3l4.1,4.8
	v0.2h-17.8V498l4.2-4.8l16.4-43.3l-3.1-4.8v-0.2h18.1L250.8,493.2z M32.2,414.2c-10.9,0-17.9-11.1-17.9-20.7
	c0-11.8,6.4-19.4,15.6-19.4c2.4,0,4.8,0.3,6.9,0.8l8.2,10.2h0.2l-0.6-16.8c-2.4-0.9-7.5-2.2-13.8-2.2C11.2,366.1,0,379.4,0,394.7
	C0,409.8,10.8,423,29.3,423c5,0,12.3-1.7,17.3-5.5l0.8-8.8h-0.2C42.9,412.1,36.8,414.2,32.2,414.2z M338.7,421l-3.9-4.8v-43.3
	l3.9-4.8V368h-21.5v0.2l4,4.8v43.3l-4,4.8v0.2h21.5V421z M291.6,473.2l5.3,4.8v10c-1.7,1.9-4.6,3.5-8.6,3.5
	c-9.4,0-14.4-11.5-14.4-21.2c0-10.5,5.3-19.3,16.2-19.3c3,0,6.2,0.3,8.8,1.2l8.4,9.1h0.2l-0.5-14.6c-4.9-2.5-10.8-3.6-16.7-3.6
	c-17.9,0-30.6,11-30.6,29.1c0,15.2,9.8,27.8,25,27.8c6.7,0,12.7-1.5,18.3-5.6l6.6,5.6h0.2v-22l4.2-4.8V473h-22.5V473.2z
	 M277.6,395.3c1.7,0.5,3.6,0.8,5.6,0.8c7.4,0,10.6-4,10.6-10c0-7.1-4.1-10.4-11.8-10.4h-4.5V395.3z M264,416.2v-43.3l-4-4.8V368
	h25.3c15.3,0,22.3,7,22.3,17.6c0,11-8.3,17.8-19.7,17.8c-3.7,0-7.5-0.3-10.3-0.9v13.9l5.6,4.8v0.2h-23.1V421L264,416.2z
	 M391.2,398.4c0-9.2-3.4-23.9-15.2-23.9c-9.4,0-12.1,9.4-12.1,15.8c0,9.3,3.9,24.4,15.2,24.4C387.2,414.7,391.2,406.9,391.2,398.4z
	 M377,423c-16.7,0-27.4-13.7-27.4-29.2c0-16,12.4-27.7,27.9-27.7c17.1,0,28,13.4,28,28.6C405.5,412.2,392.3,423,377,423z
	 M359.2,445.1l4.4,4.8v30.3c0,8.7-4.3,10.9-11.3,10.9c-7.1,0-11.4-2-11.4-10.9v-30.3l4.4-4.8v-0.2h-22v0.2l4,4.8v30.3
	c0,14.5,7.4,19.8,23.2,19.8c14.4,0,21.7-5,21.7-19.4v-30.7l3.9-4.8v-0.2h-16.9V445.1z M460.9,451.6c0-3.8-2.9-6.6-6.5-6.6
	c-3.7,0-6.5,2.9-6.5,6.6c0,3.9,2.9,6.7,6.5,6.7C458,458.3,460.9,455.5,460.9,451.6z M462.5,451.6c0,4.6-3.8,8-8.1,8
	c-4.4,0-8.2-3.4-8.2-8c0-4.6,3.7-8,8.2-8C458.8,443.6,462.5,447,462.5,451.6z M454.4,451.1c1.2,0,2.2-0.1,2.2-1.5c0-1.1-1-1.4-2-1.4
	h-1.9v2.8H454.4z M455.7,452.2l2.6,4.1h-1.6l-2.4-4h-1.6v4h-1.4V447h3.5c2.2,0,3.3,0.8,3.3,2.6C458.1,451.3,457,452,455.7,452.2z
	 M452.2,368.1l5.1,4.8v28.2L435.7,368h-19.4v0.2l4,4.8v43.3l-4,4.8v0.2H434V421l-5.2-4.8V381l27,40.2h10.1v-48.3l4-4.8V368h-17.7
	V368.1z M506.5,388.5c-9.7-2.7-12.6-3.9-12.6-8.3c0-5.1,6.7-6.1,10.9-6.1c3.5,0,6.8,0.4,9.8,1.3l8.1,8.7h0.2l-0.7-15
	c-5.1-1.9-10.4-2.9-16.4-2.9c-12.7,0-24.9,4.4-24.9,17c0,8.1,5.6,13,17.8,16.4c9.4,2.6,14.1,4.3,14.1,9.1c0,5.5-7.1,6.7-11.8,6.7
	c-4,0-7.5-0.6-10.5-1.5l-8.2-10.1H482l0.6,16c5.6,2.5,12.3,3.4,18.6,3.4c13.6,0,25.1-5.7,25.1-17.2
	C526.3,395,518.8,391.9,506.5,388.5z M136.9,400h13.7l-6.3-21.2L136.9,400z M135.4,421.2h-17.8V421l4.2-4.8l16.4-43.3l-3.1-4.8V368
	h18.1l16.3,48.3l4.4,4.8v0.2h-22.8V421l4.4-4.8l-2.4-8.3h-18.9l-2.9,8.3l4.1,4.8V421.2z"/>
</svg>
