<?xml version="1.0" encoding="utf-8"?>
<!-- Generator: Adobe Illustrator 17.0.0, SVG Export Plug-In . SVG Version: 6.00 Build 0)  -->
<!DOCTYPE svg PUBLIC "-//W3C//DTD SVG 1.1//EN" "http://www.w3.org/Graphics/SVG/1.1/DTD/svg11.dtd">
<svg version="1.1" id="_x32_3_European_Under-17_Championship"
	 xmlns="http://www.w3.org/2000/svg" xmlns:xlink="http://www.w3.org/1999/xlink" x="0px" y="0px" width="300px" height="300px"
	 viewBox="0 0 300 300" enable-background="new 0 0 300 300" xml:space="preserve">
<g id="WCL">
	<g id="g3403">
		<path id="path3405" d="M143.616,123.17l-9.281,1.856l0.844,4.162l8.494-1.687l0.675,3.374l-8.55,1.687l0.395,1.743
			c0.056,0.393,0.168,0.676,0.28,0.956c0.113,0.282,0.226,0.451,0.394,0.619c0.17,0.169,0.338,0.282,0.507,0.337
			c0.225,0.056,0.45,0.113,0.674,0.113c0.056,0,0.169,0,0.225,0c0.057,0,0.169,0,0.281,0c0.056,0,0.169,0,0.282-0.057
			c0.113,0,0.169-0.056,0.282-0.056l6.862-1.35l0.674,3.431l-7.031,1.407c-0.169,0.056-0.338,0.056-0.45,0.056
			c-0.169,0-0.282,0.056-0.451,0.056c-0.169,0-0.282,0.056-0.45,0.056c-0.169,0-0.281,0-0.449,0c-0.619,0-1.238-0.056-1.801-0.225
			c-0.562-0.169-1.068-0.393-1.518-0.787c-0.451-0.338-0.845-0.788-1.181-1.406c-0.337-0.563-0.563-1.237-0.731-2.081l-2.419-11.756
			c-0.056-0.224-0.056-0.393,0-0.562c0.055-0.169,0.113-0.337,0.169-0.506c0.112-0.169,0.225-0.282,0.393-0.337
			c0.17-0.113,0.338-0.169,0.506-0.225l11.588-2.306L143.616,123.17z M125.055,153.826c2.305-1.688,4.837-3.206,7.481-4.387
			c2.643-1.238,5.456-2.137,8.381-2.813c2.924-0.619,5.963-0.957,9.111-0.957c3.093,0,6.188,0.338,9.112,0.957
			c2.925,0.675,5.739,1.574,8.382,2.813c2.644,1.181,5.175,2.7,7.481,4.387c2.307,1.687,4.444,3.656,6.355,5.793l2.194-1.912
			c-2.025-2.307-4.332-4.387-6.806-6.187c-2.476-1.857-5.176-3.432-7.988-4.726c-2.867-1.293-5.848-2.306-8.999-2.982
			c-3.149-0.674-6.357-1.068-9.731-1.068c-3.319,0-6.581,0.394-9.73,1.068c-3.15,0.675-6.131,1.688-8.999,2.982
			c-2.869,1.293-5.512,2.869-7.988,4.726c-2.475,1.855-4.78,3.937-6.806,6.187l2.193,1.912
			C120.554,157.482,122.692,155.513,125.055,153.826 M110.711,148.706c0.394,0.338,0.788,0.619,1.237,0.901
			c0.451,0.225,0.9,0.45,1.35,0.563c0.451,0.169,0.956,0.225,1.462,0.282c0.056,0,0.113,0,0.169,0c0.056,0,0.112,0,0.168,0
			c0.056,0,0.113,0,0.225,0c0.056,0,0.113,0,0.169,0c0.507,0,0.957-0.057,1.406-0.113c0.451-0.112,0.901-0.225,1.407-0.394
			c0.449-0.168,0.899-0.394,1.349-0.675c0.45-0.224,0.9-0.563,1.35-0.901c0.506-0.393,0.956-0.787,1.294-1.237
			c0.393-0.394,0.674-0.845,0.956-1.349c0.282-0.45,0.506-0.956,0.676-1.464c0.169-0.506,0.282-1.012,0.337-1.574
			c0.056-0.506,0.056-0.957,0-1.462c-0.056-0.507-0.169-0.957-0.337-1.407c-0.17-0.45-0.394-0.956-0.619-1.407
			c-0.225-0.45-0.563-0.899-0.957-1.349l-7.2-8.662l-2.924,2.306l6.581,7.931c0.338,0.394,0.619,0.732,0.787,1.069
			c0.226,0.338,0.393,0.619,0.507,0.957c0.113,0.281,0.169,0.563,0.225,0.9c0.056,0.281,0.056,0.619,0,0.956
			c0,0.282-0.112,0.564-0.169,0.788c-0.112,0.281-0.224,0.505-0.393,0.787c-0.169,0.281-0.337,0.506-0.563,0.731
			c-0.225,0.225-0.45,0.45-0.674,0.675c-0.226,0.169-0.451,0.337-0.675,0.507c-0.226,0.112-0.506,0.224-0.733,0.337
			c-0.225,0.112-0.505,0.169-0.73,0.225c-0.225,0.057-0.506,0.057-0.73,0.057h-0.057c-0.056,0-0.113,0-0.113,0h-0.113
			c-0.056,0-0.056,0-0.112,0c-0.337-0.056-0.62-0.112-0.957-0.225c-0.282-0.112-0.562-0.225-0.844-0.393
			c-0.282-0.17-0.505-0.394-0.788-0.676c-0.281-0.281-0.563-0.619-0.901-0.956l-6.58-7.931l-2.925,2.306l7.199,8.662
			C109.924,147.919,110.317,148.312,110.711,148.706 M166.116,121.596c-0.169-0.057-0.394-0.057-0.564-0.113
			c-0.168-0.056-0.394-0.056-0.562-0.056c-0.168,0-0.394,0-0.562,0c-0.563,0-1.124,0.056-1.631,0.225
			c-0.506,0.169-1.012,0.394-1.464,0.731c-0.448,0.338-0.843,0.788-1.18,1.294c-0.337,0.506-0.619,1.181-0.787,1.912l-3.094,11.586
			c-0.056,0.225-0.056,0.395-0.056,0.62c0,0.169,0.056,0.337,0.169,0.505c0.112,0.169,0.226,0.282,0.394,0.394
			c0.169,0.113,0.337,0.169,0.506,0.225l2.249,0.563l1.969-7.481l8.437,2.138l0.9-3.319l-8.381-2.137l0.45-1.744
			c0.112-0.337,0.225-0.618,0.282-0.899c0.113-0.225,0.282-0.45,0.393-0.62c0.169-0.168,0.338-0.282,0.507-0.336
			c0.225-0.057,0.393-0.113,0.673-0.113c0.057,0,0.169,0,0.282,0c0.111,0,0.169,0,0.282,0c0.112,0,0.168,0.056,0.281,0.056
			s0.225,0.057,0.337,0.057l6.75,1.743l0.901-3.375l-6.975-1.8C166.509,121.707,166.341,121.652,166.116,121.596 M108.799,127.726
			c3.881-2.643,8.1-4.893,12.487-6.806c4.388-1.856,9.057-3.319,13.838-4.275c4.837-0.956,9.788-1.519,14.905-1.519
			c5.063,0,10.069,0.506,14.851,1.519c4.781,1.012,9.392,2.418,13.836,4.275c4.389,1.857,8.549,4.163,12.486,6.806
			c3.882,2.644,7.538,5.624,10.801,8.944l2.081-2.025c-3.431-3.487-7.201-6.58-11.25-9.338c-4.051-2.756-8.381-5.119-12.995-7.03
			c-4.556-1.913-9.393-3.432-14.398-4.444c-5.007-1.012-10.182-1.574-15.468-1.574c-5.288,0-10.463,0.562-15.469,1.574
			c-5.007,1.012-9.787,2.531-14.4,4.444c-4.556,1.968-8.943,4.33-12.994,7.03c-4.049,2.757-7.818,5.851-11.25,9.338l2.081,2.025
			C101.262,133.351,104.917,130.37,108.799,127.726 M186.758,153.938l5.456-18.619c0.058-0.169,0.113-0.337,0.113-0.507
			c0-0.169,0-0.337,0-0.506c-0.055-0.168-0.113-0.337-0.223-0.506c-0.113-0.169-0.283-0.337-0.507-0.506l-0.733-0.563
			c-0.111-0.056-0.168-0.112-0.28-0.169c-0.113-0.057-0.169-0.112-0.282-0.112c-0.112,0-0.167-0.057-0.281-0.057
			c-0.111,0-0.169,0-0.225,0c-0.112,0-0.169,0-0.281,0.057c-0.113,0-0.169,0.056-0.281,0.056c-0.056,0.056-0.169,0.056-0.282,0.113
			c-0.055,0.056-0.169,0.112-0.225,0.112l-16.48,10.519l3.487,1.913l11.924-7.593l-1.855,6.412l-1.519-1.181l-3.149,2.025
			l3.656,2.756l-1.067,3.6L186.758,153.938z M162.234,3.305c-0.901,3.318-1.911,7.706-3.094,10.968
			c-3.205-0.169-5.849-0.281-9.112-0.225c2.419,1.911,4.331,4.049,6.862,6.3c-1.123,3.263-2.981,8.156-4.163,11.306
			c2.814-1.687,6.863-4.669,9.619-6.357c2.587,2.306,6.131,5.119,8.999,7.65c-1.013-3.994-2.418-8.212-3.262-11.812
			c2.7-1.913,4.556-3.375,7.142-5.287c-3.317-0.506-6.525-0.845-9.786-1.125C164.54,11.236,163.359,6.681,162.234,3.305
			 M128.542,32.948c2.868-2.531,6.412-5.344,8.999-7.65c2.812,1.743,6.806,4.725,9.618,6.357c-1.182-3.206-3.038-8.044-4.163-11.306
			c2.475-2.25,4.388-4.388,6.863-6.3c-3.262-0.056-5.906,0.056-9.112,0.225c-1.125-3.262-2.138-7.593-3.038-10.968
			c-1.124,3.375-2.306,7.931-3.262,11.361c-3.263,0.337-6.469,0.619-9.788,1.126c2.588,1.969,4.443,3.375,7.143,5.287
			C130.96,24.68,129.611,28.954,128.542,32.948 M227.313,26.198c0,0,0.169,2.644,0.224,4.387c0,1.406,0.056,3.038-0.056,4.612
			c-0.674-0.563-1.52-1.294-2.138-1.912c-1.63-1.463-4.499-3.487-4.499-3.487s1.687,2.081,2.7,5.625
			c1.237,4.219-0.057,7.594-0.337,8.269c-0.225,0.169-0.45,0.338-0.733,0.505c-2.417,1.463-4.498,2.475-5.455,2.926
			c0.562,0.843,5.85,7.255,6.189,7.761c0,0,1.463,7.088-1.518,15.807c-1.351,3.993-3.207,7.087-3.207,7.087
			c0.844-0.788,4.894-4.838,8.043-11.306C226.526,66.472,239.351,44.648,227.313,26.198 M82.925,47.123
			c-0.957-0.451-3.038-1.407-5.456-2.926c-0.282-0.168-0.506-0.337-0.731-0.505c-0.282-0.675-1.519-4.05-0.338-8.269
			c1.012-3.543,2.7-5.625,2.7-5.625s-2.869,2.024-4.501,3.487c-0.618,0.563-1.518,1.293-2.137,1.912
			c-0.112-1.574-0.056-3.206-0.056-4.612c0.056-1.743,0.226-4.387,0.226-4.387c-12.038,18.449,0.786,40.274,0.786,40.274
			c3.15,6.412,7.2,10.519,8.043,11.306c0,0-1.855-3.038-3.205-7.087c-2.982-8.719-1.519-15.75-1.519-15.75
			C77.075,54.434,82.362,47.966,82.925,47.123 M176.691,57.697c-6.751,0.844-13.275,1.576-20.081,1.632
			c-2.025-6.693-4.557-14.794-6.694-21.543c-2.083,6.693-4.612,14.85-6.694,21.543l-20.024-1.632
			c5.456,5.344,9.844,9.844,14.849,14.681c-2.53,6.637-6.186,16.986-8.55,23.569c5.57-3.6,14.57-9,20.362-12.768
			c5.682,3.655,14.849,9.168,20.418,12.768c-2.249-6.525-6.076-16.987-8.551-23.569C167.016,67.485,171.402,62.929,176.691,57.697
			 M215.108,48.022c0.282-4.555-0.224-9.449-0.45-13.836c2.194-1.688,3.994-2.757,6.133-4.387c-2.419-1.463-5.231-3.038-7.482-3.938
			c-0.789-4.442-1.913-8.888-3.376-13.218c-0.225,3.656-0.73,7.481-1.518,11.194c-2.419-0.957-4.893-1.688-7.257-2.475l0,0
			c-3.374-1.069-6.804-1.912-9.899-2.644c-1.237-4.051-2.811-8.324-4.5-12.262c-0.393,3.545-1.18,7.256-2.08,10.8
			c-3.205-0.507-6.244-1.181-9.394-1.519c2.531,2.588,4.895,4.556,7.426,7.48c-1.069,3.544-1.856,7.537-3.151,11.026
			c2.87-1.744,5.4-3.488,8.212-5.288c2.475,2.926,4.726,5.963,6.921,9.112c-0.281-4.218-0.507-8.212-1.182-12.486
			c4.331-2.869,6.636-3.601,7.706-4.276c1.968,3.206,3.937,5.513,5.681,8.887c-1.237,4.895-2.532,8.438-3.375,11.081
			c2.193-1.518,4.105-2.868,6.3-4.386c1.518,3.318,3.824,7.48,5.175,11.08c-3.825,1.631-7.707,2.982-11.813,4.162
			c-1.575-5.85-4.105-12.543-6.637-17.436c-0.788,5.794-1.855,12.824-3.541,19.968c-5.402,1.182-10.463,2.025-16.257,2.869
			c4.669,3.825,8.044,7.199,11.925,10.406c-2.307,7.313-6.467,20.419-8.888,26.494c5.906-5.176,14.231-13.107,18.956-18.731
			c3.544,2.418,8.549,5.963,11.531,8.212c-0.674-5.4-2.644-15.187-3.826-20.643c4.052-5.792,6.75-10.293,10.631-16.142
			C216.344,47.516,215.726,47.741,215.108,48.022 M106.999,54.829c-1.687-7.143-2.756-14.174-3.543-19.969
			c-2.532,4.894-5.063,11.532-6.638,17.438c-4.106-1.238-7.988-2.587-11.812-4.163c1.406-3.601,3.712-7.763,5.231-11.081
			c2.193,1.519,4.105,2.869,6.3,4.388c-0.9-2.644-2.137-6.189-3.375-11.081c1.688-3.431,3.712-5.737,5.682-8.887
			c0.619,0.393,3.375,1.406,7.65,4.275c-0.675,4.274-0.9,8.269-1.182,12.486c2.194-3.149,4.443-6.187,6.919-9.112
			c2.813,1.801,5.399,3.543,8.212,5.288c-1.293-3.487-2.136-7.481-3.15-11.026c2.531-2.869,4.838-4.837,7.425-7.48
			c-3.15,0.337-6.132,1.012-9.394,1.519c-0.9-3.375-1.631-6.975-2.025-10.406c-0.056-0.057-0.113-0.057-0.169-0.113
			c-1.631,3.825-3.15,8.044-4.387,11.981c-3.15,0.731-6.525,1.519-9.9,2.643l0,0c-2.362,0.788-4.78,1.519-7.256,2.419
			c-0.731-3.656-1.294-7.481-1.518-11.194c-1.462,4.332-2.588,8.775-3.376,13.219c-2.249,0.9-5.062,2.475-7.481,3.937
			c2.138,1.631,3.994,2.7,6.132,4.387c-0.226,4.388-0.732,9.281-0.451,13.837c-0.674-0.281-1.293-0.507-1.912-0.788
			c3.882,5.851,6.583,10.35,10.632,16.143c-1.181,5.456-3.15,15.3-3.826,20.643c2.982-2.25,7.932-5.736,11.532-8.212
			c4.724,5.682,13.049,13.556,18.955,18.731c-2.362-6.074-6.58-19.18-8.888-26.493c3.882-3.206,7.257-6.58,11.925-10.406
			C117.46,56.91,112.342,56.01,106.999,54.829 M235.975,284.209h4.501v12.093h2.53v-12.093h4.5v-2.137h-11.531L235.975,284.209
			L235.975,284.209z M256.788,293.209L256.788,293.209l-3.937-11.137h-3.488v14.229h2.362v-10.968h0.056l3.939,10.968h2.024
			l3.937-10.968h0.056v10.968h2.363v-14.229h-3.488L256.788,293.209z M33.933,248.041c-0.338,0-0.451,0.169-0.563,0.9
			c-0.169,0.789-0.731,2.081-1.519,2.926c-1.8,2.081-4.218,2.531-8.156,2.531c-5.962,0-14.062-5.288-14.062-15.919
			c0-4.331,0.844-8.55,4.107-11.587c1.968-1.801,4.499-2.756,8.381-2.756c4.106,0,7.594,1.238,9.056,2.756
			c1.124,1.183,1.687,2.756,1.744,4.105c0,0.62,0.111,1.014,0.449,1.014c0.394,0,0.507-0.337,0.563-1.014
			c0.113-0.899,0.056-3.317,0.113-4.836c0.057-1.577,0.225-2.079,0.225-2.475c0-0.282-0.169-0.507-0.675-0.563
			c-1.35-0.113-2.756-0.507-4.443-0.731c-2.138-0.224-3.769-0.395-6.525-0.395c-6.637,0-10.913,1.801-14.119,4.726
			c-4.275,3.936-5.231,9.225-5.231,12.261c0,4.332,1.181,9.339,5.512,13.161c4.049,3.546,9.168,4.838,15.3,4.838
			c2.868,0,6.244-0.337,8.044-1.012c0.731-0.338,0.956-0.507,1.125-1.294c0.451-1.518,0.957-5.4,0.957-5.962
			C34.326,248.378,34.214,248.041,33.933,248.041 M73.926,255.522c-0.676,0-1.631-0.057-2.306-0.168
			c-1.349-0.17-1.575-1.183-1.743-2.42c-0.225-1.913-0.225-5.456-0.225-9.561v-7.875c0-6.806,0-8.044,0.113-9.448
			c0.113-1.576,0.45-2.306,1.687-2.532c0.507-0.113,0.957-0.169,1.295-0.169c0.505,0,0.788-0.057,0.788-0.394
			c0-0.282-0.338-0.394-0.956-0.394c-1.744,0-4.556,0.112-5.625,0.112c-1.237,0-3.994-0.112-6.412-0.112
			c-0.62,0-0.956,0.112-0.956,0.394c0,0.337,0.281,0.394,0.731,0.394c0.619,0,1.407,0.056,1.744,0.169
			c1.462,0.336,1.855,1.013,1.912,2.532c0.056,1.405,0.056,2.7,0.056,9.448v0.957c0,0.225-0.113,0.337-0.282,0.337H46.759
			c-0.113,0-0.282-0.111-0.282-0.337v-0.957c0-6.806,0-8.044,0.112-9.448c0.113-1.576,0.451-2.306,1.631-2.532
			c0.507-0.113,0.957-0.169,1.294-0.169c0.564,0,0.787-0.057,0.787-0.394c0-0.282-0.337-0.394-0.956-0.394
			c-1.744,0-4.556,0.112-5.625,0.112c-1.237,0-3.994-0.112-6.412-0.112c-0.619,0-0.956,0.112-0.956,0.394
			c0,0.337,0.281,0.394,0.787,0.394c0.619,0,1.35,0.056,1.744,0.169c1.463,0.336,1.8,1.013,1.913,2.532
			c0.056,1.405,0.056,2.7,0.056,9.448v7.875c0,4.105,0,7.649-0.225,9.506c-0.17,1.292-0.395,2.306-1.295,2.475
			c-0.394,0.111-0.956,0.168-1.63,0.168c-0.507,0-0.732,0.111-0.732,0.338c0,0.336,0.338,0.45,0.901,0.45
			c1.799,0,4.611-0.113,5.624-0.113c1.238,0,4.049,0.113,6.975,0.113c0.562,0,0.9-0.113,0.9-0.45c0-0.227-0.226-0.338-0.731-0.338
			c-0.675,0-1.632-0.057-2.25-0.168c-1.351-0.17-1.632-1.183-1.745-2.42c-0.225-1.913-0.225-5.456-0.225-9.561v-3.937
			c0-0.226,0.113-0.281,0.282-0.281h17.043c0.113,0,0.282,0.11,0.282,0.281v3.937c0,4.105,0,7.649-0.225,9.506
			c-0.169,1.292-0.393,2.306-1.293,2.475c-0.394,0.111-0.956,0.168-1.631,0.168c-0.563,0-0.732,0.111-0.732,0.338
			c0,0.336,0.338,0.45,0.957,0.45c1.744,0,4.555-0.113,5.568-0.113c1.237,0,4.05,0.113,6.975,0.113c0.563,0,0.9-0.113,0.9-0.45
			C74.599,255.692,74.375,255.522,73.926,255.522 M101.262,254.454l-3.543-9.452c-0.112-0.225-0.226-0.337-0.45-0.337h-9.956
			c-0.225,0-0.338,0.112-0.394,0.337l-2.418,6.414c-0.45,1.125-0.674,2.193-0.674,2.7c0,0.788,0.394,1.406,1.799,1.406h0.675
			c0.563,0,0.675,0.111,0.675,0.338c0,0.336-0.282,0.45-0.732,0.45c-1.463,0-3.374-0.113-4.725-0.113
			c-0.507,0-2.925,0.113-5.287,0.113c-0.563,0-0.845-0.113-0.845-0.45c0-0.282,0.169-0.338,0.507-0.338
			c0.393,0,1.012-0.057,1.407-0.057c2.08-0.281,2.925-1.8,3.769-3.994l11.193-28.068c0.507-1.292,0.787-1.798,1.237-1.798
			c0.394,0,0.675,0.392,1.125,1.405c1.069,2.475,8.212,20.644,11.081,27.448c1.687,3.996,2.981,4.67,3.938,4.896
			c0.674,0.111,1.349,0.168,1.855,0.168c0.338,0,0.563,0.056,0.563,0.337c0,0.337-0.393,0.451-2.025,0.451
			c-1.63,0-4.837,0-8.438-0.113c-0.787-0.056-1.349-0.056-1.349-0.336c0-0.282,0.169-0.338,0.619-0.395
			C101.205,255.409,101.487,255.016,101.262,254.454 M96.65,242.192l-4.05-11.024c-0.056-0.171-0.056-0.394-0.224-0.394
			c-0.113,0-0.226,0.223-0.282,0.394l-4.105,10.967c-0.056,0.169,0,0.338,0.168,0.338h8.213
			C96.65,242.472,96.65,242.303,96.65,242.192 M158.41,256.366c0.62,0,1.18-0.113,1.18-0.506c0-0.282-0.337-0.338-0.732-0.338
			c-0.563,0-1.461-0.057-2.755-0.451c-1.35-0.393-1.801-1.686-2.194-4.499l-4.05-27.617c-0.113-0.957-0.395-1.406-0.787-1.406
			c-0.394,0-0.62,0.337-0.956,1.067l-12.15,25.482L123.76,223.01c-0.562-1.182-0.843-1.405-1.181-1.405
			c-0.337,0-0.619,0.392-0.731,1.18l-4.443,29.079c-0.226,1.519-0.563,3.263-1.856,3.543c-0.675,0.113-1.012,0.113-1.35,0.113
			c-0.45,0-0.732,0.111-0.732,0.338c0,0.394,0.338,0.506,0.787,0.506c1.407,0,3.6-0.112,4.387-0.112
			c0.788,0,2.813,0.112,4.669,0.112c0.675,0,1.069-0.112,1.069-0.506c0-0.226-0.338-0.338-0.675-0.338
			c-0.451,0-1.069-0.056-1.856-0.225c-0.732-0.169-1.349-0.562-1.349-1.407c0-0.732,0.057-1.294,0.113-2.081l2.306-17.774h0.169
			c1.574,3.318,4.274,8.943,4.668,9.9c0.564,1.236,4.051,8.098,5.119,10.123c0.731,1.35,1.181,2.25,1.575,2.25
			c0.395,0,0.62-0.393,1.631-2.475l9.731-20.25h0.168l2.7,19.631c0.169,1.238,0.057,1.855-0.225,1.913
			c-0.337,0.112-0.507,0.281-0.507,0.505c0,0.282,0.282,0.395,1.295,0.507C151.153,256.197,157.285,256.366,158.41,256.366
			 M174.552,255.522c-0.674,0-1.63-0.057-2.249-0.168c-1.35-0.17-1.63-1.183-1.743-2.42c-0.227-1.913-0.227-5.456-0.227-9.561
			v-17.832c0-0.504,0.113-0.787,0.339-0.842c0.392-0.114,1.067-0.169,1.743-0.169c1.014,0,2.868,0.282,4.444,1.743
			c2.475,2.249,2.644,5.232,2.644,6.693c0,4.557-3.487,7.369-5.963,7.369c-0.955,0-1.237,0.113-1.237,0.507
			c0,0.335,0.337,0.335,0.563,0.392c0.226,0.057,0.732,0.057,0.958,0.057c6.356,0,10.967-4.443,10.967-10.8
			c0-2.363-1.237-4.387-2.249-5.287c-0.732-0.675-2.757-2.532-8.325-2.532c-2.082,0-4.669,0.113-6.468,0.113
			c-1.238,0-4.05-0.113-6.414-0.113c-0.674,0-1.009,0.113-1.009,0.395c0,0.336,0.281,0.392,0.73,0.392
			c0.618,0,1.406,0.057,1.744,0.169c1.461,0.337,1.856,1.015,1.911,2.533c0.057,1.406,0.057,2.7,0.057,9.448v7.876
			c0,4.104,0,7.648-0.225,9.504c-0.168,1.293-0.393,2.306-1.293,2.475c-0.393,0.113-0.956,0.169-1.63,0.169
			c-0.507,0-0.676,0.113-0.676,0.338c0,0.338,0.338,0.45,0.9,0.45c1.799,0,4.613-0.112,5.625-0.112c1.182,0,3.994,0.112,6.919,0.112
			c0.505,0,0.843-0.112,0.843-0.45C175.283,255.692,175.06,255.522,174.552,255.522 M190.526,253.103
			c-0.168,1.293-0.392,2.08-1.292,2.25c-0.393,0.111-0.956,0.168-1.631,0.168c-0.507,0-0.731,0.111-0.731,0.337
			c0,0.337,0.336,0.451,0.898,0.451c1.802,0,4.613-0.113,5.626-0.113c1.181,0,3.992,0.113,6.973,0.113
			c0.507,0,0.845-0.113,0.845-0.451c0-0.226-0.225-0.337-0.731-0.337c-0.675,0-1.631-0.057-2.251-0.168
			c-1.349-0.17-1.63-0.957-1.801-2.194c-0.166-1.912-0.166-5.457-0.166-9.788v-7.875c0-6.806,0-8.044,0.112-9.448
			c0.111-1.576,0.45-2.306,1.629-2.532c0.564-0.113,0.902-0.169,1.351-0.169c0.451,0,0.732-0.057,0.732-0.451
			c0-0.282-0.338-0.337-0.955-0.337c-1.689,0-4.333,0.112-5.457,0.112c-1.294,0-4.105-0.112-5.793-0.112
			c-0.732,0-1.069,0.112-1.069,0.337c0,0.338,0.281,0.451,0.675,0.451c0.561,0,1.125,0.056,1.631,0.169
			c0.956,0.225,1.405,0.956,1.517,2.475c0.113,1.407,0.113,2.7,0.113,9.45v7.875C190.752,247.76,190.752,251.248,190.526,253.103
			 M238.619,238.648c0,10.237-7.144,18.281-18.504,18.281c-12.827,0-18-9.617-18-17.492c0-7.65,5.062-17.495,18.448-17.495
			C231.701,221.998,238.619,228.467,238.619,238.648 M232.376,240.335c0-10.011-5.738-16.199-13.05-16.199
			c-5.119,0-10.968,2.868-10.968,13.948c0,9.282,5.118,16.651,13.724,16.651C225.119,254.735,232.376,253.216,232.376,240.335
			 M276.587,222.617c-2.193,0-3.881,0.113-4.386,0.113c-0.959,0-3.096-0.113-5.402-0.113c-0.674,0-1.125,0.057-1.125,0.394
			c0,0.282,0.17,0.394,0.732,0.394c0.619,0,1.686,0,2.362,0.282c1.07,0.45,1.464,1.292,1.52,3.994l0.449,20.023h-0.224
			c-0.789-0.731-6.806-7.143-9.843-10.18c-6.526-6.47-13.274-13.725-13.837-14.344c-0.732-0.787-1.183-1.406-1.632-1.406
			c-0.45,0-0.563,0.619-0.563,1.517l-0.392,26.437c-0.058,3.882-0.227,5.175-1.408,5.512c-0.618,0.169-1.407,0.225-2.024,0.225
			c-0.45,0-0.732,0.113-0.732,0.338c0,0.394,0.394,0.45,0.955,0.45c2.307,0,4.445-0.112,4.838-0.112
			c0.845,0,2.644,0.112,5.569,0.112c0.619,0,1.013-0.112,1.013-0.45c0-0.282-0.281-0.338-0.787-0.338
			c-0.731,0-1.577-0.056-2.307-0.337c-0.9-0.338-1.463-1.463-1.576-4.949l-0.506-18.731h0.113c0.786,0.844,5.736,6.412,10.63,11.25
			c4.611,4.613,10.35,10.461,13.162,13.105c0.507,0.507,1.014,0.955,1.518,0.955c0.394,0,0.562-0.392,0.562-1.404l0.508-28.18
			c0.054-2.475,0.392-3.432,1.631-3.77c0.507-0.168,0.901-0.168,1.349-0.168c0.564,0,0.788-0.113,0.788-0.395
			C277.601,222.673,277.15,222.617,276.587,222.617 M289.354,236.005l-1.236-0.958c-3.712-2.812-4.724-4.387-4.724-6.411
			c0-2.644,2.024-4.613,5.287-4.613c2.925,0,4.219,1.351,4.893,2.193c0.956,1.182,1.18,2.532,1.18,2.926
			c0,0.562,0.112,0.786,0.45,0.786c0.395,0,0.506-0.336,0.506-1.349c0-3.488,0.169-4.78,0.169-5.343c0-0.337-0.222-0.45-0.619-0.563
			c-1.18-0.281-3.038-0.732-5.962-0.732c-6.189,0-10.293,3.545-10.293,8.439c0,3.6,1.688,6.75,6.581,10.576l2.08,1.63
			c3.714,2.924,4.39,4.949,4.39,7.143c0,2.362-1.97,5.062-6.021,5.062c-2.755,0-5.4-1.18-6.356-4.499
			c-0.225-0.732-0.392-1.688-0.392-2.251c0-0.337-0.057-0.729-0.45-0.729c-0.395,0-0.508,0.505-0.562,1.123
			c-0.057,0.732-0.226,3.375-0.226,5.849c0,0.957,0.113,1.182,0.845,1.52c1.911,0.844,3.935,1.181,6.523,1.181
			c2.364,0,4.837-0.393,7.087-1.855c3.205-2.081,4.219-5.175,4.219-7.762C296.667,243.148,294.755,240.055,289.354,236.005
			 M92.092,290.622c-0.28,0-0.337,0.225-0.393,0.507c-0.056,0.674-0.507,1.687-0.956,2.137c-0.9,0.956-2.306,1.013-4.219,1.013
			c-2.812,0-3.713-0.225-4.331-0.787c-0.732-0.621-0.732-3.151-0.732-7.708v-6.298c0-5.456,0-6.469,0.056-7.594
			c0.057-1.238,0.338-1.857,1.35-2.026c0.45-0.055,1.012-0.112,1.407-0.112c0.449,0,0.617-0.056,0.617-0.337
			c0-0.224-0.225-0.338-0.73-0.338c-1.407,0-4.05,0.113-4.893,0.113c-0.957,0-3.263-0.113-4.951-0.113
			c-0.563,0-0.787,0.057-0.787,0.338c0,0.225,0.225,0.337,0.618,0.337c0.449,0,0.9,0.057,1.182,0.112
			c1.181,0.226,1.463,0.844,1.518,2.026c0.056,1.18,0.056,2.138,0.056,7.594v6.297c0,3.32,0,6.133-0.168,7.652
			c-0.113,1.011-0.338,1.854-1.069,1.969c-0.338,0.055-0.732,0.167-1.293,0.167c-0.45,0-0.563,0.113-0.563,0.282
			c0,0.225,0.225,0.338,0.731,0.338c0.732,0,1.688-0.057,2.475-0.057c0.844-0.056,1.632-0.056,2.026-0.056
			c1.463,0,2.756,0.056,4.387,0.113c1.631,0.056,3.487,0.112,6.075,0.112c1.856,0,2.024-0.169,2.249-0.956
			c0.282-1.068,0.563-3.714,0.563-4.106C92.375,290.791,92.375,290.622,92.092,290.622 M114.592,290.791
			c-0.225,0-0.337,0.112-0.393,0.563c-0.225,1.461-0.675,2.192-1.631,2.642c-0.956,0.45-2.419,0.45-3.375,0.45
			c-3.656,0-4.219-0.563-4.331-3.036c-0.056-1.014,0-4.332,0-5.57v-2.812c0-0.225,0.056-0.338,0.225-0.338
			c0.845,0,4.386,0,5.119,0.113c1.294,0.169,1.856,0.676,2.025,1.407c0.112,0.451,0.112,0.956,0.112,1.294
			c0,0.168,0.057,0.336,0.337,0.336c0.338,0,0.338-0.395,0.338-0.675c0-0.224,0.113-1.687,0.169-2.418
			c0.169-1.8,0.282-2.419,0.282-2.588c0-0.224-0.112-0.281-0.282-0.281c-0.169,0-0.338,0.226-0.562,0.507
			c-0.338,0.337-0.845,0.45-1.743,0.563c-0.844,0.056-4.95,0.056-5.737,0.056c-0.226,0-0.226-0.168-0.226-0.394v-9.113
			c0-0.225,0.056-0.338,0.226-0.338c0.731,0,4.5,0.056,5.118,0.113c1.8,0.225,2.138,0.675,2.418,1.294
			c0.169,0.45,0.226,1.067,0.226,1.292c0,0.338,0.057,0.507,0.338,0.507c0.281,0,0.337-0.226,0.337-0.395
			c0.057-0.394,0.169-2.024,0.169-2.362c0.112-1.631,0.281-2.08,0.281-2.306c0-0.169-0.056-0.337-0.225-0.337
			s-0.393,0.112-0.563,0.112c-0.281,0.056-0.844,0.17-1.519,0.225c-0.675,0.054-7.819,0.054-8.999,0.054
			c-0.507,0-1.35-0.054-2.25-0.054c-0.9,0-1.911-0.056-2.924-0.056c-0.563,0-0.787,0.056-0.787,0.335
			c0,0.226,0.224,0.337,0.618,0.337c0.506,0,1.125,0.057,1.406,0.112c1.181,0.225,1.463,0.844,1.519,2.025
			c0.056,1.182,0.056,2.137,0.056,7.593v6.299c0,3.32,0,6.133-0.168,7.651c-0.113,1.014-0.337,1.855-1.013,1.968
			c-0.337,0.057-0.731,0.169-1.294,0.169c-0.45,0-0.562,0.112-0.562,0.282c0,0.224,0.225,0.338,0.731,0.338
			c0.73,0,1.631-0.057,2.474-0.057c0.845-0.057,1.632-0.057,2.025-0.057c1.069,0,2.194,0.057,3.712,0.113
			c1.575,0.055,3.543,0.113,6.188,0.113c1.35,0,1.688,0,1.968-0.957c0.169-0.731,0.45-3.15,0.45-3.993
			C114.874,291.07,114.874,290.791,114.592,290.791 M147.947,295.851c0,0.282-0.337,0.338-1.63,0.338c-1.294,0-3.937,0-6.806-0.056
			c-0.62-0.056-1.07-0.056-1.07-0.282c0-0.224,0.169-0.281,0.507-0.335c0.225-0.058,0.505-0.393,0.337-0.845l-2.868-7.593
			c-0.057-0.167-0.169-0.225-0.394-0.225h-7.987c-0.17,0-0.282,0.058-0.338,0.281l-1.912,5.119
			c-0.337,0.899-0.562,1.743-0.562,2.193c0,0.676,0.336,1.125,1.462,1.125h0.563c0.449,0,0.563,0.056,0.563,0.282
			c0,0.281-0.225,0.338-0.619,0.338c-1.125,0-2.7-0.113-3.768-0.113c-0.394,0-2.363,0.113-4.219,0.113
			c-0.45,0-0.674-0.057-0.674-0.338c0-0.225,0.112-0.282,0.449-0.282c0.338,0,0.844-0.055,1.125-0.055
			c1.631-0.227,2.362-1.462,3.038-3.263l9-22.555c0.45-1.069,0.619-1.407,1.013-1.407c0.338,0,0.563,0.336,0.899,1.126
			c0.844,1.968,6.582,16.65,8.887,22.048c1.349,3.263,2.418,3.768,3.15,3.938c0.562,0.112,1.069,0.168,1.519,0.168
			C147.778,295.57,147.947,295.626,147.947,295.851 M135.572,284.828l-3.206-8.887c-0.056-0.169-0.056-0.338-0.168-0.338
			c-0.113,0-0.169,0.169-0.225,0.338l-3.319,8.831c-0.056,0.169,0,0.225,0.113,0.225h6.58
			C135.572,285.053,135.572,284.941,135.572,284.828 M175.959,282.747c-1.181,0-3.094,0.111-4.219,0.111
			c-1.068,0-3.32-0.111-5.233-0.111c-0.505,0-0.73,0.056-0.73,0.337c0,0.225,0.225,0.28,0.563,0.28c0.505,0,1.123,0.058,1.406,0.113
			c1.181,0.225,1.518,0.844,1.518,2.025c0.057,1.069,0.057,2.475,0.057,4.217v3.376c0,0.62-0.169,1.067-0.675,1.294
			c-0.844,0.395-2.139,0.395-3.038,0.395c-7.592,0-12.487-5.795-12.487-13.501c0-4.387,1.294-7.088,3.319-8.774
			c2.531-2.081,5.176-2.25,7.089-2.25c4.049,0,6.918,1.632,7.986,2.812c0.957,1.014,1.125,2.138,1.237,2.982
			c0,0.281,0.113,0.45,0.338,0.45c0.281,0,0.394-0.169,0.394-0.787c0-4.501,0.224-5.514,0.224-5.906
			c0-0.282-0.056-0.394-0.506-0.452c-0.845-0.054-2.081-0.223-2.813-0.392c-0.731-0.17-3.882-0.563-6.357-0.563
			c-3.038,0-6.187,0.224-9.674,2.363c-3.263,1.969-6.243,6.018-6.243,11.7c0,9.899,7.818,14.062,16.592,14.062
			c2.813,0,6.301-0.395,8.663-1.632c0.451-0.28,0.451-0.336,0.451-1.293v-3.937c0-1.801,0-3.208,0.056-4.331
			c0.056-1.237,0.392-1.856,1.349-2.025c0.395-0.057,0.676-0.112,0.958-0.112c0.225,0,0.45-0.056,0.45-0.282
			C176.691,282.802,176.409,282.747,175.959,282.747 M206.05,269.079c-1.405,0-3.653,0.112-4.105,0.112
			c-0.056,0-2.305-0.112-4.104-0.112c-0.507,0-0.789,0.057-0.789,0.338c0,0.224,0.226,0.335,0.62,0.335
			c0.394,0,1.012,0.058,1.295,0.113c1.179,0.226,1.461,0.844,1.517,2.026c0.056,1.179,0.056,2.138,0.056,7.593v4.5
			c0,3.712-0.112,6.918-2.08,8.886c-1.463,1.408-3.375,1.914-4.95,1.914c-1.237,0-2.87-0.169-4.499-1.464
			c-1.746-1.406-2.813-3.6-2.813-8.831v-5.006c0-5.456,0-6.469,0.056-7.594c0.057-1.237,0.338-1.857,1.35-2.025
			c0.449-0.056,0.619-0.113,1.069-0.113c0.338,0,0.562-0.054,0.562-0.335c0-0.225-0.223-0.338-0.786-0.338
			c-1.295,0-3.545,0.113-4.445,0.113c-1.069,0-3.32-0.113-5.231-0.113c-0.563,0-0.788,0.057-0.788,0.338
			c0,0.224,0.225,0.335,0.619,0.335c0.507,0,1.125,0.058,1.406,0.113c1.182,0.225,1.463,0.844,1.519,2.025
			c0.057,1.18,0.057,2.137,0.057,7.594v5.231c0,5.231,1.349,7.875,3.205,9.506c2.643,2.362,6.073,2.475,7.988,2.475
			c2.362,0,4.893-0.394,7.481-2.587c3.037-2.586,3.432-6.807,3.432-10.8v-3.824c0-5.455,0-6.469,0.056-7.593
			c0.056-1.238,0.338-1.857,1.35-2.026c0.45-0.055,0.674-0.113,1.068-0.113c0.45,0,0.619-0.054,0.619-0.335
			C206.782,269.135,206.559,269.079,206.05,269.079 M226.132,290.791c-0.281,0-0.336,0.112-0.393,0.563
			c-0.226,1.461-0.676,2.192-1.631,2.642c-0.957,0.45-2.418,0.45-3.374,0.45c-3.657,0-4.218-0.563-4.276-3.036
			c-0.056-1.014,0-4.332,0-5.57v-2.812c0-0.225,0.058-0.338,0.225-0.338c0.844,0,4.389,0,5.062,0.113
			c1.349,0.169,1.855,0.676,2.024,1.407c0.113,0.451,0.113,0.956,0.113,1.294c0,0.168,0.057,0.336,0.338,0.336
			c0.338,0,0.338-0.395,0.338-0.675c0-0.224,0.112-1.687,0.112-2.418c0.169-1.8,0.28-2.419,0.28-2.588
			c0-0.224-0.111-0.281-0.225-0.281c-0.167,0-0.336,0.226-0.562,0.507c-0.337,0.337-0.845,0.45-1.744,0.563
			c-0.844,0.056-4.95,0.056-5.737,0.056c-0.226,0-0.226-0.168-0.226-0.394v-9.113c0-0.225,0.058-0.338,0.226-0.338
			c0.731,0,4.499,0.056,5.118,0.113c1.8,0.225,2.139,0.675,2.419,1.294c0.169,0.45,0.224,1.067,0.224,1.292
			c0,0.338,0.058,0.507,0.338,0.507c0.223,0,0.336-0.226,0.336-0.395c0.057-0.394,0.169-2.024,0.169-2.362
			c0.113-1.631,0.282-2.08,0.282-2.306c0-0.169-0.057-0.337-0.226-0.337c-0.168,0-0.394,0.112-0.562,0.112
			c-0.282,0.056-0.844,0.17-1.52,0.225c-0.675,0.054-7.818,0.054-8.999,0.054c-0.507,0-1.352-0.054-2.249-0.054
			c-0.901,0-1.969-0.056-2.926-0.056c-0.506,0-0.788,0.056-0.788,0.335c0,0.226,0.224,0.337,0.619,0.337
			c0.507,0,1.125,0.057,1.406,0.112c1.181,0.225,1.463,0.844,1.518,2.025c0.057,1.182,0.057,2.137,0.057,7.593v6.299
			c0,3.32,0,6.133-0.168,7.651c-0.113,1.014-0.338,1.855-1.013,1.968c-0.337,0.057-0.731,0.169-1.293,0.169
			c-0.451,0-0.562,0.112-0.562,0.282c0,0.224,0.225,0.338,0.731,0.338c0.73,0,1.63-0.057,2.475-0.057
			c0.842-0.057,1.631-0.057,2.08-0.057c1.069,0,2.193,0.057,3.713,0.113c1.518,0.055,3.543,0.113,6.185,0.113
			c1.351,0,1.689,0,1.913-0.957c0.169-0.731,0.451-3.15,0.451-3.993C226.414,291.07,226.414,290.791,226.132,290.791 M8.958,173.344
			l11.643,34.873c0.507,1.407,0.731,2.025,1.294,2.025c0.674,0,0.899-0.676,1.968-2.926c2.362-5.062,9.674-24.524,10.743-27.336
			h0.113l11.419,27.618c0.787,2.025,1.125,2.699,1.687,2.699c0.675,0,1.013-0.674,1.575-2.586c2.7-8.214,8.437-25.706,10.968-32.625
			c1.125-3.149,1.744-5.344,3.094-5.85c0.563-0.225,1.35-0.282,1.913-0.282c0.507,0,0.788-0.167,0.788-0.563
			c0-0.336-0.394-0.45-1.013-0.45c-1.8,0-4.163,0.169-4.556,0.169c-0.506,0-2.812-0.169-5.738-0.169
			c-0.844,0-1.293,0.112-1.293,0.507c0,0.338,0.393,0.505,0.956,0.505c2.138,0,2.644,0.789,2.644,1.632
			c0,0.788-0.169,1.913-0.563,3.205c-1.912,6.412-6.356,20.982-7.313,24.639h-0.168l-11.418-27.619
			c-0.732-1.744-0.957-2.588-1.576-2.588c-0.45,0-0.842,0.451-1.406,1.97l-10.575,28.631h-0.168
			c-1.014-3.094-6.132-19.742-7.032-23.343c-0.675-2.475-1.238-4.331-1.238-5.062c0-0.619,0.112-1.013,0.618-1.182
			c0.394-0.225,0.9-0.225,1.349-0.225c0.564,0,0.957-0.057,0.957-0.507c0-0.337-0.394-0.506-1.125-0.506
			c-3.205,0-5.625,0.168-6.132,0.168c-0.506,0-3.486-0.168-6.355-0.168c-0.787,0-1.181,0.112-1.181,0.506
			c0,0.45,0.338,0.507,0.844,0.507c0.507,0,1.631,0.113,2.193,0.505C7.721,170.025,8.34,171.319,8.958,173.344 M68.469,188.755
			c0-9.393,6.188-21.542,22.668-21.542c13.724,0,22.218,7.987,22.218,20.529c0,12.6-8.775,22.556-22.725,22.556
			C74.825,210.299,68.469,198.485,68.469,188.755 M76.063,187.067c0,11.417,6.299,20.475,16.874,20.475
			c3.826,0,12.768-1.854,12.768-17.718c0-12.318-7.087-19.967-16.088-19.967C83.262,169.857,76.063,173.344,76.063,187.067
			 M158.464,207.993c-0.393,0.168-0.618,0.337-0.618,0.619c0,0.337,0.337,0.506,1.63,0.62c2.193,0.168,9.788,0.336,11.139,0.336
			c0.786,0,1.406-0.169,1.406-0.619c0-0.337-0.395-0.393-0.899-0.393c-0.676,0-1.8-0.056-3.375-0.563
			c-1.631-0.507-2.194-2.082-2.7-5.57l-5.006-33.973c-0.169-1.124-0.507-1.687-1.012-1.687c-0.508,0-0.789,0.45-1.237,1.349
			l-14.907,31.386l-15.018-30.992c-0.675-1.407-1.068-1.688-1.462-1.688c-0.45,0-0.732,0.508-0.956,1.407l-5.457,35.831
			c-0.281,1.855-0.731,3.992-2.249,4.331c-0.845,0.169-1.181,0.169-1.631,0.169c-0.563,0-0.899,0.112-0.899,0.393
			c0,0.506,0.45,0.619,1.013,0.619c1.742,0,4.387-0.169,5.455-0.169c0.957,0,3.489,0.169,5.737,0.169
			c0.844,0,1.294-0.113,1.294-0.619c0-0.281-0.393-0.393-0.844-0.393c-0.563,0-1.293-0.056-2.306-0.281
			c-0.956-0.226-1.63-0.733-1.63-1.745c0-0.898,0.056-1.576,0.169-2.587l2.868-21.882h0.226c1.912,4.105,5.232,11.025,5.681,12.207
			c0.675,1.518,5.006,9.956,6.3,12.486c0.899,1.631,1.463,2.756,1.912,2.756c0.507,0,0.787-0.505,2.026-3.093l11.98-24.973h0.225
			l3.319,24.188C158.972,207.149,158.803,207.88,158.464,207.993 M182.203,205.292c-0.225,1.575-0.507,2.813-1.633,3.038
			c-0.45,0.112-1.123,0.225-1.967,0.225c-0.675,0-0.9,0.169-0.9,0.45c0,0.393,0.394,0.562,1.125,0.562
			c1.126,0,2.531-0.113,3.769-0.113c1.293-0.056,2.531-0.056,3.149-0.056c1.63,0,3.319,0.056,5.739,0.169
			c2.362,0.057,5.399,0.169,9.505,0.169c2.082,0,2.588,0,2.982-1.407c0.282-1.125,0.732-4.837,0.732-6.13
			c0-0.563,0-1.014-0.451-1.014c-0.395,0-0.506,0.225-0.62,0.846c-0.393,2.249-1.067,3.429-2.475,4.105
			c-1.406,0.676-3.713,0.676-5.174,0.676c-5.626,0-6.469-0.846-6.582-4.612c-0.056-1.577,0-6.64,0-8.551v-4.332
			c0-0.337,0.057-0.563,0.337-0.563c1.294,0,6.75,0.056,7.819,0.169c2.025,0.226,2.812,1.068,3.095,2.137
			c0.167,0.732,0.167,1.407,0.224,1.969c0,0.282,0.112,0.507,0.506,0.507c0.507,0,0.507-0.619,0.507-1.07
			c0-0.393,0.169-2.587,0.225-3.656c0.225-2.813,0.45-3.656,0.45-4.05c0-0.338-0.168-0.45-0.394-0.45
			c-0.281,0-0.506,0.281-0.845,0.732c-0.507,0.562-1.349,0.675-2.643,0.843c-1.295,0.112-7.593,0.112-8.774,0.112
			c-0.338,0-0.395-0.225-0.395-0.618v-13.951c0-0.393,0.112-0.562,0.395-0.562c1.067,0,6.861,0.113,7.817,0.225
			c2.758,0.337,3.263,1.012,3.657,1.969c0.282,0.674,0.338,1.574,0.338,1.967c0,0.508,0.112,0.732,0.506,0.732
			c0.394,0,0.507-0.337,0.563-0.563c0.112-0.675,0.225-3.094,0.28-3.656c0.169-2.531,0.45-3.206,0.45-3.6
			c0-0.282-0.057-0.506-0.338-0.506c-0.281,0-0.618,0.168-0.899,0.223c-0.451,0.113-1.35,0.228-2.364,0.339
			c-1.012,0.056-11.98,0.056-13.723,0.056c-0.786,0-2.025-0.056-3.487-0.112c-1.351,0-2.981-0.055-4.444-0.055
			c-0.846,0-1.18,0.111-1.18,0.504c0,0.395,0.335,0.506,0.955,0.506c0.788,0,1.688,0.056,2.139,0.17
			c1.799,0.394,2.249,1.237,2.362,3.149c0.111,1.744,0.111,3.32,0.111,11.644v9.675
			C182.484,198.655,182.484,202.986,182.203,205.292 M250.543,210.187c0.507,0,0.732-0.507,0.732-1.689l0.619-34.648
			c0.057-3.094,0.506-4.219,2.024-4.669c0.676-0.169,1.126-0.169,1.633-0.169c0.674,0,1.013-0.167,1.013-0.506
			c0-0.45-0.563-0.506-1.238-0.506c-2.7,0-4.781,0.168-5.4,0.168c-1.182,0-3.77-0.168-6.637-0.168c-0.845,0-1.407,0.056-1.407,0.506
			c0,0.338,0.224,0.506,0.9,0.506c0.788,0,2.08,0,2.925,0.337c1.35,0.562,1.855,1.575,1.855,4.95l0.563,24.639h-0.281
			c-0.956-0.902-8.325-8.777-12.093-12.545c-8.044-7.986-16.369-16.93-17.044-17.605c-0.956-1.014-1.463-1.689-2.024-1.689
			s-0.731,0.79-0.731,1.856l-0.506,32.569c-0.056,4.78-0.281,6.355-1.743,6.805c-0.789,0.225-1.744,0.282-2.476,0.282
			c-0.563,0-0.901,0.113-0.901,0.45c0,0.507,0.507,0.564,1.181,0.564c2.87,0,5.456-0.17,5.963-0.17c1.013,0,3.263,0.17,6.807,0.17
			c0.786,0,1.236-0.114,1.236-0.564c0-0.336-0.336-0.45-0.954-0.45c-0.901,0-1.913-0.056-2.869-0.394
			c-1.07-0.394-1.802-1.801-1.913-6.132l-0.62-23.061h0.168c1.013,1.069,7.088,7.93,13.105,13.837
			c5.738,5.68,12.713,12.879,16.2,16.142C249.25,209.567,249.926,210.187,250.543,210.187 M261.794,176.887
			c0,0.169,0.112,0.226,0.281,0.226c0.226,0,0.451-0.057,0.677-0.338c1.911-1.968,4.723-6.58,4.723-9.223
			c0-0.676-0.168-0.958-1.293-1.239c-0.844-0.281-2.7-0.844-3.599-0.844c-0.225,0-0.451,0.226-0.451,0.337
			c0,0.225,0.057,0.338,0.451,0.788c0.393,0.394,1.067,1.575,1.067,2.98c0,2.701-0.898,5.232-1.686,6.751
			C261.851,176.663,261.794,176.832,261.794,176.887 M282.943,207.655c-3.431,0-6.636-1.463-7.875-5.57
			c-0.281-0.956-0.507-2.08-0.507-2.813c0-0.45-0.057-0.956-0.562-0.956c-0.452,0-0.621,0.621-0.676,1.407
			c-0.057,0.9-0.282,4.162-0.282,7.199c0,1.237,0.17,1.463,1.068,1.856c2.363,1.068,4.837,1.463,8.044,1.463
			c2.925,0,6.018-0.507,8.773-2.25c3.938-2.588,5.176-6.412,5.176-9.562c0-5.232-2.362-9-8.999-14.007l-1.519-1.124
			c-4.556-3.487-5.85-5.401-5.85-7.932c0-3.26,2.474-5.624,6.526-5.624c3.601,0,5.175,1.631,6.017,2.644
			c1.183,1.462,1.408,3.15,1.408,3.655c0,0.676,0.167,0.957,0.563,0.957c0.45,0,0.619-0.394,0.619-1.632
			c0-4.274,0.225-5.849,0.225-6.58c0-0.395-0.281-0.564-0.787-0.676c-1.464-0.393-3.769-0.955-7.311-0.955
			c-7.652,0-12.713,4.33-12.713,10.405c0,4.445,2.081,8.27,8.157,12.994l2.531,2.026c4.556,3.544,5.399,6.074,5.399,8.773
			C290.31,204.335,287.893,207.655,282.943,207.655"/>
	</g>
</g>
</svg>
