<?xml version="1.0" encoding="utf-8"?>
<!-- Generator: Adobe Illustrator 14.0.0, SVG Export Plug-In . SVG Version: 6.00 Build 43363)  -->
<!DOCTYPE svg PUBLIC "-//W3C//DTD SVG 1.1//EN" "http://www.w3.org/Graphics/SVG/1.1/DTD/svg11.dtd">
<svg version="1.1" id="Logo" xmlns="http://www.w3.org/2000/svg" xmlns:xlink="http://www.w3.org/1999/xlink" x="0px" y="0px"
	 width="602px" height="184px" viewBox="0 0 602 184" enable-background="new 0 0 602 184" xml:space="preserve">
<g>
	<path id="logo" fill-rule="evenodd" clip-rule="evenodd" fill="#EB6E08" d="M23.156,123.684c11.545,21.088,33.949,35.422,59.64,35.422
		c25.696,0,48.105-14.342,59.647-35.437l11.294,0.015c-12.351,26.837-39.506,45.524-70.941,45.524
		c-31.439,0-58.594-18.688-70.943-45.536L23.156,123.684L23.156,123.684z M37.342,123.684c0.788,3.038,2.569,5.861,4.414,7.961
		c8.745,9.938,25.9,17.558,41.896,17.473c17.042-0.089,36.167-9.711,47.096-25.438l-26.707,0.004
		c-3.366,3.423-6.222,7.517-8.167,12.293c-2.079,5.09-6.879,8.487-13.013,8.487c-10.56,0-12.446-8.302-11.69-11.878
		c0.646-3.071,2.119-6.053,4.223-8.914L37.342,123.684L37.342,123.684z M11.853,123.684c-4.553-9.914-7.094-20.925-7.094-32.516
		c0-43.028,35.006-78.035,78.038-78.035c43.027,0,78.038,35.006,78.038,78.035c0,11.591-2.542,22.602-7.096,32.504l-11.294,0.012
		c5.285-9.673,8.292-20.75,8.292-32.516c0-37.46-30.476-67.937-67.938-67.937c-37.463,0-67.938,30.477-67.938,67.937
		c0,11.773,3.009,22.854,8.298,32.516H11.853L11.853,123.684z M75.393,123.684c12.505-17.001,47.318-29.571,63.401-29.579
		c1.137-0.085,1.549-1.189,1.611-2.268c0.097-1.57,0.097-2.615-0.092-3.995c-0.312-1.697-1.853-1.801-2.594-1.83
		c-17.69-0.302-61.636-18.968-66.132-38.179c-0.722-3.07,0.526-10.843,11.651-10.47c7.593,0.258,10.59,5.403,12.68,9.247
		c6.407,11.801,22.87,21.266,36.566,23.017c2.186,0.29,3.664,0.105,2.667-2.187c-7.168-18.592-30.049-34.223-52.104-34.223
		c-15.431,0-30.338,6.371-41.162,16.878c-4.159,4.557-8.512,10.36-1.332,17.409c12.437,12.493,39.481,19.195,63.392,22.44
		c-23.915,3.042-50.878,11.714-63.133,22.465c-3.896,3.417-4.454,7.509-3.471,11.285L75.393,123.684L75.393,123.684z
		 M130.748,123.684c2.679-3.856,4.864-8.076,6.408-12.611c0.363-1.359-1.679-1.545-3.786-1.389
		c-8.547,0.604-20.635,5.108-29.329,13.985L130.748,123.684L130.748,123.684z M58.179,90.912
		c-20.216,6.53-26.267,13.543-28.069,18.026c-0.253,0.645-0.719,0.697-1.157,0.041c-2.829-6.206-3.77-11.582-3.77-18.83
		c0-7.157,0.869-11.842,3.617-17.971c0.231-0.305,0.576-0.225,0.704,0.214c2.477,4.922,10.105,12.818,28.773,17.617
		C59.055,90.149,59.085,90.758,58.179,90.912L58.179,90.912z"/>
	<path id="basketball" fill-rule="evenodd" clip-rule="evenodd" fill="#6B6351" d="M185.821,114.992l-2.587,14.89h19.223
		c7.085,0,10.864-2.738,11.894-8.617l0.159-1.756l-0.261-2.008l-0.107-0.319l-4.429-2.189H185.821L185.821,114.992z
		 M231.555,114.992l-10.221,14.871h7.935l4.775-7.958l16.431,0.244l2.326,7.714h7.313l-4.685-14.871h-7.055l0.58,1.841H237.38
		l1.219-1.841H231.555L231.555,114.992z M272.704,114.992c1.99,2.452,6.089,2.671,10.831,2.915l1.213,0.063l1.543,0.07
		c2.39,0.104,4.114,0.186,4.666,0.87c0.313,0.386,0.369,1.146,0.166,2.32c-0.579,3.289-3.826,3.549-8.356,3.549
		c-5.129,0-11.387-1.02-11.444-1.033l-0.694-0.111l-1.775,5.224l0.932,0.178c0.06,0.011,5.783,1.13,12.942,1.13
		c7.28,0,13.945-0.716,15.443-9.311c0.445-2.56,0.146-4.486-0.924-5.872L272.704,114.992L272.704,114.992z M311.848,114.992
		l-1.997,10.922l-0.767,4.001h7.127l2.082-12.147l0.127-0.756l0.463,0.029l13.938,12.874l9.832,0.015
		c0,0-14.252-12.985-15.715-14.567l0.029-0.37H311.848L311.848,114.992z M352.889,114.992l-2.537,14.579h25.647l0.618-3.412
		c0.027-0.719-0.11-1.094-0.355-1.379c-0.299-0.359-0.748-0.566-1.233-0.566h-16.612l1.223-7.002l14.496-0.008
		c0.904,0,1.75-0.723,1.912-1.59l0.104-0.622H352.889L352.889,114.992z M400.377,114.992l-2.619,14.89h7.043l2.563-14.89H400.377
		L400.377,114.992z M429.318,114.992l-2.59,14.89h19.225c7.084,0,10.867-2.738,11.9-8.617l0.143-1.756l-0.25-2.008l-0.113-0.319
		l-4.422-2.189H429.318L429.318,114.992z M474.824,114.992l-10.221,14.871h7.932l4.779-7.958l16.426,0.244l2.332,7.714h7.313
		l-4.688-14.871h-7.053l0.582,1.841h-11.582l1.219-1.841H474.824L474.824,114.992z M516.332,114.992l-2.59,14.89h23.566l0.938-5.398
		H521.49l1.693-9.491H516.332L516.332,114.992z M550.143,114.992l-2.59,14.89h23.555l0.951-5.398h-16.766l1.695-9.491H550.143
		L550.143,114.992z M450.762,120.979c-0.492,2.819-1.842,3.59-6.291,3.59h-9.967l1.197-6.891h10.256
		c1.951,0,3.846,0.118,4.533,0.934c0.254,0.299,0.375,0.729,0.375,1.329L450.762,120.979L450.762,120.979z M207.267,120.979
		c-0.492,2.819-1.844,3.59-6.289,3.59h-9.971l1.196-6.891h10.26c1.947,0,3.844,0.118,4.532,0.934
		c0.25,0.299,0.374,0.733,0.374,1.329L207.267,120.979L207.267,120.979z M209.712,114.992l-0.149-0.074l0.544-0.229
		c0,0,4.415-1.86,4.443-1.797l0.178-0.363c0.027-0.059,0.684-1.426,1.002-3.249l0.203-2.149c0-1.678-0.423-2.99-1.296-4.023
		c-1.44-1.715-3.974-2.512-7.972-2.512h-17.642h-0.698l-2.504,14.397H209.712L209.712,114.992z M238.599,114.992l6.003-9.062
		l0.339-0.478l0.427-0.008l3.006,9.547h7.055l-4.542-14.416h-0.61h-8.811l-9.913,14.416H238.599L238.599,114.992z M297.246,114.992
		c-0.025-0.037-0.049-0.07-0.074-0.101c-2.02-2.489-6.091-2.638-10.805-2.804l-1.152-0.044l-0.982-0.034
		c-2.476-0.082-4.614-0.145-5.34-1.037c-0.335-0.412-0.418-1.071-0.257-2.026c0.537-3.071,3.752-3.301,8.232-3.294h0.433
		c4.057,0,9.383,0.845,9.994,0.941l0.676,0.111l1.908-5.165l-0.961-0.188c-0.048-0.008-5.506-1.049-11.832-1.049
		c-8.536,0-14.086,1.489-15.373,8.895c-0.441,2.52-0.122,4.405,0.963,5.768c0.009,0.012,0.018,0.022,0.028,0.034L297.246,114.992
		L297.246,114.992z M326.967,114.992l0.004-0.022c1.74-1.378,16.545-13.667,17.242-14.393h-8.439l-15.887,12.434l-0.804,0.467
		l2.363-12.901h-6.925l-0.77,4.005l-1.904,10.41H326.967L326.967,114.992z M376.15,114.992l0.189-1.101
		c0.025-0.703-0.107-1.081-0.352-1.371c-0.301-0.356-0.748-0.56-1.227-0.56l-14.204-0.021l1.101-6.295h16.904
		c0.93,0,1.753-0.715,1.916-1.656l0.625-3.701h-0.984h-24.67l-2.561,14.704H376.15L376.15,114.992z M407.363,114.992l1.545-8.988
		c0,0,6.918-0.044,10.363,0.022c1.621-0.077,2.4-0.67,2.711-2.404c0.234-1.412,0.371-2.731,0.42-3.027h-0.975h-31.072l-0.988,5.439
		l12.584-0.008l-1.574,8.966H407.363L407.363,114.992z M453.211,114.992l-0.148-0.074l0.541-0.229c0,0,4.42-1.853,4.441-1.797
		l0.193-0.382c0.199-0.452,0.719-1.667,0.992-3.23l0.201-2.149c0-1.678-0.426-2.99-1.297-4.023
		c-1.445-1.715-3.977-2.512-7.973-2.512h-17.639h-0.705l-2.5,14.397H453.211L453.211,114.992z M481.863,114.992l6.01-9.062
		l0.34-0.478l0.426-0.004l3.006,9.543h7.053l-4.541-14.416h-0.611h-8.811l-9.91,14.416H481.863L481.863,114.992z M523.184,114.992
		l2.57-14.397h-0.994h-5.92l-2.508,14.397H523.184L523.184,114.992z M556.988,114.992l2.574-14.397h-0.996h-5.92l-2.504,14.397
		H556.988L556.988,114.992z M452.18,109.031c-0.471,2.723-1.768,3.464-6.012,3.464h-9.563l1.148-6.599h10.01
		c1.805,0,3.559,0.104,4.184,0.841l0.34,1.238L452.18,109.031L452.18,109.031z M208.69,109.031c-0.476,2.723-1.77,3.464-6.018,3.464
		h-9.567l1.154-6.599h10.013c1.803,0,3.557,0.104,4.175,0.841l0.348,1.238L208.69,109.031L208.69,109.031z"/>
	<path id="euroleague" fill-rule="evenodd" clip-rule="evenodd" fill="#6B6351" d="M593,52.478h0.729v-3.957h1.07v-0.614h-2.885v0.614H593V52.478
		L593,52.478z M595.211,52.478h0.693v-3.804l0.934,3.804h0.615l0.922-3.804l0.012,3.804h0.691v-4.57h-1.115l-0.793,3.385
		l-0.818-3.385h-1.141V52.478L595.211,52.478z M484.287,81.965c0,0,4.082-0.214,4.141-0.285l4.557-2.221l0.988-0.396l0.35,1.813
		l0.021,0.804h6.314l0.195-5.028l2.041-11.643h-10.162l-0.768,4.36l3.088,0.548l-1.045,5.98c-1.643,0.273-4.686,0.685-8.709,0.685
		c-3.758,0-5.977-0.219-6.934-1.362c-0.943-1.113-1-3.358-0.191-8c1.574-9.038,3.908-9.471,11.047-9.471l2.234,0.042
		c4.541,0.195,8.031,0.78,10.055,1.113l1.752-5.254c-0.34-0.12-2.078-0.514-2.078-0.514c-1.129-0.228-4.221-0.771-8.406-0.939
		l-2.482-0.061c-11.477,0-16.967,2.136-19.176,14.79c-1.066,6.244-0.738,9.695,1.127,11.918
		C474.424,81.439,478.645,81.965,484.287,81.965L484.287,81.965z M340.656,66.944c-1.527,8.769-1.976,9.735-10.377,9.735
		c-3.624,0-6.051-0.223-6.984-1.325c-0.422-0.513-0.626-1.294-0.626-2.465c0-1.206,0.204-2.843,0.688-5.647
		c1.594-9.116,2.375-9.855,10.508-9.855c4.201,0,6.16,0.383,6.986,1.36C341.874,59.972,341.363,62.897,340.656,66.944
		L340.656,66.944z M334.502,52.123c-12.975,0-16.034,2.494-18.176,14.834c-1.025,5.938-1.219,9.603,0.768,11.956
		c1.859,2.213,5.371,3.076,12.537,3.076c13.566,0,16.041-3.145,18.068-14.747c0.484-2.817,0.792-5.086,0.792-6.951
		c0-2.223-0.44-3.86-1.508-5.135C345.149,52.973,341.648,52.123,334.502,52.123L334.502,52.123z M298.953,60.9
		c-0.236,1.402-0.467,2.111-1.18,2.625c-0.871,0.558-2.646,0.832-5.437,0.832h-9.056l1.154-6.632h9.351
		c2.748,0,4.44,0.263,5.035,0.79l0.306,0.944L298.953,60.9L298.953,60.9z M296.18,52.413h-17.141h-0.696l-5.098,29.289h7.062
		l2.058-12.072h7.063l1.333,3.75c0.666,1.621,4.029,6.506,5.042,7.963l0.246,0.358h8.963c-0.445-0.534-8.996-12.411-8.996-12.411
		l0.729-0.126c1.695-0.143,4.098-0.623,5.937-2.086c1.79-1.395,2.924-3.394,3.376-5.937l0.227-2.41c0-1.625-0.394-2.881-1.208-3.842
		C303.619,53.151,300.958,52.413,296.18,52.413L296.18,52.413z M369.36,52.413h-0.993h-6.068l-5.102,29.289h23.719l0.93-5.395
		h-16.75L369.36,52.413L369.36,52.413z M416.723,79.933l0.289-1.66c0.025-0.698-0.104-1.075-0.35-1.369
		c-0.307-0.352-0.756-0.559-1.236-0.559l-16.619,0.001l1.225-7.008l13.883-0.009c0.912,0,1.748-0.722,1.912-1.649l0.289-1.662
		c0.088-0.493-0.037-0.993-0.35-1.36c-0.295-0.358-0.744-0.564-1.232-0.564l-13.582-0.029l1.092-6.294h16.91
		c0.926,0,1.766-0.731,1.918-1.674c0,0,0.297-1.634,0.311-1.491l0.16-1.219l0.17-0.974h-0.992h-24.496l-5.105,29.289h25.488
		C416.492,81.22,416.703,79.953,416.723,79.933L416.723,79.933z M221.512,54.5l0.18-1.114l0.168-0.973h-0.988h-24.496l-5.101,29.289
		h25.486l0.316-1.766l0.292-1.656c0.024-0.704-0.111-1.083-0.363-1.382c-0.3-0.352-0.747-0.553-1.221-0.553h-16.622l1.222-7.006
		l13.877-0.009c0.911,0,1.753-0.722,1.92-1.654l0.286-1.66c0.09-0.489-0.038-0.986-0.345-1.357c-0.298-0.358-0.75-0.564-1.234-0.564
		l-13.588-0.025l1.1-6.298h16.919c0.911,0,1.748-0.726,1.906-1.605l0.111-0.667L221.512,54.5L221.512,54.5z M538.932,52.413
		l-4.01,23.43c-1.584,0.276-5.307,0.835-9.639,0.835c-3.611,0-5.283-0.312-5.961-1.114c-0.322-0.383-0.482-0.954-0.482-1.845
		c0-0.732,0.107-1.681,0.322-2.911l3.268-18.396h-7.146l-3.096,18.659c-0.205,1.187-0.371,2.435-0.371,3.637
		c0,1.684,0.33,3.279,1.344,4.489c1.672,1.982,4.869,2.791,11.016,2.791c0,0,4.42-0.211,4.42-0.185l4.742-2.329l0.984-0.39
		l0.35,1.809l0.021,0.808h6.729l0.244-5.248l4.328-24.041H545H538.932L538.932,52.413z M439.666,69.524l7.221-10.896l0.344-0.482
		l0.426-0.009l3.59,11.387H439.666L439.666,69.524z M452.566,53.262h-8.807l-20.133,29.285h7.934l4.773-7.955l16.428,0.245
		l2.328,7.71h7.32l-9.229-29.285H452.566L452.566,53.262z M584.104,52.413h-24.586l-5.1,29.289h25.563l0.615-3.422
		c0.025-0.706-0.107-1.087-0.359-1.379c-0.297-0.354-0.742-0.556-1.227-0.556h-16.615l1.223-7.006l15.111-0.009
		c0.918,0,1.756-0.722,1.922-1.649l0.287-1.662c0.023-0.692-0.105-1.074-0.35-1.36c-0.297-0.358-0.744-0.564-1.232-0.564
		l-14.82-0.025l1.098-6.298h16.912c0.914,0,1.76-0.722,1.922-1.648l0.623-3.71H584.104L584.104,52.413z M256.847,52.413
		l-3.986,23.43c-1.588,0.276-5.31,0.835-9.642,0.835c-3.618,0-5.291-0.312-5.961-1.114c-0.32-0.383-0.482-0.954-0.482-1.841
		c0-0.733,0.109-1.68,0.325-2.914l3.262-18.396h-7.167l-3.074,18.65c-0.207,1.188-0.375,2.44-0.375,3.643
		c0,1.683,0.333,3.272,1.353,4.487c1.668,1.986,4.862,2.795,11.019,2.795c0,0,4.525-0.216,4.595-0.287l4.567-2.234l0.976-0.389
		l0.344,1.815l0.026,0.808h6.126l5.101-29.289h-0.983H256.847L256.847,52.413z"/>
</g>
</svg>
