<?xml version="1.0" encoding="UTF-8" standalone="no"?>
<svg
   inkscape:version="1.1.1 (3bf5ae0d25, 2021-09-20)"
   sodipodi:docname="CoA Germany.svg"
   id="svg2130"
   version="1.1"
   viewBox="0 0 396.04244 510.01038"
   height="510.01038"
   width="396.04245"
   xmlns:inkscape="http://www.inkscape.org/namespaces/inkscape"
   xmlns:sodipodi="http://sodipodi.sourceforge.net/DTD/sodipodi-0.dtd"
   xmlns="http://www.w3.org/2000/svg"
   xmlns:svg="http://www.w3.org/2000/svg">
  <defs
     id="defs2124" />
  <sodipodi:namedview
     inkscape:pagecheckerboard="false"
     fit-margin-bottom="5"
     fit-margin-right="5"
     fit-margin-left="5"
     fit-margin-top="5"
     lock-margins="true"
     units="px"
     inkscape:snap-smooth-nodes="true"
     inkscape:snap-object-midpoints="true"
     inkscape:window-maximized="1"
     inkscape:window-y="-11"
     inkscape:window-x="-11"
     inkscape:window-height="1506"
     inkscape:window-width="2560"
     showgrid="false"
     inkscape:document-rotation="0"
     inkscape:current-layer="layer1"
     inkscape:document-units="px"
     inkscape:cy="255.33333"
     inkscape:cx="198"
     inkscape:zoom="1.5"
     inkscape:pageshadow="2"
     inkscape:pageopacity="0"
     borderopacity="1.0"
     bordercolor="#666666"
     pagecolor="#333333"
     id="base"
     showguides="true"
     inkscape:guide-bbox="true"
     inkscape:snap-intersection-paths="true"
     inkscape:object-paths="true"
     inkscape:snap-grids="false"
     inkscape:snap-global="false"
     inkscape:lockguides="false"
     guidecolor="#00ffff"
     guideopacity="0.49803922"
     inkscape:snap-midpoints="true" />
  <g
     id="layer1"
     inkscape:groupmode="layer"
     inkscape:label="germany"
     transform="translate(-99.978774,-40.99481)">
    <g
       id="g1015"
       inkscape:label="coa"
       transform="matrix(2.593953,0,0,-2.593953,283.25857,69.799517)">
      <g
         id="g944"
         inkscape:label="coa-0">
        <path
           d="M -68.40774,8.7608861 V -125.26794 c 0.0697,-8.36374 3.624285,-23.97604 26.027142,-34.64976 9.150323,-4.36109 16.926604,-7.0096 23.786857,-9.3395 10.3849692,-3.54463 17.89241576,-6.10353 23.0002673,-12.34646 l 1.2744737,-1.56323 1.2744737,1.56323 c 5.1078513,6.24293 12.6053413,8.80183 23.0002673,12.34646 6.860253,2.3299 14.636534,4.97841 23.786857,9.3395 22.402858,10.67372 25.957444,26.28602 26.027142,34.64976 V 8.7608861 Z"
           style="display:inline;fill:#ffcc00;fill-opacity:1;fill-rule:nonzero;stroke:none;stroke-width:1"
           id="path841"
           inkscape:label="coa-o" />
        <path
           d="m 0,0 c 0,0 4.98,-3.39 4.98,-14.44 v -114.83 l -8.04,6.71 v 88.65 l -2.7,-2.37 v -84.01 l -7.5,6.25 v 72.56 l -2.71,-1.53 v -68.77 l -7.72,6.45 v 58.74 l -2.7,-1 v -55.48 l -8.04,6.71 v 46.42 l -2.71,-0.55 v -43.6 l -8.13,6.78 0.03,36.02 h -0.69 l -5.54,-33.36 21.8,-22.74 h -5.99 l 8.85,-13.76 c 1.93,0.96 8.85,4.4 12.28,6.4 l 3.92,-3.87 c 0.38,-1.75 0.32,-5.8 0.32,-5.8 0,-0.11 -0.07,-0.14 -0.15,-0.07 l -3.49,2.96 -0.05,-0.74 c -2.78,-0.65 -6.61,-1.69 -8.6,-2.24 1.14,-0.77 3.07,-2.02 5.43,-3.37 2.41,-1.37 5.26,-2.86 8.17,-4.03 -0.02,-0.1 -0.11,-0.53 -0.37,-1.22 -0.46,-1.24 -1.4,-3.31 -3.3,-5.89 l -1.74,-2.29 c -0.06,-0.08 -0.1,-0.07 -0.1,0.04 l 0.14,6.41 -2.19,-1.63 c -3.17,3.62 -7.2,6.97 -9.12,8.5 0.22,-2.94 0.74,-9.76 1.18,-14.01 0,0 -2,-1.73 -7.24,-3.59 0,0 -0.14,-0.05 -0.09,0.1 l 1.02,2 v 0 c 0,0 0.75,1.52 1.2,3.18 l -3.6,-0.3 c 0.66,2.55 2.27,8.99 2.76,13.22 -0.13,-0.05 -0.26,-0.1 -0.41,-0.17 -1.71,-0.72 -4.75,-2.02 -7.72,-3.43 l -0.01,0.01 h -0.01 l -0.85,0.67 -0.49,0.4 0.21,-5.18 c 0,-0.1 -0.06,-0.14 -0.13,-0.07 0,0 -3.24,2.87 -4.09,3.61 0.01,1.2 -0.3,6.61 -0.3,6.61 4.14,0.55 9.52,1.56 11.9,2.02 l -10.06,9.38 v -0.1 -6.49 c 0,0 -9.12,13.9 -10.27,15.57 -0.13,-1.4 -0.78,-10.17 0.65,-19.83 1.6,-10.85 5.1,-20.29 18.23,-18.72 -5.01,-11.42 -17.49,-6.93 -19.69,-4.22 -3.92,-6.96 -8.17,-9.59 -8.22,-9.62 -0.04,0.03 -4.28,2.66 -8.2,9.62 -2.2,-2.71 -14.67,-7.2 -19.69,4.22 13.12,-1.57 16.62,7.87 18.22,18.72 1.43,9.66 0.78,18.43 0.65,19.83 -1.14,-1.67 -10.26,-15.57 -10.26,-15.57 v 6.59 l -10.07,-9.38 c 2.38,-0.46 7.76,-1.47 11.91,-2.02 0,0 -0.32,-5.41 -0.31,-6.61 -0.85,-0.74 -4.09,-3.61 -4.09,-3.61 -0.06,-0.07 -0.13,-0.03 -0.13,0.07 l 0.22,5.18 -0.5,-0.4 -0.85,-0.67 c 0,0 0,0 0,0 l -0.02,-0.01 c -2.96,1.41 -6.01,2.71 -7.72,3.43 -0.14,0.07 -0.28,0.12 -0.4,0.17 0.48,-4.23 2.09,-10.67 2.75,-13.22 l -3.59,0.3 c 0.44,-1.66 1.2,-3.18 1.2,-3.18 h 0.01 l 1,-2 c 0.05,-0.15 -0.08,-0.1 -0.08,-0.1 -5.25,1.86 -7.25,3.59 -7.25,3.59 0.44,4.25 0.97,11.07 1.2,14.01 -1.94,-1.53 -5.97,-4.88 -9.14,-8.5 l -2.18,1.63 0.14,-6.41 c 0,-0.11 -0.05,-0.12 -0.11,-0.04 l -1.74,2.29 c -1.9,2.58 -2.84,4.65 -3.29,5.89 -0.26,0.69 -0.36,1.12 -0.38,1.22 2.91,1.17 5.76,2.66 8.17,4.03 2.36,1.35 4.3,2.6 5.44,3.37 -1.99,0.55 -5.83,1.59 -8.61,2.24 l -0.05,0.74 -3.49,-2.96 c -0.08,-0.07 -0.14,-0.04 -0.15,0.07 0,0 -0.06,4.05 0.32,5.8 l 3.92,3.87 c 3.43,-2 10.36,-5.44 12.29,-6.4 l 8.86,13.76 h -6 l 21.8,22.74 -5.55,33.36 h -0.69 l 0.04,-36.02 -8.14,-6.78 v 43.6 l -2.7,0.55 v -46.42 l -8.04,-6.71 v 55.48 l -2.71,1 v -58.74 l -7.71,-6.45 v 68.77 l -2.72,1.53 v -72.56 l -7.5,-6.25 v 84.01 l -2.7,2.37 v -88.65 l -8.03,-6.71 v 114.83 c 0,11.05 4.97,14.44 4.97,14.44 0,0 -5.99,2.78 -6.07,8.45 3.09,-1.94 6.75,-2.92 9.46,-2.43 7.45,1.37 19.76,7.82 27.52,-6.58 -3.83,-10.07 -13.9,-11.37 -20.03,-4.05 -3.99,-5.65 -2.62,-16.08 8.65,-23.15 10.62,-6.66 23.65,-7.03 25.69,-6.99 0.19,2.06 0.39,8.9 6.47,14.73 2.72,2.63 4.99,8.05 4.9,11.69 0,0 -8.84,-1.03 -12.58,3.91 -0.01,0.03 -0.01,0.04 0,0.06 0.01,0.01 0.03,0.02 0.04,0.02 0.86,-0.17 1.43,-0.22 2.15,-0.25 -1.42,0.62 -6.49,2.4 -7.88,6.98 -0.01,0.06 0.04,0.09 0.07,0.07 6.71,-4.19 13.75,-5.09 16.32,-5.39 0.37,-0.04 -0.03,0.68 -0.07,0.74 -1.66,2.63 -3.53,3.52 -5.38,3.52 -2.22,-0.01 -2.98,-1.79 -2.98,-1.79 -1.06,0.78 -3.26,2.55 -3.39,7.05 -0.14,4.87 3.27,7.17 7.06,7.1 1.69,-0.02 3.43,-0.4 4.6,-1.03 0.03,0.93 0.43,1.62 0.43,1.62 0,0 3.21,-1.04 6.76,-2.53 5.57,-2.34 11.14,-4.56 15.65,-4.56 0.21,0 0.34,-0.17 0.21,-0.33 -2.19,-2.65 -6.08,-3.5 -6.08,-3.5 6.03,-14.25 6.41,-30.54 6.66,-38.1 0,0 0,0 0,0 0.01,0 0.01,0 0.01,-0.01 2.17,-0.03 15.1,0.37 25.65,6.99 11.27,7.07 12.64,17.5 8.65,23.15 -6.13,-7.32 -16.18,-6.02 -20.03,4.05 7.76,14.4 20.07,7.95 27.52,6.58 C -0.67,5.53 2.98,6.51 6.07,8.45 5.99,2.78 0,0 0,0 m 11.07,-115.41 c -0.05,-6.55 -2.36,-22.45 -25.2,-33.33 -23.39,-11.14 -38.66,-11.35 -47.56,-22.22 -8.87,10.87 -24.16,11.08 -47.55,22.22 -22.83,10.88 -25.14,26.78 -25.2,33.33 V 17.53 H 11.07 Z M -136.09,19.18 v -134.61 c 0.07,-8.39 3.63,-24.08 26.14,-34.8 9.18,-4.36 16.99,-7.03 23.89,-9.38 10.43,-3.56 17.97,-6.12 23.1,-12.4 l 1.27,-1.56 1.3,1.56 c 5.11,6.28 12.65,8.84 23.08,12.4 6.9,2.35 14.72,5.02 23.89,9.38 22.51,10.72 26.07,26.41 26.15,34.8 V 19.18 Z"
           style="display:inline;fill:#000000;fill-opacity:1;fill-rule:nonzero;stroke:none"
           id="path845"
           inkscape:label="coa-s"
           transform="translate(67.365,-10.006)" />
      </g>
      <g
         id="g1006"
         inkscape:label="eagle">
        <path
           d="m 0,0 c -0.08,-0.02 -6.65,-1.34 -11.99,-2.09 l 0.07,-1.48 0.93,0.82 3.48,-2.81 c 4.22,1.98 8.38,3.67 8.43,3.69 l 0.17,0.08 c 0.36,0.14 0.74,-0.15 0.72,-0.53 L 1.79,-2.51 C 1.53,-6.07 0.21,-11.78 -0.65,-15.22 l 4.5,0.37 1.03,-1.04 c -0.52,5.6 -1.06,13.08 -1.07,13.17 l -0.03,0.44 c -0.03,0.37 0.4,0.61 0.7,0.39 l 0.35,-0.27 c 0.06,-0.03 5.36,-4.03 9.66,-8.69 1.97,1.61 2.6,2.18 2.6,2.18 0,0 1.23,0.16 2.43,0.31 -6.93,3.1 -13.04,7.45 -13.11,7.5 L 6.15,-0.67 C 5.82,-0.44 5.91,0.08 6.31,0.19 l 0.3,0.09 c 0.06,0.01 5.14,1.45 9.02,2.39 l 0.25,3.91 1.2,0.01 c 0,0 -0.52,0.53 -0.99,0.99 C 11.84,5.19 4.45,1.56 4.09,1.38 v 0 C 3.79,1.24 3.45,1.34 3.28,1.61 l -9.6,14.91 h -5.22 V 12.14 L 0.52,0.89 C 0.81,0.62 0.67,0.14 0.28,0.06 Z m -10.97,-4.04 -1.17,-1.04 0.05,-2.08 2.15,-1.91 -0.17,4.35 z M 5.18,-17.73 c -0.81,0.91 -1.69,1.86 -1.69,1.86 l -1.11,-0.1 c 0,0 -0.04,-0.15 -0.09,-0.32 -0.47,-1.96 -1.27,-3.55 -1.27,-3.55 0,0 2.97,1.15 4.16,2.11 m 12.39,8.12 -0.18,-4.9 c 0,0 2.42,3.37 3.02,5.27 -0.05,-0.01 -2.84,-0.37 -2.84,-0.37 m -0.74,15.2 1.84,-0.12 c 0,0 0.31,-0.35 0.66,-0.75 0.21,-1.33 0.23,-3.25 0.23,-3.25 L 16.68,3.91 Z M -61.94,0.06 c -0.39,0.08 -0.53,0.56 -0.24,0.83 l 12.06,11.25 v 4.38 h -5.23 L -64.94,1.61 c -0.17,-0.27 -0.52,-0.37 -0.81,-0.23 v 0 c -0.36,0.18 -7.74,3.81 -12,6.2 -0.47,-0.46 -1,-0.99 -1,-0.99 l 1.2,-0.01 0.26,-3.91 c 3.87,-0.94 8.96,-2.38 9.02,-2.39 l 0.3,-0.09 c 0.4,-0.11 0.49,-0.63 0.15,-0.86 l -0.25,-0.19 c -0.07,-0.05 -6.2,-4.4 -13.11,-7.5 1.2,-0.15 2.42,-0.31 2.42,-0.31 0,0 0.64,-0.57 2.6,-2.18 4.3,4.66 9.61,8.66 9.67,8.69 l 0.35,0.27 c 0.3,0.22 0.72,-0.02 0.7,-0.39 l -0.03,-0.44 c -0.01,-0.09 -0.55,-7.57 -1.07,-13.17 l 1.03,1.04 4.5,-0.37 c -0.87,3.44 -2.18,9.15 -2.44,12.71 l -0.02,0.19 c -0.02,0.38 0.36,0.67 0.72,0.53 l 0.17,-0.08 c 0.05,-0.02 4.21,-1.71 8.43,-3.69 l 3.48,2.81 0.93,-0.82 0.07,1.48 c -5.34,0.75 -11.92,2.07 -11.99,2.09 z m 10.39,-4.78 -0.18,-4.35 2.16,1.91 0.05,2.08 -1.17,1.04 z m -11.13,-15.12 c 0,0 -0.81,1.59 -1.28,3.55 -0.04,0.17 -0.08,0.32 -0.08,0.32 l -1.12,0.1 c 0,0 -0.87,-0.95 -1.68,-1.86 1.18,-0.96 4.16,-2.11 4.16,-2.11 m -19.39,10.6 c 0.6,-1.9 3.01,-5.27 3.01,-5.27 l -0.17,4.9 c 0,0 -2.79,0.36 -2.84,0.37 m 3.73,13.15 -2.88,-2.44 c 0,0 0.03,1.92 0.23,3.25 0.35,0.4 0.65,0.76 0.65,0.76 l 1.85,0.11 z m 36.88,115.34 c 1.78,0 3.95,0.27 4.41,0.47 0.29,0.12 0.13,0.19 -0.03,0.21 -6.85,0.71 -11.35,2.31 -14.96,4.23 1.51,-1.77 4.45,-3.57 8.7,-4.74 0.45,-0.13 1.13,-0.17 1.88,-0.17 m 9.18,-1.66 c -1.21,-0.48 -4.44,-0.92 -6.1,-0.92 -3.91,0 -6.51,1.45 -6.91,1.62 4.28,-0.5 8.51,0.03 10.03,0.86 -1.99,5.34 -5.37,7.43 -8,7.43 -1.23,0 -2.31,-0.46 -3,-1.26 -1.42,1.2 -2.03,3.64 -2.06,5.15 -0.09,4.53 2.93,5.84 5.76,5.84 2,0 3.92,-0.66 4.56,-1.28 -0.04,-2.94 0.72,-5.46 2.42,-8.52 1.4,-2.52 3,-4.62 3.3,-8.92"
           style="fill:#ff0000;fill-opacity:1;fill-rule:nonzero;stroke:none"
           id="path849"
           inkscape:label="eagle-g"
           transform="translate(36.510998,-133.938)" />
        <path
           d="m 0,0 c 0.34,-2.52 1.15,-4.55 1.39,-4.62 0.36,-0.11 2.7,1.77 3.1,2.39 0.14,0.21 -1.46,0.94 -1.61,0.66 C 2.48,-2.29 1.97,-3.33 1.72,-3.75 1.65,-3.88 1.51,-3.86 1.49,-3.69 1.39,-2.14 1.33,-1.25 1.27,-0.55 1.25,-0.37 -0.06,0.45 0,0"
           style="fill:#ffffff;fill-opacity:1;fill-rule:nonzero;stroke:none"
           id="path853"
           inkscape:label="eagle-eye" />
      </g>
    </g>
  </g>
</svg>
