<?xml version="1.0" encoding="ISO-8859-1" standalone="no"?>
<!DOCTYPE svg PUBLIC "-//W3C//DTD SVG 1.1//EN" "http://www.w3.org/Graphics/SVG/1.1/DTD/svg11.dtd">
<svg
   xmlns:svg="http://www.w3.org/2000/svg"
   xmlns="http://www.w3.org/2000/svg"
   xmlns:xlink="http://www.w3.org/1999/xlink"
   version="1.1"
   width="572" height="846"
   viewBox="0 0 286 423">
  <title>Wappen des Bezirks Mitte</title>
  <desc>Das Wappen des Berliner Bezirks Mitte</desc>
  <g id="Turm" stroke="black" >
    <path d="M 1.5,1.5 h 15 v 12 h 15 v -12 h 15 v 12 h 15 v -12 h 15 V 24 l -10,8.5 v 71 h -55 v -71 h 55 h -55 l -10,-8.5 z"
          stroke-width="3" fill="#e62518" />
    <path d="M 2,14 H 76 V 24 H 2 M 21,14 V 24 H 39 V 14 H 57 V 24 M 15,24 l 6,8 H 33 L 31,24 H 47 l -2,8 H 57 l 6,-8 M 12,89 H 66 V 75 H 12 V 61 H 66 V 47 H 12 H 39 V 61 H 21 V 47 h 9 V 33 H 48 V 47 h 9 V 61 H 48 V 75 h 9 V 89 H 48 V 103 H 30 V 89 H 21 V 75 h 9 V 61 V 75 h 9 V 89"
          stroke-width="2" fill="none" />
    <path d="M 35,75 h 8 V 58 A 4 4 0 0 0 35,58 z" />
  </g>
  <g id="Mauer" stroke="black" >
    <path d="M 66.5,49.5 h 17 v 11 h 15 v -11 h 17 v 54 h -49 z"
          stroke-width="3" fill="#e62518" />
    <path d="M 67,61 h 48 v 14 h -48 v 14 h 48 M 91,61 v 14 h 10 v 14 M 81,75 v 14 h 10 v 14"
          stroke-width="2" fill="none" />
  </g>
  <use x="104" xlink:href="#Turm" />
  <use x="104" xlink:href="#Mauer" />
  <use x="208" xlink:href="#Turm" />
  <path d="M 122,41 h 42 v 35 A 21 21 0 1 1 122,76 z"
        stroke="black" stroke-width="2" fill="white" />
  <svg id="Baer" x="127" y="44" width="29" height="48.024" viewBox="0 0 2500 4140">
    <path d="M 1522,109 L 1278,118 C 1266,119 1257,125 1257,139 1258,227 1275,284 1338,330 1330,379 1335,404 1386,445 1391,405 1407,387 1432,370 1434,371 1436,371 1437,372 1434,390 1434,409 1438,420 1448,448 1497,449 1510,429 1522,458 1547,459 1567,459 1588,459 1598,444 1605,430 1617,440 1629,451 1640,465 1675,513 1681,575 1681,634 1670,635 1659,636 1648,637 L 1648,613 C 1647,579 1568,573 1550,602 1530,580 1468,584 1468,619 L 1468,630 C 1454,612 1443,593 1434,574 1409,590 1394,602 1398,659 1387,660 1376,661 1366,662 1367,728 1396,746 1632,741 1638,807 1572,844 1523,875 1395,948 1260,1028 1187,1162 1126,1268 1111,1394 1118,1516 L 1188,1485 1196,1523 C 1070,1583 840,1705 689,1775 652,1792 556,1816 536,1782 467,1663 412,1573 332,1482 189,1545 123,1603 69,1736 182,1909 369,2157 679,2159 1000,2161 1279,2043 1340,2025 L 1353,2066 C 1312,2084 1276,2097 1233,2111 1289,2331 1354,2417 1505,2551 L 1474,2574 C 1447,2558 1401,2507 1376,2483 1055,2635 935,2787 858,2944 773,3133 789,3348 825,3547 832,3580 796,3596 769,3586 695,3569 654,3495 583,3468 551,3454 512,3441 477,3446 395,3563 405,3622 416,3769 524,3822 640,3835 760,3897 839,3929 915,3981 1005,3967 1056,3962 1107,3927 1112,3873 1157,3679 1220,3473 1368,3333 1439,3263 1531,3207 1622,3164 1586,3026 1559,2888 1562,2744 L 1606,2742 C 1638,3290 1784,3405 2041,3660 2067,3686 2065,3735 2027,3750 1977,3775 1918,3777 1861,3779 1851,3921 1884,4060 1936,4117 2094,4114 2258,3989 2353,3868 2393,3818 2441,3768 2479,3719 2526,3658 2475,3587 2461,3531 2422,3371 2404,2911 2402,2847 L 2458,2848 2466,2732 C 2299,2525 2326,2201 2257,1992 2230,1907 2200,1819 2200,1729 2200,1607 2338,1378 2335,1174 2334,1088 2286,976 2287,925 2288,777 2373,809 2371,501 2370,416 2360,353 2338,266 2487,109 2282,-48 2164,50 2069,25 2057,0 1871,0 1712,0 1621,43 1522,109 z M 1234,1026 C 942,940 735,901 619,813 502,724 550,533 413,424 286,420 210,477 156,548 375,885 83,967 1074,1533 1070,1220 1129,1155 1234,1026 z M 1839,299 C 1824,299 1797,291 1789,280 1702,147 1680,195 1667,241 1656,282 1608,283 1622,228 1657,93 1752,112 1870,299 z M 2116,164 C 2140,132 2177,101 2217,88 2276,68 2300,116 2253,132 2214,146 2181,173 2153,201 z M 1349,337 C 1364,346 1385,357 1416,366 1399,380 1383,400 1378,422 1351,403 1340,368 1349,337 z M 1509,390 C 1509,403 1506,416 1502,422 1492,438 1455,437 1447,415 1444,406 1444,390 1448,375 1468,380 1489,384 1509,390 z M 1521,393 C 1548,401 1574,410 1597,425 1592,437 1583,449 1565,449 1549,449 1531,448 1521,429 1516,419 1518,405 1521,393 z M 1467,653 L 1408,658 C 1405,630 1408,606 1430,590 1441,610 1453,629 1467,646 z M 1477,652.5 V 621 C 1477,588 1547,590 1548,621 V 646 z M 1557,645 V 617 C 1557,584 1638,586 1638,616 V 638 z" />
    <g fill="#e62518">
      <path d="M 1178,378 c 1,256 379,130 499,191 -2,-16 -5,-32 -10,-48 -61,-22 -148,-7 -241,-22 -187,-30 -210,-83 -210,-122 -1,-41 -38,-43 -38,1" />
      <g id="Krallen">
        <path d="M 329,3474 s 35,-13 110,26 c 36,18 58,-51 28,-60 -92,-29 -138,34 -138,34"
              id="Kralle" />
        <use xlink:href="#Kralle" transform="translate(-25,63)" />
        <use xlink:href="#Kralle" transform="translate(-44,128)" />
        <use xlink:href="#Kralle" transform="translate(-46,197)" />
        <use xlink:href="#Kralle" transform="translate(-37,267)" />
      </g>
      <use xlink:href="#Krallen" transform="matrix(0.98585,-0.362747,0.362747,0.98585,152.8742,556.3228)" />
      <use xlink:href="#Krallen" transform="matrix(0.662705,0.948407,-0.717713,0.895796,2492.198,-2039.701)" />
      <use xlink:href="#Krallen" transform="matrix(0.500922,0.739494,-0.739494,0.500922,2724.41,-1655.876)" />
    </g>
  </svg>
  <svg id="Wappenschild" x="10" y="102" width="266" height="321">
    <defs>
      <clipPath id="cpSchild">
        <path d="M 3,3 H 263 V 188 A 130 130 0 0 1 3,188 z" />
      </clipPath>
    </defs>
    <path d="M 1.5,1.5 h 263 V 188 A 131.5 131.5 0 0 1 1.5,188 z"
          stroke="black" stroke-width="3" fill="white" />
    <path d="M -7,140 H 273 V -102 L -7,382 H 273 L -7,-102 z"
          stroke="black" stroke-width="3" fill="#e62518" clip-path="url(#cpSchild)" />
    <path d="M 66.5,69.5 h 133 v 83.5 A 66.5 66.5 0 0 1 66.5,153 z"
          stroke="black" stroke-width="3" fill="#fec728" />
    <path d="M 141,100 v -4 h 4.5 z M 145.5,97 h 3 v 1.5 a 1.5 1 0 0 1 -3,0 z M 142,103.5 v 3.5 h 4.5 z M 145.5,107 h 3 v -1.5 a 1.5 1 0 0 0 -3,0 z"
          stroke="black" stroke-width="1" fill="white" />
    <path d="M 136,85.5 c 0,0 -1.5,10 4,11.5 7.5,1 12,-0.5 11.5,9 l -12,0 c 0,0 -0.5,5 4.5,6.5 7,1.5 11,-0.5 11,3.5 0,5 -9,2 -16,28.5 0,-7 4,-16.5 4,-16.5 -7,-7 -12.5,-15 -19,-23 -5.5,-6 -10,-6 -14,-6 -4,0 -11.5,2 -11.5,10 0,4.5 13,10 22,19 9.5,9 16,18 16.5,22.5 0,5 -9.5,13 -14,15.5 -4,2.5 -8.5,-1 -14.5,-1 -6,0 -9.5,5 -9.5,9.5 0,4 4,8 10,8 25.5,0 45,-28.5 62.5,-28 -10,3 -24,13.5 -41,26 -1.5,17 1.5,28 5.5,39 21.5,-3.5 33.5,-8.5 48,-24 -1,-7.5 -4.5,-19 -3.5,-32 0,-12.5 6.5,-14.5 7,-27 0.5,-12 -5,-16.5 -5,-23.5 0,-7 3.5,-6.5 3.5,-13.5 0.5,-6.5 -2.5,-10 -2.5,-10 0,0 3,-3 2.5,-6 0,-2.5 -2.5,-5.5 -6,-5.5 -2.5,0 -5,3 -4.5,3 0,0 -5,-3 -11,-2.5 -6.5,0 -12.5,2 -14,6.5 z" />
    <path d="M 152,90.5 A 3.5 3.5 0 0 1 159,90.5 z"
          stroke="black" stroke-width="1" fill="white" />
    <path d="M 74.5,111 a 3.5 3.5 0 0 1 3.5,3.5 v 33.25 a 24.25 24.25 0 0 0 48.5,0 V 114.5 a 3.5 3.5 0 0 1 3.5,-3.5 z"
          stroke="black" stroke-width="2" fill="#0056ad" />
    <g stroke="black" stroke-width="1" fill="#fec728" >
      <path d="M 98.25,150 h 8 v 13 h -8 z" />
      <path d="M 102.25,151 c -5,0 -5,-2 -5,-6 0,-3 0,-14 5,-14 5,0 5,11 5,14 0,4 0,6 -5,6 z" />
      <ellipse cx="102.25" cy="164.5" rx="4.5" ry="3" />
      <ellipse cx="102.25" cy="129.5" rx="4.5" ry="2.5" />
      <path d="M 99,127.5 c -0.5,-1.5 -2,-2 -3,-2 -3,0 -2,2 -7,2 4,-3.5 3,-8.5 7,-8.5 3.5,0 3,4 5.5,5.5 -2.5,-1.5 -2.5,-4.5 -2.5,-4.5 0,-2.5 2.5,-3 3.25,-5 0.75,2 3.25,2.5 3.25,5 0,0 0.5,3 -2.5,4.5 3,-1.5 2,-5.5 5.5,-5.5 4,0 3,5 7,8.5 -5,0 -4,-2 -7,-2 -1,0 -2.5,0.5 -3,2 z" />
    </g>
    <g stroke="black" stroke-width="1" fill="#e62518" >
      <path d="M 152.5,106 C 151,104 150,103 146,103 C 142.5,103 136.5,103.5 134,102 C 131,100.5 130,98 125,96.5 C 134.5,96.5 133.5,98 138,100 C 141,101 143.5,102 147.5,102 C 150,102 152,104 152.5,106 z" />
      <g id="Krallen2" >
        <path d="M 101.5,112.5 c -2,-2.5 -3.5,-5 -1.5,-7.5 4.5,-5.5 9.5,-3 4.5,1.5 -1.5,1.5 -2.5,2.5 -3,6 z"
              id="Kralle2" />
       <use x="5.6" y="0.5" xlink:href="#Kralle2" />
        <use x="11.2" y="1" xlink:href="#Kralle2" />
      </g>
      <use xlink:href="#Krallen2" transform="matrix(0.9554332,0,0,-0.9540711,4.4575775,276.47252)" />
    </g>
  </svg>
</svg>
